<svg width="18" height="10" viewBox="0 0 18 10" fill="none" xmlns="http://www.w3.org/2000/svg">
<path d="M9 9.99999C8.89888 10.0004 8.79869 9.98012 8.7053 9.94044C8.6119 9.90076 8.52716 9.84243 8.45602 9.76887L0.245004 1.36437C0.169374 1.29224 0.108713 1.20525 0.0666396 1.1086C0.0245664 1.01195 0.00194345 0.907616 0.000119801 0.801821C-0.00170385 0.696027 0.0173092 0.59094 0.0560251 0.49283C0.0947411 0.39472 0.152367 0.305597 0.225464 0.230778C0.298561 0.155958 0.385633 0.0969741 0.481484 0.0573458C0.577336 0.0177175 0.680003 -0.001744 0.783362 0.000122621C0.886721 0.00198924 0.988654 0.0251457 1.08308 0.0682103C1.17751 0.111275 1.26249 0.173366 1.33296 0.250778L9 8.09848L16.667 0.250778C16.7375 0.173366 16.8225 0.111275 16.9169 0.0682103C17.0113 0.0251457 17.1133 0.00198924 17.2166 0.000122621C17.32 -0.001744 17.4227 0.0177175 17.5185 0.0573458C17.6144 0.0969741 17.7014 0.155958 17.7745 0.230778C17.8476 0.305597 17.9053 0.39472 17.944 0.49283C17.9827 0.59094 18.0017 0.696027 17.9999 0.801821C17.9981 0.907616 17.9754 1.01195 17.9334 1.1086C17.8913 1.20525 17.8306 1.29224 17.755 1.36437L9.54398 9.76887C9.47284 9.84243 9.3881 9.90076 9.2947 9.94044C9.20131 9.98012 9.10112 10.0004 9 9.99999Z" fill="#191919"/>
</svg>
