<svg width="10" height="18" viewBox="0 0 10 18" fill="none" xmlns="http://www.w3.org/2000/svg">
<path d="M9.99999 9C10.0004 9.10112 9.98012 9.2013 9.94044 9.2947C9.90076 9.3881 9.84243 9.47284 9.76887 9.54398L1.36437 17.755C1.29224 17.8306 1.20525 17.8913 1.1086 17.9334C1.01195 17.9754 0.907617 17.9981 0.801822 17.9999C0.696027 18.0017 0.590941 17.9827 0.492831 17.944C0.394721 17.9053 0.305598 17.8476 0.230778 17.7745C0.155959 17.7014 0.0969748 17.6144 0.0573465 17.5185C0.0177183 17.4227 -0.00174328 17.32 0.00012334 17.2166C0.00198996 17.1133 0.0251465 17.0113 0.0682111 16.9169C0.111276 16.8225 0.173367 16.7375 0.250779 16.667L8.09848 9L0.250779 1.33296C0.173366 1.26249 0.111275 1.17751 0.0682104 1.08308C0.0251458 0.988655 0.00198925 0.886721 0.000122622 0.783361C-0.00174401 0.680002 0.0177175 0.577335 0.0573458 0.481483C0.0969741 0.385633 0.155958 0.298561 0.230778 0.225464C0.305597 0.152367 0.39472 0.0947398 0.49283 0.0560244C0.59094 0.0173071 0.696027 -0.00170531 0.801821 0.000120015C0.907616 0.00194344 1.01195 0.0245646 1.1086 0.0666388C1.20525 0.108711 1.29224 0.169372 1.36437 0.245003L9.76887 8.45602C9.84243 8.52716 9.90076 8.6119 9.94044 8.70529C9.98012 8.79869 10.0004 8.89887 9.99999 9Z" fill="#404040"/>
</svg>
