<?xml version="1.0" encoding="utf-8"?>
<!-- Generator: Adobe Illustrator 23.0.5, SVG Export Plug-In . SVG Version: 6.00 Build 0)  -->
<svg version="1.1" id="Capa_1" xmlns="http://www.w3.org/2000/svg" xmlns:xlink="http://www.w3.org/1999/xlink" x="0px" y="0px"
	 viewBox="0 0 1366 523" style="enable-background:new 0 0 1366 523;" xml:space="preserve">
<style type="text/css">
	.st0{fill:#FE91A4;}
	.st1{fill:none;stroke:#FFF4F6;}
	.st2{fill-rule:evenodd;clip-rule:evenodd;fill:#FFF4F6;}
</style>
<rect class="st0" width="1366" height="523"/>
<path class="st1" d="M1018.9-61.6c90.6,19.7,86.7,170.1,148.6,246.4c55.1,68.1,173.1,74.9,185.2,165.6
	c12.2,92-63.9,171.9-133.5,223.2c-58.2,42.9-130.5,20-200.3,22.9c-74.9,3.2-156.3,45-216.1-5.2C739.3,538,726.8,439,726,350.4
	c-0.8-89.6,22.5-175.5,72.5-245.7C855.8,24.1,928.4-81.3,1018.9-61.6z"/>
<path class="st1" d="M667.6,250.8c-1-111.8-179.7-144.1-254.8-235.9c-66.9-81.8-46.1-222.8-150.4-259.3
	C156.6-281.3,43.5-211-34.2-141.4c-65,58.2-55.6,149.3-76.2,230.9c-22.1,87.6-91.5,173.5-46.8,256.5
	c47.5,88,161.4,127.1,265.9,149.7c105.7,22.9,212.9,16.4,308.2-25.3C526.3,422.4,668.6,362.5,667.6,250.8z"/>
<path class="st2" d="M1337.5,626.6c-23.2,6.5-38-27.4-55.6-45.4c-12.9-13.2-26.1-25.5-31.6-44c-6.2-20.8-7.9-43.2-0.1-63.3
	c9.2-23.8,23.6-47.2,45.9-54.7c23.4-7.9,49.1,0.2,69,16c19,15.1,32.8,39.1,33.4,65.1c0.5,23-20.9,36.6-30.7,56.8
	C1356.4,580.8,1360.8,620.1,1337.5,626.6z"/>
<path class="st2" d="M438.9,48.2c3.1-0.8,4.6-4.1,5.9-7c1.2-2.8,2.1-5.8,0.9-8.6c-1.2-3-3.8-5.4-7-6.1c-3.3-0.8-6.9-0.1-9.3,2.2
	c-2.3,2.1-2.3,5.5-2.1,8.6c0.2,2.8,1.1,5.5,3.1,7.4C432.8,46.9,435.8,48.9,438.9,48.2z"/>
<path class="st2" d="M64.6,202.4c-7.7-1.9-11.3-10-14.5-17.2c-3-6.8-5.1-14.2-2.2-21.1c3.1-7.4,9.4-13.2,17.2-15.1
	c8-2,17-0.3,23,5.3c5.6,5.3,5.6,13.6,5.1,21.2c-0.4,6.9-2.6,13.5-7.6,18.2C79.7,199.2,72.3,204.3,64.6,202.4z"/>
</svg>
