<svg width="49" height="49" viewBox="0 0 49 49" fill="none" xmlns="http://www.w3.org/2000/svg">
<path d="M24.5 47C36.9264 47 47 36.9264 47 24.5C47 12.0736 36.9264 2 24.5 2C12.0736 2 2 12.0736 2 24.5C2 36.9264 12.0736 47 24.5 47Z" fill="#FFCC4D"/>
<path fill-rule="evenodd" clip-rule="evenodd" d="M49 24.5C49 38.031 38.031 49 24.5 49C10.969 49 0 38.031 0 24.5C0 10.969 10.969 0 24.5 0C38.031 0 49 10.969 49 24.5ZM47 24.5C47 36.9264 36.9264 47 24.5 47C12.0736 47 2 36.9264 2 24.5C2 12.0736 12.0736 2 24.5 2C36.9264 2 47 12.0736 47 24.5Z" fill="#6D2F00"/>
<path d="M24.5 28.2508C19.9713 28.2508 16.9662 27.7233 13.25 27.0008C12.4013 26.837 10.75 27.0008 10.75 29.5008C10.75 34.5008 16.4937 40.7508 24.5 40.7508C32.505 40.7508 38.25 34.5008 38.25 29.5008C38.25 27.0008 36.5987 26.8358 35.75 27.0008C32.0338 27.7233 29.0287 28.2508 24.5 28.2508Z" fill="#664500"/>
<path d="M13.25 29.5C13.25 29.5 17 30.75 24.5 30.75C32 30.75 35.75 29.5 35.75 29.5C35.75 29.5 33.25 34.5 24.5 34.5C15.75 34.5 13.25 29.5 13.25 29.5Z" fill="white"/>
<path d="M17 23.25C18.7259 23.25 20.125 21.2912 20.125 18.875C20.125 16.4588 18.7259 14.5 17 14.5C15.2741 14.5 13.875 16.4588 13.875 18.875C13.875 21.2912 15.2741 23.25 17 23.25Z" fill="#664500"/>
<path d="M32 23.25C33.7259 23.25 35.125 21.2912 35.125 18.875C35.125 16.4588 33.7259 14.5 32 14.5C30.2741 14.5 28.875 16.4588 28.875 18.875C28.875 21.2912 30.2741 23.25 32 23.25Z" fill="#664500"/>
</svg>
