<svg width="45" height="45" viewBox="0 0 45 45" fill="none" xmlns="http://www.w3.org/2000/svg">
<g style="mix-blend-mode:luminosity" clip-path="url(#clip0_4562_35504)">
<path d="M22.5 45C34.9264 45 45 34.9264 45 22.5C45 10.0736 34.9264 0 22.5 0C10.0736 0 0 10.0736 0 22.5C0 34.9264 10.0736 45 22.5 45Z" fill="#FFCC4D"/>
<path d="M22.5 26.2508C17.9713 26.2508 14.9662 25.7233 11.25 25.0008C10.4013 24.837 8.75 25.0008 8.75 27.5008C8.75 32.5008 14.4937 38.7508 22.5 38.7508C30.505 38.7508 36.25 32.5008 36.25 27.5008C36.25 25.0008 34.5987 24.8358 33.75 25.0008C30.0338 25.7233 27.0287 26.2508 22.5 26.2508Z" fill="#664500"/>
<path d="M11.25 27.5C11.25 27.5 15 28.75 22.5 28.75C30 28.75 33.75 27.5 33.75 27.5C33.75 27.5 31.25 32.5 22.5 32.5C13.75 32.5 11.25 27.5 11.25 27.5Z" fill="white"/>
<path d="M15 21.25C16.7259 21.25 18.125 19.2912 18.125 16.875C18.125 14.4588 16.7259 12.5 15 12.5C13.2741 12.5 11.875 14.4588 11.875 16.875C11.875 19.2912 13.2741 21.25 15 21.25Z" fill="#664500"/>
<path d="M30 21.25C31.7259 21.25 33.125 19.2912 33.125 16.875C33.125 14.4588 31.7259 12.5 30 12.5C28.2741 12.5 26.875 14.4588 26.875 16.875C26.875 19.2912 28.2741 21.25 30 21.25Z" fill="#664500"/>
</g>
<defs>
<clipPath id="clip0_4562_35504">
<rect width="45" height="45" fill="white"/>
</clipPath>
</defs>
</svg>
