<svg width="82" height="82" viewBox="0 0 82 82" fill="none" xmlns="http://www.w3.org/2000/svg">
<rect width="82" height="82" rx="41" fill="#75CE6E"/>
<path d="M50.6439 53.5678C50.4096 53.5678 50.1586 53.618 49.941 53.7184C49.9243 53.7184 47.0292 56.6804 41.2223 56.6804C35.4153 56.6804 32.5202 53.7184 32.4868 53.7184C31.65 53.3335 30.6627 53.7184 30.2778 54.5384C29.8929 55.3751 30.2443 56.3624 31.081 56.7473C31.2149 56.8143 34.5953 60.0273 41.2223 60.0273C47.8492 60.0273 51.2296 56.8143 51.3635 56.7473C52.2002 56.3624 52.5684 55.3584 52.1668 54.5216C51.8823 53.9192 51.2798 53.551 50.6439 53.551V53.5678Z" fill="#191919"/>
<path d="M29.7421 26.8466C22.9855 27.2269 19.621 29.9457 19.4851 30.1376C18.9897 30.802 19.0127 31.8727 19.5255 32.4971C20.0389 33.1382 20.3544 33.0215 21.3488 32.4447C22.3432 31.868 24.2089 30.5082 29.8416 30.1911C30.5521 30.1511 31.1082 29.366 31.0773 28.4465C31.0464 27.5269 30.4398 26.8073 29.7292 26.8473L29.7421 26.8466Z" fill="#191919"/>
<path d="M30.5575 38.0551C30.5575 41.0674 28.1142 43.5106 25.102 43.5106C22.0898 43.5106 19.6465 41.0674 19.6465 38.0551C19.6465 35.0429 22.0898 32.5996 25.102 32.5996C28.1142 32.5996 30.5575 35.0429 30.5575 38.0551Z" fill="#191919"/>
<path d="M53.9307 26.8466C60.6874 27.2269 64.0519 29.9457 64.1878 30.1376C64.6832 30.802 64.6602 31.8727 64.1473 32.4971C63.6339 33.1382 63.3185 33.0215 62.3241 32.4447C61.3296 31.868 59.4639 30.5082 53.8312 30.1911C53.1207 30.1511 52.5646 29.366 52.5955 28.4465C52.6265 27.5269 53.2331 26.8073 53.9436 26.8473L53.9307 26.8466Z" fill="#191919"/>
<path d="M53.1153 38.0551C53.1153 41.0674 55.5586 43.5106 58.5709 43.5106C61.5831 43.5106 64.0264 41.0674 64.0264 38.0551C64.0264 35.0429 61.5831 32.5996 58.5709 32.5996C55.5586 32.5996 53.1153 35.0429 53.1153 38.0551Z" fill="#191919"/>
</svg>
