<svg width="95" height="95" viewBox="0 0 95 95" fill="none" xmlns="http://www.w3.org/2000/svg">
<rect x="6.5" y="6.5" width="82" height="82" rx="41" fill="#75CE6E"/>
<path d="M57.1449 60.0678C56.9106 60.0678 56.6596 60.118 56.442 60.2184C56.4253 60.2184 53.5302 63.1804 47.7232 63.1804C41.9163 63.1804 39.0212 60.2184 38.9877 60.2184C38.151 59.8335 37.1637 60.2184 36.7788 61.0384C36.3939 61.8751 36.7453 62.8624 37.582 63.2473C37.7159 63.3143 41.0963 66.5273 47.7232 66.5273C54.3502 66.5273 57.7306 63.3143 57.8645 63.2473C58.7012 62.8624 59.0694 61.8584 58.6677 61.0216C58.3832 60.4192 57.7808 60.051 57.1449 60.051V60.0678Z" fill="#191919"/>
<path d="M36.2431 33.3466C29.4865 33.7269 26.122 36.4457 25.986 36.6376C25.4906 37.302 25.5137 38.3727 26.0265 38.9971C26.5399 39.6382 26.8554 39.5215 27.8498 38.9447C28.8442 38.368 30.7099 37.0082 36.3426 36.6911C37.0531 36.6511 37.6092 35.866 37.5783 34.9465C37.5474 34.0269 36.9407 33.3073 36.2302 33.3473L36.2431 33.3466Z" fill="#191919"/>
<path d="M37.0575 44.5551C37.0575 47.5674 34.6142 50.0106 31.602 50.0106C28.5898 50.0106 26.1465 47.5674 26.1465 44.5551C26.1465 41.5429 28.5898 39.0996 31.602 39.0996C34.6142 39.0996 37.0575 41.5429 37.0575 44.5551Z" fill="#191919"/>
<path d="M60.4307 33.3466C67.1874 33.7269 70.5519 36.4457 70.6878 36.6376C71.1832 37.302 71.1602 38.3727 70.6473 38.9971C70.1339 39.6382 69.8185 39.5215 68.8241 38.9447C67.8296 38.368 65.9639 37.0082 60.3312 36.6911C59.6207 36.6511 59.0646 35.866 59.0955 34.9465C59.1265 34.0269 59.7331 33.3073 60.4436 33.3473L60.4307 33.3466Z" fill="#191919"/>
<path d="M59.6163 44.5551C59.6163 47.5674 62.0596 50.0106 65.0718 50.0106C68.0841 50.0106 70.5273 47.5674 70.5273 44.5551C70.5273 41.5429 68.0841 39.0996 65.0718 39.0996C62.0596 39.0996 59.6163 41.5429 59.6163 44.5551Z" fill="#191919"/>
</svg>
