<svg width="63" height="62" viewBox="0 0 63 62" fill="none" xmlns="http://www.w3.org/2000/svg">
<path d="M53.9148 14.3445C50.263 12.6861 46.3787 11.7654 42.4412 11.625C38.6951 11.7491 34.9953 12.5878 31.5 14.1051C28.0047 12.588 24.3048 11.7494 20.5588 11.625C16.6213 11.7651 12.7369 12.6858 9.08518 14.3445C8.83738 14.4611 8.62587 14.6574 8.47726 14.9087C8.32865 15.1599 8.24958 15.4549 8.25 15.7564V48.8403C8.25 49.2473 8.39409 49.6377 8.65058 49.9255C8.90706 50.2133 9.25493 50.375 9.61765 50.375H53.3824C53.7451 50.375 54.0929 50.2133 54.3494 49.9255C54.6059 49.6377 54.75 49.2473 54.75 48.8403V15.7564C54.7499 15.455 54.6707 15.1603 54.5221 14.9091C54.3736 14.658 54.1623 14.4616 53.9148 14.3445ZM52.0147 16.8123V44.449C48.9309 43.2567 45.7019 42.6045 42.4412 42.5153C39.1804 42.6041 35.9513 43.2563 32.8676 44.449V16.8123C35.9355 15.5288 39.1688 14.8135 42.4412 14.6944C45.7135 14.814 48.9468 15.5293 52.0147 16.8123ZM50.9881 47.3015H33.8925C36.6495 46.2539 39.5313 45.6779 42.4412 45.5929C45.3509 45.682 48.2322 46.2622 50.9881 47.3138M10.9853 16.8123C14.0531 15.5288 17.2865 14.8135 20.5588 14.6944C23.8311 14.814 27.0644 15.5293 30.1324 16.8123V44.449C27.0482 43.2595 23.8192 42.6101 20.5588 42.5235C17.2981 42.6123 14.069 43.2645 10.9853 44.4572V16.8123ZM29.1057 47.3015H12.0101C14.7671 46.2539 17.649 45.6779 20.5588 45.5929C23.4686 45.682 26.3498 46.2622 29.1057 47.3138" fill="#191919"/>
</svg>
