<svg width="121" height="191" viewBox="0 0 121 191" fill="none" xmlns="http://www.w3.org/2000/svg">
<path d="M12.6367 27.1817C12.6367 27.1817 17.9615 51.421 21.7212 57.7156C23.658 60.9491 40.0281 78.6263 40.0281 78.6263L47.2237 66.5186L30.314 51.0287L19.3766 26.2129L12.6367 27.1817Z" fill="#FFBF9D"/>
<path d="M12.3252 20.4829C12.2833 20.3105 11.6896 18.349 12.0794 17.7546C12.2217 17.5771 12.4048 17.4358 12.6135 17.3428C12.8221 17.2497 13.0502 17.2075 13.2787 17.2197C13.4431 16.7207 13.7727 16.2913 14.2141 16.0012C14.7011 15.7981 15.2404 15.7523 15.7552 15.8704L16.2948 15.4425C16.4691 15.2646 16.6895 15.1377 16.9317 15.0759C17.174 15.014 17.4287 15.0195 17.668 15.0918C18.1001 15.3721 18.609 15.5132 19.1251 15.496C19.8687 15.4127 20.99 17.3861 21.5956 18.3193C22.2013 19.2525 23.0347 20.4888 22.1953 22.0283C21.2909 23.5883 20.2896 25.0911 19.1971 26.5279L13.0868 27.675C13.0868 27.675 12.1873 27.0034 11.8875 24.8279C11.7326 23.3651 11.8816 21.8864 12.3252 20.4829Z" fill="#FFBF9D"/>
<path d="M13.2969 17.2188C13.5046 17.5682 13.6734 17.9389 13.8006 18.3243C14.0824 19.0198 14.4482 19.9827 14.8439 21.0526L14.9879 21.4508C15.0031 21.4894 15.0151 21.5292 15.0238 21.5697C15.0398 21.624 15.0398 21.6818 15.0238 21.7361C14.9899 21.8204 14.9315 21.8929 14.856 21.9442C14.6191 22.0926 14.3497 22.1823 14.0704 22.2057C13.8082 22.2492 13.5393 22.1895 13.3209 22.0393C13.139 21.9221 12.9821 21.7706 12.8592 21.5935C12.6796 21.3485 12.5344 21.0806 12.4274 20.797C12.3555 20.6008 12.3315 20.482 12.3495 20.482C12.3675 20.482 12.5414 20.9099 12.9971 21.4805C13.109 21.6468 13.2635 21.7806 13.4447 21.8683C13.6259 21.956 13.8273 21.9945 14.0285 21.9798C14.2685 21.9516 14.4996 21.8726 14.706 21.748C14.743 21.7203 14.772 21.6834 14.79 21.641C14.79 21.5994 14.79 21.641 14.79 21.534L14.6401 21.1358C14.2503 20.0659 13.9085 19.0911 13.6747 18.3838C13.508 18.0096 13.3814 17.6191 13.2969 17.2188Z" fill="#FF9A6C"/>
<path d="M15.7481 15.8711C15.8792 16.1848 15.9758 16.5116 16.0359 16.8459C16.1859 17.4403 16.3777 18.3022 16.5696 19.2235L16.6056 19.3305C16.7793 19.7872 16.8289 20.2812 16.7495 20.7629C16.7101 20.967 16.6173 21.1573 16.4805 21.3148C16.3438 21.4723 16.1677 21.5915 15.97 21.6605C15.7073 21.7339 15.4292 21.7339 15.1665 21.6605C14.9866 21.6189 14.8966 21.5654 14.9026 21.5475C14.9086 21.5297 15.0046 21.5475 15.1845 21.5475C15.4284 21.5684 15.6741 21.536 15.904 21.4524C16.0602 21.3806 16.1964 21.2722 16.3008 21.1365C16.4053 21.0009 16.4749 20.842 16.5037 20.6738C16.5589 20.2338 16.5054 19.787 16.3478 19.3721L16.3118 19.2829C16.1199 18.3378 15.958 17.4997 15.856 16.8637C15.7786 16.5386 15.7424 16.2051 15.7481 15.8711Z" fill="#FF9A6C"/>
<path d="M17.6619 15.0918C17.7081 15.598 17.7081 16.1073 17.6619 16.6134V16.5778C17.9737 17.3267 18.3874 18.361 18.8252 19.4665C18.9211 19.7162 19.011 19.9599 19.107 20.1917V20.2452V20.2927C18.9844 20.5467 18.8133 20.7748 18.6033 20.9644C18.407 21.1543 18.1509 21.2718 17.8777 21.2972C17.7533 21.3046 17.6288 21.2851 17.5128 21.2399C17.3968 21.1947 17.2922 21.1251 17.2061 21.0357C17.066 20.893 16.9505 20.7283 16.8643 20.5483C16.7415 20.3 16.647 20.0388 16.5825 19.7697C16.5405 19.5795 16.5345 19.4725 16.5525 19.4725C16.5705 19.4725 16.6785 19.8767 17.0083 20.4651C17.1702 20.7385 17.44 21.1249 17.8657 21.0595C18.0947 21.0029 18.3064 20.8922 18.4828 20.737C18.6593 20.5817 18.7952 20.3865 18.8791 20.1679V20.2689L18.5973 19.5497C18.1596 18.4263 17.7698 17.398 17.494 16.6313V16.5897C17.5072 16.0866 17.5633 15.5855 17.6619 15.0918Z" fill="#FF9A6C"/>
<path d="M6.25644 29.8563L4.06776 29.3748C2.532 27.0599 1.49498 24.4556 1.02161 21.725C0.561426 18.5615 0.330976 15.3694 0.332035 12.1731L23.1182 0L25.055 10.9725L6.25644 29.8563Z" fill="#455A64"/>
<path d="M26.2773 16.1863L26.3613 1.41563L24.5624 0.619141L1.11657 13.2856C1.11657 13.2856 0.36102 22.8553 4.49851 28.8884L5.96763 29.2272L26.2773 16.1863Z" fill="white"/>
<path d="M6.25613 29.856L27.0995 16.5773C27.0995 16.5773 26.7397 3.58987 28.5206 1.25391L3.55777 15.5134C3.55777 15.5134 1.21918 19.472 6.25613 29.856Z" fill="#455A64"/>
<path d="M25.0612 1.02148C24.7841 1.22593 24.4914 1.40876 24.1857 1.56833L21.7392 2.9592C19.6705 4.11827 16.8042 5.70529 13.6261 7.44091C10.448 9.17654 7.5578 10.7576 5.45907 11.8454L2.97059 13.1352C2.67136 13.3068 2.35851 13.4539 2.03516 13.575C2.31103 13.3688 2.60388 13.1859 2.91062 13.0282L5.35114 11.6373C7.42589 10.4485 10.2922 8.89123 13.4702 7.15561C16.6483 5.41998 19.5385 3.86862 21.6373 2.75711L24.1258 1.44945C24.427 1.28507 24.7396 1.14206 25.0612 1.02148Z" fill="#263238"/>
<path d="M26.08 1.48633C25.8017 1.68898 25.5091 1.87172 25.2046 2.03317L22.7581 3.42404C20.6893 4.61283 17.823 6.17013 14.639 7.90576C11.4549 9.64138 8.57666 11.1927 6.47793 12.3043L4.01942 13.6119C3.71853 13.7804 3.40593 13.9273 3.08398 14.0518C3.35986 13.8455 3.65271 13.6626 3.95945 13.5049L6.39997 12.114C8.46872 10.9253 11.341 9.36796 14.5191 7.63234C17.6971 5.89671 20.5874 4.34535 22.6801 3.2279L25.1746 1.92618C25.4642 1.75602 25.7669 1.60895 26.08 1.48633Z" fill="#263238"/>
<path d="M19.161 26.5278C19.161 26.5278 22.1592 22.1828 22.1592 22.0282C22.1592 21.8737 20.9899 17.2731 20.1504 16.4707C19.3109 15.6682 18.1836 14.6875 18.1836 14.6875C18.1836 14.6875 16.9844 14.9906 17.584 16.756C18.1836 18.5213 18.9691 20.3223 18.9691 20.3223L17.9558 21.8202C17.9558 21.8202 14.0521 22.9139 14.322 26.6169" fill="#FFBF9D"/>
<path d="M14.3641 26.5984C14.3368 26.4454 14.3248 26.2901 14.3281 26.1348C14.3211 25.9478 14.3332 25.7606 14.3641 25.5761C14.3918 25.3215 14.446 25.0706 14.526 24.8271C14.751 24.1658 15.1312 23.5669 15.6353 23.0796C16.3007 22.4551 17.0973 21.9841 17.9679 21.7006L17.9079 21.7422L18.9093 20.2682V20.3751C18.5495 19.5489 18.1897 18.6633 17.842 17.7242C17.6455 17.2473 17.4851 16.7565 17.3623 16.256C17.3095 15.9799 17.3198 15.6956 17.3922 15.4239C17.4673 15.135 17.6493 14.8846 17.9019 14.7225C17.9867 14.6668 18.0798 14.6247 18.1778 14.5977H18.2377L18.2917 14.6452L19.359 15.62L19.8867 16.0955C20.0707 16.2452 20.2394 16.4124 20.3904 16.5948C20.6406 16.9768 20.842 17.3881 20.99 17.8193C21.1579 18.2294 21.2959 18.6395 21.4338 19.008C21.6916 19.8045 21.9135 20.5713 22.0994 21.2965C22.1394 21.4827 22.1813 21.661 22.2253 21.8314L22.2553 21.9741C22.2553 21.9741 22.2553 22.0276 22.2553 22.0573L22.2193 22.1524L22.0754 22.3901L21.5237 23.2163C20.8042 24.2625 20.2105 25.1006 19.8028 25.6771L19.3171 26.3309C19.2647 26.41 19.2044 26.4837 19.1372 26.5509C19.1747 26.4633 19.2209 26.3797 19.2751 26.3012C19.395 26.1229 19.5389 25.897 19.7188 25.6177L21.3738 23.1212L21.9075 22.2831L22.0334 22.0692H22.0934C22.0274 22.0692 22.0454 22.0692 22.0394 22.0692V22.0335V21.9146L21.9015 21.3856C21.7096 20.6664 21.4878 19.9056 21.2179 19.115C21.086 18.7227 20.9421 18.3185 20.7802 17.9262C20.6268 17.5086 20.4256 17.1097 20.1806 16.7375C20.0343 16.5678 19.8738 16.4107 19.7008 16.2679L19.1792 15.7983L18.1118 14.8354H18.2257C18.1559 14.8585 18.0894 14.8905 18.0278 14.9305C17.8349 15.0759 17.691 15.2759 17.615 15.504C17.539 15.7321 17.5345 15.9777 17.6021 16.2085C17.7187 16.6951 17.8731 17.172 18.0638 17.635C18.4056 18.5682 18.7594 19.4538 19.1072 20.28L19.1372 20.3395L19.1012 20.387C18.7454 20.9101 18.4036 21.4094 18.0758 21.8849V21.9206H18.0338C17.1931 22.1859 16.42 22.6278 15.7672 23.2163C15.2728 23.6777 14.8913 24.2449 14.6519 24.8747C14.4839 25.4351 14.3872 26.0142 14.3641 26.5984Z" fill="#FF9A6C"/>
<path d="M22.1103 32.4071C25.4623 37.3228 26.6556 43.7006 30.4033 48.3547C32.1722 50.5539 30.3133 50.1913 32.2682 51.8794C36.0639 55.1664 42.8518 60.7953 46.1318 64.0644C47.1332 65.063 50.5751 63.0243 52.302 65.7347C52.9496 66.7511 48.1885 69.0098 47.7448 70.1332C45.712 75.2806 46.9653 81.6881 44.9325 86.8356C39.4758 82.0804 31.9384 75.0666 27.2012 69.6933C22.4641 64.32 19.1661 59.2855 17.0074 52.5927C15.3752 47.5846 14.0673 42.4783 13.0918 37.3049L13.8413 35.7238L13.3496 33.4354L21.1449 30.2852L22.1103 32.4071Z" fill="#9DE7D6"/>
<path d="M102.959 73.9847C101.892 72.1659 97.3886 68.7838 94.2525 67.6128C91.6981 66.6559 78.0624 65.0629 76.4493 69.1226L75.8497 101.047C74.9323 104.435 74.0088 107.847 73.8829 111.307C73.757 114.766 74.4825 118.326 76.6232 121.138C78.6547 123.748 81.6374 125.464 84.9312 125.919C88.2249 126.373 91.5672 125.529 94.2405 123.569C97.6585 120.954 99.0376 116.811 99.9551 112.87C101.7 105.392 102.408 97.7842 103.115 90.1997C103.463 86.4134 103.817 82.6272 103.853 78.8349C103.865 77.1825 103.805 75.441 102.959 73.9847Z" fill="#455A64"/>
<path d="M98.7631 176.409L111.955 174.311C111.955 174.311 118.551 186.87 120.998 186.716L117.808 161.264L97.1621 163.701L98.7631 176.409Z" fill="#455A64"/>
<path d="M109.85 166.579C109.893 166.324 110.029 166.095 110.233 165.934C110.437 165.774 110.694 165.694 110.954 165.711C111.211 165.747 111.445 165.879 111.608 166.08C111.771 166.281 111.85 166.536 111.829 166.793C111.782 167.067 111.632 167.312 111.41 167.481C111.187 167.65 110.909 167.729 110.63 167.702C110.364 167.64 110.133 167.477 109.986 167.248C109.839 167.02 109.789 166.743 109.844 166.478" fill="#E0E0E0"/>
<path d="M117.801 161.264L115.732 161.591L119.564 185.871C119.564 185.871 120.206 186.941 120.991 186.716L117.801 161.264Z" fill="#263238"/>
<path d="M111.871 174.739C111.991 174.739 111.973 174.091 112.296 173.425C112.62 172.76 113.112 172.379 113.046 172.266C112.98 172.153 112.284 172.433 111.901 173.241C111.517 174.049 111.757 174.81 111.871 174.739Z" fill="white"/>
<path d="M113.315 177.271C113.441 177.271 113.585 176.718 114.064 176.23C114.544 175.743 115.09 175.553 115.066 175.428C115.042 175.303 114.328 175.315 113.747 175.933C113.165 176.551 113.195 177.282 113.315 177.271Z" fill="white"/>
<path d="M116.751 178.376C116.751 178.257 116.116 178.162 115.474 178.566C114.832 178.971 114.623 179.589 114.737 179.624C114.85 179.66 115.168 179.262 115.702 178.935C116.236 178.608 116.751 178.513 116.751 178.376Z" fill="white"/>
<path d="M108.813 174.887C108.921 174.822 108.681 174.293 108.639 173.561C108.597 172.83 108.753 172.278 108.639 172.224C108.525 172.171 108.142 172.759 108.202 173.591C108.262 174.423 108.723 174.958 108.813 174.887Z" fill="white"/>
<path d="M78.3217 180.006L91.5137 177.908C91.5137 177.908 98.1097 190.468 100.556 190.313L97.3662 164.861L76.7207 167.298L78.3217 180.006Z" fill="#455A64"/>
<path d="M89.3899 170.175C89.4325 169.92 89.569 169.69 89.7729 169.53C89.9768 169.37 90.2335 169.29 90.4933 169.307C90.7509 169.342 90.985 169.474 91.1478 169.675C91.3105 169.877 91.3896 170.132 91.3688 170.389C91.3203 170.662 91.1701 170.907 90.948 171.075C90.7259 171.244 90.448 171.323 90.1695 171.298C89.904 171.231 89.6758 171.063 89.5334 170.831C89.3911 170.599 89.3461 170.32 89.4079 170.056" fill="#E0E0E0"/>
<path d="M97.3422 164.861L95.2734 165.188L99.1051 189.469C99.1051 189.469 99.7467 190.539 100.532 190.313L97.3422 164.861Z" fill="#263238"/>
<path d="M91.4054 178.335C91.5314 178.335 91.5134 177.687 91.8372 177.027C92.161 176.367 92.6527 175.975 92.5867 175.838C92.5208 175.702 91.8192 176.005 91.4414 176.813C91.0637 177.621 91.2975 178.376 91.4054 178.335Z" fill="white"/>
<path d="M92.8558 180.868C92.9817 180.868 93.1256 180.315 93.6053 179.828C94.0851 179.341 94.6247 179.15 94.6067 179.026C94.5888 178.901 93.8632 178.913 93.2815 179.531C92.6999 180.149 92.7659 180.88 92.8558 180.868Z" fill="white"/>
<path d="M96.2679 181.986C96.2679 181.867 95.6322 181.772 94.9846 182.176C94.337 182.58 94.1392 183.198 94.2531 183.234C94.367 183.269 94.6848 182.871 95.2185 182.544C95.7522 182.217 96.2738 182.11 96.2679 181.986Z" fill="white"/>
<path d="M88.3533 178.484C88.4612 178.419 88.2154 177.89 88.1794 177.158C88.1434 176.427 88.2933 175.875 88.1794 175.827C88.0655 175.779 87.6817 176.356 87.7356 177.188C87.7896 178.02 88.2633 178.555 88.3533 178.484Z" fill="white"/>
<path d="M44.0698 124.389C44.0698 124.389 35.8009 147.85 34.5116 152.557C33.2224 157.265 29.7145 169.622 33.4023 175.144C37.0901 180.666 44.9513 180.048 48.4352 178.824C51.9191 177.599 78.1951 162.329 78.1951 162.329L77.7754 153.722L54.5635 156.926L59.5465 134.541L60.302 121.602L44.0698 124.389Z" fill="#026849"/>
<path d="M55.2162 137.791L57.093 139.961C57.093 139.961 51.6663 163.558 51.9062 168.593C52.104 172.753 51.8462 179.078 59.0538 181.871C61.8225 182.91 64.8336 183.141 67.7306 182.537L77.8884 181.218L106.833 176.736L105.298 161.614L74.3745 162.256L79.9152 146.743C79.9152 146.743 83.0453 139.402 83.8848 134.189C84.7243 128.976 86.2833 123.871 85.9055 123.74C84.4784 123.27 81.7081 118.271 81.7081 118.271L56.3255 117.861L54.1248 131.895L55.2162 137.791Z" fill="#026849"/>
<path d="M79.9149 146.725C79.8504 147.041 79.7642 147.353 79.6571 147.658L78.8416 150.16C78.146 152.264 77.1626 155.171 76.0593 158.375C75.5016 159.974 74.9739 161.501 74.4942 162.892C74.0145 164.283 73.4928 165.507 73.0311 166.518C72.5694 167.528 72.1436 168.331 71.8318 168.895C71.6924 169.187 71.5237 169.464 71.3281 169.722C71.4339 169.417 71.5663 169.123 71.7239 168.842C71.9937 168.283 72.3835 167.475 72.8212 166.464C73.2589 165.454 73.7507 164.223 74.2184 162.839C74.6861 161.454 75.2078 159.914 75.7534 158.315C76.8568 155.111 77.8761 152.217 78.6317 150.125C78.9975 149.12 79.3033 148.288 79.5311 147.652C79.6282 147.331 79.7567 147.021 79.9149 146.725Z" fill="#191919"/>
<path d="M51.9908 169.925C51.7912 170.339 51.5372 170.725 51.2352 171.072C50.558 171.946 49.8291 172.78 49.0525 173.569C48.2797 174.357 47.4564 175.096 46.588 175.78C46.2494 176.091 45.8678 176.354 45.4547 176.559C45.3948 176.487 47.0318 175.185 48.8307 173.349C50.6296 171.512 51.9128 169.872 51.9908 169.925Z" fill="#191919"/>
<path d="M54.8691 179.138C54.7469 179.065 54.6341 178.977 54.5333 178.877C54.2391 178.598 53.9757 178.289 53.7478 177.955C52.964 176.683 52.4423 175.268 52.2128 173.795C52.1228 173.331 52.0748 172.844 52.0029 172.338C51.9309 171.833 51.859 171.304 51.841 170.751C51.823 170.199 51.757 169.634 51.769 169.045C51.781 168.457 51.769 167.857 51.799 167.233C51.94 164.551 52.2666 161.882 52.7764 159.244C53.8258 153.627 55.097 148.622 55.9185 144.979C56.3263 143.195 56.6621 141.715 56.9019 140.663C57.0158 140.176 57.1058 139.79 57.1777 139.474C57.2051 139.337 57.2432 139.202 57.2917 139.07C57.2898 139.211 57.2717 139.35 57.2377 139.486L57.0218 140.675C56.83 141.703 56.5241 143.183 56.1344 145.008C55.3668 148.67 54.1316 153.686 53.0822 159.274C52.5766 161.898 52.2441 164.553 52.0868 167.221C52.0389 167.815 52.0508 168.409 52.0449 169.004C52.0389 169.598 52.0449 170.151 52.0988 170.698C52.1528 171.245 52.1828 171.768 52.2427 172.273C52.3027 172.778 52.3507 173.266 52.4286 173.723C52.6363 175.177 53.1184 176.578 53.8498 177.854C54.145 178.315 54.4865 178.745 54.8691 179.138Z" fill="#191919"/>
<path d="M105.298 161.598C105.195 161.617 105.091 161.627 104.987 161.628L104.093 161.664L100.813 161.747L90.0197 162.068C85.7922 162.199 81.9665 162.282 79.1962 162.294C77.811 162.294 76.6897 162.294 75.9102 162.294H75.0227C74.918 162.296 74.8133 162.286 74.7109 162.264C74.8126 162.238 74.9179 162.228 75.0227 162.234L75.9102 162.199L79.1902 162.115L90.0137 161.794C94.2111 161.664 98.0668 161.574 100.837 161.562C102.222 161.562 103.344 161.562 104.117 161.562L105.011 161.592C105.106 161.58 105.203 161.582 105.298 161.598Z" fill="#455A64"/>
<path d="M56.1891 129.904C56.285 129.904 56.327 131.777 56.6388 134.065C56.9506 136.353 57.4063 138.172 57.3164 138.196C57.1261 137.821 56.9908 137.42 56.9146 137.007C56.6513 136.046 56.451 135.069 56.315 134.083C56.1805 133.098 56.1064 132.105 56.0931 131.111C56.0701 130.706 56.1024 130.3 56.1891 129.904Z" fill="#455A64"/>
<path d="M84.5988 52.0809C83.0997 50.0183 80.5393 48.8949 78.0028 48.6572C75.434 48.5186 72.8631 48.8905 70.4414 49.7509C63.7344 51.8788 57.6216 55.5302 52.5902 60.4142C51.6728 61.3058 50.7493 62.3104 50.4855 63.5586C50.2216 64.8068 50.9112 66.3403 52.1825 66.5305L68.1568 72.0584C71.0219 71.8614 73.859 71.3734 76.6236 70.6021C79.358 69.7402 81.9724 68.2721 83.7173 66.0134C85.3771 63.7282 86.2574 60.9773 86.2298 58.1615C86.3491 56.0146 85.778 53.8856 84.5988 52.0809Z" fill="#9DE7D6"/>
<path d="M55.5881 63.8741C55.1324 64.0345 45.1604 66.6558 44.165 68.3677C43.1696 70.0795 41.2328 102.248 41.4787 104.299C41.6046 105.333 42.1383 107.669 42.6419 109.749C43.2116 112.127 42.588 113.399 41.3227 115.568C39.9076 117.993 38.8882 118.962 39.17 121.839C39.278 122.992 40.7291 125.816 41.0649 127.046L40.0515 130.315C40.0515 130.315 49.8796 130.47 65.7699 130.975C81.6603 131.48 85.1202 132.069 85.1202 132.069L85.1622 128.502C86.5405 125.252 87.484 121.837 87.9684 118.344C88.4961 114.516 82.7156 102.408 82.7156 102.408L87.8125 73.6756L88.3042 69.2295C86.2939 66.8962 83.6608 65.172 80.7069 64.2545C75.7119 62.6734 55.5881 63.8741 55.5881 63.8741Z" fill="#9DE7D6"/>
<g opacity="0.3">
<path d="M63.1621 94.1035C64.2714 96.5108 65.6566 99.1618 68.211 99.9286C69.4103 100.285 70.6935 100.16 71.9408 100.291C74.0935 100.523 76.0663 101.527 78.0451 102.383C81.2458 103.775 84.5837 104.832 88.005 105.54C89.9359 105.938 91.9506 106.223 93.8695 105.777C95.7883 105.332 97.6112 103.994 98.1269 102.11L63.1621 94.1035Z" fill="#191919"/>
</g>
<path d="M89.0786 70.2815C88.0503 69.0279 86.8905 67.8862 85.6187 66.8756C84.2871 65.9381 82.8602 65.1412 81.3613 64.498C81.8425 64.5648 82.3111 64.7009 82.7525 64.9022C83.8426 65.3297 84.8693 65.9016 85.8046 66.6022C86.7441 67.3003 87.5851 68.1199 88.3051 69.0392C88.6278 69.41 88.8889 69.8294 89.0786 70.2815Z" fill="#263238"/>
<path d="M67.3302 88.2662L77.6499 70.696L82.1292 64.7045C79.7307 63.379 77.608 62.7133 74.9336 63.3434C74.7417 63.7832 72.9668 65.5307 70.94 69.1565C66.2329 77.579 62.2812 86.5781 62.2812 86.5781L62.8209 93.4315L87.9157 122.045L89.7806 114.913L80.1504 107.78C80.1504 107.78 68.8353 96.3499 68.9732 95.8922C69.1111 95.4346 67.3302 88.2662 67.3302 88.2662Z" fill="#455A64"/>
<path d="M43.5958 73.9492C43.6797 73.9492 43.3679 78.0327 42.8942 83.0434C42.4205 88.0541 41.9648 92.1198 41.8808 92.1138C41.7969 92.1079 42.1087 88.0304 42.5824 83.0137C43.0561 77.997 43.5058 73.9433 43.5958 73.9492Z" fill="#263238"/>
<path d="M55.9418 73.1695C55.5628 72.8965 55.2203 72.577 54.9224 72.2185C53.406 70.563 52.1323 68.7041 51.1387 66.6966C50.9096 66.2913 50.7362 65.8575 50.623 65.4067C50.707 65.3711 51.6184 67.2791 53.0935 69.4189C54.5687 71.5587 56.0078 73.0803 55.9418 73.1695Z" fill="#263238"/>
<path d="M75.2257 62.7559C75.0891 62.9682 74.9325 63.1672 74.758 63.3503C74.3085 63.8848 73.828 64.3929 73.3188 64.8719C71.6442 66.4602 69.839 67.9076 67.9221 69.1991C66.0131 70.5047 63.995 71.6461 61.8898 72.6109C61.2541 72.9081 60.6013 73.1681 59.9349 73.3895C59.6949 73.4838 59.4457 73.5535 59.1914 73.5976C59.4103 73.461 59.6461 73.3531 59.893 73.2766C60.3487 73.0864 61.0083 72.807 61.7938 72.4147C63.8583 71.3976 65.848 70.2376 67.7482 68.9435C69.6532 67.6604 71.4664 66.2484 73.1749 64.7174C73.8345 64.123 74.3382 63.6237 74.68 63.273C74.8437 63.0827 75.0266 62.9094 75.2257 62.7559Z" fill="#263238"/>
<path d="M50.227 106.188C50.2518 106.357 50.2518 106.529 50.227 106.699C50.1863 107.158 50.1162 107.615 50.0172 108.066C49.3587 111.077 47.7724 113.81 45.4779 115.888C45.1317 116.198 44.7673 116.488 44.3866 116.756C44.2554 116.865 44.1077 116.954 43.9488 117.017C43.9129 116.97 44.4945 116.536 45.322 115.728C47.496 113.603 49.0446 110.932 49.8013 108C50.0831 106.901 50.1911 106.182 50.227 106.188Z" fill="#263238"/>
<path d="M74.4297 117.243C74.0088 116.915 73.6248 116.542 73.2843 116.132C72.3876 115.198 71.6285 114.144 71.0297 112.999C70.4307 111.837 70.1711 110.532 70.2802 109.231C70.3158 108.838 70.4066 108.452 70.55 108.084C70.6519 107.828 70.7299 107.697 70.7479 107.703C70.6357 108.214 70.5516 108.729 70.496 109.249C70.4597 110.502 70.74 111.744 71.3115 112.863C71.904 113.98 72.62 115.029 73.4462 115.989C73.8094 116.379 74.1384 116.798 74.4297 117.243Z" fill="#263238"/>
<path d="M81.7743 127.806C81.6429 127.823 81.5099 127.823 81.3785 127.806L80.2452 127.711L76.0957 127.354C72.5878 127.063 67.7368 126.76 62.37 126.558C57.0033 126.356 52.1402 126.403 48.6204 126.463L44.4529 126.552H43.3196C43.1881 126.567 43.0553 126.567 42.9238 126.552C43.0519 126.523 43.1824 126.507 43.3136 126.504L44.4469 126.427C45.4303 126.361 46.8454 126.296 48.6144 126.237C52.1342 126.118 57.0093 126.07 62.406 126.237C67.8027 126.403 72.6298 126.778 76.1377 127.122C77.8886 127.295 79.3098 127.449 80.2812 127.58L81.4085 127.729C81.5323 127.744 81.6547 127.77 81.7743 127.806Z" fill="#263238"/>
<path d="M67.4734 105.266C67.4734 105.314 66.58 105.064 65.1468 104.761C63.2822 104.356 61.3904 104.086 59.4863 103.953C57.581 103.83 55.6693 103.842 53.7657 103.988C52.3026 104.095 51.4032 104.226 51.3672 104.173C51.5614 104.103 51.7623 104.053 51.9668 104.024C52.3746 103.941 52.9622 103.852 53.6998 103.768C55.611 103.556 57.5378 103.516 59.4563 103.65C61.3784 103.779 63.285 104.079 65.1528 104.547C65.8664 104.725 66.436 104.898 66.8258 105.029C67.0502 105.083 67.2675 105.163 67.4734 105.266Z" fill="#263238"/>
<path d="M88.3168 69.1992C88.3168 69.1992 98.6906 81.7944 100.262 84.6534C101.833 87.5124 104.855 94.3182 104.039 97.308C103.224 100.298 101.113 103.05 98.0429 103.93C94.9728 104.809 84.8509 102.331 84.8509 102.331C84.8509 102.331 85.8164 92.4043 86.1522 92.8203C86.488 93.2364 88.8265 92.1071 88.8265 92.1071L83.172 86.7397L82.7402 77.6693L88.3168 69.1992Z" fill="#9DE7D6"/>
<path d="M98.277 92.232C96.6509 91.8548 94.9879 91.6554 93.318 91.6376C91.6473 91.7224 89.9907 91.9854 88.377 92.4222C88.8075 92.1731 89.272 91.987 89.7561 91.8694C92.0759 91.1948 94.5354 91.1476 96.8798 91.7327C97.367 91.8326 97.8375 92.0008 98.277 92.232Z" fill="#263238"/>
<path d="M87.5975 75.8555C87.6087 76.0546 87.5946 76.2543 87.5555 76.4499C87.5135 76.8303 87.4416 77.3771 87.3396 78.0488C87.1358 79.398 86.818 81.2585 86.4162 83.2972C86.0144 85.336 85.6127 87.1846 85.2889 88.5101C85.133 89.1698 84.9951 89.6989 84.8931 90.0733C84.8582 90.27 84.7935 90.4604 84.7012 90.638C84.6999 90.4376 84.724 90.2379 84.7732 90.0436C84.8571 89.5978 84.9591 89.0688 85.073 88.4566C85.3548 87.0419 85.7146 85.235 86.1104 83.2319C86.5061 81.2288 86.8479 79.4278 87.1178 78.0072C87.2437 77.4128 87.3516 76.8659 87.4356 76.4261C87.4629 76.2294 87.5174 76.0374 87.5975 75.8555Z" fill="#263238"/>
<g opacity="0.3">
<path d="M78.1119 61.6504C77.9437 61.5216 77.744 61.4394 77.5333 61.4123C77.3226 61.3851 77.1084 61.4139 76.9126 61.4958C76.5131 61.6559 76.1516 61.8968 75.8512 62.2031C71.8756 66.031 68.8295 69.1991 62.7852 72.0819C67.2225 70.7743 73.7945 68.0103 77.5962 64.0339C77.9355 63.7213 78.2034 63.3402 78.3817 62.9164C78.4649 62.7021 78.4837 62.4685 78.4358 62.2438C78.3879 62.0191 78.2754 61.813 78.1119 61.6504Z" fill="#191919"/>
</g>
<path d="M72.3789 90.3239C72.3789 90.3239 71.5094 86.0027 71.1436 85.4083C70.7779 84.8139 64.3258 83.7559 64.3258 83.7559C64.3258 83.7559 60.8359 83.8629 60.9018 85.3072C60.9678 86.7516 61.6694 87.0072 61.6694 87.0072C61.6694 87.0072 60.5181 87.7561 60.686 88.612C60.8539 89.468 61.1717 89.6344 61.1717 89.6344C60.9384 89.7379 60.7484 89.918 60.6337 90.1444C60.519 90.3707 60.4866 90.6294 60.5421 90.8767C60.7371 91.4611 61.0846 91.9841 61.5494 92.3924C61.4342 92.608 61.3964 92.8561 61.4422 93.0959C61.4879 93.3357 61.6146 93.5529 61.8013 93.7119C62.3603 94.167 63.0267 94.4737 63.7381 94.6035C63.7381 94.6035 66.5564 97.944 67.7497 98.0569C68.943 98.1699 72.7446 98.0569 72.7446 98.0569L84.8813 101.95L85.9187 93.4623L72.3789 90.3239Z" fill="#FFBF9D"/>
<path d="M64.9251 86.9052C64.3783 87.0736 63.806 87.146 63.2341 87.1192C62.6669 87.1859 62.0922 87.1517 61.5371 87.0182C62.6503 86.7785 63.7981 86.7403 64.9251 86.9052Z" fill="#FF9A6C"/>
<path d="M64.1206 89.6764C63.6742 89.8389 63.1976 89.9038 62.7235 89.8666C62.2525 89.9263 61.7742 89.8858 61.3203 89.7477C61.7659 89.582 62.2433 89.517 62.7175 89.5575C63.1884 89.4986 63.6666 89.5391 64.1206 89.6764Z" fill="#FF9A6C"/>
<path d="M64.2771 92.0058C64.2771 92.0949 63.7074 92.2257 62.9759 92.3089C62.536 92.4099 62.0786 92.4099 61.6387 92.3089C62.0439 92.1121 62.4887 92.0085 62.9399 92.0058C63.3797 91.9043 63.8372 91.9043 64.2771 92.0058Z" fill="#FF9A6C"/>
<path d="M64.7505 91.2163C64.7145 91.2163 64.6306 91.145 64.5946 90.9667C64.5547 90.7293 64.6107 90.4859 64.7505 90.2891C64.8827 90.0886 65.0825 89.9411 65.3142 89.873C65.4881 89.8314 65.602 89.873 65.608 89.9027C65.614 89.9324 65.2482 90.0929 65.0084 90.4555C64.7685 90.8181 64.8285 91.1807 64.7505 91.2163Z" fill="#FF9A6C"/>
<path d="M66.3401 88.9921C66.3041 88.9921 66.2322 88.9327 66.1962 88.7841C66.1562 88.578 66.1993 88.3646 66.3161 88.1897C66.4216 88.0182 66.5853 87.8896 66.7778 87.8271C66.9278 87.7855 67.0237 87.8271 67.0297 87.8271C67.0357 87.8271 66.7598 88.0351 66.58 88.3323C66.4001 88.6295 66.4241 88.9564 66.3401 88.9921Z" fill="#FF9A6C"/>
<path d="M67.5819 86.0204C67.498 86.0204 67.3901 85.7114 67.6119 85.3904C67.8338 85.0694 68.1636 85.0456 68.1816 85.1229C68.1996 85.2002 68.0137 85.3428 67.8698 85.5687C67.7259 85.7946 67.6719 86.0085 67.5819 86.0204Z" fill="#FF9A6C"/>
<path d="M72.223 92.992C72.0901 92.5714 72.0532 92.1268 72.1151 91.6903C72.0868 91.2488 72.1564 90.8065 72.319 90.3945C72.4612 90.8153 72.4983 91.2641 72.4269 91.7022C72.3789 92.4214 72.313 93.0039 72.223 92.992Z" fill="#FF9A6C"/>
<g opacity="0.3">
<path d="M75.1551 52.0808C74.7739 51.9297 74.3546 51.9006 73.9559 51.9976C72.8562 52.166 71.7811 52.4654 70.7538 52.8892C70.192 53.0629 69.7127 53.4324 69.4046 53.9294C69.2589 54.308 69.2035 54.7148 69.2427 55.1182C69.2907 57.6305 69.3406 60.1428 69.3926 62.6551L70.1182 61.8407C72.1439 59.7855 73.8714 57.4609 75.2511 54.9339C75.5384 54.4831 75.7246 53.9763 75.7967 53.4479C75.8337 53.183 75.7928 52.9132 75.679 52.6707C75.5652 52.4283 75.3833 52.2234 75.1551 52.0808Z" fill="#191919"/>
</g>
<path d="M69.1994 53.8334C69.1994 53.8334 69.2774 53.7443 69.4513 53.5957C70.6849 52.622 72.1756 52.0215 73.7447 51.866C74.1531 51.7828 74.5728 51.7687 74.9859 51.8244C75.2274 51.861 75.4529 51.9665 75.635 52.128C75.8171 52.2895 75.9478 52.5 76.0113 52.7338C76.2092 53.7383 75.5916 54.6477 75.0759 55.4858C71.8238 60.8016 67.5808 65.4552 62.5734 69.1985C61.3382 70.1198 60.2948 70.8093 59.5753 71.2669L58.7238 71.7722C58.6289 71.8379 58.5262 71.8918 58.418 71.9327C58.418 71.9327 58.5019 71.8494 58.6878 71.7187L59.5093 71.1659C60.2169 70.6785 61.2423 69.9771 62.4535 69.0261C65.6171 66.5812 68.4916 63.7897 71.0223 60.7046C72.409 59.0038 73.6848 57.217 74.842 55.3551C75.1161 54.9521 75.3587 54.5288 75.5676 54.089C75.7635 53.6951 75.8346 53.2517 75.7714 52.817C75.7225 52.6273 75.6186 52.4559 75.4727 52.3239C75.3267 52.1918 75.145 52.105 74.9499 52.074C74.5633 52.0184 74.1699 52.0285 73.7867 52.1037C72.5816 52.2269 71.4123 52.5823 70.3447 53.1499C69.5832 53.5541 69.2174 53.8572 69.1994 53.8334Z" fill="#263238"/>
<path d="M58.8857 31.4252L58.2861 31.4727C55.3926 31.7265 52.7016 33.0507 50.7483 35.1819C48.795 37.313 47.7226 40.0949 47.7445 42.9742C47.7864 48.5318 47.7924 53.5603 48.0922 56.5144C48.6919 62.6367 55.048 63.2786 55.048 63.2786C55.048 63.2786 55.1979 65.7632 55.2819 67.5701L57.6804 72.569C61.9378 69.5019 66.675 65.6324 69.3913 62.6426L69.1335 42.9742C69.1215 36.5666 65.3498 31.229 58.8857 31.4252Z" fill="#FFBF9D"/>
<path d="M55.0605 63.2663C57.9147 63.006 60.6341 61.9418 62.8978 60.1992C62.8978 60.1992 61.3687 64.9544 55.1565 64.9544L55.0605 63.2663Z" fill="#FF9A6C"/>
<path d="M50.8461 47.9666C50.866 48.1952 50.9746 48.4072 51.1491 48.558C51.3236 48.7088 51.5503 48.7866 51.7815 48.7749C51.8923 48.7711 52.0012 48.7456 52.102 48.6998C52.2028 48.654 52.2934 48.5889 52.3687 48.5083C52.4439 48.4276 52.5023 48.3329 52.5405 48.2297C52.5787 48.1266 52.5958 48.0169 52.591 47.9071C52.5741 47.6795 52.468 47.4676 52.2954 47.3165C52.1228 47.1654 51.8975 47.0873 51.6676 47.0988C51.4428 47.1065 51.2302 47.2021 51.0763 47.3647C50.9223 47.5273 50.8396 47.7437 50.8461 47.9666Z" fill="#263238"/>
<path d="M49.3034 45.5653C49.4233 45.6663 50.0469 45.1195 51.0004 45.0363C51.9538 44.9531 52.6853 45.3692 52.7993 45.2443C52.9132 45.1195 52.7153 44.9887 52.3915 44.7985C51.9544 44.5539 51.4521 44.4481 50.9524 44.4954C50.4583 44.5368 49.9901 44.7324 49.6152 45.0541C49.3274 45.3038 49.2434 45.5177 49.3034 45.5653Z" fill="#263238"/>
<path d="M59.3912 47.5701C59.4081 47.7988 59.515 48.0117 59.6889 48.1629C59.8628 48.3142 60.0897 48.3916 60.3206 48.3785C60.4335 48.3769 60.5449 48.3532 60.6484 48.3086C60.7519 48.264 60.8454 48.1994 60.9235 48.1187C61.0016 48.0379 61.0628 47.9426 61.1034 47.8382C61.144 47.7338 61.1633 47.6225 61.1601 47.5107C61.1417 47.2826 61.0343 47.0705 60.8608 46.9196C60.6872 46.7687 60.4612 46.6907 60.2306 46.7023C60.1176 46.703 60.0058 46.7262 59.9019 46.7705C59.798 46.8149 59.7041 46.8794 59.6258 46.9603C59.5476 47.0412 59.4865 47.1369 59.4462 47.2416C59.4059 47.3464 59.3871 47.4581 59.3912 47.5701Z" fill="#263238"/>
<path d="M58.6348 44.9657C58.7547 45.0727 59.3783 44.5199 60.3258 44.4427C61.2732 44.3654 62.0167 44.7696 62.1247 44.6448C62.2326 44.5199 62.0467 44.3951 61.7169 44.2049C61.2835 43.9561 60.7823 43.848 60.2838 43.8958C59.7844 43.9435 59.3147 44.1523 58.9466 44.4902C58.6588 44.7042 58.5868 44.9182 58.6348 44.9657Z" fill="#263238"/>
<path d="M55.8693 52.4972C55.3553 52.3877 54.8296 52.3418 54.3042 52.3605C54.0584 52.3605 53.8245 52.3248 53.7705 52.1643C53.7288 51.9185 53.7622 51.666 53.8665 51.4392C54.0464 50.8448 54.2263 50.2088 54.4241 49.549C55.1857 46.8564 55.7134 44.6453 55.6234 44.6155C55.5335 44.5858 54.8079 46.7494 54.0404 49.442C53.8605 50.1077 53.6866 50.7378 53.5187 51.3441C53.3928 51.6464 53.378 51.983 53.4767 52.2951C53.5184 52.3783 53.5791 52.4507 53.6541 52.5064C53.7291 52.5622 53.8162 52.5997 53.9085 52.616C54.0478 52.6331 54.1888 52.6331 54.3282 52.616C54.8449 52.6431 55.363 52.6031 55.8693 52.4972Z" fill="#263238"/>
<path d="M58.0642 42.0472C58.2141 42.2791 59.1135 41.9462 60.2288 41.8214C61.3442 41.6966 62.3036 41.7917 62.3935 41.5301C62.4355 41.4112 62.2256 41.2092 61.7939 41.0487C61.2503 40.8574 60.6688 40.7963 60.0969 40.8704C59.5228 40.9381 58.9736 41.142 58.4959 41.4647C58.1481 41.6966 57.9862 41.9403 58.0642 42.0472Z" fill="#263238"/>
<path d="M48.9924 42.8017C49.2023 42.9979 49.9639 42.7185 50.8933 42.6413C51.8227 42.564 52.6202 42.6413 52.7881 42.4273C52.8601 42.3084 52.7162 42.1063 52.3564 41.928C51.8685 41.701 51.3273 41.6106 50.7914 41.6665C50.2557 41.7113 49.7421 41.8982 49.3042 42.2074C48.9924 42.4748 48.9205 42.7007 48.9924 42.8017Z" fill="#263238"/>
<path d="M69.0391 47.5507C69.141 47.4972 73.1766 45.934 73.4164 50.1363C73.6563 54.3387 69.3509 53.7027 69.3329 53.5897C69.3149 53.4768 69.0391 47.5507 69.0391 47.5507Z" fill="#FFBF9D"/>
<path d="M70.5368 51.9262C70.5368 51.9262 70.6148 51.9738 70.7407 52.0213C70.9176 52.0921 71.1154 52.0921 71.2924 52.0213C71.5588 51.8366 71.7698 51.5837 71.9028 51.2896C72.0359 50.9955 72.086 50.6712 72.0479 50.3511C72.0366 49.9895 71.9466 49.6347 71.7841 49.3109C71.7344 49.1814 71.6539 49.0658 71.5495 48.9737C71.4451 48.8816 71.3199 48.8158 71.1844 48.7819C71.098 48.7631 71.0076 48.7756 70.9295 48.817C70.8515 48.8584 70.7909 48.926 70.7587 49.0078C70.7107 49.1266 70.7587 49.2098 70.7167 49.2158C70.6747 49.2217 70.6208 49.1504 70.6447 48.978C70.6669 48.8731 70.7213 48.7775 70.8007 48.7046C70.8557 48.6577 70.9194 48.622 70.9884 48.5996C71.0573 48.5771 71.1301 48.5684 71.2024 48.5738C71.3761 48.5975 71.5409 48.6645 71.6814 48.7684C71.8219 48.8724 71.9336 49.0099 72.0059 49.1682C72.2096 49.5197 72.3209 49.9162 72.3297 50.3214C72.3297 51.1713 71.9579 51.9857 71.3583 52.1937C71.2461 52.2327 71.1266 52.2465 71.0084 52.2341C70.8902 52.2218 70.7763 52.1836 70.6747 52.1224C70.5788 52.0273 70.5248 51.9322 70.5368 51.9262Z" fill="#FF9A6C"/>
<path d="M38.9309 37.8441C38.9952 37.598 39.1517 37.3854 39.3687 37.2497C39.8518 36.9971 40.394 36.8761 40.9397 36.899C42.2875 36.7957 43.5939 36.3892 44.7594 35.7102C44.3231 35.5336 43.9182 35.2888 43.5601 34.9851C43.1835 34.6796 42.8988 34.2775 42.737 33.8226C42.5752 33.3677 42.5426 32.8775 42.6427 32.4054C42.6589 32.3178 42.6949 32.2349 42.7478 32.1629C42.8007 32.0909 42.8693 32.0316 42.9485 31.9894C43.2183 31.8883 43.4762 32.1439 43.6801 32.34C43.9421 32.6562 44.2856 32.8961 44.6741 33.0343C45.0627 33.1724 45.4817 33.2037 45.8867 33.1246C46.4526 33.0464 46.9936 32.8433 47.4697 32.5302L47.5237 32.4649C47.7276 32.2271 47.9315 32.0012 48.1233 31.7813C49.6284 30.117 50.9356 28.952 52.3208 28.3101C54.7283 27.28 57.3732 26.9184 59.9722 27.2639C62.1608 27.7038 64.1996 29.3265 64.6313 31.496C65.7766 30.4142 67.5936 30.3072 69.1046 30.8184H69.1406C70.8136 31.3058 71.845 32.9701 72.4266 34.5987C72.4626 34.6879 72.4866 34.7771 72.5166 34.8662C73.1219 35.7124 73.9241 36.4016 74.8551 36.8753C75.017 36.9585 75.2029 37.0595 75.2329 37.2438C75.2629 37.428 75.119 37.5766 74.9811 37.6896C74.5982 37.9789 74.1561 38.1817 73.6858 38.284C73.8502 38.6723 74.0509 39.0444 74.2855 39.3955C74.4834 39.6927 74.7292 40.0552 74.5853 40.3881C74.5181 40.512 74.4144 40.6126 74.2879 40.6763C74.1614 40.74 74.0183 40.7639 73.8777 40.7447C73.5999 40.6971 73.3346 40.594 73.0982 40.4416C73.3021 40.8696 73.512 41.2916 73.6979 41.7136C73.1062 41.8511 72.4906 41.8511 71.8989 41.7136C71.6411 43.2828 71.5511 46.1715 71.2093 47.2414C70.088 47.3306 69.8062 47.2414 69.2485 47.4435C68.529 47.7288 68.8828 48.9949 67.9113 48.6858C67.4136 48.5313 66.5562 46.7481 66.3643 46.2666C65.0899 43.0547 64.5295 39.6081 64.7213 36.162C63.9982 35.4818 63.1491 34.9469 62.2208 34.5868L62.2988 34.6463C60.5298 34.1529 58.533 33.6774 56.938 34.5809C55.7028 35.2763 55.0312 36.6316 54.1377 37.7312C53.392 38.734 52.4396 39.5679 51.3437 40.1777C50.2478 40.7875 49.0335 41.1591 47.7816 41.2678C47.6437 43.1342 47.7516 46.1715 47.7816 47.9072L46.0846 44.531C45.9585 44.3389 45.8424 44.1405 45.7368 43.9366L45.6948 43.8772C45.5303 43.5488 45.3481 43.2293 45.1492 42.9202C44.9568 43.1017 44.7043 43.2075 44.4389 43.2177C44.1735 43.2279 43.9135 43.1418 43.7076 42.9756C43.5016 42.8093 43.3639 42.5744 43.3202 42.3147C43.2765 42.055 43.3298 41.7885 43.4702 41.565C43.6067 41.3567 43.7745 41.1703 43.9679 41.0122C43.7656 41.2291 43.5104 41.3906 43.2268 41.4812C42.9432 41.5718 42.6408 41.5884 42.3489 41.5293C42.0599 41.459 41.8024 41.2963 41.616 41.0664C41.4296 40.8365 41.3247 40.5522 41.3175 40.2573C41.3248 40.0599 41.3839 39.8678 41.4891 39.6999C41.5943 39.5321 41.7418 39.3944 41.9171 39.3004C41.1524 39.4047 40.3736 39.2805 39.6805 38.9437C39.2667 38.7773 38.799 38.3969 38.9309 37.8441Z" fill="#263238"/>
<path d="M62.7246 32.3359C62.9571 32.4962 63.1776 32.673 63.3842 32.8649C63.906 33.4249 64.2736 34.1086 64.4516 34.8502C64.5901 35.3572 64.6745 35.8771 64.7034 36.4016C64.7394 36.996 64.7034 37.5904 64.7034 38.2204C64.6896 38.8929 64.7136 39.5656 64.7754 40.2354C64.8178 40.5924 64.8859 40.946 64.9792 41.2934C65.0582 41.6641 65.2293 42.0094 65.4769 42.2979C65.5923 42.4109 65.7353 42.4923 65.892 42.534C66.0486 42.5756 66.2135 42.5762 66.3704 42.5357C66.6707 42.4624 66.9383 42.2932 67.1319 42.0542C67.4412 41.5756 67.6152 41.0234 67.6356 40.4553H67.5097C67.7238 40.9067 68.0025 41.3251 68.3372 41.6976C68.6614 42.046 69.1075 42.2586 69.5845 42.292C69.8041 42.3006 70.0219 42.2492 70.2141 42.1434C70.3944 42.039 70.5371 41.8809 70.6218 41.6917C70.7052 41.5198 70.7404 41.3289 70.7238 41.1389C70.7041 40.9629 70.6236 40.7991 70.4959 40.6753L70.4359 40.7347C70.8306 41.1322 71.3043 41.4439 71.8271 41.6501C71.9637 41.7049 72.104 41.7506 72.2468 41.7868C72.2964 41.7959 72.3472 41.7959 72.3967 41.7868L72.2528 41.7392L71.8451 41.5847C71.3367 41.3665 70.8779 41.0492 70.4959 40.6515L70.4359 40.7169C70.563 40.8371 70.6461 40.9958 70.6721 41.168C70.6982 41.3401 70.6657 41.516 70.5798 41.6679C70.4976 41.8336 70.3684 41.972 70.2081 42.0661C70.0242 42.1633 69.8162 42.2066 69.6084 42.1909C69.166 42.1587 68.7523 41.9611 68.4511 41.6382C68.1319 41.2798 67.8636 40.8798 67.6536 40.4494L67.5517 40.2592L67.5217 40.4732C67.5024 41.0157 67.3367 41.5432 67.042 42.0007C66.8688 42.2135 66.6313 42.3656 66.3644 42.4347C66.2306 42.4681 66.0904 42.4671 65.9571 42.4317C65.8239 42.3963 65.7019 42.3278 65.6029 42.2326C65.373 41.9599 65.2144 41.6353 65.1411 41.2875C65.0492 40.9481 64.9831 40.6024 64.9433 40.2532C64.8733 39.5899 64.8473 38.9228 64.8653 38.2561C64.8653 37.6141 64.8653 37.0019 64.8293 36.4313C64.7953 35.8983 64.7048 35.3704 64.5595 34.8562C64.3672 34.1026 63.976 33.4133 63.4262 32.859C63.226 32.6442 62.9883 32.467 62.7246 32.3359Z" fill="#455A64"/>
<path d="M43.8965 39.4267L43.9504 39.4624L44.1123 39.5694C44.1843 39.611 44.2743 39.6645 44.3822 39.718C44.5089 39.7842 44.6389 39.8437 44.7719 39.8963C45.6251 40.2204 46.5463 40.3287 47.4523 40.2113C48.8025 40.0478 50.0755 39.4985 51.1161 38.6303C52.3695 37.5573 53.3896 36.2428 54.1143 34.7667C54.522 33.9999 54.8458 33.2153 55.2056 32.4842C55.5372 31.7783 55.9672 31.1221 56.4828 30.5346C56.9483 30.0032 57.5397 29.5948 58.2038 29.3459C58.5065 29.2413 58.8246 29.1871 59.1452 29.1854C59.439 29.1825 59.7316 29.2206 60.0147 29.2983C60.5051 29.4337 60.9608 29.6708 61.3519 29.9937C61.6492 30.2385 61.9044 30.5296 62.1074 30.8556C62.2625 31.1412 62.3871 31.442 62.4792 31.7531C62.4804 31.7333 62.4804 31.7135 62.4792 31.6937L62.4372 31.5035C62.3718 31.2679 62.2793 31.0405 62.1614 30.8259C61.9642 30.4888 61.7107 30.1874 61.4119 29.9343C61.0161 29.5897 60.5496 29.3342 60.0447 29.1854C59.7499 29.1036 59.4454 29.0616 59.1392 29.0605C58.8089 29.0626 58.481 29.1168 58.1678 29.221C57.4758 29.4589 56.8566 29.8681 56.3689 30.4098C55.8389 31.0035 55.3986 31.6702 55.0617 32.3891C54.6959 33.1202 54.3721 33.9048 53.9704 34.6657C53.2523 36.1225 52.2471 37.422 51.0142 38.4876C49.9947 39.35 48.7451 39.9012 47.4163 40.0746C46.5261 40.2004 45.6182 40.1086 44.7719 39.8071C44.4741 39.6945 44.1819 39.5676 43.8965 39.4267Z" fill="#455A64"/>
<path d="M43.1758 36.7564C43.2454 36.8132 43.3219 36.8611 43.4036 36.899C43.6226 37.0112 43.849 37.1085 44.0812 37.1903C44.427 37.3113 44.7819 37.4047 45.1426 37.4696C45.5884 37.5421 46.0401 37.5739 46.4918 37.5647C46.9399 37.5519 47.3857 37.4962 47.823 37.3983C48.182 37.3185 48.5332 37.2071 48.8723 37.0654C49.1004 36.9736 49.321 36.8643 49.5319 36.7385C49.6132 36.6952 49.6896 36.6434 49.7598 36.584C49.7598 36.584 49.412 36.7564 48.8363 36.9703C48.0829 37.2469 47.2889 37.3995 46.4858 37.4221C46.0445 37.432 45.6031 37.4042 45.1666 37.3389C44.8111 37.2837 44.4604 37.2023 44.1172 37.0952C43.5296 36.9109 43.1878 36.7326 43.1758 36.7564Z" fill="#455A64"/>
<path d="M60.0196 53.0139C59.9822 52.9259 59.9141 52.8542 59.8277 52.8118C59.769 52.8008 59.7086 52.8026 59.6506 52.8169C59.5927 52.8313 59.5385 52.8579 59.4919 52.895L57.2133 54.2146L56.8535 54.4048C56.9646 54.7822 57.1764 55.1228 57.4667 55.3906C57.757 55.6585 58.1148 55.8436 58.5025 55.9264C58.8928 55.9923 59.2941 55.9208 59.6369 55.7243C59.9796 55.5279 60.2423 55.2188 60.3794 54.8506C60.5087 54.2153 60.3794 53.555 60.0196 53.0139Z" fill="#FF9A6C"/>
<path d="M58.7729 56.0213C59.111 55.8925 59.4266 55.712 59.7083 55.4863C59.9904 55.2323 60.1819 54.8944 60.254 54.5234C60.3366 54.0712 60.2399 53.6049 59.9842 53.2217C59.9139 53.1153 59.8336 53.0158 59.7443 52.9245H59.9182C58.9319 53.49 57.8988 53.9712 56.8301 54.3629C57.7606 53.7121 58.7456 53.1414 59.7743 52.657L59.8762 52.6035L59.9542 52.6808C60.0661 52.7832 60.1648 52.899 60.248 53.0255C60.543 53.4773 60.6464 54.0262 60.5358 54.5531C60.437 54.9779 60.196 55.3571 59.8522 55.629C59.7114 55.7675 59.542 55.8742 59.3558 55.9419C59.1695 56.0096 58.9707 56.0367 58.7729 56.0213Z" fill="#263238"/>
<g opacity="0.3">
<path d="M41.959 130.35C44.0227 131.822 46.4569 132.701 48.9927 132.888C51.5227 132.991 54.0567 132.927 56.5781 132.697C65.6506 132.186 74.891 132.983 83.9515 133.714L84.3113 131.978L66.9818 131.015L41.959 130.35Z" fill="#191919"/>
</g>
<g opacity="0.3">
<path d="M47.4941 121.874L47.662 122.059C50.3064 123.646 53.5205 123.913 56.6026 124.139C59.0833 124.402 61.5842 124.417 64.0681 124.187C66.5699 123.946 68.9401 122.962 70.868 121.363C63.2038 123.193 55.2323 123.367 47.4941 121.874Z" fill="#191919"/>
</g>
</svg>
