<svg width="183" height="40" viewBox="0 0 183 40" fill="none" xmlns="http://www.w3.org/2000/svg">
<g clip-path="url(#clip0_7_3128)">
<path d="M7.08402 2.15666C7.08402 3.35624 6.1255 4.31331 4.93138 4.31331C3.73726 4.31331 2.77551 3.353 2.77551 2.15666C2.77551 0.96031 3.73404 0 4.93138 0C6.12872 0 7.08402 0.957077 7.08402 2.15666ZM13.8356 2.15666C13.8356 3.35624 12.8771 4.31331 11.6798 4.31331C10.4824 4.31331 9.52389 3.353 9.52389 2.15666C9.52389 0.96031 10.4824 0 11.6798 0C12.8771 0 13.8356 0.957077 13.8356 2.15666ZM20.6098 2.15666C20.6098 3.35624 19.6513 4.31331 18.4572 4.31331C17.2631 4.31331 16.3013 3.353 16.3013 2.15666C16.3013 0.96031 17.2598 0 18.4572 0C19.6545 0 20.6098 0.957077 20.6098 2.15666ZM27.3582 2.15666C27.3582 3.35624 26.3997 4.31331 25.2023 4.31331C24.005 4.31331 23.0465 3.353 23.0465 2.15666C23.0465 0.96031 24.005 0 25.2023 0C26.3997 0 27.3582 0.957077 27.3582 2.15666ZM2.39469 7.45938H27.6938C29.0622 7.45938 30.1369 8.53933 30.1369 9.90381V25.1071C30.1369 33.3813 23.2885 40.0032 15.0556 40.0032C6.8226 40.0032 0 33.3813 0 25.1071V9.90381C0 8.53609 1.07793 7.45938 2.39469 7.45938ZM54.229 28.1335C53.8934 27.8199 53.7256 27.9169 53.2221 28.2499C52.1668 28.9192 50.9501 29.1359 49.8011 29.1359C46.9288 29.1359 44.5567 26.5233 44.5567 23.429C44.5567 20.3347 46.7126 17.7932 49.5849 17.7932C50.9016 17.7932 52.0022 18.0584 53.0575 18.7277C53.5126 19.0187 53.7256 19.1609 54.0612 18.8473L56.0493 16.7844C56.4301 16.4029 56.2623 16.1151 55.8814 15.7562C54.2323 14.0781 51.9086 13.6448 49.3719 13.6448C44.2243 13.6448 39.9158 18.0584 39.9158 23.5519C39.9158 29.0453 44.4373 33.5753 49.5849 33.5753C51.9086 33.5753 54.2323 32.906 56.1687 31.2505C56.5979 30.869 56.6463 30.5812 56.3107 30.2417L54.229 28.1335ZM181.909 30.1932L180.16 28.3696C179.705 27.8652 179.489 27.9137 179.108 28.2499C178.224 28.9677 177.049 29.1359 175.826 29.1359C172.953 29.1359 170.801 26.8111 170.801 23.429C170.801 20.0469 172.643 17.7932 175.516 17.7932C176.784 17.7932 177.885 18.0584 178.869 18.7762C179.369 19.1092 179.66 19.1577 180.16 18.6792L181.693 17.0237C182.148 16.5678 182.029 16.2315 181.645 15.8467C180.044 14.1913 177.936 13.6416 175.396 13.6416C170.249 13.6416 166.157 17.5055 166.157 23.5486C166.157 29.5918 170.468 33.5721 175.613 33.5721C177.885 33.5721 179.921 33.1162 181.812 31.4154C182.316 30.911 182.364 30.6232 181.909 30.1932ZM78.6891 30.0251C77.7564 30.0251 76.6558 29.9054 76.6558 29.9054V24.9907H79.483C81.5162 24.9907 82.1875 26.2614 82.1875 27.6518C82.1875 29.1876 81.3968 30.0251 78.6923 30.0251M76.6591 17.2888C76.6591 17.2888 77.4949 17.1951 78.0468 17.1951C80.6319 17.1951 81.5162 17.7932 81.5162 19.4034C81.5162 20.7194 81.0612 21.822 79.483 21.822H76.6558V17.2888H76.6591ZM84.224 23.429C85.2761 22.7823 85.8247 21.0557 85.8247 19.4487V18.899C85.8247 14.7991 82.5716 13.5769 77.6628 13.5769C76.2008 13.5769 74.3806 13.648 73.6157 13.813C72.5603 13.9811 72.2247 14.3659 72.2247 15.5169V31.6805C72.2247 32.8575 72.5603 33.2423 73.6157 33.4072C74.6194 33.5721 76.6558 33.6238 78.3534 33.6238C82.8297 33.6238 86.4895 32.518 86.4895 27.8684V27.4836C86.4895 25.7085 85.6053 24.1048 84.2175 23.4322M115.381 22.4978V17.6283C115.597 17.5087 116.772 17.4117 116.988 17.4117C119.144 17.4117 120.361 18.1327 120.361 20.1213C120.361 23.0022 117.324 22.6627 115.381 22.4978ZM121.513 25.3722C123.449 24.5574 124.888 22.8793 124.888 19.9531C124.888 15.1322 121.416 13.5737 116.988 13.5737C115.265 13.5737 113.347 13.6933 112.224 13.9067C111.46 14.0296 111.124 14.3626 111.124 15.2486V32.8543C111.124 33.1162 111.363 33.4039 111.579 33.4039H114.955C115.265 33.4039 115.507 33.1162 115.507 32.8543V26.2582C115.507 26.2582 116.559 26.3778 117.204 26.2582L120.628 32.8543C120.748 33.0709 120.964 33.4039 121.416 33.4039H125.105C125.392 33.4039 125.728 33.1873 125.511 32.7314L121.516 25.369L121.513 25.3722ZM161.199 29.3073H153.512V25.2526H159.812C160.028 25.2526 160.363 24.9907 160.363 24.6512V22.0386C160.363 21.822 160.028 21.5148 159.812 21.5148H153.512V17.6283H160.644C160.98 17.6283 161.196 17.2921 161.196 17.0754V14.3659C161.196 14.0781 160.977 13.813 160.644 13.813H149.636C149.326 13.813 149.084 14.0781 149.084 14.3659V32.8575C149.084 33.1194 149.323 33.4072 149.636 33.4072H161.196C161.532 33.4072 161.748 33.1194 161.748 32.8575V29.9054C161.748 29.5239 161.532 29.3073 161.196 29.3073M143.123 13.813H129.742C129.407 13.813 129.31 14.0781 129.31 14.3659V17.1983C129.31 17.4117 129.407 17.7253 129.742 17.7253H134.29V32.8607C134.29 33.1226 134.503 33.4104 134.767 33.4104H138.143C138.356 33.4104 138.695 33.1226 138.695 32.8607V17.7253H143.123C143.459 17.7253 143.675 17.4117 143.675 17.1983V14.3659C143.675 14.0781 143.459 13.813 143.123 13.813ZM104.488 29.3073H96.7589V25.2526H103.127C103.436 25.2526 103.678 24.9907 103.678 24.6512V22.0386C103.678 21.822 103.44 21.5148 103.127 21.5148H96.7589V17.6283H103.891C104.227 17.6283 104.488 17.2921 104.488 17.0754V14.3659C104.488 14.0781 104.227 13.813 103.891 13.813H92.9507C92.5699 13.813 92.4472 14.0781 92.4472 14.3659V32.8575C92.4472 33.1194 92.5666 33.4072 92.9507 33.4072H104.488C104.824 33.4072 105.04 33.1194 105.04 32.8575V29.9054C105.04 29.5239 104.824 29.3073 104.488 29.3073ZM65.089 13.813H61.6648C61.4486 13.813 61.2356 14.0781 61.2356 14.3659V32.8575C61.2356 33.1194 61.4486 33.4072 61.6648 33.4072H65.089C65.4215 33.4072 65.6635 33.1194 65.6635 32.8575V14.3659C65.6635 14.0781 65.4215 13.813 65.089 13.813ZM4.24718 19.6168H26.0543V11.5108H4.24718V19.6168ZM4.24718 25.1297C4.24718 26.2097 4.39241 27.0989 4.65383 28.0074H25.6703C25.8833 27.0956 26.0511 26.2097 26.0511 25.1297V23.5486H4.24718V25.1297ZM15.1395 36.2331C19.0187 36.2331 22.2977 34.652 24.2115 31.7743H6.09322C8.00704 34.652 11.357 36.2331 15.1395 36.2331Z" fill="white"/>
</g>
<defs>
<clipPath id="clip0_7_3128">
<rect width="182.222" height="40" fill="white"/>
</clipPath>
</defs>
</svg>
