<svg width="225" height="175" viewBox="0 0 225 175" fill="none" xmlns="http://www.w3.org/2000/svg">
<g id="estudios 1" clip-path="url(#clip0_2181_29912)">
<g id="POST 1">
<g id="Group">
<path id="Vector" opacity="0.55" d="M224.5 149.479C224.5 145.254 200.044 141.828 169.876 141.828C155.908 141.828 143.167 142.563 133.511 143.771C131.61 143.71 129.679 143.671 127.723 143.655C122.79 137.627 100.671 133.081 74.1274 133.081C43.9567 133.081 19.5 138.954 19.5 146.2C19.5 153.446 43.0814 159.105 72.4961 159.312C77.4297 165.341 99.5481 169.887 126.092 169.887C155.963 169.887 180.23 164.13 180.707 156.981C205.687 156.277 224.5 153.186 224.5 149.479Z" fill="#CED2E5"/>
<g id="Group_2">
<g id="Group_3" filter="url(#filter0_d_2181_29912)">
<g id="Group_4">
<path id="Vector_2" d="M184.383 135.678C184.383 135.678 184.267 126.848 179.7 121.305C175.134 115.762 174.363 109.199 174.363 109.199L172.181 112.149C171.715 112.778 172.288 115.234 172.398 115.917C173.035 119.859 175.489 123.23 176.196 127.193C176.719 130.116 177.552 134.43 176.055 137.209C176.055 137.209 181.319 139.134 184.386 135.681L184.383 135.678Z" fill="#C3121D"/>
<path id="Vector_3" d="M186.073 120.594C186.073 120.594 179.284 119.078 175.749 114.687C172.211 110.294 167.278 108.647 167.278 108.647L169.904 107.451C170.464 107.198 172.263 108.03 172.775 108.223C175.713 109.345 177.913 111.771 180.854 112.951C183.024 113.824 186.213 115.157 188.597 114.459C188.597 114.459 189.231 118.803 186.073 120.594Z" fill="#C3121D"/>
</g>
<g id="Group_5">
<path id="Vector_4" d="M185.115 63.4609C185.115 63.4609 191.23 66.945 198.655 75.2983C198.336 75.103 189.706 86.08 189.044 86.8884C183.838 93.2556 179.19 99.8851 175.404 107.164C174.072 109.721 172.824 112.305 171.471 114.85C170.14 117.354 168.805 119.862 167.557 122.406C164.318 129.002 161.255 140.501 161.255 140.501L158.959 135.424L179.511 78.4803L172.27 69.9684L185.115 63.464V63.4609Z" fill="#A6A8A8"/>
<path id="Vector_5" d="M147.81 134.783C147.219 133.014 147.406 131.51 147.406 131.51C147.406 131.51 156.891 106.181 160.376 96.2357C163.862 86.2899 170.427 63.5488 170.427 63.5488L192.142 73.7966C190.348 75.9566 176.469 101.489 172.205 109.141C167.942 116.792 158.889 137.608 158.889 137.608C158.357 138.093 157.732 138.405 157.08 138.6C153.297 139.726 149.031 138.441 147.81 134.78V134.783Z" fill="white"/>
<path id="Vector_6" opacity="0.32" d="M153.705 138.969C154.041 138.793 154.36 138.576 154.653 138.31C154.653 138.31 164.095 116.448 168.542 108.415C172.662 100.974 185.39 77.4246 188.732 72.1924L192.139 73.8002C190.345 75.9602 176.466 101.493 172.203 109.144C167.939 116.796 158.886 137.612 158.886 137.612C158.354 138.097 157.729 138.408 157.077 138.603C155.963 138.936 154.81 139.055 153.702 138.969H153.705Z" fill="#B8BABA"/>
<path id="Vector_7" d="M192.246 73.5987C193.363 71.4448 189.917 65.7641 183.946 62.8353C177.974 59.9064 171.743 60.8339 170.626 62.9878C169.509 65.1417 173.442 69.2634 179.413 72.1922C185.384 75.1241 191.129 75.7526 192.246 73.5987Z" fill="#C4C7C7"/>
<g id="Group_6">
<path id="Vector_8" d="M183.104 73.73C183.15 73.6446 183.19 73.5469 183.214 73.4402C183.572 71.869 179.092 69.5412 179.092 69.5412L176.404 70.5113C175.052 69.6541 173.88 68.7571 172.94 67.8693L172.949 67.8235C172.949 67.8235 174.256 65.5415 178.354 65.9991C179.043 66.0754 179.701 66.2401 180.316 66.469C180.316 66.469 182.532 67.1981 184.408 68.8639C187.845 71.6158 187.526 73.8063 187.144 74.7368C185.92 74.5598 184.552 74.2212 183.107 73.73H183.104Z" fill="#B8BABA"/>
<path id="Vector_9" d="M183.214 73.44C183.19 73.5468 183.153 73.6414 183.104 73.7298C181.91 73.321 180.665 72.8085 179.41 72.1922C178.336 71.6644 177.326 71.0969 176.401 70.5112L179.089 69.541C179.089 69.541 183.572 71.8688 183.211 73.44H183.214Z" fill="#A6A8A8"/>
</g>
<path id="Vector_10" d="M156.841 105.599C156.982 103.051 158.724 100.873 158.724 100.873C158.724 100.873 162.482 110.752 174.363 109.199C174.051 111.694 171.927 113.989 171.927 113.989C160.046 115.542 156.844 105.599 156.844 105.599H156.841Z" fill="#740C19"/>
</g>
</g>
<g id="Group_7">
<g id="Group_8">
<g id="Group_9">
<path id="Vector_11" d="M212.265 139.246L116.149 158.992C115.84 158.726 115.114 158.037 114.784 156.893C114.343 155.358 114.912 154.092 115.068 153.769L211.184 134.023C213.32 134.011 215.451 133.999 217.587 133.981C219.341 133.975 221.1 133.962 222.851 133.95C222.918 134.24 222.989 134.521 223.053 134.811C221.443 135.476 219.83 136.141 218.211 136.8C216.298 137.59 214.382 138.377 212.467 139.161C212.399 139.189 212.329 139.219 212.262 139.246H212.265Z" fill="#EAACA4"/>
<path id="Vector_12" d="M212.265 139.247L116.149 158.992C115.84 158.726 115.114 158.037 114.784 156.893C114.343 155.358 114.912 154.092 115.068 153.769L211.184 134.023C210.793 134.673 210.897 135.598 211.196 136.296C211.49 137.001 211.955 137.623 212.243 138.331C212.353 138.594 212.43 138.874 212.47 139.161C212.399 139.189 212.332 139.219 212.265 139.247Z" fill="#AA9500"/>
<path id="Vector_13" d="M211.592 136.832L114.753 156.753L114.917 157.548L211.757 137.627L211.592 136.832Z" fill="#FFF4AA"/>
<path id="Vector_14" d="M139.069 154.284L116.149 158.991C115.84 158.726 115.114 158.036 114.784 156.892C114.343 155.358 114.912 154.091 115.068 153.768L137.989 149.061L139.069 154.284Z" fill="#002255"/>
<path id="Vector_15" d="M218.214 136.8C217.991 136.406 217.786 135.924 217.666 135.354C217.556 134.826 217.553 134.356 217.587 133.978C219.34 133.972 221.1 133.959 222.851 133.947C222.918 134.237 222.989 134.518 223.053 134.808C221.443 135.473 219.83 136.138 218.211 136.797L218.214 136.8Z" fill="#002255"/>
</g>
<g id="Group_10">
<g id="Group_11">
<path id="Vector_16" d="M150.234 163.73C149.925 163.51 149.46 163.123 149.053 162.519C148.765 162.088 148.159 161.188 148.297 159.993C148.395 159.129 148.842 158.51 149.108 158.199C149.108 158.199 150.173 157.982 151.911 157.628C159.134 156.161 178.039 152.329 181.182 151.752C181.393 151.703 181.595 151.661 181.785 151.627C184.919 151.032 184.956 152.042 184.956 152.042L190.382 152.463C190.639 152.451 190.86 152.634 190.893 152.875C190.93 153.131 190.746 153.384 190.474 153.424C188.852 154.275 187.23 155.129 185.608 155.981C185.608 155.981 186.146 157.058 182.602 157.323L152.903 163.199L150.228 163.73H150.234Z" fill="#AA9500"/>
<path id="Vector_17" d="M152.912 163.199C152.3 161.768 151.826 159.901 151.918 157.628C159.141 156.161 178.045 152.329 181.189 151.752C181.4 151.703 181.602 151.661 181.791 151.627C182.315 153.097 182.814 155.157 182.612 157.323L152.912 163.199Z" fill="#F0D09D"/>
<path id="Vector_18" d="M185.242 151.979L184.689 152.07L185.341 156.011L185.894 155.92L185.242 151.979Z" fill="#D79F43"/>
<path id="Vector_19" d="M179.716 152.036L180.267 151.926C180.417 152.676 180.567 153.439 180.711 154.211C180.919 155.331 181.115 156.468 181.299 157.594L180.745 157.683C180.561 156.56 180.365 155.425 180.157 154.312C180.013 153.543 179.866 152.786 179.716 152.036Z" fill="#D79F43"/>
<path id="Vector_20" d="M153.013 157.387L153.57 157.469C153.439 158.339 153.46 159.214 153.644 160.068C153.846 161.02 154.228 161.908 154.788 162.714L154.326 163.034C153.726 162.17 153.31 161.212 153.093 160.187C152.897 159.266 152.873 158.323 153.013 157.387Z" fill="#D79F43"/>
</g>
<g id="Group_12">
<path id="Vector_21" d="M151.321 169.459C151.008 169.239 150.543 168.855 150.136 168.251C149.849 167.824 149.239 166.921 149.374 165.728C149.472 164.861 149.913 164.245 150.182 163.934C150.182 163.934 151.244 163.717 152.986 163.357C160.205 161.872 179.101 157.991 182.244 157.408C182.455 157.359 182.657 157.317 182.847 157.28C185.981 156.676 186.018 157.689 186.018 157.689L191.444 158.098C191.701 158.086 191.922 158.266 191.958 158.51C191.995 158.766 191.814 159.019 191.542 159.059C189.923 159.916 188.301 160.773 186.682 161.628C186.682 161.628 187.224 162.704 183.68 162.976L153.996 168.928L151.321 169.465V169.459Z" fill="#0043AA"/>
<path id="Vector_22" d="M153.995 168.922C153.38 167.495 152.903 165.628 152.985 163.355C160.205 161.869 179.101 157.988 182.244 157.405C182.455 157.357 182.657 157.314 182.847 157.277C183.373 158.745 183.878 160.804 183.679 162.97L153.995 168.922Z" fill="#8689C0"/>
<path id="Vector_23" d="M186.295 157.625L185.743 157.718L186.409 161.656L186.961 161.563L186.295 157.625Z" fill="#8689C0"/>
<path id="Vector_24" d="M180.772 157.692L181.323 157.579C181.476 158.33 181.626 159.092 181.773 159.861C181.978 160.953 182.18 162.091 182.37 163.241L181.816 163.333C181.626 162.189 181.427 161.054 181.219 159.965C181.075 159.196 180.925 158.439 180.772 157.689V157.692Z" fill="#8689C0"/>
<path id="Vector_25" d="M154.088 163.11L154.642 163.193C154.51 164.062 154.537 164.935 154.721 165.792C154.926 166.744 155.312 167.632 155.872 168.434L155.413 168.754C154.81 167.891 154.391 166.936 154.173 165.908C153.974 164.987 153.947 164.044 154.088 163.11Z" fill="#8689C0"/>
</g>
<g id="Group_13">
<path id="Vector_26" d="M152.517 174.999C152.205 174.78 151.743 174.392 151.336 173.791C151.048 173.364 150.439 172.461 150.574 171.265C150.672 170.399 151.116 169.782 151.382 169.471C151.382 169.471 152.444 169.254 154.185 168.894C161.405 167.415 180.304 163.543 183.447 162.961C183.658 162.912 183.86 162.869 184.05 162.835C187.184 162.234 187.221 163.244 187.221 163.244L192.647 163.656C192.904 163.644 193.124 163.827 193.161 164.068C193.198 164.324 193.017 164.578 192.742 164.617C191.123 165.474 189.501 166.329 187.882 167.183C187.882 167.183 188.42 168.26 184.879 168.531L155.192 174.465L152.517 174.999Z" fill="#D63A85"/>
<path id="Vector_27" d="M155.192 174.466C154.577 173.035 154.1 171.171 154.185 168.898C161.405 167.418 180.304 163.547 183.447 162.964C183.658 162.915 183.86 162.872 184.05 162.839C184.576 164.309 185.078 166.366 184.879 168.532L155.192 174.466Z" fill="#C12778"/>
<path id="Vector_28" d="M187.5 163.197L186.944 163.29L187.606 167.226L188.162 167.133L187.5 163.197Z" fill="#C4253B"/>
<path id="Vector_29" d="M181.975 163.248L182.526 163.135C182.679 163.885 182.829 164.648 182.972 165.42C183.187 166.555 183.386 167.69 183.566 168.803L183.012 168.895C182.832 167.787 182.63 166.655 182.419 165.527C182.275 164.758 182.125 163.998 181.972 163.251L181.975 163.248Z" fill="#C4253B"/>
<path id="Vector_30" d="M155.223 169.197C155.238 169.013 155.259 168.833 155.287 168.65L155.841 168.733C155.706 169.602 155.737 170.478 155.92 171.332C156.122 172.284 156.508 173.172 157.071 173.974L156.612 174.294C156.009 173.431 155.593 172.473 155.373 171.448C155.213 170.707 155.164 169.95 155.226 169.193L155.223 169.197Z" fill="#C4253B"/>
</g>
<g id="Group_14">
<path id="Vector_31" d="M148.961 158.113C148.652 157.89 148.19 157.503 147.786 156.899C147.501 156.469 146.898 155.563 147.042 154.37C147.146 153.506 147.593 152.89 147.862 152.579C147.862 152.579 148.927 152.368 150.669 152.021C157.901 150.59 176.821 146.846 179.97 146.285C180.181 146.236 180.383 146.196 180.573 146.163C183.71 145.583 183.741 146.593 183.741 146.593L189.164 147.042C189.421 147.029 189.641 147.215 189.675 147.456C189.712 147.713 189.528 147.966 189.253 148.003C187.628 148.848 185.999 149.693 184.374 150.535C184.374 150.535 184.907 151.615 181.363 151.862L151.636 157.597L148.958 158.113H148.961Z" fill="#0043AA"/>
<path id="Vector_32" d="M151.639 157.598C151.036 156.164 150.568 154.297 150.672 152.024C157.904 150.593 176.824 146.849 179.973 146.288C180.184 146.239 180.386 146.2 180.576 146.166C181.093 147.64 181.58 149.699 181.369 151.865L151.642 157.601L151.639 157.598Z" fill="#8689C0"/>
<path id="Vector_33" d="M184.025 146.54L183.469 146.629L184.106 150.572L184.662 150.483L184.025 146.54Z" fill="#8689C0"/>
<path id="Vector_34" d="M178.498 146.56L179.049 146.453C179.199 147.204 179.343 147.966 179.481 148.741C179.68 149.837 179.872 150.974 180.053 152.128L179.499 152.213C179.318 151.066 179.126 149.931 178.927 148.839C178.789 148.07 178.645 147.31 178.495 146.56H178.498Z" fill="#8689C0"/>
<path id="Vector_35" d="M151.773 151.785L152.327 151.874C152.19 152.74 152.211 153.616 152.388 154.473C152.584 155.428 152.967 156.319 153.521 157.121L153.059 157.438C152.462 156.572 152.052 155.611 151.841 154.586C151.651 153.661 151.629 152.722 151.776 151.785H151.773Z" fill="#8689C0"/>
</g>
</g>
</g>
<g id="Group_15">
<g id="Group_16">
<path id="Vector_36" d="M56.4592 100.068L51.7031 100.013L53.6343 135.949L59.4279 135.287L56.4592 100.068Z" fill="#BE6622"/>
<path id="Vector_37" d="M51.6479 98.2584C51.6479 98.2584 51.8255 133.929 72.08 135.738L71.1282 129.374C71.1282 129.374 61.4447 127.748 59.2625 112.411C57.0773 97.0717 57.0743 97.993 57.0743 97.993L51.6479 98.2584Z" fill="#D79F43"/>
<path id="Vector_38" d="M56.9277 105.974C56.8941 105.98 56.8635 105.983 56.8298 105.986L53.9743 106.291C53.2857 106.365 52.6093 106.166 52.0645 105.73C51.5228 105.294 51.1831 104.677 51.1097 103.991C51.0362 103.305 51.2351 102.63 51.6728 102.087C52.1105 101.547 52.7226 101.209 53.4173 101.135L56.2728 100.83C56.9614 100.757 57.6378 100.955 58.1825 101.392C58.7243 101.828 59.064 102.444 59.1374 103.131C59.2109 103.817 59.0119 104.491 58.5743 105.034C58.1581 105.55 57.5766 105.879 56.9247 105.974H56.9277ZM53.3806 101.55C52.8327 101.63 52.3431 101.91 51.9911 102.344C51.6208 102.801 51.4524 103.369 51.5167 103.948C51.5779 104.528 51.8656 105.047 52.3247 105.416C52.7838 105.785 53.353 105.953 53.9345 105.889L56.79 105.584C57.3715 105.523 57.8918 105.236 58.2621 104.778C58.6324 104.32 58.8008 103.753 58.7365 103.173C58.6753 102.594 58.3876 102.075 57.9285 101.706C57.4694 101.337 56.9002 101.169 56.3187 101.233L53.4632 101.538C53.4357 101.538 53.4081 101.544 53.3806 101.547V101.55Z" fill="#BE6622"/>
<path id="Vector_39" d="M46.5126 46.584C46.5126 46.584 43.7582 87.0383 49.8149 99.3881C50.2832 99.7512 51.7033 100.752 53.7232 100.74C56.7256 100.724 58.5283 98.4942 58.7609 98.1953C58.161 91.2485 57.9712 83.7495 57.7448 75.7745C57.4173 64.221 57.454 51.9779 58.9108 49.223C58.2589 46.6663 56.2359 44.6772 53.6773 44.0792C51.0208 43.4568 48.2204 44.4362 46.5126 46.584Z" fill="#D63A85"/>
<g id="Group_17">
<path id="Vector_40" d="M64.7046 54.6225C67.7009 51.8889 70.6971 49.1554 73.6934 46.4218C72.6008 45.1069 70.9848 43.4472 68.7353 41.9157C65.8462 39.9479 63.0825 38.993 61.1911 38.5018C59.921 38.1662 58.1612 37.5926 56.3647 38.2425C52.992 39.4659 47.4371 42.1231 46.5098 46.5835C46.5098 46.5835 49.4417 45.0764 50.8067 45.1618C52.1717 45.2472 61.9409 49.9303 64.7015 54.6225H64.7046Z" fill="#221648"/>
<path id="Vector_41" d="M67.2694 52.2729C59.8874 43.4925 50.0325 41.8329 49.9346 41.8176L49.9988 41.418C50.0998 41.4332 60.0955 43.1142 67.5816 52.0136L67.2694 52.276V52.2729Z" fill="#625781"/>
<path id="Vector_42" d="M71.5998 48.2984C68.1506 43.3621 56.4073 38.4807 56.291 38.4319L56.4471 38.0566C56.9337 38.258 68.4168 43.0356 71.9334 48.0665L71.5998 48.2984Z" fill="#625781"/>
</g>
</g>
<g id="Group_18">
<path id="Vector_43" d="M77.739 43.8923C77.6808 43.8038 77.2432 42.9892 77.2432 42.9892L69.2521 45.8509L65.1724 36.9912C65.1724 36.9912 64.8695 36.6953 64.3461 36.2224C61.7967 33.9282 54.026 27.4726 50.7635 30.8651C48.3426 33.3821 50.2309 39.9109 52.0367 44.5543C53.1691 47.4556 54.2678 49.6217 54.2678 49.6217L56.6611 54.3963L49.8882 60.6384C49.8882 60.6384 48.7007 48.6668 49.0404 47.7546C49.0986 47.599 48.9027 46.8394 48.6058 45.6984C47.3357 40.7926 44.2078 28.8119 51.4429 27.0851C52.9793 26.719 54.5922 26.9417 56.0306 27.5915C58.2801 28.6136 62.5618 30.8041 66.1824 34.1082C66.4946 34.3919 66.8037 34.6848 67.1036 34.9868C67.1036 34.9868 75.3365 39.2458 76.9494 42.3333C77.5186 43.4255 77.7267 43.8312 77.7481 43.8923H77.739Z" fill="#D63A85"/>
<path id="Vector_44" d="M54.2616 49.6222L56.6549 54.3967L49.882 60.6388C49.882 60.6388 48.6945 48.6672 49.0342 47.755C49.0924 47.5994 48.8965 46.8398 48.5996 45.6988C49.7167 45.3906 50.8613 45.0093 52.0335 44.5547C53.1659 47.456 54.2646 49.6222 54.2646 49.6222H54.2616Z" fill="#C12778"/>
<path id="Vector_45" d="M77.7391 43.8925C77.6809 43.804 77.2433 42.9894 77.2433 42.9894L69.2522 45.8511L65.1725 36.9915C65.1725 36.9915 64.8695 36.6955 64.3462 36.2226C64.9736 35.5576 65.5826 34.8559 66.1794 34.1084C66.4916 34.3921 66.8007 34.685 67.1007 34.987C67.1007 34.987 75.3335 39.246 76.9464 42.3335C77.5156 43.4257 77.7238 43.8315 77.7452 43.8925H77.7391Z" fill="#C12778"/>
</g>
<g id="Group_19">
<path id="Vector_46" d="M36.5533 112.865L31.8003 112.811L33.7315 148.747L39.5251 148.085L36.5533 112.865Z" fill="#002255"/>
<path id="Vector_47" d="M31.7422 111.056C31.7422 111.056 31.9197 146.727 52.1743 148.536L51.2224 142.172C51.2224 142.172 41.5389 140.546 39.3568 125.209C37.1716 109.87 37.1685 110.791 37.1685 110.791L31.7422 111.056Z" fill="#002255"/>
<path id="Vector_48" d="M37.0249 118.772C36.9912 118.778 36.9606 118.781 36.927 118.784L34.0715 119.089C33.3829 119.162 32.7065 118.964 32.1617 118.528C31.62 118.092 31.2803 117.475 31.2068 116.789C31.1334 116.102 31.3323 115.428 31.77 114.885C32.2076 114.345 32.8197 114.006 33.5145 113.933L36.3699 113.628C37.0586 113.555 37.7349 113.753 38.2797 114.19C38.8214 114.626 39.1611 115.242 39.2346 115.929C39.308 116.615 39.1091 117.289 38.6715 117.832C38.2552 118.348 37.6737 118.68 37.0218 118.772H37.0249ZM33.4777 114.348C32.9299 114.427 32.4402 114.708 32.0883 115.141C31.7179 115.599 31.5496 116.166 31.6139 116.746C31.6751 117.326 31.9628 117.844 32.4219 118.214C32.8809 118.583 33.4502 118.751 34.0317 118.686L36.8872 118.381C37.4687 118.32 37.989 118.034 38.3593 117.576C38.7296 117.118 38.8979 116.551 38.8337 115.971C38.7725 115.392 38.4848 114.873 38.0257 114.504C37.5666 114.135 36.9974 113.967 36.4159 114.031L33.5604 114.336C33.5328 114.339 33.5053 114.342 33.4777 114.345V114.348Z" fill="#BE6622"/>
<path id="Vector_49" d="M26.6098 59.3818C26.6098 59.3818 23.8553 99.8361 29.9121 112.186C30.3804 112.549 31.8004 113.55 33.8204 113.538C36.8228 113.522 38.6254 111.292 38.858 110.993C38.2582 104.046 38.0684 96.5473 37.8419 88.5724C37.5145 77.0188 37.5542 64.7757 39.008 62.0208C38.353 59.4642 36.3331 57.475 33.7745 56.8771C31.1179 56.2547 28.3176 57.234 26.6098 59.3818Z" fill="#C3121D"/>
<g id="Group_20">
<path id="Vector_50" d="M44.8016 67.4203C47.7979 64.6868 50.7941 61.9532 53.7935 59.2197C52.7009 57.9047 51.0849 56.2451 48.8354 54.7135C45.9463 52.7457 43.1826 51.7908 41.2912 51.2996C40.0211 50.964 38.2613 50.3905 36.4648 51.0403C33.0921 52.2637 27.5372 54.921 26.6099 59.3813C26.6099 59.3813 29.5418 57.8742 30.9068 57.9596C32.2718 58.0451 42.041 62.7281 44.8016 67.4203Z" fill="#221648"/>
<path id="Vector_51" d="M47.3666 65.0678C39.9846 56.2905 30.1297 54.6278 30.0317 54.6126L30.096 54.2129C30.197 54.2281 40.1927 55.9092 47.6787 64.8085L47.3666 65.0678Z" fill="#625781"/>
<path id="Vector_52" d="M51.694 61.0962C48.2448 56.163 36.5016 51.2786 36.3853 51.2297L36.5413 50.8545C37.028 51.0558 48.5111 55.8335 52.0276 60.8643L51.694 61.0962Z" fill="#625781"/>
</g>
</g>
<path id="Vector_53" d="M134.463 123.303C134.539 130.002 134.49 137.919 128.394 141.846C121.131 146.523 112.77 150.071 104.724 153.152C98.312 155.608 89.7823 155.315 82.7615 155.044C82.3513 155.025 81.9474 155.01 81.5464 154.995C72.4291 154.647 58.7577 156.053 52.349 148.42C51.1952 147.041 50.277 145.372 49.6619 143.344C49.6619 143.331 49.6557 143.319 49.6527 143.307C48.3856 139.1 49.3803 135.094 48.9732 130.86C48.9396 130.548 48.909 130.237 48.8692 129.929C48.5417 127.284 47.9694 124.706 47.7735 122.006C47.1308 113.323 45.2639 104.833 43.5836 96.3147C43.0481 93.6025 42.5584 90.8506 42.1727 88.0835C41.2852 81.8171 40.9332 75.4804 41.8422 69.3391C42.0197 68.1096 42.2523 66.8862 42.5431 65.6781C42.7298 64.897 42.9409 64.1221 43.1735 63.3503C43.2531 63.094 43.3327 62.8347 43.4153 62.5814C45.0558 57.5536 48.1591 53.197 52.3 49.9112C65.8 39.1814 86.3362 39.5994 102.48 42.0492C105.884 42.5648 109.054 43.1597 111.889 44.1421C112.755 44.4441 113.584 44.7828 114.383 45.1611C115.304 45.5973 116.179 46.0977 117.012 46.6743C119.913 48.6848 122.212 51.6014 123.739 56.016C125.373 60.7662 125.514 65.8947 125.346 70.8615C125.266 73.0886 123.115 83.315 124.382 84.6849C128.03 88.6357 130.444 93.5506 131.953 98.7279C132.363 100.122 132.7 101.538 132.979 102.953C133.07 103.411 133.153 103.866 133.233 104.326C134.313 110.574 134.386 116.957 134.46 123.306L134.463 123.303Z" fill="#C3121D"/>
<g id="Group_21" opacity="0.54">
<path id="Vector_54" d="M134.463 123.303C134.539 130.002 134.49 137.919 128.394 141.846C121.131 146.523 112.77 150.071 104.723 153.152C98.3116 155.608 89.7819 155.315 82.7611 155.044C82.351 155.025 81.947 155.01 81.5461 154.995C72.4288 154.647 58.7574 156.054 52.3486 148.42C53.5392 147.532 55.1429 147.176 56.6548 147.273C59.244 147.435 61.5792 148.555 64.1714 148.799C67.5686 149.122 70.9475 149.268 74.3599 149.079C80.9156 148.704 87.4131 147.276 93.4944 144.796C107.395 139.121 118.973 128.007 125.186 114.379C127.022 110.34 129.088 105.504 133.241 104.323C134.319 110.571 134.395 116.954 134.469 123.303H134.463Z" fill="#740C19"/>
</g>
<path id="Vector_55" d="M114.383 45.1554L113.911 45.6008C113.911 45.6008 77.1912 47.4008 69.7786 73.7235C64.3951 92.8493 62.7608 100.934 62.2711 103.927C62.1824 104.467 61.4785 104.62 61.1693 104.165C58.069 99.5887 47.6816 83.4436 42.543 65.6754C42.7909 64.6351 43.0816 63.6008 43.4152 62.5788C45.0557 57.554 48.159 53.1974 52.2999 49.9086C65.803 39.1818 86.3391 39.5967 102.483 42.0465C106.924 42.7177 110.964 43.5201 114.386 45.1554H114.383Z" fill="#002255"/>
<g id="Group_22">
<g id="Clip path group">
<mask id="mask0_2181_29912" style="mask-type:luminance" maskUnits="userSpaceOnUse" x="41" y="0" width="87" height="105">
<g id="clippath">
<path id="Vector_56" d="M117.03 46.8179L113.908 45.6007C113.908 45.6007 77.1879 47.4007 69.7753 73.7234C64.3919 92.8492 62.7575 100.934 62.2679 103.927C62.1791 104.467 61.4752 104.619 61.1661 104.165C58.0658 99.5886 47.6783 83.4435 42.5397 65.6753C42.7386 65.0407 43.0692 63.9454 43.412 62.5787C48.419 42.5437 39.1639 31.2708 41.3522 22.1609C45.9063 3.19378 97.7485 -8.85099 116.341 8.11176C130.625 21.145 131.883 62.957 117.033 46.8179H117.03Z" fill="white"/>
</g>
</mask>
<g mask="url(#mask0_2181_29912)">
<g id="Group_23">
<g id="Group_24">
<path id="Vector_57" d="M82.706 33.8793L93.0689 79.8923L67.4309 101.3L59.2072 102.609C55.1765 86.0916 51.1489 69.5743 47.1182 53.0539C51.0387 49.8169 55.1061 46.5556 59.3174 43.282C64.4683 39.2762 69.5518 35.4779 74.5435 31.8779L75.2505 34.4864L79.3149 34.7274L82.3816 32.5766L82.709 33.8762L82.706 33.8793Z" fill="#EBADE7"/>
<path id="Vector_58" d="M80.4811 33.9102C71.9882 40.4664 63.4921 47.0227 54.9992 53.579L48.4741 53.1244C56.8202 46.7543 65.1662 40.378 73.5123 34.0047C73.7112 34.0047 77.4175 33.9529 77.6195 33.9498C77.7144 33.9498 80.3862 33.9132 80.4811 33.9132V33.9102Z" fill="white"/>
<path id="Vector_59" d="M55.2011 53.523L54.8071 53.625L67.2421 101.349L67.6361 101.247L55.2011 53.523Z" fill="#C4253B"/>
<path id="Vector_60" d="M75.048 33.9008L49.7725 53.1504L49.8951 53.3104L75.1706 34.0608L75.048 33.9008Z" fill="#8689C0"/>
<path id="Vector_61" d="M76.7913 34.102L51.5225 53.3604L51.6451 53.5203L76.9139 34.2619L76.7913 34.102Z" fill="#8689C0"/>
<path id="Vector_62" d="M79.0695 33.8655L53.188 53.9355L53.312 54.0945L79.1935 34.0244L79.0695 33.8655Z" fill="#8689C0"/>
</g>
</g>
</g>
</g>
<g id="Clip path group_2">
<mask id="mask1_2181_29912" style="mask-type:luminance" maskUnits="userSpaceOnUse" x="41" y="0" width="87" height="105">
<g id="clippath-1">
<path id="Vector_63" d="M117.03 46.8179L113.908 45.6007C113.908 45.6007 77.1879 47.4007 69.7753 73.7234C64.3919 92.8492 62.7575 100.934 62.2679 103.927C62.1791 104.467 61.4752 104.619 61.1661 104.165C58.0658 99.5886 47.6783 83.4435 42.5397 65.6753C42.7386 65.0407 43.0692 63.9454 43.412 62.5787C48.419 42.5437 39.1639 31.2708 41.3522 22.1609C45.9063 3.19378 97.7485 -8.85099 116.341 8.11176C130.625 21.145 131.883 62.957 117.033 46.8179H117.03Z" fill="white"/>
</g>
</mask>
<g mask="url(#mask1_2181_29912)">
<g id="Group_25">
<g id="Group_26">
<path id="Vector_64" d="M61.5884 47.2691L105.691 31.124L111.291 92.3547L71.0485 109.482L68.0645 108.625L61.5884 47.2691Z" fill="#AA9500"/>
<path id="Vector_65" d="M110.471 32.3291C110.854 36.762 111.233 41.1918 111.619 45.6278C112.923 60.7539 114.226 75.8831 115.53 91.0092C112.115 92.4645 108.699 93.9136 105.284 95.3689C94.1922 100.089 83.0948 104.814 72.0034 109.531C71.8075 109.473 71.6147 109.421 71.4189 109.363C70.6201 109.134 69.8243 108.902 69.0225 108.677C67.1249 90.6767 65.2244 72.6827 63.3238 54.6858C63.0636 52.2329 62.8065 49.7769 62.5464 47.324C63.489 47.7573 64.4347 48.1935 65.3774 48.6268L110.474 32.3291H110.471Z" fill="#AA9500"/>
<path id="Vector_66" d="M109.195 43.7088L95.502 48.3522C95.2663 48.4315 95.0337 48.3431 94.9848 48.157L93.4729 42.2505C93.4239 42.0614 93.58 41.8417 93.8156 41.7624L107.508 37.119C107.744 37.0396 107.977 37.1281 108.026 37.3142L109.538 43.2207C109.587 43.4098 109.43 43.6295 109.195 43.7088Z" fill="#F3E4D2"/>
<path id="Vector_67" d="M64.4194 48.5781L65.0682 54.5364L65.3896 57.5018L71.0485 109.482C70.0507 109.199 69.0591 108.912 68.0614 108.628C66.2434 91.3968 64.4224 74.1656 62.6075 56.9344C62.5065 55.949 62.4025 54.9635 62.2954 53.9781C62.0597 51.7449 61.824 49.5086 61.5884 47.2754L64.4163 48.5812L64.4194 48.5781Z" fill="#D6A33C"/>
<path id="Vector_68" d="M64.4196 48.5744L106.095 33.5123C105.926 33.1127 105.755 32.7161 105.587 32.3164C91.1625 37.4113 76.7382 42.5063 62.314 47.6042L64.4196 48.5744Z" fill="white"/>
<path id="Vector_69" d="M105.97 32.7851L63.3091 47.9697L63.377 48.1594L106.038 32.9747L105.97 32.7851Z" fill="#8689C0"/>
<path id="Vector_70" d="M65.0682 54.5358L65.3896 57.5013L62.6076 56.9338C62.5066 55.9484 62.4025 54.963 62.2954 53.9775L65.0682 54.5389V54.5358Z" fill="#F3E4D2"/>
<g id="Group_27" opacity="0.25">
<path id="Vector_71" d="M111.619 45.6279C112.923 60.7541 114.226 75.8832 115.53 91.0094C112.115 92.4646 108.699 93.9138 105.284 95.369L71.4158 109.363L71.1802 109.461L68.0645 108.625H68.0615C66.2956 91.3846 64.5266 74.1473 62.7637 56.9069C62.6903 56.1717 62.6138 55.4303 62.5342 54.6951C62.7943 54.6951 63.0575 54.689 63.3207 54.6859C70.1855 54.6035 78.403 54.0056 87.5448 52.3154C96.9437 50.5734 105.03 48.0991 111.619 45.6279Z" fill="#B7852C"/>
</g>
<path id="Vector_72" d="M96.6312 36.2066L95.9028 31.911L98.8991 30.6113L99.6642 35.1235L96.6312 36.2066Z" fill="#D63A85"/>
</g>
</g>
</g>
</g>
</g>
<g id="Group_28" opacity="0.29">
<path id="Vector_73" d="M74.3201 67.4665C70.3659 74.1448 69.9466 82.4004 71.2474 90.0458C72.5481 97.7004 75.4127 104.974 77.6898 112.393C78.9538 116.503 80.0372 120.676 80.9003 124.899C81.0686 125.723 81.2308 126.546 81.3746 127.373C81.3961 127.462 81.4114 127.547 81.4267 127.635C81.8001 129.701 82.1184 131.766 82.3754 133.847C82.3846 133.945 82.3999 134.039 82.4091 134.137C82.4917 134.781 82.5591 135.424 82.6264 136.071C82.6386 136.163 82.6509 136.26 82.6539 136.355C82.8804 138.591 83.0335 140.83 83.11 143.076C83.1161 143.164 83.1161 143.256 83.1222 143.347C83.1436 144.052 83.1589 144.763 83.1651 145.471C83.1651 145.571 83.1712 145.672 83.1681 145.773C83.1742 146.813 83.1681 147.85 83.1375 148.891C83.113 149.8 83.0732 150.712 83.0182 151.624C83.0182 151.707 83.0151 151.792 83.0059 151.881C82.9447 152.933 82.859 153.986 82.758 155.035C82.3448 155.02 81.9408 155.002 81.543 154.989C79.9668 154.925 78.2529 154.919 76.4686 154.907C76.3584 154.907 76.2452 154.907 76.135 154.907C75.4311 154.901 74.7149 154.895 73.9957 154.889C73.8978 154.889 73.7968 154.886 73.6958 154.883C70.8893 154.837 67.9848 154.721 65.1906 154.336C65.0559 154.318 64.9213 154.303 64.7927 154.279C64.7376 154.272 64.6825 154.266 64.6274 154.254C64.5356 154.242 64.4469 154.227 64.3551 154.211C61.6924 153.79 59.1491 153.101 56.921 151.969C56.8537 151.938 56.7833 151.902 56.716 151.862C54.6685 150.794 52.8964 149.339 51.5529 147.362C51.51 147.301 51.4702 147.24 51.4274 147.179C50.699 146.069 50.0991 144.793 49.6554 143.335C49.4748 142.749 49.3462 142.17 49.2483 141.596C49.2299 141.492 49.2116 141.392 49.1963 141.288C49.1259 140.827 49.0738 140.373 49.0463 139.912C49.0371 139.814 49.031 139.723 49.0249 139.625C48.8872 137.355 49.1045 135.11 49.0708 132.822C49.0708 132.733 49.0708 132.642 49.0647 132.553C49.0524 131.989 49.0249 131.428 48.9698 130.86C48.9453 130.619 48.9239 130.375 48.8933 130.134C48.8841 130.067 48.878 129.997 48.8688 129.93L48.8596 129.863C48.624 127.983 48.2689 126.14 48.0149 124.264C47.9139 123.517 47.8252 122.763 47.7731 122.004C47.1335 113.321 45.2696 104.83 43.5894 96.3123C43.0538 93.6001 42.5641 90.8452 42.1724 88.0811C42.2795 88.2184 42.3835 88.3496 42.4907 88.4869C44.4402 91.0343 45.9797 93.9143 48.2995 96.1384C50.6133 98.3594 54.0227 99.8574 57.0526 98.7835C61.4139 97.2398 62.1882 91.9435 63.6756 88.1848C65.867 82.6567 68.0583 77.1255 70.2466 71.5912C71.2994 68.94 72.5328 66.0722 75.0577 64.7207C74.1518 66.8777 75.5168 65.4468 74.3263 67.4604L74.3201 67.4665Z" fill="#740C19"/>
</g>
<g id="Group_29">
<path id="Vector_74" d="M63.0974 113.848L66.6385 138.167L63.9942 138.548L60.4531 114.23C60.5082 113.165 60.5664 112.103 60.6184 111.042C60.6674 110.169 60.7133 109.293 60.7592 108.424C60.9061 108.4 61.053 108.372 61.1968 108.348C61.4815 109.168 61.7692 109.989 62.0507 110.813C62.3904 111.789 62.7302 112.762 63.0638 113.739C63.0729 113.775 63.0852 113.809 63.1005 113.842L63.0974 113.848Z" fill="#F6E8B0"/>
<path id="Vector_75" d="M63.0607 113.745C62.9138 113.754 62.7699 113.788 62.6383 113.831C62.2741 113.956 61.9528 114.166 61.5886 114.294C61.2274 114.419 60.7653 114.447 60.4531 114.233L63.9758 138.433L63.9942 138.555L65.9192 151.771C66.0753 151.859 66.6905 152.18 67.474 152.006C68.0555 151.878 68.4197 151.536 68.5635 151.39L66.6385 138.173L66.6201 138.054L63.0974 113.855C63.0852 113.818 63.0699 113.785 63.0607 113.748V113.745Z" fill="#AA9500"/>
<path id="Vector_76" d="M66.8831 139.851L68.5633 151.386C68.4225 151.532 68.0552 151.871 67.4737 152.002C66.6933 152.176 66.0751 151.856 65.919 151.767L64.2388 140.232L66.8831 139.851Z" fill="#39393B"/>
<path id="Vector_77" d="M62.2729 114.043L61.8701 114.102L67.3249 151.558L67.7278 151.5L62.2729 114.043Z" fill="#AA9500"/>
<path id="Vector_78" d="M62.0474 110.816C61.8454 110.916 61.5975 111.002 61.3068 111.044C61.0405 111.084 60.8049 111.072 60.6182 111.044C60.6671 110.172 60.713 109.296 60.759 108.427C60.9059 108.402 61.0497 108.375 61.1966 108.351C61.4812 109.171 61.7659 109.992 62.0505 110.816H62.0474Z" fill="#39393B"/>
</g>
<g id="Group_30">
<path id="Vector_79" d="M68.5879 113.491L69.1785 138.06L66.5067 138.124L65.916 113.555C66.0996 112.506 66.2833 111.456 66.4638 110.413C66.6169 109.553 66.7668 108.689 66.9199 107.832C67.0698 107.823 67.2167 107.817 67.3636 107.811C67.5473 108.659 67.734 109.51 67.9145 110.361C68.1349 111.371 68.3522 112.378 68.5695 113.388C68.5756 113.424 68.5848 113.461 68.594 113.497L68.5879 113.491Z" fill="#F6E8B0"/>
<path id="Vector_80" d="M68.5664 113.384C68.4195 113.375 68.2726 113.391 68.1349 113.418C67.7585 113.5 67.4126 113.671 67.0362 113.754C66.6628 113.836 66.2006 113.806 65.916 113.558L66.5036 138.005V138.127L66.8281 151.477C66.9719 151.584 67.5442 151.975 68.343 151.895C68.9368 151.837 69.3407 151.542 69.4999 151.413L69.1785 138.063V137.941L68.5879 113.494C68.5787 113.458 68.5695 113.421 68.5664 113.384Z" fill="#CE615F"/>
<path id="Vector_81" d="M69.2182 139.759L69.4967 151.41C69.3376 151.538 68.9336 151.831 68.3399 151.892C67.5441 151.971 66.9687 151.581 66.8249 151.474L66.5464 139.823L69.2182 139.759Z" fill="#39393B"/>
<path id="Vector_82" d="M67.735 113.596L67.3281 113.606L68.2757 151.444L68.6826 151.433L67.735 113.596Z" fill="#AA9500"/>
<path id="Vector_83" d="M67.9115 110.355C67.6973 110.428 67.4402 110.486 67.1494 110.495C66.8801 110.502 66.6475 110.462 66.4639 110.413C66.6169 109.553 66.7669 108.689 66.9168 107.829C67.0637 107.823 67.2106 107.814 67.3606 107.808C67.5442 108.656 67.7279 109.507 67.9115 110.358V110.355Z" fill="#39393B"/>
</g>
<g id="Group_31">
<path id="Vector_84" d="M54.7299 105.669L50.2217 106.34C49.5729 106.434 49.123 107.035 49.2209 107.685L53.5057 136.263L54.5921 143.49L55.0176 146.336L55.091 146.849C55.1859 147.496 55.7919 147.941 56.4407 147.847L56.5845 147.825L56.5907 147.819L60.9489 147.175C61.5946 147.078 62.0445 146.477 61.9466 145.833L61.6436 143.816L61.2794 141.376L60.8509 138.523L59.7675 131.299L56.0765 106.666C55.9816 106.019 55.3756 105.574 54.7268 105.672L54.7299 105.669ZM55.1369 108.369C55.2318 108.991 54.8003 109.574 54.1728 109.665C53.5454 109.757 52.9609 109.333 52.866 108.704C52.7742 108.082 53.2057 107.499 53.8331 107.405C54.4605 107.313 55.042 107.74 55.1369 108.369Z" fill="#BE6622"/>
<path id="Vector_85" d="M54.3475 105.077L49.8394 105.748C49.1905 105.843 48.7407 106.444 48.8386 107.094L53.1233 135.671L54.2098 142.898L54.6352 145.745L54.7087 146.257C54.8036 146.904 55.4095 147.35 56.0584 147.255L56.2022 147.234L56.2083 147.227L60.5665 146.584C61.2123 146.486 61.6622 145.885 61.5643 145.238L61.2613 143.222L60.8971 140.781L60.4686 137.928L59.3852 130.704L55.6942 106.071C55.5993 105.425 54.9933 104.979 54.3475 105.077ZM54.7546 107.777C54.8495 108.399 54.4179 108.982 53.7905 109.074C53.1631 109.165 52.5786 108.741 52.4837 108.112C52.3919 107.49 52.8234 106.907 53.4508 106.813C54.0782 106.721 54.6597 107.148 54.7546 107.777Z" fill="#D79F43"/>
<path id="Vector_86" d="M50.8674 105.593L57.0925 147.1L56.0611 147.252C55.4123 147.35 54.8063 146.904 54.7084 146.258L48.8352 107.091C48.7373 106.444 49.1841 105.84 49.836 105.742L50.8674 105.59V105.593Z" fill="#D79F43"/>
<g id="Group_32">
<g id="&#38;lt;Repetici&#195;&#179;n de cuadr&#195;&#173;cula&#38;gt;">
<path id="Vector_87" d="M50.7964 108.66L49.0981 108.912L49.1279 109.111L50.8261 108.859L50.7964 108.66Z" fill="#BE6622"/>
<path id="Vector_88" d="M49.7617 107.443L48.9111 107.57L48.941 107.769L49.7916 107.643L49.7617 107.443Z" fill="#BE6622"/>
</g>
<g id="&#38;lt;Repetici&#195;&#179;n de cuadr&#195;&#173;cula&#38;gt;_2">
<path id="Vector_89" d="M51.2089 111.325L49.5107 111.577L49.5405 111.776L51.2387 111.524L51.2089 111.325Z" fill="#BE6622"/>
<path id="Vector_90" d="M50.1524 110.125L49.3018 110.251L49.3315 110.45L50.1822 110.324L50.1524 110.125Z" fill="#BE6622"/>
</g>
<g id="&#38;lt;Repetici&#195;&#179;n de cuadr&#195;&#173;cula&#38;gt;_3">
<path id="Vector_91" d="M51.6077 113.977L49.9097 114.23L49.9396 114.43L51.6376 114.176L51.6077 113.977Z" fill="#BE6622"/>
<path id="Vector_92" d="M50.5372 112.774L49.6865 112.9L49.7162 113.1L50.5669 112.974L50.5372 112.774Z" fill="#BE6622"/>
</g>
<g id="&#38;lt;Repetici&#195;&#179;n de cuadr&#195;&#173;cula&#38;gt;_4">
<path id="Vector_93" d="M51.99 116.642L50.292 116.896L50.322 117.095L52.0199 116.841L51.99 116.642Z" fill="#BE6622"/>
<path id="Vector_94" d="M50.9561 115.435L50.1055 115.562L50.1352 115.761L50.9858 115.635L50.9561 115.435Z" fill="#BE6622"/>
</g>
<g id="&#38;lt;Repetici&#195;&#179;n de cuadr&#195;&#173;cula&#38;gt;_5">
<path id="Vector_95" d="M52.4111 119.31L50.7129 119.562L50.7431 119.765L52.4413 119.512L52.4111 119.31Z" fill="#BE6622"/>
<path id="Vector_96" d="M51.3472 118.105L50.4966 118.231L50.5263 118.431L51.377 118.304L51.3472 118.105Z" fill="#BE6622"/>
</g>
<g id="&#38;lt;Repetici&#195;&#179;n de cuadr&#195;&#173;cula&#38;gt;_6">
<path id="Vector_97" d="M52.7886 121.977L51.0903 122.229L51.12 122.428L52.8183 122.176L52.7886 121.977Z" fill="#BE6622"/>
<path id="Vector_98" d="M51.7534 120.774L50.9028 120.9L50.9331 121.103L51.7837 120.976L51.7534 120.774Z" fill="#BE6622"/>
</g>
<g id="&#38;lt;Repetici&#195;&#179;n de cuadr&#195;&#173;cula&#38;gt;_7">
<path id="Vector_99" d="M53.2016 124.642L51.5034 124.895L51.5332 125.094L53.2314 124.841L53.2016 124.642Z" fill="#BE6622"/>
<path id="Vector_100" d="M52.1724 123.432L51.3218 123.559L51.3516 123.758L52.2022 123.631L52.1724 123.432Z" fill="#BE6622"/>
</g>
<g id="&#38;lt;Repetici&#195;&#179;n de cuadr&#195;&#173;cula&#38;gt;_8">
<path id="Vector_101" d="M53.6229 127.284L51.9248 127.537L51.9547 127.736L53.6527 127.483L53.6229 127.284Z" fill="#BE6622"/>
<path id="Vector_102" d="M52.5747 126.095L51.7241 126.222L51.7539 126.421L52.6045 126.294L52.5747 126.095Z" fill="#BE6622"/>
</g>
<g id="&#38;lt;Repetici&#195;&#179;n de cuadr&#195;&#173;cula&#38;gt;_9">
<path id="Vector_103" d="M54.0043 129.967L52.3062 130.22L52.3359 130.419L54.0341 130.166L54.0043 129.967Z" fill="#BE6622"/>
<path id="Vector_104" d="M52.957 128.749L52.1064 128.876L52.1363 129.075L52.9869 128.948L52.957 128.749Z" fill="#BE6622"/>
</g>
<g id="&#38;lt;Repetici&#195;&#179;n de cuadr&#195;&#173;cula&#38;gt;_10">
<path id="Vector_105" d="M54.3906 132.632L52.6924 132.884L52.7221 133.083L54.4204 132.831L54.3906 132.632Z" fill="#BE6622"/>
<path id="Vector_106" d="M53.3574 131.423L52.5068 131.55L52.5371 131.752L53.3877 131.626L53.3574 131.423Z" fill="#BE6622"/>
</g>
<g id="&#38;lt;Repetici&#195;&#179;n de cuadr&#195;&#173;cula&#38;gt;_11">
<path id="Vector_107" d="M54.7944 135.303L53.0962 135.556L53.126 135.755L54.8242 135.502L54.7944 135.303Z" fill="#BE6622"/>
<path id="Vector_108" d="M53.7496 134.084L52.8989 134.21L52.9287 134.409L53.7793 134.283L53.7496 134.084Z" fill="#BE6622"/>
</g>
<g id="&#38;lt;Repetici&#195;&#179;n de cuadr&#195;&#173;cula&#38;gt;_12">
<path id="Vector_109" d="M55.2034 137.947L53.5054 138.2L53.5353 138.399L55.2333 138.146L55.2034 137.947Z" fill="#BE6622"/>
<path id="Vector_110" d="M54.1553 136.752L53.3047 136.878L53.3345 137.077L54.1851 136.951L54.1553 136.752Z" fill="#BE6622"/>
</g>
<g id="&#38;lt;Repetici&#195;&#179;n de cuadr&#195;&#173;cula&#38;gt;_13">
<path id="Vector_111" d="M55.5943 140.611L53.896 140.862L53.9257 141.061L55.624 140.81L55.5943 140.611Z" fill="#BE6622"/>
<path id="Vector_112" d="M54.5571 139.416L53.7065 139.542L53.7363 139.741L54.5869 139.615L54.5571 139.416Z" fill="#BE6622"/>
</g>
<g id="&#38;lt;Repetici&#195;&#179;n de cuadr&#195;&#173;cula&#38;gt;_14">
<path id="Vector_113" d="M56.0014 143.285L54.3032 143.537L54.3335 143.739L56.0316 143.487L56.0014 143.285Z" fill="#BE6622"/>
<path id="Vector_114" d="M54.9619 142.072L54.1113 142.198L54.1411 142.397L54.9917 142.271L54.9619 142.072Z" fill="#BE6622"/>
</g>
<g id="&#38;lt;Repetici&#195;&#179;n de cuadr&#195;&#173;cula&#38;gt;_15">
<path id="Vector_115" d="M56.3998 145.949L54.7017 146.201L54.7314 146.4L56.4296 146.148L56.3998 145.949Z" fill="#BE6622"/>
<path id="Vector_116" d="M55.375 144.736L54.5244 144.862L54.5542 145.061L55.4048 144.935L55.375 144.736Z" fill="#BE6622"/>
</g>
</g>
<path id="Vector_117" d="M59.3849 130.704L60.4714 137.929L54.2095 142.898L53.123 135.671L59.3849 130.704Z" fill="#D79F43"/>
<path id="Vector_118" d="M60.8966 140.781L61.2608 143.222L56.2079 147.228L56.2018 147.234L56.0579 147.255C55.4091 147.35 54.8031 146.904 54.7082 146.258L54.6348 145.745L60.8966 140.781Z" fill="#D79F43"/>
</g>
<path id="Vector_119" d="M82.3757 133.85C82.3849 133.947 82.4002 134.042 82.4093 134.14C82.492 134.783 82.5593 135.427 82.6266 136.074C82.6389 136.165 82.6511 136.263 82.6542 136.357C82.8807 138.594 83.0337 140.833 83.1102 143.079C83.1163 143.167 83.1163 143.259 83.1224 143.35C83.1439 144.055 83.1592 144.766 83.1653 145.473C83.1653 145.574 83.1714 145.675 83.1684 145.775C83.1745 146.816 83.1684 147.853 83.1378 148.893C83.1133 149.803 83.0735 150.715 83.0184 151.627C83.0184 151.709 83.0153 151.795 83.0061 151.883C82.9449 152.936 82.8592 153.988 82.7582 155.038C82.3451 155.023 81.9411 155.004 81.5432 154.992C79.967 154.928 78.2532 154.922 76.4689 154.91C76.3587 154.91 76.2454 154.91 76.1353 154.91C75.4313 154.904 74.7152 154.898 73.996 154.891C73.898 154.891 73.797 154.888 73.696 154.885C70.8895 154.84 67.9851 154.724 65.1908 154.339C65.0562 154.321 64.9215 154.306 64.793 154.281C64.7379 154.275 64.6828 154.269 64.6277 154.257C64.5359 154.245 64.4471 154.229 64.3553 154.214C61.6926 153.793 59.1493 153.104 56.9213 151.972C56.8539 151.941 56.7835 151.905 56.7162 151.865C54.6687 150.797 52.8967 149.342 51.5531 147.365C51.5103 147.304 51.4705 147.243 51.4276 147.182C50.6992 146.071 50.0994 144.796 49.6556 143.338C49.475 142.752 49.3465 142.172 49.2485 141.599C49.2302 141.495 49.2118 141.394 49.1965 141.291C49.1261 140.83 49.0741 140.375 49.0465 139.915C49.0374 139.817 49.0312 139.726 49.0251 139.628C48.8874 137.358 49.1047 135.113 49.071 132.825C49.071 132.736 49.071 132.645 49.0649 132.556C49.0527 131.992 49.0251 131.43 48.97 130.863C48.9455 130.622 48.9241 130.378 48.8935 130.137C48.8843 130.07 48.8782 130 48.869 129.932L48.8598 129.865C48.6242 127.986 48.2692 126.143 48.0151 124.267L48.1957 123.815C52.6794 124.743 58.0751 125.533 64.2084 125.756C70.5927 125.988 76.2363 125.551 80.9066 124.902C81.075 125.725 81.2372 126.549 81.381 127.376C81.4024 127.464 81.4177 127.55 81.433 127.638C81.8095 129.704 82.1247 131.772 82.3849 133.853L82.3757 133.85Z" fill="#740C19"/>
<g id="Group_33">
<path id="Vector_120" d="M100.62 127.614L104.02 139.103L107.23 141.819L109.054 136.321L105.896 124.771L100.62 127.614Z" fill="#221648"/>
<path id="Vector_121" d="M102.985 132.879C102.661 132.925 102.33 132.876 102.027 132.73C101.626 132.538 101.326 132.202 101.18 131.787L100.913 131.03C100.766 130.616 100.794 130.167 100.987 129.767C101.18 129.368 101.516 129.069 101.932 128.922L105.908 127.537C106.774 127.238 107.72 127.693 108.023 128.553L108.289 129.31C108.592 130.17 108.133 131.116 107.27 131.418L103.294 132.803C103.193 132.84 103.089 132.864 102.982 132.879H102.985ZM106.278 127.864C106.199 127.876 106.122 127.894 106.043 127.922L102.067 129.307C101.752 129.417 101.498 129.642 101.354 129.944C101.21 130.246 101.189 130.585 101.299 130.899L101.565 131.656C101.675 131.97 101.902 132.22 102.205 132.367C102.508 132.513 102.848 132.534 103.163 132.422L107.138 131.037C107.79 130.808 108.136 130.094 107.907 129.444L107.643 128.687C107.441 128.114 106.863 127.778 106.281 127.864H106.278Z" fill="#D79F43"/>
<path id="Vector_122" d="M106.113 136.595C105.581 136.672 105.085 136.302 105.005 135.772C104.926 135.241 105.299 134.747 105.832 134.667C106.364 134.591 106.86 134.96 106.94 135.491C107.019 136.022 106.646 136.516 106.113 136.595ZM105.89 135.07C105.578 135.116 105.363 135.402 105.406 135.714C105.452 136.025 105.74 136.238 106.052 136.196C106.364 136.153 106.578 135.863 106.536 135.552C106.49 135.241 106.202 135.027 105.89 135.07Z" fill="#D79F43"/>
<path id="Vector_123" d="M105.47 133.566C105.204 133.606 104.956 133.42 104.916 133.154L104.598 130.964C104.558 130.698 104.745 130.451 105.011 130.412C105.278 130.372 105.525 130.558 105.565 130.823L105.884 133.014C105.923 133.279 105.737 133.526 105.47 133.566Z" fill="#D79F43"/>
</g>
<g id="Group_34">
<path id="Vector_124" d="M128.498 115.297L131.898 126.79L135.106 129.505L136.93 124.005L133.774 112.457L128.498 115.297Z" fill="#221648"/>
<path id="Vector_125" d="M130.861 120.563C130.536 120.609 130.206 120.56 129.903 120.413C129.502 120.221 129.202 119.886 129.055 119.471L128.789 118.717C128.642 118.302 128.669 117.851 128.862 117.454C129.055 117.054 129.392 116.755 129.808 116.609L133.784 115.224C134.65 114.922 135.595 115.38 135.898 116.24L136.165 116.993C136.468 117.854 136.009 118.8 135.146 119.102L131.17 120.487C131.069 120.523 130.965 120.548 130.858 120.563H130.861ZM134.154 115.547C134.074 115.56 133.998 115.578 133.921 115.605L129.946 116.99C129.63 117.1 129.376 117.326 129.233 117.628C129.086 117.93 129.067 118.269 129.177 118.583L129.444 119.336C129.554 119.651 129.78 119.904 130.083 120.047C130.386 120.194 130.726 120.212 131.041 120.102L135.017 118.717C135.332 118.607 135.586 118.382 135.73 118.08C135.877 117.778 135.895 117.439 135.785 117.125L135.519 116.371C135.317 115.798 134.738 115.462 134.157 115.547H134.154Z" fill="#D79F43"/>
<path id="Vector_126" d="M133.989 124.283C133.456 124.359 132.96 123.99 132.881 123.459C132.801 122.928 133.175 122.434 133.707 122.354C134.24 122.275 134.735 122.647 134.815 123.178C134.895 123.709 134.521 124.203 133.989 124.283ZM133.765 122.757C133.453 122.803 133.239 123.09 133.282 123.401C133.328 123.712 133.615 123.926 133.928 123.883C134.24 123.837 134.454 123.55 134.411 123.239C134.365 122.928 134.074 122.714 133.765 122.757Z" fill="#D79F43"/>
<path id="Vector_127" d="M133.346 121.25C133.08 121.289 132.832 121.103 132.792 120.838L132.474 118.647C132.434 118.382 132.621 118.135 132.887 118.095C133.153 118.056 133.401 118.242 133.441 118.507L133.759 120.698C133.799 120.963 133.612 121.21 133.346 121.25Z" fill="#D79F43"/>
</g>
<path id="Vector_128" d="M114.382 45.1586C113.584 44.7773 112.754 44.4386 111.888 44.1396C108.61 44.4752 101.626 45.4698 94.0605 48.2705C80.3249 53.3502 71.3912 62.0024 68.2144 73.2845C63.9388 88.4808 62.0076 96.7638 61.1415 101.105C56.8751 94.2133 47.9414 77.937 43.1731 63.3448C42.9405 64.1166 42.7293 64.8916 42.5427 65.6726C42.255 66.8807 42.0224 68.1041 41.8418 69.3336C47.6323 84.719 56.7772 100.574 59.8224 105.071C60.309 105.788 61.1476 106.148 61.9923 106.029C62.0443 106.02 62.1025 106.014 62.1576 106.002C63.0574 105.8 63.7307 105.09 63.8776 104.187C64.3918 101.05 66.0475 92.9869 71.3453 74.157C74.265 63.7902 82.2591 56.1112 95.1103 51.3366C104.879 47.7122 113.902 47.2241 113.991 47.221L114.101 47.2119L117.008 46.6688C116.176 46.0922 115.304 45.5919 114.379 45.1556L114.382 45.1586Z" fill="#221648"/>
<path id="Vector_129" d="M124.381 84.6816C90.7523 95.1217 82.0236 101.242 82.5531 105.019C82.9632 107.926 88.7293 108.478 90.9237 114.839C92.4784 119.342 90.9634 123.049 93.8648 126.164C95.2574 127.662 97.0141 128.315 98.272 128.635L134.481 112.881C135.702 112.35 136.461 111.114 136.376 109.787C136.039 104.54 134.206 91.3752 124.384 84.6816H124.381Z" fill="#740C19"/>
<path id="Vector_130" d="M81.1055 126.305H81.0993C75.5016 127.086 69.7999 127.376 64.1532 127.171C58.7085 126.973 53.2424 126.311 47.9018 125.2C47.1305 125.042 46.6378 124.288 46.7969 123.523C46.9561 122.757 47.712 122.263 48.4802 122.424C53.6617 123.501 58.9687 124.145 64.2542 124.334C69.7356 124.532 75.269 124.249 80.7015 123.492C81.4788 123.382 82.1981 123.925 82.3082 124.7C82.4184 125.475 81.8767 126.189 81.1024 126.302L81.1055 126.305Z" fill="#002255"/>
</g>
</g>
</g>
</g>
</g>
</g>
<defs>
<filter id="filter0_d_2181_29912" x="147.378" y="60.9844" width="56.2764" height="92.5166" filterUnits="userSpaceOnUse" color-interpolation-filters="sRGB">
<feFlood flood-opacity="0" result="BackgroundImageFix"/>
<feColorMatrix in="SourceAlpha" type="matrix" values="0 0 0 0 0 0 0 0 0 0 0 0 0 0 0 0 0 0 127 0" result="hardAlpha"/>
<feOffset dx="5" dy="13"/>
<feComposite in2="hardAlpha" operator="out"/>
<feColorMatrix type="matrix" values="0 0 0 0 0.807843 0 0 0 0 0.823529 0 0 0 0 0.898039 0 0 0 1 0"/>
<feBlend mode="normal" in2="BackgroundImageFix" result="effect1_dropShadow_2181_29912"/>
<feBlend mode="normal" in="SourceGraphic" in2="effect1_dropShadow_2181_29912" result="shape"/>
</filter>
<clipPath id="clip0_2181_29912">
<rect width="224" height="175" fill="white" transform="translate(0.5)"/>
</clipPath>
</defs>
</svg>
