<svg width="49" height="49" viewBox="0 0 49 49" fill="none" xmlns="http://www.w3.org/2000/svg">
<path d="M47 24.5C47 36.9263 36.9263 47 24.5 47C12.0737 47 2 36.9263 2 24.5C2 12.0737 12.0737 2 24.5 2C36.9263 2 47 12.0737 47 24.5Z" fill="#FFCC4D"/>
<path fill-rule="evenodd" clip-rule="evenodd" d="M49 24.5C49 38.0308 38.0308 49 24.5 49C10.9692 49 0 38.0308 0 24.5C0 10.9692 10.9692 0 24.5 0C38.0308 0 49 10.9692 49 24.5ZM24.5 47C36.9263 47 47 36.9263 47 24.5C47 12.0737 36.9263 2 24.5 2C12.0737 2 2 12.0737 2 24.5C2 36.9263 12.0737 47 24.5 47Z" fill="#6D2F00"/>
<path d="M24.5009 29.3107C20.7934 29.3107 18.3322 28.8782 15.2897 28.287C14.5934 28.1545 13.2422 28.287 13.2422 30.3345C13.2422 34.4282 17.9459 39.5457 24.5009 39.5457C31.0559 39.5457 35.7597 34.4282 35.7597 30.3345C35.7597 28.287 34.4072 28.1532 33.7122 28.287C30.6697 28.8782 28.2097 29.3107 24.5009 29.3107Z" fill="#664500"/>
<path d="M22.8132 6.10105C21.7395 3.0623 18.4082 1.4673 15.3682 2.53855C13.5232 3.18855 12.217 4.6773 11.7082 6.41855C10.2195 5.3823 8.26947 5.04355 6.42697 5.69355C3.38947 6.76605 1.79197 10.0998 2.86572 13.1386C3.01822 13.5686 3.22072 13.9673 3.45572 14.3361C5.89447 18.8136 12.9407 21.9611 17.207 21.9998C20.5032 19.291 24.0145 12.4186 23.1045 7.40355C23.057 6.96855 22.9632 6.53105 22.8132 6.10105ZM26.1882 6.10105C27.262 3.0623 30.5945 1.4673 33.6332 2.53855C35.4782 3.18855 36.7845 4.6773 37.2945 6.41855C38.7832 5.3823 40.7332 5.04355 42.5757 5.69355C45.6132 6.76605 47.2095 10.0998 46.1382 13.1386C45.9845 13.5686 45.7832 13.9673 45.547 14.3361C43.1082 18.8136 36.062 21.9611 31.7945 21.9998C28.4982 19.291 24.9882 12.4186 25.8982 7.40355C25.9445 6.96855 26.0382 6.53105 26.1882 6.10105Z" fill="#DD2E44"/>
</svg>
