<svg width="83" height="83" viewBox="0 0 83 83" fill="none" xmlns="http://www.w3.org/2000/svg">
<rect x="0.5" y="0.5" width="82" height="82" rx="41" fill="#57BD9E"/>
<path d="M30.6241 50.7049C30.44 50.7049 30.2392 50.7384 30.0551 50.8053C29.1849 51.1233 28.7331 52.0771 29.0511 52.9473C29.2017 53.349 34.3057 62.6367 41.736 62.6367C49.1662 62.6367 54.2702 53.349 54.4209 52.9473C54.7388 52.0771 54.287 51.1233 53.4168 50.8053C52.5466 50.4873 51.5927 50.9392 51.2747 51.8094C51.2413 51.8763 46.8233 59.2898 41.736 59.2898C36.6486 59.2898 32.2306 51.893 32.1972 51.8094C31.9462 51.1232 31.3102 50.7049 30.6241 50.7049Z" fill="#191919"/>
<path d="M29.4799 22.2547C20.7277 22.2547 16.2595 26.4551 16.0755 26.6392C15.4061 27.2751 15.3893 28.3461 16.0253 28.9988C16.6612 29.6681 17.7155 29.6849 18.3848 29.049C18.5522 28.8983 22.1669 25.6016 29.4632 25.6016C30.3836 25.6016 31.1367 24.8486 31.1367 23.9281C31.1367 23.0077 30.3836 22.2547 29.4632 22.2547H29.4799Z" fill="#191919"/>
<path d="M28.8056 38.3168C28.8056 41.3291 26.3623 43.7723 23.35 43.7723C20.3378 43.7723 17.8945 41.3291 17.8945 38.3168C17.8945 35.3046 20.3378 32.8613 23.35 32.8613C26.3623 32.8613 28.8056 35.3046 28.8056 38.3168Z" fill="#191919"/>
<path d="M52.8755 22.2547C61.6278 22.2547 66.0959 26.4551 66.28 26.6392C66.9494 27.2751 66.9661 28.3461 66.3302 28.9988C65.6943 29.6681 64.64 29.6849 63.9706 29.049C63.8033 28.8983 60.1886 25.6016 52.8923 25.6016C51.9718 25.6016 51.2188 24.8486 51.2188 23.9281C51.2188 23.0077 51.9718 22.2547 52.8923 22.2547H52.8755Z" fill="#191919"/>
<path d="M53.5499 38.3168C53.5499 41.3291 55.9932 43.7723 59.0054 43.7723C62.0177 43.7723 64.4609 41.3291 64.4609 38.3168C64.4609 35.3046 62.0177 32.8613 59.0054 32.8613C55.9932 32.8613 53.5499 35.3046 53.5499 38.3168Z" fill="#191919"/>
</svg>
