<svg width="45" height="45" viewBox="0 0 45 45" fill="none" xmlns="http://www.w3.org/2000/svg">
<g style="mix-blend-mode:luminosity" clip-path="url(#clip0_4562_35502)">
<path d="M45 22.5C45 34.9263 34.9263 45 22.5 45C10.0737 45 0 34.9263 0 22.5C0 10.0737 10.0737 0 22.5 0C34.9263 0 45 10.0737 45 22.5Z" fill="#FFCC4D"/>
<path d="M22.5009 27.3107C18.7934 27.3107 16.3322 26.8782 13.2897 26.287C12.5934 26.1545 11.2422 26.287 11.2422 28.3345C11.2422 32.4282 15.9459 37.5457 22.5009 37.5457C29.0559 37.5457 33.7597 32.4282 33.7597 28.3345C33.7597 26.287 32.4072 26.1532 31.7122 26.287C28.6697 26.8782 26.2097 27.3107 22.5009 27.3107Z" fill="#664500"/>
<path d="M20.8132 4.10105C19.7395 1.0623 16.4082 -0.532699 13.3682 0.538551C11.5232 1.18855 10.217 2.6773 9.70822 4.41855C8.21947 3.3823 6.26947 3.04355 4.42697 3.69355C1.38947 4.76605 -0.20803 8.0998 0.86572 11.1386C1.01822 11.5686 1.22072 11.9673 1.45572 12.3361C3.89447 16.8136 10.9407 19.9611 15.207 19.9998C18.5032 17.291 22.0145 10.4186 21.1045 5.40355C21.057 4.96855 20.9632 4.53105 20.8132 4.10105ZM24.1882 4.10105C25.262 1.0623 28.5945 -0.532699 31.6332 0.538551C33.4782 1.18855 34.7845 2.6773 35.2945 4.41855C36.7832 3.3823 38.7332 3.04355 40.5757 3.69355C43.6132 4.76605 45.2095 8.0998 44.1382 11.1386C43.9845 11.5686 43.7832 11.9673 43.547 12.3361C41.1082 16.8136 34.062 19.9611 29.7945 19.9998C26.4982 17.291 22.9882 10.4186 23.8982 5.40355C23.9445 4.96855 24.0382 4.53105 24.1882 4.10105Z" fill="#DD2E44"/>
</g>
<defs>
<clipPath id="clip0_4562_35502">
<rect width="45" height="45" fill="white"/>
</clipPath>
</defs>
</svg>
