<svg width="82" height="82" viewBox="0 0 82 82" fill="none" xmlns="http://www.w3.org/2000/svg">
<rect width="82" height="82" rx="41" fill="#57BD9E"/>
<path d="M30.1241 50.2049C29.94 50.2049 29.7392 50.2384 29.5551 50.3053C28.6849 50.6233 28.2331 51.5771 28.5511 52.4473C28.7017 52.849 33.8057 62.1367 41.236 62.1367C48.6662 62.1367 53.7702 52.849 53.9209 52.4473C54.2388 51.5771 53.787 50.6233 52.9168 50.3053C52.0466 49.9873 51.0927 50.4392 50.7747 51.3094C50.7413 51.3763 46.3233 58.7898 41.236 58.7898C36.1486 58.7898 31.7306 51.393 31.6972 51.3094C31.4462 50.6232 30.8102 50.2049 30.1241 50.2049Z" fill="#191919"/>
<path d="M28.9809 21.7547C20.2287 21.7547 15.7605 25.9551 15.5764 26.1392C14.907 26.7751 14.8903 27.8461 15.5262 28.4988C16.1622 29.1681 17.2164 29.1849 17.8858 28.549C18.0532 28.3983 21.6679 25.1016 28.9642 25.1016C29.8846 25.1016 30.6377 24.3486 30.6377 23.4281C30.6377 22.5077 29.8846 21.7547 28.9642 21.7547H28.9809Z" fill="#191919"/>
<path d="M28.3056 37.8168C28.3056 40.8291 25.8623 43.2723 22.85 43.2723C19.8378 43.2723 17.3945 40.8291 17.3945 37.8168C17.3945 34.8046 19.8378 32.3613 22.85 32.3613C25.8623 32.3613 28.3056 34.8046 28.3056 37.8168Z" fill="#191919"/>
<path d="M52.3755 21.7547C61.1278 21.7547 65.5959 25.9551 65.78 26.1392C66.4494 26.7751 66.4661 27.8461 65.8302 28.4988C65.1943 29.1681 64.14 29.1849 63.4706 28.549C63.3033 28.3983 59.6886 25.1016 52.3923 25.1016C51.4718 25.1016 50.7188 24.3486 50.7188 23.4281C50.7188 22.5077 51.4718 21.7547 52.3923 21.7547H52.3755Z" fill="#191919"/>
<path d="M53.0499 37.8168C53.0499 40.8291 55.4932 43.2723 58.5054 43.2723C61.5177 43.2723 63.9609 40.8291 63.9609 37.8168C63.9609 34.8046 61.5177 32.3613 58.5054 32.3613C55.4932 32.3613 53.0499 34.8046 53.0499 37.8168Z" fill="#191919"/>
</svg>
