<svg width="584" height="278" viewBox="0 0 584 278" fill="none" xmlns="http://www.w3.org/2000/svg">
<g clip-path="url(#clip0_4_21654)">
<path d="M284 14H212V86H284V14Z" fill="#FF0000"/>
<path d="M248.284 73.7925C261.424 73.7925 272.076 63.1402 272.076 50C272.076 36.8598 261.424 26.2075 248.284 26.2075C235.144 26.2075 224.491 36.8598 224.491 50C224.491 63.1402 235.144 73.7925 248.284 73.7925Z" fill="white"/>
<path d="M259.874 49.9988L241.662 39.5518V60.5518L259.874 49.9988Z" fill="#F98C9F"/>
</g>
<g clip-path="url(#clip1_4_21654)">
<path d="M72 143H0V215H72V143Z" fill="#FF92A7"/>
<path d="M11.6128 179C11.6379 175.938 12.609 172.966 14.3827 170.522C16.1565 168.078 18.6389 166.292 21.4637 165.426L22.0644 166.536C18.5034 169.128 16.958 172.212 16.958 179C16.958 185.788 18.6191 188.872 22.0644 191.464L21.4637 192.574C18.6389 191.708 16.1565 189.922 14.3827 187.478C12.609 185.034 11.6379 182.062 11.6128 179Z" fill="#E50A17"/>
<path d="M25.523 177.001C25.779 176.058 25.651 175.587 23.7305 175.469V174.297L31.2877 173.826L30.5179 175.937L30.6459 176.055C32.0638 174.689 33.9785 173.851 36.0249 173.701C36.4677 173.663 36.9141 173.712 37.3351 173.843C37.7561 173.975 38.1424 174.186 38.4686 174.464C38.7949 174.742 39.0538 175.08 39.2287 175.456C39.4035 175.832 39.4903 176.238 39.4834 176.647C39.4664 177.214 39.3362 177.773 39.0993 178.296L37.1772 183.84C36.9579 184.286 36.8278 184.765 36.7931 185.254C36.7931 185.96 37.3052 186.078 39.4834 186.078V187.256C38.1484 187.606 36.7721 187.806 35.3847 187.852C33.2082 187.852 32.0543 187.146 32.0543 185.616C32.0838 185.051 32.2136 184.494 32.4384 183.967L34.2308 179.018C34.4406 178.528 34.57 178.012 34.6149 177.487C34.6209 177.32 34.5874 177.155 34.5169 177.001C34.4464 176.848 34.3405 176.71 34.2066 176.598C34.0727 176.486 33.9139 176.402 33.7412 176.352C33.5685 176.302 33.3861 176.287 33.2066 176.309C32.0891 176.376 31.018 176.745 30.1273 177.369L27.437 187.621H22.0645L23.8569 182.79L25.523 177.001Z" fill="#E50A17"/>
<path d="M40.6451 185.49C40.6553 185.164 40.7392 184.844 40.8918 184.549C41.0445 184.253 41.2627 183.987 41.5336 183.768C41.8044 183.548 42.1224 183.379 42.4685 183.27C42.8146 183.162 43.1819 183.116 43.5484 183.136C44.2833 183.115 44.9984 183.35 45.5408 183.789C46.0832 184.229 46.4101 184.839 46.4516 185.49C46.4414 185.815 46.3575 186.135 46.2049 186.43C46.0523 186.726 45.834 186.992 45.5632 187.212C45.2923 187.431 44.9744 187.6 44.6282 187.709C44.2821 187.817 43.9149 187.863 43.5484 187.843C43.1796 187.872 42.808 187.833 42.4573 187.728C42.1066 187.623 41.7844 187.454 41.5113 187.233C41.2382 187.012 41.0201 186.742 40.871 186.442C40.7219 186.142 40.645 185.818 40.6451 185.49Z" fill="#E50A17"/>
<path d="M48.7742 191.464C52.7306 188.872 54.4476 185.788 54.4476 179C54.4476 172.212 52.6021 169.128 48.7742 166.536L49.4416 165.426C52.5947 166.268 55.3687 168.049 57.3437 170.498C59.3187 172.947 60.3871 175.932 60.3871 179C60.3871 182.068 59.3187 185.053 57.3437 187.502C55.3687 189.951 52.5947 191.732 49.4416 192.574L48.7742 191.464Z" fill="#E50A17"/>
</g>
<g clip-path="url(#clip2_4_21654)">
<path d="M473 152H401V224H473V152Z" fill="#FF0000"/>
<path d="M423.196 189.815C423.222 188.596 423.566 187.405 424.193 186.36C424.82 185.314 425.709 184.45 426.772 183.854C430.613 181.735 436.706 182 438.827 181.333V178.025C438.827 174.184 437.369 172.984 434.72 172.984C434.05 172.998 433.383 173.087 432.733 173.249C433.125 174.08 433.349 174.98 433.395 175.898C433.405 176.481 433.294 177.059 433.067 177.595C432.841 178.132 432.505 178.616 432.081 179.015C431.657 179.414 431.154 179.72 430.605 179.913C430.055 180.107 429.472 180.183 428.891 180.138C428.334 180.21 427.767 180.16 427.231 179.992C426.695 179.823 426.202 179.54 425.786 179.162C425.37 178.784 425.042 178.321 424.823 177.803C424.604 177.285 424.501 176.726 424.519 176.165C424.519 172.721 428.891 170.468 437.103 170.468C444.255 170.468 447.037 173.776 447.037 180.138V190.072C447.037 192.721 447.566 193.118 450.613 192.455L451.401 194.177C449.571 195.578 447.346 196.366 445.043 196.428C441.335 196.428 440.407 195.236 439.346 192.852H439.082C436.96 195.056 434.059 196.34 431.002 196.428C425.447 196.57 423.196 192.994 423.196 189.815ZM438.827 190.476V183.589C434.058 183.986 431.939 185.179 431.939 188.358C431.872 188.851 431.911 189.352 432.053 189.829C432.195 190.306 432.437 190.747 432.763 191.123C433.088 191.499 433.491 191.801 433.943 192.009C434.394 192.218 434.885 192.327 435.383 192.331C436.062 192.315 436.727 192.139 437.326 191.818C437.924 191.497 438.438 191.04 438.827 190.483V190.476Z" fill="#FFDA00"/>
<path d="M441.212 208.359L437.105 205.312L433.132 208.359L429.159 205.312L425.98 207.563L424.126 205.18L429.167 201.339L433.14 204.386L437.113 201.339L441.22 204.386L445.193 201.339L450.234 205.18L448.247 207.563L445.2 205.312L441.212 208.359Z" fill="#FFDA00"/>
</g>
<g clip-path="url(#clip3_4_21654)">
<path d="M271 157H199V229H271V157Z" fill="#FFDA00"/>
<path d="M209.452 176.742V209.67H252.416L256.558 213.903L260.548 209.67V176.742H209.452Z" fill="#FF0000"/>
</g>
<g clip-path="url(#clip4_4_21654)">
<path d="M384 195H312V267H384V195Z" fill="#0065FF"/>
<path d="M365.22 209.682H330.658V213.658H365.22V209.682Z" fill="#FFDA00"/>
<path d="M365.22 219.347H330.658V223.323H365.22V219.347Z" fill="#FFDA00"/>
<path d="M365.22 229.074H330.658V233.05H365.22V229.074Z" fill="#FFDA00"/>
<path d="M365.22 238.8H330.658V242.776H365.22V238.8Z" fill="#FFDA00"/>
<path d="M347.97 248.465H330.658V252.441H347.97V248.465Z" fill="#FFDA00"/>
</g>
<g clip-path="url(#clip5_4_21654)">
<path d="M573 193H501V265H573V193Z" fill="#F98C9F"/>
<path d="M528.527 193H501V264.94H528.527V193Z" fill="#03976D"/>
<path d="M514.09 221.628H505.221V234.535H514.09V221.628Z" fill="#F98C9F"/>
<path d="M528.649 244.079L514.09 234.535V221.628L528.649 212.085V244.079Z" fill="#F98C9F"/>
<path d="M528.467 204.256V253.684C535.021 253.684 541.307 251.08 545.942 246.445C550.577 241.81 553.181 235.524 553.181 228.97C553.181 222.415 550.577 216.129 545.942 211.494C541.307 206.86 535.021 204.256 528.467 204.256Z" fill="#03976D"/>
<mask id="mask0_4_21654" style="mask-type:luminance" maskUnits="userSpaceOnUse" x="501" y="193" width="72" height="72">
<path d="M573 193H501V265H573V193Z" fill="white"/>
</mask>
<g mask="url(#mask0_4_21654)">
<path d="M552.936 197.527V260.413C561.275 260.413 569.273 257.1 575.17 251.203C581.067 245.307 584.379 237.309 584.379 228.97C584.379 220.631 581.067 212.633 575.17 206.736C569.273 200.84 561.275 197.527 552.936 197.527Z" fill="#03976D"/>
</g>
</g>
<g clip-path="url(#clip6_4_21654)">
<path d="M84 21H12V93H84V21Z" fill="#F98C9F"/>
<mask id="mask1_4_21654" style="mask-type:luminance" maskUnits="userSpaceOnUse" x="12" y="21" width="72" height="72">
<path d="M84 21H12V93H84V21Z" fill="white"/>
</mask>
<g mask="url(#mask1_4_21654)">
<path d="M108.917 56.976C108.917 56.976 81.6554 88.4671 47.973 88.4671C14.2906 88.4671 -12.9172 56.976 -12.9172 56.976C-12.9172 56.976 14.3446 25.4849 48.027 25.4849C81.7094 25.4849 108.917 56.976 108.917 56.976Z" fill="#0065FF"/>
</g>
<path d="M77.5855 56.8225C77.5855 56.8225 64.3826 72.0573 48.1276 72.0573C31.8725 72.0573 18.726 56.8225 18.726 56.8225C18.726 56.8225 31.924 41.5864 48.1778 41.5864C64.4317 41.5864 77.5855 56.8225 77.5855 56.8225Z" fill="white"/>
<path d="M48.179 69.8669C55.3835 69.8669 61.2238 64.0265 61.2238 56.8221C61.2238 49.6177 55.3835 43.7773 48.179 43.7773C40.9746 43.7773 35.1343 49.6177 35.1343 56.8221C35.1343 64.0265 40.9746 69.8669 48.179 69.8669Z" fill="#0065FF"/>
</g>
<g clip-path="url(#clip7_4_21654)">
<path d="M584 0H512V72H584V0Z" fill="#F98C9F"/>
<mask id="mask2_4_21654" style="mask-type:luminance" maskUnits="userSpaceOnUse" x="512" y="0" width="72" height="72">
<path d="M584 0H512V72H584V0Z" fill="white"/>
</mask>
<g mask="url(#mask2_4_21654)">
<path d="M548.128 75.6364C569.948 75.6364 587.637 57.948 587.637 36.1282C587.637 14.3085 569.948 -3.37988 548.128 -3.37988C526.309 -3.37988 508.62 14.3085 508.62 36.1282C508.62 57.948 526.309 75.6364 548.128 75.6364Z" fill="#0065FF"/>
</g>
<path d="M548.131 58.3546C560.405 58.3546 570.355 48.4045 570.355 36.1304C570.355 23.8564 560.405 13.9062 548.131 13.9062C535.856 13.9062 525.906 23.8564 525.906 36.1304C525.906 48.4045 535.856 58.3546 548.131 58.3546Z" stroke="#F98C9F" stroke-width="1.857" stroke-miterlimit="10"/>
<path d="M548.131 13.9062V58.224" stroke="#F98C9F" stroke-width="1.857" stroke-miterlimit="10"/>
<path d="M570.224 36.1304H525.906" stroke="#F98C9F" stroke-width="1.857" stroke-miterlimit="10"/>
<path d="M568.013 26.3828H528.115" stroke="#F98C9F" stroke-width="1.857" stroke-miterlimit="10"/>
<path d="M568.013 45.7476H528.115" stroke="#F98C9F" stroke-width="1.857" stroke-miterlimit="10"/>
<path d="M548.651 13.9062C544.534 15.9509 541.087 19.1291 538.715 23.0668C536.344 27.0044 535.147 31.5375 535.264 36.1326C535.191 40.7192 536.406 45.2344 538.773 49.1639C541.14 53.0934 544.562 56.2794 548.651 58.3591" stroke="#F98C9F" stroke-width="1.857" stroke-miterlimit="10"/>
<path d="M547.48 13.9062C551.597 15.9509 555.044 19.1291 557.415 23.0668C559.787 27.0044 560.984 31.5375 560.866 36.1326C560.94 40.7192 559.724 45.2344 557.358 49.1639C554.991 53.0934 551.569 56.2794 547.48 58.3591" stroke="#F98C9F" stroke-width="1.857" stroke-miterlimit="10"/>
</g>
<g clip-path="url(#clip8_4_21654)">
<path d="M484 36H412V108H484V36Z" fill="#0065FF"/>
<path d="M429.329 82.496C435.919 79.2019 437.871 75.661 438.238 72.9872L437.749 72.4981C437.309 72.5992 436.857 72.6404 436.406 72.6204C434.562 72.5549 432.818 71.7598 431.56 70.4099C430.301 69.0599 429.63 67.2655 429.693 65.4209C429.75 63.4855 430.56 61.6488 431.951 60.3019C433.342 58.9551 435.204 58.2044 437.14 58.21C441.776 58.21 445.804 61.7486 445.804 67.9724C445.804 76.0277 441.05 82.1292 431.16 85.7901L429.329 82.496ZM450.196 82.496C456.787 79.2019 458.738 75.661 459.105 72.9872L458.616 72.4981C458.175 72.5941 457.724 72.6351 457.274 72.6204C455.429 72.5549 453.686 71.7598 452.427 70.4099C451.168 69.0599 450.497 67.2655 450.561 65.4209C450.62 63.4879 451.431 61.6544 452.821 60.31C454.211 58.9656 456.071 58.2163 458.005 58.2213C462.641 58.2213 466.669 61.76 466.669 67.9837C466.669 76.0391 461.915 82.1406 452.026 85.8015L450.196 82.496Z" fill="#FFDA00"/>
</g>
<g clip-path="url(#clip9_4_21654)">
<rect x="111" y="66" width="72.1838" height="72.1838" fill="black"/>
<path d="M183.184 102.092C183.184 97.3522 182.25 92.659 180.436 88.2801C178.623 83.9013 175.964 79.9225 172.613 76.5711C169.261 73.2196 165.283 70.5611 160.904 68.7473C156.525 66.9335 151.832 66 147.092 66C142.352 66 137.659 66.9335 133.28 68.7473C128.901 70.5611 124.923 73.2196 121.571 76.5711C118.22 79.9225 115.561 83.9013 113.747 88.2801C111.934 92.659 111 97.3522 111 102.092L147.092 102.092H183.184Z" fill="#FFDF00"/>
<path d="M183.184 138.184C183.184 133.444 182.25 128.751 180.436 124.372C178.623 119.993 175.964 116.014 172.613 112.663C169.261 109.311 165.283 106.653 160.904 104.839C156.525 103.025 151.832 102.092 147.092 102.092C142.352 102.092 137.659 103.025 133.28 104.839C128.901 106.653 124.923 109.311 121.571 112.663C118.22 116.014 115.561 119.993 113.747 124.372C111.934 128.751 111 133.444 111 138.184L147.092 138.184H183.184Z" fill="#FFDF00"/>
</g>
<g clip-path="url(#clip10_4_21654)">
<rect x="100" y="206" width="72" height="72" fill="#FE91A4"/>
<circle cx="118" cy="224" r="18" fill="#039C6D"/>
<circle cx="154" cy="224" r="18" fill="#039C6D"/>
<circle cx="118" cy="260" r="18" fill="#039C6D"/>
<circle cx="154" cy="260" r="18" fill="#039C6D"/>
</g>
<defs>
<clipPath id="clip0_4_21654">
<rect width="72" height="72" fill="white" transform="translate(212 14)"/>
</clipPath>
<clipPath id="clip1_4_21654">
<rect width="72" height="72" fill="white" transform="translate(0 143)"/>
</clipPath>
<clipPath id="clip2_4_21654">
<rect width="72" height="72" fill="white" transform="translate(401 152)"/>
</clipPath>
<clipPath id="clip3_4_21654">
<rect width="72" height="72" fill="white" transform="translate(199 157)"/>
</clipPath>
<clipPath id="clip4_4_21654">
<rect width="72" height="72" fill="white" transform="translate(312 195)"/>
</clipPath>
<clipPath id="clip5_4_21654">
<rect width="72" height="72" fill="white" transform="translate(501 193)"/>
</clipPath>
<clipPath id="clip6_4_21654">
<rect width="72" height="72" fill="white" transform="translate(12 21)"/>
</clipPath>
<clipPath id="clip7_4_21654">
<rect width="72" height="72" fill="white" transform="translate(512)"/>
</clipPath>
<clipPath id="clip8_4_21654">
<rect width="72" height="72" fill="white" transform="translate(412 36)"/>
</clipPath>
<clipPath id="clip9_4_21654">
<rect width="72" height="72" fill="white" transform="translate(111 66)"/>
</clipPath>
<clipPath id="clip10_4_21654">
<rect width="72" height="72" fill="white" transform="translate(100 206)"/>
</clipPath>
</defs>
</svg>
