<svg width="33" height="33" viewBox="0 0 33 33" fill="none" xmlns="http://www.w3.org/2000/svg">
<g id="IconUPC/Interface/Globe">
<path id="vetor" d="M16.5094 4.5C14.1357 4.49814 11.8147 5.20034 9.84002 6.51778C7.86539 7.83523 6.32586 9.70872 5.41616 11.9013C4.50646 14.0938 4.26748 16.5069 4.72943 18.8353C5.19139 21.1637 6.33354 23.3028 8.01139 24.9819C9.68924 26.6611 11.8274 27.8049 14.1555 28.2687C16.4835 28.7325 18.8968 28.4954 21.09 27.5875C23.2833 26.6795 25.158 25.1414 26.477 23.1678C27.796 21.1942 28.5 18.8738 28.5 16.5C28.4988 13.3194 27.2354 10.2693 24.9872 8.01943C22.7391 5.76953 19.69 4.50375 16.5094 4.5ZM27.086 16.5C27.0858 17.7125 26.872 18.9155 26.4544 20.0538C24.8118 20.9298 23.0583 21.5798 21.2416 21.9863C21.4698 20.699 21.6178 19.3987 21.6846 18.0931C23.5493 17.6948 25.3595 17.0745 27.0766 16.2455C27.0766 16.3303 27.086 16.4152 27.086 16.5ZM5.93284 16.5C5.93284 16.4152 5.94227 16.3303 5.94227 16.2455C7.65934 17.0745 9.46958 17.6948 11.3343 18.0931C11.4011 19.3987 11.5491 20.699 11.7773 21.9863C9.95924 21.5843 8.20515 20.9341 6.56442 20.0538C6.14684 18.9155 5.93304 17.7125 5.93284 16.5ZM20.3178 16.5C20.3178 16.6414 20.3083 16.7734 20.3083 16.9148C19.0536 17.1315 17.7828 17.2418 16.5094 17.2447C15.2361 17.2418 13.9653 17.1315 12.7105 16.9148C12.7105 16.7734 12.7011 16.6414 12.7011 16.5C12.7036 15.0394 12.8107 13.5808 13.0216 12.1355C14.1718 12.3499 15.3394 12.4572 16.5094 12.456C17.6792 12.4525 18.8464 12.3452 19.9973 12.1355C20.2081 13.5808 20.3152 15.0394 20.3178 16.5ZM21.3735 11.8244C22.6756 11.4891 23.9369 11.0118 25.1347 10.401C26.0481 11.691 26.6602 13.1697 26.9258 14.7278C25.2779 15.5781 23.5297 16.2178 21.7223 16.632V16.5094C21.7295 14.941 21.6129 13.3745 21.3735 11.8244ZM11.2871 16.632C9.48021 16.2161 7.73223 15.5764 6.08367 14.7278C6.3468 13.169 6.95909 11.6898 7.87471 10.401C9.07329 11.0101 10.3344 11.4874 11.6359 11.8244C11.4063 13.3724 11.2897 14.9351 11.2871 16.5V16.632ZM12.7671 18.357C14.0052 18.5504 15.2563 18.6481 16.5094 18.6493C17.7625 18.6484 19.0137 18.5507 20.2518 18.357C20.1707 19.6705 20.0038 20.9773 19.7522 22.2691C18.6796 22.439 17.5953 22.5241 16.5094 22.5236C15.4237 22.5198 14.3397 22.4347 13.2667 22.2691C13.0099 20.9782 12.8429 19.671 12.7671 18.357ZM24.2203 9.27926C23.2289 9.75818 22.1934 10.1402 21.1284 10.4199C20.8734 9.11392 20.5333 7.82603 20.1104 6.56442C21.6746 7.134 23.0826 8.06407 24.2203 9.27926ZM18.4513 6.10252C19.0083 7.60796 19.4433 9.15576 19.7522 10.731C18.6835 10.9369 17.5977 11.0411 16.5094 11.042C15.4211 11.0416 14.3353 10.9374 13.2667 10.731C13.5775 9.15622 14.0125 7.60857 14.5676 6.10252C15.208 5.9824 15.8578 5.91931 16.5094 5.91399C17.161 5.91931 17.8109 5.9824 18.4513 6.10252ZM12.8991 6.56442C12.4805 7.82733 12.1405 9.11495 11.881 10.4199C10.8195 10.1388 9.78729 9.75687 8.79851 9.27926C9.93444 8.06632 11.3388 7.13651 12.8991 6.56442ZM7.55421 22.1182C9.01057 22.7351 10.5269 23.1995 12.079 23.5039C12.3052 24.4937 12.5786 25.4647 12.8991 26.4262C10.6883 25.6239 8.80773 24.1081 7.55421 22.1182ZM14.5676 26.8975C14.1842 25.8673 13.8601 24.8161 13.5966 23.749C14.5621 23.8798 15.5352 23.9459 16.5094 23.947C17.4837 23.9459 18.4568 23.8798 19.4222 23.749C19.1588 24.8161 18.8346 25.8673 18.4513 26.8975C17.8109 27.0176 17.161 27.0807 16.5094 27.086C15.8578 27.0807 15.208 27.0176 14.5676 26.8975ZM20.1198 26.4356C20.4403 25.4741 20.7137 24.4937 20.9399 23.5134C22.4916 23.2075 24.0078 22.7432 25.4647 22.1277C24.2055 24.1126 22.3269 25.6268 20.1198 26.4356Z" fill="#026849"/>
</g>
</svg>
