<svg width="21" height="22" viewBox="0 0 21 22" fill="none" xmlns="http://www.w3.org/2000/svg">
<g id="Outline/Ic-md-information">
<path id="Vector" d="M10.4986 18.8732C8.41097 18.8704 6.40964 18.0399 4.93347 16.5637C3.45729 15.0875 2.62677 13.0862 2.62402 10.9986C2.62677 8.91097 3.45729 6.90964 4.93347 5.43347C6.40964 3.95729 8.41097 3.12677 10.4986 3.12402C12.5865 3.12586 14.5884 3.95608 16.0647 5.43246C17.5411 6.90883 18.3713 8.91069 18.3732 10.9986C18.3713 13.0865 17.5411 15.0884 16.0647 16.5647C14.5884 18.0411 12.5865 18.8713 10.4986 18.8732ZM10.4986 4.43587C8.75438 4.43587 7.0816 5.12876 5.84826 6.36211C4.61492 7.59545 3.92203 9.26822 3.92203 11.0124C3.92203 12.7566 4.61492 14.4294 5.84826 15.6628C7.0816 16.8961 8.75438 17.589 10.4986 17.589C12.2428 17.589 13.9156 16.8961 15.1489 15.6628C16.3823 14.4294 17.0752 12.7566 17.0752 11.0124C17.077 10.1476 16.9082 9.29095 16.5785 8.49144C16.2488 7.69194 15.7647 6.96531 15.1538 6.35315C14.543 5.74099 13.8173 5.25533 13.0185 4.92396C12.2197 4.59259 11.3634 4.42203 10.4986 4.42203V4.43587ZM11.4851 13.6223V9.68674H9.18674V10.9986H10.1732V13.6223H9.18674V14.9376H12.4612V13.6223H11.4851ZM10.4986 9.02908C10.7596 9.02909 11.01 8.92563 11.1949 8.74137C11.3798 8.55712 11.4842 8.30709 11.4851 8.04606C11.4842 7.78503 11.3798 7.535 11.1949 7.35075C11.01 7.16649 10.7596 7.06304 10.4986 7.06304C10.3694 7.06258 10.2413 7.0877 10.1219 7.13693C10.0024 7.18617 9.89384 7.25857 9.80247 7.34994C9.71109 7.44131 9.6387 7.54986 9.58946 7.66933C9.54022 7.78881 9.51511 7.91684 9.51557 8.04606C9.51557 8.30678 9.61914 8.55681 9.80349 8.74116C9.98784 8.92552 10.2379 9.02908 10.4986 9.02908Z" fill="#013424"/>
</g>
</svg>
