<svg width="10" height="10" viewBox="0 0 10 10" fill="none" xmlns="http://www.w3.org/2000/svg">
<path d="M5.3697 5.00327L9.41494 0.958029C9.44093 0.933813 9.46177 0.904611 9.47623 0.872164C9.49069 0.839718 9.49846 0.804692 9.49909 0.769176C9.49971 0.73366 9.49318 0.698382 9.47988 0.665446C9.46657 0.63251 9.44677 0.602591 9.42166 0.577473C9.39654 0.552356 9.36662 0.532555 9.33368 0.519251C9.30075 0.505948 9.26547 0.499415 9.22995 0.500041C9.19444 0.500668 9.15941 0.508442 9.12696 0.522899C9.09452 0.537356 9.06532 0.5582 9.0411 0.584188L4.99586 4.62943L0.95062 0.584188C0.900478 0.537465 0.834157 0.512028 0.765631 0.513237C0.697105 0.514446 0.631723 0.542206 0.583261 0.590669C0.534798 0.639132 0.507038 0.704514 0.505829 0.77304C0.50462 0.841566 0.530056 0.907886 0.576779 0.958029L4.62202 5.00327L0.576779 9.04851C0.527587 9.09829 0.5 9.16545 0.5 9.23543C0.5 9.30541 0.527587 9.37257 0.576779 9.42235C0.60129 9.44696 0.630419 9.46649 0.662496 9.47982C0.694573 9.49314 0.728965 9.5 0.763699 9.5C0.798434 9.5 0.832826 9.49314 0.864903 9.47982C0.89698 9.46649 0.926109 9.44696 0.95062 9.42235L4.99586 5.37711L9.0411 9.42235C9.06561 9.44696 9.09474 9.46649 9.12682 9.47982C9.15889 9.49314 9.19329 9.5 9.22802 9.5C9.26276 9.5 9.29715 9.49314 9.32922 9.47982C9.3613 9.46649 9.39043 9.44696 9.41494 9.42235C9.46413 9.37257 9.49172 9.30541 9.49172 9.23543C9.49172 9.16545 9.46413 9.09829 9.41494 9.04851L5.3697 5.00327Z" fill="#191919"/>
</svg>
