<?xml version="1.0" encoding="utf-8"?>
<!-- Generator: Adobe Illustrator 23.0.5, SVG Export Plug-In . SVG Version: 6.00 Build 0)  -->
<svg version="1.1" id="Capa_1" xmlns="http://www.w3.org/2000/svg" xmlns:xlink="http://www.w3.org/1999/xlink" x="0px" y="0px"
	 viewBox="0 0 810.7 523" style="enable-background:new 0 0 810.7 523;" xml:space="preserve">
<style type="text/css">
	.st0{fill:none;}
	.st1{fill-rule:evenodd;clip-rule:evenodd;fill:#A9616D;stroke:#A9616D;}
	.st2{clip-path:url(#SVGID_2_);}
	.st3{fill:#FFFFFF;}
	.st4{clip-path:url(#SVGID_4_);}
	.st5{fill-rule:evenodd;clip-rule:evenodd;fill:#2D1E68;}
	.st6{fill:#2D1E68;}
	.st7{fill:#FFFFFF;filter:url(#Adobe_OpacityMaskFilter);}
	.st8{mask:url(#mask0_2287_18649_1_);}
	.st9{fill:#AF0B20;}
	.st10{fill:#870C1A;}
	.st11{fill:#221648;}
	.st12{fill:#C3121D;}
	.st13{fill:#171764;}
	.st14{fill:none;stroke:#D9D9D9;stroke-width:5;}
	.st15{clip-path:url(#SVGID_6_);}
	.st16{clip-path:url(#SVGID_8_);}
	.st17{fill:#FFFFFF;filter:url(#Adobe_OpacityMaskFilter_1_);}
	.st18{mask:url(#mask1_2287_18649_1_);}
	.st19{fill:#C6695D;}
	.st20{fill:#7A56CE;}
	.st21{fill:#4B1E8F;}
	.st22{fill:#8E86A5;}
	.st23{fill:#251750;}
	.st24{fill:#625781;}
	.st25{clip-path:url(#SVGID_10_);}
	.st26{clip-path:url(#SVGID_12_);}
	.st27{fill:#FFFFFF;filter:url(#Adobe_OpacityMaskFilter_2_);}
	.st28{mask:url(#mask2_2287_18649_1_);}
	.st29{fill:#BEBEBE;}
	.st30{opacity:0.8;}
	.st31{fill:#CED2E5;}
	.st32{fill:#9B0C1D;}
	.st33{fill:#FFFFFF;filter:url(#Adobe_OpacityMaskFilter_3_);}
	.st34{mask:url(#mask3_2287_18649_1_);}
	.st35{fill:#392A60;}
	.st36{fill:#FFFFFF;filter:url(#Adobe_OpacityMaskFilter_4_);}
	.st37{mask:url(#mask4_2287_18649_1_);}
	.st38{fill:#FFFFFF;filter:url(#Adobe_OpacityMaskFilter_5_);}
	.st39{mask:url(#mask5_2287_18649_1_);}
	.st40{fill:#FFFFFF;filter:url(#Adobe_OpacityMaskFilter_6_);}
	.st41{mask:url(#mask6_2287_18649_1_);}
	.st42{fill:#740C19;}
	.st43{fill:#FFFFFF;filter:url(#Adobe_OpacityMaskFilter_7_);}
	.st44{mask:url(#mask7_2287_18649_1_);}
	.st45{fill:#161960;}
	.st46{fill:#FFFFFF;filter:url(#Adobe_OpacityMaskFilter_8_);}
	.st47{mask:url(#mask8_2287_18649_1_);}
	.st48{fill:#E2E0E0;}
	.st49{fill:#FFFFFF;filter:url(#Adobe_OpacityMaskFilter_9_);}
	.st50{mask:url(#mask9_2287_18649_1_);}
	.st51{fill:#FFFFFF;filter:url(#Adobe_OpacityMaskFilter_10_);}
	.st52{mask:url(#mask10_2287_18649_1_);}
	.st53{fill:#FFFFFF;filter:url(#Adobe_OpacityMaskFilter_11_);}
	.st54{mask:url(#mask11_2287_18649_1_);}
	.st55{fill:#FFFFFF;filter:url(#Adobe_OpacityMaskFilter_12_);}
	.st56{mask:url(#mask12_2287_18649_1_);}
	.st57{fill:#FFFFFF;filter:url(#Adobe_OpacityMaskFilter_13_);}
	.st58{mask:url(#mask13_2287_18649_1_);}
	.st59{fill:#FFFFFF;filter:url(#Adobe_OpacityMaskFilter_14_);}
	.st60{mask:url(#mask14_2287_18649_1_);}
	.st61{fill:#026849;}
	.st62{fill:#AA9500;}
	.st63{fill:#0065FF;}
	.st64{fill:#A9616D;}
	.st65{fill:#0043AA;}
</style>
<rect x="-48.8" class="st0" width="1366" height="523"/>
<path class="st1" d="M572.6,254.9c6.2-1.5,9.2-8.1,11.7-14c2.4-5.5,4.1-11.5,1.8-17.1c-2.5-6-7.6-10.7-13.9-12.2
	c-6.5-1.6-13.7-0.3-18.6,4.3c-4.5,4.3-4.5,11-4.1,17.2c0.4,5.6,2.1,10.9,6.2,14.8C560.3,252.3,566.3,256.4,572.6,254.9z"/>
<g>
	<defs>
		<path id="SVGID_1_" d="M462.2,87L462.2,87c90.6,0,164,73.4,164,164l0,0c0,90.6-73.4,164-164,164l0,0c-90.6,0-164-73.4-164-164l0,0
			C298.2,160.4,371.6,87,462.2,87z"/>
	</defs>
	<clipPath id="SVGID_2_">
		<use xlink:href="#SVGID_1_"  style="overflow:visible;"/>
	</clipPath>
	<g class="st2">
		<path class="st3" d="M462.2,87L462.2,87c90.6,0,164,73.4,164,164l0,0c0,90.6-73.4,164-164,164l0,0c-90.6,0-164-73.4-164-164l0,0
			C298.2,160.4,371.6,87,462.2,87z"/>
		<g>
			<defs>
				<rect id="SVGID_3_" x="274.2" y="103" width="376" height="376"/>
			</defs>
			<clipPath id="SVGID_4_">
				<use xlink:href="#SVGID_3_"  style="overflow:visible;"/>
			</clipPath>
			<g class="st4">
				<path class="st3" d="M560.6,243.1c0,0-9.9-9.3-11-11.3c-6.1-7.6-18.4-18.6-11.9-18.9c5-0.8,9.9,7.3,13.9,6.9
					c4.1-0.4-0.1-32.8,2.7-38.3c2.8-5,6,18.1,6,18.1s-1.6-23.6,2.4-25.6c3.3-1.9,6,20.5,6,20.5s-0.9-18.2,3.1-19.7
					c4.6-1.7,4.6,22.8,4.6,22.8s1.9-18.7,5.1-18.2c3.1,0.3,0.7,19.5,2.1,31.2c1.4,11.7,1.6,16-2.8,25.5
					C576.8,246.2,560.6,243.1,560.6,243.1z"/>
				<path class="st5" d="M561.1,199.5l-0.8,0.1l-0.8,0.1l0-0.1l0-0.2c0-0.2-0.1-0.4-0.1-0.7c-0.1-0.6-0.2-1.5-0.4-2.5
					c-0.3-2.1-0.8-4.8-1.4-7.3c-0.6-2.6-1.2-4.9-1.9-6.3c-0.2-0.3-0.3-0.6-0.4-0.8c0-0.1-0.1-0.1-0.1-0.1c0,0.1-0.1,0.1-0.2,0.2
					c-0.3,0.6-0.5,1.5-0.7,2.9c-0.2,1.4-0.2,3.1-0.3,5c-0.1,3.2,0,6.9,0.1,10.7c0,0.7,0,1.4,0,2.1c0.1,4.4,0.2,8.7-0.1,11.9
					c-0.1,1.6-0.3,3-0.6,4c-0.2,0.5-0.3,1-0.6,1.3c-0.3,0.4-0.7,0.7-1.2,0.8c-1.3,0.1-2.5-0.4-3.7-1.1c-1-0.6-2-1.5-3.1-2.3
					c-0.2-0.1-0.3-0.2-0.4-0.4c-1.2-0.9-2.3-1.8-3.5-2.4c-1.1-0.6-2.2-0.9-3.2-0.7c0,0,0,0-0.1,0c-0.7,0-1,0.2-1,0.3
					c0,0.1-0.1,0.2,0,0.7c0.1,0.5,0.5,1.1,1,1.9c0.5,0.8,1.1,1.6,1.9,2.5c1.5,1.8,3.3,3.8,5.1,5.8c0.1,0.1,0.1,0.1,0.2,0.2
					c1.9,2.1,3.8,4.2,5.4,6.1c0,0,0,0.1,0.1,0.1c0.1,0.2,0.3,0.5,0.7,0.9c0.4,0.4,0.8,0.9,1.4,1.5c1.1,1.1,2.4,2.5,3.7,3.8
					c1.3,1.3,2.6,2.5,3.5,3.4c0.5,0.5,0.9,0.8,1.1,1.1l0.3,0.2c0.1,0,0.3,0,0.4,0.1c0.4,0.1,1.1,0.1,1.8,0.2c1.5,0.1,3.6,0.2,5.8,0
					c4.5-0.5,9.1-2.1,10.9-6.7l0,0c2.2-4.7,3.2-8.1,3.5-11.7c0.3-3.6-0.1-7.6-0.7-13.4c-0.6-4.9-0.5-11-0.4-16.5c0-1.2,0-2.4,0-3.5
					c0-3.2,0-5.9-0.3-7.9c-0.1-1-0.3-1.7-0.5-2.2c-0.2-0.4-0.3-0.5-0.3-0.5c0,0,0,0,0,0c0,0,0,0-0.1,0c-0.1,0-0.2,0.1-0.3,0.3
					c-0.3,0.4-0.6,1-0.9,1.8c-0.6,1.6-1.1,3.8-1.6,6.1c-0.4,2.3-0.8,4.6-1,6.3c-0.1,0.9-0.2,1.6-0.3,2.1c0,0.3,0,0.5-0.1,0.6l0,0.2
					l0,0l0,0l-0.8-0.1l-0.8,0v-0.1l0-0.2c0-0.2,0-0.4,0-0.8c0-0.7,0-1.6-0.1-2.7c-0.1-2.3-0.2-5.3-0.5-8.2c-0.3-2.9-0.7-5.8-1.3-7.8
					c-0.3-1-0.7-1.7-1-2.1c-0.2-0.2-0.3-0.3-0.4-0.3c-0.1,0-0.2,0-0.3,0c-0.2,0.1-0.6,0.4-0.9,0.9c-0.3,0.6-0.6,1.3-0.8,2.3
					c-0.5,1.9-0.7,4.2-0.9,6.6c-0.1,2.3-0.2,4.6-0.1,6.4c0,0.9,0,1.6,0,2.1c0,0.2,0,0.4,0,0.6l0,0.1l0,0v0l-0.8,0l-0.8,0.1l0,0l0,0
					l0-0.2c0-0.2,0-0.4-0.1-0.7c-0.1-0.6-0.2-1.5-0.3-2.5c-0.3-2.1-0.7-4.8-1.3-7.4c-0.5-2.7-1.2-5.2-1.9-7c-0.3-0.9-0.7-1.5-1-1.8
					c-0.1-0.1-0.2-0.2-0.2-0.2c0,0,0,0,0,0l0,0c-0.2,0.1-0.6,0.5-0.9,1.3c-0.3,0.8-0.6,1.8-0.8,3c-0.4,2.4-0.6,5.5-0.6,8.6
					c0,3.1,0,6.1,0.1,8.3c0,1.1,0.1,2,0.1,2.7c0,0.3,0,0.6,0,0.7L561.1,199.5L561.1,199.5L561.1,199.5L561.1,199.5z M568.7,194.5
					l-0.8,0.1c0,0.4,0.4,0.7,0.8,0.7c0.4,0,0.7-0.4,0.7-0.8L568.7,194.5z M568,184.8c0.1-2.3,0.4-4.6,0.9-6.4c0.2-1,0.6-1.9,1-2.6
					c0.4-0.7,0.9-1.4,1.7-1.6l0,0c0.4-0.2,0.9-0.2,1.3,0c0.4,0.1,0.8,0.4,1.1,0.7c0.6,0.6,1,1.6,1.3,2.6c0.7,2.1,1.1,5.1,1.4,8.1
					c0.1,1.1,0.2,2.1,0.3,3.2c0-0.2,0.1-0.3,0.1-0.5c0.4-2.3,1-4.7,1.7-6.4c0.3-0.9,0.7-1.6,1.1-2.2c0.4-0.5,1.1-1,1.9-0.9
					c0.8,0.1,1.3,0.8,1.5,1.4c0.3,0.7,0.4,1.6,0.6,2.6c0.2,2.1,0.3,4.9,0.3,8.1c0,1.1,0,2.3,0,3.5c-0.1,5.5-0.1,11.5,0.4,16.3
					c0.7,5.9,1.1,9.9,0.7,13.8c-0.3,3.8-1.4,7.4-3.6,12.2c-2.2,5.4-7.6,7.2-12.2,7.7c-2.3,0.2-4.5,0.2-6.1,0
					c-0.8-0.1-1.5-0.2-1.9-0.2c-0.2,0-0.4-0.1-0.5-0.1c-0.1,0-0.1,0-0.1,0l0,0l0,0h0c0,0,0,0,0.1-0.8l-0.5,0.6l-0.1-0.1l-0.3-0.3
					c-0.3-0.3-0.7-0.6-1.1-1.1c-0.9-0.9-2.2-2.1-3.5-3.4c-1.3-1.3-2.7-2.6-3.8-3.8c-0.5-0.6-1-1.1-1.4-1.6c-0.4-0.4-0.7-0.8-0.8-1.1
					c-1.5-1.9-3.4-3.9-5.3-6c-0.1-0.1-0.1-0.2-0.2-0.2c-1.8-2-3.7-4-5.2-5.9c-0.8-0.9-1.5-1.8-2-2.7c-0.5-0.8-0.9-1.6-1.1-2.3
					c-0.2-0.7-0.2-1.5,0.3-2.1c0.5-0.6,1.3-0.9,2.1-0.9c1.5-0.2,2.9,0.2,4.2,0.9c1.3,0.7,2.6,1.7,3.7,2.6c0.2,0.1,0.3,0.2,0.5,0.4
					c1,0.8,2,1.6,2.9,2.2c1.1,0.7,1.9,1,2.7,0.9c0,0,0.1,0,0.1-0.1c0.1-0.2,0.2-0.4,0.4-0.9c0.3-0.9,0.4-2.1,0.5-3.7
					c0.2-3.1,0.2-7.4,0.1-11.8c0-0.7,0-1.4,0-2.1c-0.1-3.7-0.2-7.5-0.1-10.7c0-1.9,0.1-3.7,0.3-5.1c0.2-1.4,0.4-2.6,0.8-3.5l0,0
					c0.2-0.4,0.5-0.7,0.8-0.9c0.4-0.2,0.8-0.3,1.2-0.1c0.4,0.2,0.6,0.4,0.9,0.7c0.2,0.3,0.4,0.6,0.6,1c0.7,1.5,1.4,4,2,6.6
					c0,0.1,0.1,0.3,0.1,0.4c0-0.5,0-0.9,0-1.4c0-3.1,0.2-6.3,0.6-8.8c0.2-1.3,0.5-2.4,0.9-3.3c0.4-0.9,0.9-1.7,1.6-2.1
					c0.4-0.2,0.8-0.3,1.2-0.1c0.4,0.1,0.7,0.4,1,0.6c0.5,0.5,0.9,1.4,1.3,2.3c0.7,1.9,1.4,4.6,1.9,7.3
					C567.8,183.8,567.9,184.3,568,184.8z M560.6,243.1l-0.5,0.6c0.1,0.1,0.2,0.2,0.4,0.2L560.6,243.1z M576.4,197.6l-0.8,0
					c0,0.4,0.3,0.8,0.7,0.8c0.4,0,0.8-0.3,0.8-0.7L576.4,197.6z M581.4,180.2C581.4,180.2,581.4,180.2,581.4,180.2L581.4,180.2z
					 M560.3,199.6l-0.8,0.1c0.1,0.4,0.4,0.7,0.9,0.7c0.4,0,0.7-0.4,0.7-0.8L560.3,199.6z"/>
				<path class="st6" d="M560.8,201.6c5.5-1.6,11.3-1.4,16.6,0.7c1.1,0.3,0.4,2.1-0.4,1.5c-5.1-2.4-10.4-2.5-16-0.9
					C560.1,203.8,559.8,202,560.8,201.6z"/>
				<path class="st6" d="M565.2,212.2c0,6.5,2.8,12.6,8,16.5c1,0.8,0,2-1,1.2c-5.5-4.4-8.8-11-8.9-18.2
					C563.1,211,564.6,211,565.2,212.2z"/>
				<defs>
					<filter id="Adobe_OpacityMaskFilter" filterUnits="userSpaceOnUse" x="289.8" y="127.7" width="299.7" height="431.2">
						<feColorMatrix  type="matrix" values="1 0 0 0 0  0 1 0 0 0  0 0 1 0 0  0 0 0 1 0"/>
					</filter>
				</defs>
				<mask maskUnits="userSpaceOnUse" x="289.8" y="127.7" width="299.7" height="431.2" id="mask0_2287_18649_1_">
					<path class="st7" d="M650.2,103h-376v376h376V103z"/>
				</mask>
				<g class="st8">
					<path class="st9" d="M477.9,270C477.7,269.8,477.7,269.8,477.9,270l0.6,0.4l1,0.5c0.4,0.1,0.6,0.4,1,0.5s0.6,0.4,1,0.5
						c1.3,1.1,2.7,1.7,4.1,2.8c2.7,1.7,5.9,3.5,8.7,5.2c3,1.5,5.8,3.2,8.9,4.3c1.4,0.6,2.9,1.3,4.6,1.7c1.4,0.6,2.9,1.3,4.6,1.7
						c2.9,1.3,6.1,1.9,9.3,3.1c0.9,0.2,1.3,0.4,2.6,0.7c0.9,0.2,1.3,0.4,2.6,0.7c1.6,0.2,3,0.8,4.7,1.3c2.8,0.6,6.1,1.2,9.5,1.5
						c3.1,0.4,6.1,0.5,9.3,0.5c0.9,0.2,1.4-0.1,2.3,0.2l2.1-0.1l1.1,0.1l0.4,0.1l-0.3,0.2l-0.3,0.2c-0.3,0.2-0.7,0-0.7,0
						c-1.1-0.1-2.2,0.5-3.3,1.1c-0.3,0.2-0.5,0.3-0.5,0.3l-0.3,0.2l-0.3,0.2c-0.3,0.2-0.5,0.3-0.5,0.3c-0.3,0.2-0.3,0.2-0.5,0.3
						l-0.3,0.2c0,0,0,0-0.3,0.2l-0.3,0.2c-0.1,0.4,0.3-0.2,0.2-0.9c0.2-0.9,0.8-1.9,1-2.7c0.2-0.9,0.7-2.6,0.9-4.1
						c0.6-2.8,1-5.9,1.2-9.3c0.3-3.4,0.5-6.8,0.6-10.4c0.1-3.7,0.1-6.9,0.2-10.5c0.1-3.7-0.1-7.2-0.2-10.7c-0.2-1.7,0.1-3.7-0.1-5.3
						l-0.4-5.2l33.3-4l0.2,1.7l0.2,1.7l0.6,2.9c0.4,1.9,0.5,4,1.1,5.8c0.5,4,1,8.1,1.3,11.9c0,3.9,0.7,8.2,0.7,12.2
						c0.1,2.1,0,3.9,0.1,6c0.1,2.1,0.1,3.9-0.1,6.2c-0.2,4.1-0.4,8.9-1.2,13.2c-0.4,2.4-0.6,4.7-1.3,7.2c-0.7,2.6-1.2,5-2.4,7.8
						c-1,2.7-2.3,5.6-4.6,9.1l-0.4,0.6c-0.3,0.2-0.4,0.6-0.4,0.6c0.3-0.2-0.3,0.2-0.8,0.5c-0.4,0.6-0.5,1-1.1,1.3l-0.4,0.6
						c-0.3,0.2-0.4,0.6-0.7,0.7c-0.4,0.6-0.9,0.9-1.3,1.5c-0.5,0.3-0.9,0.9-1.5,1.2c-0.3,0.2-0.5,0.3-0.8,0.5
						c-0.3,0.2-0.5,0.3-0.8,0.5c-0.5,0.3-1.4,0.8-1.6,0.9c-2.7,1.5-5.5,2.4-8.6,2.7c-0.7,0-1.4,0.1-1.9,0.4l-0.7,0l-1.4,0.1
						l-0.2-0.3l-1.7,0.2l-3.2,0c-1.1-0.1-2.1,0.1-3.2,0c-4.4-0.1-8.9-0.4-13.1-0.9c-4.2-0.5-8.6-1.3-12.7-2.2
						c-4.1-0.9-8.4-2.1-12.5-3l-3-0.8c-0.9-0.2-2.1-0.6-2.9-1.3c-0.9-0.2-2.1-0.6-2.9-1.3l-2.9-1.3c-7.9-3.1-15.5-7.1-22.6-11.4
						c-3.5-2.4-7.2-4.6-10.9-7.2c-1.5-1.3-3.5-2.4-5.1-4c-0.6-0.4-1-0.5-1.3-1.1c-0.6-0.4-1-0.5-1.3-1.1c-0.6-0.4-1-0.5-1.3-1.1
						l-1.5-1.3L477.9,270z"/>
					<path class="st6" d="M570.2,245.1c0.9,0.9,0.7,2.5-0.3,3.4c-0.9,0.9-2.5,0.7-3.1-0.4c-0.9-0.9-0.7-2.5,0.3-3.4
						C568.1,243.8,569.4,244.1,570.2,245.1z"/>
					<path class="st6" d="M563.3,307.6c-0.5,0.3-0.8,0.5-1.1-0.1c-6.4-4.3-13-11-13.2-11.3c-0.3-0.5-0.2-1-0.1-1.4
						c0.5-0.3,1-0.2,1.4-0.1c0,0,6.2,7.3,12.6,10.9C563.9,306.1,564,306.8,563.3,307.6C563.6,307.4,563.6,307.4,563.3,307.6z"/>
					<path class="st6" d="M553.9,306.8c-0.3,0.2-0.3,0.2-0.5,0.3c-0.5,0.3-0.9-0.2-1.2-0.8c-0.2-0.3-2.3-7.3-2.6-9.7
						c0-0.7,0.2-0.9,0.8-1.2c0.7,0,0.9,0.2,1.2,0.8c0.1,2.1,2.5,9,2.5,9C554.4,305.8,554.3,306.2,553.9,306.8z"/>
					<path class="st6" d="M588.9,254c-0.3,0.2-0.5,0.3-0.5,0.3c-11.8-0.6-34.8,2.7-35.1,2.8c-0.7,0-0.9-0.2-1.2-0.8
						c0-0.7,0.2-0.9,0.8-1.2c0.3-0.2,23.4-3.1,35.2-2.5c0.7,0,1,0.5,0.9,0.9L588.9,254z"/>
					<path class="st6" d="M578,254.4c-0.3,0.2-0.5,0.3-0.5,0.3c-0.7,0-0.9-0.2-1.2-0.8l-1.2-15.5c0-0.7,0.2-0.9,0.8-1.2
						c0.7,0,0.9,0.2,1.2,0.8l1.2,15.5C578.1,254,578.1,254,578,254.4z"/>
					<path class="st10" d="M343.1,433.3c0.3,3.8,0.6,7.5,0.9,11.3c2.2,19.1,9.4,82.4,15.4,100.3c21.9,11.3,46.4,15.4,69.2,13.8
						c4.4-0.3,8.8-0.9,13.2-1.6c3.8-0.6,7.5-1.3,11.3-2.2c23.8-5.3,44.8-16.6,58-30.4c-6.6-26.6-14.4-74.9-17.2-95.3
						c-0.6-3.8-0.9-7.5-1.3-11.3c-0.3-3.4-0.6-7.2-0.9-10.7c-0.3-3.8-0.6-7.5-0.9-11.3c-0.3-4.1-0.6-7.8-0.6-11.3
						c-0.3-4.1-0.3-7.8-0.3-11.3c-1.6-49.8,6.3-74.6,4.1-86.5c-3.4-18.2-18.5-17.5-32-23.2c-0.9-0.3-1.6-0.6-2.5-0.9
						c-0.6-0.3-0.9-0.6-1.6-0.6c-4.7-2.2-9.1-6-12.5-11.6l-40.1,0.6c0,0-3.4,3.1-9.1,6.3c-0.6,0.3-1.3,0.6-1.6,0.9
						c-1.6,0.6-3.1,1.3-4.7,2.5c-4.1,1.9-9.1,3.4-14.7,4.7c-17.9,3.1-27.9,24.8-29.5,58.9c-0.6,17.5-1.6,33.8-1.9,49.5
						c0,0.9,0,2.2,0,3.1C342.1,396.3,342.1,414.8,343.1,433.3z"/>
					<path class="st6" d="M448.1,457.4l-7.5,18.5l-3.1,8.1l-9.7,23.5l-4.7-9.1l-1.6-3.1l-3.8-7.2l-1.6-3.1l-3.8-7.2l-1.6-3.1
						l-3.8-7.5l-1.9-3.1l-3.4-6.9v-0.6l0.6-5.3l1.6-12.5l0.3-5.3l1.3-12.2l0.3-5.6l1.6-12.2l0.3-5.3l1.3-12.2l0.3-5.3l1.6-12.2
						l0.3-5.3l1.3-12.5l0.6-5.3l1.3-12.2l0.6-5.6l0.9-12.2l0.6-5.3l0.6-6l0.3-6.9l9.7-0.3v2.2l0.6,4.4l0.3,0.9l0.9,8.8l0.6,4.4
						l1.3,9.4l0.6,4.4l1.3,9.7l0.3,4.4l1.6,10l0.6,4.1l0.9,9.7l0.6,4.1l1.6,10l0.6,4.1l0.9,10l0.6,4.4l1.6,9.4l0.3,4.4l1.3,9.7
						l0.6,4.4l1.6,9.4l0.3,4.7l1.3,9.4l0.6,4.4V457.4z"/>
					<path class="st11" d="M428,303.8l-5.6,10l-5.3-10.3l0.3-6.9l9.7-0.3v2.2l0.6,4.4L428,303.8z"/>
					<path class="st12" d="M343.1,432.6c0.3,3.8,0.6,7.5,0.9,11.3c2.2,19.1,9.1,82.7,15.7,100.3c23.8,11.6,34.2,15.7,59.5,14.1
						l13.2-21.6l13.2,18.2c26.3-5,49.5-16,63.9-29.8c-2.5-9.4-5-22.2-7.5-35.1c-0.6-3.1-0.9-6.3-1.6-9.4
						c-3.8-19.7-6.9-39.5-8.5-51.1c-0.6-3.8-0.9-7.5-1.3-11.3c-0.3-3.4-0.6-7.2-0.9-10.7c-0.3-3.8-0.6-7.5-0.9-11.3
						c-0.3-4.1-0.6-7.8-0.6-11.3c-0.3-4.1-0.3-7.8-0.3-11.3c-0.9-49.8,7.8-74.3,5.3-86.5c-3.4-18.2-20.1-17.9-34.8-23.5
						c-0.3,0-0.3,0.3-0.6,0.3l-33.2,147l-44.8-150.4c0,0-0.3,0-0.6-0.3c-4.4,1.6-10,3.4-16.3,4.4c-19.7,3.1-18.5,22.9-20.7,57
						c-0.9,17.5,1.6,36,0.9,51.7c0,0.9,0,2.2,0,3.1C342.1,396,341.8,414.5,343.1,432.6z"/>
					<path class="st9" d="M457.5,264.7c0,0,11.3-6.3,19.7,5.3l-7.2,48.3l-16.3,10l11.3,6.9L452.1,391L424.6,411L457.5,264.7z"/>
					<path class="st9" d="M386.3,260.3c0,0-11.9-7.8-20.4,3.8l10.3,54.2l16.6,10l-11.3,6.6l12.5,55.8l30.4,20.1L386.3,260.3z"/>
					<path class="st6" d="M486.3,375.9c0.9,0.6,2.5,0.3,2.5-0.9c0-11,0.3-22.9,1.3-35.1c0-0.6,0-0.9,0-1.3c0-0.6-0.6-1.3-1.3-1.3
						c-0.6,0-1.3,0.6-1.3,1.3c0,0.3,0,0.6,0,1.3c-0.6,12.2-1.3,24.1-1.3,35.1C485.7,375.3,486,375.6,486.3,375.9
						C486,375.9,486,375.9,486.3,375.9z"/>
					<path class="st6" d="M391.7,199.2c0,0-10-7.2-12.2-18.8c-2.2-10.3,6.3-10.3,6.3-10.3s-6.9-11-2.8-19.1
						c5-10.3,15.4-8.1,15.4-8.1s-2.8-16.3,22.9-15c25.7,1.3,40.7,2.5,44.8,13.8c4.1,11.3-6.3,14.4-6.3,14.4s10.3,6.6,5,12.8
						c-5,6.6-11.3,4.7-11.3,4.7L391.7,199.2z"/>
					<path class="st3" d="M443,194.8c0,0,3.1-11.9,12.8-10c9.4,2.5,11.6,34.5-6.9,34.5L443,194.8z"/>
					<path class="st5" d="M443.9,194.8l5.8,23.6c4-0.2,6.9-2,9-4.7c2.1-2.9,3.3-6.8,3.6-10.9c0.3-4.1-0.3-8.2-1.5-11.4
						c-1.2-3.3-3-5.4-4.9-6c-4.4-0.8-7.4,1.4-9.3,4c-0.9,1.3-1.6,2.7-2,3.7c-0.2,0.5-0.4,1-0.5,1.3
						C443.9,194.7,443.9,194.7,443.9,194.8z M445.2,188.6c2.1-2.9,5.6-5.6,10.8-4.6c0,0,0,0,0.1,0c2.7,0.7,4.8,3.5,6,6.9
						c1.3,3.5,1.9,7.8,1.6,12.1c-0.3,4.2-1.5,8.5-3.9,11.7c-2.4,3.2-5.9,5.4-10.8,5.4c-0.4,0-0.7-0.2-0.8-0.6l-6-24.4
						c0-0.1,0-0.3,0-0.4l0.8,0.2c-0.8-0.2-0.8-0.2-0.8-0.2v0l0,0l0,0l0,0l0-0.1c0-0.1,0.1-0.2,0.1-0.4c0.1-0.3,0.3-0.8,0.5-1.4
						C443.4,191.6,444.1,190.1,445.2,188.6z"/>
					<path class="st3" d="M397.3,254.3c0,0-2.5,4.1,15.4,9.1c9.1,2.8,20.7,0,26.3-3.4c2.5-1.3,3.8-2.5,3.8-2.5
						c-2.8-13.8-0.6-22.6,0-24.4c0-0.3,0-0.3,0-0.3l-46.4-22.9L397.3,254.3z"/>
					<path class="st5" d="M395.9,209.2c0.2-0.1,0.5-0.2,0.8,0l46.4,22.9l-0.3,0.7c-0.8,0,0,0,0.8,0v0.3c0,0.1,0,0.2,0,0.2
						c-0.6,1.8-2.8,10.4,0,24c0.1,0.3,0,0.5-0.2,0.7l-0.6-0.6c0.6,0.6,0.6,0.6,0.6,0.6l0,0l0,0l0,0l-0.1,0.1c0,0-0.1,0.1-0.2,0.2
						c-0.2,0.1-0.4,0.4-0.8,0.6c-0.7,0.5-1.6,1.1-2.9,1.8c-2.9,1.8-7.3,3.4-12.1,4.2c-4.8,0.8-10.1,0.8-14.8-0.6
						c-8.9-2.5-13-4.8-14.7-6.6c-0.9-0.9-1.2-1.7-1.3-2.4c0-0.3,0-0.6,0.1-0.8c0,0,0-0.1,0-0.1l-0.9-44.3
						C395.6,209.6,395.7,209.3,395.9,209.2z M398,254.7C398,254.7,398,254.7,398,254.7c0,0.1,0,0.1,0,0.3c0,0.2,0.2,0.8,0.9,1.5
						c1.5,1.5,5.1,3.7,14,6.2l0,0c4.4,1.4,9.4,1.4,14.1,0.6c4.7-0.8,8.9-2.3,11.6-4c0,0,0,0,0.1,0c1.2-0.6,2.1-1.2,2.7-1.6
						c0.2-0.2,0.4-0.3,0.6-0.4c-2.6-12.9-0.8-21.5,0-24l-44.7-22l0.9,43.2C398.1,254.5,398,254.6,398,254.7z"/>
					<path class="st3" d="M421.1,244c19.1,3.4,34.2-4.7,35.7-21.6c0.3-4.1,0.6-10,0.6-15.7c0,0,0,0,0-0.3c0-1.3,0-2.8,0-3.8
						s0-1.6,0-2.8c0-11-0.6-20.4-0.6-20.4c-3.1-26.6-29.1-36.7-49.8-26c-20.7,10.3-12.2,42.6-12.2,58.6
						C395.4,228,404.8,240.9,421.1,244z"/>
					<path class="st3" d="M421.1,244c19.1,3.4,34.2-4.7,35.7-21.6c0.3-4.1,0.6-10,0.6-15.7c0,0,0,0,0-0.3c0-1.3,0-2.8,0-3.8
						s0-1.6,0-2.8c0-11-0.6-20.4-0.6-20.4c-3.1-26.6-29.1-36.7-49.8-26c-20.7,10.3-12.2,42.6-12.2,58.6c0,7.2,2.2,13.8,6,19.1"/>
					<path class="st5" d="M438.8,151.8c9.7,4.6,17.2,14,18.8,27.6l0,0l0,0.1l0,0.3c0,0.3,0,0.7,0.1,1.2c0.1,1.1,0.1,2.6,0.2,4.4
						c0.2,3.7,0.3,8.8,0.3,14.3v6.9c0,5.7-0.3,11.6-0.6,15.7l0,0c-0.8,8.7-5.1,15.2-11.7,19.1c-6.5,3.8-15.3,5-25,3.3
						c-0.4-0.1-0.7-0.5-0.6-0.9c0.1-0.4,0.5-0.7,0.9-0.6c9.4,1.7,17.8,0.5,23.9-3.1c6.1-3.6,10.1-9.6,10.9-17.8
						c0.3-4.1,0.6-10,0.6-15.6v-6.9c0-5.5-0.2-10.5-0.3-14.3c-0.1-1.9-0.2-3.4-0.2-4.4c0-0.5-0.1-0.9-0.1-1.2l0-0.3l0-0.1v0
						c-1.5-13-8.7-22-17.9-26.3c-9.2-4.4-20.7-4.3-30.8,1l0,0c-9.9,5-13,15.2-13.4,26.5c-0.2,5.6,0.2,11.4,0.6,16.9
						c0.1,1,0.2,1.9,0.3,2.9c0.4,4.3,0.7,8.3,0.7,11.6c0,7,2.1,13.5,5.8,18.7c0.2,0.4,0.2,0.8-0.2,1.1c-0.4,0.2-0.8,0.2-1.1-0.2
						c-3.9-5.5-6.1-12.2-6.1-19.6c0-3.2-0.4-7.1-0.7-11.5c-0.1-1-0.2-1.9-0.3-2.9c-0.5-5.4-0.9-11.3-0.6-17.1
						c0.5-11.4,3.6-22.5,14.3-27.8C417.2,147.3,429.1,147.1,438.8,151.8z"/>
					<path class="st6" d="M424.9,212c0,0,2.8,8.8,10,10.3c8.1,1.6,10-8.5,10-8.5L424.9,212z"/>
					<path class="st6" d="M419.9,186c-5.3,0.9-6.9-4.7-2.2-7.8c2.5-1.3,4.7-2.8,7.2-2.8c7.2,0,7.2,5,3.8,7.2
						C427.1,183.8,423,185.1,419.9,186z"/>
					<path class="st6" d="M450.6,183.2c5.3,0.3,6.6-5.3,0.9-7.8c-2.5-0.9-4.7-2.2-7.5-1.6c-7.2,0.6-6.9,6-2.8,7.5
						C443,181.6,447.4,182.9,450.6,183.2z"/>
					<path class="st6" d="M453.7,205.5c-6.6,1.3-12.5-3.1-14.1-9.4c-1.3-6.6,3.1-12.8,9.1-14.1c6.6-1.3,12.5,3.1,14.1,9.4
						C464.7,197.9,460.3,203.9,453.7,205.5z M449.6,183.5c-5.3,0.9-9.1,6.6-7.8,11.9c0.9,5.3,6.6,9.1,11.9,8.1
						c5.3-0.9,9.1-6.6,7.8-11.9C460.6,186,454.9,182.6,449.6,183.5z"/>
					<path class="st6" d="M439.6,208.3h0.3c4.4-3.1,5-4.4,5-4.7s0-0.6,0-0.6l-6.3-9.4c-1.3-1.6-1.6-4.7-1.6-8.8
						c0-0.3-0.3-0.6-0.9-0.6c-0.3,0-0.6,0.3-0.6,0.9c0.3,4.1,0.3,7.8,2.2,10l6,8.8c-0.3,0.6-1.6,1.6-4.4,3.8
						c-0.3,0.3-0.3,0.6-0.3,1.3C439,208.3,439.3,208.3,439.6,208.3z"/>
					<path class="st6" d="M425.8,206.1c-6.6,1.3-12.5-3.1-14.1-9.4c-1.3-6.6,3.1-12.8,9.1-14.1c6.6-1.3,12.5,3.1,14.1,9.4
						C436.1,198.6,431.8,205.1,425.8,206.1z M421.1,184.2c-5.3,0.9-9.1,6.6-7.8,11.9c0.9,5.3,6.6,9.1,11.9,8.1
						c5.3-0.9,9.1-6.6,7.8-11.9C432.1,187,426.7,183.2,421.1,184.2z"/>
					<path class="st6" d="M440.5,194.5c-0.3,0-0.9-0.3-0.9-0.6c0,0-0.3-2.5-2.2-2.2c-1.6,0-2.5,2.2-2.5,2.2c0,0.3-0.6,0.6-0.9,0.6
						c-0.3,0-0.6-0.6-0.6-0.9c0,0,0.9-3.1,4.1-3.4c2.5,0,3.8,2.5,3.8,3.8C441.5,194.2,441.2,194.5,440.5,194.5z"/>
					<path class="st6" d="M412.6,192.9c-0.3,0-0.6,0-0.9-0.3c-4.7-8.5-13.2-4.4-14.1-4.1c-0.3,0.3-0.9,0-0.9-0.3
						c-0.3-0.3,0-0.9,0.3-0.9c0,0,10.7-5,16,4.7C413.3,192,413.3,192.6,412.6,192.9z"/>
					<path class="st6" d="M457.1,181c0.6-5.3,0.9-15.7-7.8-26.3c-13.2-15.4-39.8-14.7-50.8,0.9c-10.7,15.7-5.3,29.5-5.3,29.5
						s4.4,1.6,6.6,10.3l6-0.3c0,0,2.2-7.2,0-18.8c-2.5-11.6,18.2-23.5,31.6-20.7c13.8,2.8,18.2,15.4,18.2,15.4
						S457.1,175.7,457.1,181z"/>
					<path class="st6" d="M412.6,162.2c0,0,9.4-3.8,14.4-2.2c4.7,1.6,11.3,4.4,16.3,0.6c5-3.8,11,7.2,11,7.2s-6.6-19.4-22.6-15.4
						C416.1,156.9,416.1,155.3,412.6,162.2z"/>
					<path class="st3" d="M398.9,190.1c0,0-5.3-8.8-14.4-4.4c-8.8,4.4-3.4,36,14.4,32V190.1z"/>
					<path class="st3" d="M398.9,190.1c0,0-5.3-8.8-14.4-4.4c-8.8,4.4-3.4,36,14.4,32"/>
					<path class="st5" d="M399.5,189.7c0,0,0,0-0.7,0.4L399.5,189.7c0.2,0.4,0.1,0.9-0.3,1.1c-0.4,0.2-0.9,0.1-1.1-0.3c0,0,0,0,0,0
						l0,0v0l0,0l0,0l0-0.1c0-0.1-0.1-0.1-0.2-0.2c-0.2-0.2-0.4-0.5-0.7-0.9c-0.6-0.7-1.5-1.6-2.7-2.4c-2.3-1.5-5.6-2.5-9.8-0.5
						c-1.8,0.9-3.1,3.4-3.5,6.8c-0.4,3.4-0.1,7.5,1.2,11.4c1.2,3.9,3.2,7.4,5.9,9.8c2.7,2.3,6.1,3.4,10.3,2.5
						c0.4-0.1,0.8,0.2,0.9,0.6s-0.2,0.8-0.6,0.9c-4.7,1.1-8.7-0.2-11.7-2.8c-3-2.6-5.1-6.4-6.4-10.5c-1.3-4.1-1.7-8.4-1.2-12.1
						c0.5-3.6,1.8-6.7,4.4-8l0,0v0c4.8-2.3,8.7-1.2,11.4,0.6c1.3,0.9,2.3,1.9,3,2.7c0.3,0.4,0.6,0.7,0.8,1c0.1,0.1,0.2,0.2,0.2,0.3
						C399.5,189.6,399.5,189.6,399.5,189.7L399.5,189.7L399.5,189.7L399.5,189.7L399.5,189.7z"/>
					<path class="st6" d="M394.5,206.4C395.1,206.4,395.1,206.4,394.5,206.4c0.6-0.3,0.9-0.6,0.6-0.9c0-0.3-3.1-9.4-11.3-11
						c-0.3,0-0.9,0.3-0.9,0.6c0,0.3,0.3,0.9,0.6,0.9c7.2,0.9,10,9.4,10,9.4C393.8,206.1,394.2,206.4,394.5,206.4z"/>
					<path class="st6" d="M387,203.6c0.3,0,0.3,0,0.6-0.3c0,0,1.6-1.6,3.4-3.8c0.3-0.3,0.3-0.9,0-1.3c-0.3-0.3-0.9-0.3-1.3,0
						c-2.2,2.2-3.4,3.8-3.8,3.8c-0.3,0.3-0.3,0.9,0,1.3C386.6,203.3,386.6,203.6,387,203.6z"/>
					<path class="st13" d="M422.4,194.2c0,2.2,0.9,3.4,2.2,3.4c1.3,0,2.2-1.6,2.2-3.4c0-2.2-0.9-3.4-2.2-3.4
						C423,190.7,422.4,192.3,422.4,194.2z"/>
					<path class="st13" d="M444.3,194.2c0,2.2,0.9,3.4,2.2,3.4c1.3,0,2.2-1.6,2.2-3.4c0-2.2-0.9-3.4-2.2-3.4
						C445.2,190.7,444.3,192.3,444.3,194.2z"/>
					<path class="st12" d="M396.7,243.4c0,0-6.6,2.2-10.3,16.9c4.4,13.8,17.5,25.4,35.7,28.5v-26.9
						C422.4,261.9,406.1,257.8,396.7,243.4z"/>
					<path class="st12" d="M442.1,246.8c0,0,11,2.5,15.4,17.9c-11.6,14.7-18.2,20.1-35.1,24.4v-26.9
						C422.4,261.9,432.4,261.9,442.1,246.8z"/>
					<path class="st6" d="M409.8,285l12.5,18.5L434,285l-11.6-15.7L409.8,285z"/>
					<path class="st6" d="M447.1,303.8c0.3,0,0.6,0,0.9-0.3c0.6-0.3,0.6-1.3,0.3-2.2l-24.8-33.2c-0.3-0.3-0.6-0.6-0.9-0.6
						c-0.3,0-0.6,0-0.9,0.3l-24.4,28.5c-0.6,0.6-0.3,1.3,0,2.2c0.6,0.6,1.3,0.3,2.2,0l23.5-27.3l23.5,32
						C446.2,303.8,446.8,303.8,447.1,303.8z"/>
					<path class="st6" d="M422.4,270.9c0.6,0,1.3-0.6,1.3-1.3v-6.3c0-0.6-0.6-1.3-1.3-1.3c-0.6,0-1.3,0.6-1.3,1.3v6.3
						C420.8,270.6,421.4,270.9,422.4,270.9z"/>
					<path class="st12" d="M353.1,268.1l-0.9,0.6l-0.6,0.6l-1.6,1.3c-0.9,0.6-1.9,1.9-2.8,2.5c-1.9,1.9-3.8,3.4-5.3,5.3
						c-3.4,3.4-6.6,7.2-10,10.7c-6.6,7.5-12.5,15-17.5,23.5c-5.3,8.1-10,17.2-14.1,26.3c-1.9,4.7-4.1,9.1-5.3,14.1
						c-0.6,2.5-1.6,4.7-2.2,7.2c-0.3,1.3-0.6,2.5-0.9,3.8l-0.3,0.9v0.6l-0.3,0.9c-0.6,1.9-0.6,3.1-0.6,4.4c-0.6,1.6-0.6,2.8-0.6,3.8
						c0,1.3,0,2.2,0.3,3.1c0.3,1.9,0.6,3.8,0.6,5.3c0.6,3.1,1.6,6.3,2.5,8.8c0.9,3.1,1.9,5.6,2.8,7.8c0.9,2.5,1.9,4.7,2.8,6.9
						c2.2,4.4,4.1,8.8,6.6,12.8c2.2,4.1,4.7,8.1,6.9,12.2c4.7,7.8,9.7,15.7,14.7,23.2c2.5,3.8,5.3,7.5,7.8,11.3
						c1.3,1.9,2.8,3.8,4.1,5.3l1.9,2.8l1.9,2.8l27.6-19.7l-1.9-2.8l-1.9-2.8l-3.4-5.3c-2.2-3.8-4.4-7.5-6.6-11.3
						c-4.1-7.5-8.5-14.7-12.5-22.6c-1.9-3.8-3.8-7.5-5.6-11.3s-3.4-7.5-5-11.3s-2.8-7.2-3.8-10.3c-0.6-1.6-0.6-2.8-0.9-4.1
						c0-0.6,0-0.9,0-1.3c0,0,0,0.3,0,0.6c0,0.3,0,0.6-0.3,1.3l0.3-0.6c0.3-0.9,0.6-1.9,0.9-2.8c0.6-1.9,1.3-3.4,1.9-5.3
						c1.6-3.4,2.8-6.9,4.7-10.3c3.4-6.9,7.5-13.8,11.9-20.1c2.2-3.1,4.4-6.6,6.9-9.4s5-6.3,7.8-8.8c2.8-2.8,5.3-5.6,8.1-8.5
						c1.6-1.3,2.8-2.8,4.1-4.1c0.6-0.6,1.6-1.3,1.9-1.9l0.9-0.6l0.6-0.6L353.1,268.1z"/>
					<path class="st6" d="M328.7,376.5c0.6,0,0.9-0.3,0.9-0.6c0.3-0.6-0.3-1.3-0.6-1.3c-0.3,0-8.8-1.9-16-2.2
						c-0.6,0-0.9,0.6-0.9,0.9c0,0.3,0.6,0.9,0.9,0.9C319.6,374.7,328.4,376.5,328.7,376.5z"/>
					<path class="st6" d="M328,376.5c0.3,0,0.6-0.3,0.6-0.6c0.3-0.6,0.3-0.9-0.3-1.6c-3.4-2.8-8.1-5.6-8.5-5.6
						c-0.6-0.3-1.3-0.3-1.6,0.3c-0.3,0.6-0.3,1.3,0.3,1.6c0,0,5,2.8,8.5,5.6C327.4,376.5,327.7,376.5,328,376.5z"/>
					<path class="st6" d="M340.9,352.4c0.3,0,0.6-0.3,0.6-0.6c0.3-0.3,18.5-29.1,30.4-39.5c0.6-0.6,0.6-0.9,0-1.6
						c-0.3-0.6-0.9-0.6-1.6,0c-12.2,10.7-30.1,38.5-30.7,39.8c-0.3,0.6-0.3,1.3,0.3,1.6C340.6,352.4,340.9,352.4,340.9,352.4z"/>
					<path class="st6" d="M365.3,319.2l8.8-1.6c0.6,0,0.9-0.6,0.6-1.3c0-0.6-0.6-0.9-1.3-0.9l-8.8,1.6c-0.6,0-0.9,0.6-0.6,1.3
						C364.4,318.6,364.7,319.2,365.3,319.2z"/>
				</g>
				<path class="st9" d="M386.3,260.3c0,0-11.9-7.8-20.4,3.8l10.3,54.2l16.6,10l-11.3,6.6l12.5,55.8l30.4,20.1L386.3,260.3z"/>
				<path class="st6" d="M368.5,458.9c1.3,0,2.2-0.9,1.6-2.2c-5.6-9.4-26.6-50.1-32.3-61.1c-0.3-0.6-0.6-0.9-0.6-1.3
					c-0.3-0.6-1.3-0.9-1.9-0.3c-0.6,0.6-0.9,1.3-0.3,1.9c0.3,0.3,0.3,0.6,0.6,1.3c6,11,26.3,52,32.3,61.1
					C367.5,458.6,367.8,458.6,368.5,458.9C368.2,458.9,368.2,458.9,368.5,458.9z"/>
			</g>
		</g>
	</g>
</g>
<path class="st14" d="M462.2,89.5L462.2,89.5c89.2,0,161.5,72.3,161.5,161.5l0,0c0,89.2-72.3,161.5-161.5,161.5l0,0
	c-89.2,0-161.5-72.3-161.5-161.5l0,0C300.7,161.8,373,89.5,462.2,89.5z"/>
<g>
	<defs>
		<path id="SVGID_5_" d="M193.7,34L193.7,34c57.7,0,104.5,46.8,104.5,104.5l0,0c0,57.7-46.8,104.5-104.5,104.5l0,0
			c-57.7,0-104.5-46.8-104.5-104.5l0,0C89.2,80.8,135.9,34,193.7,34z"/>
	</defs>
	<clipPath id="SVGID_6_">
		<use xlink:href="#SVGID_5_"  style="overflow:visible;"/>
	</clipPath>
	<g class="st15">
		<path class="st3" d="M193.7,34L193.7,34c57.7,0,104.5,46.8,104.5,104.5l0,0c0,57.7-46.8,104.5-104.5,104.5l0,0
			c-57.7,0-104.5-46.8-104.5-104.5l0,0C89.2,80.8,135.9,34,193.7,34z"/>
		<g>
			<defs>
				<rect id="SVGID_7_" x="91.2" y="59" width="205" height="205"/>
			</defs>
			<clipPath id="SVGID_8_">
				<use xlink:href="#SVGID_7_"  style="overflow:visible;"/>
			</clipPath>
			<g class="st16">
				<defs>
					<filter id="Adobe_OpacityMaskFilter_1_" filterUnits="userSpaceOnUse" x="117.3" y="71.8" width="170.8" height="282.2">
						<feColorMatrix  type="matrix" values="1 0 0 0 0  0 1 0 0 0  0 0 1 0 0  0 0 0 1 0"/>
					</filter>
				</defs>
				<mask maskUnits="userSpaceOnUse" x="117.3" y="71.8" width="170.8" height="282.2" id="mask1_2287_18649_1_">
					<path class="st17" d="M296.2,59h-205v205h205V59z"/>
				</mask>
				<g class="st18">
					<path class="st6" d="M190.6,137.6c-15.9,2.9-31.6,7.5-48.5,0c0-3.6-0.5-7.5-1.7-12.3c-2.4-9.4-5.6-36.4,13.8-40.8
						c19.6-4.8,35.9,7.2,33,25.3C185.8,117.8,188.2,128.2,190.6,137.6z"/>
					<path class="st3" d="M200,154.5l1.2,2.9l1.2,2.9l2.2,6c1.5,3.9,3.1,7.9,4.6,11.8c0.7,1.9,1.5,3.9,2.4,5.8
						c0.9,1.9,1.5,3.8,2.4,5.6c0.9,1.9,1.7,3.8,2.4,5.5c0.9,1.7,1.7,3.4,2.6,5c0.3,0.7,0.9,1.4,1.2,1.9l0.2,0.2c0,0,0,0.2,0.2,0.2
						c0,0.2,0.2,0.2,0.2,0.2l-0.2-0.2c-0.2-0.2-0.2-0.2-0.3-0.2s-0.2-0.2-0.3-0.2c-0.2,0-0.2-0.2-0.2-0.2c-0.3-0.2-0.5-0.3-0.7-0.3
						c-0.3-0.2-0.3,0-0.2,0c0.2,0,0.3,0,0.5,0.2c0.5,0,1.4,0.2,2,0c1.7,0,3.6-0.2,5.5-0.5c1.9-0.3,3.9-0.7,6-1
						c3.9-0.9,8-1.7,12.1-2.7c2-0.5,4.1-1,6.1-1.5l6.1-1.5c2.9-0.7,5.8,1,6.5,3.9c0.5,2.4-0.5,4.8-2.6,6c-0.5,0.3-1,0.5-1.5,0.9
						l-1.5,0.9l-2.9,1.5c-2,1-3.9,1.9-6,2.7c-4.1,1.7-8.2,3.4-12.5,4.8c-2.2,0.7-4.3,1.4-6.7,2.1c-2.2,0.5-4.6,1.2-7.3,1.5
						c-1.4,0.2-2.7,0.3-4.3,0.3c-0.9,0-1.7,0-2.6-0.2c-1-0.2-2.1-0.3-3.4-0.9c-0.7-0.2-1.4-0.5-2-1c-0.2-0.2-0.3-0.2-0.5-0.3
						c-0.2-0.2-0.3-0.3-0.5-0.5c-0.2-0.2-0.3-0.3-0.7-0.5l-0.3-0.3l-0.2-0.2c-0.3-0.3-0.7-0.7-1-1c-0.2-0.2-0.3-0.3-0.3-0.5
						l-0.3-0.5c-1-1.2-1.9-2.2-2.6-3.4c-1.5-2.2-2.6-4.3-3.8-6.3c-1.2-2-2.2-4.1-3.1-6.1c-1-2.1-1.9-4.1-2.7-6.1
						c-0.9-2.1-1.7-4.1-2.6-6.2c-1.7-4.1-3.2-8.2-4.6-12.3c-0.7-2-1.5-4.1-2.1-6.1c-0.3-1-0.7-2.1-1-3.1l-0.5-1.5
						c-0.2-0.5-0.3-1-0.5-1.5c-1.4-5,1.4-9.9,6.3-11.4C193.5,147.5,198.3,149.9,200,154.5z"/>
					<path class="st5" d="M189.5,148.9c-4.7,1.5-7.3,6.2-6,10.9l1,3.1l1,3.1c0,0,0,0,0,0c0.3,1.3,0.8,2.7,1.3,4
						c0.2,0.7,0.5,1.4,0.7,2.1c1.4,4.1,2.9,8.2,4.6,12.3l2.6,6.2c0.9,2.1,1.7,4.1,2.7,6.1c0,0,0,0,0,0c0.8,2,1.9,4.1,3,6.1
						c0.4,0.6,0.7,1.2,1,1.8c0.8,1.5,1.6,2.9,2.7,4.5c0,0,0,0,0,0c0.7,1.2,1.5,2.2,2.5,3.4c0,0,0,0,0,0l0.3,0.5
						c0,0.1,0.1,0.1,0.1,0.2c0,0,0,0,0,0c0,0.1,0.1,0.1,0.2,0.2l0,0l0,0l0,0l0,0l0,0l0,0l0,0l0,0l0,0l0,0l0,0l0,0l0,0l0,0l0,0l0,0
						l0,0l0,0l0,0l0,0l0,0l0,0l0,0l0,0l0,0l0,0l0,0l0,0l0,0l0,0l0,0l0,0l0,0l0,0l0,0l0,0l0,0l0,0l0,0l0,0l0,0l0,0l0,0l0,0l0,0l0,0
						l0,0l0,0l0,0l0,0l0,0l0,0l0,0l0,0l0,0l0,0l0,0l0,0l0,0l0,0l0,0l0,0l0,0l0,0l0,0l0,0l0,0l0,0l0,0l0,0l0,0l0,0l0,0l0,0l0,0l0,0
						l0,0l0,0l0,0l0,0l0,0l0,0l0,0l0,0l0,0l0,0l0,0l0,0l0,0l0,0l0,0l0,0l0,0l0,0l0,0l0,0l0,0l0,0l0,0l0,0l0,0l0,0l0,0l0,0l0,0l0,0
						l0,0l0,0l0,0l0,0l0,0l0,0l0,0l0,0l0,0l0,0l0,0l0,0l0,0l0,0l0,0l0,0l0,0l0,0l0,0l0,0l0,0l0,0l0,0l0.5,0.5
						c0.4,0.2,0.6,0.4,0.7,0.6l0,0l0.5,0.5c0,0,0.1,0,0.1,0.1l0,0c0.1,0,0.2,0.1,0.3,0.2c0.6,0.5,1.3,0.8,1.9,0.9c0,0,0,0,0,0
						c1.3,0.5,2.3,0.7,3.3,0.8l0,0c0.8,0.2,1.6,0.2,2.5,0.2c1.5,0,2.8-0.2,4.2-0.3c2.1-0.3,3.9-0.7,5.7-1.1c0.5-0.1,1.1-0.3,1.6-0.4
						c1.6-0.5,3-0.9,4.4-1.4c0.7-0.2,1.4-0.5,2.2-0.7c4.2-1.4,8.3-3.1,12.4-4.8c2-0.9,3.9-1.7,5.9-2.7l2.9-1.5l0,0l1.5-0.8
						c0.3-0.2,0.5-0.3,0.8-0.4l0,0c0.3-0.1,0.5-0.2,0.7-0.4c0,0,0,0,0,0c1.9-1.1,2.8-3.3,2.4-5.5c-0.6-2.7-3.3-4.2-6-3.6
						c0,0,0,0,0,0l-12.3,3.1c-3.4,0.8-6.8,1.6-10,2.3c-0.7,0.2-1.4,0.3-2.1,0.5l0,0c-2.1,0.3-4.1,0.7-6,1c-1.9,0.3-3.8,0.5-5.5,0.5
						c-0.2,0-0.3,0.1-0.5,0.1l0.1,0.1c0.1,0.1,0.2,0.3,0.1,0.5c-0.1,0.2-0.2,0.3-0.4,0.3v-0.4c0,0.4,0,0.4,0,0.4h0h0h0h0l0,0
						c0,0,0,0-0.1,0c0,0-0.1,0-0.2-0.1c-0.1,0-0.2-0.1-0.2-0.2c0,0,0,0,0,0c0,0,0,0,0,0c0,0-0.1-0.1-0.1-0.1c-0.1,0-0.2,0-0.2-0.1
						c0,0-0.1-0.1-0.1-0.1c-0.1,0-0.2,0-0.2-0.1c-0.1-0.1-0.1-0.1-0.2-0.2c0,0-0.1,0-0.1-0.1c-0.1,0-0.1-0.1-0.2-0.1c0,0,0,0,0,0
						c0,0,0,0,0,0c0,0-0.1,0-0.2,0c-0.1,0-0.2,0-0.3-0.1c-0.1,0-0.1-0.1-0.2-0.2c-0.1-0.2,0-0.3,0.1-0.5c0.1-0.1,0.2-0.1,0.3-0.1
						c0.1,0,0.1,0,0.2,0c0,0,0.1,0,0.2,0c-0.1-0.2-0.3-0.5-0.4-0.7c-0.9-1.5-1.7-3.3-2.6-5l0,0c0,0,0,0,0,0c0,0,0,0,0,0
						c-0.7-1.7-1.5-3.6-2.4-5.4c-0.4-0.9-0.8-1.9-1.2-2.8l0,0c-0.4-0.9-0.8-1.9-1.2-2.8c-0.9-1.9-1.7-3.9-2.4-5.8l-4.6-11.8l-2.2-6
						l-2.4-5.8C197.9,150.2,193.4,148,189.5,148.9z M220.6,202.2h0.3c0,0,0,0,0-0.1c0,0,0,0,0-0.1c0,0,0,0,0,0c0,0-0.1,0-0.1,0l0,0
						c0,0,0,0,0,0s0,0,0,0c0,0,0,0,0,0c0,0,0,0,0,0l0,0h0h0h0c0,0,0,0,0,0.1c0,0,0,0,0,0c0.1,0,0.1,0,0.1,0l0,0l-0.1,0
						C220.6,202,220.6,202.1,220.6,202.2z M220.6,202L220.6,202L220.6,202z M220.7,202C220.7,202,220.7,202,220.7,202L220.7,202
						L220.7,202L220.7,202z M220.7,202L220.7,202L220.7,202z M220.2,201.1c0,0,0.1,0,0.1,0c0.4,0,0.7,0,1-0.1c0,0,0.1,0,0.1,0
						c1.7,0,3.5-0.2,5.4-0.5c1.9-0.3,3.9-0.7,6-1c0.7-0.2,1.4-0.3,2.1-0.5c3.3-0.7,6.6-1.4,10-2.3l12.3-3.1l0,0
						c3.1-0.7,6.3,1.1,7,4.2l0,0c0.5,2.6-0.5,5.1-2.8,6.4c-0.3,0.2-0.5,0.3-0.8,0.4l0,0c-0.3,0.1-0.5,0.2-0.7,0.4c0,0,0,0,0,0
						l-1.5,0.9l-2.9,1.5c-2.1,1-3.9,1.9-6,2.7l0,0c-4.1,1.7-8.2,3.4-12.5,4.8l0,0c-0.7,0.2-1.5,0.5-2.2,0.7
						c-1.4,0.5-2.9,0.9-4.5,1.4l0,0c-0.5,0.1-1,0.2-1.6,0.4c-1.8,0.4-3.7,0.9-5.8,1.2l0,0c-1.4,0.2-2.8,0.3-4.3,0.3h0
						c-0.8,0-1.7,0-2.6-0.2c0,0,0,0,0,0l0.1-0.4l-0.1,0.4l0,0c0,0,0,0,0,0c-1-0.2-2.1-0.3-3.5-0.9c0,0,0,0,0,0l0.1-0.4l-0.1,0.4
						c0,0,0,0,0,0c-0.7-0.2-1.5-0.6-2.2-1.1c0,0,0,0,0,0c0,0-0.1,0-0.1-0.1l0,0c-0.1,0-0.2-0.1-0.4-0.2l-0.5-0.5
						c-0.2-0.2-0.3-0.3-0.6-0.4c0,0-0.1,0-0.1-0.1l-0.3-0.3l-0.2-0.2l0,0l0,0l0,0l0,0l0,0l0,0l0,0l0,0l0,0l0,0l0,0l0,0l0,0l0,0l0,0
						l0,0l0,0l0,0l0,0l0,0l0,0l0,0l0,0l0,0l0,0l0,0l0,0l0,0l0,0l0,0l0,0l0,0l0,0l0,0l0,0l0,0l0,0l0,0l0,0l0,0l0,0l0,0l0,0l0,0l0,0
						l0,0l0,0l0,0l0,0l0,0l0,0l0,0l0,0l0,0l0,0l0,0l0,0l0,0l0,0l0,0l0,0l0,0l0,0l0,0l0,0l0,0l0,0l0,0l0,0l0,0l0,0l0,0l0,0l0,0l0,0
						l0,0l0,0l0,0l0,0l0,0l0,0l0,0l0,0l0,0l0,0l0,0l0,0l0,0l0,0l0,0l0,0l0,0l0,0l0,0l0,0l0,0l0,0l0,0l0,0l0,0l0,0l0,0l0,0l0,0l0,0
						l0,0l0,0l0,0l0,0l0,0l0,0l0,0l0,0l0,0l0,0l0,0l0,0l0,0l0,0l0,0l0,0l0,0l0,0l0,0l0,0l0,0l0,0l0,0c-0.1-0.1-0.2-0.2-0.3-0.3
						c-0.1-0.1-0.1-0.2-0.2-0.4l0.1,0.1l0.4-0.2h-0.4c0,0.1,0,0.1,0,0.2l-0.3-0.4c0,0,0,0,0,0l0.3-0.3l-0.4,0.2l0,0
						c-1-1.2-1.9-2.2-2.6-3.4c0,0,0,0,0,0l0.4-0.2l-0.4,0.2c0,0,0,0,0,0c-1.1-1.6-1.9-3.1-2.8-4.6c-0.3-0.6-0.7-1.2-1-1.8
						c-1.2-2.1-2.2-4.1-3.1-6.2c-1-2.1-1.9-4.1-2.7-6.2l-2.6-6.2c-1.7-4.1-3.3-8.2-4.6-12.3c-0.2-0.7-0.5-1.3-0.7-2
						c-0.5-1.4-1-2.8-1.3-4.2l-1.5-4.6l-0.5-1.6c-1.4-5.2,1.4-10.4,6.6-12l0,0c4.3-1.1,9.3,1.4,11.1,6.2l2.4,5.8l2.2,6l4.6,11.8
						c0.7,1.9,1.5,3.9,2.4,5.8c0.4,0.9,0.8,1.9,1.2,2.8l0,0c0.4,0.9,0.8,1.9,1.2,2.8l0,0c0.8,1.9,1.7,3.7,2.4,5.5
						c0.9,1.7,1.7,3.4,2.5,4.9l0,0C219.6,200.2,219.9,200.7,220.2,201.1z M220.7,202C220.7,202,220.7,201.9,220.7,202L220.7,202z"/>
					<path class="st3" d="M253.1,195.5c0,0,4.4-5.1,5.3-5.8c3.6-3.2,8.7-9.7,9.2-6.5c0.5,2.6-3.4,5.1-3.1,7.2s16.4-1,19.1,0.3
						c2.6,1.2-8.9,3.4-8.9,3.4s11.8-1.4,12.8,0.5c1,1.7-10.1,3.6-10.1,3.6s9.1-0.9,9.9,1c1,2.2-11.3,2.9-11.3,2.9s9.4,0.5,9.2,2.1
						c-0.2,1.5-9.7,0.9-15.5,1.9c-5.8,1-8,1.2-12.8-0.7C251.9,203.7,253.1,195.5,253.1,195.5z"/>
					<path class="st5" d="M261.6,187.2c-1,1-2,2-2.9,2.9c0,0,0,0,0,0c-0.2,0.1-0.6,0.6-1.1,1.2c-0.5,0.6-1.2,1.3-1.8,2
						c-0.6,0.7-1.2,1.3-1.6,1.8c-0.2,0.2-0.4,0.4-0.5,0.6l-0.1,0.1c0,0.1,0,0.1,0,0.2c0,0.2,0,0.5-0.1,0.9c0,0.8,0,1.8,0.1,2.9
						c0.3,2.2,1.3,4.5,3.6,5.3l0,0c2.4,0.9,4.1,1.3,5.9,1.4c1.8,0.1,3.8-0.2,6.7-0.7c2.4-0.4,5.6-0.6,8.3-0.7c0.6,0,1.1,0,1.6-0.1
						c1.6-0.1,2.9-0.2,3.9-0.3c0.5-0.1,0.9-0.2,1.1-0.3c0.1-0.1,0.2-0.1,0.2-0.1c0,0-0.1-0.1-0.2-0.1c-0.2-0.1-0.5-0.3-0.9-0.4
						c-0.8-0.3-2-0.5-3.1-0.6c-1.2-0.2-2.3-0.3-3.2-0.3c-0.4,0-0.8-0.1-1.1-0.1c-0.1,0-0.2,0-0.3,0l-0.1,0l0,0l0-0.4l0-0.4h0l0,0
						l0.1,0c0.1,0,0.2,0,0.4,0c0.3,0,0.8-0.1,1.4-0.1c1.1-0.1,2.6-0.3,4.1-0.5c1.5-0.2,2.9-0.5,3.8-0.9c0.5-0.2,0.8-0.4,1-0.5
						c0.1-0.1,0.1-0.1,0.1-0.2c0,0,0-0.1,0-0.1l0,0c0-0.1-0.2-0.2-0.5-0.4c-0.3-0.1-0.7-0.2-1.1-0.3c-0.9-0.2-2.1-0.2-3.3-0.3
						c-1.2,0-2.3,0-3.2,0.1c-0.4,0-0.8,0.1-1,0.1c-0.1,0-0.2,0-0.3,0l-0.1,0l0,0h0l0-0.4l-0.1-0.4h0l0,0l0.1,0c0.1,0,0.2,0,0.3-0.1
						c0.3-0.1,0.7-0.1,1.2-0.2c1-0.2,2.4-0.5,3.7-0.8c1.3-0.3,2.6-0.7,3.4-1.1c0.4-0.2,0.7-0.4,0.9-0.5c0.1-0.1,0.1-0.1,0.1-0.1
						c0,0,0,0,0,0l0,0c0-0.1-0.2-0.2-0.6-0.4c-0.4-0.1-0.9-0.2-1.5-0.3c-1.2-0.1-2.8-0.1-4.3-0.1c-1.5,0.1-3,0.2-4.1,0.3
						c-0.6,0-1,0.1-1.3,0.1c-0.2,0-0.3,0-0.4,0l-0.1,0l0,0l0,0l0-0.4l-0.1-0.4l0,0l0.1,0c0.1,0,0.2,0,0.4-0.1
						c0.3-0.1,0.7-0.2,1.3-0.3c1-0.2,2.4-0.5,3.6-0.9c1.3-0.4,2.4-0.7,3.1-1.1c0.2-0.1,0.3-0.2,0.4-0.2c0,0,0,0,0,0c0,0,0,0-0.1,0
						l0,0c-0.3-0.1-0.7-0.2-1.4-0.3c-0.7,0-1.5,0-2.5,0c-1.6,0.1-3.5,0.2-5.4,0.4c-0.3,0-0.6,0-0.9,0.1c-2.2,0.2-4.3,0.3-6,0.3
						c-0.8,0-1.5-0.1-2-0.2c-0.3-0.1-0.5-0.1-0.7-0.3c-0.2-0.1-0.4-0.3-0.4-0.6c-0.1-0.7,0.1-1.3,0.5-1.9c0.3-0.5,0.7-1.1,1.1-1.6
						c0.1-0.1,0.1-0.2,0.2-0.2c0.4-0.6,0.8-1.2,1.1-1.8c0.3-0.6,0.4-1.1,0.3-1.7l0,0c-0.1-0.4-0.2-0.5-0.2-0.5c0,0-0.1-0.1-0.4,0
						c-0.2,0.1-0.6,0.3-0.9,0.5c-0.4,0.3-0.8,0.6-1.2,1C263.6,185.1,262.6,186.1,261.6,187.2L261.6,187.2z M274.8,194.1l-0.1-0.4
						c-0.2,0-0.4,0.3-0.3,0.5c0,0.2,0.2,0.4,0.5,0.4L274.8,194.1z M280.3,193.3c0.2,0,0.3,0,0.5,0c1.5-0.1,3.1,0,4.4,0.1
						c0.6,0.1,1.2,0.2,1.7,0.3c0.4,0.1,0.9,0.4,1.1,0.8c0.1,0.2,0.2,0.4,0.1,0.6c0,0.2-0.2,0.4-0.3,0.5c-0.3,0.3-0.7,0.5-1.1,0.7
						c-0.9,0.4-2.3,0.8-3.6,1.2c-0.2,0-0.3,0.1-0.5,0.1c1.1,0,2.2,0.1,3,0.3c0.5,0.1,1,0.2,1.3,0.4c0.4,0.2,0.7,0.4,0.9,0.8
						c0.1,0.2,0.1,0.5,0.1,0.7c-0.1,0.2-0.2,0.4-0.3,0.6c-0.3,0.3-0.8,0.5-1.3,0.7c-1.1,0.4-2.5,0.7-4,0.9c-0.5,0.1-1,0.1-1.5,0.2
						c0,0,0.1,0,0.1,0c1.2,0.2,2.4,0.4,3.2,0.6c0.4,0.1,0.8,0.3,1.1,0.5c0.3,0.2,0.6,0.5,0.5,0.9c0,0.4-0.4,0.7-0.7,0.8
						c-0.3,0.2-0.8,0.3-1.3,0.3c-1,0.2-2.5,0.3-4,0.3c-0.5,0-1.1,0-1.6,0.1c-2.8,0.1-5.8,0.2-8.2,0.7c-2.9,0.5-4.9,0.8-6.9,0.8
						c-1.9-0.1-3.7-0.5-6.2-1.5c-2.8-0.9-3.8-3.6-4.2-5.9c-0.2-1.2-0.2-2.3-0.2-3.1c0-0.4,0-0.7,0.1-1c0-0.1,0-0.2,0-0.3l0-0.1l0,0
						l0,0v0c0,0,0,0,0.4,0.1l-0.3-0.3l0.2-0.2c0.1-0.1,0.3-0.3,0.5-0.6c0.4-0.5,1-1.2,1.6-1.8c0.6-0.7,1.2-1.4,1.8-2
						c0.5-0.6,1-1,1.2-1.2c0.9-0.8,1.9-1.8,2.9-2.8l0,0c1-1,2-2,2.9-2.9c0.5-0.4,0.9-0.8,1.3-1.1c0.4-0.3,0.8-0.5,1.2-0.6
						c0.4-0.1,0.8-0.2,1.1,0.1c0.3,0.2,0.5,0.6,0.6,1.1c0.1,0.8,0,1.5-0.3,2.2c-0.3,0.7-0.8,1.3-1.2,1.9c-0.1,0.1-0.1,0.2-0.2,0.2
						c-0.4,0.5-0.7,1-1,1.5c-0.3,0.5-0.4,1-0.4,1.3c0,0,0,0,0.1,0c0.1,0.1,0.2,0.1,0.4,0.2c0.4,0.1,1.1,0.2,1.8,0.2
						c1.6,0,3.7-0.1,5.9-0.3c0.3,0,0.6,0,0.9-0.1c1.9-0.2,3.8-0.3,5.5-0.4c1,0,1.8,0,2.5,0c0.7,0.1,1.3,0.2,1.7,0.4
						c0.2,0.1,0.4,0.2,0.5,0.4c0.1,0.2,0.2,0.4,0.1,0.7c-0.1,0.2-0.2,0.3-0.4,0.4c-0.1,0.1-0.3,0.2-0.5,0.3
						C282.8,192.5,281.6,192.9,280.3,193.3z M253.1,195.5l-0.3-0.3c-0.1,0.1-0.1,0.1-0.1,0.2L253.1,195.5z M277.5,198.2l-0.1-0.4
						c-0.2,0-0.4,0.2-0.4,0.5s0.2,0.4,0.5,0.4L277.5,198.2z M276.2,202.2l0-0.4c-0.2,0-0.4,0.2-0.4,0.4c0,0.2,0.2,0.4,0.4,0.4
						L276.2,202.2z"/>
					<path class="st6" d="M273.8,194.5c1,2.7,1,5.6,0,8.4c-0.2,0.5-1,0.3-0.9-0.2c1-2.6,1-5.3,0-8
						C272.7,194.1,273.6,194,273.8,194.5z"/>
					<path class="st6" d="M268.6,196.9c-3.2,0.2-6.1,1.7-8,4.4c-0.3,0.5-1,0-0.7-0.5c2.1-2.9,5.3-4.8,8.9-5
						C269.2,195.8,269.2,196.7,268.6,196.9z"/>
					<path class="st19" d="M219.4,201.1c-1.7,1.2-3.1,2.6-4.3,4.4c-0.3,0.5,0.3,1,0.7,0.5c1-1.7,2.4-3.1,4.1-4.3
						C220.5,201.5,220,200.8,219.4,201.1z"/>
					<path class="st19" d="M218.4,202c-1,0-2.2-0.2-3.2-0.2c-0.5,0-0.7,0.9,0,0.9c1,0,2.2,0.2,3.2,0.2
						C218.9,203,219.1,202.2,218.4,202z"/>
					<path class="st12" d="M213.6,268.1c0,0-29.2,1.5-65.1-20.7c0,0,7.2-13.2,5.8-27c-0.2-1.9-0.7-3.9-1.2-6.1
						c-3.6-12.3-13.3-29.4-19.3-39.8c-2.2-3.9-4.3-7-4.4-8.4c-0.9-5.8-1.4-12.6,11.1-17.1c12.3-4.4,14.2-9.4,14.2-9.4l22.2,2.6
						c0,0,6.2,3.8,10.9,4.1c4.8,0.3,8.5,0.2,9.9,5.6c0.9,3.1,0.3,6.3,0.2,9.2c-0.2,2.4-0.2,4.3,0.9,5.6c1.2,1.5,3.4,3.6,5.1,6.1
						c0.2,0.3,0.3,0.5,0.5,0.9c1,1.5,1.7,3.4,1.9,5.5c0,0.3,0,0.5,0,0.9c0,0.5,0,1,0,1.5c0,1.5-0.3,2.9-0.7,4.4
						c0,0.3-0.2,0.5-0.2,0.9c-1.7,5.3-4.8,10.6-5.5,15.9c-0.3,2.4,0,5.8,0.5,9.6c1,6.8,3.2,14.7,5.1,20.7
						C213.1,256.3,213.6,268.1,213.6,268.1z"/>
					<path class="st6" d="M204.4,174c-19.6-1-39.5,2.1-57.9,9.1c-0.5,0.2-0.7-0.7-0.2-0.9c18.3-7,38.1-10.1,57.7-9.1
						C204.1,173.5,204.2,173.6,204.4,174z"/>
					<path class="st6" d="M206.5,180.3c-19.5-0.7-39.1,2-57.7,8.2c-0.5,0.2-0.7-0.7-0.2-0.9c18.6-6.1,38.3-9.1,57.9-8.2
						C206.5,179.8,206.5,179.9,206.5,180.3z"/>
					<path class="st6" d="M205.8,186.4c0,0.3-0.2,0.5-0.2,0.9c-0.9,0-1.7,0-2.6,0c-5.5,0.2-10.9,0-16.4,0.5
						c-11.8,1.2-23.4,4.3-34.9,7.2c-0.5,0.2-0.7-0.7-0.2-0.9c5.1-1.4,10.4-2.6,15.5-3.8c9.1-2.1,18.1-3.8,27.3-3.9
						C198.3,186.4,202,186.4,205.8,186.4z"/>
					<path class="st6" d="M194,207.3c-5.1,6.8-14.3,10.4-22.7,9.6c-0.5,0-0.5-1,0-0.9c8,0.9,17.1-2.6,22-9.2
						C193.7,206.4,194.3,206.8,194,207.3z"/>
					<path class="st6" d="M183.9,153.8c0.5,1.7-0.3,3.4-1.9,4.3c-2.1,1.2-5,1-7.3,0.9c-5.6-0.3-10.9-1.9-16.1-4.1
						c-0.5-0.2,0-1,0.5-0.9c3.9,1.9,8.2,3.1,12.5,3.8c2,0.3,4.3,0.5,6.3,0.5c2.2,0,6-1,5.1-4.1C182.9,153.5,183.7,153.3,183.9,153.8
						z"/>
					<path class="st6" d="M142.6,176c10.1,16.6,17.1,35,20.7,54c0.2,0.5-0.7,0.9-0.9,0.2c-3.4-19-10.4-37.2-20.5-53.8
						C141.4,176,142.2,175.5,142.6,176z"/>
					<path class="st3" d="M181.7,109.9c0,0,2.4,0,3.1,2.9c0.9,2.9-0.2,8-3.1,7.7C178.8,120.2,181.7,109.9,181.7,109.9z"/>
					<path class="st5" d="M181.7,109.5v0.4l-0.4-0.1C181.3,109.6,181.5,109.5,181.7,109.5z M185.2,112.7c0.4,1.5,0.4,3.6-0.1,5.3
						c-0.3,0.8-0.7,1.6-1.2,2.2c-0.6,0.6-1.3,0.9-2.2,0.8c-0.5-0.1-0.9-0.3-1.1-0.7c-0.2-0.4-0.4-0.9-0.5-1.4
						c-0.1-1.1,0-2.4,0.1-3.7c0.2-1.3,0.5-2.6,0.7-3.6c0.1-0.5,0.2-0.9,0.3-1.2c0-0.1,0.1-0.3,0.1-0.3l0-0.1l0,0l0,0
						c0,0,0,0,0.4,0.1c0-0.4,0-0.4,0-0.4h0h0l0,0h0c0,0,0.1,0,0.1,0c0.1,0,0.2,0,0.3,0c0.3,0.1,0.6,0.2,1,0.4
						C184,110.3,184.8,111.1,185.2,112.7z M182,110.4c0.2,0,0.5,0.1,0.8,0.3c0.6,0.3,1.3,0.9,1.6,2.3l0,0c0.4,1.4,0.4,3.3-0.1,4.8
						c-0.2,0.8-0.6,1.4-1,1.8c-0.4,0.4-0.9,0.6-1.5,0.5c-0.2,0-0.4-0.1-0.5-0.4c-0.2-0.2-0.3-0.6-0.3-1.1c-0.1-0.9,0-2.2,0.1-3.5
						c0.2-1.3,0.4-2.6,0.7-3.5C181.8,111.1,181.9,110.7,182,110.4C182,110.4,182,110.4,182,110.4z"/>
					<path class="st20" d="M178.8,121.5c-0.2-2.2,1.5-4.3,3.8-4.4c2.2-0.2,4.3,1.5,4.4,3.8c0.2,2.2-1.5,4.3-3.8,4.4
						C180.8,125.5,179,123.7,178.8,121.5z M180,121.4c0.2,1.5,1.5,2.7,3.1,2.7c1.5-0.2,2.7-1.5,2.7-3.1c-0.2-1.5-1.5-2.7-3.1-2.7
						C181,118.4,179.8,119.8,180,121.4z"/>
					<path class="st3" d="M152.8,144.8c0,0,5,7.2,13.7,7.3c11.1,0.3,11.8-4.6,11.8-4.6c-0.7-1.4-1-2.9-1.4-4.4
						c-0.2-0.5-0.2-1.2-0.3-1.9c-0.2-1.7-0.3-3.6-0.3-5.8c0-0.5,0-1,0-1.5c-7.9-0.9-14.3-3.6-19.3-8.7l-1.2-0.5l-0.9-0.3l-0.2,0.5
						l0.3,1.4C156.6,132.5,155.7,138.3,152.8,144.8z"/>
					<path class="st5" d="M154.7,123.9c0.1-0.1,0.2-0.1,0.3,0l0.9,0.3l1.2,0.5c0.1,0,0.1,0.1,0.1,0.1c4.9,5,11.3,7.7,19,8.6
						c0.2,0,0.4,0.2,0.4,0.4v1.5c0,2.2,0.2,4,0.3,5.7c0.1,0.3,0.1,0.7,0.2,1c0,0,0,0,0,0.1c0,0.3,0.1,0.6,0.2,0.8c0,0,0,0,0,0
						c0.3,1.5,0.7,3,1.3,4.3c0,0.1,0.1,0.2,0,0.2l-0.4-0.1c0.4,0.1,0.4,0.1,0.4,0.1v0l0,0l0,0l0,0c0,0,0,0,0,0.1c0,0,0,0.1,0,0.2
						c0,0.2-0.1,0.4-0.3,0.6c-0.3,0.5-0.7,1.2-1.6,1.8c-1.7,1.3-4.7,2.4-10.3,2.3c-4.5-0.1-8-2-10.4-3.8c-1.2-0.9-2.1-1.8-2.7-2.5
						c-0.3-0.3-0.5-0.6-0.7-0.8c-0.1-0.1-0.1-0.2-0.2-0.2c0,0,0-0.1,0-0.1l0,0l0,0l0,0c0,0,0,0,0.4-0.2l-0.4,0.2
						c-0.1-0.1-0.1-0.3,0-0.4c2.9-6.4,3.7-12.1,2.2-18.3l-0.3-1.4c0-0.1,0-0.2,0-0.2l0.2-0.5C154.5,124,154.6,123.9,154.7,123.9z
						 M153.3,144.7C153.3,144.7,153.4,144.8,153.3,144.7c0.2,0.3,0.4,0.6,0.7,0.9c0.6,0.7,1.5,1.5,2.6,2.4c2.3,1.8,5.6,3.6,9.8,3.6
						h0c5.5,0.2,8.3-1,9.8-2.1c0.7-0.6,1.1-1.1,1.3-1.5c0.1-0.2,0.2-0.4,0.2-0.5c0,0,0,0,0,0c-0.7-1.4-1-2.9-1.3-4.4l0,0
						c-0.1-0.3-0.1-0.6-0.2-0.9c0,0,0,0,0-0.1c0-0.3-0.1-0.6-0.2-0.9c0,0,0,0,0-0.1c-0.2-1.7-0.3-3.6-0.3-5.9v-1.2
						c-7.7-0.9-14.2-3.6-19.1-8.7l-1.1-0.5l-0.4-0.2l0.3,1.2C157,132.4,156.2,138.2,153.3,144.7z"/>
					<path class="st3" d="M144.5,114.3c0.2,4.1,3.9,9.1,9.4,8.9h0.2c0.2,0.2,0.2,0.5,0.3,0.7c0,0.2,0.2,0.2,0.2,0.3
						c3.8,6.8,14,10.4,19.5,10.2c1.9,0,3.2-0.5,3.6-0.7c5.6-1.5,6.3-9.4,5.1-15.2c-0.2-0.9-0.3-1.7-0.7-2.4v-0.2
						c0,0,1.5-8.4,1.7-12.1c0.5-7-3.9-14-19.5-14.5s-18.6,9.2-19.5,14.4c-0.2,0.9,0.3,5.8,1.2,6.7
						C144.6,111.1,144.3,112.8,144.5,114.3z"/>
					<path class="st5" d="M148.7,94.2c2.9-3.1,7.7-5.5,15.6-5.2c7.8,0.3,12.9,2.2,16,4.9c3.1,2.8,4.1,6.4,3.9,10
						c-0.1,1.9-0.5,5-0.9,7.5c-0.2,1.3-0.4,2.4-0.5,3.3c-0.1,0.4-0.1,0.8-0.2,1l0,0.3l0,0.1v0c0.3,0.7,0.5,1.6,0.7,2.4l0,0
						c0.6,2.9,0.7,6.4,0,9.4c-0.7,3-2.4,5.5-5.4,6.3c-0.4,0.2-1.8,0.7-3.7,0.7c-2.8,0.1-6.8-0.8-10.6-2.5c-3.8-1.8-7.4-4.4-9.3-7.9
						c0,0,0-0.1,0-0.1c0,0-0.1-0.1-0.1-0.1c0,0,0-0.1-0.1-0.1c-0.1-0.1-0.1-0.3-0.2-0.4c0,0,0,0,0,0c0,0,0,0,0,0
						c-2.8,0.1-5.2-1.2-6.9-3c-1.7-1.8-2.7-4.1-2.8-6.3c-0.2-1.4,0.1-3.2,1.4-4.1c0-0.1-0.1-0.1-0.1-0.2c-0.1-0.2-0.2-0.5-0.3-0.8
						c-0.2-0.6-0.3-1.4-0.4-2.1c-0.1-0.7-0.2-1.5-0.2-2.1c0-0.6,0-1.1,0-1.4C144.8,101.1,145.8,97.3,148.7,94.2z M149.3,94.8
						c-2.7,2.9-3.7,6.5-4.1,9.1l0,0c0,0.1,0,0.6,0,1.2c0,0.6,0.1,1.3,0.2,2c0.1,0.7,0.2,1.4,0.4,2c0.1,0.3,0.2,0.5,0.2,0.7
						c0.1,0.2,0.2,0.3,0.2,0.4c0.1,0.1,0.1,0.2,0.1,0.4c0,0.1-0.1,0.3-0.2,0.3c-1.1,0.6-1.5,2-1.3,3.5c0,0,0,0,0,0
						c0.1,1.9,1,4.1,2.6,5.8c1.6,1.7,3.8,2.8,6.4,2.7l0,0h0.2c0.1,0,0.2,0,0.3,0.1c0.2,0.2,0.2,0.4,0.3,0.5c0,0,0,0,0,0
						c0,0.1,0,0.1,0.1,0.1c0,0,0,0,0,0c0.1,0.1,0.1,0.1,0.1,0.2c0,0,0.1,0.1,0.1,0.1c0,0.1,0.1,0.1,0.1,0.2c1.8,3.3,5.2,5.8,8.9,7.5
						c3.7,1.7,7.5,2.5,10.2,2.5l0,0c1.8,0,3.1-0.5,3.4-0.6c0,0,0.1,0,0.1,0c2.6-0.7,4.1-2.9,4.8-5.7c0.7-2.8,0.6-6.2,0-9v0
						c-0.2-0.9-0.3-1.7-0.6-2.3c0-0.1,0-0.1,0-0.2v-0.2c0,0,0-0.1,0-0.1l0-0.1l0-0.3c0-0.2,0.1-0.6,0.2-1c0.1-0.8,0.3-2,0.5-3.3
						c0.4-2.6,0.8-5.6,0.9-7.4l0,0c0.2-3.4-0.7-6.8-3.6-9.3c-2.9-2.6-7.8-4.5-15.5-4.7C156.6,89.6,152.1,91.9,149.3,94.8z"/>
					<path class="st6" d="M154.2,120c-0.2,0-0.3-0.2-0.5-0.3c-1-3.9-5.6-5.3-5.8-5.3c-0.3-0.2-0.5-0.3-0.3-0.7
						c0.2-0.3,0.3-0.5,0.7-0.3c0.2,0,5.5,1.7,6.5,6.2c0,0.3-0.2,0.7-0.3,0.7C154.4,120,154.2,120,154.2,120z"/>
					<path class="st6" d="M149.2,117.9c-0.5-0.2-0.5-0.5-0.3-0.7c0,0,1-1.9,3.2-1.9c0.3,0,0.5,0.2,0.5,0.5c0,0.3-0.2,0.5-0.5,0.5
						c-1.7,0-2.4,1.2-2.4,1.2C149.6,117.9,149.4,117.9,149.2,117.9z"/>
					<path class="st19" d="M153.8,123.2c0.2,0.2,0.3,0.5,0.5,0.7c0,0.2,0.2,0.2,0.2,0.3c0.7-0.2,1.4-0.3,2.1-1
						c0.3-0.3,0.7-0.7,1-1.2c0.2-0.3,0-0.7-0.2-0.7c-0.3-0.2-0.7,0-0.7,0.2c-0.3,0.5-0.9,1-1.2,1.2c-0.3,0.2-0.7,0.3-1,0.3
						S154,123.2,153.8,123.2z"/>
					<path class="st20" d="M155.2,122.9c-0.3,0.2-0.9,0.2-1.2,0.2c0.2,1.5-1,2.9-2.7,3.1c-1.5,0.2-2.9-1-3.1-2.7
						c-0.2-1.4,0.9-2.7,2.2-3.1c0.3-0.5,0.3-0.9-0.2-1.2c-2.1,0.3-3.4,2.2-3.4,4.3c0.2,2.2,2.1,3.9,4.4,3.8
						C153.5,127,155.2,125.1,155.2,122.9C155.2,123.1,155.2,123.1,155.2,122.9z"/>
					<path class="st6" d="M167,124.3c0,0,0.7,4.8,4.6,4.8c4.1,0,4.3-4.1,4.3-4.1L167,124.3z"/>
					<path class="st6" d="M171.6,114.2c-0.2,0-0.5-0.2-0.5-0.3c-0.2-0.5-0.9-1.7-1.5-1.7c-0.9-0.2-1.9,0.9-1.9,0.9
						c-0.2,0.2-0.5,0.2-0.9,0c-0.2-0.2-0.2-0.5,0-0.9c0,0,1.4-1.2,2.7-1.2c1.5,0.2,2.4,2.2,2.4,2.4
						C172.3,113.7,172.1,114,171.6,114.2C171.8,114.2,171.8,114.2,171.6,114.2z"/>
					<path class="st6" d="M177.6,114.2c-0.5,0-0.7-0.3-0.5-0.7c0-0.2,0.5-1.9,1.7-2.2c1.2-0.3,2.2,0.5,2.4,0.5
						c0.2,0.2,0.3,0.5,0.2,0.9c-0.2,0.2-0.5,0.3-0.9,0.2c-0.2-0.2-0.9-0.5-1.4-0.3c-0.3,0.2-0.7,1-0.9,1.4
						C178.1,114,177.9,114.2,177.6,114.2z"/>
					<path class="st6" d="M148.7,94.7c3.1-3.6,7.5-6.7,13.2-6.5c7.9,0,15.2,2.4,19.3,6.3c2,1.9,3.2,4.3,3.6,6.8c0.9,8-1,6.5-1,6.5
						s0-0.2-0.3-1.9c-0.2-1-0.5-2.6-1-5c-1.4-5.8-19.8-5.5-18.5-1.7c0,0,0,0.5,0,1.2c0,0.9-0.2,1.9-0.7,2.9c-0.2,0-0.3,0-0.3,0.2
						c-1.9,0.5-3.4,1-4.6,1.7c-0.2,0.2-2.9,2.4-2.2,5.3c0.5,3.1,1.9,6.8-0.2,6.3c-2.1-0.7-2.9-3.1-2.9-3.1c-1.2-1.4-2.6-2.6-4.6-3.1
						C147.4,105.3,146.8,100,148.7,94.7z"/>
					<path class="st6" d="M150.9,86.5c0,0-2.2-15.2-12-14.7c-9.7,0.5-6.8,11.6-6.8,11.6s-5.8-2.7-3.8,4.3c2.1,7,15.7,5,15.7,5
						L150.9,86.5z"/>
					<path class="st20" d="M150.1,83.3c0,0-8,2.7-10.1,9.9c0,0,1.2,1.4,4.1,1.5c0,0,0.9-4.8,6.8-8.2
						C150.9,86.5,151.6,84.3,150.1,83.3z"/>
					<path class="st6" d="M147.9,98.3c5.5-2.2,14.5,1.4,16.2,2.2c0,0.9-0.2,1.9-0.7,2.9c-0.2,0-0.3,0-0.3,0.2
						c-1.9,0.5-3.4,1-4.6,1.7c-0.2,0.2-2.9,2.4-2.2,5.3c0.5,3.1,3.8,20,1.7,20.8c-5.3,2.2-5.6-17.6-5.6-17.6
						c-1.2-1.4-1.7-2.6-3.8-3.2C146,106.5,146.5,102.4,147.9,98.3z"/>
					<path class="st6" d="M149.1,98c0,0-3.1,5-0.7,12.8c0,0-2.7-0.5-3.9,0c-1.2,0.5-2.9-4.1-1.7-8.4c1-4.3,6.8-9.9,6.8-9.9
						S150.1,96.4,149.1,98z"/>
					<path class="st6" d="M176.4,122.4C176.6,122.4,176.6,122.4,176.4,122.4l2.2-1.4c0.2-0.2,0.2-0.2,0.2-0.3c0-0.2-0.2-0.3-0.2-0.3
						c-1.7-0.9-2.7-2.4-3.4-4.6c0-0.2-0.3-0.3-0.5-0.3c-0.2,0-0.3,0.3-0.3,0.5c0.7,2.2,1.7,3.8,3.2,4.8l-1.4,0.9
						c-0.2,0.2-0.3,0.5-0.2,0.7C176.2,122.4,176.4,122.4,176.4,122.4z"/>
					<path class="st12" d="M168.5,119.8c-3.1,0-5.6-2.6-5.6-5.6c0-3.1,2.6-5.6,5.6-5.6c3.1,0,5.6,2.6,5.6,5.6
						C174.2,117.3,171.6,119.8,168.5,119.8z M168.5,109.4c-2.6,0-4.8,2-4.8,4.8c0,2.6,2.1,4.8,4.8,4.8c2.7,0,4.8-2,4.8-4.8
						C173.2,111.6,171.1,109.4,168.5,109.4z"/>
					<path class="st12" d="M181.9,119.8c-3.1,0-5.6-2.6-5.6-5.6c0-3.1,2.6-5.6,5.6-5.6c3.1,0,5.6,2.6,5.6,5.6
						C187.3,117.3,184.9,119.8,181.9,119.8z M181.9,109.4c-2.6,0-4.8,2-4.8,4.8c0,2.6,2.1,4.8,4.8,4.8c2.6,0,4.8-2,4.8-4.8
						C186.5,111.6,184.4,109.4,181.9,109.4z"/>
					<path class="st12" d="M151.5,113l-0.5-0.7c0.2-0.2,6-4.4,13.2-1.7l-0.3,0.9C157.1,109.1,151.6,113,151.5,113z"/>
					<path class="st12" d="M173.8,114l-0.5-0.7c0.7-0.5,2.2-1,3.6,0l-0.5,0.7C175.2,113.2,174,114,173.8,114z"/>
					<path class="st6" d="M170.6,106.5c1.2,0.2,1.7-1.5,0.7-2.2c-0.5-0.3-1.4-0.5-2.4-0.2c-4.3,1-5.6,4.8-5.6,4.8s3.8-2.2,6-2.4
						C169.9,106.5,170.2,106.5,170.6,106.5z"/>
					<path class="st6" d="M177.3,106.7c-1.2,0.2-1.9-1.5-0.7-2.1c0.5-0.3,1.4-0.5,2.2-0.3c4.3,0.9,4.6,3.8,4.6,3.8s-2.6-1.4-4.8-1.4
						C178.1,106.5,177.6,106.5,177.3,106.7z"/>
					<path class="st20" d="M117.3,343.8c0,0,3.1,1.4,8.7,3.1c0.3,0.2,0.7,0.2,1,0.3c3.1,0.9,6.7,1.9,10.8,2.7c0.3,0,0.7,0.2,1,0.2
						c1.9,0.3,3.8,0.7,5.8,1.2c0.3,0,0.5,0.2,0.9,0.2c10.2,1.7,22.7,2.9,36.9,2.4c0.3,0,0.7,0,1,0c2.4-0.2,4.6-0.3,7-0.5
						c0.3,0,0.7,0,1-0.2c13.2-1.4,27.2-4.3,42-9.7c-0.2-1-0.2-1.9-0.3-2.7c0-0.3-0.2-0.9-0.2-1.2c-0.5-4.1-1-8.2-1.5-12.1
						c0-0.5-0.2-0.9-0.2-1.4c-0.3-2.7-0.9-5.5-1.4-8c0-0.5-0.2-1-0.2-1.5c-0.5-2.7-1-5.3-1.5-7.9c-0.2-0.7-0.2-1.2-0.3-1.9
						c-1.9-9.4-4.1-18.5-6.3-27c-0.2-0.5-0.2-0.9-0.3-1.4c-0.7-2.6-1.4-5-2.2-7.5c-0.2-0.5-0.3-1-0.5-1.5c-0.7-2.4-1.5-4.8-2.2-7.2
						c-0.2-0.5-0.3-1-0.5-1.4c-1.5-4.8-3.1-9.4-4.6-13.8c-0.2-0.3-0.3-0.9-0.3-1.2c-2.2-6.3-4.4-12.3-6.8-18.1
						c0,0-27.8,6.8-49.7,0.3c0,0-1.7,3.1-3.9,7.5c-0.2,0.3-0.3,0.7-0.5,1c-1.5,3.2-3.4,7.2-5.1,11.3c-0.2,0.3-0.2,0.7-0.3,0.9
						c-0.7,1.9-1.5,3.6-2.1,5.5c0,0.2,0,0.2-0.2,0.3c0,0.2-0.2,0.5-0.2,0.7c-0.9,2.6-2.2,7.2-3.9,13c0,0.3-0.2,0.5-0.2,0.9
						c-0.7,2.2-1.4,4.4-2,7c0,0.3-0.2,0.5-0.2,0.9c-1.9,6.8-4.1,14.7-6.2,22.4c0,0.3-0.2,0.5-0.2,0.9c-0.7,2.7-1.5,5.5-2.2,8.2
						c-0.2,0.3-0.2,0.7-0.3,1c-1,4.1-2.2,7.9-3.1,11.6c0,0.3-0.2,0.7-0.2,1c-0.3,1.4-0.7,2.7-1,4.1c0,0.3-0.2,0.7-0.2,0.9
						c-0.7,2.7-1.4,5.3-2,7.5c-0.2,0.3-0.2,0.7-0.3,1C118.1,340.5,117.3,343.8,117.3,343.8z"/>
					<path class="st6" d="M199.5,235c0.3,6.3,6.3,9.9,11.6,11.8c-0.2-0.3-0.3-0.9-0.3-1.2c-5.1-2.1-10.1-4.8-10.4-10.8
						C200.3,234.4,199.5,234.4,199.5,235z"/>
					<path class="st6" d="M191.9,237.7c0.9,5,3.8,9.1,7.3,12.5c5.1,4.8,11.3,8,17.1,12c-0.2-0.5-0.3-1-0.5-1.4c-1-0.7-2.2-1.4-3.2-2
						c-8.2-5.1-17.9-10.9-19.8-21.2C192.6,236.8,191.8,237.2,191.9,237.7z"/>
					<path class="st6" d="M149.9,236.5c1.4,2.2,3.1,4.1,5,5.8c6.5,5.5,15.4,7.3,23.7,8c3.2,0.2,7-0.3,8-3.9c1-3.9-1.9-7.2-4.3-9.7
						c-0.3-0.3-1,0.2-0.7,0.7c1.7,1.9,3.6,3.8,4.1,6.3c0.5,2.6-0.7,5.1-3.4,5.6c-2.1,0.5-4.3,0.2-6.5-0.2c-2.6-0.3-5-0.7-7.5-1.4
						c-7.2-1.7-14.3-5.6-17.9-12.3C150.3,235.8,150.1,236.2,149.9,236.5z"/>
					<path class="st21" d="M203.9,227.6c0,0,3.8,3.1,2.6,8.9c0,0-27,7.9-56-1.4c-0.2-1,0-7,3.9-8.7
						C154.4,226.6,175.4,233.2,203.9,227.6z"/>
					<path class="st3" d="M128.9,161.3l-0.5,3.1c-0.2,1-0.3,2-0.5,3.1c-0.3,2.1-0.7,4.1-0.9,6.1c-0.5,4.1-1,8.2-1.4,12.3
						c-0.3,4.1-0.7,8.4-0.9,12.6c0,2.2,0,4.3,0,6.7c0.2,2.2,0.2,4.6,0.9,7.3c0.2,0.7,0.3,1.4,0.5,2.2c0.2,0.9,0.5,1.7,0.9,2.6
						c0.2,0.5,0.5,1,0.9,1.5c0.3,0.5,0.7,1.2,1.4,1.9c0.5,0.7,1.2,1.4,2.2,2c0.5,0.3,1,0.7,1.5,0.9l0.2,0.2h0.2l0.3,0.2
						c0.2,0.2,0.3,0.2,0.5,0.2c1.5,0.5,2.7,0.7,3.9,0.7c1,0,2.1,0,2.7,0c1.7-0.2,2.9-0.5,4.3-0.9c2.6-0.7,4.6-1.5,6.7-2.4
						c2.1-0.9,3.9-1.9,6-2.7c1.9-1,3.8-1.9,5.6-2.9c1.9-1,3.6-2.1,5.3-3.2c1.7-1.2,3.4-2.2,5.1-3.6c0.9-0.7,1.7-1.2,2.4-1.9
						c0.3-0.3,0.9-0.7,1.2-1c0.2-0.2,0.3-0.3,0.5-0.5l0.7-0.5c2.4-2.2,2.6-5.8,0.3-8.2c-1.5-1.7-3.9-2.2-6.1-1.7l-0.3,0.2
						c-0.5,0.2-0.9,0.3-1.4,0.5c-0.5,0.2-0.9,0.3-1.4,0.5c-0.9,0.3-1.9,0.7-2.7,1c-1.9,0.7-3.6,1.5-5.5,2.4
						c-1.7,0.9-3.6,1.5-5.3,2.4c-1.7,0.9-3.6,1.5-5.3,2.2c-1.7,0.7-3.4,1.4-5.1,1.9c-1.7,0.5-3.4,1-4.8,1.4
						c-0.7,0.2-1.4,0.2-1.7,0.2c-0.2,0-0.3,0-0.2,0c0,0,0.3,0,0.9,0.2c0,0,0.2,0,0.2,0.2h0.2l0.2,0.2c0.3,0.2,0.7,0.3,0.9,0.5
						c0.5,0.3,0.9,0.7,1,1c0.2,0.3,0.3,0.5,0.5,0.7c0,0.2,0.2,0.2,0.2,0.2s0,0,0-0.2c0-0.2,0-0.5-0.2-0.7c0-0.7-0.2-1.4-0.2-2.2
						c0-0.9,0-1.7,0-2.6c0-1.7,0.2-3.6,0.3-5.5c0.3-3.8,0.9-7.5,1.4-11.3c0.5-3.8,1.2-7.7,1.9-11.6c0.3-1.9,0.7-3.9,1-5.8l0.5-2.9
						l0.5-2.7v-0.2c1-5.5-2.4-10.8-7.9-11.8c-5.5-1-10.8,2.4-11.8,7.9C128.9,161.2,128.9,161.3,128.9,161.3z"/>
					<path class="st5" d="M128.3,161.3c1.1-5.7,6.6-9.3,12.3-8.2c5.7,1.1,9.2,6.6,8.2,12.2v0.1c0,0,0,0.1,0,0.1l-0.5,2.7l0,0
						l-0.5,2.9l0,0c-0.2,0.9-0.3,1.9-0.5,2.9c-0.2,1-0.3,2-0.5,2.9c-0.7,3.9-1.4,7.9-1.9,11.6c-0.5,3.8-1,7.5-1.4,11.3
						c-0.2,1.9-0.3,3.7-0.3,5.4v1.5c0.8-0.2,1.7-0.5,2.5-0.7c1.7-0.5,3.4-1.2,5.1-1.9c0.4-0.2,0.8-0.3,1.2-0.5
						c1.4-0.5,2.8-1.1,4.1-1.7c0.9-0.4,1.8-0.8,2.7-1.2l0,0c0.9-0.4,1.8-0.8,2.6-1.2l0,0c0.4-0.2,0.9-0.4,1.3-0.6
						c1.4-0.6,2.7-1.3,4.2-1.8c0.4-0.2,0.9-0.3,1.4-0.5l0,0c0.5-0.2,0.9-0.3,1.4-0.5c0,0,0,0,0,0c0.2-0.1,0.4-0.2,0.7-0.2l0,0
						c0.2-0.1,0.4-0.2,0.7-0.3c0.2-0.1,0.4-0.2,0.7-0.2l0,0c0.2-0.1,0.4-0.2,0.7-0.3l0.3-0.2c0,0,0.1,0,0.1,0c2.3-0.5,4.9,0,6.6,1.8
						c2.4,2.6,2.2,6.4-0.4,8.8c0,0,0,0,0,0l-0.7,0.5l-0.5,0.5c-0.2,0.2-0.4,0.4-0.6,0.5l0,0c-0.2,0.2-0.4,0.3-0.6,0.5
						c-0.4,0.4-0.8,0.7-1.2,1c-0.1,0.1-0.2,0.2-0.3,0.2c-0.3,0.2-0.6,0.4-0.9,0.7c-1.2,0.9-2.3,1.7-3.5,2.5
						c-0.6,0.4-1.1,0.8-1.7,1.1c-1.7,1.2-3.4,2.2-5.3,3.3c-0.9,0.5-1.9,1-2.8,1.5l0,0c-0.9,0.5-1.9,0.9-2.8,1.4c0,0,0,0,0,0
						c0,0,0,0,0,0c-1,0.4-2,0.9-3,1.4l0,0c-1,0.5-2,0.9-3,1.4l0,0c-2,0.9-4.1,1.7-6.7,2.4l0,0c-0.2,0-0.3,0.1-0.5,0.1
						c-1.2,0.3-2.3,0.6-3.8,0.7c0,0,0,0,0,0h-2.7c-1.2,0-2.5-0.2-4-0.7c-0.2,0-0.4,0-0.7-0.2l-0.2-0.1h-0.1c-0.1,0-0.2,0-0.3-0.1
						l-0.1-0.1c-0.5-0.2-1.1-0.5-1.5-0.9l0,0c-1.1-0.7-1.8-1.4-2.3-2.1c-0.5-0.6-0.9-1.1-1.2-1.6c-0.1-0.1-0.2-0.2-0.2-0.4l0,0
						c-0.3-0.5-0.7-1-0.9-1.6l0,0c-0.3-0.8-0.7-1.7-0.9-2.6c-0.2-0.8-0.3-1.5-0.5-2.2c-0.5-2.2-0.7-4.2-0.8-6c0-0.5-0.1-1-0.1-1.4
						c0,0,0,0,0,0v-6.7c0.2-4.3,0.5-8.6,0.9-12.7c0.3-4.1,0.9-8.2,1.4-12.3c0.2-2.1,0.5-4.1,0.9-6.2l1-5.8
						C128.3,161.5,128.3,161.4,128.3,161.3z M129.2,161.3h0.2c0,0,0,0,0,0.1l-1,6.2c-0.3,2.1-0.7,4.1-0.8,6.1l0,0
						c-0.5,4.1-1,8.2-1.4,12.3c-0.3,4.1-0.7,8.4-0.9,12.6v6.6c0,0.5,0.1,1,0.1,1.5c0.1,1.8,0.2,3.7,0.7,5.8v0
						c0.2,0.7,0.3,1.4,0.5,2.2c0.2,0.8,0.5,1.6,0.8,2.5c0,0,0,0,0,0c0.1,0.4,0.5,0.9,0.8,1.4c0.1,0.1,0.2,0.3,0.3,0.4
						c0.3,0.4,0.6,0.9,1,1.4c0,0,0,0,0,0c0.5,0.6,1.1,1.3,2.1,2c0.5,0.4,1,0.7,1.4,0.8c0.1,0,0.1,0.1,0.2,0.1l0,0c0.1,0,0.1,0,0.2,0
						l0.3,0.2c0,0,0.1,0,0.1,0.1c0,0,0,0,0,0c0,0,0,0,0,0c0,0,0.1,0,0.2,0c0,0,0.1,0,0.1,0c1.5,0.5,2.6,0.7,3.8,0.7h2.7
						c1.4-0.1,2.5-0.4,3.7-0.7c0.2,0,0.3-0.1,0.5-0.1c2.5-0.7,4.6-1.5,6.6-2.4c1-0.4,2-0.9,3-1.4l0,0c1-0.5,2-0.9,3-1.4
						c0.9-0.5,1.9-1,2.8-1.4l0,0c0.9-0.5,1.9-0.9,2.8-1.4c1.9-1,3.6-2,5.3-3.2c0.6-0.4,1.2-0.8,1.7-1.2c1.1-0.8,2.2-1.5,3.4-2.4
						c0.3-0.3,0.6-0.5,1-0.7c0.1-0.1,0.2-0.2,0.3-0.2c0.4-0.3,0.8-0.6,1.1-0.9c0.2-0.2,0.4-0.4,0.6-0.5l0,0c0.2-0.2,0.4-0.3,0.6-0.5
						l0.5-0.5c0,0,0,0,0,0c0,0,0,0,0,0l0.7-0.5c2.2-2.1,2.4-5.4,0.3-7.6l0,0c-1.4-1.6-3.6-2.1-5.7-1.6l-0.3,0.1c0,0,0,0-0.1,0
						c-0.2,0.1-0.4,0.2-0.7,0.2l0,0c-0.2,0.1-0.4,0.2-0.7,0.3c-0.2,0.1-0.4,0.2-0.7,0.2l0,0c-0.2,0.1-0.4,0.2-0.7,0.3
						c-0.4,0.2-0.9,0.3-1.4,0.5l0,0c-0.5,0.2-0.9,0.3-1.4,0.5l0,0c-1.4,0.5-2.7,1.1-4.1,1.8c-0.4,0.2-0.9,0.4-1.3,0.6
						c-0.9,0.4-1.8,0.8-2.7,1.2l0,0c-0.9,0.4-1.8,0.8-2.6,1.2c-1.4,0.7-2.8,1.2-4.2,1.8c-0.4,0.2-0.8,0.3-1.1,0.4l0,0
						c-1.7,0.7-3.4,1.4-5.2,1.9l0,0c-0.9,0.3-1.9,0.6-2.8,0.8v0.1c0,0.4,0,0.8,0.1,1.1c0,0,0,0,0,0.1c0,0.3,0.1,0.6,0.1,0.9
						c0.1,0.1,0.1,0.3,0.1,0.4c0,0.2,0,0.3,0,0.4v0.2l-0.4,0c0,0.4,0,0.4,0,0.4h0h0h0l0,0c0,0,0,0-0.1,0c0,0-0.1,0-0.2-0.1
						c-0.1,0-0.2-0.1-0.2-0.2c0,0,0-0.1-0.1-0.1c-0.2-0.2-0.3-0.4-0.5-0.7c-0.1-0.2-0.4-0.5-0.9-0.9c0,0,0,0-0.1-0.1
						c0,0-0.1-0.1-0.3-0.2c-0.1-0.1-0.3-0.2-0.5-0.2c0,0-0.1,0-0.1-0.1l0,0c-0.2,0-0.3-0.1-0.4-0.2c-0.2-0.1-0.4-0.1-0.5-0.1
						c-0.1,0-0.1,0-0.1,0c0,0,0,0,0,0c0,0,0,0,0,0h0h-0.1l0-0.9h0.1h0.2c0.3,0,1,0,1.6-0.2c0.4-0.1,0.9-0.2,1.4-0.4v-1.8
						c0-1.7,0.2-3.6,0.3-5.5l0,0c0.3-3.8,0.9-7.5,1.4-11.3l0,0c0.5-3.8,1.2-7.7,1.9-11.6v0l0,0c0.2-0.9,0.3-1.9,0.5-2.9
						c0.2-1,0.3-2,0.5-2.9c0,0,0,0,0,0l0.5-2.9l0.5-2.7v-0.1c0,0,0-0.1,0-0.1c1-5.2-2.3-10.3-7.5-11.3c-5.1-1-10.1,2.1-11.2,7.1
						c0.1,0.1,0.1,0.2,0.1,0.2c0,0,0,0.1,0,0.1c0,0,0,0,0,0v0v0v0v0C129.3,161.3,129.3,161.3,129.2,161.3L129.2,161.3z M142.3,207.9
						c-0.4,0.1-0.8,0.2-1.2,0.3c0,0-0.1,0-0.1,0c0.1,0,0.2,0.1,0.2,0.1c0.1,0.1,0.3,0.2,0.4,0.3c0.3,0.2,0.6,0.4,0.8,0.7
						c0-0.1,0-0.2,0-0.3l0-0.1C142.4,208.7,142.3,208.3,142.3,207.9z"/>
					<path class="st3" d="M143.9,207.5c0,0-1.2,0.3-1.5,0.3v-1l-1.4,0.2l-3.9-0.2l1,3.1l5,2.7l1.5-1.4L143.9,207.5z"/>
					<path class="st6" d="M140.7,207.8c-1,0-2.1,0-3.1-0.2c-0.5,0-0.5,0.9,0,0.9c1,0,2.1,0,3.1,0.2
						C141.2,208.6,141.2,207.8,140.7,207.8z"/>
					<path class="st6" d="M142.6,208c-1.7,0.7-2.9,1.7-3.9,3.2c-0.3,0.5-1,0-0.9-0.5c1-1.7,2.6-3.1,4.4-3.8
						C142.9,206.8,143.1,207.6,142.6,208z"/>
					<path class="st22" d="M188.4,168.1l-9.1,47.8l36.8,7l9.1-47.8L188.4,168.1z"/>
					<path class="st23" d="M186.6,167.8l-9.1,47.8l36.8,7l9.1-47.8L186.6,167.8z"/>
					<path class="st24" d="M195.9,169.5c0,0,1.5-2.7,4.1-2.1c0,0,1-2.6,3.6-2.6c2.6,0,5.1,0.7,6.7,1.4c1.5,0.9,1.5,3.2,1.5,3.2
						s1.7,0.5,2.4,1.5s0.5,2.1,0.5,2.1L195.9,169.5z"/>
					<path class="st3" d="M173.5,195.2c0,0,2.7-6.5,4.8-8c1.9-1.4,4.1-4.6,5.1-3.4s-1.7,5.1-1.7,5.1L173.5,195.2z"/>
					<path class="st5" d="M178.5,187.5c-0.4,0.3-1,1-1.5,1.8c-0.5,0.8-1.1,1.7-1.5,2.6c-0.3,0.7-0.7,1.3-0.9,1.9l6.8-5.2
						c0,0,0-0.1,0.1-0.1c0.1-0.1,0.2-0.3,0.3-0.5c0.2-0.4,0.5-0.9,0.8-1.4c0.3-0.6,0.5-1.1,0.6-1.6c0.1-0.5,0-0.8-0.1-0.9
						c-0.1-0.1-0.1-0.1-0.2-0.1c-0.1,0-0.2,0-0.3,0.1c-0.3,0.1-0.7,0.4-1.1,0.8c-0.3,0.3-0.7,0.6-1,1c-0.1,0.1-0.3,0.3-0.4,0.4
						C179.5,186.6,179,187.1,178.5,187.5z M181.7,188.8c0.3,0.2,0.3,0.2,0.3,0.2l0,0l0,0l0,0c0,0,0.1-0.1,0.1-0.1
						c0.1-0.1,0.2-0.3,0.3-0.5c0.2-0.4,0.6-0.9,0.8-1.5c0.3-0.6,0.5-1.2,0.7-1.8c0.1-0.6,0.1-1.2-0.3-1.7c-0.2-0.2-0.4-0.4-0.7-0.4
						c-0.3,0-0.5,0-0.8,0.1c-0.5,0.2-0.9,0.6-1.4,1c-0.3,0.3-0.7,0.7-1,1c-0.1,0.1-0.3,0.3-0.4,0.4c-0.5,0.5-1,0.9-1.4,1.2l0,0
						c-0.6,0.4-1.2,1.2-1.7,2c-0.6,0.8-1.1,1.8-1.6,2.7c-0.5,0.9-0.9,1.8-1.2,2.4c-0.1,0.3-0.3,0.6-0.3,0.8c0,0.1-0.1,0.2-0.1,0.2
						l0,0.1l0,0l0,0c-0.1,0.2,0,0.4,0.1,0.5c0.2,0.1,0.4,0.1,0.5,0l8.2-6.3c0,0,0.1-0.1,0.1-0.1L181.7,188.8z"/>
					<path class="st3" d="M170.4,203.5c1.9,3.1,6,3.8,9.2,1.9c1.7-1,3.6-1.9,5.1-2.2c3.9-0.7,8.9-0.3,10.8-1.4
						c2.7-1.4-0.3-2.6-0.7-2.7c-2.6-0.7-6.3-0.9-6.3-0.9s6.7-1.2,9.4-0.7c2.6,0.7,4.6-0.9,2.4-2.9c-2.2-1.9-9.9-2.2-12-1.5
						c0,0,3.9-1.9,7.5-1.2c3.6,0.7,5,0.5,6.3,0c1.4-0.5,0.2-3.2-5-4.1c-5-0.9-7.2,0.2-9.6,0.9c0,0,1.5-1.4,4.4-2.9
						c2.9-1.5,7-0.3,8.2-2.1c1.2-1.7-3.6-2.7-6.5-2.2c-2.9,0.5-5.1,0.7-8.2,2.9c-3.1,2.1-6.1,4.1-7.7,5.8c-1.5,1.7-8,7-8.4,10.2
						C169.6,201.8,169.9,202.7,170.4,203.5z"/>
					<path class="st5" d="M200.9,183.1c0,0.3-0.1,0.6-0.3,0.9c-0.4,0.5-1,0.8-1.6,1c-0.6,0.2-1.4,0.2-2.2,0.3c-0.1,0-0.1,0-0.2,0
						c-1.5,0.1-3.1,0.2-4.4,0.9c-1,0.5-1.8,1-2.4,1.4c0.5-0.1,1-0.2,1.5-0.3c1.5-0.2,3.4-0.3,5.9,0.1c2.6,0.4,4.3,1.4,5.2,2.3
						c0.4,0.5,0.7,1,0.7,1.5c0,0.5-0.3,0.9-0.8,1.1c-1.5,0.6-2.9,0.7-6.6,0c-1.2-0.2-2.4-0.2-3.5,0c0.7,0,1.4,0.1,2.1,0.1
						c1.2,0.1,2.5,0.3,3.6,0.6c1.1,0.3,2.1,0.7,2.7,1.2l0,0c0.6,0.5,0.9,1.1,1.1,1.6c0.1,0.6-0.1,1.1-0.4,1.4
						c-0.7,0.7-2,0.9-3.4,0.5c-1.3-0.2-3.6-0.1-5.6,0.2c0,0-0.1,0-0.1,0c1,0.1,2,0.3,2.8,0.5c0,0,0.1,0,0.1,0c0,0,0,0,0.1,0
						c0.1,0.1,0.4,0.2,0.6,0.3c0.3,0.2,0.7,0.4,1,0.7c0.3,0.3,0.5,0.7,0.4,1.3c-0.1,0.5-0.6,0.9-1.3,1.2c-0.5,0.3-1.3,0.5-2.1,0.6
						c-0.8,0.1-1.7,0.2-2.7,0.3c-0.4,0-0.7,0-1.1,0.1c-1.7,0.1-3.4,0.2-5,0.5c-1.5,0.3-3.3,1.2-5,2.2l0,0c-3.4,2-7.8,1.3-9.8-2l0,0
						c-0.5-0.9-0.9-1.8-0.9-3.3c0,0,0,0,0,0c0.1-0.9,0.6-1.9,1.3-2.9c0.7-1,1.6-2,2.5-3c0.9-1,1.9-1.9,2.7-2.7
						c0.1-0.1,0.2-0.1,0.2-0.2c0.7-0.7,1.3-1.3,1.7-1.6c0.8-0.9,2-1.8,3.3-2.8c1.4-1,2.9-2,4.4-3c2.8-2,5-2.4,7.5-2.8
						c0.3,0,0.6-0.1,0.9-0.2c1.5-0.3,3.5-0.1,5,0.3c0.7,0.2,1.4,0.5,1.8,0.9C200.7,182.5,200.9,182.7,200.9,183.1z M188.5,198.2
						l-0.1-0.4l0,0l0.1,0c0.1,0,0.1,0,0.2,0c0.2,0,0.5-0.1,0.8-0.1c0.7-0.1,1.6-0.2,2.6-0.4c2-0.2,4.4-0.4,5.9-0.1c0,0,0,0,0,0
						c1.2,0.3,2.2,0.1,2.6-0.3c0.2-0.2,0.3-0.4,0.2-0.7c-0.1-0.3-0.3-0.7-0.8-1.2c-0.5-0.4-1.3-0.8-2.3-1c-1-0.3-2.2-0.5-3.5-0.6
						c-1.2-0.1-2.4-0.2-3.4-0.1c-1,0-1.8,0.1-2.3,0.3c-0.2,0.1-0.4,0-0.5-0.2c-0.1-0.2,0-0.4,0.2-0.5l0.2,0.4
						c-0.2-0.4-0.2-0.4-0.2-0.4l0,0l0,0l0,0c0,0,0.1,0,0.1-0.1c0.1-0.1,0.3-0.1,0.5-0.2c0.4-0.2,1.1-0.4,1.8-0.6
						c1.5-0.4,3.4-0.7,5.3-0.3c3.6,0.7,4.8,0.5,6.1,0c0.2-0.1,0.2-0.2,0.2-0.3c0-0.2-0.1-0.5-0.5-0.9c-0.7-0.8-2.2-1.6-4.7-2l0,0
						c-2.4-0.4-4.2-0.4-5.6-0.1c-1.1,0.2-1.9,0.4-2.8,0.7c-0.3,0.1-0.6,0.2-0.9,0.3c-0.2,0.1-0.4,0-0.5-0.2
						c-0.1-0.2-0.1-0.4,0.1-0.5l0.3,0.3c-0.3-0.3-0.3-0.3-0.3-0.3l0,0l0,0l0,0c0,0,0,0,0.1,0c0.1,0,0.1-0.1,0.2-0.2
						c0.2-0.2,0.5-0.4,0.9-0.7c0.8-0.5,1.9-1.3,3.4-2.1c1.5-0.8,3.2-0.9,4.7-1c0.1,0,0.2,0,0.2,0c0.8-0.1,1.5-0.1,2-0.3
						c0.6-0.1,0.9-0.3,1.1-0.7c0.1-0.1,0.1-0.2,0.1-0.3c0-0.1,0-0.2-0.2-0.3c-0.2-0.2-0.7-0.5-1.4-0.7c-1.4-0.4-3.2-0.5-4.6-0.3
						c-0.3,0.1-0.6,0.1-0.9,0.2c-2.5,0.4-4.5,0.7-7.1,2.7l0,0c-1.5,1-3.1,2-4.4,3c-1.3,1-2.5,1.9-3.2,2.7c-0.4,0.4-1,1-1.7,1.7
						c-0.1,0.1-0.2,0.1-0.2,0.2c-0.8,0.8-1.8,1.7-2.7,2.7c-0.9,1-1.8,2-2.5,2.9c-0.7,1-1.1,1.8-1.2,2.5c0,1.3,0.3,2,0.8,2.8
						c1.7,2.8,5.6,3.5,8.6,1.7c1.7-1,3.7-1.9,5.2-2.3l0,0c1.6-0.3,3.5-0.4,5.1-0.5c0.4,0,0.7,0,1-0.1c1-0.1,1.9-0.1,2.7-0.3
						c0.8-0.1,1.4-0.3,1.8-0.5l0,0c0.7-0.3,0.8-0.6,0.9-0.7c0-0.1,0-0.2-0.2-0.4c-0.2-0.2-0.5-0.4-0.8-0.5c-0.2-0.1-0.3-0.2-0.5-0.2
						c0,0-0.1,0-0.1-0.1c-1.2-0.3-2.8-0.5-4-0.7c-0.6-0.1-1.2-0.1-1.6-0.1c-0.2,0-0.3,0-0.5,0l-0.1,0l0,0h0L188.5,198.2z"/>
					<path class="st3" d="M174.3,194.6c0,0-0.2,0.5-2.4,1.4c-2.2,0.9-4.3,3.8-4.3,3.8l2.7,7.9l3.6,0.5c0,0,0.5-0.3,0.7-0.5
						c0.2-0.2,1-0.9,1.2-0.9c0,0,0.7-0.9,1.7-1s-1.2-2.2-1.2-2.2L174.3,194.6z"/>
					<path class="st3" d="M255.7,193.3c0,0-1.5,2.1-3.2,2.6c-1.7,0.5-1.5,1.9-1.5,1.9l4.1,8.7l2.2-0.5c0,0,0.7-0.7,1.2-0.5
						c0.3,0.2,3.2,0.2,3.2,0.2l-2.7-5.8L255.7,193.3z"/>
				</g>
			</g>
		</g>
	</g>
</g>
<path class="st14" d="M193.7,36.5L193.7,36.5c56.3,0,102,45.7,102,102l0,0c0,56.3-45.7,102-102,102l0,0c-56.3,0-102-45.7-102-102
	l0,0C91.7,82.2,137.3,36.5,193.7,36.5z"/>
<g>
	<defs>
		<path id="SVGID_9_" d="M139.2,276L139.2,276c61.3,0,111,49.7,111,111l0,0c0,61.3-49.7,111-111,111l0,0c-61.3,0-111-49.7-111-111
			l0,0C28.2,325.7,77.9,276,139.2,276z"/>
	</defs>
	<clipPath id="SVGID_10_">
		<use xlink:href="#SVGID_9_"  style="overflow:visible;"/>
	</clipPath>
	<g class="st25">
		<path class="st3" d="M139.2,276L139.2,276c61.3,0,111,49.7,111,111l0,0c0,61.3-49.7,111-111,111l0,0c-61.3,0-111-49.7-111-111l0,0
			C28.2,325.7,77.9,276,139.2,276z"/>
		<g>
			<defs>
				<rect id="SVGID_11_" x="28.2" y="301" width="228" height="228"/>
			</defs>
			<clipPath id="SVGID_12_">
				<use xlink:href="#SVGID_11_"  style="overflow:visible;"/>
			</clipPath>
			<g class="st26">
				<defs>
					<filter id="Adobe_OpacityMaskFilter_2_" filterUnits="userSpaceOnUse" x="74.3" y="365.6" width="125.6" height="164.6">
						<feColorMatrix  type="matrix" values="1 0 0 0 0  0 1 0 0 0  0 0 1 0 0  0 0 0 1 0"/>
					</filter>
				</defs>
				<mask maskUnits="userSpaceOnUse" x="74.3" y="365.6" width="125.6" height="164.6" id="mask2_2287_18649_1_">
					<path class="st27" d="M256.2,301h-228v228h228V301z"/>
				</mask>
				<g class="st28">
					<path class="st29" d="M156,517.2C142,521.8,108,533.9,93.1,529c-0.6-0.2-1.1-0.4-1.7-0.8c-1.7-0.8-2.9-1.9-3.8-3.2
						c-5.9-8.9-11.6-46-8.9-67.8c0.4-2.7,0.6-5.7,0.6-8.7c0-4.6,0-9.5-0.2-14.4c-0.8-18.6-3.6-31.4,4.4-35.9c7-4,16.2-7.2,21.9-8.5
						c3.6-0.8,9.3-2.7,13.5-2.5l17.7,3.2c0,0,15.2,2.5,18.8,5.1s5.3,14.1,11.8,24.5c6.3,10.5,7.8,21.1,1.7,32.5
						c-5.9,10.1-4.9,6.3-5.7,22.6C162.3,495.2,183.2,508.1,156,517.2z"/>
					<path class="st3" d="M142.2,388l-1.6,6.8c-1,0.4-2,1-2.8,1.1c-14.2,4.6-25.7-6.8-25.7-6.8l5.3-23.6l21.9,19.8L142.2,388z"/>
					<path class="st12" d="M158.9,395.6c0,0,31.9,43.3,39.3,65c7.2,21.7-10.4,37-10.4,37l-16.5,6.1
						C171.2,503.7,154.3,427.5,158.9,395.6z"/>
					<g class="st30">
						<path class="st31" d="M109.1,423c0,0,19.2-4.9,43.7-0.4l0.6,16.9c0,0-27-3-43.9,1.3L109.1,423z"/>
					</g>
					<g class="st30">
						<path class="st6" d="M131.1,408.5c-0.2,0-0.6,0-0.8,0c-10.4-0.6-20.1-9.7-20.5-10.3c-0.2-0.2-0.4-0.8,0-1
							c0.2-0.2,0.8-0.4,0.9,0c0.2,0,9.7,9.3,19.6,9.7c9.5,0.6,10.6-8.9,10.6-9.3s0.4-0.8,0.8-0.6c0.4,0,0.8,0.4,0.6,0.8
							C142.5,398.1,141.2,408.5,131.1,408.5z"/>
					</g>
					<g class="st30">
						<path class="st31" d="M101.3,493.3c-0.4-0.6-0.4-1,0-1.1c13.7-8.2,26.6-11.2,35.3-12.2c9.3-1.1,15.2-0.2,15.6-0.2
							c0.4,0,0.8,0.4,0.6,0.8c0,0.4-0.4,0.8-0.8,0.6c0,0-6.1-0.9-15.2,0.2c-8.4,1-21.3,3.8-34.6,12
							C101.9,493.5,101.7,493.5,101.3,493.3z"/>
					</g>
					<path class="st32" d="M119.2,523.9c-12.5-4-23.9-12-31.7-19.2c-0.6-0.6-1.1-1.1-1.7-1.7c-4-4-6.8-1.9-8.2-4.2
						c-4.8-8.6-2.1-42.4,0-54.7s-6.5-35.1-1.9-43.3s20.5-11,20.5-11s-2.3-2.7,2.1-5.7c4.2-3,15.6-1.7,15.6-1.7
						C114.2,436.3,121.8,486.1,119.2,523.9z"/>
					<path class="st3" d="M106.8,508.5c-0.4,0-0.6-0.2-0.8-0.6c-5.7-37.2,0-107.4,0-107.9c0-0.4,0.4-0.8,0.8-0.6
						c0.4,0,0.8,0.4,0.6,0.8c0,0.8-5.7,70.5,0,107.7C107.6,508.1,107.2,508.5,106.8,508.5z"/>
					<path class="st6" d="M118.4,514.2c-0.4,0-0.6-0.2-0.8-0.6c-7.4-42.8-8.2-116.7-8.2-117.2c0-0.4,0.4-0.8,0.8-0.8
						s0.8,0.4,0.8,0.8c0,0.8,0.6,74.5,8,117C119.2,513.8,118.8,514,118.4,514.2z"/>
					<path class="st6" d="M105.9,395.8c-6.1-1.5-9.7-5.1-9.9-5.3s-0.2-0.8,0-0.9s0.8-0.2,0.9,0c0,0,3.6,3.4,9.1,4.9
						c0.4,0.2,0.6,0.6,0.6,0.9C106.4,395.6,106.2,395.8,105.9,395.8z"/>
					<path class="st32" d="M173.7,500.5c0,0-4.6,15.2-21.3,22.2c-2.1-41-6.8-87.8-12.9-137.6c0,0,6.5-1.1,9.1,2.5
						c1.1,1.5,1.3,4.2,1.3,4.2s3.2,0.6,6.8,2.3s3.2,4,4,9.7c0.8,5.9,9.9,14.8,12.7,27c2.8,12.2-4.8,20-7.2,30.2
						C164,471.4,173.7,500.5,173.7,500.5z"/>
					<path class="st3" d="M159.4,506.8c-0.4,0-0.8-0.4-0.8-0.8c-1.5-55.7-11.8-105.5-12-106c0-0.4,0.2-0.8,0.6-0.8
						c0.4,0,0.8,0.2,0.8,0.6c0.2,0.6,10.3,50.4,12,106.2C160,506.6,159.8,506.8,159.4,506.8z"/>
					<path class="st6" d="M144.1,397.3c-0.4,0-0.6-0.2-0.8-0.6c0-0.4,0.2-0.8,0.6-0.8c0,0,4.6-0.8,5.5-4c0.2-0.4,0.6-0.6,0.9-0.4
						s0.6,0.6,0.4,0.9C149.6,396.4,144.2,397.3,144.1,397.3z"/>
					<path class="st6" d="M157.7,506.8c-0.4,0-0.6-0.2-0.8-0.6c-4.9-41-12.7-106.8-12.7-107.4c0-0.4,0.2-0.8,0.6-0.8
						c0.4,0,0.8,0.2,0.8,0.6c0,0.6,7.8,66.3,12.7,107.4C158.5,506.4,158.1,506.8,157.7,506.8z"/>
				</g>
				<defs>
					<filter id="Adobe_OpacityMaskFilter_3_" filterUnits="userSpaceOnUse" x="73.4" y="485.9" width="133" height="58.3">
						<feColorMatrix  type="matrix" values="1 0 0 0 0  0 1 0 0 0  0 0 1 0 0  0 0 0 1 0"/>
					</filter>
				</defs>
				<mask maskUnits="userSpaceOnUse" x="73.4" y="485.9" width="133" height="58.3" id="mask3_2287_18649_1_">
					<path class="st33" d="M256.2,301h-228v228h228V301z"/>
				</mask>
				<g class="st34">
					<path class="st35" d="M116.3,536.4c2.1,1.5,5.5,3,10.6,4.8c28.7,9.1,54.9-5.5,54.9-5.5c1.5-7.8,0.6-16.7-2.1-20
						c0.8-1.1,0.2-2.5,0.2-2.5l26.4-27.4c-15,12.4-33.6,16.5-48.1,25.3c-4.2,2.5-8,4.8-10.6,6.3c-4.2,2.3-9.5,2.7-14.8,1.9
						c-10.3-1.3-19.9-6.5-19.9-6.5S80,498,73.9,498.4C69.2,498.4,94.8,525.4,116.3,536.4z"/>
				</g>
				<defs>
					<filter id="Adobe_OpacityMaskFilter_4_" filterUnits="userSpaceOnUse" x="34.6" y="492.2" width="128" height="77.5">
						<feColorMatrix  type="matrix" values="1 0 0 0 0  0 1 0 0 0  0 0 1 0 0  0 0 0 1 0"/>
					</filter>
				</defs>
				<mask maskUnits="userSpaceOnUse" x="34.6" y="492.2" width="128" height="77.5" id="mask4_2287_18649_1_">
					<path class="st36" d="M256.2,301h-228v228h228V301z"/>
				</mask>
				<g class="st37">
					<path class="st20" d="M73.9,498c0,0-20.7-11.2-32.9-2.5c-22,15.8,15.4,46.4,58.1,61.2s56.6,12.9,56.6,12.9s9.3-2.5,6.1-17.7
						c0,0-24.7-9.3-37.4-19.2C111.6,523.1,102.8,511,73.9,498z"/>
				</g>
				<defs>
					<filter id="Adobe_OpacityMaskFilter_5_" filterUnits="userSpaceOnUse" x="115.1" y="481" width="122.8" height="86.7">
						<feColorMatrix  type="matrix" values="1 0 0 0 0  0 1 0 0 0  0 0 1 0 0  0 0 0 1 0"/>
					</filter>
				</defs>
				<mask maskUnits="userSpaceOnUse" x="115.1" y="481" width="122.8" height="86.7" id="mask5_2287_18649_1_">
					<path class="st38" d="M256.2,301h-228v228h228V301z"/>
				</mask>
				<g class="st39">
					<path class="st20" d="M197.8,488.9c0,0,19.8-13.1,32.5-5.5c23.4,13.7-11,47.5-52.2,66.3s-55.1,18-55.1,18s-9.5-1.7-7.6-16.9
						c0,0,23.7-11.6,35.5-22.6S170.3,504.5,197.8,488.9z"/>
					<path class="st35" d="M117.5,554.8c8.7-3,26.2-12.9,46.5-26.8c15.2-10.3,32.9-23.4,35.1-27.5c1.3-2.3,1.5-4,0.6-5.3
						c-1.3-1.9-4.6-1.7-5.9-1.5c-0.4,0-0.6,0.4-0.6,0.8c0,0.4,0.4,0.6,0.8,0.6c1.5-0.2,4-0.2,4.8,1.1c0.8,0.9,0,2.7-0.8,3.8
						c-1.9,3.4-16.5,14.8-34.8,27.2c-15.8,10.6-36.1,23.2-46.4,26.6L117.5,554.8z"/>
				</g>
				<defs>
					<filter id="Adobe_OpacityMaskFilter_6_" filterUnits="userSpaceOnUse" x="49" y="398.3" width="66.7" height="110.4">
						<feColorMatrix  type="matrix" values="1 0 0 0 0  0 1 0 0 0  0 0 1 0 0  0 0 0 1 0"/>
					</filter>
				</defs>
				<mask maskUnits="userSpaceOnUse" x="49" y="398.3" width="66.7" height="110.4" id="mask6_2287_18649_1_">
					<path class="st40" d="M256.2,301h-228v228h228V301z"/>
				</mask>
				<g class="st41">
					<path class="st12" d="M115.7,486.1l-1.5,22.6c0,0-26.8-3.8-40.1-7.2c-3.8-1-8.2-2.3-12.2-4.4c-7.2-3.8-13.3-10.6-12.9-23.8
						c0.2-4.2,0.9-9.1,2.7-14.8c9.9-32.7,25.8-60.2,25.8-60.2c20.7,8.9,19,23.6,19,23.6c-5.9,15.8-19,49.2-19,49.2
						C85.2,480.4,115.7,486.1,115.7,486.1z"/>
					<path class="st6" d="M77.6,471.8c-0.2,0-0.2,0-0.4-0.2c-2.3-1.3-8.5-2.9-8.5-2.9c-0.4,0-0.6-0.4-0.6-0.8s0.4-0.6,0.8-0.6
						c0.2,0,4.6,1.1,7.4,2.3c-0.4-1-1.1-1.9-2.1-3c-0.2-0.4-0.2-0.8,0-0.9c0.4-0.2,0.8-0.2,0.9,0c1.7,1.9,2.7,3.6,2.8,5.1
						c0,0.2,0,0.6-0.4,0.8C77.7,471.8,77.7,471.8,77.6,471.8z"/>
					<path class="st42" d="M62.2,497.1c-7.2-3.8-13.3-10.6-12.9-23.8C55.1,476.4,65,483.8,62.2,497.1z"/>
					<path class="st6" d="M99,482.6C98.8,482.6,98.8,482.6,99,482.6c-13.5-3.4-21.5-10.6-21.8-11c-0.2-0.2-0.4-0.6-0.2-0.8
						c9.5-18.6,15.4-33.4,18.8-46.5c0.2-0.4,0.6-0.6,0.9-0.6c0.4,0.2,0.6,0.6,0.6,1c-3.4,13.1-9.3,27.9-18.8,46.4
						c1.7,1.5,9.3,7.4,20.7,10.3c0.4,0.2,0.6,0.6,0.6,0.8C99.6,482.5,99.2,482.6,99,482.6z"/>
					<path class="st6" d="M93.7,434.8c-0.2,0-0.4,0-0.4-0.2c-0.4-0.2-0.4-0.8-0.2-1l4.9-6.3c0.2-0.4,0.8-0.4,0.9-0.2
						c0.4,0.2,0.4,0.8,0.2,0.9l-4.9,6.3C94.1,434.6,93.9,434.8,93.7,434.8z"/>
				</g>
				<defs>
					<filter id="Adobe_OpacityMaskFilter_7_" filterUnits="userSpaceOnUse" x="103" y="307.4" width="62.6" height="87.3">
						<feColorMatrix  type="matrix" values="1 0 0 0 0  0 1 0 0 0  0 0 1 0 0  0 0 0 1 0"/>
					</filter>
				</defs>
				<mask maskUnits="userSpaceOnUse" x="103" y="307.4" width="62.6" height="87.3" id="mask7_2287_18649_1_">
					<path class="st43" d="M256.2,301h-228v228h228V301z"/>
				</mask>
				<g class="st44">
					<path class="st6" d="M152.6,343.2c0,0,13.9-6,12.9-11.6c-0.7-5.1-6.7-3.3-6.7-3.3s4.7-13,0.1-14.4c-4.6-1.4-8.3,6-8.3,6
						s0.9-14.4-3.9-12.4c-4.6,1.9-3.8,9.7-3.8,9.7s-17.6-2.4-26.3,2.4c-5.9,3.2-6.1,9.6-6.1,9.6s-4.2-1.5-6.7,0.4
						c-2.3,1.8,1.1,6.2,1.1,6.2s-3.4,4-1.1,8.8c2.3,4.8,7.9,13.9,7.9,13.9L152.6,343.2z"/>
					<path class="st3" d="M113.8,387.4l-0.3-17.2l23.9,12.5l2.5,1.2l0.4,10.4"/>
					<path class="st6" d="M140.5,394.7c-0.4,0.1-0.6-0.3-0.5-0.5l-0.4-10l-2.3-1.1l-23.3-12l0.5,19.3c0,0.2-0.3,0.4-0.5,0.5
						c-0.2,0-0.4-0.3-0.5-0.5l-0.4-20.1c0-0.2,0.1-0.4,0.3-0.4c0.2,0,0.4-0.1,0.4-0.1l23.9,12.5l2.5,1.2c0.2,0.1,0.2,0.1,0.3,0.3
						l0.4,10.4C140.8,394.6,140.6,394.6,140.5,394.7z"/>
					<path class="st6" d="M142.1,331.3c0,0,16.6,1.6,10.6,19.1C152.7,350.4,141.7,335.8,142.1,331.3z"/>
					<path class="st3" d="M149.2,357c0,0,3.9-4.7,6.2,0.1c2.1,4.6,0.4,14.1-5.6,12.4L149.2,357z"/>
					<path class="st6" d="M152.1,369.9c-0.7,0.2-1.5,0.1-2.3-0.1c-0.2,0-0.3-0.3-0.3-0.5l-0.7-12.5c0-0.2,0-0.2,0.1-0.4
						c0.2,0,2-2.4,4.2-2.2c1.2,0.1,2.1,0.9,2.8,2.3c1.4,3.2,1.3,8.9-1.1,11.7C154,369.4,153.1,369.7,152.1,369.9z M150.4,369.1
						c1.4,0.3,2.7-0.2,3.6-1.3c2.2-2.6,2.2-7.8,1.1-10.5c-0.6-1-1.3-1.7-2-1.9c-1.4-0.1-2.8,1.4-3.3,1.7L150.4,369.1z"/>
					<path class="st3" d="M113.7,371.9l-0.7-15.6l-0.4-8.3c0,0-1.8-15,12.4-17.7c10.5-2,20.2-0.1,25.2,5.2c1.8,2,2.9,4.6,3.3,7.5
						l0.2,15.1l0,3.7l0.4,11.2c0,0,0.1,14.3-14.9,14.2c-5.4,0-10.2-1.6-14.2-3.7"/>
					<path class="st6" d="M143.5,387.3c-1.3,0.3-2.8,0.4-4.2,0.3c-5,0.1-9.8-1.3-14.4-3.8c-0.2-0.1-0.3-0.3-0.2-0.7
						c0.1-0.2,0.3-0.3,0.7-0.2c4.4,2.4,9.1,3.5,13.9,3.5c4.5,0,7.9-1.3,10.3-3.7c4-3.9,4.1-10,4.1-10l-0.4-11.2l0-3.7l-0.2-15.1
						c-0.4-2.8-1.5-5.3-3.2-7.1c-4.8-5.2-14.3-7.1-24.7-5.1l-0.2,0c-13.4,2.8-11.8,17-11.8,17.2l1.1,23.8c0,0.2-0.3,0.5-0.5,0.5
						c-0.2,0-0.4-0.3-0.5-0.5l-1.1-23.8c0-0.2-1.6-15.2,12.5-18.1l0.2,0c10.8-2.1,20.6,0,25.6,5.4c1.8,2,2.9,4.8,3.3,7.6l0.2,15.1
						l0,3.7l0.4,11.2c0,0.2,0,6.4-4.4,10.8C148.4,385.5,146.1,386.7,143.5,387.3z"/>
					<path class="st45" d="M133.3,354.2c-0.1,1.4-0.6,2.7-1.4,2.6c-0.8,0-1.4-1.3-1.5-2.6c0.1-1.4,0.6-2.6,1.4-2.6
						C132.8,351.6,133.4,352.9,133.3,354.2z"/>
					<path class="st6" d="M148.4,351.3c-0.1,1.4-0.6,2.6-1.4,2.6c-0.8,0-1.4-1.3-1.5-2.6c0.1-1.4,0.6-2.7,1.4-2.6
						C147.9,348.7,148.5,349.8,148.4,351.3z"/>
					<path class="st6" d="M140.3,361.5c-0.4,0.1-0.6-0.3-0.5-0.7c-0.1-0.4,0.3-0.6,0.7-0.5c2.1-0.1,3.3-1.1,3.5-1.7
						c-2.3-4.8-4.7-9.7-4.7-9.7c-0.1-0.4,0.1-0.6,0.2-0.8c0.4-0.1,0.6,0.1,0.8,0.2c0,0,2.4,5.1,4.8,10.1c0,0.2,0.1,0.4-0.1,0.6
						C145,359.2,143.8,361.6,140.3,361.5z"/>
					<path class="st6" d="M126.4,347.7c0.3-1.4,1.6-4.4,6.4-4.6c0.6,0.1,1,0.4,1.3,0.9c0.2,0.7-0.3,1.4-1,1.6
						c-1.3,0.3-3.1,0.8-4.2,3c-0.3,0.6-1.2,0.8-1.8,0.6l-0.2-0.1C126.4,348.9,126.1,348.2,126.4,347.7z"/>
					<path class="st6" d="M151.2,343.3c-1-1.1-3.4-3.1-7.8-0.8c-0.6,0.2-0.7,0.9-0.8,1.4c0.1,0.7,1,1.1,1.6,0.9
						c1.2-0.3,3.1-0.7,5.1,0.6c0.6,0.4,1.5,0.2,1.8-0.5l0.1-0.1C151.5,344.3,151.6,343.8,151.2,343.3z"/>
					<path class="st3" d="M115.2,359.4c0,0-5.7-7.7-9.9-1.6c-3.4,5,3,18,9.8,13.5"/>
					<path class="st6" d="M113.3,372.6c-1.9,0.4-4-0.3-5.7-2.1c-3.2-3.2-5.1-9.6-2.7-13c1.2-1.6,2.6-2.5,4.1-2.6
						c3.5-0.1,6.5,4.1,6.5,4.3c0.2,0.1,0.1,0.6-0.1,0.6c-0.1,0.2-0.6,0.1-0.6-0.1c0,0-2.9-3.9-5.8-3.8c-1.2,0-2.4,0.7-3.2,2.2
						c-2,2.7-0.6,8.5,2.6,11.7c1.2,1.3,3.7,2.9,6.6,1c0.1-0.2,0.6-0.1,0.6,0.1c0.2,0.1,0.1,0.6-0.1,0.6
						C114.7,372.1,114,372.4,113.3,372.6z"/>
					<path class="st6" d="M145.9,367c0,0-8.2,0.9-12.6-0.7c0,0,0,8.2,6.8,7.5C145.6,373.2,145.9,367,145.9,367z"/>
					<path class="st6" d="M114.5,369c-0.4,0.1-0.6-0.3-0.5-0.5c-0.6-5.9-5.5-7.8-5.7-7.9c-0.2-0.1-0.5-0.5-0.3-0.7
						c0.1-0.2,0.5-0.5,0.7-0.3c0.2,0.1,5.7,2.3,6.5,8.9C115,368.7,114.9,369,114.5,369z"/>
					<path class="st6" d="M108.9,365.4c-0.2,0-0.2,0-0.4-0.1c-0.3-0.3-0.1-0.6,0-0.8c0.1-0.2,2.3-1.8,4.2-1.4
						c0.4,0.1,0.5,0.5,0.3,0.7c-0.1,0.4-0.5,0.5-0.7,0.3c-1-0.2-2.6,0.7-3,1.2C109.2,365.3,109.1,365.5,108.9,365.4z"/>
					<path class="st6" d="M150.5,335c-0.1,0.4-1.6,1.7-1.9,2.1c-2.9,2.9-9.7,2-16.1,0.1c-6.2-2-10.7,2.6-10.7,2.6
						c1.6,6.1-4.3,6.5-2.9,11.1s0.7,10.7,0.7,10.7l-3.8-0.6c-0.8-2.2-2.5-3.6-3.6-4.3l-3.2-10.8c0,0,1-15.9,15.1-18.7
						C134.5,325.1,149.7,323.7,150.5,335z"/>
					<path class="st6" d="M119.7,362.3l-0.2,0l-3.8-0.6c-0.2,0-0.4-0.3-0.5-0.5c-0.8-2-2.4-3.4-3.3-4c-0.2-0.1-0.2-0.1-0.3-0.3
						l-3.4-10.9l0-0.2c0-0.2,1.2-16.6,15.8-19.4c11.3-2.4,19.4-1.9,23.7,1.3c2.1,1.7,3.3,4,3.6,7l0,0.2c-0.1,0.4-0.4,0.9-1.2,1.6
						c-0.3,0.3-0.7,0.5-0.6,0.7c-3.4,3.4-11,2.1-16.8,0.4c-5-1.5-8.7,1.2-9.6,2.2c0.7,3.3-0.7,5.2-1.7,6.6c-0.9,1.3-1.8,2.3-1.3,4.1
						c1.3,4.6,0.7,10.7,0.7,10.9c0,0.2-0.1,0.4-0.3,0.4C119.9,362.3,119.9,362.3,119.7,362.3z M116.2,360.3l2.6,0.4
						c0-1.8,0.2-6.3-0.7-9.8c-0.7-2.6,0.5-4,1.4-5.3c1.1-1.4,2.3-2.8,1.5-5.8c0-0.2,0.1-0.6,0.3-0.6c0.1-0.2,4.8-4.9,11.5-2.8
						c7.7,2.3,13.1,2.3,15.4,0.1c0-0.2,0.3-0.5,0.8-0.9c0.3-0.3,0.6-0.7,0.8-0.9c-0.1-2.5-1.3-4.4-3-5.8c-3.9-2.9-11.8-3.4-22.6-1.1
						c-12.9,2.5-14.4,16.4-14.5,18l3.1,10.4C113.7,357,115.4,358.4,116.2,360.3z"/>
				</g>
				<defs>
					<filter id="Adobe_OpacityMaskFilter_8_" filterUnits="userSpaceOnUse" x="111.6" y="394.5" width="79.4" height="27.9">
						<feColorMatrix  type="matrix" values="1 0 0 0 0  0 1 0 0 0  0 0 1 0 0  0 0 0 1 0"/>
					</filter>
				</defs>
				<mask maskUnits="userSpaceOnUse" x="111.6" y="394.5" width="79.4" height="27.9" id="mask8_2287_18649_1_">
					<path class="st46" d="M256.2,301h-228v228h228V301z"/>
				</mask>
				<g class="st47">
					<path class="st48" d="M191,394.5c0,0-18.6,9.5-23,27.7C186,402.3,191,394.5,191,394.5z"/>
					<path class="st48" d="M159.8,421.3c0,0-3.6-7.6-22.4-16.5c-11.4-5.3-20.9-6.8-25.8-6.5C131.7,408.5,159.8,421.3,159.8,421.3z"
						/>
					<path class="st48" d="M168,422c0,0-1.3-3.4-4.4-3.4c-3,0-4.4,3.8-4.4,3.8L168,422z"/>
				</g>
				<defs>
					<filter id="Adobe_OpacityMaskFilter_9_" filterUnits="userSpaceOnUse" x="148" y="394.5" width="42.9" height="102.4">
						<feColorMatrix  type="matrix" values="1 0 0 0 0  0 1 0 0 0  0 0 1 0 0  0 0 0 1 0"/>
					</filter>
				</defs>
				<mask maskUnits="userSpaceOnUse" x="148" y="394.5" width="42.9" height="102.4" id="mask9_2287_18649_1_">
					<path class="st49" d="M256.2,301h-228v228h228V301z"/>
				</mask>
				<g class="st50">
					<path class="st11" d="M168,422l23-27.5l-19.9,75l-23,27.4l0.8-4.2L168,422z"/>
				</g>
				<defs>
					<filter id="Adobe_OpacityMaskFilter_10_" filterUnits="userSpaceOnUse" x="90.1" y="397.5" width="69.7" height="98.2">
						<feColorMatrix  type="matrix" values="1 0 0 0 0  0 1 0 0 0  0 0 1 0 0  0 0 0 1 0"/>
					</filter>
				</defs>
				<mask maskUnits="userSpaceOnUse" x="90.1" y="397.5" width="69.7" height="98.2" id="mask10_2287_18649_1_">
					<path class="st51" d="M256.2,301h-228v228h228V301z"/>
				</mask>
				<g class="st52">
					<path class="st11" d="M159.8,421.3l-49.6-23.8l-20.1,74.7l49,23.6L159.8,421.3z"/>
				</g>
				<defs>
					<filter id="Adobe_OpacityMaskFilter_11_" filterUnits="userSpaceOnUse" x="139.1" y="421.3" width="28.9" height="75.6">
						<feColorMatrix  type="matrix" values="1 0 0 0 0  0 1 0 0 0  0 0 1 0 0  0 0 0 1 0"/>
					</filter>
				</defs>
				<mask maskUnits="userSpaceOnUse" x="139.1" y="421.3" width="28.9" height="75.6" id="mask11_2287_18649_1_">
					<path class="st53" d="M256.2,301h-228v228h228V301z"/>
				</mask>
				<g class="st54">
					<path class="st24" d="M168,422l-8.2-0.8l-20.7,74.5l8.9,1.1L168,422z"/>
				</g>
				<defs>
					<filter id="Adobe_OpacityMaskFilter_12_" filterUnits="userSpaceOnUse" x="104.9" y="472" width="57" height="36.1">
						<feColorMatrix  type="matrix" values="1 0 0 0 0  0 1 0 0 0  0 0 1 0 0  0 0 0 1 0"/>
					</filter>
				</defs>
				<mask maskUnits="userSpaceOnUse" x="104.9" y="472" width="57" height="36.1" id="mask12_2287_18649_1_">
					<path class="st55" d="M256.2,301h-228v228h228V301z"/>
				</mask>
				<g class="st56">
					<path class="st3" d="M108.5,490.4l10.6,1.5c0,0,5.3-8.4,6.1-9.7c0.8-1.3,10.3-3.4,14.8-6.1s5.3-3.8,5.3-3.8s2.5,3,0,6.8
						c-3.2,4.6-5.1,5.1-5.1,5.1s13.1-0.6,15.4-0.8c2.1-0.2,3.8,0,3.8,0l2.1-2.3c0,0,0.4,4.9-4.8,8.2c-3.8,0.8-3.8,0.8-3.8,0.8
						s4-0.2,5.1,0.8c1.1,0.8-1.9,5.1-4.8,9.1c-2.9,4-10.1,4.9-12.9,5.3c-2.8,0.4-7,2.1-10.4,2.1c-3.4,0-8.4-1.3-11.4-1.1
						c-3.2,0.2-13.1,0.4-13.1,0.4S104.2,496.3,108.5,490.4z"/>
					<path class="st6" d="M130,508.1c-1.7,0-3.6-0.4-5.5-0.6c-2.1-0.4-4.2-0.6-5.9-0.6c-3.2,0.2-13.1,0.4-13.1,0.4
						c-0.2,0-0.4-0.2-0.4-0.4c0-0.4-1.3-10.6,3-16.7c0.2-0.2,0.2-0.2,0.4-0.2l10.3,1.5c0.9-1.3,5.3-8.2,5.9-9.5
						c0.4-0.8,2.5-1.5,6.1-2.7c3-1,6.6-2.3,8.9-3.6c4.4-2.5,5.1-3.6,5.1-3.6c0-0.2,0.2-0.2,0.4-0.2c0.2,0,0.2,0,0.4,0.2
						c0,0,2.7,3.4,0,7.4c-1.5,2.3-2.8,3.6-3.8,4.4c3.6-0.2,12-0.6,13.7-0.8c1.7-0.2,3,0,3.6,0l1.9-2.1c0.2-0.2,0.4-0.2,0.6-0.2
						s0.4,0.2,0.4,0.4s0.4,5.3-4.9,8.5h-0.2h-0.2c0.8,0.2,1.3,0.4,1.7,0.6c0.2,0.2,0.4,0.4,0.4,0.6c0.2,1.3-1.5,4.2-5.1,9.1
						c-3,4.2-10.1,5.1-13.3,5.5c-1.1,0.2-2.5,0.6-3.8,0.9C134.6,507.3,132.1,508.1,130,508.1z M119.2,505.8c1.5,0,3.4,0.2,5.3,0.6
						c1.9,0.4,3.8,0.6,5.5,0.6c2.1,0,4.4-0.6,6.5-1.1c1.3-0.4,2.8-0.8,4-1c2.7-0.4,9.9-1.3,12.5-5.1c1.7-2.5,5.1-7.2,4.9-8.4
						c-0.8-0.8-3.4-0.8-4.9-0.8c-0.2,0-0.4-0.2-0.6-0.4c0-0.2,0.2-0.4,0.4-0.6l3.8-0.8c3.2-2.1,4.2-4.8,4.4-6.5l-1.1,1.3
						c-0.2,0.2-0.2,0.2-0.4,0.2c0,0-1.7-0.2-3.8,0c-2.3,0.2-14.8,0.8-15.4,0.8c-0.2,0-0.4-0.2-0.6-0.4c0-0.2,0.2-0.4,0.4-0.6
						c0,0,1.9-0.6,4.9-4.9c1.7-2.7,0.8-4.9,0.4-5.9c-0.6,0.6-2.1,1.7-4.9,3.4c-2.3,1.3-5.9,2.5-9.1,3.6c-2.3,0.8-5.3,1.7-5.7,2.3
						c-0.8,1.3-5.9,9.3-6.1,9.7c-0.2,0.2-0.2,0.2-0.4,0.2l-10.4-1.5c-3.6,4.9-3,13.3-2.8,15.4c1.9,0,9.9-0.2,12.7-0.4
						C118.8,505.8,119,505.8,119.2,505.8z"/>
				</g>
				<defs>
					<filter id="Adobe_OpacityMaskFilter_13_" filterUnits="userSpaceOnUse" x="162.1" y="430.2" width="24.1" height="37.4">
						<feColorMatrix  type="matrix" values="1 0 0 0 0  0 1 0 0 0  0 0 1 0 0  0 0 0 1 0"/>
					</filter>
				</defs>
				<mask maskUnits="userSpaceOnUse" x="162.1" y="430.2" width="24.1" height="37.4" id="mask13_2287_18649_1_">
					<path class="st57" d="M256.2,301h-228v228h228V301z"/>
				</mask>
				<g class="st58">
					<path class="st3" d="M185.9,449.2c0-1.1-2.8-9.3-3.8-10.8c-0.9-1.5-4.9-3.8-8-5.3c-3-1.5-4.9-2.3-4.9-2.3s-1.7,1.7,0.6,4.6
						c2.5,2.9,4,4.4,4,4.4l1.1,5.1c0,0-9.5-2.1-11.8,0c-2.5,2.1,5.1,4.2,5.1,5.5c0.2,1.3-2.1-1.3-3.2,0.2s-0.4,4.6-0.6,5.1
						c-0.2,0.8-0.9,1.9,0.8,4.6c1.7,2.9,2.8,6.1,4.9,6.8c2.3,0.8,6.8-3.4,8.4-6.8C180.3,456.8,185.9,451.5,185.9,449.2z"/>
					<path class="st6" d="M170.7,467.6c-0.2,0-0.6,0-0.8-0.2c-1.7-0.6-2.9-2.7-4-4.9c-0.4-0.8-0.8-1.5-1.1-2.1
						c-1.5-2.5-1.1-3.8-0.9-4.6c0-0.2,0-0.2,0-0.4s0-0.6,0-1c0-1.3-0.2-3.2,0.8-4.4c0.8-1.1,1.9-0.6,2.7-0.4
						c-0.4-0.4-1.1-0.8-1.7-0.9c-1.7-1-3.4-1.9-3.4-3c0-0.6,0.2-1,0.6-1.3c2.1-1.9,9.1-0.8,11.4-0.2l-0.9-4.4
						c-0.4-0.4-1.9-1.9-4-4.4c-2.3-3-0.4-5.1-0.4-5.1c0.2-0.2,0.4-0.2,0.6-0.2c0,0,1.9,0.8,4.9,2.3c2.1,0.9,7,3.6,8.2,5.5
						c0.9,1.5,3.8,9.9,3.8,11c0,1.5-1.9,4-4,6.6c-1.3,1.7-2.7,3.4-3.4,4.8C177.5,463.5,173.5,467.6,170.7,467.6z M165.9,450.5
						c-0.2,0-0.4,0-0.6,0.4c-0.8,0.9-0.6,2.7-0.6,3.8c0,0.6,0,1,0,1.3c0,0,0,0.2-0.2,0.4c-0.2,0.8-0.6,1.7,0.8,3.8
						c0.4,0.8,0.8,1.5,1.3,2.3c1.1,2.1,2.1,4,3.4,4.4c1.9,0.6,6.3-3,7.8-6.6c0.8-1.5,2.3-3.2,3.6-4.9c1.7-2.3,3.8-4.8,3.8-5.9
						c0-1-2.9-9.1-3.8-10.6c-0.8-1.3-4.6-3.6-7.8-5.1c-2.3-1.1-4-1.9-4.6-2.1c-0.4,0.6-0.8,1.7,0.8,3.6c2.5,2.8,4,4.4,4,4.4l0.2,0.2
						l1.1,5.1c0,0.2,0,0.4-0.2,0.4c-0.2,0.2-0.2,0.2-0.4,0.2c-2.7-0.6-9.7-1.7-11.4-0.2c-0.2,0.2-0.2,0.4-0.2,0.6
						c0,0.8,1.7,1.7,3,2.3c1.5,0.8,2.7,1.5,2.7,2.3c0,0.4,0,0.6-0.2,0.8c-0.4,0.2-0.8,0-1.3-0.2
						C166.7,450.7,166.3,450.5,165.9,450.5z"/>
				</g>
				<defs>
					<filter id="Adobe_OpacityMaskFilter_14_" filterUnits="userSpaceOnUse" x="49" y="398.3" width="66.7" height="110.4">
						<feColorMatrix  type="matrix" values="1 0 0 0 0  0 1 0 0 0  0 0 1 0 0  0 0 0 1 0"/>
					</filter>
				</defs>
				<mask maskUnits="userSpaceOnUse" x="49" y="398.3" width="66.7" height="110.4" id="mask14_2287_18649_1_">
					<path class="st59" d="M256.2,301h-228v228h228V301z"/>
				</mask>
				<g class="st60">
					<path class="st12" d="M115.7,486.1l-1.5,22.6c0,0-26.8-3.8-40.1-7.2c-3.8-1-8.2-2.3-12.2-4.4c-7.2-3.8-13.3-10.6-12.9-23.8
						c0.2-4.2,0.9-9.1,2.7-14.8c9.9-32.7,25.8-60.2,25.8-60.2c20.7,8.9,19,23.6,19,23.6c-5.9,15.8-19,49.2-19,49.2
						C85.2,480.4,115.7,486.1,115.7,486.1z"/>
					<path class="st6" d="M77.6,471.8c-0.2,0-0.2,0-0.4-0.2c-2.3-1.3-8.5-2.9-8.5-2.9c-0.4,0-0.6-0.4-0.6-0.8s0.4-0.6,0.8-0.6
						c0.2,0,4.6,1.1,7.4,2.3c-0.4-1-1.1-1.9-2.1-3c-0.2-0.4-0.2-0.8,0-0.9c0.4-0.2,0.8-0.2,0.9,0c1.7,1.9,2.7,3.6,2.8,5.1
						c0,0.2,0,0.6-0.4,0.8C77.7,471.8,77.7,471.8,77.6,471.8z"/>
					<path class="st42" d="M62.2,497.1c-7.2-3.8-13.3-10.6-12.9-23.8C55.1,476.4,65,483.8,62.2,497.1z"/>
					<path class="st6" d="M99,482.6C98.8,482.6,98.8,482.6,99,482.6c-13.5-3.4-21.5-10.6-21.8-11c-0.2-0.2-0.4-0.6-0.2-0.8
						c9.5-18.6,15.4-33.4,18.8-46.5c0.2-0.4,0.6-0.6,0.9-0.6c0.4,0.2,0.6,0.6,0.6,1c-3.4,13.1-9.3,27.9-18.8,46.4
						c1.7,1.5,9.3,7.4,20.7,10.3c0.4,0.2,0.6,0.6,0.6,0.8C99.6,482.5,99.2,482.6,99,482.6z"/>
					<path class="st6" d="M93.7,434.8c-0.2,0-0.4,0-0.4-0.2c-0.4-0.2-0.4-0.8-0.2-1l4.9-6.3c0.2-0.4,0.8-0.4,0.9-0.2
						c0.4,0.2,0.4,0.8,0.2,0.9l-4.9,6.3C94.1,434.6,93.9,434.8,93.7,434.8z"/>
				</g>
			</g>
		</g>
	</g>
</g>
<path class="st14" d="M139.2,278.5L139.2,278.5c59.9,0,108.5,48.6,108.5,108.5l0,0c0,59.9-48.6,108.5-108.5,108.5l0,0
	c-59.9,0-108.5-48.6-108.5-108.5l0,0C30.7,327.1,79.2,278.5,139.2,278.5z"/>
<g>
	<path class="st3" d="M627.1,154.9l-23.5-7l14.1-20.1L627.1,154.9z"/>
	<path class="st3" d="M620.4,105L781,49.3c5.2-1.8,10.9,1,12.7,6.2l16.4,47.2c1.8,5.2-1,10.9-6.2,12.7l-160.6,55.7
		c-5.2,1.8-10.9-1-12.7-6.2l-16.4-47.2C612.4,112.5,615.2,106.8,620.4,105z"/>
	<path class="st61" d="M656.4,144.4l-3.8,1.3l-4.1-11.9l-4.2,1.4l4.1,11.9l-3.8,1.3l-9.2-26.5l3.8-1.3l3.9,11.2l4.2-1.4l-3.9-11.2
		l3.8-1.3L656.4,144.4z M729.8,118.9l-4,1.4l-7.3-10.8l-1.9,0.7l4.1,11.9l-3.8,1.3l-9.2-26.5l8-2.8c1-0.3,2-0.3,3,0.2
		c1,0.5,1.6,1.2,2,2.3l2.2,6.4c0.4,1,0.3,2-0.1,3c-0.3,0.6-0.7,1-1.1,1.3L729.8,118.9z M719.3,104.3l-2-5.8
		c-0.1-0.2-0.3-0.4-0.5-0.5c-0.3-0.1-0.5-0.2-0.7-0.1l-3.2,1.1l2.7,7.7l3.2-1.1c0.2-0.1,0.4-0.3,0.5-0.5
		C719.3,104.9,719.4,104.6,719.3,104.3z"/>
	<path class="st62" d="M665.3,141.3l-3.8,1.3l-9.2-26.5l3.8-1.3L665.3,141.3z M739.2,115.7l-3.8,1.3l-4.1-11.9l-9.7-12.9l3.8-1.3
		l4.8,7l1.5,2.2l0.2-0.1l-0.2-2.6l-0.6-8.5l3.6-1.2l0.4,16.2L739.2,115.7z"/>
	<path class="st63" d="M685.6,134.3l-9.4,3.3l-9.2-26.5l9.4-3.3l1.2,3.4l-5.7,2l2.7,7.8l4.6-1.6l1.2,3.4l-4.6,1.6l3,8.5l5.7-2
		L685.6,134.3z M753.9,110.6l-4.2,1.4c-1,0.4-2.1,0.3-3.1-0.2c-1-0.5-1.6-1.2-2-2.3L738,90.6c-0.4-1-0.3-2,0.2-3
		c0.5-1,1.3-1.7,2.3-2.1l4.2-1.4c1-0.4,2-0.3,3,0.2c1,0.5,1.7,1.2,2.1,2.3l6.6,18.9c0.4,1,0.3,2-0.2,3
		C755.7,109.5,754.9,110.2,753.9,110.6z M752.3,106.2l-6.2-17.8c-0.1-0.2-0.3-0.4-0.5-0.5c-0.3-0.1-0.5-0.2-0.7-0.1l-2.3,0.8
		c-0.2,0.1-0.4,0.3-0.6,0.5c-0.1,0.2-0.1,0.5-0.1,0.7l6.2,17.7c0.1,0.2,0.3,0.4,0.5,0.6c0.3,0.1,0.5,0.2,0.8,0.1l2.3-0.8
		c0.3-0.1,0.4-0.3,0.6-0.5C752.4,106.7,752.4,106.5,752.3,106.2z"/>
	<path class="st64" d="M696.1,130.6l-4.2,1.4l-13.9-24.8l4-1.4l8.3,16.2l1.6,3.6l0.2-0.1l-1-3.8l-3.5-17.9l3.8-1.3L696.1,130.6z
		 M775.2,103.1l-3.8,1.3L761.4,91l-2.2-3.5l-0.2,0.1l4.4,10.5l2.8,8.2l-3.8,1.3l-9.2-26.5l3.8-1.3l10.1,13.4l2.2,3.5l0.3-0.1
		l-4.4-10.6l-2.8-8.1l3.8-1.3L775.2,103.1z"/>
	<path class="st65" d="M713.3,124.7l-9.4,3.3l-9.2-26.5l9.4-3.3l1.2,3.4l-5.7,2l2.7,7.7l4.6-1.6l1.2,3.4l-4.6,1.6l3,8.5l5.7-2
		L713.3,124.7z M789.8,98.1l-9.4,3.3l-9.2-26.5l9.4-3.3l1.2,3.4l-5.7,2l2.7,7.7l4.6-1.6l1.2,3.4l-4.6,1.6l3,8.5l5.7-2L789.8,98.1z"
		/>
</g>
</svg>
