<svg width="352" height="244" viewBox="0 0 352 244" fill="none" xmlns="http://www.w3.org/2000/svg">
<path d="M117.629 67.8045C76.3099 38.2114 39.9496 46.9709 35.6998 110.655C-12.4659 123.203 3.11734 188.545 57.6577 188.545C67.338 252.939 136.753 264.066 172.405 195.173C196.724 253.649 281.251 239.839 271.57 173.313C327.764 211.666 374.039 137.408 318.555 74.4334C337.207 -3.45582 238.751 -21.2119 213.724 38.2114C189.405 -21.2116 107.948 6.96101 117.629 67.8045Z" fill="#F2F2F2"/>
<path d="M72.6694 196.949C72.6694 196.949 71.3814 182.522 76.6754 173.402C81.9694 164.281 81.9421 153.548 81.9421 153.548L85.389 158.338C86.1238 159.358 85.7487 163.379 85.711 164.497C85.4919 170.946 82.7103 176.488 82.3991 182.973C82.167 187.755 81.7428 194.815 84.2306 199.335C84.2306 199.335 77.3963 202.554 72.6657 196.954L72.6694 196.949Z" fill="#C3121D"/>
<path d="M67.7098 172.762C67.7098 172.762 77.8622 170.122 82.4907 162.709C87.1233 155.29 94.4021 152.456 94.4021 152.456L90.149 150.488C89.2422 150.071 86.6295 151.493 85.8794 151.823C81.5705 153.748 78.633 157.848 74.33 159.87C71.1556 161.364 66.4996 163.646 62.7088 162.508C62.7088 162.508 62.5297 169.804 67.7098 172.762Z" fill="#C3121D"/>
<path d="M61.7892 79.2238C61.7892 79.2238 53.8407 85.0125 44.8746 98.7894C45.286 98.4653 59.1458 116.31 60.202 117.624C68.5198 127.973 76.1045 138.758 82.5936 150.619C84.875 154.785 87.0457 158.997 89.3549 163.143C91.6277 167.223 93.9053 171.309 96.0694 175.456C101.681 186.207 107.864 204.984 107.864 204.984L110.221 196.643L72.0996 103.728L80.7832 89.6941L61.7897 79.2288L61.7892 79.2238Z" fill="#A6A8A8"/>
<path d="M128.401 195.215C128.941 192.305 128.422 189.842 128.422 189.842C128.422 189.842 110.684 148.446 104.057 132.188C97.43 115.929 84.2731 78.7348 84.2731 78.7348L55.1783 95.8431C58.0887 99.3595 82.1 141.028 89.4432 153.514C96.7864 166 113.15 200.003 113.15 200.003C113.988 200.791 114.927 201.292 115.885 201.603C121.445 203.396 127.285 201.23 128.4 195.21L128.401 195.215Z" fill="white"/>
<path opacity="0.32" d="M119.486 202.161C118.98 201.875 118.493 201.525 118.033 201.094C118.033 201.094 101.002 165.395 93.3614 152.292C86.2835 140.154 64.3199 101.736 58.7131 93.2079L54.166 95.891C57.0658 99.4059 80.9905 141.058 88.3072 153.538C95.6239 166.019 111.929 200.009 111.929 200.009C112.764 200.796 113.699 201.297 114.654 201.608C116.286 202.137 117.937 202.316 119.49 202.161L119.486 202.161Z" fill="#B8BABA"/>
<path d="M55.4198 96.8814C53.3137 93.2879 57.5755 83.7194 66.2138 78.7263C74.852 73.7332 84.5891 75.1986 86.6952 78.7921C88.8013 82.3855 83.5094 89.3485 74.8712 94.3416C66.2335 99.3398 57.5259 100.475 55.4198 96.8814Z" fill="#C4C7C7"/>
<path d="M69.3078 96.7903C69.2212 96.6476 69.1417 96.4844 69.084 96.3056C68.2373 93.6744 74.6681 89.7056 74.6681 89.7056L78.973 91.2956C80.8853 89.8382 82.5132 88.3167 83.7861 86.8139L83.7633 86.7372C83.7633 86.7372 81.3269 82.9267 75.1286 83.7521C74.0869 83.8898 73.1089 84.1755 72.2088 84.568C72.2088 84.568 68.9486 85.8226 66.3868 88.644C61.6368 93.3096 62.5397 96.9805 63.3027 98.5364C65.1467 98.2223 67.1807 97.6348 69.3031 96.7904L69.3078 96.7903Z" fill="#B8BABA"/>
<path d="M68.9339 96.2157C68.9917 96.3944 69.0659 96.5526 69.1577 96.7003C70.9104 95.9976 72.7233 95.1201 74.5307 94.0685C76.0779 93.1679 77.5191 92.2017 78.8254 91.206L74.522 89.6168C74.522 89.6168 68.0878 93.5852 68.9386 96.2156L68.9339 96.2157Z" fill="#A6A8A8"/>
<path d="M111.608 147.15C110.937 142.907 107.898 139.303 107.898 139.303C107.898 139.303 103.958 155.815 85.6143 153.396C86.5371 157.55 90.1786 161.343 90.1786 161.343C108.522 163.761 111.604 147.15 111.604 147.15L111.608 147.15Z" fill="#740C19"/>
<path d="M178.494 124.837L170.815 124.788L173.936 182.961L183.299 181.874L178.494 124.837Z" fill="#BE6622"/>
<path d="M170.716 121.924C170.716 121.924 171.013 179.652 203.808 182.615L202.272 172.294C202.272 172.294 186.618 169.677 183.051 144.837C179.534 119.998 179.484 121.479 179.484 121.479L170.716 121.924Z" fill="#D79F43"/>
<path d="M179.237 134.418C179.187 134.418 179.138 134.418 179.088 134.418L174.481 134.911C173.391 135.01 172.252 134.714 171.41 134.023C170.518 133.331 169.973 132.294 169.874 131.208C169.775 130.121 170.072 128.986 170.766 128.146C171.459 127.257 172.45 126.714 173.589 126.615L178.196 126.121C179.286 126.023 180.426 126.319 181.268 127.01C182.159 127.702 182.704 128.739 182.803 129.825C182.903 130.911 182.605 132.047 181.912 132.887C181.218 133.726 180.277 134.269 179.237 134.418ZM173.49 127.257C172.599 127.405 171.806 127.85 171.261 128.541C170.667 129.282 170.369 130.22 170.468 131.158C170.567 132.097 171.013 132.936 171.756 133.529C172.499 134.121 173.441 134.418 174.382 134.319L178.989 133.825C179.93 133.726 180.772 133.282 181.367 132.541C181.961 131.8 182.259 130.862 182.159 129.924C182.06 128.986 181.615 128.146 180.871 127.553C180.128 126.961 179.187 126.665 178.246 126.763L173.639 127.257C173.589 127.257 173.54 127.257 173.49 127.257Z" fill="#BE6622"/>
<path d="M159.867 44.9853C159.867 44.9853 184.834 105.726 202.52 119.356C203.461 119.553 206.235 119.998 209.158 118.516C213.517 116.343 214.508 111.849 214.657 111.207C208.811 101.528 203.164 90.8124 197.12 79.3556C188.352 62.8124 179.633 44.9853 179.782 39.9483C177.007 36.689 172.648 35.2569 168.487 36.1952C164.177 37.1829 160.808 40.6396 159.867 44.9853Z" fill="#C3121D"/>
<path d="M191.82 70.5656C196.674 62.9607 201.529 55.4051 206.384 47.8002C204.601 44.1459 202.025 39.5533 198.359 35.3064C193.702 29.8743 189.194 27.2076 186.123 25.8249C184.092 24.8866 181.218 23.3064 178.296 25.0841C172.846 28.4916 161.254 32.5903 159.768 44.9854C159.768 44.9854 167.1 44.0471 169.28 44.294C171.558 44.5409 187.361 57.5286 191.82 70.5656Z" fill="#221648"/>
<path d="M194.156 50.2528C182.218 36.0306 165.969 33.2158 165.82 33.1664L166.316 32.6725C166.464 32.7219 182.515 35.438 194.652 49.8083L194.156 50.2528Z" fill="#625781"/>
<path d="M198.666 44.0311C193.068 36.0312 173.35 27.8827 173.499 27.7346C173.895 27.3395 174.49 27.2404 174.49 27.2404C175.282 27.5861 193.514 35.5373 199.211 43.6361L198.666 44.0311Z" fill="#625781"/>
<path d="M146.294 145.578L138.566 145.479L141.687 203.652L151.099 202.565L146.294 145.578Z" fill="#C67E2D"/>
<path d="M138.466 142.664C138.466 142.664 138.764 200.392 171.558 203.355L170.022 193.034C170.022 193.034 154.368 190.417 150.802 165.578C147.284 140.738 147.235 142.22 147.235 142.22L138.466 142.664Z" fill="#E3A847"/>
<path d="M130.194 70.2696C130.194 70.2696 124.546 135.751 136.98 155.751C137.922 156.344 140.844 157.973 145.006 157.924C151.148 157.924 154.864 154.27 155.359 153.825C154.121 142.566 153.724 130.467 153.279 117.529C152.585 98.8128 152.684 79.0103 155.656 74.5659C154.319 70.4177 150.158 67.2078 144.907 66.2202C139.408 65.2325 134.058 63.8004 130.194 70.2696Z" fill="#C3121D"/>
<path d="M159.619 93.7748C164.474 85.7748 169.329 77.7749 174.184 69.7749C172.4 65.923 169.824 61.0835 166.159 56.5897C161.502 50.8613 156.994 48.0465 153.972 46.6144C151.941 45.6267 149.068 43.9477 146.145 45.8736C140.696 49.4292 131.68 57.2317 130.194 70.2687C130.194 70.2687 134.949 65.8736 137.129 66.1205C139.358 66.3674 155.161 80.0464 159.619 93.7748Z" fill="#221648"/>
<path d="M162.839 74.1201C156.746 66.8608 147.928 60.441 142.479 57.725C139.556 56.2929 134.85 57.1818 134.801 57.1818C134.801 57.1818 134.999 56.7373 135.147 56.6386C135.197 56.5892 136.733 55.009 142.677 56.9349C148.424 58.762 157.341 66.5645 163.335 73.6756L162.839 74.1201Z" fill="#625781"/>
<path d="M166.703 64.8371C161.105 56.8371 142.182 49.0346 141.984 48.9852L142.578 48.4914C143.371 48.8371 161.601 56.2939 167.298 64.442L166.703 64.8371Z" fill="#625781"/>
<path d="M304.767 162.467C304.866 173.331 304.817 186.121 294.959 192.492C283.218 200.047 270.635 206.171 257.656 211.158C247.303 215.109 232.491 214.27 221.097 213.825C220.453 213.776 219.759 213.776 219.115 213.726C204.353 213.183 182.209 215.455 171.856 203.06C169.973 200.837 168.487 198.121 167.496 194.862V194.813C165.465 187.998 167.05 181.529 166.406 174.665C166.357 174.171 166.307 173.677 166.258 173.134C165.713 168.837 164.821 164.689 164.474 160.294C163.434 146.22 160.412 132.492 157.688 118.714C156.845 114.319 156.003 109.875 155.409 105.381C153.972 95.2573 153.427 84.9857 154.864 75.0598C155.161 73.0845 155.508 71.1092 156.003 69.1339C156.3 67.8499 156.647 66.6154 157.044 65.3808C157.192 64.9857 157.291 64.5413 157.44 64.1462C160.115 55.9981 165.118 48.9364 171.806 43.6524C193.653 26.2697 226.893 26.9611 253.049 30.9117C258.548 31.7512 263.7 32.6895 268.257 34.3191C269.645 34.8129 270.982 35.3561 272.32 35.9487C273.806 36.6401 275.242 37.4796 276.58 38.4179C281.286 41.6771 285.001 46.3685 287.478 53.5289C290.104 61.2326 290.352 69.5289 290.054 77.5783C289.906 81.1832 286.438 97.7264 288.519 99.9487C294.414 106.319 298.327 114.319 300.755 122.665C301.399 124.936 301.944 127.208 302.439 129.529C302.588 130.27 302.736 131.01 302.835 131.751C304.52 141.875 304.619 152.196 304.767 162.467Z" fill="#C3121D"/>
<path d="M195.882 72.3926C189.491 83.2075 200.34 96.2445 202.421 108.64C204.501 121.035 209.158 132.788 212.873 144.788C214.904 151.454 216.688 158.22 218.075 165.035C218.372 166.368 218.62 167.701 218.867 169.035C218.917 169.183 218.917 169.331 218.967 169.479C219.561 172.837 220.106 176.146 220.502 179.553C220.502 179.701 220.552 179.849 220.552 180.047C220.7 181.084 220.799 182.121 220.899 183.158C220.899 183.306 220.948 183.454 220.948 183.602C221.295 187.207 221.543 190.862 221.691 194.467C221.691 194.615 221.691 194.763 221.691 194.911C221.741 196.047 221.741 197.183 221.741 198.368C221.741 198.516 221.741 198.714 221.741 198.862C221.741 200.541 221.741 202.22 221.691 203.899C221.642 205.38 221.592 206.862 221.493 208.343C221.493 208.491 221.493 208.639 221.493 208.738C221.394 210.467 221.245 212.146 221.097 213.825C220.453 213.825 219.759 213.775 219.115 213.775C216.589 213.676 213.815 213.676 210.892 213.627C210.694 213.627 210.545 213.627 210.347 213.627C209.207 213.627 208.068 213.627 206.879 213.578C206.731 213.578 206.582 213.578 206.384 213.578C201.826 213.528 197.12 213.331 192.612 212.689C192.414 212.639 192.166 212.639 191.968 212.59C191.869 212.59 191.77 212.59 191.72 212.541C191.572 212.541 191.423 212.491 191.275 212.491C186.965 211.8 182.853 210.714 179.237 208.837C179.138 208.788 179.038 208.738 178.89 208.689C175.571 206.96 172.698 204.59 170.518 201.38C170.468 201.281 170.369 201.183 170.32 201.084C169.131 199.306 168.19 197.232 167.446 194.862C167.149 193.923 166.951 192.985 166.802 192.047C166.753 191.899 166.753 191.701 166.703 191.553C166.604 190.812 166.505 190.072 166.456 189.331C166.456 189.183 166.456 189.035 166.406 188.886C166.208 185.232 166.555 181.578 166.456 177.874C166.456 177.726 166.456 177.578 166.456 177.43C166.456 176.541 166.406 175.602 166.307 174.664C166.258 174.269 166.258 173.874 166.158 173.479C166.158 173.38 166.109 173.281 166.109 173.133V173.035C165.713 169.973 165.168 167.01 164.722 163.998C164.573 162.763 164.425 161.578 164.326 160.343C163.285 146.269 160.263 132.541 157.539 118.763C156.697 114.368 155.854 109.923 155.26 105.43C155.26 105.43 150.752 81.3803 157.836 63.2568C159.966 57.8248 180.871 66.763 180.871 66.763C179.534 70.2692 195.882 72.3926 195.882 72.3926Z" fill="#AC101C"/>
<path d="M164.821 160.393C174.531 163.849 193.256 166.516 217.332 162.022C213.13 160.393 160.866 148.722 164.821 160.393Z" fill="#8E101C"/>
<path d="M194.107 187.489C193.84 187.906 193.365 188.525 192.61 189.082C192.074 189.475 190.94 190.308 189.388 190.181C188.264 190.089 187.444 189.535 187.028 189.2C187.028 189.2 186.691 187.822 186.133 185.563C183.836 176.195 177.825 151.672 176.904 147.591C176.83 147.317 176.764 147.055 176.71 146.809C175.766 142.74 177.069 142.651 177.069 142.651L177.31 135.547C177.281 135.212 177.506 134.916 177.815 134.858C178.144 134.8 178.481 135.025 178.547 135.383C179.74 137.462 180.93 139.546 182.12 141.625C182.12 141.625 183.483 140.877 184.023 145.49L193.275 184.018L194.107 187.489Z" fill="#FE91A4"/>
<path d="M193.286 184.022C191.464 184.885 189.074 185.586 186.124 185.568C183.819 176.196 177.787 151.664 176.863 147.581C176.788 147.307 176.722 147.045 176.668 146.798C178.546 146.05 181.184 145.309 184.002 145.48L193.286 184.022Z" fill="#A9616D"/>
<path d="M176.971 142.343L177.123 143.072L182.252 142.032L182.101 141.303L176.971 142.343Z" fill="#A9616D"/>
<path d="M177.309 149.554L177.131 148.829C178.106 148.595 179.097 148.365 180.101 148.142C181.577 147.81 183.053 147.499 184.503 147.213L184.653 147.944C183.212 148.229 181.739 148.544 180.271 148.871C179.271 149.094 178.284 149.324 177.313 149.558L177.309 149.554Z" fill="#A9616D"/>
<path d="M186.386 184.166C186.146 184.154 185.908 184.133 185.667 184.104L185.745 183.369C186.892 183.51 188.037 183.433 189.146 183.155C190.382 182.848 191.525 182.301 192.545 181.523L192.99 182.117C191.891 182.95 190.659 183.54 189.328 183.874C188.365 184.115 187.377 184.212 186.382 184.162L186.386 184.166Z" fill="#A9616D"/>
<path d="M196.074 134.145L197.231 182.121L191.996 182.246L190.839 134.27C191.198 132.221 191.558 130.171 191.912 128.134C192.212 126.454 192.506 124.768 192.806 123.094C193.099 123.076 193.387 123.064 193.675 123.052C194.035 124.708 194.401 126.37 194.755 128.032C195.186 130.004 195.612 131.97 196.038 133.942C196.05 134.014 196.068 134.085 196.086 134.157L196.074 134.145Z" fill="#F6E8B0"/>
<path d="M196.032 133.936C195.744 133.918 195.456 133.947 195.186 134.001C194.449 134.162 193.771 134.496 193.033 134.656C192.302 134.817 191.396 134.758 190.839 134.275L191.99 182.013V182.251L192.626 208.321C192.908 208.529 194.029 209.292 195.594 209.137C196.758 209.024 197.549 208.446 197.861 208.196L197.231 182.126V181.887L196.074 134.15C196.056 134.079 196.038 134.007 196.032 133.936Z" fill="#CE615F"/>
<path d="M197.309 185.438L197.855 208.19C197.543 208.44 196.752 209.012 195.588 209.131C194.029 209.286 192.902 208.523 192.62 208.315L192.074 185.563L197.309 185.438Z" fill="#39393B"/>
<path d="M194.402 134.348L193.605 134.368L195.462 208.254L196.259 208.234L194.402 134.348Z" fill="#AA9500"/>
<path d="M194.749 128.02C194.329 128.163 193.825 128.276 193.255 128.294C192.728 128.306 192.272 128.228 191.912 128.133C192.212 126.453 192.506 124.767 192.8 123.087C193.087 123.075 193.375 123.057 193.669 123.045C194.029 124.701 194.389 126.364 194.749 128.026V128.02Z" fill="#39393B"/>
<path d="M220.453 179.553C220.453 179.701 220.502 179.85 220.502 180.047C220.651 181.084 220.75 182.121 220.849 183.158C220.849 183.306 220.898 183.454 220.898 183.603C221.245 187.208 221.493 190.862 221.642 194.467C221.642 194.615 221.642 194.763 221.642 194.911C221.691 196.047 221.691 197.183 221.691 198.368C221.691 198.516 221.691 198.714 221.691 198.862C221.691 200.541 221.691 202.22 221.642 203.899C221.592 205.38 221.542 206.862 221.443 208.343C221.443 208.491 221.443 208.64 221.443 208.738C221.344 210.467 221.196 212.146 221.047 213.825C220.403 213.825 219.709 213.775 219.065 213.775C216.539 213.677 213.765 213.677 210.842 213.627C210.644 213.627 210.495 213.627 210.297 213.627C209.158 213.627 208.018 213.627 206.829 213.578C206.681 213.578 206.532 213.578 206.334 213.578C201.777 213.529 197.07 213.331 192.562 212.689C192.364 212.64 192.117 212.64 191.918 212.59C191.819 212.59 191.72 212.59 191.671 212.541C191.522 212.541 191.373 212.491 191.225 212.491C186.915 211.8 182.803 210.714 179.187 208.837C179.088 208.788 178.989 208.738 178.84 208.689C175.521 206.961 172.648 204.59 170.468 201.38C170.419 201.282 170.32 201.183 170.27 201.084C169.081 199.306 168.14 197.232 167.397 194.862C167.1 193.924 166.901 192.985 166.753 192.047C166.703 191.899 166.703 191.701 166.654 191.553C166.555 190.812 166.456 190.072 166.406 189.331C166.406 189.183 166.406 189.035 166.357 188.887C166.158 185.232 166.505 181.578 166.406 177.874C166.406 177.726 166.406 177.578 166.406 177.43C166.406 176.541 166.357 175.603 166.257 174.664C166.208 174.269 166.208 173.874 166.109 173.479C166.109 173.38 166.059 173.282 166.059 173.133V173.035C165.663 169.973 165.118 167.01 164.672 163.998L164.969 163.257C172.202 164.738 180.97 166.022 190.878 166.417C201.232 166.813 210.347 166.072 217.926 165.035C218.223 166.368 218.471 167.701 218.719 169.035C218.768 169.183 218.768 169.331 218.818 169.479C219.511 172.837 220.007 176.195 220.453 179.553Z" fill="#740C19"/>
<path d="M219.363 170.319C208.415 167.01 199.151 167.702 189.986 167.356C181.169 167.06 170.815 166.418 165.614 167.85C162.542 170.368 162.988 165.035 162.988 165.035C162.988 165.035 163.335 160.788 164.425 160.393C167.149 159.405 181.07 159.702 189.64 159.998C198.507 160.344 208.762 159.702 217.332 162.023C220.403 162.862 220.255 165.035 220.403 166.27C220.552 167.504 220.7 170.714 219.363 170.319Z" fill="#221648"/>
<path d="M285.645 49.2819C283.664 45.035 280.84 39.0597 272.27 35.998C196.377 8.93624 160.61 47.5041 155.904 65.035C156.548 69.7263 185.528 66.8621 189.045 77.1831C191.572 84.4918 199.993 109.035 204.254 119.405C213.616 142.22 279.007 125.479 288.42 99.9979C298.327 77.7263 285.645 49.2819 285.645 49.2819Z" fill="#740C19"/>
<path d="M272.27 35.9979C196.377 8.93624 160.61 47.5041 155.904 65.035C156.548 69.7263 185.528 66.8621 189.045 77.1831C184.785 66.8127 191.572 84.4917 189.045 77.1831C229.973 43.7836 241.862 41.5614 272.27 35.9979Z" fill="url(#paint0_linear_7_12849)"/>
<path d="M205.492 121.677C216.143 140.047 278.215 126.072 288.42 99.9487C281.484 127.356 212.923 151.208 205.492 121.677Z" fill="#8E101C"/>
<path d="M256.517 102.072C255.03 108.492 257.161 125.381 259.786 131.01C260.727 132.986 263.353 137.776 264.988 137.134C267.266 136.245 267.861 127.998 267.96 124.739C268.109 117.973 264.79 103.356 260.579 99.9486C259.885 99.4548 256.962 100.097 256.517 102.072Z" fill="#221648"/>
<path d="M264.443 128.887C263.601 129.035 262.758 128.393 262.659 127.553C262.56 126.714 263.155 125.874 263.997 125.775C264.839 125.627 265.681 126.269 265.78 127.109C265.879 127.948 265.285 128.788 264.443 128.887ZM264.096 126.417C263.601 126.467 263.254 126.961 263.303 127.454C263.353 127.948 263.848 128.294 264.344 128.245C264.839 128.195 265.186 127.701 265.136 127.207C265.037 126.714 264.591 126.368 264.096 126.417Z" fill="#D79F43"/>
<path d="M261.272 112.492C260.43 112.64 259.588 111.998 259.489 111.158C259.39 110.319 259.984 109.479 260.826 109.381C261.669 109.233 262.511 109.875 262.61 110.714C262.709 111.554 262.114 112.393 261.272 112.492ZM260.926 110.023C260.43 110.072 260.083 110.566 260.133 111.06C260.182 111.554 260.678 111.899 261.173 111.85C261.669 111.8 262.015 111.307 261.966 110.813C261.867 110.319 261.421 109.973 260.926 110.023Z" fill="#D79F43"/>
<path d="M259.39 122.912C258.845 123.01 258.35 122.912 257.854 122.665C257.21 122.368 256.715 121.825 256.467 121.134L256.021 119.899C255.774 119.208 255.823 118.517 256.12 117.875C256.418 117.233 256.962 116.739 257.656 116.492L264.096 114.27C265.483 113.776 267.019 114.517 267.514 115.899L267.96 117.134C268.455 118.517 267.712 120.047 266.325 120.541L259.885 122.763C259.687 122.813 259.538 122.862 259.39 122.912ZM264.691 114.763C264.542 114.763 264.443 114.813 264.294 114.862L257.854 117.084C257.359 117.282 256.913 117.628 256.715 118.121C256.517 118.615 256.467 119.158 256.616 119.652L257.062 120.887C257.26 121.381 257.606 121.825 258.102 122.023C258.597 122.27 259.142 122.27 259.638 122.121L266.078 119.899C267.118 119.554 267.712 118.368 267.316 117.331L266.87 116.097C266.573 115.158 265.632 114.615 264.691 114.763Z" fill="#D79F43"/>
<path d="M263.402 123.998C262.957 124.047 262.56 123.751 262.511 123.356L262.015 119.8C261.966 119.356 262.263 118.961 262.659 118.911C263.105 118.862 263.502 119.158 263.551 119.553L264.046 123.109C264.146 123.553 263.848 123.948 263.402 123.998Z" fill="#D79F43"/>
<path d="M240.169 201.923C246.708 198.368 282.574 196.096 298.03 181.133C285.2 200.047 244.033 215.108 240.169 201.923Z" fill="#8E101C"/>
<path d="M237.395 165.973C239.525 158.121 294.463 141.43 298.03 146.022C301.349 150.319 300.16 176.64 298.03 181.133C291.491 194.763 247.649 207.948 242.15 204.59C236.454 201.133 236.107 170.763 237.395 165.973Z" fill="#221648"/>
<path d="M239.703 172.442L297.009 152.805" stroke="#524A6C" stroke-width="0.4" stroke-linecap="round"/>
<path d="M239.703 172.442C239.703 172.442 280.414 173.003 297.009 152.805L239.703 172.442Z" fill="#524A6C"/>
<path d="M242.646 171.257C242.25 170.121 240.863 169.628 239.575 170.072C238.287 170.566 237.593 171.85 238.039 172.936C238.386 173.825 239.327 174.368 240.367 174.27C240.218 177.381 240.417 183.405 244.132 182.319C247.897 181.233 243.884 176.196 241.705 173.776C242.596 173.233 242.993 172.196 242.646 171.257Z" fill="#D79F43"/>
<defs>
<linearGradient id="paint0_linear_7_12849" x1="229.973" y1="52.9194" x2="199.806" y2="34.3161" gradientUnits="userSpaceOnUse">
<stop stop-color="#740C19"/>
</linearGradient>
</defs>
</svg>
