<svg width="40" height="40" viewBox="0 0 40 40" fill="none" xmlns="http://www.w3.org/2000/svg">
<path d="M32.3153 4.23583L32.214 4.21048C32.1701 4.21083 32.1281 4.22832 32.097 4.25922C32.0659 4.29013 32.048 4.33199 32.0473 4.37586L32.09 4.47722C33.987 6.7316 35.2155 9.47192 35.6366 12.3883C36.0578 15.3046 35.6547 18.2807 34.4731 20.9799C33.2914 23.679 31.3783 25.9937 28.9501 27.662C26.5219 29.3303 23.6754 30.2857 20.7327 30.4202C22.4338 29.3782 23.8574 27.9398 24.882 26.2278C25.9066 24.5159 26.5016 22.5813 26.6162 20.5893C26.7309 18.5974 26.3617 16.6072 25.5403 14.789C24.7189 12.9708 23.4697 11.3784 21.8993 10.1481C20.4546 8.9957 19.4742 7.36054 19.1381 5.54304C18.802 3.72554 19.1329 1.84778 20.07 0.254756L20.1047 0.168067C20.1048 0.145835 20.1006 0.123793 20.0921 0.103235C20.0837 0.0826782 20.0712 0.0640217 20.0554 0.0483636C20.0396 0.0327056 20.0209 0.0203624 20.0002 0.0120603C19.9796 0.00375823 19.9576 -0.000335014 19.9353 2.14303e-05L19.8873 0.0186931C18.0808 0.989488 16.5444 2.39507 15.4169 4.10852C14.2893 5.82198 13.6062 7.78935 13.4292 9.83301C13.2521 11.8767 13.5868 13.9322 14.4028 15.8142C15.2188 17.6961 16.4906 19.3451 18.1033 20.6122C19.5515 21.7463 20.5409 23.3659 20.8891 25.1723C21.2373 26.9787 20.9208 28.8502 19.998 30.4415C16.9896 30.4426 14.0435 29.5839 11.5065 27.9665C8.96953 26.3492 6.94728 24.0405 5.67783 21.3123C4.40837 18.5841 3.94454 15.5499 4.34094 12.5669C4.73734 9.58395 5.97746 6.77632 7.91533 4.47456L7.94867 4.41054C7.94867 4.27717 7.878 4.20648 7.79533 4.20648L7.68467 4.23182C4.40394 6.79641 2.0052 10.3212 0.823037 14.3147C-0.359129 18.3082 -0.26578 22.5711 1.09006 26.509C2.44591 30.4469 4.99664 33.8633 8.38649 36.2817C11.7763 38.7001 15.8363 40 20 40C24.1637 40 28.2237 38.7001 31.6135 36.2817C35.0034 33.8633 37.5541 30.4469 38.9099 26.509C40.2658 22.5711 40.3591 18.3082 39.177 14.3147C37.9948 10.3212 35.5961 6.79641 32.3153 4.23182" fill="white"/>
</svg>
