<svg width="133" height="40" viewBox="0 0 133 40" fill="none" xmlns="http://www.w3.org/2000/svg">
<path d="M95.9915 2.95375H97.9399V10.9314C97.9399 13.7486 96.8867 14.9597 94.2801 14.9597C91.6736 14.9597 90.6204 13.7222 90.6204 10.9051V2.95375H92.5688V0.399854H85.8549V2.95375H87.224V10.2995C87.224 15.6443 89.9096 17.6189 94.2801 17.6189C98.7034 17.6189 101.363 15.6706 101.363 10.3258V2.95375H102.705V0.399854H95.9915V2.95375Z" fill="#191919"/>
<path d="M104.034 2.95375H105.535V14.8544H104.034V17.224H111.327V14.8544H108.932V11.4053H111.617C115.83 11.4053 117.91 9.45697 117.91 5.90258C117.91 2.40085 115.988 0.399854 111.854 0.399854H104.034V2.95375ZM108.932 8.90407V3.0854H111.564C113.802 3.0854 114.566 4.11222 114.566 5.95524C114.566 7.82459 113.75 8.90407 111.248 8.90407H108.932Z" fill="#191919"/>
<path d="M129.841 5.40233H132.789V1.84794C131.973 0.979088 130.13 0.03125 127.234 0.03125C122.258 0.03125 119.362 3.40134 119.362 8.64078V8.69344C119.362 14.4068 122.6 17.6189 127.497 17.6189C130.262 17.6189 132.157 16.5658 133 15.6443V12.1425H130.13V14.7227C129.367 14.9334 128.55 15.0387 127.761 15.0387C124.627 15.0387 122.916 13.1693 122.916 9.08837V7.98256C122.916 4.6388 124.364 2.74312 127.497 2.74312C128.34 2.74312 129.13 2.82211 129.841 3.00641V5.40233Z" fill="#191919"/>
<path d="M7.77103 37.1258C9.46924 37.1258 10.7133 36.6124 11.1675 36.1188L11.3254 35.0524C10.7133 35.4276 9.48899 35.8226 8.16596 35.8226C6.07282 35.8226 5.046 34.9735 5.36194 32.5644H11.8388C12.0166 32.1102 12.135 31.656 12.1943 31.2018C12.53 29.1482 11.7598 27.213 8.93608 27.213C6.32953 27.213 4.21664 29.1482 3.74272 32.1299V32.1497C3.20956 35.4276 4.86828 37.1258 7.77103 37.1258ZM8.75836 28.4176C10.1209 28.4176 10.9897 29.3062 10.6738 31.3203L10.654 31.5178H5.53966C5.87535 29.5629 7.17863 28.4176 8.75836 28.4176Z" fill="#191919"/>
<path d="M18.0255 36.9086H22.2316L22.4093 35.6646H21.5602L19.2893 32.0707L22.2118 28.8915H23.5151L23.7323 27.45H19.6645L19.4473 28.8125H20.6321L18.4402 31.2808L16.9197 28.8125H17.9861L18.2033 27.45H14.017L13.7998 28.8915H15.0241L16.9987 32.1299L13.5826 35.6646H12.7334L12.5557 36.9086H16.6433L16.821 35.7436H15.182L17.8676 32.9198L19.6448 35.7436H18.2033L18.0255 36.9086Z" fill="#191919"/>
<path d="M24.618 28.8915H25.9213L24.8352 35.6646H23.5319L23.3542 36.9086H27.6195L27.7972 35.6646H26.4939L27.7972 27.45H24.8352L24.618 28.8915ZM26.1187 26.2652H27.2443L30.0088 23.6191H27.659L26.1187 26.2652Z" fill="#191919"/>
<path d="M32.7232 39.9693C35.4482 39.9693 37.6796 38.5278 38.1733 35.4079L39.2001 28.8915H40.4244L40.6416 27.45H38.1535C38.1535 27.45 37.6796 28.4176 37.4426 29.5036C37.2254 27.9831 36.2579 27.2328 34.3622 27.2328C32.1308 27.2328 30.0574 28.9705 29.623 31.735V31.7548C29.1688 34.5983 30.3141 36.4742 32.8417 36.4742C34.6386 36.4742 36.0011 35.6843 36.712 34.1243L36.4948 35.5264C36.1394 37.738 34.6584 38.6266 32.7824 38.6266C30.8275 38.6266 29.9982 37.9157 29.544 37.4418L29.3268 38.7846C29.702 39.3375 30.5906 39.9693 32.7232 39.9693ZM33.3946 35.2696C31.6766 35.2696 30.946 34.1243 31.262 32.1497L31.3607 31.5178C31.6766 29.5036 32.9009 28.5558 34.5201 28.5558C36.1394 28.5558 37.4229 29.6024 37.0675 31.8337L37.028 32.1497C36.6923 34.2033 35.0138 35.2696 33.3946 35.2696Z" fill="#191919"/>
<path d="M45.0274 37.1258C46.7256 37.1258 47.9696 36.6124 48.4238 36.1188L48.5818 35.0524C47.9696 35.4276 46.7453 35.8226 45.4223 35.8226C43.3292 35.8226 42.3023 34.9735 42.6183 32.5644H49.0952C49.2729 32.1102 49.3914 31.656 49.4506 31.2018C49.7863 29.1482 49.0162 27.213 46.1924 27.213C43.5859 27.213 41.473 29.1482 40.9991 32.1299V32.1497C40.4659 35.4276 42.1246 37.1258 45.0274 37.1258ZM46.0147 28.4176C47.3772 28.4176 48.2461 29.3062 47.9301 31.3203L47.9104 31.5178H42.796C43.1317 29.5629 44.435 28.4176 46.0147 28.4176Z" fill="#191919"/>
<path d="M53.9414 37.1653C55.0275 37.1653 55.7186 36.7901 56.0543 36.3755L56.1728 35.5461C55.6396 35.7436 55.0867 35.862 54.4746 35.862C53.5267 35.862 52.9936 35.5066 53.2108 34.1638L54.0599 28.773H57.1009L57.2983 27.45H54.2574L54.7115 24.6855H53.6452C52.9541 26.9366 52.8159 27.7264 51.1374 27.7857L50.9794 28.773H52.4012L51.5323 34.2823C51.1571 36.5729 52.5394 37.1653 53.9414 37.1653Z" fill="#191919"/>
<path d="M61.7271 37.1258C63.4254 37.1258 64.6694 36.6124 65.1236 36.1188L65.2815 35.0524C64.6694 35.4276 63.4451 35.8226 62.1221 35.8226C60.0289 35.8226 59.0021 34.9735 59.3181 32.5644H65.7949C65.9727 32.1102 66.0911 31.656 66.1504 31.2018C66.4861 29.1482 65.716 27.213 62.8922 27.213C60.2856 27.213 58.1727 29.1482 57.6988 32.1299V32.1497C57.1657 35.4276 58.8244 37.1258 61.7271 37.1258ZM62.7145 28.4176C64.077 28.4176 64.9458 29.3062 64.6299 31.3203L64.6101 31.5178H59.4958C59.8315 29.5629 61.1347 28.4176 62.7145 28.4176Z" fill="#191919"/>
<path d="M66.24 39.1202H67.2273C68.3332 38.1132 69.0243 37.0074 69.2218 35.6646C69.281 35.3684 69.3007 35.1512 69.3007 34.8747H67.4446C67.4643 35.2499 67.4248 35.6843 67.3656 36.0793C67.2273 36.9679 66.8917 37.9749 66.24 39.1202Z" fill="#191919"/>
<path d="M75.7394 28.8915H77.0426L75.9566 35.6646H74.6533L74.4756 36.9086H78.7409L78.9186 35.6646H77.6153L78.9186 27.45H75.9566L75.7394 28.8915ZM78.2077 26.0282C78.8001 26.0282 79.3728 25.5543 79.4517 24.9619C79.5505 24.3695 79.1358 23.8758 78.5434 23.8758C77.951 23.8758 77.3783 24.3695 77.2796 24.9619C77.2006 25.5543 77.6153 26.0282 78.2077 26.0282Z" fill="#191919"/>
<path d="M86.0957 36.9086H90.3215L90.4992 35.6646H89.3736L90.203 30.4515C90.5584 28.2991 89.4921 27.213 87.6557 27.213C86.0365 27.213 84.4172 28.2004 83.8248 30.0368L83.8643 29.7603C84.0421 28.5755 83.8248 27.45 83.8248 27.45H81.3368L81.1196 28.8915H82.3438L81.2578 35.6646H80.0335L79.8558 36.9086H84.2395L84.4172 35.6646H82.9165L83.5484 31.6758C83.9236 29.7011 85.3453 28.5953 86.9843 28.5953C88.2283 28.5953 88.7615 29.1087 88.5838 30.1948L87.7149 35.6646H86.2734L86.0957 36.9086Z" fill="#191919"/>
<path d="M97.666 36.9086H101.892L102.069 35.6646H100.944L101.773 30.4515C102.129 28.2991 101.062 27.213 99.226 27.213C97.6068 27.213 95.9875 28.2004 95.3951 30.0368L95.4346 29.7603C95.6124 28.5755 95.3951 27.45 95.3951 27.45H92.9071L92.6898 28.8915H93.9141L92.8281 35.6646H91.6038L91.4261 36.9086H95.8098L95.9875 35.6646H94.4868L95.1187 31.6758C95.4939 29.7011 96.9156 28.5953 98.5546 28.5953C99.7986 28.5953 100.332 29.1087 100.154 30.1948L99.2852 35.6646H97.8437L97.666 36.9086Z" fill="#191919"/>
<path d="M107.854 35.941C106.195 35.941 105.07 34.934 105.484 32.3274L105.603 31.577C105.919 29.6024 107.281 28.4176 109.059 28.4176C110.836 28.4176 111.803 29.6024 111.487 31.577L111.369 32.3274C110.954 34.934 109.513 35.941 107.854 35.941ZM107.676 37.1258C110.204 37.1258 112.573 35.4869 113.107 32.051L113.126 32.0312C113.581 29.1087 112.021 27.213 109.236 27.213C106.452 27.213 104.3 29.1087 103.826 32.051V32.0707C103.293 35.4869 105.149 37.1258 107.676 37.1258Z" fill="#191919"/>
<path d="M120.347 28.8915H121.907L118.471 35.7831L117.069 28.8915H118.491L118.708 27.45H114.482L114.265 28.8915H115.292L117.089 36.9086H119.32L123.526 28.8915H124.553L124.77 27.45H120.564L120.347 28.8915Z" fill="#191919"/>
<path d="M125.812 30.2343H127.313L127.55 28.694C128.024 28.5361 128.557 28.4176 129.13 28.4176C130.591 28.4176 131.104 29.1877 130.966 30.1158V30.1553C130.828 31.0241 130.374 31.3598 128.794 31.7153C126.74 32.1694 124.785 32.5841 124.469 34.6378V34.6575C124.213 36.2175 125.2 37.1653 126.859 37.1653C128.36 37.1653 129.584 36.4742 130.176 35.0524C130.038 36.5532 130.729 36.9876 131.756 36.9876C132.408 36.9876 132.862 36.7704 132.862 36.7704L133 35.8028C132.842 35.8226 132.743 35.8226 132.585 35.8226C131.874 35.8226 131.776 35.5066 131.874 34.855L132.526 30.7279C132.842 28.5755 131.993 27.213 129.544 27.213C127.826 27.213 126.642 27.8844 126.108 28.3386L125.812 30.2343ZM127.649 36.02C126.523 36.02 126.029 35.4869 126.187 34.539V34.4403C126.345 33.4925 126.918 33.3147 128.774 32.7026C129.485 32.4656 130.216 32.1892 130.69 31.8337L130.472 33.2357C130.196 35.0327 128.814 36.02 127.649 36.02Z" fill="#191919"/>
</svg>
