<svg width="127" height="40" viewBox="0 0 127 40" fill="none" xmlns="http://www.w3.org/2000/svg">
<g clip-path="url(#clip0_1094_5207)">
<path d="M126.638 0.5H101.848V25.2896H126.638V0.5Z" fill="#FF0000"/>
<path d="M119.779 5.7875H119.691C119.646 5.83263 119.646 5.87714 119.691 5.87714C120.77 7.17352 121.357 8.80822 121.35 10.4944C121.347 12.3259 120.636 14.0852 119.366 15.4051C118.096 16.7251 116.366 17.5038 114.536 17.5786C115.091 17.2204 115.589 16.7823 116.016 16.2784C116.925 15.1191 117.336 13.6463 117.16 12.1836C116.984 10.721 116.234 9.38823 115.075 8.47823C114.415 7.96965 113.967 7.23427 113.818 6.41444C113.669 5.59461 113.83 4.74864 114.269 4.04027V3.95188C114.269 3.90674 114.223 3.90674 114.179 3.90674C113.507 4.28379 112.913 4.78601 112.43 5.38627C111.521 6.54555 111.11 8.01835 111.286 9.48098C111.462 10.9436 112.212 12.2764 113.371 13.1864C114.017 13.6938 114.459 14.4172 114.616 15.224C114.772 16.0308 114.633 16.8669 114.223 17.5792C112.343 17.5693 110.542 16.8211 109.209 15.4959C107.876 14.1708 107.117 12.3747 107.095 10.495C107.096 8.81018 107.683 7.17803 108.754 5.87777C108.76 5.87193 108.765 5.86496 108.768 5.85726C108.771 5.84957 108.773 5.8413 108.773 5.83295C108.773 5.8246 108.771 5.81633 108.768 5.80863C108.765 5.80093 108.76 5.79396 108.754 5.78812H108.664C107.463 6.73097 106.521 7.96375 105.927 9.37061C105.334 10.7775 105.107 12.3123 105.269 13.8307C105.432 15.3492 105.977 16.8014 106.855 18.0511C107.733 19.3007 108.914 20.3067 110.287 20.9745C111.66 21.6423 113.181 21.95 114.706 21.8686C116.231 21.7872 117.71 21.3195 119.004 20.5094C120.299 19.6993 121.366 18.5734 122.106 17.2374C122.846 15.9015 123.234 14.3994 123.233 12.8723C123.244 11.5052 122.938 10.1542 122.339 8.92517C121.74 7.69615 120.865 6.62243 119.782 5.78812" fill="white"/>
<path d="M101.848 0.5H0V39.5H101.848V0.5Z" fill="#FF0000"/>
<path d="M19.2306 35.1068L16.0929 12.1998L15.6446 7.62769H15.3757L14.972 12.1998L11.9239 35.1068H9.05447L4.3927 4.89307H6.58692L9.81429 27.9342L10.3522 32.4618H10.6211L11.159 27.9342L14.12 4.89307H16.9411L19.9892 27.9342L20.5722 32.4618H20.8412L21.3346 27.9342L24.5651 4.89307H26.7167L22.0549 35.1068H19.2306Z" fill="white"/>
<path d="M32.9927 35.3308C32.3243 35.3693 31.655 35.2741 31.0239 35.0509C30.3928 34.8276 29.8125 34.4808 29.317 34.0305C28.5102 33.2682 27.9723 32.2821 27.9723 30.3098V18.3413C27.9723 16.4605 28.4205 15.4725 29.1829 14.7102C29.6939 14.2399 30.295 13.8783 30.9499 13.6471C31.6047 13.416 32.2997 13.3201 32.9927 13.3654H34.1155C36.0432 13.3654 37.2532 13.9033 38.1052 14.7102C38.4935 15.0981 38.8005 15.5595 39.0084 16.0675C39.2162 16.5754 39.3207 17.1198 39.3158 17.6686V25.1998H30.0787V30.5794C30.0787 32.4175 31.1997 33.4933 33.3061 33.4933H33.8891C36.1304 33.4933 37.2513 32.4175 37.2513 30.5794V29.2346H39.3133V30.3104C39.3133 32.2382 38.8199 33.2243 38.013 34.0312C37.2507 34.7935 36.0852 35.3314 34.113 35.3314L32.9927 35.3308ZM37.2501 18.0723C37.2501 16.2342 36.1743 15.1584 33.8879 15.1584H33.3049C31.1978 15.1584 30.0775 16.2342 30.0775 18.0723V23.4519H37.2501V18.0723Z" fill="white"/>
<path d="M49.3079 4.89307H38.7756V8.79313H43.0788V35.1068H47.4271V8.79313H51.7303V4.89307H49.3079Z" fill="white"/>
<path d="M60.0683 4.89307H55.3169L49.9824 35.1068H54.4649L55.0918 30.3554H60.247L60.9196 35.1068H65.4021L60.0683 4.89307ZM55.6755 26.4998L57.2428 15.6961L57.6014 11.4826H57.8703L58.2289 15.6961L59.753 26.4998H55.6755Z" fill="white"/>
<path d="M85.0823 4.98242H80.7792V35.1962H85.0823V4.98242Z" fill="white"/>
<path d="M97.4551 4.98242H92.5244L86.1135 19.6856L92.4793 35.1962H97.4551L90.4167 18.9684L97.4551 4.98242Z" fill="white"/>
<path d="M71.858 31.2519V4.89307H67.5548V35.1068H78.2689L78.3585 31.2519H71.858Z" fill="white"/>
</g>
<defs>
<clipPath id="clip0_1094_5207">
<rect width="126.638" height="39" fill="white" transform="translate(0 0.5)"/>
</clipPath>
</defs>
</svg>
