<svg width="49" height="49" viewBox="0 0 49 49" fill="none" xmlns="http://www.w3.org/2000/svg">
<path d="M47 24.5C47 36.9263 36.9263 47 24.5 47C12.0737 47 2 36.9263 2 24.5C2 12.0737 12.0737 2 24.5 2C36.9263 2 47 12.0737 47 24.5Z" fill="#FFCC4D"/>
<path fill-rule="evenodd" clip-rule="evenodd" d="M49 24.5C49 38.0308 38.0308 49 24.5 49C10.9692 49 0 38.0308 0 24.5C0 10.9692 10.9692 0 24.5 0C38.0308 0 49 10.9692 49 24.5ZM24.5 47C36.9263 47 47 36.9263 47 24.5C47 12.0737 36.9263 2 24.5 2C12.0737 2 2 12.0737 2 24.5C2 36.9263 12.0737 47 24.5 47Z" fill="#6D2F00"/>
<path d="M31.3563 38.0982C31.3425 38.0432 29.925 32.6245 24.5 32.6245C19.075 32.6245 17.6575 38.0432 17.6438 38.0982C17.5775 38.3645 17.6987 38.637 17.9338 38.7782C18.1687 38.9182 18.475 38.8857 18.6788 38.7032C18.69 38.6932 19.945 37.6245 24.5 37.6245C28.9875 37.6245 30.2712 38.662 30.32 38.7032C30.4387 38.8157 30.5938 38.8745 30.75 38.8745C30.855 38.8745 30.9613 38.8482 31.0575 38.7945C31.3025 38.6545 31.425 38.3707 31.3563 38.0982ZM38.25 16.9995C31.3075 16.9995 28.4975 11.5407 28.3812 11.3082C28.0725 10.6907 28.3225 9.93945 28.94 9.6307C29.5562 9.32195 30.305 9.5707 30.615 10.1845C30.7087 10.367 32.8913 14.4995 38.25 14.4995C38.9412 14.4995 39.5 15.0595 39.5 15.7495C39.5 16.4395 38.9412 16.9995 38.25 16.9995ZM10.75 16.9995C10.06 16.9995 9.5 16.4395 9.5 15.7495C9.5 15.0595 10.06 14.4995 10.75 14.4995C17.1038 14.4995 18.245 10.5995 18.2913 10.4332C18.4725 9.7732 19.1562 9.3732 19.815 9.54695C20.4775 9.7207 20.8788 10.3882 20.7125 11.0532C20.6512 11.2957 19.13 16.9995 10.75 16.9995Z" fill="#664500"/>
<path d="M17 27C18.7259 27 20.125 25.0412 20.125 22.625C20.125 20.2088 18.7259 18.25 17 18.25C15.2741 18.25 13.875 20.2088 13.875 22.625C13.875 25.0412 15.2741 27 17 27Z" fill="#664500"/>
<path d="M32 27C33.7259 27 35.125 25.0412 35.125 22.625C35.125 20.2088 33.7259 18.25 32 18.25C30.2741 18.25 28.875 20.2088 28.875 22.625C28.875 25.0412 30.2741 27 32 27Z" fill="#664500"/>
</svg>
