<svg width="83" height="83" viewBox="0 0 83 83" fill="none" xmlns="http://www.w3.org/2000/svg">
<rect x="0.5" y="0.5" width="82" height="82" rx="41" fill="#EA3641"/>
<path d="M51.1449 60.5104C50.9106 60.5104 50.6596 60.4602 50.442 60.3598C50.4253 60.3598 47.5302 57.3977 41.7232 57.3977C35.9163 57.3977 33.0212 60.3598 32.9877 60.3598C32.151 60.7447 31.1637 60.3598 30.7788 59.5398C30.3939 58.703 30.7453 57.7157 31.582 57.3308C31.7159 57.2638 35.0963 54.0508 41.7232 54.0508C48.3502 54.0508 51.7306 57.2638 51.8645 57.3308C52.7012 57.7157 53.0694 58.7198 52.6677 59.5565C52.3832 60.1589 51.7808 60.5271 51.1449 60.5271V60.5104Z" fill="#191919"/>
<path d="M29.4799 31.1871C20.7277 31.1871 16.2595 28.6601 16.0755 28.4761C15.4061 27.8401 15.3893 26.7691 16.0253 26.1165C16.6612 25.4471 17.7155 25.4304 18.3848 26.0663C18.5522 26.2169 22.1669 27.8401 29.4632 27.8401C30.3836 27.8401 31.1367 28.5932 31.1367 29.5136C31.1367 30.434 30.3836 31.1871 29.4632 31.1871H29.4799Z" fill="#191919"/>
<path d="M28.8056 38.5551C28.8056 41.5674 26.3623 44.0106 23.35 44.0106C20.3378 44.0106 17.8945 41.5674 17.8945 38.5551C17.8945 35.5429 20.3378 33.0996 23.35 33.0996C26.3623 33.0996 28.8056 35.5429 28.8056 38.5551Z" fill="#191919"/>
<path d="M52.8755 31.1871C61.6278 31.1871 66.0959 28.6601 66.28 28.4761C66.9494 27.8401 66.9661 26.7691 66.3302 26.1165C65.6943 25.4471 64.64 25.4304 63.9706 26.0663C63.8033 26.2169 60.1886 27.8401 52.8923 27.8401C51.9718 27.8401 51.2188 28.5932 51.2188 29.5136C51.2188 30.434 51.9718 31.1871 52.8923 31.1871H52.8755Z" fill="#191919"/>
<path d="M53.5499 38.5551C53.5499 41.5674 55.9932 44.0106 59.0054 44.0106C62.0177 44.0106 64.4609 41.5674 64.4609 38.5551C64.4609 35.5429 62.0177 33.0996 59.0054 33.0996C55.9932 33.0996 53.5499 35.5429 53.5499 38.5551Z" fill="#191919"/>
</svg>
