<svg width="82" height="82" viewBox="0 0 82 82" fill="none" xmlns="http://www.w3.org/2000/svg">
<rect width="82" height="82" rx="41" fill="#EA3641"/>
<path d="M50.6439 60.0104C50.4096 60.0104 50.1586 59.9602 49.941 59.8598C49.9243 59.8598 47.0292 56.8977 41.2223 56.8977C35.4153 56.8977 32.5202 59.8598 32.4868 59.8598C31.65 60.2447 30.6627 59.8598 30.2778 59.0398C29.8929 58.203 30.2443 57.2157 31.081 56.8308C31.2149 56.7638 34.5953 53.5508 41.2223 53.5508C47.8492 53.5508 51.2296 56.7638 51.3635 56.8308C52.2002 57.2157 52.5684 58.2198 52.1668 59.0565C51.8823 59.6589 51.2798 60.0271 50.6439 60.0271V60.0104Z" fill="#191919"/>
<path d="M28.9809 30.6871C20.2287 30.6871 15.7605 28.1601 15.5764 27.9761C14.907 27.3401 14.8903 26.2691 15.5262 25.6165C16.1622 24.9471 17.2164 24.9304 17.8858 25.5663C18.0532 25.7169 21.6679 27.3401 28.9642 27.3401C29.8846 27.3401 30.6377 28.0932 30.6377 29.0136C30.6377 29.934 29.8846 30.6871 28.9642 30.6871H28.9809Z" fill="#191919"/>
<path d="M28.3056 38.0551C28.3056 41.0674 25.8623 43.5106 22.85 43.5106C19.8378 43.5106 17.3945 41.0674 17.3945 38.0551C17.3945 35.0429 19.8378 32.5996 22.85 32.5996C25.8623 32.5996 28.3056 35.0429 28.3056 38.0551Z" fill="#191919"/>
<path d="M52.3755 30.6871C61.1278 30.6871 65.5959 28.1601 65.78 27.9761C66.4494 27.3401 66.4661 26.2691 65.8302 25.6165C65.1943 24.9471 64.14 24.9304 63.4706 25.5663C63.3033 25.7169 59.6886 27.3401 52.3923 27.3401C51.4718 27.3401 50.7188 28.0932 50.7188 29.0136C50.7188 29.934 51.4718 30.6871 52.3923 30.6871H52.3755Z" fill="#191919"/>
<path d="M53.0499 38.0551C53.0499 41.0674 55.4932 43.5106 58.5054 43.5106C61.5177 43.5106 63.9609 41.0674 63.9609 38.0551C63.9609 35.0429 61.5177 32.5996 58.5054 32.5996C55.4932 32.5996 53.0499 35.0429 53.0499 38.0551Z" fill="#191919"/>
</svg>
