<svg width="45" height="45" viewBox="0 0 45 45" fill="none" xmlns="http://www.w3.org/2000/svg">
<g style="mix-blend-mode:luminosity" clip-path="url(#clip0_4562_35500)">
<path d="M45 22.5C45 34.9263 34.9263 45 22.5 45C10.0737 45 0 34.9263 0 22.5C0 10.0737 10.0737 0 22.5 0C34.9263 0 45 10.0737 45 22.5Z" fill="#FFCC4D"/>
<path d="M29.3563 36.0982C29.3425 36.0432 27.925 30.6245 22.5 30.6245C17.075 30.6245 15.6575 36.0432 15.6438 36.0982C15.5775 36.3645 15.6987 36.637 15.9338 36.7782C16.1687 36.9182 16.475 36.8857 16.6788 36.7032C16.69 36.6932 17.945 35.6245 22.5 35.6245C26.9875 35.6245 28.2712 36.662 28.32 36.7032C28.4387 36.8157 28.5938 36.8745 28.75 36.8745C28.855 36.8745 28.9613 36.8482 29.0575 36.7945C29.3025 36.6545 29.425 36.3707 29.3563 36.0982ZM36.25 14.9995C29.3075 14.9995 26.4975 9.5407 26.3812 9.3082C26.0725 8.6907 26.3225 7.93945 26.94 7.6307C27.5562 7.32195 28.305 7.5707 28.615 8.18445C28.7087 8.36695 30.8913 12.4995 36.25 12.4995C36.9412 12.4995 37.5 13.0595 37.5 13.7495C37.5 14.4395 36.9412 14.9995 36.25 14.9995ZM8.75 14.9995C8.06 14.9995 7.5 14.4395 7.5 13.7495C7.5 13.0595 8.06 12.4995 8.75 12.4995C15.1038 12.4995 16.245 8.59945 16.2913 8.4332C16.4725 7.7732 17.1562 7.3732 17.815 7.54695C18.4775 7.7207 18.8788 8.3882 18.7125 9.0532C18.6512 9.2957 17.13 14.9995 8.75 14.9995Z" fill="#664500"/>
<path d="M15 25C16.7259 25 18.125 23.0412 18.125 20.625C18.125 18.2088 16.7259 16.25 15 16.25C13.2741 16.25 11.875 18.2088 11.875 20.625C11.875 23.0412 13.2741 25 15 25Z" fill="#664500"/>
<path d="M30 25C31.7259 25 33.125 23.0412 33.125 20.625C33.125 18.2088 31.7259 16.25 30 16.25C28.2741 16.25 26.875 18.2088 26.875 20.625C26.875 23.0412 28.2741 25 30 25Z" fill="#664500"/>
</g>
<defs>
<clipPath id="clip0_4562_35500">
<rect width="45" height="45" fill="white"/>
</clipPath>
</defs>
</svg>
