<svg width="45" height="45" viewBox="0 0 45 45" fill="none" xmlns="http://www.w3.org/2000/svg">
<g style="mix-blend-mode:luminosity" clip-path="url(#clip0_4562_35503)">
<path d="M45 22.5C45 34.9263 34.9263 45 22.5 45C10.075 45 0 34.9263 0 22.5C0 10.075 10.075 0 22.5 0C34.9263 0 45 10.075 45 22.5Z" fill="#DA2F47"/>
<path d="M31.855 37.3487C31.7988 37.125 30.395 31.875 22.4988 31.875C14.6013 31.875 13.1988 37.125 13.1425 37.3487C13.0738 37.62 13.1963 37.9013 13.4388 38.0413C13.6825 38.1775 13.9875 38.14 14.1888 37.945C14.2125 37.9213 16.6313 35.625 22.4988 35.625C28.3663 35.625 30.7863 37.9212 30.8088 37.9437C30.9288 38.0625 31.0888 38.125 31.2488 38.125C31.3538 38.125 31.46 38.0988 31.5563 38.045C31.8013 37.905 31.9238 37.6213 31.855 37.3487ZM19.6325 21.6162C15.5638 17.5475 9.025 17.5 8.74875 17.5C8.05875 17.5 7.5 18.0588 7.5 18.7475C7.49875 19.4375 8.0575 19.9975 8.7475 20C8.78375 20 11.1538 20.0275 13.7263 20.9212C12.985 21.7212 12.4988 22.9637 12.4988 24.375C12.4988 26.7925 13.8975 28.75 15.6238 28.75C17.35 28.75 18.7488 26.7925 18.7488 24.375C18.7488 24.1575 18.725 23.95 18.7025 23.7413C18.7188 23.7413 18.7338 23.75 18.7488 23.75C19.0688 23.75 19.3888 23.6275 19.6325 23.3838C20.1213 22.895 20.1213 22.105 19.6325 21.6162ZM36.2488 17.5C35.9725 17.5 29.435 17.5475 25.365 21.6162C24.8763 22.105 24.8763 22.895 25.365 23.3838C25.6088 23.6275 25.9288 23.75 26.2488 23.75C26.265 23.75 26.2788 23.7413 26.2938 23.7413C26.2738 23.95 26.2488 24.1575 26.2488 24.375C26.2488 26.7925 27.6475 28.75 29.3738 28.75C31.1 28.75 32.4988 26.7925 32.4988 24.375C32.4988 22.9637 32.0125 21.7212 31.2713 20.9212C33.8438 20.0275 36.2138 20 36.2513 20C36.94 19.9975 37.4988 19.4375 37.4975 18.7475C37.4963 18.0588 36.9388 17.5 36.2488 17.5Z" fill="#292F33"/>
</g>
<defs>
<clipPath id="clip0_4562_35503">
<rect width="45" height="45" fill="white"/>
</clipPath>
</defs>
</svg>
