<svg width="82" height="82" viewBox="0 0 82 82" fill="none" xmlns="http://www.w3.org/2000/svg">
<rect width="82" height="82" rx="41" fill="#B70812"/>
<path d="M30.1241 62.135C29.94 62.135 29.7392 62.1015 29.5551 62.0346C28.6849 61.7166 28.2331 60.7627 28.5511 59.8925C28.7017 59.4909 33.8057 50.2031 41.236 50.2031C48.6662 50.2031 53.7702 59.4909 53.9209 59.8925C54.2388 60.7627 53.787 61.7166 52.9168 62.0346C52.0466 62.3525 51.0927 61.9007 50.7747 61.0305C50.7413 60.9635 46.3233 53.5501 41.236 53.5501C36.1486 53.5501 31.7306 60.9468 31.6972 61.0305C31.4462 61.7166 30.8102 62.135 30.1241 62.135Z" fill="#191919"/>
<path d="M52.3755 35.7082C61.1278 35.7082 65.5959 31.5078 65.78 31.3237C66.4494 30.6878 66.4661 29.6168 65.8302 28.9641C65.1943 28.2947 64.14 28.278 63.4706 28.9139C63.3033 29.0645 59.6886 32.3613 52.3923 32.3613C51.4718 32.3613 50.7188 33.1143 50.7188 34.0347C50.7188 34.9551 51.4718 35.7082 52.3923 35.7082H52.3755Z" fill="#191919"/>
<path d="M53.0499 38.0551C53.0499 41.0674 55.4932 43.5106 58.5054 43.5106C61.5177 43.5106 63.9609 41.0674 63.9609 38.0551C63.9609 35.0429 61.5177 32.5996 58.5054 32.5996C55.4932 32.5996 53.0499 35.0429 53.0499 38.0551Z" fill="#191919"/>
<path d="M28.9809 35.7082C20.2287 35.7082 15.7605 31.5078 15.5764 31.3237C14.907 30.6878 14.8903 29.6168 15.5262 28.9641C16.1622 28.2947 17.2164 28.278 17.8858 28.9139C18.0532 29.0645 21.6679 32.3613 28.9642 32.3613C29.8846 32.3613 30.6377 33.1143 30.6377 34.0347C30.6377 34.9551 29.8846 35.7082 28.9642 35.7082H28.9809Z" fill="#191919"/>
<path d="M28.3056 38.0551C28.3056 41.0674 25.8623 43.5106 22.85 43.5106C19.8378 43.5106 17.3945 41.0674 17.3945 38.0551C17.3945 35.0429 19.8378 32.5996 22.85 32.5996C25.8623 32.5996 28.3056 35.0429 28.3056 38.0551Z" fill="#191919"/>
</svg>
