<svg width="49" height="49" viewBox="0 0 49 49" fill="none" xmlns="http://www.w3.org/2000/svg">
<path d="M47 24.5C47 36.9263 36.9263 47 24.5 47C12.075 47 2 36.9263 2 24.5C2 12.075 12.075 2 24.5 2C36.9263 2 47 12.075 47 24.5Z" fill="#DA2F47"/>
<path fill-rule="evenodd" clip-rule="evenodd" d="M49 24.5C49 38.0308 38.0308 49 24.5 49C10.9705 49 0 38.0309 0 24.5C0 10.9704 10.9704 0 24.5 0C38.0309 0 49 10.9705 49 24.5ZM24.5 47C36.9263 47 47 36.9263 47 24.5C47 12.075 36.9263 2 24.5 2C12.075 2 2 12.075 2 24.5C2 36.9263 12.075 47 24.5 47Z" fill="#6D2F00"/>
<path d="M33.855 39.3487C33.7988 39.125 32.395 33.875 24.4988 33.875C16.6013 33.875 15.1988 39.125 15.1425 39.3487C15.0738 39.62 15.1963 39.9013 15.4388 40.0413C15.6825 40.1775 15.9875 40.14 16.1888 39.945C16.2125 39.9213 18.6313 37.625 24.4988 37.625C30.3663 37.625 32.7863 39.9212 32.8088 39.9437C32.9288 40.0625 33.0888 40.125 33.2488 40.125C33.3538 40.125 33.46 40.0988 33.5563 40.045C33.8013 39.905 33.9238 39.6213 33.855 39.3487ZM21.6325 23.6162C17.5638 19.5475 11.025 19.5 10.7488 19.5C10.0588 19.5 9.5 20.0588 9.5 20.7475C9.49875 21.4375 10.0575 21.9975 10.7475 22C10.7838 22 13.1538 22.0275 15.7263 22.9212C14.985 23.7212 14.4988 24.9637 14.4988 26.375C14.4988 28.7925 15.8975 30.75 17.6238 30.75C19.35 30.75 20.7488 28.7925 20.7488 26.375C20.7488 26.1575 20.725 25.95 20.7025 25.7413C20.7188 25.7413 20.7338 25.75 20.7488 25.75C21.0688 25.75 21.3888 25.6275 21.6325 25.3838C22.1213 24.895 22.1213 24.105 21.6325 23.6162ZM38.2488 19.5C37.9725 19.5 31.435 19.5475 27.365 23.6162C26.8763 24.105 26.8763 24.895 27.365 25.3838C27.6088 25.6275 27.9288 25.75 28.2488 25.75C28.265 25.75 28.2788 25.7413 28.2938 25.7413C28.2738 25.95 28.2488 26.1575 28.2488 26.375C28.2488 28.7925 29.6475 30.75 31.3738 30.75C33.1 30.75 34.4988 28.7925 34.4988 26.375C34.4988 24.9637 34.0125 23.7212 33.2713 22.9212C35.8438 22.0275 38.2138 22 38.2513 22C38.94 21.9975 39.4988 21.4375 39.4975 20.7475C39.4963 20.0588 38.9388 19.5 38.2488 19.5Z" fill="#292F33"/>
</svg>
