<svg width="95" height="95" viewBox="0 0 95 95" fill="none" xmlns="http://www.w3.org/2000/svg">
<rect x="6.5" y="6.5" width="82" height="82" rx="41" fill="#B70812"/>
<path d="M36.6241 68.635C36.44 68.635 36.2392 68.6015 36.0551 68.5346C35.1849 68.2166 34.7331 67.2627 35.0511 66.3925C35.2017 65.9909 40.3057 56.7031 47.736 56.7031C55.1662 56.7031 60.2702 65.9909 60.4209 66.3925C60.7388 67.2627 60.287 68.2166 59.4168 68.5346C58.5466 68.8525 57.5927 68.4007 57.2747 67.5305C57.2413 67.4635 52.8233 60.0501 47.736 60.0501C42.6486 60.0501 38.2306 67.4468 38.1972 67.5305C37.9462 68.2166 37.3102 68.635 36.6241 68.635Z" fill="#191919"/>
<path d="M58.8755 42.2082C67.6278 42.2082 72.0959 38.0078 72.28 37.8237C72.9494 37.1878 72.9661 36.1168 72.3302 35.4641C71.6943 34.7947 70.64 34.778 69.9706 35.4139C69.8033 35.5645 66.1886 38.8613 58.8923 38.8613C57.9718 38.8613 57.2188 39.6143 57.2188 40.5347C57.2188 41.4551 57.9718 42.2082 58.8923 42.2082H58.8755Z" fill="#191919"/>
<path d="M59.5499 44.5551C59.5499 47.5674 61.9932 50.0106 65.0054 50.0106C68.0177 50.0106 70.4609 47.5674 70.4609 44.5551C70.4609 41.5429 68.0177 39.0996 65.0054 39.0996C61.9932 39.0996 59.5499 41.5429 59.5499 44.5551Z" fill="#191919"/>
<path d="M35.4799 42.2082C26.7277 42.2082 22.2595 38.0078 22.0755 37.8237C21.4061 37.1878 21.3893 36.1168 22.0253 35.4641C22.6612 34.7947 23.7155 34.778 24.3848 35.4139C24.5522 35.5645 28.1669 38.8613 35.4632 38.8613C36.3836 38.8613 37.1367 39.6143 37.1367 40.5347C37.1367 41.4551 36.3836 42.2082 35.4632 42.2082H35.4799Z" fill="#191919"/>
<path d="M34.8056 44.5551C34.8056 47.5674 32.3623 50.0106 29.35 50.0106C26.3378 50.0106 23.8945 47.5674 23.8945 44.5551C23.8945 41.5429 26.3378 39.0996 29.35 39.0996C32.3623 39.0996 34.8056 41.5429 34.8056 44.5551Z" fill="#191919"/>
</svg>
