<svg width="422" height="498" viewBox="0 0 422 498" fill="none" xmlns="http://www.w3.org/2000/svg">
<g clip-path="url(#clip0_2299_12183)">
<mask id="mask0_2299_12183" style="mask-type:luminance" maskUnits="userSpaceOnUse" x="0" y="-32" width="422" height="530">
<path d="M422 -31.6191H0V498H422V-31.6191Z" fill="white"/>
</mask>
<g mask="url(#mask0_2299_12183)">
<path d="M156.14 31.0921C156.14 31.0921 141.018 11.418 117.808 22.309C101.631 29.6868 100.225 52.8741 110.071 85.1958C124.49 132.273 116.401 164.946 116.401 164.946L138.908 163.892C139.26 163.892 170.91 67.981 156.14 31.0921Z" fill="#002255"/>
<path d="M354.831 222.914C354.831 222.914 359.754 239.075 372.766 240.48C382.964 241.534 391.053 230.643 393.866 226.427C394.569 225.373 394.921 224.671 394.921 224.671C394.921 224.671 395.624 224.671 396.679 224.319C399.141 223.968 403.713 222.914 405.119 219.401C407.229 214.482 397.383 212.726 397.383 212.726C397.383 212.726 401.603 207.807 399.844 204.997C398.086 202.186 391.756 202.186 391.756 202.186C391.756 202.186 398.086 196.565 395.273 193.052C391.053 187.782 384.723 195.16 384.019 195.511C384.371 194.808 400.548 170.216 395.273 169.513C390.701 168.81 375.931 188.484 372.063 193.754C371.359 194.457 371.008 195.16 371.008 195.16C371.008 195.16 370.656 195.16 370.304 194.808C367.843 193.754 360.106 190.592 355.886 194.808C350.963 200.429 354.831 222.914 354.831 222.914Z" fill="white"/>
<path d="M374.173 241.534C373.821 241.534 373.118 241.534 372.766 241.534C359.403 240.129 354.128 223.968 354.128 223.266C354.128 222.212 350.26 200.43 355.535 194.457C357.645 192.349 362.216 190.593 371.008 194.106C371.36 193.754 371.36 193.403 371.711 193.052C378.745 183.566 391.053 167.757 395.625 168.459C396.328 168.459 397.031 168.81 397.031 169.513C397.735 170.918 397.383 175.134 387.536 191.295C388.943 190.593 390.701 189.89 392.108 189.89C393.515 189.89 394.921 190.593 395.976 191.998C398.438 194.808 395.625 199.024 393.866 200.781C395.976 201.132 399.493 201.835 400.548 203.943C401.955 206.402 400.196 209.915 398.79 211.672C400.9 212.023 404.416 213.428 405.823 215.888C406.526 216.942 406.526 217.996 405.823 219.401C404.416 222.914 400.196 224.319 396.68 224.671C396.328 225.022 395.625 225.022 395.273 225.022C394.921 225.373 394.921 225.725 394.57 226.427C391.053 232.4 383.316 241.534 374.173 241.534ZM355.535 222.563C355.886 223.617 360.81 238.021 372.766 239.426C381.91 240.48 389.295 231.346 393.163 225.725C393.866 224.671 394.218 223.968 394.218 223.968C394.218 223.617 394.57 223.617 394.921 223.617C394.921 223.617 395.625 223.617 396.328 223.266C398.79 222.914 403.01 221.86 404.065 218.698C404.416 217.996 404.416 217.293 404.065 216.59C403.01 214.482 398.438 213.428 397.031 213.077C396.68 213.077 396.328 212.726 396.328 212.375C396.328 212.023 396.328 211.672 396.328 211.672C397.383 210.618 399.845 206.753 398.79 204.997C397.735 202.889 393.163 202.537 391.405 202.537C391.053 202.537 390.701 202.186 390.701 201.835C390.701 201.484 390.701 201.132 391.053 200.781C391.053 200.781 396.68 195.511 394.57 192.7C393.866 191.646 392.811 191.295 391.756 191.295C389.295 190.944 386.481 193.754 385.075 194.808C384.723 195.16 384.371 195.511 384.371 195.511C384.02 195.511 383.668 195.511 383.316 195.511C382.965 195.16 382.965 194.808 383.316 194.457C383.316 194.457 383.668 194.106 384.02 193.403C395.625 175.134 395.976 170.918 395.273 169.864C395.273 169.864 395.273 169.864 394.921 169.864C392.46 169.513 383.316 178.999 372.415 193.754C371.711 194.457 371.36 195.16 371.36 195.16C371.36 195.511 371.008 195.511 370.656 195.511C370.656 195.511 369.953 195.511 369.601 195.16C361.865 191.998 357.996 193.403 356.238 195.16C352.721 199.727 354.48 216.59 355.535 222.563Z" fill="#002255"/>
<path d="M386.13 215.888C384.02 217.293 382.613 219.401 382.261 221.157C381.91 222.211 382.261 223.265 382.965 223.968C383.316 224.319 384.371 225.022 385.426 225.373C387.888 226.076 391.405 226.427 393.515 226.427C394.218 225.373 394.57 224.671 394.57 224.671C394.57 224.671 395.273 224.671 396.328 224.319C396.328 224.319 395.976 224.319 395.625 224.319C392.108 224.319 385.426 223.968 384.02 222.563C383.668 222.211 383.668 222.211 383.668 221.509C384.02 219.401 387.185 216.59 390.35 215.536C390.701 215.185 391.053 214.834 391.053 214.482C391.053 214.131 390.35 213.78 389.998 213.78C387.536 214.131 380.855 214.834 378.745 212.726C378.393 212.374 378.393 212.374 378.393 212.023C378.393 211.672 379.096 210.969 379.8 210.618C381.206 209.564 383.668 208.158 385.426 207.807C385.778 207.807 385.778 207.456 385.778 207.456C385.778 207.105 386.13 206.753 385.778 206.402C385.426 206.051 385.075 205.699 384.371 205.699C383.668 206.051 380.855 207.105 378.745 208.51C378.041 209.212 377.338 209.564 376.986 210.266C376.635 210.618 376.635 210.969 376.283 211.672C376.283 212.374 376.283 213.077 376.986 214.131C379.448 215.536 383.316 215.888 386.13 215.888Z" fill="#002255"/>
<path d="M376.635 201.484C376.987 201.835 376.987 202.186 376.987 202.538C376.635 203.592 376.284 204.997 376.284 205.7C376.284 206.402 376.635 206.402 376.987 206.754C377.339 207.105 378.042 207.105 378.745 207.105C380.504 207.105 382.965 206.402 385.427 205.7L385.075 206.051C383.317 206.754 380.855 207.808 379.449 208.861C379.097 208.861 379.097 208.861 378.745 208.861C378.042 208.861 377.339 208.861 376.635 208.861C376.284 208.861 376.284 208.861 375.932 208.51C374.877 208.159 374.174 207.105 374.174 206.051C373.822 204.997 374.174 203.24 374.877 201.835C375.58 201.132 376.284 201.132 376.635 201.484Z" fill="#002255"/>
<path d="M359.052 204.646C359.403 204.646 362.568 206.754 366.085 208.159C368.195 208.862 370.305 209.213 372.063 208.862C373.47 208.51 374.525 207.808 375.228 206.402C377.69 201.835 374.173 196.917 372.063 194.106C371.36 194.809 371.008 195.511 371.008 195.511C371.008 195.511 370.657 195.511 370.305 195.16C372.063 197.268 375.58 201.835 373.47 205.7C373.118 206.402 372.415 207.105 371.36 207.105C367.843 207.808 362.217 204.646 360.107 203.24C359.755 202.889 359.052 202.889 358.7 203.592C358.348 203.943 358.7 204.294 359.052 204.646Z" fill="#002255"/>
<path d="M369.249 231.346C369.601 231.346 369.953 231.346 370.304 230.995C370.656 230.643 370.656 229.941 370.304 229.589C368.194 227.481 367.491 225.022 367.842 222.563C368.546 216.239 376.283 210.618 376.283 210.618C376.634 210.267 376.986 209.564 376.634 209.213C376.282 208.861 375.579 208.51 375.227 208.861C374.876 209.213 366.788 214.834 365.733 222.212C365.381 225.374 366.436 228.184 369.249 231.346C368.898 231.346 368.898 230.995 369.249 231.346Z" fill="#002255"/>
<path d="M246.167 150.19L256.013 175.486C257.42 179.702 259.178 183.917 260.585 188.133C261.992 192.349 263.75 196.565 265.157 200.781C266.563 204.997 268.322 209.213 269.728 213.077C271.487 217.293 272.893 221.158 274.652 225.022C276.41 228.887 277.817 232.751 279.575 236.265C280.278 238.021 281.333 239.426 282.037 240.832L282.388 241.534L282.74 241.886V242.237V242.588C282.74 242.588 283.092 242.94 283.443 243.291C284.498 243.642 286.608 243.994 289.773 243.994C292.587 243.994 296.103 243.291 299.62 242.237C303.137 241.183 307.005 240.129 310.522 238.724C317.907 235.913 325.643 232.4 333.38 228.184C341.117 224.32 346.392 220.806 353.777 216.239C356.238 227.13 363.975 235.913 375.228 240.129C368.195 246.804 360.458 252.777 352.722 258.398C344.633 264.019 336.545 269.64 327.05 274.207C322.478 276.667 317.555 278.775 312.28 280.882C307.005 282.99 301.378 284.396 295.4 285.45C292.235 286.152 289.07 286.504 285.553 286.504C282.037 286.504 278.168 286.152 274.3 285.45C270.432 284.747 266.212 283.342 262.343 281.585C258.475 279.477 254.607 277.018 251.442 273.856C249.683 272.451 248.277 270.694 246.87 268.938L245.815 267.532L245.112 266.478C244.76 266.127 244.76 265.776 244.408 265.424C244.057 265.073 244.057 264.722 243.705 264.37C241.947 261.911 240.54 259.452 239.133 256.993C236.32 252.425 234.21 247.858 232.1 243.642C229.99 239.075 227.88 234.859 225.77 230.643C223.66 226.427 221.902 221.86 220.143 217.644C218.385 213.429 216.627 208.861 214.868 204.645C213.11 200.43 211.352 195.862 209.593 191.647C207.835 187.431 206.428 182.863 204.67 178.648L202.208 171.972L201.153 168.811C200.802 167.757 200.45 166.703 200.098 165.297L246.167 150.19Z" fill="#AF0B20"/>
<path d="M273.244 255.587C273.596 255.587 273.948 255.587 274.299 255.236C274.299 255.236 279.223 248.912 283.443 245.75C284.146 245.399 284.146 244.696 283.794 243.993C283.443 243.291 282.739 243.291 282.036 243.642C277.464 246.804 272.541 253.479 272.541 253.479C272.189 254.182 272.189 254.884 273.244 255.587Z" fill="#002255"/>
<path d="M282.037 256.992C283.092 256.641 283.443 256.289 283.443 255.587C283.443 255.587 282.388 250.317 283.443 246.101C283.795 245.398 283.092 244.696 282.74 244.696C282.037 244.345 281.333 245.047 281.333 245.398C279.927 249.966 281.333 255.938 281.333 256.289C280.982 256.641 281.333 256.992 282.037 256.992Z" fill="#002255"/>
<path d="M270.079 391.901C246.518 405.251 189.899 412.277 152.974 397.522C139.259 392.252 137.149 388.739 138.204 364.497C138.204 363.443 138.204 362.741 138.204 361.687C138.204 359.93 138.556 357.822 138.556 356.066C138.556 355.012 138.556 354.309 138.908 353.255C139.259 349.742 139.611 346.58 139.963 343.418C139.963 342.364 140.314 341.661 140.314 340.959C141.018 333.932 142.424 327.608 143.831 322.339C144.183 321.285 144.183 320.582 144.534 319.879C145.941 314.961 146.996 312.15 146.996 312.15C152.974 313.204 158.953 313.556 165.283 313.907C165.986 313.907 167.041 313.907 167.744 313.907C199.746 314.61 232.099 307.583 247.221 303.719C248.276 303.367 248.979 303.367 249.683 303.016C253.551 301.962 255.661 301.259 255.661 301.259C255.661 301.259 257.068 303.719 258.826 307.583C259.178 308.286 259.529 308.988 259.881 310.042C263.046 316.717 266.914 326.203 269.024 336.04V336.392C269.376 337.094 269.376 338.148 269.728 338.851V339.202C271.134 346.58 272.541 353.958 273.596 361.335C273.596 362.389 273.948 363.092 273.948 364.146C276.409 380.307 276.761 388.387 270.079 391.901Z" fill="#002255"/>
<path d="M270.079 339.905C270.079 339.553 270.079 339.553 270.079 339.905C265.156 337.094 260.936 333.23 257.419 327.96C257.067 327.257 256.364 326.554 256.012 325.852C252.496 319.879 249.331 312.502 247.221 304.07C248.276 303.719 248.979 303.719 249.682 303.367C251.792 311.799 254.957 319.177 258.474 324.798C258.826 325.501 259.529 326.203 259.881 326.906C262.694 330.77 265.859 333.932 269.376 336.392V336.743C269.727 337.445 269.727 338.499 270.079 339.202C270.079 339.553 270.079 339.553 270.079 339.905Z" fill="#0043AA"/>
<path d="M167.745 314.259C166.69 323.393 164.58 331.122 161.766 337.446C161.415 338.149 161.063 339.202 160.36 339.905C157.898 344.472 154.733 347.986 151.216 350.796C146.996 354.309 142.425 355.715 138.908 356.417C138.908 355.363 138.908 354.661 139.26 353.607C142.425 352.904 146.293 351.499 149.81 348.688C152.975 346.229 155.436 343.067 157.898 339.202C158.25 338.5 158.953 337.797 159.305 336.743C162.47 330.771 164.228 323.042 165.283 313.907C165.986 314.259 166.69 314.259 167.745 314.259Z" fill="#0043AA"/>
<path d="M260.233 310.042C258.475 310.745 256.365 311.799 254.255 312.502C253.552 312.853 252.497 313.204 251.793 313.555C239.837 318.123 224.012 323.041 206.78 324.798C206.077 324.798 205.373 324.798 204.67 325.149C189.197 326.554 173.372 325.852 160.36 324.798C159.305 324.798 158.602 324.798 157.547 324.446C151.92 323.744 146.997 323.393 143.128 322.69C143.48 321.636 143.48 320.933 143.832 320.231C148.052 320.933 152.975 321.636 158.602 321.987C159.656 321.987 160.36 321.987 161.415 322.339C174.778 323.393 190.603 324.095 206.077 322.69C222.605 320.933 238.078 316.366 250.035 311.799C250.738 311.448 251.793 311.096 252.497 310.745C254.607 310.042 256.717 308.988 258.475 308.286C259.53 308.637 259.882 309.34 260.233 310.042Z" fill="#0043AA"/>
<path d="M296.805 503.27C293.289 450.571 285.552 401.738 274.299 362.038L211.35 391.198C213.46 439.329 222.955 472.353 234.209 503.27H296.805Z" fill="#002255"/>
<path d="M244.055 503.27C225.769 451.274 222.604 408.764 222.604 408.413C222.604 407.71 221.9 407.007 221.197 407.359C220.494 407.359 219.79 408.061 220.142 408.764C220.142 409.467 223.307 451.625 241.594 503.621H244.055V503.27Z" fill="#0043AA"/>
<path d="M198.691 503.27C202.559 465.679 207.131 419.655 207.483 402.089L138.204 365.2C138.204 365.2 125.896 407.359 133.984 503.621H198.691V503.27Z" fill="#002255"/>
<path d="M192.361 503.27L203.966 407.359C203.966 406.657 203.614 405.954 202.559 405.603C201.856 405.603 201.152 405.954 200.801 407.008L189.196 503.27H192.361Z" fill="#0043AA"/>
<path d="M213.812 393.306C213.812 394.008 214.515 394.36 215.218 394.36C215.922 394.36 216.273 393.657 216.273 392.954C215.57 388.036 215.218 383.117 214.515 378.199C214.515 377.145 214.163 376.442 214.163 375.388C212.405 359.228 210.998 343.067 210.295 331.473C210.295 330.419 210.295 329.716 209.943 328.662C209.592 326.203 209.592 324.095 209.592 321.987C208.888 321.987 207.833 321.987 207.13 321.987C207.13 323.744 207.482 326.203 207.482 328.662C207.482 329.365 207.482 330.419 207.833 331.473C208.888 342.715 209.943 358.525 211.702 375.037C211.702 376.091 212.053 376.794 212.053 377.848C212.757 383.117 213.108 388.387 213.812 393.306Z" fill="#0043AA"/>
<path d="M207.13 376.793C207.482 376.793 209.592 377.496 212.054 377.847C212.757 377.847 213.812 378.199 214.867 378.199C215.57 378.199 216.625 378.199 217.329 378.199C218.735 377.847 220.494 377.496 221.549 376.793C222.955 375.739 223.659 374.334 223.659 372.226C223.659 366.956 222.252 346.228 221.197 331.473C221.197 330.419 221.197 329.716 220.845 328.662C220.494 326.203 220.494 324.095 220.494 322.338C219.79 322.338 218.735 322.338 218.032 322.338C218.032 324.095 218.384 326.203 218.384 328.662C218.384 329.365 218.384 330.419 218.735 331.473C219.79 346.228 221.197 366.956 221.197 372.226C221.197 373.28 220.845 374.334 220.142 374.685C218.735 375.739 216.977 375.739 214.867 375.739C213.812 375.739 213.109 375.739 212.054 375.388C210.647 375.037 209.24 374.685 208.185 374.685C207.482 374.334 206.779 375.037 206.427 375.388C206.075 376.091 206.427 376.793 207.13 376.793Z" fill="#0043AA"/>
<path d="M149.81 301.611L157.898 335.338C177.943 333.581 201.856 330.771 219.791 321.636C219.791 321.636 243.705 329.717 256.013 325.852L247.221 301.611H149.81Z" fill="#870C1A"/>
<path d="M268.321 326.554C245.111 326.554 231.045 323.393 218.385 312.853C194.471 337.445 135.743 338.499 135.743 338.499C141.721 319.528 143.48 286.152 143.48 286.152C143.128 282.639 142.776 279.126 142.425 275.261C142.073 271.748 141.721 267.884 140.666 264.37C135.04 247.507 128.006 235.562 122.028 218.347C121.676 217.293 121.325 216.239 120.973 214.834C120.621 214.131 120.27 213.429 120.27 212.726C118.16 207.456 116.05 201.835 113.94 196.916C104.093 174.432 102.686 148.785 125.896 141.056C127.655 140.353 129.413 140.002 130.82 139.299C141.721 135.786 151.216 133.678 153.678 132.976C154.03 132.976 154.381 132.976 154.381 132.976L203.615 137.191L208.186 137.543C215.22 138.245 222.253 138.245 226.825 139.299C230.693 140.353 233.155 140.002 237.375 141.056C247.221 143.867 246.87 156.866 249.683 173.026C249.683 173.378 249.683 173.729 249.683 173.729V174.08C250.386 176.891 250.738 179.702 251.441 182.161C252.145 185.323 253.2 188.133 253.903 190.944C259.53 208.861 266.563 216.942 265.156 228.184C264.101 238.372 253.903 252.074 251.09 254.885C250.386 255.587 250.035 255.939 250.035 255.939C250.035 256.29 250.035 256.641 250.035 257.344C250.386 259.1 250.386 261.208 251.09 263.316C251.793 271.748 253.2 279.477 254.606 286.504C255.31 290.368 256.013 293.53 257.068 297.043C262.695 316.015 268.321 326.554 268.321 326.554Z" fill="#E50A17"/>
<path d="M257.771 296.692C251.089 300.205 245.814 302.665 245.814 302.665L240.891 293.179C245.814 291.422 250.738 288.963 255.661 286.152C256.716 289.314 257.771 292.125 257.771 296.692Z" fill="#002255"/>
<path d="M150.513 287.909C150.513 287.909 173.02 297.394 189.548 299.151L187.086 309.339C187.086 309.339 160.008 304.772 149.106 297.043L150.513 287.909Z" fill="#002255"/>
<path d="M254.957 253.128C255.309 253.128 255.661 253.128 256.012 252.777C256.716 252.074 270.782 236.967 265.859 223.266C264.452 219.401 263.046 215.537 261.287 211.321C256.012 199.024 250.386 184.62 248.979 166.351C248.979 165.649 248.276 165.297 247.572 165.297C246.869 165.297 246.517 166 246.517 166.703C247.924 185.323 253.902 199.727 259.177 212.375C260.936 216.59 262.342 220.455 263.749 223.968C268.321 236.265 254.606 250.669 254.606 251.02C254.254 251.371 254.254 252.425 254.957 253.128C254.606 253.128 254.606 253.128 254.957 253.128Z" fill="#002255"/>
<path d="M213.813 199.024C213.813 200.43 212.406 201.835 211 201.835C209.593 201.835 208.186 200.43 208.186 199.024C208.186 197.619 209.593 196.214 211 196.214C212.406 196.565 213.813 197.619 213.813 199.024Z" fill="#002255"/>
<path d="M218.033 223.617C218.033 225.023 216.626 226.428 215.22 226.428C213.813 226.428 212.406 225.023 212.406 223.617C212.406 222.212 213.813 220.807 215.22 220.807C216.626 220.807 218.033 222.212 218.033 223.617Z" fill="#002255"/>
<path d="M217.681 251.02C219.235 251.02 220.494 249.762 220.494 248.21C220.494 246.657 219.235 245.399 217.681 245.399C216.127 245.399 214.868 246.657 214.868 248.21C214.868 249.762 216.127 251.02 217.681 251.02Z" fill="#002255"/>
<path d="M218.736 276.667C220.29 276.667 221.549 275.409 221.549 273.856C221.549 272.304 220.29 271.046 218.736 271.046C217.182 271.046 215.922 272.304 215.922 273.856C215.922 275.409 217.182 276.667 218.736 276.667Z" fill="#002255"/>
<path d="M221.198 300.557C221.198 301.962 219.791 303.367 218.384 303.367C216.978 303.367 215.571 301.962 215.571 300.557C215.571 299.151 216.978 297.746 218.384 297.746C220.143 297.746 221.198 298.8 221.198 300.557Z" fill="#002255"/>
<path d="M197.988 136.489C197.988 136.489 208.538 135.435 216.274 137.543L215.571 165.649L209.241 167.054L214.516 172.324L208.186 190.944C207.834 190.944 199.043 159.676 197.988 136.489Z" fill="#AF0B20"/>
<path d="M154.733 132.625L135.039 137.894L157.898 168.459L175.129 167.054L169.151 180.053L207.834 190.944C207.834 190.944 162.821 148.434 159.304 132.976L154.733 132.625Z" fill="#AF0B20"/>
<path d="M173.723 117.518C173.723 117.518 150.864 119.274 138.908 99.2488C127.303 79.9261 129.061 67.9811 131.874 55.3335C133.984 45.4964 145.238 30.3896 166.689 28.6329C188.141 27.2277 206.428 33.5515 213.461 49.7123C226.473 79.9261 211.351 124.895 173.723 117.518Z" fill="#002255"/>
<path d="M138.204 104.167C137.853 104.167 137.501 104.167 137.149 103.816C136.446 103.113 122.379 89.0606 124.138 64.468C125.193 49.3611 132.929 40.578 139.611 35.6595C146.644 30.3897 153.326 28.9844 153.326 28.9844C154.029 28.9844 154.733 29.3357 154.733 30.0383C154.733 30.741 154.381 31.4436 153.678 31.4436C153.678 31.4436 147.348 32.8489 140.666 37.7674C131.874 44.0913 127.303 53.2256 126.248 64.8193C124.489 88.0066 138.204 102.06 138.556 102.06C138.908 102.411 138.908 103.465 138.556 103.816C138.556 104.167 138.556 104.167 138.204 104.167Z" fill="#0043AA"/>
<path d="M198.691 139.651C187.438 168.108 158.953 139.651 157.546 133.327C161.063 117.166 157.194 103.816 157.194 103.816L196.581 113.653C196.581 114.707 196.581 115.761 196.581 117.166C196.581 122.436 196.933 127.706 197.636 133.327C197.636 135.084 197.988 136.84 198.691 139.651Z" fill="white"/>
<path d="M183.921 153.001C183.569 153.001 183.218 153.001 182.514 153.001C170.558 151.947 157.546 137.894 156.491 133.678V133.327C160.008 117.518 156.139 104.519 156.139 104.167C156.139 103.816 156.139 103.465 156.491 103.465C156.843 103.465 157.194 103.113 157.194 103.113L196.933 112.95C197.284 112.95 197.636 113.302 197.636 113.653V117.166C197.636 122.436 197.988 127.706 198.691 133.327C198.691 135.084 199.043 136.84 199.746 139.651C199.746 140.002 199.746 140.002 199.746 140.353C195.174 150.542 188.844 153.001 183.921 153.001ZM158.601 133.327C159.656 137.543 171.964 150.191 182.866 151.244C189.548 151.596 194.471 147.731 197.988 139.651C197.284 136.84 196.933 135.084 196.933 133.327C196.229 127.706 195.878 122.436 195.878 117.166V114.356L158.249 104.87C159.304 109.086 161.414 119.977 158.601 133.327Z" fill="#002255"/>
<path d="M201.855 84.493C201.855 84.493 203.965 75.0073 211.702 76.0612C219.439 77.4665 222.604 102.41 208.185 103.113L201.855 84.493Z" fill="white"/>
<path d="M208.185 103.816C207.834 103.816 207.482 103.465 207.482 103.113L201.152 84.4932V84.1419C201.855 80.6287 205.372 73.9535 212.054 75.0075C216.977 76.0615 219.79 84.1419 219.439 91.1684C218.735 98.8975 214.515 103.816 208.185 103.816ZM202.91 84.4932L208.889 102.059C215.922 101.357 217.329 93.9789 217.329 90.817C217.68 84.1419 214.867 77.1155 211.702 76.7641C205.372 76.0615 203.262 83.0879 202.91 84.4932Z" fill="#002255"/>
<path d="M197.636 111.545C195.877 104.87 200.097 97.8435 207.131 96.4382C213.812 94.6816 220.846 98.8975 222.252 105.924C224.011 112.599 219.791 119.626 212.757 121.031C206.076 122.436 199.394 118.22 197.636 111.545ZM199.394 110.842C200.801 116.464 206.427 120.328 212.406 118.923C218.032 117.518 221.901 111.896 220.494 105.924C219.087 100.303 213.461 96.4382 207.482 97.8435C201.856 99.6001 197.987 105.221 199.394 110.842Z" fill="#0043AA"/>
<path d="M174.426 117.869C183.921 121.03 194.471 122.084 199.746 118.571C205.724 114.707 210.999 108.032 212.406 94.3299C212.406 94.3299 212.406 94.3299 212.406 93.9786C212.406 93.276 212.406 92.222 212.757 91.5194C212.757 90.1141 213.109 88.7088 213.109 87.3035C213.109 86.9522 213.109 86.6008 213.109 86.2495C213.109 85.5469 213.109 84.4929 213.109 83.7903C213.109 82.7363 213.109 82.0336 213.109 80.9797C212.054 67.6294 210.647 52.1712 197.636 45.4961C184.272 38.4696 164.931 38.4696 155.436 52.1712C155.436 52.1712 148.402 63.7649 151.216 83.0876C154.029 102.41 153.677 99.5998 157.194 106.275C157.897 107.329 158.601 108.734 160.007 109.788" fill="white"/>
<path d="M190.251 121.733C184.976 121.733 178.998 120.328 174.074 118.923C173.723 118.923 173.371 118.22 173.371 117.869C173.371 117.517 174.074 117.166 174.426 117.166C184.976 120.679 194.471 121.031 199.043 117.869C206.076 113.302 210.296 105.572 211.351 94.3301V93.9788C211.351 93.2761 211.351 92.2222 211.703 91.1682C211.703 90.4656 211.703 89.7629 212.054 89.0603C212.054 88.3576 212.054 87.655 212.054 86.9523V80.6285C210.999 67.9809 209.944 52.5227 196.933 45.8476C183.921 39.1724 164.931 38.8211 155.788 52.1714C155.788 52.1714 149.106 63.765 151.568 82.3851C154.029 98.8973 154.029 98.8973 156.139 103.113C156.491 103.816 156.843 104.518 157.194 105.221C157.194 105.221 157.546 105.572 157.546 105.924C158.249 106.978 158.601 107.68 159.656 108.734C160.008 109.086 160.008 109.437 159.656 109.788C159.304 110.14 158.953 110.14 158.601 109.788C157.194 108.734 156.491 107.68 156.139 106.626L155.788 105.924C155.436 104.87 154.733 104.167 154.381 103.465C151.919 99.2486 151.919 98.8973 149.458 82.0338C146.644 62.7111 153.678 51.1174 153.678 50.4148C163.524 36.3619 183.218 36.3619 196.933 43.3883C210.648 50.4148 211.703 66.5756 212.758 79.5745V85.8984C212.758 86.601 212.758 87.3036 212.406 88.0063C212.406 88.7089 212.406 89.4116 212.406 90.1142V90.4656C212.054 90.8169 212.054 91.8708 212.054 92.5735V92.9248C210.999 104.87 206.428 112.95 199.043 117.869C197.636 121.031 194.119 121.733 190.251 121.733Z" fill="#002255"/>
<path d="M165.283 49.0099C165.283 49.0099 161.766 70.7919 156.14 75.7104C150.513 80.6289 144.183 71.1432 144.183 71.1432C144.183 71.1432 152.271 37.4162 165.283 49.0099Z" fill="#002255"/>
<path d="M191.307 46.1992C191.307 46.1992 181.812 65.1706 165.987 63.0627C150.513 60.9547 158.953 47.2531 158.953 47.2531C158.953 47.2531 185.68 31.7949 191.307 46.1992Z" fill="#002255"/>
<path d="M187.086 45.1452C187.086 45.1452 197.636 66.5758 211.703 60.6034C225.769 54.9822 202.208 35.6594 192.361 37.7674C182.866 40.2266 187.086 45.1452 187.086 45.1452Z" fill="#002255"/>
<path d="M192.361 109.789C193.416 109.789 194.119 109.437 194.119 109.437C194.471 109.437 194.822 108.735 194.471 108.383C194.471 108.032 193.767 107.681 193.416 108.032C193.064 108.032 184.624 110.491 181.459 101.708C181.459 101.357 180.756 101.006 180.404 101.357C180.052 101.357 179.701 102.06 180.052 102.411C182.866 110.14 189.196 110.14 192.361 109.789Z" fill="#002255"/>
<path d="M196.581 101.357C196.229 101.357 195.526 101.357 195.174 101.357C194.823 101.357 194.119 101.005 194.119 100.303C194.119 99.9514 194.471 99.2487 195.174 99.2487C197.284 99.2487 198.339 98.1948 199.043 97.4921C195.878 93.9789 193.416 84.4932 193.416 84.1419C193.416 83.7905 193.416 83.0879 194.119 83.0879C194.471 83.0879 195.174 83.0879 195.174 83.7905C195.878 86.6011 198.339 94.6815 201.153 96.7895C201.504 97.1408 201.504 97.4921 201.504 97.8434C200.801 98.5461 199.394 100.654 196.581 101.357Z" fill="#002255"/>
<path d="M181.812 95.033C175.13 96.4383 168.8 92.2224 167.394 85.5473C165.987 78.8722 170.207 72.5484 176.889 71.1431C183.57 69.7378 189.9 73.9536 191.307 80.6288C192.714 87.3039 188.494 93.6277 181.812 95.033ZM177.24 72.8997C171.614 73.9536 167.745 79.5748 169.152 85.196C170.207 90.8171 175.834 94.6817 181.46 93.2764C187.087 92.2224 190.955 86.6013 189.549 80.9801C188.494 75.3589 182.867 71.4944 177.24 72.8997Z" fill="#E50A17"/>
<path d="M210.297 92.9251C203.615 94.3304 197.285 90.1145 195.878 83.4394C194.472 76.7643 198.692 70.4404 205.373 69.0352C212.055 67.6299 218.385 71.8457 219.792 78.5209C221.198 85.196 216.978 91.8711 210.297 92.9251ZM205.725 70.7918C200.098 71.8457 196.23 77.4669 197.637 83.0881C198.692 88.7092 204.318 92.5738 209.945 91.1685C215.572 90.1145 219.44 84.4934 218.033 78.8722C216.978 73.251 211.352 69.7378 205.725 70.7918Z" fill="#E50A17"/>
<path d="M195.878 83.0883C193.768 81.3316 192.01 83.0883 191.658 83.0883L190.252 81.683C191.307 80.629 194.472 79.2237 196.933 81.683L195.878 83.0883Z" fill="#E50A17"/>
<path d="M167.745 81.6827C167.393 81.6827 167.042 81.6827 166.69 81.3314C166.69 81.3314 164.228 79.9261 155.437 80.2774C154.733 80.2774 154.03 79.9261 154.03 79.2235C154.03 78.5208 154.382 77.8182 155.085 77.8182C165.283 77.4668 167.393 79.2235 168.097 79.5748C168.448 79.9261 168.448 80.9801 167.745 81.6827C168.097 81.3314 168.097 81.3314 167.745 81.6827Z" fill="#E50A17"/>
<path d="M219.088 79.5748C218.737 79.5748 218.737 79.5748 218.385 79.5748C216.978 78.8721 214.165 79.2235 213.462 79.2235C213.11 79.2235 212.407 78.8722 212.407 78.5208C212.407 78.1695 212.758 77.4669 213.11 77.4669C213.11 77.4669 216.978 77.1155 219.088 78.1695C219.44 78.5208 219.792 78.8721 219.44 79.2235C219.792 79.5748 219.44 79.5748 219.088 79.5748Z" fill="#E50A17"/>
<path d="M184.625 65.1708C184.625 65.1708 180.405 61.6576 175.13 63.4142C172.317 64.4682 173.02 67.6301 176.537 66.9274C178.998 66.5761 180.405 66.5761 182.867 67.6301C184.977 68.6841 185.68 65.8735 184.625 65.1708Z" fill="#002255"/>
<path d="M198.691 64.468C198.691 64.468 202.56 60.2521 207.835 61.6574C211 62.36 210.648 65.522 207.131 65.522C204.67 65.522 203.263 65.8733 201.153 66.9272C198.691 68.3325 197.636 65.522 198.691 64.468Z" fill="#002255"/>
<path d="M155.787 80.2776C155.787 80.2776 150.512 72.8998 142.776 77.1156C135.039 81.3315 141.369 108.735 156.842 103.816" fill="white"/>
<path d="M153.326 105.222C148.051 105.222 143.479 101.708 140.666 95.0331C137.501 88.0067 137.501 78.8723 142.424 76.0617C150.864 71.4945 156.491 79.5749 156.491 79.5749C156.842 79.9263 156.842 80.6289 156.139 80.6289C155.787 80.9802 155.084 80.9802 155.084 80.2776C154.732 79.9263 150.161 73.6025 143.127 77.467C139.611 79.2236 139.259 87.304 142.072 93.9792C143.127 96.7898 147.699 105.222 156.491 102.411C156.842 102.411 157.546 102.411 157.546 103.114C157.546 103.465 157.546 104.168 156.842 104.168C155.787 105.222 154.381 105.222 153.326 105.222Z" fill="#002255"/>
<path d="M144.886 100.303C145.238 100.654 145.589 101.357 146.293 101.708C141.369 103.465 138.556 109.086 139.611 114.356C141.018 119.977 146.644 123.842 152.623 122.436C158.249 121.031 162.118 115.41 160.711 109.437C159.656 105.573 156.843 102.762 153.326 101.708C150.864 101.357 150.513 100.303 150.161 99.249C155.788 99.249 161.063 103.114 162.469 109.086C164.228 115.761 160.008 122.788 152.974 124.193C146.293 125.95 139.259 121.734 137.853 114.707C136.446 108.735 139.611 102.762 144.886 100.303Z" fill="#0043AA"/>
<path d="M153.677 93.6278C153.677 93.9791 153.677 94.3304 153.326 94.6818C152.974 94.6818 152.622 94.6818 152.622 94.3304C152.622 94.3304 151.567 91.8712 149.457 89.4119C148.051 90.8172 146.996 92.2225 146.996 92.2225L146.644 92.5738C146.292 92.5738 146.292 92.5738 145.941 92.5738C145.589 92.2225 145.589 91.8712 145.941 91.5199C145.941 91.5199 146.996 90.1146 148.402 88.358C146.996 87.304 145.589 86.6013 143.479 86.25C143.127 86.25 142.776 85.8987 142.776 85.5474C142.776 85.1961 143.127 84.8447 143.479 84.8447C150.512 85.5474 153.677 93.2765 153.677 93.6278Z" fill="#002255"/>
<path d="M181.108 82.0342C181.108 83.7908 182.163 85.1961 183.218 85.1961C184.273 85.1961 184.976 83.4395 184.976 81.6829C184.976 79.9263 183.921 78.521 182.866 78.521C181.459 78.521 180.756 80.2776 181.108 82.0342Z" fill="#002255"/>
<path d="M201.505 80.98C201.505 82.7366 202.56 84.1419 203.615 84.1419C204.67 84.1419 205.373 82.3853 205.373 80.6287C205.373 78.8721 204.318 77.4668 203.263 77.4668C202.208 77.8181 201.505 79.2234 201.505 80.98Z" fill="#002255"/>
<path d="M157.546 132.976C157.546 132.976 169.151 158.622 207.834 190.944C207.834 190.944 205.373 163.189 197.636 136.137" fill="white"/>
<path d="M207.834 191.647C207.483 191.647 207.483 191.647 207.131 191.295C168.799 159.676 156.843 133.678 156.843 133.327C156.491 132.976 156.843 132.273 157.194 132.273C157.546 131.922 158.249 132.273 158.249 132.624C158.249 132.976 169.854 157.568 206.779 188.836C206.076 181.809 203.263 158.622 196.933 136.489C196.933 136.138 196.933 135.435 197.636 135.435C197.988 135.435 198.691 135.435 198.691 136.138C206.428 162.838 208.889 190.944 208.889 190.944C208.889 191.295 208.889 191.647 208.538 191.647C208.186 191.647 207.834 191.647 207.834 191.647Z" fill="#002255"/>
<path d="M213.461 210.969C200.801 210.969 174.777 192.7 173.371 191.998C173.019 191.647 172.667 190.944 173.019 190.593C173.371 190.241 174.074 189.89 174.426 190.241C174.777 190.593 201.152 208.861 213.109 208.861C224.714 208.861 227.176 196.214 227.176 196.214C227.176 195.511 227.879 195.16 228.231 195.511C228.934 195.511 229.286 196.214 228.934 196.565C229.637 196.565 226.824 210.969 213.461 210.969Z" fill="#002255"/>
<path d="M179.701 262.263C180.053 262.614 180.404 262.965 180.756 262.965C181.108 262.965 181.108 262.965 181.459 262.965C181.811 262.965 200.098 252.426 222.604 256.993C234.209 259.101 243.704 259.101 251.441 257.344C251.441 256.993 251.441 256.641 251.441 255.939C251.441 255.939 251.793 255.588 252.496 254.885C245.111 256.641 235.264 256.993 223.308 254.885C200.098 250.318 181.459 260.857 180.756 261.209C179.701 261.209 179.349 261.911 179.701 262.263Z" fill="#002255"/>
<path d="M98.1151 267.532C98.1151 267.532 100.928 273.505 97.7634 286.855C94.5984 300.205 88.9718 308.286 88.9718 308.286C88.9718 308.286 75.6085 287.558 98.1151 267.532Z" fill="#9B0C1D"/>
<path d="M37.2764 254.182C37.2764 254.884 37.2764 255.587 37.2764 256.29C37.2764 256.992 37.628 257.695 37.628 258.398C37.628 258.749 37.628 259.1 37.9797 259.452L38.3314 260.506C39.0347 262.965 39.738 265.073 40.793 267.181C41.1447 268.235 41.848 269.289 42.5514 269.991C42.903 270.343 43.2547 271.045 43.2547 271.397L43.958 272.451C46.4197 275.613 48.8814 278.072 51.343 280.18C53.8047 282.288 56.2664 284.044 58.3764 285.45C59.4314 286.152 60.838 286.855 61.893 287.557C62.948 288.26 64.3547 288.963 65.4097 289.314C67.8714 290.368 69.9814 291.773 72.0914 292.827C76.663 294.935 81.2347 296.692 85.4547 298.097C90.0264 299.854 94.2464 301.259 98.818 302.313C103.39 303.718 107.61 304.772 112.181 305.826C116.753 306.88 120.973 307.934 125.545 308.988C127.303 309.339 129.413 309.691 131.875 309.691C135.391 310.042 139.26 310.042 141.721 310.745C142.425 306.88 139.26 304.07 139.963 300.205C140.666 295.989 141.37 291.422 142.073 287.206L140.666 283.342C137.853 282.639 135.391 281.936 132.578 281.234C132.578 281.234 132.578 281.234 132.226 281.234C128.358 280.18 124.49 279.126 120.27 277.72C116.401 276.315 112.181 274.91 108.313 273.505C104.445 272.099 100.576 270.343 97.0597 268.937C93.543 267.181 89.6747 265.424 86.5097 263.668C84.7514 262.614 83.3447 261.911 81.5864 260.857C80.883 260.506 80.1797 259.803 79.4764 259.452C78.773 259.1 78.0697 258.398 77.3664 258.046C76.3114 257.344 75.608 256.29 74.9047 255.587C74.553 255.236 74.553 255.236 74.2014 254.884L74.9047 254.182L75.9597 252.777C76.663 252.074 77.0147 251.02 77.718 250.317C79.1247 248.561 80.1797 247.155 81.5864 245.399L85.4547 240.48C88.268 237.318 90.7297 233.805 93.543 230.643L95.653 228.184L97.763 225.725L100.576 222.211L101.983 220.806L103.39 219.05L106.203 215.888L110.423 210.969C113.236 207.807 116.05 204.294 118.863 201.132L135.743 181.458C142.776 173.026 141.721 160.73 133.281 153.352C124.841 146.326 112.533 147.38 105.5 155.46L100.928 160.379L97.0597 164.243C95.653 166 94.2464 167.756 92.8397 169.162C91.433 170.918 90.0264 172.675 88.6197 174.432C85.8064 177.945 82.993 181.458 80.1797 184.62L75.9597 189.89L75.2564 190.592L71.7397 195.16C70.333 196.916 68.9264 198.673 67.5197 200.429L65.7614 202.889L64.7064 203.943L63.6514 205.348C60.838 208.861 58.3764 212.374 55.563 216.239L51.6947 221.86C50.288 223.617 48.8814 225.725 47.8264 227.481C47.123 228.535 46.4197 229.238 45.7164 230.292L43.6064 233.102L43.2547 233.805V234.156L42.903 234.859C42.5514 235.21 42.1997 235.913 42.1997 236.264C42.1997 236.616 41.848 236.616 41.848 236.967L41.1447 238.021C40.793 238.372 40.793 239.075 40.4414 239.426C40.0897 240.129 40.0897 240.48 39.738 241.183L39.3864 241.886C39.3864 242.237 39.0347 242.588 39.0347 242.588C38.683 243.291 38.683 243.642 38.3314 244.345C38.3314 245.047 37.9797 245.75 37.9797 246.101C37.9797 246.804 37.628 247.507 37.628 247.858C37.628 248.561 37.628 249.263 37.2764 249.966C37.2764 250.669 37.2764 251.371 37.2764 252.074V253.128C37.2764 253.479 37.2764 253.831 37.2764 254.182Z" fill="white"/>
<path d="M141.721 311.799C139.963 311.448 137.501 311.096 135.391 311.096C134.336 311.096 132.93 311.096 131.875 310.745C129.413 310.745 127.303 310.394 125.545 310.042C123.435 309.691 120.973 308.988 118.863 308.637C116.753 307.934 114.291 307.583 112.181 306.88C108.313 305.827 103.741 304.773 98.818 303.367C94.598 302.313 90.7297 301.259 85.4547 299.151C80.883 297.746 76.3114 295.989 72.0914 293.882C71.388 293.53 70.333 292.828 69.6297 292.476C68.223 291.774 66.8164 291.071 65.4097 290.368C64.3547 290.017 62.948 289.314 61.893 288.612C61.5414 288.26 60.838 287.909 60.1347 287.558C59.4314 287.206 58.728 286.855 58.3764 286.504C55.563 284.747 53.453 282.991 51.343 281.234C48.5297 278.775 46.068 276.315 43.958 273.505L43.2547 272.451V272.1L42.903 271.397C42.1997 270.694 41.1447 269.289 40.793 268.235C39.738 266.127 39.0347 263.668 38.3314 261.56L37.9797 260.857C37.628 260.155 37.628 259.803 37.628 259.452C37.628 259.101 37.628 258.749 37.628 258.749C37.628 258.398 37.2764 258.047 37.2764 257.344V251.02V250.669C37.628 250.318 37.628 249.615 37.628 248.912C37.628 248.561 37.628 248.21 37.628 248.21C37.628 247.858 37.9797 247.507 37.9797 247.156C37.9797 246.804 37.9797 246.453 37.9797 246.453C37.9797 246.102 38.3314 245.75 38.3314 245.399V245.048C38.3314 244.696 38.683 244.345 38.683 244.345C38.683 243.994 39.0347 243.642 39.0347 243.291C39.0347 243.291 39.0347 243.291 39.0347 242.94C39.0347 242.94 39.0347 242.588 39.3864 242.588L39.738 241.886C39.738 241.534 40.0897 241.183 40.0897 241.183C40.0897 240.832 40.4414 240.48 40.4414 240.129C40.4414 240.129 40.4414 240.129 40.4414 239.778V239.427C40.4414 239.075 40.793 238.724 41.1447 238.373L41.4964 237.67C41.4964 237.319 41.848 237.319 41.848 236.967C41.848 236.265 42.1997 235.562 42.5514 235.211L42.903 234.508V234.157L43.2547 233.454L45.3647 230.643C45.7164 230.292 46.068 229.589 46.4197 229.238C46.7714 228.887 47.123 228.536 47.4747 227.833C48.5297 225.725 50.288 223.617 51.343 222.212L56.9697 214.131C59.0797 211.321 61.1897 208.51 63.2997 205.7L64.3547 204.294L65.4097 203.24L67.168 200.781L74.9047 190.944L75.608 190.241L79.828 184.972C82.6414 181.81 85.4547 178.296 88.268 174.783L92.488 169.513C93.8947 168.108 95.3014 166.351 96.708 164.595L100.576 160.73L105.148 155.812C112.533 147.38 125.193 146.326 133.985 153.704C142.776 161.433 143.831 174.432 136.446 183.215L119.566 201.835C118.16 203.592 116.753 204.997 115.346 206.754C113.94 208.51 112.533 210.267 111.126 211.672L102.686 221.509L101.28 222.914L98.4664 226.428L94.2464 231.346C92.8397 232.751 91.433 234.508 90.378 236.265C88.9714 238.021 87.5647 239.778 86.158 241.183L82.2897 246.102C81.5864 247.156 80.883 247.858 80.1797 248.561C79.4764 249.264 79.1247 249.966 78.4214 251.02C78.0697 251.371 77.718 251.723 77.718 252.074C77.3664 252.425 77.0147 253.128 76.663 253.479L75.608 254.885C75.9597 255.236 75.9597 255.236 76.3114 255.587C76.663 256.29 77.3664 256.641 78.0697 256.993C78.4214 256.993 78.773 257.344 79.1247 257.695C79.4764 258.047 79.828 258.047 80.1797 258.398C80.5314 258.749 80.883 258.749 81.2347 259.101C81.5864 259.452 81.938 259.452 82.2897 259.803C83.3447 260.506 84.048 260.857 84.7514 261.209C85.4547 261.56 86.5097 262.263 87.213 262.614C89.323 263.668 91.7847 265.073 94.2464 266.127C95.3014 266.83 96.708 267.181 97.763 267.884C98.818 268.235 100.225 268.938 101.631 269.64C104.093 270.694 106.555 271.748 109.016 272.451C110.775 273.154 112.885 273.856 114.995 274.559C117.105 275.261 119.215 275.964 120.973 276.667C125.193 278.072 129.061 279.126 132.578 280.18H132.93C134.688 280.531 135.743 280.883 137.15 281.234C138.556 281.585 139.963 281.937 141.37 282.288C141.721 282.288 141.721 282.639 142.073 282.991L143.48 286.855V287.206C143.128 289.314 142.776 291.422 142.425 293.53C142.073 295.638 141.721 298.097 141.37 300.205C141.018 301.962 141.721 303.367 142.073 305.124C142.776 306.88 143.48 308.637 143.128 310.745C143.128 311.096 142.776 311.096 142.776 311.448C142.073 311.448 141.721 311.799 141.721 311.799ZM43.958 271.046L44.6614 272.1C46.7714 274.91 49.233 277.369 52.0464 279.477C54.1564 281.234 56.2664 282.991 59.0797 284.747C59.4314 285.098 60.1347 285.45 60.838 285.801C61.5414 286.152 62.2447 286.504 62.5964 286.855C63.6514 287.558 65.058 288.26 65.7614 288.612C67.5197 289.314 68.9264 290.017 69.9814 290.72C70.6847 291.071 71.7397 291.774 72.443 292.125C76.663 294.233 81.2347 295.989 85.8064 297.395C91.0814 299.503 94.9497 300.557 99.1697 301.611C104.093 303.016 108.665 304.07 112.533 305.124C114.995 305.827 117.105 306.178 119.215 306.88C121.325 307.232 123.435 307.934 125.896 308.286C127.655 308.637 129.765 308.988 131.875 308.988C132.93 308.988 134.336 309.34 135.391 309.34C137.501 309.34 139.26 309.691 141.018 310.042C141.018 308.637 140.666 307.583 139.963 306.178C139.26 304.421 138.556 302.665 138.908 300.557C139.26 298.449 139.611 296.341 139.963 293.882C140.315 291.774 140.666 289.666 141.018 287.558L139.963 284.396C138.556 284.044 137.501 283.693 136.446 283.342C135.04 282.991 133.985 282.639 132.578 282.288C132.578 282.288 132.578 282.288 132.226 282.288C128.358 281.234 124.49 280.18 120.27 278.775C118.16 278.072 116.401 277.369 114.291 276.667C112.181 275.964 110.071 275.261 108.313 274.559C105.851 273.505 103.39 272.451 100.928 271.748C99.5214 271.046 98.1147 270.694 97.0597 269.992C95.653 269.289 94.598 268.938 93.543 268.235C91.0814 267.181 88.6197 265.776 86.5097 264.722C85.4547 264.019 84.7514 263.668 84.048 263.316C83.3447 262.965 82.2897 262.263 81.5864 261.911C81.2347 261.911 80.883 261.56 80.5314 261.209C80.1797 260.857 79.828 260.857 79.4764 260.506C79.1247 260.155 78.773 260.155 78.4214 259.803C77.718 259.101 77.3664 259.101 77.0147 258.749C75.9597 258.047 75.608 257.344 74.9047 256.993C74.553 256.641 74.553 256.641 74.2014 256.29L73.498 255.587C73.498 255.587 73.1464 255.236 73.1464 254.885C73.1464 254.533 73.1464 254.533 73.498 254.182L74.2014 253.479L75.2564 252.074C75.608 251.723 75.9597 251.371 75.9597 251.02C76.3114 250.669 76.663 249.966 77.0147 249.615C77.718 248.912 78.4214 248.21 78.773 247.156C79.4764 246.453 80.1797 245.399 80.883 244.696L84.7514 239.778C86.158 238.021 87.5647 236.616 88.9714 234.859C90.378 233.103 91.7847 231.346 93.1914 229.941L97.4114 225.022L100.225 221.509L101.631 220.104L103.038 218.347L105.851 215.185L110.071 210.267C111.478 208.51 112.885 207.105 114.291 205.348C115.698 203.592 117.105 201.835 118.511 200.43L135.391 180.756C142.073 172.675 141.018 161.082 132.93 154.055C124.841 147.38 113.236 148.083 106.555 156.163L101.983 161.082L98.1147 164.946C96.708 166.703 95.3014 168.459 93.8947 169.865L89.6747 175.134C86.8614 178.648 84.048 182.161 81.2347 185.323L77.0147 190.593L76.3114 191.295L72.7947 195.863L68.5747 201.132L66.8164 203.592L65.7614 204.646L64.7064 206.051C62.5964 208.861 60.4864 211.672 58.3764 214.483L56.2664 216.591L52.398 222.212C50.9914 223.968 49.5847 225.725 48.5297 227.833C48.178 228.536 47.8264 228.887 47.4747 229.238C47.123 229.589 46.7714 229.941 46.4197 230.643L43.958 234.157V234.508L43.6064 235.211C43.6064 235.211 43.6064 235.211 43.6064 235.562C43.2547 235.913 43.2547 236.265 43.2547 236.265C43.2547 236.616 42.903 236.967 42.903 237.319V237.67L42.1997 238.724C42.1997 239.075 41.848 239.075 41.848 239.075C41.848 239.427 41.4964 239.778 41.4964 240.129C41.4964 240.48 41.1447 240.481 41.1447 240.832C41.1447 241.183 40.793 241.534 40.793 241.886L40.4414 242.588C40.4414 242.94 40.0897 243.291 40.0897 243.642C40.0897 243.994 39.738 243.994 39.738 244.345C39.738 244.696 39.738 244.696 39.3864 245.048C39.3864 245.399 39.3864 245.75 39.0347 246.102V246.453C39.0347 246.804 39.0347 247.507 38.683 247.858V248.21C38.683 248.912 38.683 249.615 38.3314 250.318V256.29C38.3314 256.641 38.3314 256.993 38.3314 256.993C38.3314 257.344 38.683 257.695 38.683 258.398C38.683 258.749 38.683 258.749 38.683 258.749C38.683 258.749 38.683 259.101 39.0347 259.101L39.3864 260.155C40.0897 262.263 40.793 264.37 41.848 266.83C42.1997 267.884 42.903 268.586 43.6064 269.289C43.6064 269.64 43.958 270.343 43.958 271.046Z" fill="#002255"/>
<path d="M124.138 278.775C124.138 278.775 120.973 275.613 117.105 276.315C117.105 276.315 107.61 292.125 112.533 305.826C112.533 305.826 114.643 307.934 119.215 307.232C119.215 307.232 114.643 291.071 124.138 278.775Z" fill="#161960"/>
<path d="M105.851 292.476C106.203 297.746 110.423 301.61 115.698 301.259C120.973 300.908 124.841 296.692 124.49 291.422C124.138 286.152 119.918 282.288 114.643 282.639C109.72 282.99 105.851 287.206 105.851 292.476Z" fill="#161960"/>
<path d="M115.698 299.151C119.567 298.8 122.732 295.638 122.38 291.773C122.028 287.909 118.863 284.747 114.995 285.098C111.127 285.449 107.962 288.611 108.313 292.476C108.665 296.34 111.83 299.151 115.698 299.151Z" fill="white"/>
<path d="M142.776 159.676C144.886 166 143.128 172.675 138.908 177.945C130.82 187.431 115.346 205.348 106.906 216.59C94.9497 232.4 79.828 252.074 79.828 252.074C79.828 252.074 90.7297 261.56 98.4664 266.829C98.4664 266.829 79.828 282.639 89.323 308.286C89.323 308.286 55.563 289.665 38.683 272.099C26.023 259.1 29.5397 242.94 40.793 227.481C46.4197 219.752 90.7297 169.513 106.203 151.947C111.83 145.623 120.973 142.813 129.413 145.623C134.688 147.38 140.315 151.244 142.776 159.676Z" fill="#AF0B20"/>
<path d="M132.93 285.098C132.93 285.098 134.337 277.72 136.095 270.343C137.853 264.37 141.018 262.262 141.018 262.262C141.722 266.478 142.777 268.937 142.777 276.315C142.777 276.315 144.535 274.558 148.052 275.261C151.217 275.964 162.822 278.423 163.173 280.882C163.525 286.855 149.107 284.044 149.107 284.044C149.107 284.044 164.58 286.855 164.228 291.071C163.877 294.584 149.81 295.287 149.81 295.287C149.81 295.287 163.173 295.287 161.767 300.205C160.008 305.475 147.7 301.962 147.7 301.962C147.7 301.962 156.843 306.178 155.788 307.934C154.382 310.393 149.107 311.447 140.667 309.339C131.523 307.934 132.93 285.098 132.93 285.098Z" fill="white"/>
<path d="M148.755 311.447C146.293 311.447 143.48 311.096 140.315 310.393C130.468 308.988 131.875 286.152 131.875 285.098C131.875 285.098 133.281 277.72 135.04 270.343C136.798 264.019 140.315 261.911 140.315 261.559C140.666 261.559 141.018 261.208 141.018 261.559C141.37 261.559 141.37 261.911 141.37 262.262C141.721 263.316 141.721 264.37 142.073 265.073C142.776 267.532 143.128 269.991 143.128 274.91C144.183 274.558 145.59 274.207 147.7 274.558H148.051C158.601 277.018 163.173 278.774 163.525 280.882C163.525 282.288 163.173 283.341 162.118 284.044C161.063 285.098 159.305 285.449 157.546 285.801C161.415 287.206 164.58 288.963 164.58 291.422C164.228 293.53 160.711 294.935 157.195 295.638C158.953 295.989 160.711 296.692 161.766 298.097C162.47 298.8 162.47 299.854 162.118 300.908C161.063 304.421 156.491 304.772 152.623 304.421C154.381 305.475 155.788 306.529 156.14 307.583C156.14 308.285 156.14 308.637 156.14 308.988C155.436 310.393 152.623 311.447 148.755 311.447ZM133.633 285.098C133.281 291.422 133.633 307.231 140.666 308.285C149.106 310.393 153.678 309.339 154.733 307.231C154.381 306.529 150.865 304.421 146.996 302.664C146.645 302.313 146.293 301.962 146.645 301.61C146.645 301.259 147.348 300.908 147.7 300.908C150.865 301.962 159.305 303.367 160.711 299.854C160.711 299.502 160.711 299.151 160.36 298.8C158.953 297.043 152.975 296.34 149.458 296.34C149.106 296.34 148.755 295.989 148.755 295.638C148.755 295.286 149.106 294.935 149.458 294.584C155.788 294.232 162.821 292.827 163.173 291.071C163.173 288.963 156.14 286.503 149.106 285.098C148.755 285.098 148.755 285.098 148.755 285.098C148.403 285.098 148.051 284.395 148.051 284.044C148.051 283.693 148.755 283.341 149.106 283.341H149.458C152.271 283.693 159.305 284.747 161.415 282.639C161.766 282.288 162.118 281.585 162.118 280.882C162.118 280.531 160.711 279.126 148.051 276.315H147.7C144.886 275.612 143.128 277.018 143.128 277.018C142.776 277.369 142.425 277.369 142.073 277.018C141.721 277.018 141.37 276.666 141.37 276.315C141.37 271.045 140.666 268.235 140.315 265.424C140.315 265.073 139.963 264.37 139.963 264.019C138.908 265.073 137.501 267.181 136.446 270.694C135.391 277.369 133.985 284.395 133.633 285.098Z" fill="#002255"/>
<path d="M117.104 206.402C116.752 206.402 116.401 206.402 116.049 206.051C115.697 205.7 115.346 204.997 116.049 204.294L136.094 180.756C136.446 180.404 137.149 180.053 137.852 180.756C138.204 181.107 138.556 181.81 137.852 182.512L117.807 206.051C117.456 206.051 117.104 206.402 117.104 206.402Z" fill="#002255"/>
<path d="M138.556 188.836L131.171 189.89C130.467 189.89 129.764 189.539 129.764 188.836C129.764 188.134 130.116 187.431 130.819 187.431L138.204 186.377C138.907 186.377 139.611 186.728 139.611 187.431C139.611 188.134 139.259 188.836 138.556 188.836Z" fill="#002255"/>
<path d="M57.6731 257.695L58.0247 258.047C58.3764 258.047 58.3764 258.047 58.7281 258.047C64.3547 253.831 74.5531 253.479 79.4764 253.479C79.1247 253.128 79.1247 253.128 78.7731 252.777L79.4764 252.074C79.1247 252.074 78.4214 252.074 78.0697 252.074C74.9047 248.912 66.4647 246.102 66.1131 246.102C65.7614 246.102 65.4097 246.102 65.0581 246.453C65.0581 246.804 65.0581 247.156 65.4097 247.507C65.4097 247.507 71.7397 249.615 75.6081 252.074C69.9814 252.425 62.5964 253.479 57.6731 256.993C57.3214 256.641 57.3214 257.344 57.6731 257.695Z" fill="#002255"/>
</g>
</g>
<path d="M422 495H0V501H422V495Z" fill="#BFBFBF" mask="url(#path-1-inside-1_2299_12183)"/>
<defs>
<clipPath id="clip0_2299_12183">
<path d="M0 0H422V498H0V0Z" fill="white"/>
</clipPath>
</defs>
</svg>
