<svg width="358" height="460" viewBox="0 0 358 460" fill="none" xmlns="http://www.w3.org/2000/svg">
<mask id="mask0_3167_32583" style="mask-type:luminance" maskUnits="userSpaceOnUse" x="0" y="0" width="358" height="458">
<path d="M358 0H0V458H358V0Z" fill="white"/>
</mask>
<g mask="url(#mask0_3167_32583)">
<path d="M120.89 18.2814C120.89 18.2814 106.664 -0.247023 84.8288 10.0098C69.6105 16.9579 68.2871 38.795 77.5505 69.2345C91.1146 113.57 83.5055 144.341 83.5055 144.341L104.679 143.348C105.01 143.348 134.785 53.0221 120.89 18.2814Z" fill="#002255"/>
<path d="M307.81 198.933C307.81 198.933 312.442 214.153 324.683 215.476C334.277 216.469 341.886 206.212 344.533 202.242C345.194 201.249 345.525 200.587 345.525 200.587C345.525 200.587 346.187 200.587 347.179 200.257C349.495 199.926 353.796 198.933 355.119 195.625C357.104 190.992 347.841 189.338 347.841 189.338C347.841 189.338 351.811 184.706 350.157 182.059C348.503 179.412 342.548 179.412 342.548 179.412C342.548 179.412 348.503 174.118 345.856 170.81C341.886 165.847 335.931 172.795 335.269 173.126C335.6 172.464 350.819 149.304 345.856 148.642C341.555 147.98 327.66 166.508 324.021 171.471C323.359 172.133 323.029 172.795 323.029 172.795C323.029 172.795 322.698 172.795 322.367 172.464C320.051 171.471 312.773 168.494 308.803 172.464C304.171 177.758 307.81 198.933 307.81 198.933Z" fill="white"/>
<path d="M326.006 216.469C325.676 216.469 325.014 216.469 324.683 216.469C312.111 215.146 307.149 199.926 307.149 199.264C307.149 198.271 303.51 177.758 308.472 172.133C310.457 170.148 314.758 168.494 323.029 171.802C323.36 171.471 323.36 171.141 323.691 170.81C330.307 161.876 341.886 146.988 346.187 147.649C346.849 147.649 347.511 147.98 347.511 148.642C348.172 149.965 347.841 153.936 338.578 169.155C339.901 168.494 341.556 167.832 342.879 167.832C344.202 167.832 345.526 168.494 346.518 169.817C348.834 172.464 346.187 176.434 344.533 178.089C346.518 178.42 349.826 179.081 350.819 181.067C352.142 183.383 350.488 186.691 349.165 188.346C351.15 188.676 354.458 190 355.781 192.316C356.443 193.309 356.443 194.301 355.781 195.625C354.458 198.933 350.488 200.257 347.18 200.588C346.849 200.918 346.187 200.918 345.856 200.918C345.526 201.249 345.526 201.58 345.195 202.242C341.886 207.867 334.608 216.469 326.006 216.469ZM308.472 198.602C308.803 199.595 313.435 213.16 324.683 214.484C333.285 215.476 340.232 206.874 343.871 201.58C344.533 200.588 344.864 199.926 344.864 199.926C344.864 199.595 345.195 199.595 345.526 199.595C345.526 199.595 346.187 199.595 346.849 199.264C349.165 198.933 353.135 197.941 354.127 194.963C354.458 194.301 354.458 193.639 354.127 192.978C353.135 190.992 348.834 190 347.511 189.669C347.18 189.669 346.849 189.338 346.849 189.007C346.849 188.676 346.849 188.346 346.849 188.346C347.841 187.353 350.157 183.713 349.165 182.059C348.172 180.074 343.871 179.743 342.217 179.743C341.886 179.743 341.556 179.412 341.556 179.081C341.556 178.75 341.556 178.42 341.886 178.089C341.886 178.089 347.18 173.126 345.195 170.479C344.533 169.486 343.541 169.155 342.548 169.155C340.232 168.825 337.586 171.471 336.262 172.464C335.931 172.795 335.601 173.126 335.601 173.126C335.27 173.126 334.939 173.126 334.608 173.126C334.277 172.795 334.277 172.464 334.608 172.133C334.608 172.133 334.939 171.802 335.27 171.141C346.187 153.936 346.518 149.965 345.856 148.973C345.856 148.973 345.856 148.973 345.526 148.973C343.21 148.642 334.688 157.806 324.432 171.703C323.771 172.364 323.492 172.795 323.492 172.795C323.492 173.126 323.029 173.126 322.698 173.126C322.698 173.126 322.036 173.126 321.706 172.795C314.427 169.817 310.788 171.141 309.134 172.795C305.826 177.096 307.48 192.978 308.472 198.602Z" fill="#002255"/>
<path d="M337.255 192.316C335.27 193.639 333.946 195.624 333.616 197.279C333.285 198.271 333.616 199.264 334.277 199.926C334.608 200.257 335.601 200.918 336.593 201.249C338.909 201.911 342.217 202.242 344.202 202.242C344.864 201.249 345.195 200.587 345.195 200.587C345.195 200.587 345.856 200.587 346.849 200.257C346.849 200.257 346.518 200.257 346.187 200.257C342.879 200.257 336.593 199.926 335.27 198.602C334.939 198.271 334.939 198.271 334.939 197.61C335.27 195.624 338.247 192.977 341.225 191.985C341.556 191.654 341.886 191.323 341.886 190.992C341.886 190.661 341.225 190.331 340.894 190.331C338.578 190.661 332.292 191.323 330.307 189.338C329.976 189.007 329.976 189.007 329.976 188.676C329.976 188.345 330.638 187.684 331.3 187.353C332.623 186.36 334.939 185.037 336.593 184.706C336.924 184.706 336.924 184.375 336.924 184.375C336.924 184.044 337.255 183.713 336.924 183.382C336.593 183.052 336.262 182.721 335.601 182.721C334.939 183.052 332.292 184.044 330.307 185.368C329.646 186.029 328.984 186.36 328.653 187.022C328.322 187.353 328.322 187.684 327.991 188.345C327.991 189.007 327.991 189.669 328.653 190.661C330.969 191.985 334.608 192.316 337.255 192.316Z" fill="#002255"/>
<path d="M328.323 178.751C328.654 179.081 328.654 179.412 328.654 179.743C328.323 180.736 327.992 182.059 327.992 182.721C327.992 183.383 328.323 183.383 328.654 183.713C328.984 184.044 329.646 184.044 330.308 184.044C331.962 184.044 334.278 183.383 336.594 182.721L336.263 183.052C334.609 183.714 332.293 184.706 330.969 185.699C330.639 185.699 330.639 185.699 330.308 185.699C329.646 185.699 328.984 185.699 328.323 185.699C327.992 185.699 327.992 185.699 327.661 185.368C326.669 185.037 326.007 184.044 326.007 183.052C325.676 182.059 326.007 180.405 326.669 179.081C327.33 178.42 327.992 178.42 328.323 178.751Z" fill="#002255"/>
<path d="M311.781 181.728C312.112 181.728 315.089 183.713 318.398 185.037C320.383 185.699 322.368 186.029 324.022 185.699C325.345 185.368 326.338 184.706 326.999 183.382C329.315 179.081 326.007 174.449 324.022 171.802C323.36 172.464 323.029 173.126 323.029 173.126C323.029 173.126 322.698 173.126 322.368 172.795C324.022 174.78 327.33 179.081 325.345 182.721C325.014 183.382 324.353 184.044 323.36 184.044C320.052 184.706 314.758 181.728 312.773 180.405C312.443 180.074 311.781 180.074 311.45 180.736C311.119 181.066 311.45 181.397 311.781 181.728Z" fill="#002255"/>
<path d="M321.374 206.874C321.705 206.874 322.036 206.874 322.367 206.543C322.697 206.212 322.697 205.55 322.367 205.22C320.382 203.234 319.72 200.918 320.051 198.602C320.712 192.647 327.991 187.353 327.991 187.353C328.322 187.022 328.652 186.36 328.322 186.029C327.991 185.699 327.329 185.368 326.998 185.699C326.667 186.029 319.058 191.323 318.066 198.271C317.735 201.249 318.727 203.896 321.374 206.874C321.043 206.874 321.043 206.543 321.374 206.874Z" fill="#002255"/>
<path d="M205.583 130.444L214.847 154.267C216.17 158.237 217.824 162.207 219.148 166.178C220.471 170.148 222.125 174.118 223.448 178.089C224.772 182.059 226.426 186.03 227.749 189.669C229.403 193.639 230.727 197.279 232.381 200.918C234.035 204.558 235.358 208.197 237.013 211.506C237.674 213.16 238.667 214.484 239.328 215.807L239.659 216.469L239.99 216.8V217.131V217.462C239.99 217.462 240.321 217.792 240.652 218.123C241.644 218.454 243.629 218.785 246.607 218.785C249.253 218.785 252.562 218.123 255.87 217.131C259.178 216.138 262.818 215.146 266.126 213.822C273.073 211.175 280.352 207.867 287.63 203.896C294.908 200.257 299.871 196.948 306.818 192.647C309.134 202.904 316.413 211.175 326.999 215.146C320.383 221.432 313.104 227.057 305.826 232.351C298.217 237.644 290.608 242.938 281.675 247.239C277.374 249.555 272.743 251.541 267.78 253.526C262.818 255.511 257.524 256.834 251.9 257.827C248.923 258.489 245.945 258.82 242.637 258.82C239.328 258.82 235.689 258.489 232.05 257.827C228.411 257.165 224.441 255.842 220.802 254.188C217.163 252.202 213.523 249.886 210.546 246.909C208.892 245.585 207.568 243.931 206.245 242.276L205.253 240.953L204.591 239.96C204.26 239.63 204.26 239.299 203.929 238.968C203.598 238.637 203.598 238.306 203.268 237.975C201.613 235.659 200.29 233.343 198.967 231.027C196.32 226.726 194.335 222.425 192.35 218.454C190.365 214.153 188.38 210.183 186.395 206.212C184.41 202.242 182.756 197.941 181.102 193.97C179.448 190 177.793 185.699 176.139 181.728C174.485 177.758 172.831 173.457 171.177 169.486C169.523 165.516 168.199 161.215 166.545 157.244L164.229 150.958L163.237 147.98C162.906 146.988 162.575 145.995 162.244 144.671L205.583 130.444Z" fill="#89060E"/>
<path d="M231.057 229.704C231.388 229.704 231.719 229.704 232.05 229.373C232.05 229.373 236.681 223.417 240.651 220.439C241.313 220.108 241.313 219.447 240.982 218.785C240.651 218.123 239.99 218.123 239.328 218.454C235.027 221.432 230.395 227.718 230.395 227.718C230.065 228.38 230.065 229.042 231.057 229.704Z" fill="#002255"/>
<path d="M239.328 231.027C240.321 230.696 240.652 230.366 240.652 229.704C240.652 229.704 239.659 224.741 240.652 220.771C240.983 220.109 240.321 219.447 239.99 219.447C239.328 219.116 238.667 219.778 238.667 220.109C237.343 224.41 238.667 230.035 238.667 230.366C238.336 230.696 238.667 231.027 239.328 231.027Z" fill="#002255"/>
<path d="M228.079 358.079C205.913 370.652 152.649 377.269 117.912 363.373C105.009 358.41 103.024 355.101 104.017 332.271C104.017 331.279 104.017 330.617 104.017 329.624C104.017 327.97 104.348 325.985 104.348 324.331C104.348 323.338 104.348 322.676 104.678 321.684C105.009 318.375 105.34 315.397 105.671 312.42C105.671 311.427 106.002 310.765 106.002 310.103C106.663 303.486 107.987 297.531 109.31 292.568C109.641 291.575 109.641 290.913 109.972 290.252C111.295 285.62 112.288 282.973 112.288 282.973C117.912 283.965 123.536 284.296 129.491 284.627C130.153 284.627 131.145 284.627 131.807 284.627C161.913 285.289 192.349 278.671 206.575 275.032C207.568 274.701 208.229 274.701 208.891 274.37C212.53 273.378 214.515 272.716 214.515 272.716C214.515 272.716 215.838 275.032 217.493 278.671C217.823 279.333 218.154 279.995 218.485 280.987C221.463 287.274 225.102 296.207 227.087 305.471V305.802C227.418 306.464 227.418 307.457 227.748 308.118V308.449C229.072 315.397 230.395 322.345 231.388 329.294C231.388 330.286 231.718 330.948 231.718 331.941C234.034 347.16 234.365 354.77 228.079 358.079Z" fill="#002255"/>
<path d="M228.079 309.111C228.079 308.78 228.079 308.78 228.079 309.111C223.447 306.464 219.477 302.825 216.169 297.862C215.838 297.2 215.176 296.538 214.846 295.876C211.537 290.252 208.56 283.304 206.575 275.363C207.567 275.032 208.229 275.032 208.891 274.701C210.876 282.642 213.853 289.59 217.161 294.884C217.492 295.546 218.154 296.207 218.485 296.869C221.131 300.509 224.109 303.486 227.417 305.802V306.133C227.748 306.795 227.748 307.788 228.079 308.449C228.079 308.78 228.079 308.78 228.079 309.111Z" fill="#0043AA"/>
<path d="M131.807 284.958C130.815 293.56 128.83 300.839 126.183 306.795C125.852 307.457 125.521 308.449 124.86 309.111C122.544 313.412 119.566 316.721 116.258 319.368C112.288 322.676 107.987 324 104.679 324.662C104.679 323.669 104.679 323.007 105.01 322.015C107.987 321.353 111.626 320.029 114.935 317.383C117.912 315.066 120.228 312.089 122.544 308.449C122.875 307.787 123.536 307.126 123.867 306.133C126.845 300.508 128.499 293.229 129.491 284.627C130.153 284.958 130.815 284.958 131.807 284.958Z" fill="#0043AA"/>
<path d="M218.816 280.987C217.162 281.649 215.177 282.642 213.192 283.303C212.531 283.634 211.538 283.965 210.876 284.296C199.628 288.597 184.741 293.229 168.53 294.884C167.868 294.884 167.206 294.884 166.545 295.215C151.988 296.538 137.101 295.876 124.86 294.884C123.867 294.884 123.206 294.884 122.213 294.553C116.92 293.891 112.288 293.56 108.649 292.898C108.98 291.906 108.98 291.244 109.311 290.582C113.281 291.244 117.912 291.906 123.206 292.237C124.198 292.237 124.86 292.237 125.852 292.568C138.424 293.56 153.311 294.222 167.868 292.898C183.417 291.244 197.974 286.943 209.222 282.642C209.884 282.311 210.876 281.98 211.538 281.649C213.523 280.987 215.508 279.995 217.162 279.333C218.155 279.664 218.486 280.326 218.816 280.987Z" fill="#0043AA"/>
<path d="M253.222 462.962C249.914 413.333 242.635 367.343 232.049 329.955L172.829 357.417C174.814 402.745 183.747 433.846 194.334 462.962H253.222Z" fill="#002255"/>
<path d="M203.597 462.962C186.394 413.994 183.416 373.96 183.416 373.629C183.416 372.967 182.755 372.305 182.093 372.636C181.431 372.636 180.769 373.298 181.1 373.96C181.1 374.622 184.078 414.325 201.281 463.293H203.597V462.962Z" fill="#0043AA"/>
<path d="M160.92 462.963C164.559 427.56 168.86 384.217 169.191 367.674L104.017 332.933C104.017 332.933 92.4376 372.637 100.047 463.294H160.92V462.963Z" fill="#002255"/>
<path d="M154.965 462.963L165.882 372.637C165.882 371.975 165.551 371.313 164.559 370.982C163.897 370.982 163.236 371.313 162.905 372.306L151.987 462.963H154.965Z" fill="#0043AA"/>
<path d="M175.145 359.402C175.145 360.064 175.807 360.395 176.468 360.395C177.13 360.395 177.461 359.733 177.461 359.071C176.799 354.439 176.468 349.807 175.807 345.175C175.807 344.182 175.476 343.521 175.476 342.528C173.822 327.308 172.498 312.089 171.837 301.17C171.837 300.178 171.837 299.516 171.506 298.523C171.175 296.207 171.175 294.222 171.175 292.237C170.513 292.237 169.521 292.237 168.859 292.237C168.859 293.891 169.19 296.207 169.19 298.523C169.19 299.185 169.19 300.178 169.521 301.17C170.513 311.758 171.506 326.647 173.16 342.197C173.16 343.19 173.491 343.852 173.491 344.844C174.153 349.807 174.483 354.77 175.145 359.402Z" fill="#0043AA"/>
<path d="M168.86 343.852C169.19 343.852 171.175 344.514 173.491 344.844C174.153 344.844 175.145 345.175 176.138 345.175C176.8 345.175 177.792 345.175 178.454 345.175C179.777 344.844 181.431 344.514 182.424 343.852C183.747 342.859 184.409 341.536 184.409 339.551C184.409 334.588 183.085 315.067 182.093 301.17C182.093 300.178 182.093 299.516 181.762 298.523C181.431 296.207 181.431 294.222 181.431 292.568C180.77 292.568 179.777 292.568 179.115 292.568C179.115 294.222 179.446 296.207 179.446 298.523C179.446 299.185 179.446 300.178 179.777 301.17C180.77 315.067 182.093 334.588 182.093 339.551C182.093 340.543 181.762 341.536 181.1 341.867C179.777 342.859 178.123 342.859 176.138 342.859C175.145 342.859 174.484 342.859 173.491 342.528C172.168 342.197 170.845 341.867 169.852 341.867C169.19 341.536 168.529 342.197 168.198 342.528C167.867 343.19 168.198 343.852 168.86 343.852Z" fill="#0043AA"/>
<path d="M114.935 273.047L122.544 304.81C141.401 303.156 163.898 300.509 180.771 291.906C180.771 291.906 203.267 299.516 214.846 295.877L206.576 273.047H114.935Z" fill="#870C1A"/>
<path d="M226.426 296.538C204.591 296.538 191.357 293.56 179.447 283.634C156.951 306.795 101.701 307.787 101.701 307.787C107.326 289.921 108.98 258.489 108.98 258.489C108.649 255.18 108.318 251.871 107.987 248.232C107.656 244.923 107.326 241.284 106.333 237.975C101.04 222.094 94.423 210.844 88.7989 194.632C88.468 193.639 88.1372 192.647 87.8064 191.323C87.4755 190.662 87.1447 190 87.1447 189.338C85.1597 184.375 83.1747 179.081 81.1897 174.449C71.9264 153.274 70.603 129.121 92.438 121.842C94.0922 121.18 95.7464 120.849 97.0697 120.187C107.326 116.879 116.258 114.894 118.574 114.232C118.905 114.232 119.236 114.232 119.236 114.232L165.552 118.202L169.853 118.533C176.47 119.195 183.086 119.195 187.387 120.187C191.026 121.18 193.342 120.849 197.312 121.842C206.576 124.489 206.245 136.731 208.891 151.95C208.891 152.281 208.891 152.612 208.891 152.612V152.943C209.553 155.59 209.884 158.237 210.546 160.553C211.207 163.531 212.2 166.178 212.861 168.825C218.155 185.699 224.771 193.308 223.448 203.896C222.456 213.491 212.861 226.395 210.215 229.042C209.553 229.704 209.222 230.034 209.222 230.034C209.222 230.365 209.222 230.696 209.222 231.358C209.553 233.012 209.553 234.997 210.215 236.983C210.876 244.923 212.2 252.202 213.523 258.82C214.185 262.459 214.846 265.437 215.839 268.746C221.132 286.612 226.426 296.538 226.426 296.538Z" fill="#C3121D"/>
<path d="M216.5 268.415C210.214 271.723 205.252 274.039 205.252 274.039L200.62 265.106C205.252 263.452 209.883 261.136 214.515 258.489C215.507 261.467 216.5 264.113 216.5 268.415Z" fill="#002255"/>
<path d="M115.596 260.143C115.596 260.143 136.77 269.076 152.319 270.731L150.003 280.326C150.003 280.326 124.529 276.025 114.273 268.746L115.596 260.143Z" fill="#002255"/>
<path d="M213.853 227.387C214.184 227.387 214.515 227.387 214.846 227.057C215.508 226.395 228.741 212.168 224.109 199.264C222.786 195.624 221.463 191.985 219.808 188.015C214.846 176.434 209.553 162.869 208.229 145.664C208.229 145.002 207.568 144.671 206.906 144.671C206.244 144.671 205.913 145.333 205.913 145.995C207.237 163.531 212.861 177.096 217.823 189.007C219.477 192.978 220.801 196.617 222.124 199.926C226.425 211.506 213.523 225.071 213.523 225.402C213.192 225.733 213.192 226.726 213.853 227.387C213.523 227.387 213.523 227.387 213.853 227.387Z" fill="#002255"/>
<path d="M175.146 176.434C175.146 177.757 173.823 179.081 172.5 179.081C171.176 179.081 169.853 177.757 169.853 176.434C169.853 175.111 171.176 173.787 172.5 173.787C173.823 174.118 175.146 175.111 175.146 176.434Z" fill="#002255"/>
<path d="M179.116 199.595C179.116 200.918 177.793 202.242 176.47 202.242C175.146 202.242 173.823 200.918 173.823 199.595C173.823 198.271 175.146 196.948 176.47 196.948C177.793 196.948 179.116 198.271 179.116 199.595Z" fill="#002255"/>
<path d="M178.785 225.402C180.247 225.402 181.432 224.217 181.432 222.755C181.432 221.293 180.247 220.108 178.785 220.108C177.324 220.108 176.139 221.293 176.139 222.755C176.139 224.217 177.324 225.402 178.785 225.402Z" fill="#002255"/>
<path d="M179.777 249.555C181.239 249.555 182.424 248.37 182.424 246.908C182.424 245.446 181.239 244.261 179.777 244.261C178.316 244.261 177.131 245.446 177.131 246.908C177.131 248.37 178.316 249.555 179.777 249.555Z" fill="#002255"/>
<path d="M182.093 272.054C182.093 273.377 180.77 274.701 179.447 274.701C178.123 274.701 176.8 273.377 176.8 272.054C176.8 270.73 178.123 269.407 179.447 269.407C181.101 269.407 182.093 270.399 182.093 272.054Z" fill="#002255"/>
<path d="M160.259 117.541C160.259 117.541 170.184 116.548 177.462 118.533L176.8 145.002L170.845 146.326L175.808 151.289L169.853 168.825C169.522 168.825 161.251 139.378 160.259 117.541Z" fill="#AF0B20"/>
<path d="M119.566 113.901L101.039 118.864L122.543 147.649L138.754 146.326L133.13 158.568L169.522 168.824C169.522 168.824 127.175 128.79 123.867 114.232L119.566 113.901Z" fill="#AF0B20"/>
<path d="M137.431 99.6738C137.431 99.6738 115.927 101.328 104.678 82.4688C93.761 64.2713 95.4151 53.0219 98.0618 41.1108C100.047 31.8466 110.633 17.6195 130.814 15.9651C150.995 14.6417 168.198 20.5972 174.815 35.817C187.056 64.2713 172.83 106.622 137.431 99.6738Z" fill="#002255"/>
<path d="M104.017 87.1008C103.686 87.1008 103.355 87.1008 103.024 86.77C102.363 86.1082 89.1293 72.8737 90.7835 49.7132C91.776 35.486 99.0543 27.2144 105.34 22.5823C111.957 17.6194 118.243 16.2959 118.243 16.2959C118.904 16.2959 119.566 16.6268 119.566 17.2885C119.566 17.9502 119.235 18.6119 118.573 18.6119C118.573 18.6119 112.618 19.9354 106.333 24.5675C98.0618 30.5231 93.761 39.1255 92.7685 50.0441C91.1143 71.8811 104.017 85.1157 104.348 85.1157C104.678 85.4465 104.678 86.4391 104.348 86.77C104.348 87.1008 104.348 87.1008 104.017 87.1008Z" fill="#0043AA"/>
<path d="M160.92 120.518C150.334 147.318 123.536 120.518 122.213 114.563C125.521 99.3429 121.882 86.77 121.882 86.77L158.935 96.0342C158.935 97.0268 158.935 98.0194 158.935 99.3429C158.935 104.306 159.266 109.269 159.928 114.563C159.928 116.217 160.259 117.871 160.92 120.518Z" fill="white"/>
<path d="M147.025 133.091C146.694 133.091 146.363 133.091 145.702 133.091C134.453 132.099 122.213 118.864 121.22 114.894V114.563C124.528 99.6738 120.889 87.4319 120.889 87.101C120.889 86.7701 120.889 86.4393 121.22 86.4393C121.551 86.4393 121.882 86.1084 121.882 86.1084L159.266 95.3726C159.597 95.3726 159.928 95.7035 159.928 96.0343V99.343C159.928 104.306 160.258 109.269 160.92 114.563C160.92 116.217 161.251 117.871 161.913 120.518C161.913 120.849 161.913 120.849 161.913 121.18C157.612 130.775 151.657 133.091 147.025 133.091ZM123.205 114.563C124.198 118.533 135.777 130.444 146.033 131.437C152.318 131.768 156.95 128.128 160.258 120.518C159.597 117.871 159.266 116.217 159.266 114.563C158.604 109.269 158.273 104.306 158.273 99.343V96.696L122.874 87.7627C123.867 91.7331 125.852 101.99 123.205 114.563Z" fill="#002255"/>
<path d="M163.897 68.5724C163.897 68.5724 165.882 59.6391 173.16 60.6317C180.439 61.9551 183.416 85.4465 169.852 86.1082L163.897 68.5724Z" fill="white"/>
<path d="M169.852 86.7701C169.521 86.7701 169.19 86.4392 169.19 86.1083L163.235 68.5725V68.2417C163.897 64.933 167.205 58.6466 173.491 59.6392C178.123 60.6318 180.77 68.2417 180.439 74.859C179.777 82.138 175.807 86.7701 169.852 86.7701ZM164.89 68.5725L170.514 85.1157C177.13 84.454 178.454 77.5059 178.454 74.5281C178.785 68.2417 176.138 61.6244 173.16 61.2935C167.205 60.6318 165.22 67.2491 164.89 68.5725Z" fill="#002255"/>
<path d="M159.927 94.0489C158.273 87.7625 162.243 81.1452 168.86 79.8218C175.146 78.1675 181.762 82.1378 183.086 88.7551C184.74 95.0415 180.77 101.659 174.153 102.982C167.867 104.306 161.581 100.335 159.927 94.0489ZM161.581 93.3872C162.905 98.681 168.198 102.321 173.822 100.997C179.116 99.6736 182.755 94.3798 181.431 88.7551C180.108 83.4613 174.815 79.8218 169.191 81.1452C163.897 82.7995 160.258 88.0934 161.581 93.3872Z" fill="#0043AA"/>
<path d="M138.092 100.004C147.025 102.982 156.95 103.975 161.912 100.666C167.536 97.0267 172.499 90.7403 173.822 77.8366C173.822 77.8366 173.822 77.8366 173.822 77.5057C173.822 76.844 173.822 75.8514 174.153 75.1897C174.153 73.8662 174.484 72.5427 174.484 71.2193C174.484 70.8884 174.484 70.5576 174.484 70.2267C174.484 69.565 174.484 68.5724 174.484 67.9106C174.484 66.918 174.484 66.2563 174.484 65.2637C173.491 52.6909 172.168 38.1329 159.927 31.8464C147.356 25.2292 129.16 25.2292 120.227 38.1329C120.227 38.1329 113.611 49.0514 116.257 67.2489C118.904 85.4464 118.573 82.7995 121.881 89.086C122.543 90.0785 123.205 91.402 124.528 92.3946" fill="white"/>
<path d="M152.98 103.644C148.018 103.644 142.393 102.32 137.762 100.997C137.431 100.997 137.1 100.335 137.1 100.004C137.1 99.6736 137.762 99.3427 138.093 99.3427C148.018 102.651 156.95 102.982 161.251 100.004C167.868 95.7032 171.838 88.4242 172.83 77.8365V77.5057C172.83 76.844 172.83 75.8514 173.161 74.8588C173.161 74.197 173.161 73.5353 173.492 72.8736C173.492 72.2119 173.492 71.5501 173.492 70.8884V64.9328C172.499 53.0217 171.507 38.4637 159.266 32.1773C147.025 25.8909 129.16 25.56 120.558 38.1328C120.558 38.1328 114.273 49.0514 116.588 66.5872C118.904 82.1378 118.904 82.1378 120.889 86.1082C121.22 86.7699 121.551 87.4316 121.882 88.0933C121.882 88.0933 122.213 88.4242 122.213 88.7551C122.874 89.7477 123.205 90.4094 124.198 91.402C124.528 91.7328 124.528 92.0637 124.198 92.3946C123.867 92.7254 123.536 92.7254 123.205 92.3946C121.882 91.402 121.22 90.4094 120.889 89.4168L120.558 88.7551C120.228 87.7625 119.566 87.1007 119.235 86.439C116.919 82.4687 116.919 82.1378 114.603 66.2563C111.957 48.0588 118.573 37.1403 118.573 36.4785C127.837 23.244 146.363 23.244 159.266 29.8612C172.168 36.4785 173.161 51.6983 174.153 63.9402V69.8958C174.153 70.5575 174.153 71.2193 173.823 71.881C173.823 72.5427 173.823 73.2044 173.823 73.8662V74.197C173.492 74.5279 173.492 75.5205 173.492 76.1822V76.5131C172.499 87.7625 168.198 95.3723 161.251 100.004C159.928 102.982 156.619 103.644 152.98 103.644Z" fill="#002255"/>
<path d="M129.491 35.1552C129.491 35.1552 126.183 55.6688 120.89 60.3009C115.596 64.933 109.641 55.9997 109.641 55.9997C109.641 55.9997 117.251 24.2367 129.491 35.1552Z" fill="#002255"/>
<path d="M153.973 32.5086C153.973 32.5086 145.041 50.3753 130.153 48.3901C115.597 46.4049 123.537 33.5012 123.537 33.5012C123.537 33.5012 148.68 18.9432 153.973 32.5086Z" fill="#002255"/>
<path d="M150.003 31.5158C150.003 31.5158 159.928 51.6985 173.161 46.0738C186.394 40.78 164.228 22.5824 154.965 24.5676C146.033 26.8837 150.003 31.5158 150.003 31.5158Z" fill="#002255"/>
<path d="M154.965 92.3947C155.957 92.3947 156.619 92.0638 156.619 92.0638C156.95 92.0638 157.28 91.4021 156.95 91.0712C156.95 90.7404 156.288 90.4095 155.957 90.7404C155.626 90.7404 147.686 93.0564 144.709 84.7848C144.709 84.4539 144.047 84.1231 143.716 84.4539C143.385 84.4539 143.055 85.1157 143.385 85.4465C146.032 92.7255 151.987 92.7255 154.965 92.3947Z" fill="#002255"/>
<path d="M158.935 84.454C158.604 84.454 157.943 84.454 157.612 84.454C157.281 84.454 156.619 84.1231 156.619 83.4614C156.619 83.1305 156.95 82.4688 157.612 82.4688C159.597 82.4688 160.589 81.4762 161.251 80.8145C158.273 77.5058 155.958 68.5725 155.958 68.2416C155.958 67.9108 155.958 67.249 156.619 67.249C156.95 67.249 157.612 67.249 157.612 67.9108C158.273 70.5577 160.589 78.1675 163.236 80.1527C163.567 80.4836 163.567 80.8145 163.567 81.1453C162.905 81.807 161.582 83.7922 158.935 84.454Z" fill="#002255"/>
<path d="M145.041 78.4987C138.755 79.8221 132.8 75.8518 131.477 69.5653C130.153 63.2789 134.123 57.3234 140.409 55.9999C146.695 54.6764 152.65 58.6468 153.973 64.9332C155.297 71.2197 151.327 77.1752 145.041 78.4987ZM140.74 57.6542C135.447 58.6468 131.808 63.9406 133.131 69.2345C134.123 74.5283 139.417 78.1678 144.71 76.8443C150.003 75.8517 153.643 70.5579 152.319 65.2641C151.327 59.9703 146.033 56.3308 140.74 57.6542Z" fill="#E50A17"/>
<path d="M171.838 76.5133C165.552 77.8368 159.597 73.8664 158.274 67.58C156.951 61.2936 160.921 55.338 167.206 54.0145C173.492 52.6911 179.447 56.6615 180.771 62.9479C182.094 69.2343 178.124 75.5207 171.838 76.5133ZM167.537 55.6689C162.244 56.6615 158.605 61.9553 159.928 67.2491C160.921 72.5429 166.214 76.1825 171.507 74.859C176.801 73.8664 180.44 68.5726 179.116 63.2787C178.124 57.9849 172.831 54.6763 167.537 55.6689Z" fill="#E50A17"/>
<path d="M158.274 67.2491C156.289 65.5948 154.635 67.2491 154.304 67.2491L152.981 65.9257C153.973 64.9331 156.951 63.6096 159.266 65.9257L158.274 67.2491Z" fill="#E50A17"/>
<path d="M131.807 65.9257C131.476 65.9257 131.146 65.9257 130.815 65.5948C130.815 65.5948 128.499 64.2714 120.228 64.6022C119.566 64.6022 118.905 64.2714 118.905 63.6096C118.905 62.9479 119.236 62.2862 119.897 62.2862C129.491 61.9553 131.476 63.6096 132.138 63.9405C132.469 64.2714 132.469 65.264 131.807 65.9257C132.138 65.5948 132.138 65.5948 131.807 65.9257Z" fill="#E50A17"/>
<path d="M180.109 63.9405C179.778 63.9405 179.778 63.9405 179.447 63.9405C178.124 63.2787 175.477 63.6096 174.816 63.6096C174.485 63.6096 173.823 63.2787 173.823 62.9479C173.823 62.617 174.154 61.9553 174.485 61.9553C174.485 61.9553 178.124 61.6244 180.109 62.617C180.44 62.9479 180.771 63.2787 180.44 63.6096C180.771 63.9405 180.44 63.9405 180.109 63.9405Z" fill="#E50A17"/>
<path d="M147.687 50.3753C147.687 50.3753 143.717 47.0667 138.755 48.721C136.108 49.7136 136.77 52.6914 140.078 52.0297C142.394 51.6988 143.717 51.6988 146.033 52.6914C148.018 53.684 148.68 51.0371 147.687 50.3753Z" fill="#002255"/>
<path d="M160.92 49.7134C160.92 49.7134 164.56 45.743 169.522 47.0665C172.5 47.7282 172.169 50.706 168.86 50.706C166.545 50.706 165.221 51.0369 163.236 52.0294C160.92 53.3529 159.928 50.706 160.92 49.7134Z" fill="#002255"/>
<path d="M120.558 64.6021C120.558 64.6021 115.595 57.654 108.317 61.6243C101.039 65.5947 106.994 91.4021 121.55 86.77" fill="white"/>
<path d="M118.242 88.0934C113.28 88.0934 108.979 84.7847 106.332 78.4983C103.355 71.881 103.355 63.2786 107.986 60.6316C115.926 56.3304 121.22 63.9403 121.22 63.9403C121.55 64.2711 121.55 64.9329 120.889 64.9329C120.558 65.2637 119.896 65.2637 119.896 64.602C119.565 64.2711 115.265 58.3156 108.648 61.9551C105.34 63.6094 105.009 71.2193 107.655 77.5057C108.648 80.1526 112.949 88.0934 121.22 85.4465C121.55 85.4465 122.212 85.4465 122.212 86.1082C122.212 86.439 122.212 87.1008 121.55 87.1008C120.558 88.0934 119.235 88.0934 118.242 88.0934Z" fill="#002255"/>
<path d="M110.303 83.4613C110.633 83.7922 110.964 84.4539 111.626 84.7848C106.994 86.4391 104.348 91.7329 105.34 96.6959C106.663 101.99 111.957 105.629 117.581 104.306C122.874 102.982 126.513 97.6885 125.19 92.0638C124.198 88.4243 121.551 85.7774 118.243 84.7848C115.927 84.4539 115.596 83.4613 115.265 82.4688C120.558 82.4688 125.521 86.1083 126.844 91.7329C128.498 98.0194 124.528 104.637 117.912 105.96C111.626 107.614 105.009 103.644 103.686 97.0268C102.363 91.4021 105.34 85.7774 110.303 83.4613Z" fill="#0043AA"/>
<path d="M118.573 77.1749C118.573 77.5058 118.573 77.8367 118.242 78.1675C117.911 78.1675 117.58 78.1675 117.58 77.8367C117.58 77.8367 116.588 75.5206 114.603 73.2046C113.28 74.528 112.287 75.8515 112.287 75.8515L111.956 76.1823C111.625 76.1823 111.625 76.1823 111.295 76.1823C110.964 75.8515 110.964 75.5206 111.295 75.1897C111.295 75.1897 112.287 73.8663 113.61 72.212C112.287 71.2194 110.964 70.5576 108.979 70.2268C108.648 70.2268 108.317 69.8959 108.317 69.5651C108.317 69.2342 108.648 68.9033 108.979 68.9033C115.595 69.565 118.573 76.8441 118.573 77.1749Z" fill="#002255"/>
<path d="M144.378 66.2564C144.378 67.9107 145.371 69.2342 146.363 69.2342C147.356 69.2342 148.018 67.5799 148.018 65.9255C148.018 64.2712 147.025 62.9478 146.033 62.9478C144.709 62.9478 144.048 64.6021 144.378 66.2564Z" fill="#002255"/>
<path d="M163.567 65.2637C163.567 66.918 164.56 68.2415 165.552 68.2415C166.545 68.2415 167.207 66.5872 167.207 64.9329C167.207 63.2785 166.214 61.9551 165.222 61.9551C164.229 62.2859 163.567 63.6094 163.567 65.2637Z" fill="#002255"/>
<path d="M122.213 114.232C122.213 114.232 133.13 138.385 169.522 168.825C169.522 168.825 167.206 142.686 159.928 117.21" fill="white"/>
<path d="M169.522 169.486C169.191 169.486 169.191 169.486 168.86 169.155C132.799 139.378 121.551 114.894 121.551 114.563C121.22 114.232 121.551 113.57 121.882 113.57C122.213 113.239 122.874 113.57 122.874 113.901C122.874 114.232 133.792 137.392 168.529 166.839C167.868 160.222 165.221 138.385 159.266 117.541C159.266 117.21 159.266 116.548 159.928 116.548C160.258 116.548 160.92 116.548 160.92 117.21C168.198 142.355 170.514 168.824 170.514 168.824C170.514 169.155 170.514 169.486 170.183 169.486C169.853 169.486 169.522 169.486 169.522 169.486Z" fill="#002255"/>
<path d="M174.815 187.683C162.905 187.683 138.423 170.478 137.1 169.817C136.769 169.486 136.438 168.824 136.769 168.493C137.1 168.162 137.762 167.832 138.092 168.162C138.423 168.493 163.236 185.698 174.484 185.698C185.402 185.698 187.717 173.787 187.717 173.787C187.717 173.125 188.379 172.795 188.71 173.125C189.372 173.125 189.702 173.787 189.372 174.118C190.033 174.118 187.387 187.683 174.815 187.683Z" fill="#002255"/>
<path d="M143.055 235.99C143.386 236.321 143.717 236.652 144.047 236.652C144.378 236.652 144.378 236.652 144.709 236.652C145.04 236.652 162.243 226.726 183.417 231.027C194.334 233.012 203.267 233.012 210.545 231.358C210.545 231.027 210.545 230.696 210.545 230.034C210.545 230.034 210.876 229.704 211.537 229.042C204.59 230.696 195.327 231.027 184.078 229.042C162.243 224.741 144.709 234.666 144.047 234.997C143.055 234.997 142.724 235.659 143.055 235.99Z" fill="#002255"/>
<path d="M66.3026 240.953C66.3026 240.953 68.9492 246.578 65.9717 259.151C62.9942 271.723 57.7009 279.333 57.7009 279.333C57.7009 279.333 45.1292 259.812 66.3026 240.953Z" fill="#9B0C1D"/>
<path d="M9.06799 228.38C9.06799 229.042 9.06799 229.704 9.06799 230.366C9.06799 231.027 9.39882 231.689 9.39882 232.351C9.39882 232.682 9.39883 233.012 9.72966 233.343L10.0605 234.336C10.7222 236.652 11.3838 238.637 12.3763 240.622C12.7072 241.615 13.3688 242.608 14.0305 243.269C14.3613 243.6 14.6922 244.262 14.6922 244.593L15.3538 245.585C17.6697 248.563 19.9855 250.879 22.3013 252.864C24.6172 254.85 26.933 256.504 28.918 257.827C29.9105 258.489 31.2338 259.151 32.2263 259.812C33.2188 260.474 34.5422 261.136 35.5347 261.467C37.8505 262.459 39.8355 263.783 41.8205 264.775C46.1213 266.761 50.4222 268.415 54.3922 269.738C58.693 271.393 62.663 272.716 66.9638 273.709C71.2647 275.032 75.2347 276.025 79.5355 277.017C83.8363 278.01 87.8063 279.003 92.1072 279.995C93.7613 280.326 95.7463 280.657 98.0622 280.657C101.37 280.988 105.01 280.988 107.325 281.65C107.987 278.01 105.01 275.363 105.671 271.724C106.333 267.753 106.995 263.452 107.656 259.482L106.333 255.842C103.686 255.18 101.37 254.519 98.7238 253.857C98.7238 253.857 98.7238 253.857 98.393 253.857C94.7538 252.864 91.1147 251.872 87.1447 250.548C83.5055 249.225 79.5355 247.901 75.8963 246.578C72.2572 245.254 68.618 243.6 65.3097 242.277C62.0013 240.622 58.3622 238.968 55.3847 237.314C53.7305 236.321 52.4072 235.659 50.753 234.667C50.0913 234.336 49.4297 233.674 48.768 233.343C48.1063 233.012 47.4447 232.351 46.783 232.02C45.7905 231.358 45.1288 230.366 44.4672 229.704C44.1363 229.373 44.1363 229.373 43.8055 229.042L44.4672 228.38L45.4597 227.057C46.1213 226.395 46.4522 225.403 47.1138 224.741C48.4372 223.087 49.4297 221.763 50.753 220.109L54.3922 215.477C57.0388 212.499 59.3547 209.19 62.0013 206.212L63.9863 203.896L65.9713 201.58L68.618 198.272L69.9413 196.948L71.2647 195.294L73.9113 192.316L77.8813 187.684C80.528 184.706 83.1747 181.398 85.8213 178.42L101.701 159.892C108.318 151.951 107.326 140.371 99.3855 133.422C91.4455 126.805 79.8663 127.798 73.2497 135.408L68.9488 140.04L65.3097 143.679C63.9863 145.333 62.663 146.988 61.3397 148.311C60.0163 149.966 58.693 151.62 57.3697 153.274C54.723 156.583 52.0763 159.891 49.4297 162.869L45.4597 167.832L44.798 168.494L41.4897 172.795C40.1663 174.45 38.843 176.104 37.5197 177.758L35.8655 180.074L34.873 181.067L33.8805 182.39C31.2338 185.699 28.918 189.008 26.2713 192.647L22.6322 197.941C21.3088 199.595 19.9855 201.58 18.993 203.235C18.3313 204.227 17.6697 204.889 17.008 205.882L15.023 208.529L14.6922 209.19V209.521L14.3613 210.183C14.0305 210.514 13.6997 211.175 13.6997 211.506C13.6997 211.837 13.3688 211.837 13.3688 212.168L12.7072 213.161C12.3763 213.492 12.3763 214.153 12.0455 214.484C11.7147 215.146 11.7147 215.477 11.3838 216.138L11.053 216.8C11.053 217.131 10.7222 217.462 10.7222 217.462C10.3913 218.124 10.3913 218.454 10.0605 219.116C10.0605 219.778 9.72966 220.44 9.72966 220.771C9.72966 221.432 9.39882 222.094 9.39882 222.425C9.39882 223.087 9.39883 223.748 9.06799 224.41C9.06799 225.072 9.06799 225.733 9.06799 226.395V227.388C9.06799 227.719 9.06799 228.05 9.06799 228.38Z" fill="white"/>
<path d="M107.325 282.642C105.671 282.311 103.355 281.981 101.37 281.981C100.378 281.981 99.0547 281.981 98.0622 281.65C95.7463 281.65 93.7613 281.319 92.1072 280.988C90.1222 280.657 87.8063 279.995 85.8213 279.664C83.8363 279.003 81.5205 278.672 79.5355 278.01C75.8963 277.018 71.5955 276.025 66.9638 274.702C62.9938 273.709 59.3547 272.716 54.3922 270.731C50.0913 269.408 45.7905 267.753 41.8205 265.768C41.1588 265.437 40.1663 264.776 39.5047 264.445C38.1813 263.783 36.858 263.121 35.5347 262.46C34.5422 262.129 33.2188 261.467 32.2263 260.805C31.8955 260.474 31.2338 260.144 30.5722 259.813C29.9105 259.482 29.2488 259.151 28.918 258.82C26.2713 257.166 24.2863 255.511 22.3013 253.857C19.6547 251.541 17.3388 249.225 15.3538 246.578L14.6922 245.585V245.255L14.3613 244.593C13.6997 243.931 12.7072 242.608 12.3763 241.615C11.3838 239.63 10.7222 237.314 10.0605 235.329L9.72966 234.667C9.39883 234.005 9.39882 233.674 9.39882 233.344C9.39882 233.013 9.39882 232.682 9.39882 232.682C9.39882 232.351 9.06799 232.02 9.06799 231.358V225.403V225.072C9.39883 224.741 9.39882 224.079 9.39882 223.418C9.39882 223.087 9.39882 222.756 9.39882 222.756C9.39882 222.425 9.72966 222.094 9.72966 221.763C9.72966 221.432 9.72966 221.102 9.72966 221.102C9.72966 220.771 10.0605 220.44 10.0605 220.109V219.778C10.0605 219.447 10.3913 219.116 10.3913 219.116C10.3913 218.785 10.7222 218.455 10.7222 218.124C10.7222 218.124 10.7222 218.124 10.7222 217.793C10.7222 217.793 10.7222 217.462 11.053 217.462L11.3838 216.8C11.3838 216.469 11.7147 216.139 11.7147 216.139C11.7147 215.808 12.0455 215.477 12.0455 215.146C12.0455 215.146 12.0455 215.146 12.0455 214.815V214.484C12.0455 214.153 12.3763 213.823 12.7072 213.492L13.038 212.83C13.038 212.499 13.3688 212.499 13.3688 212.168C13.3688 211.506 13.6997 210.845 14.0305 210.514L14.3613 209.852V209.521L14.6922 208.86L16.6772 206.213C17.008 205.882 17.3388 205.22 17.6697 204.889C18.0005 204.558 18.3313 204.227 18.6622 203.566C19.6547 201.581 21.3088 199.595 22.3013 198.272L27.5947 190.662C29.5797 188.015 31.5647 185.368 33.5497 182.721L34.5422 181.398L35.5347 180.405L37.1888 178.089L44.4672 168.825L45.1288 168.163L49.0988 163.2C51.7455 160.223 54.3922 156.914 57.0388 153.605L61.0088 148.642C62.3322 147.319 63.6555 145.664 64.9788 144.01L68.618 140.371L72.9188 135.739C79.8663 127.798 91.7763 126.805 100.047 133.753C108.318 141.032 109.31 153.274 102.363 161.546L86.483 179.082C85.1597 180.736 83.8363 182.06 82.513 183.714C81.1897 185.368 79.8663 187.023 78.543 188.346L70.603 197.61L69.2797 198.934L66.633 202.242L62.663 206.874C61.3397 208.198 60.0163 209.852 59.0238 211.506C57.7005 213.161 56.3772 214.815 55.0538 216.139L51.4147 220.771C50.753 221.763 50.0913 222.425 49.4297 223.087C48.768 223.748 48.4372 224.41 47.7755 225.403C47.4447 225.734 47.1138 226.064 47.1138 226.395C46.783 226.726 46.4522 227.388 46.1213 227.719L45.1288 229.042C45.4597 229.373 45.4597 229.373 45.7905 229.704C46.1213 230.366 46.783 230.697 47.4447 231.027C47.7755 231.027 48.1063 231.358 48.4372 231.689C48.768 232.02 49.0988 232.02 49.4297 232.351C49.7605 232.682 50.0913 232.682 50.4222 233.013C50.753 233.344 51.0838 233.343 51.4147 233.674C52.4072 234.336 53.0688 234.667 53.7305 234.998C54.3922 235.329 55.3847 235.99 56.0463 236.321C58.0313 237.314 60.3472 238.637 62.663 239.63C63.6555 240.292 64.9788 240.623 65.9713 241.284C66.9638 241.615 68.2872 242.277 69.6105 242.939C71.9263 243.931 74.2422 244.924 76.558 245.585C78.2122 246.247 80.1972 246.909 82.1822 247.571C84.1672 248.232 86.1522 248.894 87.8063 249.556C91.7763 250.879 95.4155 251.872 98.7238 252.864H99.0546C100.709 253.195 101.701 253.526 103.025 253.857C104.348 254.188 105.671 254.519 106.995 254.85C107.325 254.85 107.325 255.181 107.656 255.511L108.98 259.151V259.482C108.649 261.467 108.318 263.452 107.987 265.437C107.656 267.423 107.325 269.739 106.995 271.724C106.664 273.378 107.325 274.702 107.656 276.356C108.318 278.01 108.98 279.664 108.649 281.65C108.649 281.981 108.318 281.981 108.318 282.311C107.656 282.311 107.325 282.642 107.325 282.642ZM15.3538 244.262L16.0155 245.255C18.0005 247.902 20.3163 250.218 22.963 252.203C24.948 253.857 26.933 255.511 29.5797 257.166C29.9105 257.497 30.5722 257.827 31.2338 258.158C31.8955 258.489 32.5572 258.82 32.888 259.151C33.8805 259.813 35.2038 260.474 35.8655 260.805C37.5197 261.467 38.843 262.129 39.8355 262.79C40.4972 263.121 41.4897 263.783 42.1513 264.114C46.1213 266.099 50.4222 267.753 54.723 269.077C59.6855 271.062 63.3247 272.055 67.2947 273.047C71.9263 274.371 76.2272 275.363 79.8663 276.356C82.1822 277.018 84.1672 277.348 86.1522 278.01C88.1372 278.341 90.1222 279.003 92.438 279.334C94.0921 279.664 96.0772 279.995 98.0622 279.995C99.0547 279.995 100.378 280.326 101.37 280.326C103.355 280.326 105.01 280.657 106.664 280.988C106.664 279.664 106.333 278.672 105.671 277.348C105.01 275.694 104.348 274.04 104.679 272.055C105.01 270.069 105.34 268.084 105.671 265.768C106.002 263.783 106.333 261.798 106.664 259.813L105.671 256.835C104.348 256.504 103.355 256.173 102.363 255.842C101.04 255.511 100.047 255.181 98.7238 254.85C98.7238 254.85 98.7238 254.85 98.393 254.85C94.7538 253.857 91.1147 252.864 87.1447 251.541C85.1597 250.879 83.5055 250.218 81.5205 249.556C79.5355 248.894 77.5505 248.232 75.8963 247.571C73.5805 246.578 71.2647 245.585 68.9488 244.924C67.6255 244.262 66.3022 243.931 65.3097 243.269C63.9863 242.608 62.9938 242.277 62.0013 241.615C59.6855 240.623 57.3697 239.299 55.3847 238.306C54.3922 237.645 53.7305 237.314 53.0688 236.983C52.4072 236.652 51.4147 235.99 50.753 235.66C50.4222 235.66 50.0913 235.329 49.7605 234.998C49.4297 234.667 49.0988 234.667 48.768 234.336C48.4372 234.005 48.1063 234.005 47.7755 233.674C47.1138 233.013 46.783 233.013 46.4522 232.682C45.4597 232.02 45.1288 231.358 44.4672 231.027C44.1363 230.697 44.1363 230.697 43.8055 230.366L43.1438 229.704C43.1438 229.704 42.813 229.373 42.813 229.042C42.813 228.711 42.813 228.711 43.1438 228.381L43.8055 227.719L44.798 226.395C45.1288 226.064 45.4597 225.734 45.4597 225.403C45.7905 225.072 46.1213 224.41 46.4522 224.079C47.1138 223.418 47.7755 222.756 48.1063 221.763C48.768 221.102 49.4297 220.109 50.0913 219.447L53.7305 214.815C55.0538 213.161 56.3772 211.837 57.7005 210.183C59.0238 208.529 60.3472 206.874 61.6705 205.551L65.6405 200.919L68.2872 197.61L69.6105 196.287L70.9338 194.632L73.5805 191.655L77.5505 187.023C78.8738 185.368 80.1972 184.045 81.5205 182.39C82.8438 180.736 84.1672 179.082 85.4905 177.758L101.37 159.23C107.656 151.62 106.664 140.702 99.0546 134.084C91.4455 127.798 80.528 128.46 74.2421 136.069L69.9413 140.702L66.3022 144.341C64.9788 145.995 63.6555 147.65 62.3322 148.973L58.3622 153.936C55.7155 157.245 53.0688 160.553 50.4222 163.531L46.4522 168.494L45.7905 169.156L42.4822 173.457L38.5122 178.42L36.858 180.736L35.8655 181.729L34.873 183.052C32.888 185.699 30.903 188.346 28.918 190.993L26.933 192.978L23.2938 198.272C21.9705 199.926 20.6472 201.581 19.6547 203.566C19.3238 204.227 18.993 204.558 18.6622 204.889C18.3313 205.22 18.0005 205.551 17.6697 206.213L15.3538 209.521V209.852L15.023 210.514C15.023 210.514 15.023 210.514 15.023 210.845C14.6922 211.176 14.6922 211.506 14.6922 211.506C14.6922 211.837 14.3613 212.168 14.3613 212.499V212.83L13.6997 213.823C13.6997 214.153 13.3688 214.153 13.3688 214.153C13.3688 214.484 13.038 214.815 13.038 215.146C13.038 215.477 12.7072 215.477 12.7072 215.808C12.7072 216.139 12.3763 216.469 12.3763 216.8L12.0455 217.462C12.0455 217.793 11.7147 218.124 11.7147 218.455C11.7147 218.785 11.3838 218.785 11.3838 219.116C11.3838 219.447 11.3838 219.447 11.053 219.778C11.053 220.109 11.053 220.44 10.7222 220.771V221.102C10.7222 221.432 10.7222 222.094 10.3913 222.425V222.756C10.3913 223.418 10.3913 224.079 10.0605 224.741V230.366C10.0605 230.697 10.0605 231.027 10.0605 231.027C10.0605 231.358 10.3913 231.689 10.3913 232.351C10.3913 232.682 10.3913 232.682 10.3913 232.682C10.3913 232.682 10.3913 233.013 10.7222 233.013L11.053 234.005C11.7147 235.99 12.3763 237.976 13.3688 240.292C13.6997 241.284 14.3613 241.946 15.023 242.608C15.023 242.939 15.3538 243.6 15.3538 244.262Z" fill="#002255"/>
<path d="M90.7842 251.541C90.7842 251.541 87.8067 248.563 84.1676 249.225C84.1676 249.225 75.2351 264.114 79.8668 277.017C79.8668 277.017 81.8518 279.003 86.1526 278.341C86.1526 278.341 81.8517 263.121 90.7842 251.541Z" fill="#002255"/>
<path d="M73.5806 264.445C73.9114 269.408 77.8814 273.047 82.8439 272.716C87.8064 272.385 91.4456 268.415 91.1147 263.452C90.7839 258.489 86.8139 254.85 81.8514 255.181C77.2197 255.511 73.5806 259.482 73.5806 264.445Z" fill="#002255"/>
<path d="M82.8442 270.731C86.4834 270.4 89.4609 267.422 89.1301 263.783C88.7992 260.143 85.8217 257.165 82.1826 257.496C78.5434 257.827 75.5659 260.805 75.8967 264.444C76.2276 268.084 79.2051 270.731 82.8442 270.731Z" fill="white"/>
<path d="M108.318 139.378C110.303 145.333 108.649 151.62 104.679 156.583C97.0697 165.516 82.513 182.39 74.573 192.978C63.3247 207.867 49.0988 226.395 49.0988 226.395C49.0988 226.395 59.3547 235.328 66.633 240.291C66.633 240.291 49.0988 255.18 58.0313 279.333C58.0313 279.333 26.2713 261.798 10.3913 245.254C-1.51866 233.012 1.78968 217.793 12.3763 203.235C17.6697 195.956 59.3547 148.642 73.9113 132.099C79.2047 126.143 87.8063 123.496 95.7463 126.143C100.709 127.798 106.002 131.437 108.318 139.378Z" fill="#89060E"/>
<path d="M99.0551 257.496C99.0551 257.496 100.378 250.548 102.033 243.6C103.687 237.975 106.664 235.99 106.664 235.99C107.326 239.96 108.318 242.276 108.318 249.224C108.318 249.224 109.973 247.57 113.281 248.232C116.258 248.893 127.176 251.209 127.507 253.526C127.838 259.15 114.273 256.503 114.273 256.503C114.273 256.503 128.83 259.15 128.499 263.121C128.168 266.429 114.935 267.091 114.935 267.091C114.935 267.091 127.507 267.091 126.183 271.723C124.529 276.686 112.95 273.377 112.95 273.377C112.95 273.377 121.552 277.348 120.559 279.002C119.236 281.318 114.273 282.311 106.333 280.326C97.7317 279.002 99.0551 257.496 99.0551 257.496Z" fill="white"/>
<path d="M113.942 282.311C111.626 282.311 108.98 281.98 106.002 281.318C96.7388 279.995 98.0622 258.489 98.0622 257.496C98.0622 257.496 99.3855 250.548 101.04 243.6C102.694 237.644 106.002 235.659 106.002 235.328C106.333 235.328 106.664 234.997 106.664 235.328C106.995 235.328 106.995 235.659 106.995 235.99C107.326 236.983 107.326 237.975 107.656 238.637C108.318 240.953 108.649 243.269 108.649 247.901C109.641 247.57 110.965 247.239 112.95 247.57H113.281C123.206 249.886 127.506 251.541 127.837 253.526C127.837 254.849 127.506 255.842 126.514 256.504C125.521 257.496 123.867 257.827 122.213 258.158C125.852 259.481 128.83 261.136 128.83 263.452C128.499 265.437 125.191 266.76 121.882 267.422C123.536 267.753 125.191 268.415 126.183 269.738C126.845 270.4 126.845 271.392 126.514 272.385C125.521 275.694 121.221 276.025 117.581 275.694C119.236 276.686 120.559 277.679 120.89 278.671C120.89 279.333 120.89 279.664 120.89 279.995C120.228 281.318 117.581 282.311 113.942 282.311ZM99.7163 257.496C99.3855 263.452 99.7163 278.341 106.333 279.333C114.273 281.318 118.574 280.326 119.566 278.341C119.236 277.679 115.927 275.694 112.288 274.039C111.957 273.708 111.626 273.378 111.957 273.047C111.957 272.716 112.619 272.385 112.95 272.385C115.927 273.378 123.867 274.701 125.191 271.392C125.191 271.062 125.191 270.731 124.86 270.4C123.536 268.746 117.912 268.084 114.604 268.084C114.273 268.084 113.942 267.753 113.942 267.422C113.942 267.091 114.273 266.76 114.604 266.429C120.559 266.099 127.176 264.775 127.506 263.121C127.506 261.136 120.89 258.82 114.273 257.496C113.942 257.496 113.942 257.496 113.942 257.496C113.611 257.496 113.281 256.834 113.281 256.504C113.281 256.173 113.942 255.842 114.273 255.842H114.604C117.251 256.173 123.867 257.165 125.852 255.18C126.183 254.849 126.514 254.187 126.514 253.526C126.514 253.195 125.191 251.871 113.281 249.225H112.95C110.303 248.563 108.649 249.886 108.649 249.886C108.318 250.217 107.987 250.217 107.656 249.886C107.326 249.886 106.995 249.555 106.995 249.225C106.995 244.262 106.333 241.615 106.002 238.968C106.002 238.637 105.671 237.975 105.671 237.644C104.679 238.637 103.356 240.622 102.363 243.931C101.371 250.217 100.047 256.834 99.7163 257.496Z" fill="#002255"/>
<path d="M84.1666 183.383C83.8358 183.383 83.505 183.383 83.1741 183.052C82.8433 182.721 82.5125 182.059 83.1741 181.398L102.032 159.23C102.362 158.899 103.024 158.568 103.686 159.23C104.017 159.561 104.347 160.222 103.686 160.884L84.8283 183.052C84.4975 183.052 84.1666 183.383 84.1666 183.383Z" fill="#002255"/>
<path d="M104.347 166.839L97.4 167.832C96.7383 167.832 96.0767 167.501 96.0767 166.839C96.0767 166.178 96.4075 165.516 97.0692 165.516L104.017 164.523C104.678 164.523 105.34 164.854 105.34 165.516C105.34 166.178 105.009 166.839 104.347 166.839Z" fill="#002255"/>
<path d="M28.2563 231.689L28.5871 232.02C28.918 232.02 28.918 232.02 29.2488 232.02C34.5421 228.049 44.1363 227.719 48.768 227.719C48.4371 227.388 48.4371 227.388 48.1063 227.057L48.768 226.395C48.4371 226.395 47.7755 226.395 47.4446 226.395C44.4671 223.417 36.5271 220.771 36.1963 220.771C35.8655 220.771 35.5346 220.771 35.2038 221.101C35.2038 221.432 35.2038 221.763 35.5346 222.094C35.5346 222.094 41.4896 224.079 45.1288 226.395C39.8355 226.726 32.888 227.719 28.2563 231.027C27.9255 230.696 27.9255 231.358 28.2563 231.689Z" fill="#002255"/>
</g>
<path d="M27 458H331" stroke="#BFBFBF" stroke-width="4" stroke-linecap="round"/>
</svg>
