<svg width="164" height="130" viewBox="0 0 164 130" fill="none" xmlns="http://www.w3.org/2000/svg">
<path d="M55.4537 40.9765C36.715 27.4544 20.2249 31.4569 18.2975 60.5564C-3.54654 66.2897 3.52074 96.1464 28.2558 96.1464C32.646 125.57 64.1271 130.655 80.296 99.1753C91.325 125.895 129.66 119.584 125.269 89.1868C150.754 106.711 171.741 72.7803 146.578 44.0054C155.037 8.41536 110.385 0.30205 99.0347 27.4544C88.0056 0.302183 51.0635 13.1751 55.4537 40.9765Z" fill="#F2F2F2"/>
<path d="M108.99 18.2895C108.99 18.2895 111.311 13.272 112.672 13.1647C114.06 13.0574 116.861 13.9696 121.984 16.0625C127.107 18.1554 130.389 19.0408 130.656 21.3752C130.923 23.7095 128.015 28.1367 128.015 28.1367L130.283 29.0222C130.283 29.0222 133.351 24.3266 132.924 20.8922C132.497 17.4577 130.523 16.4113 124.252 13.6477C117.982 10.884 114.193 9.46192 112.325 9.81074C109.497 10.3474 107.069 17.8066 107.069 17.8066L108.99 18.2895Z" fill="#89060E"/>
<path d="M123.746 79.5969L70.7811 53.5434C68.8066 52.5774 67.9795 50.1358 68.9401 48.1502L86.5238 12.008C87.4844 10.0225 89.9125 9.19071 91.887 10.1567L144.852 36.2102C146.826 37.1761 147.653 39.6178 146.693 41.6033L129.109 77.7455C128.148 79.731 125.72 80.5628 123.746 79.5969Z" fill="#89060E"/>
<path opacity="0.5" d="M134.659 66.2892L144.905 45.1995C146.826 41.2284 145.199 36.3719 141.223 34.44L95.4893 11.9283C91.5402 9.99642 86.7107 11.6331 84.7896 15.6311L74.5168 36.7207L134.659 66.2892Z" fill="#89060E"/>
<g filter="url(#filter0_d_2336_27231)">
<path d="M133.271 63.6611L76.9711 35.9708C74.9966 35.0049 74.1694 32.5632 75.13 30.5777L84.8691 10.5881C85.8297 8.60257 88.2578 7.77079 90.2323 8.73673L146.532 36.427C148.507 37.3929 149.334 39.8346 148.373 41.8201L138.634 61.8097C137.647 63.8221 135.246 64.6538 133.271 63.6611Z" fill="#89060E"/>
</g>
<path d="M105.228 57.3279L99.1441 54.3496C98.7438 54.1618 98.5837 53.6788 98.7705 53.2763L102.88 44.8512C103.066 44.4487 103.547 44.2877 103.947 44.4755L110.004 47.4539C110.404 47.6417 110.564 48.1247 110.377 48.5271L106.268 56.9523C106.108 57.3816 105.628 57.5426 105.228 57.3279Z" fill="#FBE136"/>
<path opacity="0.35" d="M108.005 52.2954L101.246 48.9707L100.953 49.5733L107.712 52.898L108.005 52.2954Z" fill="#E50A17"/>
<path d="M105.005 126.208C104.444 127.163 103.213 127.48 102.26 126.915L75.2651 110.892C74.3184 110.33 74.0038 109.108 74.5613 108.159L95.953 71.7336C96.5142 70.778 97.7454 70.4609 98.6984 71.0266L125.693 87.0495C126.64 87.6115 126.954 88.8329 126.397 89.7822L105.005 126.208Z" fill="#0043AA"/>
<path d="M103.144 124.07L77.3398 108.737L97.8145 73.8906L123.619 89.2032L103.144 124.07Z" fill="#FDE3CC"/>
<path d="M117.857 86.0558L103.33 77.427L104.914 74.7369C105.367 73.9506 106.375 73.7023 107.157 74.1575L118.866 81.1103C119.648 81.5655 119.895 82.5794 119.442 83.3658L117.857 86.0558Z" fill="#131A2F"/>
<path d="M115.408 79.0417C114.853 79.9936 113.31 80.1384 111.993 79.3521C110.676 78.5658 110.058 77.1587 110.614 76.2068C111.169 75.255 112.692 75.1101 114.03 75.8964C115.347 76.6828 115.964 78.0899 115.408 79.0417Z" fill="#131A2F"/>
<path d="M41.6424 69.0324L13.3894 59.8242L25.6742 21.667L53.9272 30.8545L41.6424 69.0324Z" fill="#FEF3EA"/>
<path d="M26.559 42.1729L26.4355 42.5867L45.3258 48.7117L45.4492 48.3186L26.559 42.1729Z" fill="#F28C27"/>
<path d="M32.3618 44.9668L32.2178 45.36L45.0582 49.5399L45.1816 49.1467L32.3618 44.9668Z" fill="#F28C27"/>
<path d="M26.0446 43.8076L25.9211 44.2008L37.568 47.9875L37.6915 47.5944L26.0446 43.8076Z" fill="#F28C27"/>
<path d="M31.5181 45.1323L26.168 43.3941L26.312 43.001L31.6416 44.7392L31.5181 45.1323Z" fill="#F28C27"/>
<path d="M44.7908 50.3462L38.1443 48.1734L38.2678 47.7803L44.9143 49.953L44.7908 50.3462Z" fill="#F28C27"/>
<path d="M25.0773 46.8086L24.9539 47.2018L43.8235 53.3475L43.947 52.9543L25.0773 46.8086Z" fill="#F28C27"/>
<path d="M30.8598 49.6025L30.7363 49.9957L43.5767 54.1756L43.7002 53.7825L30.8598 49.6025Z" fill="#F28C27"/>
<path d="M24.5424 48.4434L24.4189 48.8365L36.0659 52.6233L36.2099 52.2301L24.5424 48.4434Z" fill="#F28C27"/>
<path d="M30.0367 49.7681L24.6865 48.0299L24.81 47.6367L30.1602 49.3749L30.0367 49.7681Z" fill="#F28C27"/>
<path d="M43.3092 54.9819L36.6421 52.8092L36.7656 52.416L43.4327 54.5887L43.3092 54.9819Z" fill="#F28C27"/>
<g clip-path="url(#clip0_2336_27231)">
<path d="M27.1036 33.4592L26.7179 33.3301L20.5795 52.2443L20.9652 52.3734L27.1036 33.4592Z" fill="#F28C27"/>
<path d="M24.2957 39.2463L23.91 39.1172L19.7338 51.9882L20.1195 52.1173L24.2957 39.2463Z" fill="#F28C27"/>
<path d="M25.513 32.9045L25.1272 32.7754L21.3435 44.4502L21.7292 44.6L25.513 32.9045Z" fill="#F28C27"/>
<path d="M24.2144 38.4152L25.953 33.0518L26.3392 33.1809L24.6006 38.5443L24.2144 38.4152Z" fill="#F28C27"/>
<path d="M18.9083 51.7117L21.0808 45.0283L21.4669 45.1575L19.2944 51.8409L18.9083 51.7117Z" fill="#F28C27"/>
</g>
<path d="M42.3832 57.8795L25.2009 52.2925L25.3655 51.7959L42.5272 57.3829L42.3832 57.8795Z" fill="#E50A17"/>
<path d="M41.9923 59.0586L18.9248 51.5679L19.0894 51.0713L42.1569 58.5827L41.9923 59.0586Z" fill="#E50A17"/>
<path d="M32.1766 57.1963L18.5542 52.7474L18.6982 52.2715L32.3206 56.6997L32.1766 57.1963Z" fill="#E50A17"/>
<path d="M41.2308 61.4592L18.1633 53.9478L18.3279 53.4512L41.3748 60.9626L41.2308 61.4592Z" fill="#E50A17"/>
<path d="M40.8399 62.6387L30.5305 59.2865L30.6951 58.8105L41.0045 62.1628L40.8399 62.6387Z" fill="#E50A17"/>
<path d="M40.4487 63.8389L17.4019 56.3275L17.5459 55.8516L40.6134 63.3423L40.4487 63.8389Z" fill="#E50A17"/>
<path d="M33.7817 62.9907L17.011 57.5279L17.1756 57.0312L33.9258 62.4941L33.7817 62.9907Z" fill="#E50A17"/>
<path d="M40.2225 64.5417L34.9546 62.8242L34.8105 63.3208L40.0784 65.0383L40.2225 64.5417Z" fill="#E50A17"/>
<path d="M17.7725 55.148L28.802 58.7278L28.9667 58.2519L17.9371 54.6514L17.7725 55.148Z" fill="#E50A17"/>
<path d="M33.1851 57.5279L41.6013 60.2593L41.7659 59.7627L33.3497 57.0312L33.1851 57.5279Z" fill="#E50A17"/>
<g clip-path="url(#clip1_2336_27231)">
<rect width="7.61778" height="9.9272" transform="matrix(0.950548 0.310578 -0.307462 0.951561 26.9353 24.29)" fill="#C24555"/>
<mask id="mask0_2336_27231" style="mask-type:luminance" maskUnits="userSpaceOnUse" x="15" y="22" width="29" height="30">
<path d="M43.3846 29.8044L22.2485 22.8984L15.381 44.1527L36.5171 51.0586L43.3846 29.8044Z" fill="white"/>
</mask>
<g mask="url(#mask0_2336_27231)">
<path d="M29.6041 26.8377C29.6041 26.8377 29.1672 25.5984 27.8273 25.7676C26.8969 25.8749 26.4487 27.0208 26.4154 28.8115C26.3707 31.4208 25.4333 32.9356 25.4333 32.9356L26.5778 33.2508C26.5954 33.2566 29.743 28.9392 29.6041 26.8377Z" fill="#002255"/>
<path d="M32.1738 34.3144L32.2549 35.7508C32.2567 35.9864 32.2761 36.2277 32.2779 36.4633C32.2797 36.6988 32.2991 36.9402 32.3008 37.1757C32.3026 37.4113 32.322 37.6526 32.3295 37.8704C32.3489 38.1118 32.3564 38.3296 32.3815 38.5532C32.4066 38.7768 32.4141 38.9947 32.445 39.2006C32.4516 39.3006 32.4815 39.3888 32.4939 39.4711L32.5 39.5123L32.5119 39.5358L32.5062 39.5535L32.5005 39.5712C32.5005 39.5712 32.5124 39.5946 32.5243 39.6181C32.5714 39.6531 32.6713 39.7053 32.8298 39.7571C32.9708 39.8032 33.1583 39.8253 33.3516 39.8297C33.5449 39.8341 33.7559 39.8443 33.9549 39.831C34.3705 39.8101 34.8153 39.7596 35.2714 39.6737C35.7219 39.6055 36.0433 39.5147 36.4876 39.4053C36.4335 39.9946 36.6779 40.564 37.1729 40.9607C36.7118 41.1822 36.2271 41.3567 35.748 41.5134C35.2513 41.6645 34.7547 41.8155 34.2047 41.8904C33.9357 41.9395 33.6547 41.9652 33.3562 41.9852C33.0577 42.0051 32.753 41.9839 32.4364 41.9392C32.2664 41.9228 32.1021 41.8887 31.926 41.8312C31.7499 41.7737 31.5619 41.6926 31.3795 41.5939C31.1972 41.4952 31.0088 41.3553 30.8436 41.2034C30.6842 41.0338 30.5306 40.8465 30.4235 40.6353C30.3584 40.5357 30.3165 40.4241 30.2747 40.3126L30.2447 40.2245L30.2267 40.1598C30.2148 40.1363 30.2205 40.1186 30.2086 40.0952C30.1967 40.0717 30.2025 40.054 30.1906 40.0305C30.1426 39.8778 30.1122 39.7308 30.0818 39.5838C30.0153 39.3075 29.984 39.0427 29.947 38.7956C29.9157 38.5308 29.8787 38.2837 29.8417 38.0367C29.8047 37.7896 29.791 37.5306 29.7716 37.2893C29.7522 37.0479 29.7386 36.7889 29.7192 36.5476C29.6998 36.3063 29.6861 36.0472 29.6667 35.8059C29.6473 35.5646 29.6513 35.3113 29.6319 35.07L29.6173 34.6932L29.616 34.5165C29.6155 34.4576 29.6151 34.3988 29.6204 34.3222L32.1738 34.3144Z" fill="#B70812"/>
<path d="M30.4096 43.5669C29.2471 43.1871 28.594 42.7975 28.1316 42.0589C26.5333 42.9074 23.5747 41.9995 23.5747 41.9995C24.1832 41.1409 24.8149 39.487 24.8149 39.487C24.8546 39.3041 24.8942 39.1213 24.9395 38.9207C24.9791 38.7378 25.0245 38.5372 25.0289 38.3428C25.0217 37.4006 24.864 36.6833 24.845 35.7176C24.8446 35.6587 24.8442 35.5998 24.8494 35.5232C24.8433 35.482 24.8371 35.4408 24.8485 35.4054C24.8287 35.1052 24.8146 34.7873 24.789 34.5048C24.6621 33.2101 25.0095 31.8941 26.2978 31.8843C26.3974 31.8776 26.4911 31.8887 26.573 31.8763C27.1763 31.8776 27.6862 31.9267 27.8209 31.9315C27.8385 31.9373 27.8562 31.9431 27.8562 31.9431L30.2534 32.9613L30.4766 33.0538C30.8174 33.2043 31.1697 33.3194 31.3815 33.4474C31.5581 33.5638 31.6871 33.5864 31.8813 33.7086C32.3287 34.0114 32.0993 34.661 31.977 35.5218C31.9712 35.5395 31.9655 35.5572 31.9655 35.5572L31.9598 35.5749C31.9492 35.7281 31.9211 35.8756 31.9162 36.0111C31.9 36.182 31.907 36.341 31.8965 36.4942C31.8864 37.4895 32.107 38.012 31.8535 38.5558C31.6346 39.0522 30.9007 39.576 30.714 39.6717C30.6673 39.6956 30.644 39.7075 30.644 39.7075C30.6382 39.7253 30.6325 39.743 30.6211 39.7784C30.6101 39.8727 30.5757 39.979 30.5766 40.0968C30.4745 40.5334 30.4191 40.946 30.375 41.3233C30.3473 41.5296 30.331 41.7006 30.3266 41.8949C30.2994 42.9435 30.4096 43.5669 30.4096 43.5669Z" fill="#B70812"/>
<path d="M30.9361 39.6481C30.9537 39.6539 30.9713 39.6596 30.9946 39.6477C31.0413 39.6238 31.9919 39.0923 31.9685 38.321C31.961 38.1032 31.9535 37.8853 31.9341 37.644C31.8703 36.9378 31.8231 36.1195 32.0502 35.1755C32.0617 35.14 32.0322 35.1108 31.9969 35.0993C31.9617 35.0878 31.9326 35.1175 31.9212 35.1529C31.6883 36.1146 31.7531 36.9386 31.8113 37.6626C31.8307 37.9039 31.8382 38.1218 31.8514 38.3219C31.8801 39.0166 30.9585 39.5184 30.9528 39.5361C30.9295 39.548 30.9123 39.6012 30.9361 39.6481C30.9185 39.6424 30.9185 39.6424 30.9361 39.6481Z" fill="#002255"/>
<path d="M29.7568 36.2465C29.7339 36.3173 29.6405 36.3651 29.5701 36.3421C29.4996 36.3191 29.4521 36.2252 29.475 36.1544C29.4979 36.0835 29.5912 36.0357 29.6617 36.0587C29.7264 36.0995 29.7797 36.1756 29.7568 36.2465Z" fill="#002255"/>
<path d="M29.983 32.8355C29.983 32.8355 30.5286 32.9551 30.8817 33.1879L30.3887 34.5934L30.0487 34.5606L30.2271 34.9126L29.6067 35.7478C29.5891 35.742 29.6581 34.0218 29.983 32.8355Z" fill="#B70812"/>
<path d="M27.8797 31.9317L26.8075 31.8751L27.4544 33.7901L28.3404 34.0012L27.8292 34.5587L29.5893 35.7408C29.5893 35.7408 28.0272 32.861 28.1029 32.0242L27.8797 31.9317Z" fill="#B70812"/>
<path d="M29.0769 31.483C29.0769 31.483 27.9034 31.1975 27.6308 29.9923C27.3643 28.8282 27.6469 28.2548 27.9939 27.6632C28.2598 27.2018 29.0695 26.6243 30.1725 26.8868C31.2698 27.167 32.0827 27.7851 32.1717 28.7149C32.3313 30.4511 30.8414 32.4708 29.0769 31.483Z" fill="#002255"/>
<path d="M27.5155 30.2291C27.4979 30.2233 27.4803 30.2176 27.4684 30.1941C27.4446 30.1472 26.969 29.2085 27.4577 27.9974C27.7566 27.2531 28.2872 26.9369 28.7019 26.7983C29.1401 26.6477 29.4976 26.6862 29.4976 26.6862C29.5328 26.6977 29.5623 26.7269 29.5509 26.7624C29.5394 26.7978 29.5104 26.8274 29.4752 26.8159C29.4752 26.8159 29.1352 26.7832 28.7204 26.9218C28.1771 27.0968 27.7993 27.4825 27.5576 28.0497C27.0918 29.1899 27.5499 30.1228 27.5675 30.1286C27.5794 30.152 27.5622 30.2052 27.5389 30.2171C27.5331 30.2348 27.5331 30.2348 27.5155 30.2291Z" fill="#0065FF"/>
<path d="M29.9661 33.0091C28.9389 34.2596 27.9758 32.3588 28.0083 32.017C28.4477 31.2598 28.4714 30.5234 28.4714 30.5234L30.2839 31.6639C30.2667 31.7171 30.2496 31.7702 30.2267 31.841C30.1408 32.1067 30.0726 32.3782 30.0162 32.6731C29.9876 32.7616 29.9766 32.8559 29.9661 33.0091Z" fill="white" stroke="#002255" stroke-width="0.2" stroke-miterlimit="10" stroke-linecap="round" stroke-linejoin="round"/>
<path d="M31.0234 30.2798C31.0234 30.2798 31.2836 29.8361 31.654 30.0158C32.0186 30.2133 31.7707 31.5226 31.0372 31.3221L31.0234 30.2798Z" fill="white" stroke="#002255" stroke-width="0.15" stroke-miterlimit="10" stroke-linecap="round" stroke-linejoin="round"/>
<path d="M30.3714 31.5743C30.3921 31.209 30.7179 30.9239 31.093 30.9681C31.4563 30.9889 31.7399 31.3165 31.6959 31.6938C31.6752 32.0591 31.3494 32.3443 30.9743 32.3C30.6167 32.2615 30.3507 31.9396 30.3714 31.5743ZM30.4709 31.5677C30.4498 31.8741 30.6687 32.161 30.991 32.188C31.2957 32.2092 31.581 31.9891 31.6078 31.665C31.6289 31.3586 31.4101 31.0717 31.0878 31.0447C30.7773 31.0412 30.492 31.2613 30.4709 31.5677Z" fill="#0065FF"/>
<path d="M29.106 31.5135C29.5301 31.8283 30.0413 32.0541 30.3627 31.9633C30.7251 31.8663 31.0981 31.6161 31.3917 30.9484C31.3917 30.9484 31.3917 30.9484 31.3974 30.9307C31.4089 30.8952 31.4261 30.8421 31.4551 30.8124C31.478 30.7416 31.5185 30.6765 31.5414 30.6056C31.5471 30.5879 31.5528 30.5702 31.5586 30.5525C31.57 30.5171 31.5872 30.4639 31.5986 30.4285C31.6158 30.3754 31.6272 30.34 31.6444 30.2868C31.809 29.5965 31.9904 28.7942 31.4474 28.2447C30.8926 27.6718 29.9239 27.3553 29.2251 27.8906C29.2251 27.8906 28.684 28.36 28.5101 29.3802C28.3363 30.4004 28.3644 30.253 28.4318 30.647C28.4499 30.7117 28.4622 30.794 28.5155 30.8702" fill="white"/>
<path d="M29.106 31.5135C29.5301 31.8283 30.0413 32.0541 30.3627 31.9633C30.7251 31.8663 31.0981 31.6161 31.3917 30.9484C31.3917 30.9484 31.3917 30.9484 31.3974 30.9307C31.4089 30.8952 31.4261 30.8421 31.4551 30.8124C31.478 30.7416 31.5185 30.6765 31.5414 30.6056C31.5471 30.5879 31.5528 30.5702 31.5586 30.5525C31.57 30.5171 31.5872 30.4639 31.5986 30.4285C31.6158 30.3754 31.6272 30.34 31.6444 30.2868C31.809 29.5965 31.9904 28.7942 31.4474 28.2447C30.8926 27.6718 29.9239 27.3553 29.2251 27.8906C29.2251 27.8906 28.684 28.36 28.5101 29.3802C28.3363 30.4004 28.3644 30.253 28.4318 30.647C28.4499 30.7117 28.4622 30.794 28.5155 30.8702" stroke="#002255" stroke-width="0.2" stroke-miterlimit="10" stroke-linecap="round" stroke-linejoin="round"/>
<path d="M29.77 27.8924C29.77 27.8924 29.239 28.933 28.8771 29.0889C28.5151 29.2448 28.3526 28.663 28.3526 28.663C28.3526 28.663 29.3071 27.095 29.77 27.8924Z" fill="#002255"/>
<path d="M31.1191 28.1764C31.1191 28.1764 30.3345 28.9774 29.5763 28.6122C28.8356 28.2527 29.4815 27.7001 29.4815 27.7001C29.4815 27.7001 31.072 27.3581 31.1191 28.1764Z" fill="#002255"/>
<path d="M30.9248 28.0545C30.9248 28.0545 31.1041 29.3076 31.9059 29.2367C32.702 29.1835 31.8366 27.8237 31.3091 27.7689C30.7935 27.7375 30.9248 28.0545 30.9248 28.0545Z" fill="#002255"/>
<path d="M30.1359 31.4009C30.1887 31.4181 30.2297 31.4119 30.2297 31.4119C30.2473 31.4177 30.2764 31.388 30.2645 31.3646C30.2702 31.3468 30.2407 31.3176 30.2174 31.3296C30.1997 31.3238 29.737 31.3097 29.7215 30.8151C29.7272 30.7974 29.6977 30.7682 29.6744 30.7801C29.6568 30.7744 29.6277 30.804 29.6396 30.8275C29.6546 31.2632 29.9717 31.3668 30.1359 31.4009Z" fill="#002255"/>
<path d="M30.484 31.0451C30.4664 31.0393 30.4311 31.0278 30.4135 31.0221C30.3959 31.0163 30.3664 30.9871 30.3778 30.9517C30.3836 30.9339 30.4126 30.9043 30.4479 30.9158C30.5535 30.9503 30.6235 30.9144 30.6702 30.8905C30.5689 30.6616 30.6002 30.1431 30.6059 30.1254C30.6116 30.1077 30.623 30.0723 30.6583 30.0838C30.6759 30.0895 30.7111 30.101 30.6997 30.1365C30.6891 30.2897 30.6808 30.7373 30.7873 30.8896C30.7992 30.9131 30.7935 30.9308 30.7878 30.9485C30.7411 30.9724 30.6363 31.0557 30.484 31.0451Z" fill="#002255"/>
<path d="M29.8468 30.4848C29.4892 30.4463 29.2409 30.1301 29.2791 29.7706C29.3174 29.411 29.6318 29.1613 29.9893 29.1998C30.3469 29.2383 30.5953 29.5544 30.557 29.914C30.5187 30.2735 30.2043 30.5233 29.8468 30.4848ZM29.9783 29.2941C29.6794 29.2552 29.394 29.4752 29.3729 29.7817C29.3342 30.0823 29.5531 30.3692 29.8578 30.3904C30.1568 30.4294 30.4421 30.2093 30.4632 29.9029C30.5019 29.6022 30.283 29.3153 29.9783 29.2941Z" fill="#B70812"/>
<path d="M31.3087 30.8441C30.9511 30.8056 30.7028 30.4895 30.7411 30.13C30.7793 29.7704 31.0937 29.5207 31.4513 29.5592C31.8088 29.5977 32.0572 29.9138 32.0189 30.2733C31.9806 30.6329 31.6605 30.9003 31.3087 30.8441ZM31.4403 29.6535C31.1413 29.6145 30.856 29.8346 30.8348 30.141C30.7961 30.4417 31.015 30.7286 31.3197 30.7498C31.6187 30.7888 31.904 30.5687 31.9251 30.2623C31.9638 29.9616 31.7392 29.6924 31.4403 29.6535Z" fill="#B70812"/>
<path d="M30.7469 30.1117C30.6699 29.9886 30.5532 30.0484 30.5356 30.0426L30.488 29.9488C30.558 29.9129 30.7394 29.8939 30.8226 30.0581L30.7469 30.1117Z" fill="#B70812"/>
<path d="M29.3608 29.5798C29.3432 29.5741 29.3255 29.5683 29.3136 29.5448C29.3136 29.5448 29.2132 29.4337 28.7672 29.3075C28.732 29.296 28.7025 29.2668 28.7139 29.2314C28.7254 29.196 28.7544 29.1663 28.7896 29.1778C29.3061 29.327 29.3832 29.4501 29.4127 29.4793C29.4246 29.5028 29.4074 29.5559 29.3608 29.5798C29.3841 29.5678 29.3841 29.5678 29.3608 29.5798Z" fill="#B70812"/>
<path d="M31.9664 30.3151C31.9488 30.3094 31.9488 30.3094 31.9312 30.3036C31.8722 30.2452 31.7255 30.2168 31.6903 30.2053C31.6727 30.1996 31.6432 30.1704 31.6489 30.1526C31.6546 30.1349 31.6837 30.1053 31.7013 30.111C31.7013 30.111 31.9008 30.1566 31.9893 30.2443C32.0012 30.2677 32.0131 30.2912 31.9897 30.3032C32.0016 30.3266 31.984 30.3209 31.9664 30.3151Z" fill="#B70812"/>
<path d="M30.4749 29.0247C30.4749 29.0247 30.3207 28.7785 30.0279 28.7807C29.8698 28.7878 29.8536 28.9588 30.0411 28.9809C30.1701 29.0035 30.2406 29.0265 30.3467 29.1199C30.4352 29.2076 30.5162 29.0774 30.4749 29.0247Z" fill="#002255"/>
<path d="M31.1911 29.2185C31.1911 29.2185 31.4536 29.0692 31.6949 29.2264C31.8419 29.3136 31.7728 29.4673 31.5967 29.4097C31.4734 29.3695 31.3972 29.3641 31.2744 29.3828C31.1282 29.4133 31.1211 29.2544 31.1911 29.2185Z" fill="#002255"/>
<path d="M28.7839 29.3152C28.7839 29.3152 28.6399 28.8569 28.1837 28.9429C27.7276 29.0288 27.5982 30.5139 28.4533 30.5192" fill="white"/>
<path d="M28.7839 29.3152C28.7839 29.3152 28.6399 28.8569 28.1837 28.9429C27.7276 29.0288 27.5982 30.5139 28.4533 30.5192" stroke="#002255" stroke-width="0.5" stroke-miterlimit="10" stroke-linecap="round" stroke-linejoin="round"/>
<path d="M27.9121 30.1444C27.924 30.1679 27.9302 30.2091 27.9597 30.2383C27.6845 30.2463 27.452 30.4836 27.419 30.7666C27.3979 31.073 27.6168 31.3599 27.9391 31.3869C28.2438 31.4081 28.5291 31.188 28.5559 30.8639C28.5661 30.6518 28.4709 30.4641 28.312 30.3534C28.1944 30.2954 28.194 30.2365 28.1935 30.1776C28.4753 30.2697 28.6766 30.5508 28.6497 30.8749C28.6291 31.2402 28.3032 31.5254 27.9281 31.4812C27.5648 31.4604 27.2812 31.1328 27.3252 30.7555C27.3521 30.4314 27.6079 30.1821 27.9121 30.1444Z" fill="#0065FF"/>
<path d="M28.4608 29.9513C28.4551 29.969 28.4494 29.9867 28.426 29.9987C28.4084 29.9929 28.3908 29.9871 28.3965 29.9694C28.3965 29.9694 28.3837 29.8282 28.3181 29.6697C28.2248 29.7175 28.149 29.7711 28.149 29.7711L28.1257 29.783C28.1081 29.7773 28.1081 29.7773 28.0905 29.7715C28.0786 29.7481 28.0843 29.7304 28.1076 29.7184C28.1076 29.7184 28.1834 29.6648 28.2824 29.5993C28.2292 29.5231 28.1702 29.4647 28.0702 29.4124C28.0526 29.4067 28.0407 29.3832 28.0464 29.3655C28.0521 29.3478 28.0755 29.3358 28.0931 29.3416C28.4339 29.4921 28.4665 29.9336 28.4608 29.9513Z" fill="#002255"/>
<path d="M30.0242 29.8163C29.9955 29.9048 30.0255 29.993 30.0783 30.0102C30.1312 30.0275 30.195 29.9504 30.2236 29.8619C30.2522 29.7733 30.2223 29.6852 30.1695 29.6679C30.099 29.6449 30.0352 29.722 30.0242 29.8163Z" fill="#002255"/>
<path d="M31.0634 30.098C31.0348 30.1866 31.0647 30.2747 31.1176 30.292C31.1704 30.3092 31.2342 30.2322 31.2628 30.1436C31.2915 30.0551 31.2615 29.9669 31.2087 29.9497C31.1501 29.9501 31.092 30.0095 31.0634 30.098Z" fill="#002255"/>
<path d="M28.0146 31.9951C28.0146 31.9951 28.1781 33.478 29.5891 35.7405C29.5891 35.7405 29.9179 34.301 29.9711 32.8106" fill="white"/>
<path d="M28.0146 31.9951C28.0146 31.9951 28.1781 33.478 29.5891 35.7405C29.5891 35.7405 29.9179 34.301 29.9711 32.8106" stroke="#002255" stroke-width="0.2" stroke-miterlimit="10" stroke-linecap="round" stroke-linejoin="round"/>
<path d="M29.5449 36.8435C28.9108 36.6363 27.905 35.2894 27.846 35.231C27.8341 35.2075 27.8279 35.1663 27.8513 35.1544C27.8746 35.1424 27.9155 35.1362 27.9274 35.1597C27.9393 35.1832 28.9627 36.5358 29.5616 36.7315C30.1428 36.9214 30.4721 36.324 30.4721 36.324C30.4836 36.2886 30.5245 36.2824 30.5364 36.3059C30.5717 36.3174 30.5778 36.3586 30.5545 36.3705C30.5897 36.382 30.2142 37.0622 29.5449 36.8435Z" fill="#002255"/>
<path d="M20.016 36.1382C20.0046 36.1737 19.9931 36.2091 19.9817 36.2445C19.9702 36.2799 19.9764 36.3211 19.965 36.3565C19.9592 36.3742 19.9535 36.3919 19.9654 36.4154L19.9658 36.4743C19.961 36.6098 19.9619 36.7276 19.9804 36.8511C19.9808 36.91 19.9989 36.9747 20.0227 37.0216C20.0346 37.0451 20.0407 37.0862 20.035 37.1039L20.0531 37.1686C20.1249 37.3683 20.2081 37.5325 20.2971 37.6791C20.386 37.8257 20.4807 37.9545 20.5635 38.0599C20.6049 38.1126 20.6639 38.171 20.7053 38.2237C20.7467 38.2764 20.8057 38.3348 20.8528 38.3698C20.9589 38.4632 21.0417 38.5686 21.1302 38.6563C21.3249 38.8374 21.5252 39.0007 21.7137 39.1406C21.914 39.304 22.1025 39.4439 22.3143 39.5719C22.5204 39.7175 22.7146 39.8397 22.9264 39.9677C23.1382 40.0956 23.3324 40.2178 23.5442 40.3458C23.6265 40.3923 23.7265 40.4445 23.8498 40.4848C24.0202 40.56 24.214 40.6233 24.3258 40.6991C24.424 40.5157 24.3112 40.3222 24.4094 40.1389C24.5133 39.9379 24.6229 39.7191 24.7269 39.5181L24.7193 39.3003C24.5899 39.2188 24.478 39.1431 24.3486 39.0616C24.3486 39.0616 24.3486 39.0616 24.331 39.0559C24.1544 38.9394 23.9778 38.823 23.7893 38.6831C23.6185 38.5489 23.43 38.409 23.2592 38.2749C23.0883 38.1407 22.9232 37.9889 22.7699 37.8605C22.6224 37.7144 22.4573 37.5625 22.3274 37.4221C22.2565 37.3402 22.1975 37.2818 22.1266 37.1999C22.0971 37.1707 22.0733 37.1237 22.0438 37.0945C22.0143 37.0653 21.9905 37.0183 21.961 36.9891C21.9196 36.9364 21.9015 36.8718 21.8778 36.8249C21.8659 36.8014 21.8659 36.8014 21.854 36.7779L21.9006 36.754L21.9764 36.7004C22.0231 36.6765 22.0578 36.6291 22.1045 36.6052C22.2036 36.5397 22.2793 36.4861 22.3784 36.4206L22.6522 36.2359C22.8447 36.1225 23.0252 35.9857 23.2176 35.8723L23.3633 35.7829L23.5091 35.6934L23.7072 35.5623L23.8006 35.5145L23.8996 35.449L24.092 35.3356L24.3835 35.1567C24.5759 35.0433 24.7741 34.9122 24.9665 34.7989L26.1324 34.0833C26.622 33.7733 26.7695 33.1361 26.467 32.626C26.1587 32.1337 25.5251 31.9854 25.0412 32.2777L24.7321 32.4508L24.4754 32.5823C24.3763 32.6479 24.2772 32.7134 24.1839 32.7612C24.0848 32.8268 23.9857 32.8923 23.8867 32.9579C23.6885 33.0889 23.4904 33.22 23.298 33.3334L23.0008 33.53L22.9541 33.5539L22.7036 33.7266C22.6045 33.7922 22.5054 33.8577 22.4064 33.9232L22.2782 34.0184L22.2082 34.0543L22.1325 34.1079C21.9344 34.239 21.7538 34.3758 21.55 34.5246L21.2647 34.7447C21.1656 34.8102 21.0608 34.8935 20.9794 34.9648C20.927 35.0064 20.8803 35.0303 20.8279 35.0719L20.6764 35.1791L20.6474 35.2088L20.6416 35.2265L20.6126 35.2562C20.5893 35.2681 20.5602 35.2978 20.5545 35.3155C20.5487 35.3332 20.5311 35.3274 20.5254 35.3452L20.473 35.3868C20.4497 35.3987 20.4382 35.4342 20.4149 35.4461C20.3858 35.4758 20.3801 35.4935 20.3511 35.5232L20.322 35.5528C20.3163 35.5706 20.2929 35.5825 20.2929 35.5825C20.2639 35.6122 20.2582 35.6299 20.2291 35.6596C20.2177 35.695 20.1886 35.7247 20.1829 35.7424C20.1714 35.7778 20.1424 35.8075 20.1366 35.8252C20.1252 35.8606 20.1137 35.896 20.0847 35.9257C20.0732 35.9611 20.0618 35.9965 20.0504 36.032L20.0332 36.0851C20.0275 36.1028 20.0217 36.1205 20.016 36.1382Z" fill="white" stroke="#002255" stroke-width="0.5" stroke-miterlimit="10" stroke-linecap="round" stroke-linejoin="round"/>
<path d="M26.8393 33.1023C26.842 33.4556 26.6452 33.7634 26.348 33.96C25.7883 34.3058 24.7215 34.9559 24.1156 35.3846C23.2592 35.9859 22.1814 36.7303 22.1814 36.7303C22.1814 36.7303 22.5729 37.387 22.8745 37.7793C22.8745 37.7793 21.6835 38.2713 21.7413 39.7196C21.7413 39.7196 20.3537 38.2284 19.7944 37.0666C19.3721 36.2041 19.8115 35.4469 20.6269 34.8517C21.0346 34.5541 24.0723 32.7465 25.1334 32.1141C25.5182 31.8873 26.022 31.8953 26.3989 32.1751C26.6345 32.35 26.8534 32.6369 26.8393 33.1023Z" fill="#B70812"/>
<path d="M24.7924 35.0375C24.7747 35.0318 24.7571 35.026 24.7452 35.0025C24.7333 34.9791 24.7272 34.9379 24.7738 34.914L26.1612 34.0553C26.1846 34.0434 26.2255 34.0372 26.2493 34.0841C26.2612 34.1076 26.2674 34.1487 26.2207 34.1727L24.8333 35.0313C24.8157 35.0256 24.7924 35.0375 24.7924 35.0375Z" fill="#002255"/>
<path d="M26.1537 34.5032L25.7666 34.4355C25.7314 34.424 25.7019 34.3948 25.7134 34.3593C25.7248 34.3239 25.7539 34.2942 25.7891 34.3058L26.1761 34.3735C26.2114 34.385 26.2409 34.4142 26.2294 34.4496C26.218 34.485 26.1889 34.5147 26.1537 34.5032Z" fill="#002255"/>
</g>
</g>
<path d="M43.1241 32.8613L42.8977 33.5856L50.2439 35.9859L50.4703 35.2617L43.1241 32.8613Z" fill="#FDC324"/>
<path d="M44.832 38.8006L48.9064 40.1249L49.1327 39.4007L45.0584 38.0557L44.832 38.8006Z" fill="#FDC324"/>
<path d="M38.6794 35.2623L49.3592 38.7387L49.5856 38.0144L38.9058 34.5381L38.6794 35.2623Z" fill="#FDC324"/>
<path d="M47.3424 32.5513L35.3868 28.6611L35.1399 29.3854L47.116 33.2756L47.3424 32.5513Z" fill="#FDC324"/>
<path d="M38.2471 30.3993L35.1399 29.3854L35.3662 28.6611L38.206 29.5923C38.2265 29.8199 38.2265 30.0268 38.2265 30.2545C38.2471 30.2752 38.2471 30.3372 38.2471 30.3993Z" fill="#CEAA42"/>
<path d="M49.1946 36.3583L34.4405 31.5576L34.2141 32.3026L48.9682 37.1032L49.1946 36.3583Z" fill="#FDC324"/>
<path d="M37.7123 33.4395L34.2141 32.3014L34.4405 31.5771L37.9181 32.7152C37.8563 32.9429 37.7946 33.1912 37.7123 33.4395Z" fill="#CEAA42"/>
<path d="M42.2394 32.572L34.8932 30.1924L34.6462 30.9166L41.9924 33.2963L42.2394 32.572Z" fill="#FDC324"/>
<path d="M38.0819 32.034L34.666 30.9166L34.8924 30.1924L38.2054 31.2684C38.1642 31.5167 38.123 31.7857 38.0819 32.034Z" fill="#CEAA42"/>
<path d="M38.0825 34.2687L34.0082 32.9443L33.7612 33.6686L37.8562 34.9929L38.0825 34.2687Z" fill="#FDC324"/>
<path d="M37.1154 34.7653L33.7612 33.6686L33.9876 32.9443L37.4446 34.0617C37.3623 34.31 37.2388 34.5377 37.1154 34.7653Z" fill="#CEAA42"/>
<path d="M33.3284 35.0553L43.576 38.3868L43.8024 37.6626L33.5547 34.3311L33.3284 35.0553Z" fill="#FDC324"/>
<path d="M36.3129 36.0278L33.3086 35.0553L33.5349 34.3311L36.745 35.3864C36.6422 35.5933 36.4775 35.8209 36.3129 36.0278Z" fill="#CEAA42"/>
<path d="M33.8437 40.332L33.7202 40.7252L46.54 44.9051L46.6841 44.5119L33.8437 40.332Z" fill="#F28C27"/>
<path d="M46.2931 45.7124L39.626 43.5603L39.7494 43.1465L46.4166 45.3192L46.2931 45.7124Z" fill="#F28C27"/>
<path d="M28.0612 37.5596L27.9377 37.9527L46.8074 44.0984L46.9308 43.6846L28.0612 37.5596Z" fill="#F28C27"/>
<path d="M32.0121 39.2771L27.9377 37.9527L28.0612 37.5596L32.6089 39.0287C32.4237 39.1115 32.2385 39.1943 32.0533 39.2564C32.0327 39.2564 32.0121 39.2771 32.0121 39.2771Z" fill="#D8843A"/>
<path d="M27.5263 39.1738L27.4028 39.567L39.0497 43.3744L39.1732 42.9606L27.5263 39.1738Z" fill="#F28C27"/>
<path d="M28.6786 39.8762C28.5552 39.8762 28.4317 39.8762 28.3082 39.8762L27.4028 39.5865L27.5263 39.1934L29.5429 39.8555C29.2548 39.8555 28.9667 39.8762 28.6786 39.8762Z" fill="#D8843A"/>
<path d="M33.0206 40.4975L27.6704 38.7594L27.7939 38.3662L33.144 40.1044L33.0206 40.4975Z" fill="#F28C27"/>
<path d="M30.5307 39.6905L27.6704 38.7594L27.7939 38.3662L31.2921 39.5043C31.0451 39.5871 30.7776 39.6492 30.5307 39.6905Z" fill="#D8843A"/>
<path d="M84.5909 91.3507L57.7092 104.049L40.7397 67.7533L67.6072 55.0398L84.5909 91.3507Z" fill="#FEF3EA"/>
<path d="M55.3242 82.1134L55.5154 82.5003L73.4672 73.9869L73.2901 73.6151L55.3242 82.1134Z" fill="#F28C27"/>
<path d="M61.4587 80.1637L61.6208 80.5497L73.8345 74.7748L73.6574 74.403L61.4587 80.1637Z" fill="#F28C27"/>
<path d="M56.0598 83.6603L56.237 84.0321L67.3123 78.7906L67.1352 78.4188L56.0598 83.6603Z" fill="#F28C27"/>
<path d="M60.9555 80.8646L55.8688 83.2733L55.7067 82.8873L60.7784 80.4928L60.9555 80.8646Z" fill="#F28C27"/>
<path d="M74.1879 75.5476L67.8595 78.5301L67.6824 78.1583L74.0107 75.1757L74.1879 75.5476Z" fill="#F28C27"/>
<path d="M57.3936 86.5147L57.5707 86.8866L75.5215 78.4024L75.3444 78.0306L57.3936 86.5147Z" fill="#F28C27"/>
<path d="M63.513 84.5802L63.6901 84.952L75.9038 79.1772L75.7267 78.8053L63.513 84.5802Z" fill="#F28C27"/>
<path d="M58.114 88.0763L58.2912 88.4481L69.3665 83.2066L69.2044 82.8207L58.114 88.0763Z" fill="#F28C27"/>
<path d="M63.0246 85.266L57.9379 87.6747L57.7608 87.3028L62.8475 84.8941L63.0246 85.266Z" fill="#F28C27"/>
<path d="M76.2571 79.9494L69.9137 82.9462L69.7366 82.5743L76.08 79.5776L76.2571 79.9494Z" fill="#F28C27"/>
<g clip-path="url(#clip2_2336_27231)">
<path d="M49.7899 75.3822L49.4209 75.5524L57.815 93.5693L58.184 93.399L49.7899 75.3822Z" fill="#F28C27"/>
<path d="M51.6771 81.5355L51.3081 81.7058L57.0209 93.9656L57.39 93.7953L51.6771 81.5355Z" fill="#F28C27"/>
<path d="M48.2557 76.0697L47.8866 76.24L53.0718 87.3574L53.4548 87.2023L48.2557 76.0697Z" fill="#F28C27"/>
<path d="M51.0619 80.9809L48.68 75.8731L49.0494 75.7025L51.4313 80.8103L51.0619 80.9809Z" fill="#F28C27"/>
<path d="M56.2275 94.3327L53.2639 87.9638L53.6331 87.7933L56.5968 94.1622L56.2275 94.3327Z" fill="#F28C27"/>
</g>
<path d="M77.5503 82.7007L61.2109 90.4328L60.9934 89.9572L77.3178 82.2392L77.5503 82.7007Z" fill="#E50A17"/>
<path d="M78.0668 83.8302L56.1376 94.218L55.9202 93.7423L77.8634 83.3697L78.0668 83.8302Z" fill="#E50A17"/>
<path d="M69.6363 89.2178L56.669 95.3337L56.4506 94.8873L69.4039 88.7563L69.6363 89.2178Z" fill="#E50A17"/>
<path d="M79.1426 86.1061L57.1994 96.4787L56.982 96.0031L78.9102 85.6445L79.1426 86.1061Z" fill="#E50A17"/>
<path d="M79.6589 87.2354L69.8552 91.8747L69.6519 91.4142L79.4555 86.7749L79.6589 87.2354Z" fill="#E50A17"/>
<path d="M80.1892 88.3805L58.261 98.739L58.0426 98.2926L79.9718 87.9048L80.1892 88.3805Z" fill="#E50A17"/>
<path d="M74.746 92.3431L58.7914 99.883L58.574 99.4074L74.5136 91.8816L74.746 92.3431Z" fill="#E50A17"/>
<path d="M80.5022 89.0494L75.4897 91.4166L75.7221 91.8781L80.7347 89.5109L80.5022 89.0494Z" fill="#E50A17"/>
<path d="M57.7297 97.6232L68.2137 92.6551L68.0104 92.1945L57.5122 97.1476L57.7297 97.6232Z" fill="#E50A17"/>
<path d="M70.5973 88.7658L78.5972 84.9747L78.3798 84.499L70.3799 88.2902L70.5973 88.7658Z" fill="#E50A17"/>
<g clip-path="url(#clip3_2336_27231)">
<rect width="7.64222" height="9.94488" transform="matrix(0.903263 -0.425253 0.422764 0.908044 43.4856 68.8398)" fill="#5598FF"/>
<path d="M57.6349 82.2963C56.8294 83.2783 54.933 85.7358 53.6353 86.0632C53.5854 86.0758 53.5355 86.0884 53.4769 86.0872C53.3184 86.1112 53.1836 86.0812 53.0538 86.0286C52.2174 85.6529 50.1006 83.2264 49.287 81.5167C49.1921 81.3059 49.0659 81.0764 48.926 80.8557C48.7161 80.5245 48.4887 80.1658 48.2476 79.8159C47.3358 78.499 46.5441 77.7066 46.9105 77.006C47.2346 76.3909 47.7445 75.7341 48.095 75.3736C48.3207 75.1513 48.6449 74.7495 48.9555 74.5697L50.3802 73.9862C50.3802 73.9862 51.5916 73.4619 51.9748 73.4879C52.3579 73.5139 53.0061 74.2625 53.9535 74.7223C54.8873 75.1908 55.4868 75.893 55.5724 77.0023C55.6105 78.0062 55.5042 77.6863 56.2013 78.908C57.0734 80.4056 59.1774 80.3762 57.6349 82.2963Z" fill="#BEBEBE"/>
<path d="M50.5494 73.6445L50.7545 74.2115C50.7033 74.2831 50.661 74.3685 50.6148 74.4174C49.8642 75.3643 48.5575 75.0379 48.5575 75.0379L47.8299 73.0984L50.2212 73.5833L50.5494 73.6445Z" fill="white"/>
<path d="M52.2439 73.335C52.2439 73.335 56.543 75.0028 58.0751 76.2325C59.5934 77.4711 59.0256 79.4067 59.0256 79.4067L58.1116 80.6136C58.1116 80.6136 53.3837 75.8639 52.2439 73.335Z" fill="#B70812"/>
<g opacity="0.8">
<path d="M49.9087 77.6259C49.9087 77.6259 51.0671 76.3789 53.0469 75.5753L53.8662 76.7767C53.8662 76.7767 51.778 77.805 50.758 78.9051L49.9087 77.6259Z" fill="#CED2E5"/>
</g>
<g opacity="0.8">
<path d="M50.8356 75.5578C50.8218 75.5666 50.7944 75.5842 50.7807 75.593C49.9998 76.0353 48.8804 75.8218 48.8267 75.798C48.8043 75.793 48.7643 75.7604 48.783 75.729C48.788 75.7064 48.8204 75.6662 48.8516 75.685C48.8653 75.6762 49.9798 75.9124 50.7107 75.4826C51.423 75.0842 51.0681 74.3417 51.0506 74.3141C51.0331 74.2865 51.0431 74.2413 51.0793 74.2375C51.1067 74.2199 51.1517 74.2299 51.1554 74.2663C51.1779 74.2713 51.5627 75.0916 50.8356 75.5578Z" fill="#002255"/>
</g>
<path d="M55.2799 84.486C54.1906 84.7768 52.9999 84.7252 52.105 84.5616C52.0376 84.5466 51.9702 84.5316 51.9028 84.5166C51.431 84.4116 51.3213 84.6953 51.1203 84.5913C50.3838 84.1904 49.0193 81.6114 48.6018 80.6178C48.1843 79.6242 46.5174 78.3645 46.4707 77.5601C46.424 76.7557 47.4456 75.8098 47.4456 75.8098C47.4456 75.8098 47.1585 75.7222 47.3342 75.2991C47.4961 74.8848 48.3807 74.4536 48.3807 74.4536C50.8917 78.3543 53.7317 81.6172 55.2799 84.486Z" fill="#9B0C1D"/>
<path d="M53.6796 83.9396C53.6522 83.9572 53.6297 83.9522 53.5985 83.9334C51.4726 81.4931 48.6572 76.1381 48.631 76.0967C48.6135 76.0691 48.6235 76.0239 48.6596 76.0201C48.6871 76.0025 48.732 76.0125 48.7358 76.0489C48.7708 76.1041 51.5687 81.4315 53.6945 83.8718C53.717 83.8768 53.7071 83.922 53.6796 83.9396Z" fill="white"/>
<path d="M54.7792 83.8179C54.7517 83.8355 54.7292 83.8305 54.698 83.8117C52.1951 81.0505 48.7382 75.7186 48.712 75.6773C48.6945 75.6497 48.7045 75.6045 48.7319 75.5869C48.7593 75.5693 48.8043 75.5793 48.8218 75.6069C48.8568 75.6621 52.2911 80.9889 54.7853 83.7364C54.8166 83.7552 54.7979 83.7865 54.7792 83.8179Z" fill="#002255"/>
<path d="M48.4246 75.8024C47.9156 75.9735 47.4888 75.8785 47.4663 75.8735C47.4439 75.8685 47.4176 75.8271 47.4226 75.8045C47.4276 75.7819 47.4687 75.7556 47.4912 75.7606C47.4912 75.7606 47.9093 75.8418 48.3771 75.697C48.4133 75.6932 48.4445 75.712 48.462 75.7396C48.457 75.7622 48.4521 75.7848 48.4246 75.8024Z" fill="#002255"/>
<path d="M58.1419 80.2656C58.1419 80.2656 58.5121 81.5805 57.6281 82.8651C55.5882 79.9817 53.0939 76.8076 50.3636 73.4743C50.3636 73.4743 50.7777 73.0924 51.136 73.2314C51.2882 73.289 51.4244 73.4734 51.4244 73.4734C51.4244 73.4734 51.6839 73.3652 52.0234 73.3222C52.3628 73.2793 52.4403 73.4624 52.7575 73.8411C53.0835 74.2337 54.1532 74.4599 54.9187 75.2109C55.6843 75.962 55.4939 76.8795 55.7877 77.7389C56.104 78.6033 58.1419 80.2656 58.1419 80.2656Z" fill="#9B0C1D"/>
<path d="M57.4013 81.3798C57.3738 81.3974 57.3289 81.3874 57.3114 81.3598C54.6393 77.3877 51.6069 74.2479 51.567 74.2153C51.5495 74.1877 51.5457 74.1514 51.5732 74.1338C51.6006 74.1162 51.6368 74.1124 51.6543 74.14C51.6942 74.1726 54.7129 77.3211 57.4075 81.2983C57.4337 81.3397 57.4287 81.3623 57.4013 81.3798Z" fill="white"/>
<path d="M51.2528 74.1458C51.2253 74.1634 51.2029 74.1584 51.1717 74.1396C51.1542 74.112 51.1504 74.0756 51.1778 74.058C51.1778 74.058 51.4722 73.7918 51.3921 73.5133C51.3883 73.4769 51.407 73.4455 51.4432 73.4417C51.4794 73.4379 51.5106 73.4567 51.5144 73.4931C51.6069 73.8218 51.2665 74.137 51.2528 74.1458Z" fill="#002255"/>
<path d="M57.2777 81.4587C57.2502 81.4763 57.2278 81.4713 57.1965 81.4525C54.9508 78.7011 51.3622 74.288 51.336 74.2466C51.3185 74.219 51.3147 74.1826 51.3422 74.165C51.3696 74.1474 51.4058 74.1436 51.4233 74.1712C51.4496 74.2126 55.0381 78.6257 57.2839 81.3771C57.3151 81.3959 57.3051 81.4411 57.2777 81.4587Z" fill="#002255"/>
<path d="M53.2927 81.8972L54.2235 83.6094C54.2235 83.6094 52.1139 84.5737 50.996 84.941C50.6779 85.048 50.3011 85.1537 49.9167 85.1867C49.2204 85.245 48.4665 85.0298 47.8906 84.0602C47.7119 83.7479 47.5394 83.354 47.4006 82.8609C46.6099 80.0305 46.4945 77.2912 46.4945 77.2912C48.4011 76.9809 48.951 78.1224 48.951 78.1224C49.2515 79.5401 49.8438 82.5753 49.8438 82.5753C50.8212 82.8995 53.2927 81.8972 53.2927 81.8972Z" fill="#B70812"/>
<path d="M50.1784 69.7114C50.1784 69.7114 51.1087 68.8045 50.8601 68.3819C50.6514 67.9918 50.2249 68.3234 50.2249 68.3234C50.2249 68.3234 50.2041 67.1339 49.7973 67.1618C49.3906 67.1898 49.3174 67.8963 49.3174 67.8963C49.3174 67.8963 48.9535 66.7133 48.6268 67.0198C48.3137 67.3175 48.6174 67.9183 48.6174 67.9183C48.6174 67.9183 47.1389 68.2646 46.584 68.9114C46.205 69.3484 46.3837 69.874 46.3837 69.874C46.3837 69.874 46.0044 69.8844 45.8598 70.1129C45.7289 70.3326 46.1346 70.5769 46.1346 70.5769C46.1346 70.5769 45.9814 71.005 46.3136 71.3159C46.6457 71.6268 47.3698 72.1909 47.3698 72.1909L50.1784 69.7114Z" fill="#002255"/>
<path d="M48.3747 74.4759L47.8297 73.0985L50.1534 73.355L50.3968 73.3736L50.7455 74.1978" fill="white"/>
<path d="M48.3747 74.4759L47.8297 73.0985L50.1534 73.355L50.3968 73.3736L50.7455 74.1978" stroke="#002255" stroke-width="0.2" stroke-miterlimit="10" stroke-linecap="round" stroke-linejoin="round"/>
<path d="M48.9778 69.0671C48.9778 69.0671 50.3578 68.6869 50.4063 70.2857C50.4063 70.2857 49.0829 69.446 48.9778 69.0671Z" fill="#002255"/>
<path d="M50.3253 70.9166C50.3253 70.9166 50.4934 70.4208 50.8256 70.7317C51.1353 71.0376 51.2855 71.8532 50.7565 71.9014L50.3253 70.9166Z" fill="white" stroke="#002255" stroke-width="0.1" stroke-miterlimit="10" stroke-linecap="round" stroke-linejoin="round"/>
<path d="M47.9361 73.2059L47.4062 71.9741L47.1262 71.3193C47.1262 71.3193 46.5315 70.1678 47.5831 69.513C48.3602 69.0342 49.1937 68.8879 49.7567 69.1672C49.9577 69.2712 50.13 69.4518 50.2474 69.6675L50.7237 70.8756L50.8349 71.1729L51.2049 72.0611C51.2049 72.0611 51.6461 73.214 50.4409 73.6568C50.0043 73.8203 49.575 73.8433 49.1969 73.7946" fill="white"/>
<path d="M47.9361 73.2059L47.4062 71.9741L47.1262 71.3193C47.1262 71.3193 46.5315 70.1678 47.5831 69.513C48.3602 69.0342 49.1937 68.8879 49.7567 69.1672C49.9577 69.2712 50.13 69.4518 50.2474 69.6675L50.7237 70.8756L50.8349 71.1729L51.2049 72.0611C51.2049 72.0611 51.6461 73.214 50.4409 73.6568C50.0043 73.8203 49.575 73.8433 49.1969 73.7946" stroke="#002255" stroke-width="0.2" stroke-miterlimit="10" stroke-linecap="round" stroke-linejoin="round"/>
<path d="M48.9703 71.1856C49.0041 71.2998 49.0017 71.4177 48.9381 71.4391C48.8744 71.4605 48.7858 71.3815 48.7383 71.2762C48.7045 71.162 48.7069 71.044 48.7706 71.0226C48.8479 70.9924 48.9366 71.0714 48.9703 71.1856Z" fill="#161960"/>
<path d="M50.1122 70.7647C50.146 70.8789 50.1435 70.9968 50.0799 71.0182C50.0163 71.0396 49.9276 70.9606 49.8801 70.8553C49.8464 70.7411 49.8488 70.6231 49.9124 70.6017C49.9898 70.5715 50.0697 70.6367 50.1122 70.7647Z" fill="#002255"/>
<path d="M49.7487 71.5609C49.7212 71.5785 49.69 71.5597 49.6863 71.5233C49.6688 71.4958 49.6875 71.4644 49.7237 71.4606C49.8921 71.3914 49.9532 71.2746 49.9544 71.2156C49.6222 70.9047 49.2813 70.58 49.2813 70.58C49.2639 70.5524 49.2688 70.5298 49.2738 70.5072C49.3013 70.4896 49.3237 70.4946 49.3462 70.4996C49.3462 70.4996 49.6958 70.8381 50.0367 71.1628C50.0455 71.1766 50.0542 71.1904 50.0492 71.213C50.058 71.2268 50.0307 71.4578 49.7487 71.5609Z" fill="#002255"/>
<path d="M48.2144 70.8743C48.1944 70.7514 48.2092 70.4703 48.5872 70.3055C48.6371 70.2929 48.682 70.3029 48.722 70.3355C48.7569 70.3907 48.742 70.4585 48.6871 70.4937C48.5911 70.5553 48.4626 70.657 48.4403 70.8653C48.4391 70.9243 48.3705 70.9683 48.3118 70.9671L48.2894 70.9621C48.2532 70.9659 48.2045 70.9195 48.2144 70.8743Z" fill="#002255"/>
<path d="M50.1925 70.1299C50.1225 70.0196 49.9415 69.8252 49.546 69.9623C49.4961 69.9749 49.4724 70.0289 49.4625 70.0741C49.4612 70.1331 49.5324 70.1845 49.5823 70.1719C49.6909 70.1605 49.8581 70.1503 50.0042 70.2895C50.0529 70.3359 50.1252 70.3283 50.1626 70.2655L50.1764 70.2567C50.2088 70.2165 50.2187 70.1713 50.1925 70.1299Z" fill="#002255"/>
<path d="M47.6735 72.151C47.6735 72.151 46.9831 71.7011 46.835 72.3199C46.7118 72.8257 47.6196 73.6795 48.0285 73.1069" fill="white"/>
<path d="M47.6735 72.151C47.6735 72.151 46.9831 71.7011 46.835 72.3199C46.7118 72.8257 47.6196 73.6795 48.0285 73.1069" stroke="#002255" stroke-width="0.2" stroke-miterlimit="10" stroke-linecap="round" stroke-linejoin="round"/>
<path d="M50.3613 71.8268C50.3613 71.8268 49.7363 72.1499 49.3345 72.1553C49.3345 72.1553 49.5783 72.8139 50.1072 72.5524C50.5313 72.3387 50.3613 71.8268 50.3613 71.8268Z" fill="#002255"/>
<path d="M47.9104 72.9531C47.883 72.9707 47.8517 72.9519 47.8567 72.9293C47.6268 72.4752 47.18 72.4706 47.1576 72.4656C47.1351 72.4606 47.1039 72.4418 47.1089 72.4192C47.1138 72.3966 47.1325 72.3652 47.155 72.3702C47.1775 72.3752 47.6829 72.381 47.9478 72.8903C47.9428 72.9129 47.9378 72.9355 47.9104 72.9531Z" fill="#002255"/>
<path d="M47.3481 72.8266C47.3344 72.8354 47.3344 72.8354 47.3119 72.8304C47.2807 72.8116 47.2857 72.789 47.2907 72.7665C47.2957 72.7439 47.4216 72.5467 47.58 72.5228C47.6162 72.519 47.6337 72.5466 47.6287 72.5691C47.6325 72.6055 47.605 72.6231 47.5826 72.6181C47.4965 72.6345 47.3992 72.7551 47.3756 72.809C47.3756 72.809 47.3706 72.8316 47.3481 72.8266Z" fill="#002255"/>
<path d="M48.625 69.4303C48.6276 69.4555 48.5722 69.5582 48.5653 69.5896C48.4668 69.8142 48.0705 69.9068 47.6725 69.9332C47.2839 69.9536 47.1327 70.3062 47.1327 70.3062C47.3518 70.6097 47.0326 70.7605 47.2032 70.9875C47.3739 71.2145 47.4667 71.5721 47.4667 71.5721L47.2435 71.6211C47.1517 71.5184 47.0305 71.475 46.9526 71.4577L46.5472 70.9237C46.5472 70.9237 46.2653 70.0145 46.9946 69.5605C47.5275 69.2189 48.3433 68.817 48.625 69.4303Z" fill="#002255" stroke="#002255" stroke-width="0.75" stroke-miterlimit="10" stroke-linecap="round" stroke-linejoin="round"/>
</g>
<path d="M61.0864 63.9304L61.4134 64.6146L68.4072 61.3172L68.0801 60.633L61.0864 63.9304Z" fill="#FDC324"/>
<path d="M66.3696 67.0916L70.2438 65.2577L69.9167 64.5735L66.0285 66.3923L66.3696 67.0916Z" fill="#FDC324"/>
<path d="M59.4735 68.7376L69.6319 63.9344L69.3048 63.2501L59.1464 68.0534L59.4735 68.7376Z" fill="#FDC324"/>
<path d="M63.9543 60.8047L52.5833 66.1828L52.8954 66.8812L64.2813 61.4889L63.9543 60.8047Z" fill="#FDC324"/>
<path d="M55.8526 65.4855L52.8954 66.8812L52.5683 66.197L55.274 64.9248C55.4437 65.0768 55.5844 65.2278 55.7391 65.394C55.7682 65.3949 55.8104 65.4402 55.8526 65.4855Z" fill="#CEAA42"/>
<path d="M67.8943 62.3108L53.8618 68.9479L54.2029 69.6473L68.2354 63.0102L67.8943 62.3108Z" fill="#FDC324"/>
<path d="M57.5293 68.073L54.2022 69.6468L53.8752 68.9626L57.1872 67.403C57.2968 67.6115 57.4205 67.8352 57.5293 68.073Z" fill="#CEAA42"/>
<path d="M60.2434 64.3274L53.2637 67.6398L53.5758 68.3382L60.5555 65.0258L60.2434 64.3274Z" fill="#FDC324"/>
<path d="M56.843 66.7923L53.5902 68.3245L53.2631 67.6403L56.4127 66.1485C56.5515 66.3581 56.7043 66.5827 56.843 66.7923Z" fill="#CEAA42"/>
<path d="M58.3627 68.4232L54.4886 70.257L54.8006 70.9554L58.6898 69.1074L58.3627 68.4232Z" fill="#FDC324"/>
<path d="M57.9944 69.4504L54.8006 70.9554L54.4736 70.2712L57.7565 68.7106C57.8652 68.9484 57.9298 69.1994 57.9944 69.4504Z" fill="#CEAA42"/>
<path d="M55.4271 72.265L65.1716 67.653L64.8445 66.9688L55.1 71.5807L55.4271 72.265Z" fill="#FDC324"/>
<path d="M58.2667 70.9235L55.4127 72.2786L55.0856 71.5944L58.1461 70.1583C58.2116 70.38 58.2462 70.6593 58.2667 70.9235Z" fill="#CEAA42"/>
<path d="M59.3897 75.7618L59.5668 76.1337L71.7655 70.373L71.6034 69.987L59.3897 75.7618Z" fill="#F28C27"/>
<path d="M72.1338 71.132L65.8045 74.1439L65.6133 73.7569L71.9567 70.7602L72.1338 71.132Z" fill="#F28C27"/>
<path d="M53.2845 77.712L53.4616 78.0839L71.4124 69.5997L71.2212 69.2128L53.2845 77.712Z" fill="#F28C27"/>
<path d="M57.3357 76.25L53.4616 78.0839L53.2845 77.712L57.6025 75.6586C57.5236 75.8463 57.4447 76.034 57.3517 76.2066C57.3367 76.2208 57.3357 76.25 57.3357 76.25Z" fill="#D8843A"/>
<path d="M53.991 79.2579L54.1681 79.6297L65.2575 74.4034L65.0663 74.0164L53.991 79.2579Z" fill="#F28C27"/>
<path d="M55.3097 78.9789C55.2196 79.0638 55.1295 79.1487 55.0393 79.2335L54.1815 79.6444L54.0044 79.2726L55.9265 78.3698C55.7162 78.5678 55.52 78.7809 55.3097 78.9789Z" fill="#D8843A"/>
<path d="M58.9016 76.4486L53.8148 78.8573L53.6377 78.4855L58.7244 76.0768L58.9016 76.4486Z" fill="#F28C27"/>
<path d="M56.5356 77.571L53.8148 78.8573L53.6377 78.4855L56.9647 76.9117C56.8407 77.1418 56.6877 77.371 56.5356 77.571Z" fill="#D8843A"/>
<path d="M44.2807 83.2059L40.5767 97.8355L15.0605 91.2967L18.7645 76.667L44.2807 83.2059Z" fill="#F28C27"/>
<path d="M15.0608 91.3376L29.9384 86.2266L40.577 97.8765L15.0608 91.3376Z" fill="#F8AD19"/>
<path d="M32.3872 88.8765L31.9345 88.3799L33.1074 88.1937L33.3337 88.6696L32.3872 88.8765ZM26.502 87.366L17.9211 79.958L27.1399 87.159L26.502 87.366Z" fill="#ED7028"/>
<path d="M29.0741 89.5783L26.502 87.3642L27.1399 87.1572L29.2593 88.8126L31.9344 88.3781L32.3871 88.8747L29.0741 89.5783Z" fill="#F1861E"/>
<path d="M44.281 83.2059L43.4373 86.4753L29.2594 88.8136L17.9211 79.9571L18.7648 76.667L44.281 83.2059Z" fill="#FDC324"/>
<path d="M33.313 88.667L33.0867 88.1911L43.4372 86.4736L33.313 88.667Z" fill="#ED6A29"/>
<path d="M146.84 71.3027L148.507 72.7098C148.548 72.7511 148.569 72.8132 148.528 72.8753L147.91 73.6202C147.869 73.6616 147.807 73.6823 147.746 73.6409L146.079 72.2338C146.038 72.1924 146.017 72.1304 146.058 72.0683L146.676 71.3233C146.717 71.282 146.779 71.282 146.84 71.3027Z" fill="#FEF3EA"/>
<path d="M148.609 70.164L149.288 70.7434C149.576 70.9917 149.618 71.4263 149.371 71.716L148.527 72.7299L146.778 71.2607L147.622 70.2468C147.889 69.9571 148.321 69.9157 148.609 70.164Z" fill="#E50A17"/>
<path d="M146.037 72.1924L147.786 73.6616L127.476 98.1823L125.727 96.7131L146.037 72.1924Z" fill="#FDC324"/>
<path d="M126.983 97.8327L127.271 98.0603L147.623 73.5188L147.314 73.2705L126.983 97.8327Z" fill="#F8AD19"/>
<path d="M126.428 97.3559L126.716 97.6042L147.067 73.0421L146.779 72.8145L126.428 97.3559Z" fill="#F8AD19"/>
<path d="M125.872 96.9L126.16 97.1483L146.511 72.5862L146.223 72.3379L125.872 96.9Z" fill="#F8AD19"/>
<path d="M125.727 96.7109C125.871 96.8351 126.015 96.6489 126.159 96.773C126.303 96.8972 126.159 97.0627 126.303 97.1869C126.447 97.311 126.591 97.1248 126.735 97.2489C126.879 97.3731 126.735 97.5386 126.879 97.6628C127.024 97.7869 127.168 97.6007 127.312 97.7249C127.456 97.849 127.312 98.0146 127.456 98.1387L125.254 99.7527L123.69 100.912L124.513 99.1941L125.727 96.7109Z" fill="#FEF3EA"/>
<path d="M124.513 99.2354C124.698 99.2767 124.863 99.3388 124.986 99.463C125.089 99.5457 125.192 99.6699 125.254 99.7941L123.69 100.953L124.513 99.2354Z" fill="#131A2F"/>
<defs>
<filter id="filter0_d_2336_27231" x="71.7295" y="8.33398" width="77.0444" height="61.7461" filterUnits="userSpaceOnUse" color-interpolation-filters="sRGB">
<feFlood flood-opacity="0" result="BackgroundImageFix"/>
<feColorMatrix in="SourceAlpha" type="matrix" values="0 0 0 0 0 0 0 0 0 0 0 0 0 0 0 0 0 0 127 0" result="hardAlpha"/>
<feOffset dx="-3" dy="6"/>
<feComposite in2="hardAlpha" operator="out"/>
<feColorMatrix type="matrix" values="0 0 0 0 0.356863 0 0 0 0 0.156863 0 0 0 0 0.0980392 0 0 0 1 0"/>
<feBlend mode="normal" in2="BackgroundImageFix" result="effect1_dropShadow_2336_27231"/>
<feBlend mode="normal" in="SourceGraphic" in2="effect1_dropShadow_2336_27231" result="shape"/>
</filter>
<clipPath id="clip0_2336_27231">
<rect width="8.44123" height="14.4773" fill="white" transform="matrix(0.951581 0.307398 -0.304307 0.952574 21.0256 34.3926)"/>
</clipPath>
<clipPath id="clip1_2336_27231">
<rect width="7.61778" height="9.9272" fill="white" transform="matrix(0.950548 0.310578 -0.307462 0.951561 26.9353 24.29)"/>
</clipPath>
<clipPath id="clip2_2336_27231">
<rect width="8.45916" height="14.4468" fill="white" transform="matrix(0.901613 -0.428781 0.42627 0.906384 45.9968 80.2373)"/>
</clipPath>
<clipPath id="clip3_2336_27231">
<rect width="7.64222" height="9.94488" fill="white" transform="matrix(0.903263 -0.425253 0.422764 0.908044 43.4856 68.8398)"/>
</clipPath>
</defs>
</svg>
