<svg width="82" height="82" viewBox="0 0 82 82" fill="none" xmlns="http://www.w3.org/2000/svg">
<rect width="82" height="82" rx="41" fill="#FFDF00"/>
<path d="M40.9991 58.5689C34.6734 58.5689 31.9305 58.5856 31.7967 58.5689C30.9582 58.5717 30.1221 57.735 30.1221 56.8954C30.1221 56.0559 30.9582 55.2248 31.7967 55.2248C31.7967 55.2248 34.8072 55.2248 40.9991 55.2248C47.1909 55.2248 50.4741 55.2246 50.4909 55.2246C51.413 55.2253 52.2815 55.95 52.2815 56.8979C52.2815 57.8069 51.6418 58.5715 50.7419 58.5715C50.608 58.5715 47.3248 58.5689 40.9991 58.5689Z" fill="#191919"/>
<path d="M24.1272 28.4411C19.8278 28.4411 17.9636 28.4578 17.8726 28.4411C17.3027 28.4439 16.7344 27.6083 16.7344 26.77C16.7344 25.9317 17.3027 25.1017 17.8726 25.1017C17.8726 25.1017 19.9188 25.1017 24.1272 25.1017C28.3356 25.1017 30.5672 25.1016 30.5786 25.1016C31.2053 25.1022 31.7956 25.8259 31.7956 26.7724C31.7956 27.6801 31.3609 28.4437 30.7492 28.4437C30.6582 28.4437 28.4266 28.4411 24.1272 28.4411Z" fill="#191919"/>
<path d="M29.7216 38.0551C29.7216 41.0674 27.2783 43.5106 24.2661 43.5106C21.2538 43.5106 18.8105 41.0674 18.8105 38.0551C18.8105 35.0429 21.2538 32.5996 24.2661 32.5996C27.2783 32.5996 29.7216 35.0429 29.7216 38.0551Z" fill="#191919"/>
<path d="M57.5969 28.4411C53.2975 28.4411 51.4333 28.4578 51.3423 28.4411C50.7724 28.4439 50.2041 27.6083 50.2041 26.77C50.2041 25.9317 50.7724 25.1017 51.3423 25.1017C51.3423 25.1017 53.3885 25.1017 57.5969 25.1017C61.8054 25.1017 64.0369 25.1016 64.0483 25.1016C64.6751 25.1022 65.2653 25.8259 65.2653 26.7724C65.2653 27.6801 64.8306 28.4437 64.2189 28.4437C64.1279 28.4437 61.8964 28.4411 57.5969 28.4411Z" fill="#191919"/>
<path d="M52.2784 38.0551C52.2784 41.0674 54.7217 43.5106 57.7339 43.5106C60.7462 43.5106 63.1895 41.0674 63.1895 38.0551C63.1895 35.0429 60.7462 32.5996 57.7339 32.5996C54.7217 32.5996 52.2784 35.0429 52.2784 38.0551Z" fill="#191919"/>
</svg>
