<svg width="45" height="45" viewBox="0 0 45 45" fill="none" xmlns="http://www.w3.org/2000/svg">
<g style="mix-blend-mode:luminosity" clip-path="url(#clip0_4562_35501)">
<path d="M45 22.5C45 34.9263 34.9263 45 22.5 45C10.075 45 0 34.9263 0 22.5C0 10.075 10.075 0 22.5 0C34.9263 0 45 10.075 45 22.5Z" fill="#FFCC4D"/>
<path d="M14.375 25C16.1009 25 17.5 23.0412 17.5 20.625C17.5 18.2088 16.1009 16.25 14.375 16.25C12.6491 16.25 11.25 18.2088 11.25 20.625C11.25 23.0412 12.6491 25 14.375 25Z" fill="#664500"/>
<path d="M30.625 25C32.3509 25 33.75 23.0412 33.75 20.625C33.75 18.2088 32.3509 16.25 30.625 16.25C28.8991 16.25 27.5 18.2088 27.5 20.625C27.5 23.0412 28.8991 25 30.625 25Z" fill="#664500"/>
<path d="M31.25 32.5H13.75C13.06 32.5 12.5 31.9412 12.5 31.25C12.5 30.5588 13.06 30 13.75 30H31.25C31.9412 30 32.5 30.5588 32.5 31.25C32.5 31.9412 31.9412 32.5 31.25 32.5Z" fill="#664500"/>
</g>
<defs>
<clipPath id="clip0_4562_35501">
<rect width="45" height="45" fill="white"/>
</clipPath>
</defs>
</svg>
