<svg width="49" height="49" viewBox="0 0 49 49" fill="none" xmlns="http://www.w3.org/2000/svg">
<path d="M47 24.5C47 36.9263 36.9263 47 24.5 47C12.075 47 2 36.9263 2 24.5C2 12.075 12.075 2 24.5 2C36.9263 2 47 12.075 47 24.5Z" fill="#FFCC4D"/>
<path fill-rule="evenodd" clip-rule="evenodd" d="M49 24.5C49 38.0308 38.0308 49 24.5 49C10.9705 49 0 38.0309 0 24.5C0 10.9704 10.9704 0 24.5 0C38.0309 0 49 10.9705 49 24.5ZM24.5 47C36.9263 47 47 36.9263 47 24.5C47 12.075 36.9263 2 24.5 2C12.075 2 2 12.075 2 24.5C2 36.9263 12.075 47 24.5 47Z" fill="#6D2F00"/>
<path d="M16.375 27C18.1009 27 19.5 25.0412 19.5 22.625C19.5 20.2088 18.1009 18.25 16.375 18.25C14.6491 18.25 13.25 20.2088 13.25 22.625C13.25 25.0412 14.6491 27 16.375 27Z" fill="#664500"/>
<path d="M32.625 27C34.3509 27 35.75 25.0412 35.75 22.625C35.75 20.2088 34.3509 18.25 32.625 18.25C30.8991 18.25 29.5 20.2088 29.5 22.625C29.5 25.0412 30.8991 27 32.625 27Z" fill="#664500"/>
<path d="M33.25 34.5H15.75C15.06 34.5 14.5 33.9412 14.5 33.25C14.5 32.5588 15.06 32 15.75 32H33.25C33.9412 32 34.5 32.5588 34.5 33.25C34.5 33.9412 33.9412 34.5 33.25 34.5Z" fill="#664500"/>
</svg>
