<svg width="83" height="83" viewBox="0 0 83 83" fill="none" xmlns="http://www.w3.org/2000/svg">
<rect x="0.5" y="0.5" width="82" height="82" rx="41" fill="#FFDF00"/>
<path d="M41.5 59.0689C35.1743 59.0689 32.4315 59.0856 32.2976 59.0689C31.4592 59.0717 30.623 58.235 30.623 57.3954C30.623 56.5559 31.4592 55.7248 32.2976 55.7248C32.2976 55.7248 35.3082 55.7248 41.5 55.7248C47.6919 55.7248 50.9751 55.7246 50.9919 55.7246C51.914 55.7253 52.7825 56.45 52.7825 57.3979C52.7825 58.3069 52.1428 59.0715 51.2429 59.0715C51.109 59.0715 47.8257 59.0689 41.5 59.0689Z" fill="#191919"/>
<path d="M24.6272 28.9411C20.3278 28.9411 18.4636 28.9578 18.3726 28.9411C17.8027 28.9439 17.2344 28.1083 17.2344 27.27C17.2344 26.4317 17.8027 25.6017 18.3726 25.6017C18.3726 25.6017 20.4188 25.6017 24.6272 25.6017C28.8356 25.6017 31.0672 25.6016 31.0786 25.6016C31.7053 25.6022 32.2956 26.3259 32.2956 27.2724C32.2956 28.1801 31.8609 28.9437 31.2492 28.9437C31.1582 28.9437 28.9266 28.9411 24.6272 28.9411Z" fill="#191919"/>
<path d="M30.2216 38.5551C30.2216 41.5674 27.7783 44.0106 24.7661 44.0106C21.7538 44.0106 19.3105 41.5674 19.3105 38.5551C19.3105 35.5429 21.7538 33.0996 24.7661 33.0996C27.7783 33.0996 30.2216 35.5429 30.2216 38.5551Z" fill="#191919"/>
<path d="M58.096 28.9411C53.7965 28.9411 51.9323 28.9578 51.8413 28.9411C51.2715 28.9439 50.7031 28.1083 50.7031 27.27C50.7031 26.4317 51.2715 25.6017 51.8413 25.6017C51.8413 25.6017 53.8875 25.6017 58.096 25.6017C62.3044 25.6017 64.5359 25.6016 64.5473 25.6016C65.1741 25.6022 65.7643 26.3259 65.7643 27.2724C65.7643 28.1801 65.3296 28.9437 64.7179 28.9437C64.6269 28.9437 62.3954 28.9411 58.096 28.9411Z" fill="#191919"/>
<path d="M52.7784 38.5551C52.7784 41.5674 55.2217 44.0106 58.2339 44.0106C61.2462 44.0106 63.6895 41.5674 63.6895 38.5551C63.6895 35.5429 61.2462 33.0996 58.2339 33.0996C55.2217 33.0996 52.7784 35.5429 52.7784 38.5551Z" fill="#191919"/>
</svg>
