<svg width="33" height="33" viewBox="0 0 33 33" fill="none" xmlns="http://www.w3.org/2000/svg">
<path fill-rule="evenodd" clip-rule="evenodd" d="M16.5 28.5C14.1266 28.5 11.8066 27.7962 9.83316 26.4776C7.85977 25.1591 6.3217 23.2849 5.41345 21.0922C4.5052 18.8995 4.26756 16.4867 4.73058 14.1589C5.1936 11.8311 6.33649 9.69295 8.01472 8.01472C9.69295 6.33649 11.8311 5.1936 14.1589 4.73058C16.4867 4.26756 18.8995 4.5052 21.0922 5.41345C23.2849 6.3217 25.1591 7.85977 26.4776 9.83316C27.7962 11.8066 28.5 14.1266 28.5 16.5C28.4963 19.6815 27.2308 22.7315 24.9812 24.9812C22.7315 27.2308 19.6815 28.4963 16.5 28.5ZM16.5 5.91177C14.4058 5.91177 12.3587 6.53276 10.6175 7.69621C8.87627 8.85966 7.51915 10.5133 6.71775 12.4481C5.91635 14.3828 5.70667 16.5117 6.11522 18.5657C6.52377 20.6196 7.5322 22.5062 9.01299 23.987C10.4938 25.4678 12.3804 26.4762 14.4343 26.8848C16.4883 27.2933 18.6172 27.0837 20.5519 26.2823C22.4867 25.4809 24.1403 24.1237 25.3038 22.3825C26.4672 20.6413 27.0882 18.5942 27.0882 16.5C27.084 13.6931 25.9671 11.0024 23.9823 9.01767C21.9976 7.0329 19.3069 5.916 16.5 5.91177ZM16.5 18.1376C16.3132 18.1364 16.1344 18.0616 16.0022 17.9295C15.8701 17.7974 15.7954 17.6186 15.7941 17.4318V11.7941C15.7941 11.6069 15.8685 11.4274 16.0009 11.295C16.1333 11.1626 16.3128 11.0882 16.5 11.0882C16.6872 11.0882 16.8668 11.1626 16.9991 11.295C17.1315 11.4274 17.2059 11.6069 17.2059 11.7941V17.4318C17.206 17.5245 17.1878 17.6163 17.1524 17.702C17.117 17.7877 17.065 17.8656 16.9994 17.9312C16.9338 17.9967 16.856 18.0487 16.7703 18.0842C16.6846 18.1196 16.5927 18.1378 16.5 18.1376ZM16.0116 21.8448C16.1438 21.9769 16.3226 22.0517 16.5094 22.0529C16.6021 22.0531 16.694 22.0349 16.7797 21.9994C16.8654 21.964 16.9432 21.912 17.0088 21.8465C17.0744 21.7809 17.1264 21.703 17.1618 21.6173C17.1972 21.5316 17.2154 21.4398 17.2153 21.347V21.2247C17.2153 21.0375 17.1409 20.8579 17.0085 20.7256C16.8762 20.5932 16.6966 20.5188 16.5094 20.5188C16.3222 20.5188 16.1427 20.5932 16.0103 20.7256C15.8779 20.8579 15.8035 21.0375 15.8035 21.2247V21.347C15.8048 21.5339 15.8795 21.7127 16.0116 21.8448Z" fill="#191919"/>
</svg>
