<svg width="38" height="38" viewBox="0 0 38 38" fill="none" xmlns="http://www.w3.org/2000/svg">
<g id="Logo">
<path id="Logo/UPC/white" d="M30.7089 4.02403L30.6127 3.99996C30.5711 4.00029 30.5312 4.0169 30.5017 4.04626C30.4721 4.07562 30.4552 4.11539 30.4546 4.15707L30.4951 4.25336C32.2949 6.39502 33.4605 8.99832 33.8601 11.7689C34.2596 14.5394 33.8772 17.3667 32.7561 19.9309C31.6349 22.4951 29.8198 24.694 27.5159 26.2789C25.212 27.8638 22.5114 28.7714 19.7193 28.8992C21.3333 27.9093 22.684 26.5428 23.6561 24.9165C24.6282 23.2901 25.1928 21.4522 25.3016 19.5599C25.4103 17.6675 25.0601 15.7769 24.2807 14.0496C23.5014 12.3222 22.3161 10.8095 20.8262 9.64068C19.4555 8.54591 18.5252 6.99252 18.2063 5.26589C17.8875 3.53927 18.2014 1.75539 19.0905 0.242019L19.1234 0.159663C19.1236 0.138544 19.1196 0.117603 19.1115 0.0980737C19.1035 0.0785443 19.0916 0.0608206 19.0767 0.0459455C19.0617 0.0310703 19.0439 0.0193443 19.0244 0.0114573C19.0048 0.00357032 18.9839 -0.000318263 18.9628 2.03588e-05L18.9172 0.0177585C17.2032 0.940013 15.7454 2.27531 14.6757 3.9031C13.6059 5.53088 12.9577 7.39988 12.7898 9.34136C12.6218 11.2828 12.9393 13.2356 13.7135 15.0235C14.4878 16.8113 15.6945 18.3778 17.2246 19.5816C18.5986 20.659 19.5373 22.1976 19.8677 23.9137C20.1981 25.6298 19.8978 27.4077 19.0222 28.9195C16.1678 28.9204 13.3726 28.1047 10.9655 26.5682C8.55846 25.0317 6.63977 22.8385 5.43531 20.2467C4.23086 17.6549 3.79078 14.7724 4.16688 11.9386C4.54298 9.10476 5.71961 6.4375 7.55825 4.25083L7.58988 4.19001C7.58988 4.06331 7.52283 3.99616 7.44439 3.99616L7.33939 4.02023C4.22665 6.45659 1.95075 9.80519 0.829112 13.599C-0.292522 17.3928 -0.203953 21.4426 1.08247 25.1836C2.36888 28.9245 4.789 32.1701 8.00527 34.4676C11.2215 36.7651 15.0736 38 19.0241 38C22.9747 38 26.8267 36.7651 30.043 34.4676C33.2592 32.1701 35.6794 28.9245 36.9658 25.1836C38.2522 21.4426 38.3408 17.3928 37.2191 13.599C36.0975 9.80519 33.8216 6.45659 30.7089 4.02023" fill="#BFBFBF"/>
</g>
</svg>
