<svg width="60" height="40" viewBox="0 0 60 40" fill="none" xmlns="http://www.w3.org/2000/svg">
<path d="M30.5836 14.83V6.54785H33.2053V14.6698C33.2053 15.4883 33.3811 15.7297 33.8448 15.7297C34.3409 15.7297 34.4682 15.5046 34.4682 14.6698V6.54785H37.0911V14.83C37.0911 17.254 35.8757 18.2814 33.8448 18.2814C31.7193 18.2814 30.5836 17.254 30.5836 14.83Z" fill="white"/>
<path d="M40.9768 18.1049H38.4026V6.54785H41.6488C43.9837 6.54785 44.9112 7.47846 44.9112 9.43765V11.476C44.9112 13.4189 43.9841 14.5583 41.6488 14.5583H40.9768V18.1049ZM40.9768 12.262H41.5042C42.0154 12.262 42.2721 11.9728 42.2721 11.411V9.54883C42.2721 9.0032 42.0327 8.74655 41.5203 8.74655H40.9768V12.262Z" fill="white"/>
<path d="M46.0459 18.1049V6.54785H48.3958L50.4267 12.1981L50.6025 12.8401L50.555 11.7965V6.54785H52.9211V18.1049H50.6186L48.5404 12.4546L48.3485 11.7963L48.4121 12.9364V18.1049H46.0459Z" fill="white"/>
<path d="M16.5012 6.54785V33.4437H12.5852V13.7376L12.4742 13.8404C10.7396 15.479 8.8282 16.9181 6.77551 18.1309L6.77551 13.6835C7.85277 12.9275 8.87554 12.0961 9.83619 11.1955C11.3313 9.79562 12.671 8.23731 13.8319 6.54785L16.5012 6.54785Z" fill="white"/>
<path d="M27.6796 13.6835V18.1309C25.6273 16.9174 23.716 15.4784 21.9809 13.8404L21.8698 13.7376V33.4437H17.9539V6.54785H20.6231C21.7843 8.23706 23.1239 9.79534 24.6187 11.1955C25.579 12.0966 26.6018 12.9281 27.6796 13.6835Z" fill="white"/>
<path d="M31.0465 23.4359V21.2402H31.6052V23.4013C31.6052 23.7013 31.6818 23.816 31.8817 23.816C32.0816 23.816 32.1582 23.7045 32.1582 23.4013V21.2402H32.7125V23.4359C32.7125 24.0779 32.4181 24.3561 31.8809 24.3561C31.328 24.3561 31.0465 24.0779 31.0465 23.4359Z" fill="white"/>
<path d="M33.1312 24.3099V21.2415H33.6219L34.3252 22.9705L34.4324 23.317L34.4021 22.9023V21.2415H34.9005V24.3099H34.4221L33.7018 22.5677L33.5949 22.1997L33.6294 22.6569V24.3099H33.1312Z" fill="white"/>
<path d="M35.2589 23.7873H35.6167V21.7534H35.2589V21.2402H36.4992V21.7534H36.1497V23.7873H36.4992V24.3098H35.2589V23.7873Z" fill="white"/>
<path d="M36.73 21.2402H37.2929L37.6553 23.0722L37.6855 23.5215L37.7158 23.0722L38.0695 21.2402H38.6282L37.9626 24.3086H37.4084L36.73 21.2402Z" fill="white"/>
<path d="M38.9084 24.3099V21.2415H40.3364V21.7417H39.4531V22.5039H40.2286V23.01H39.4531V23.7928H40.3612V24.3103L38.9084 24.3099Z" fill="white"/>
<path d="M41.2403 24.3099H40.7075V21.2415H41.5305C42.1062 21.2415 42.3447 21.4645 42.3447 21.9734V22.3414C42.3447 22.6414 42.2336 22.7986 42.0212 22.8802C42.2434 22.9527 42.3156 23.1108 42.3156 23.4151V24.108C42.3139 24.1455 42.3203 24.1829 42.3343 24.2176C42.3483 24.2524 42.3697 24.2837 42.3969 24.3094H41.8163C41.7939 24.2805 41.7775 24.2474 41.768 24.2121C41.7586 24.1767 41.7563 24.1399 41.7613 24.1036V23.4404C41.7613 23.2218 41.7019 23.1362 41.4711 23.1362H41.2413V24.3099H41.2403ZM41.2403 22.649H41.5006C41.7183 22.649 41.8036 22.5511 41.8036 22.3449V22.002C41.8036 21.8007 41.7183 21.7107 41.4962 21.7107H41.2403V22.6489V22.649Z" fill="white"/>
<path d="M42.6465 23.5562V23.1447H43.218V23.5482C43.218 23.7452 43.286 23.86 43.5082 23.86C43.7087 23.86 43.7767 23.7354 43.7767 23.5645V23.4064C43.7787 23.328 43.7548 23.2512 43.7087 23.1878C43.5912 23.0639 43.449 22.9661 43.2914 22.9009C43.1915 22.8501 43.0959 22.7911 43.0056 22.7246C42.9012 22.6557 42.8164 22.5607 42.7597 22.4489C42.7029 22.3371 42.6762 22.2124 42.6821 22.087V21.9592C42.6821 21.4839 42.942 21.197 43.4922 21.197C44.0424 21.197 44.2892 21.4666 44.2892 21.9154V22.2493H43.7476V21.9495C43.7476 21.7482 43.6754 21.6583 43.4873 21.6583C43.304 21.6583 43.2317 21.7784 43.2317 21.9624V22.048C43.2282 22.12 43.2526 22.1906 43.2997 22.2451C43.4179 22.3612 43.5567 22.4543 43.7089 22.5195C43.8065 22.5705 43.9008 22.6311 43.999 22.6949C44.1047 22.7649 44.1905 22.8613 44.248 22.9746C44.3054 23.0879 44.3326 23.2143 44.3269 23.3413V23.5762C44.3269 24.0646 44.0504 24.3547 43.4997 24.3547C42.8644 24.3564 42.6465 24.078 42.6465 23.5562Z" fill="white"/>
<path d="M44.5865 23.7873H44.9444V21.7534H44.5865V21.2402H45.8269V21.7534H45.4773V23.7873H45.8269V24.3098H44.5865V23.7873Z" fill="white"/>
<path d="M46.9735 21.2402C47.1363 21.2369 47.2978 21.269 47.447 21.3344C47.7199 21.4546 47.8902 21.7155 47.8902 22.1518V23.3969C47.8994 23.5789 47.858 23.7598 47.7705 23.9194C47.6172 24.1889 47.3273 24.3091 46.9691 24.3091H46.1852V21.2402H46.9735ZM46.7352 23.8214H46.9488C47.1828 23.8214 47.3198 23.6807 47.3198 23.3461V22.1908C47.3198 21.853 47.1796 21.7155 46.9444 21.7155H46.7352V23.8214Z" fill="white"/>
<path d="M48.6956 23.8561L48.6104 24.3097H48.0603L48.7375 21.2415H49.2876L49.9821 24.3099H49.4322L49.3427 23.8563L48.6956 23.8561ZM49.2499 23.3722L49.0493 22.3491L49.0149 21.9213L48.9802 22.3491L48.7883 23.3722H49.2499Z" fill="white"/>
<path d="M51.0403 21.2402C51.203 21.2369 51.3646 21.269 51.5137 21.3344C51.7866 21.4546 51.9569 21.7155 51.9569 22.1518V23.3969C51.9662 23.5789 51.9248 23.7598 51.8372 23.9194C51.684 24.1889 51.394 24.3091 51.0359 24.3091H50.252V21.2402H51.0403ZM50.802 23.8214H51.0156C51.2496 23.8214 51.3865 23.6807 51.3865 23.3461V22.1908C51.3865 21.853 51.2464 21.7155 51.0112 21.7155H50.802V23.8214Z" fill="white"/>
<path d="M31.6054 28.8743H31.064V25.8059H31.8695C32.4616 25.8059 32.7184 26.0376 32.7184 26.58V27.1025C32.7184 27.6086 32.4713 27.9112 31.8782 27.9112H31.6054V28.8745V28.8743ZM31.6054 27.4279H31.8481C32.0658 27.4279 32.1673 27.3119 32.1673 27.0901V26.5984C32.1673 26.3635 32.0697 26.2779 31.8481 26.2779H31.6054V27.4279Z" fill="white"/>
<path d="M33.596 28.8743H33.0632V25.8059H33.8862C34.462 25.8059 34.7004 26.0289 34.7004 26.5379V26.9059C34.7004 27.2058 34.5893 27.363 34.3769 27.4447C34.5991 27.5172 34.6713 27.6752 34.6713 27.9796V28.6725C34.6696 28.71 34.676 28.7473 34.69 28.7821C34.7041 28.8168 34.7254 28.8481 34.7526 28.8738H34.172C34.1496 28.8449 34.1332 28.8119 34.1238 28.7765C34.1143 28.7412 34.112 28.7043 34.117 28.6681V28.0049C34.117 27.7863 34.0576 27.7007 33.8268 27.7007H33.597V28.8743H33.596ZM33.596 27.2145H33.8563C34.0741 27.2145 34.1593 27.1165 34.1593 26.9103V26.5674C34.1593 26.3661 34.0741 26.2761 33.8519 26.2761H33.596V27.2145Z" fill="white"/>
<path d="M34.999 28.353H35.3568V26.3191H34.999V25.8059H36.2393V26.3191H35.8898V28.353H36.2393V28.8754H34.999V28.353Z" fill="white"/>
<path d="M36.469 25.8059H37.0319L37.3943 27.6378L37.4245 28.0872L37.4548 27.6378L37.8085 25.8059H38.3672L37.7017 28.8743H37.1474L36.469 25.8059Z" fill="white"/>
<path d="M38.8655 28.4206L38.7803 28.8741H38.2302L38.9075 25.8059H39.4575L40.152 28.8743H39.6021L39.5127 28.4207L38.8655 28.4206ZM39.4198 27.9366L39.2193 26.9136L39.1846 26.4858L39.1501 26.9136L38.9582 27.9366H39.4198Z" fill="white"/>
<path d="M41.2101 25.8059C41.3728 25.8025 41.5344 25.8347 41.6835 25.9001C41.9564 26.0203 42.1267 26.2812 42.1267 26.7175V27.9626C42.136 28.1445 42.0946 28.3255 42.007 28.4851C41.8538 28.7546 41.5638 28.8748 41.2057 28.8748H40.4218V25.8059H41.2101ZM40.9718 28.3856H41.1854C41.4194 28.3856 41.5563 28.2449 41.5563 27.9103V26.7555C41.5563 26.4177 41.4162 26.2802 41.181 26.2802H40.9718V28.3856Z" fill="white"/>
<path d="M42.9324 28.4206L42.8472 28.8741H42.2971L42.9744 25.8059H43.5244L44.2189 28.8743H43.669L43.5796 28.4207L42.9324 28.4206ZM43.4867 27.9366L43.2861 26.9136L43.2517 26.4858L43.217 26.9136L43.0251 27.9366H43.4867Z" fill="white"/>
<path d="M31.8533 30.3701C32.016 30.3668 32.1776 30.3989 32.3267 30.4643C32.5996 30.5845 32.7699 30.8454 32.7699 31.2817V32.5268C32.7792 32.7087 32.7377 32.8897 32.6502 33.0493C32.497 33.3188 32.207 33.439 31.8489 33.439H31.0649V30.3701H31.8533ZM31.6139 32.9513H31.8274C32.0615 32.9513 32.1984 32.8106 32.1984 32.476V31.3207C32.1984 30.9829 32.0582 30.8454 31.823 30.8454H31.6139V32.9513Z" fill="white"/>
<path d="M33.1656 33.4385V30.3701H34.5937V30.8704H33.7113V31.6325H34.4868V32.1387H33.7113V32.9214H34.6195V33.439L33.1656 33.4385Z" fill="white"/>
<path d="M34.9646 30.3701H35.5275V32.8863H36.3461V33.4385H34.9646V30.3701Z" fill="white"/>
<path d="M37.6078 33.4385V30.3701H38.0985L38.8017 32.0992L38.9089 32.4456L38.8787 32.0309V30.3701H39.377V33.4385H38.8987L38.1783 31.6964L38.0715 31.3284L38.106 31.7855V33.4385H37.6078Z" fill="white"/>
<path d="M39.7734 32.553V31.2646C39.7734 30.6355 40.1186 30.3313 40.6556 30.3313C41.1927 30.3313 41.5378 30.6355 41.5378 31.2646V32.553C41.5378 33.1949 41.1927 33.4862 40.6556 33.4862C40.1056 33.4862 39.7734 33.1994 39.7734 32.553ZM40.9674 32.5107V31.2917C40.9674 30.9712 40.8779 30.825 40.6558 30.825C40.4261 30.825 40.3451 30.9744 40.3451 31.2917V32.5108C40.3451 32.8281 40.4264 32.9731 40.6558 32.9731C40.8778 32.9731 40.9674 32.8269 40.9674 32.5107Z" fill="white"/>
<path d="M42.4674 33.4385H41.9346V30.3701H42.7575C43.3333 30.3701 43.5717 30.5931 43.5717 31.1021V31.4701C43.5717 31.77 43.4606 31.9273 43.2482 32.0089C43.4704 32.0814 43.5426 32.2394 43.5426 32.5438V33.2367C43.5409 33.2742 43.5473 33.3115 43.5614 33.3463C43.5754 33.381 43.5967 33.4123 43.6239 33.438H43.0433C43.0209 33.4092 43.0045 33.3761 42.9951 33.3407C42.9856 33.3054 42.9833 33.2685 42.9883 33.2323V32.5691C42.9883 32.3505 42.929 32.2649 42.6982 32.2649H42.4684V33.4385H42.4674ZM42.4674 31.7788H42.7276C42.9454 31.7788 43.0306 31.6809 43.0306 31.4747V31.1318C43.0306 30.9305 42.9454 30.8405 42.7232 30.8405H42.4674V31.7787V31.7788Z" fill="white"/>
<path d="M44.8543 33.4387H44.3042V30.8753H43.8016V30.3691H45.363V30.8753H44.8554V33.4387H44.8543Z" fill="white"/>
<path d="M45.6824 33.4385V30.3701H47.1104V30.8704H46.228V31.6325H47.0035V32.1387H46.228V32.9214H47.1362V33.439L45.6824 33.4385Z" fill="white"/>
<path d="M30.5837 14.83V6.54785H33.2055V14.6698C33.2055 15.4883 33.3813 15.7297 33.8449 15.7297C34.341 15.7297 34.4683 15.5046 34.4683 14.6698V6.54785H37.0912V14.83C37.0912 17.254 35.8758 18.2814 33.8449 18.2814C31.7194 18.2814 30.5837 17.254 30.5837 14.83Z" fill="white"/>
</svg>
