<svg width="56" height="56" viewBox="0 0 56 56" fill="none" xmlns="http://www.w3.org/2000/svg">
<path d="M31.3112 42.1637H20.052C19.7321 42.1637 19.4253 42.0336 19.199 41.8019C18.9728 41.5703 18.8457 41.2561 18.8457 40.9284C18.8457 40.6008 18.9728 40.2866 19.199 40.055C19.4253 39.8233 19.7321 39.6931 20.052 39.6931H31.3112C31.6312 39.6931 31.938 39.8233 32.1642 40.055C32.3905 40.2866 32.5176 40.6008 32.5176 40.9284C32.5176 41.2561 32.3905 41.5703 32.1642 41.8019C31.938 42.0336 31.6312 42.1637 31.3112 42.1637Z" fill="#E50A17"/>
<path d="M43.7928 40.7638C43.4735 40.7616 43.1679 40.6308 42.9421 40.3996C42.7164 40.1684 42.5886 39.8555 42.5865 39.5285V36.2344C42.5865 35.9068 42.7136 35.5926 42.9398 35.3609C43.166 35.1292 43.4729 34.9991 43.7928 34.9991C44.1128 34.9991 44.4196 35.1292 44.6458 35.3609C44.8721 35.5926 44.9992 35.9068 44.9992 36.2344V39.5285C44.9994 39.6908 44.9683 39.8515 44.9078 40.0015C44.8472 40.1515 44.7584 40.2877 44.6463 40.4025C44.5343 40.5172 44.4012 40.6082 44.2547 40.6702C44.1083 40.7322 43.9513 40.764 43.7928 40.7638Z" fill="#E50A17"/>
<path d="M43.7928 30.8815C43.4735 30.8793 43.1679 30.7485 42.9421 30.5173C42.7164 30.2861 42.5886 29.9732 42.5865 29.6462V26.3521C42.5865 26.0245 42.7136 25.7103 42.9398 25.4786C43.166 25.2469 43.4729 25.1168 43.7928 25.1168C44.1128 25.1168 44.4196 25.2469 44.6458 25.4786C44.8721 25.7103 44.9992 26.0245 44.9992 26.3521V29.6462C44.9994 29.8085 44.9683 29.9692 44.9078 30.1192C44.8472 30.2692 44.7584 30.4054 44.6463 30.5202C44.5343 30.6349 44.4012 30.7259 44.2547 30.7879C44.1083 30.8499 43.9513 30.8817 43.7928 30.8815Z" fill="#E50A17"/>
<path d="M43.7928 20.9991C43.4735 20.9969 43.1679 20.8661 42.9421 20.6349C42.7164 20.4037 42.5886 20.0907 42.5865 19.7638V16.4697C42.5865 16.142 42.7136 15.8278 42.9398 15.5962C43.166 15.3645 43.4729 15.2344 43.7928 15.2344C44.1128 15.2344 44.4196 15.3645 44.6458 15.5962C44.8721 15.8278 44.9992 16.142 44.9992 16.4697V19.7638C44.9994 19.9261 44.9683 20.0868 44.9078 20.2368C44.8472 20.3867 44.7584 20.523 44.6463 20.6378C44.5343 20.7525 44.4012 20.8435 44.2547 20.9055C44.1083 20.9675 43.9513 20.9993 43.7928 20.9991Z" fill="#E50A17"/>
<path d="M25.6825 35.2307C22.3585 35.2274 19.1478 33.993 16.643 31.7554C16.4369 31.5716 16.2978 31.3218 16.2481 31.0466C16.1985 30.7715 16.2412 30.4872 16.3695 30.2401C17.2213 28.4299 18.538 26.8911 20.1786 25.7885C21.8191 24.686 23.7217 24.0613 25.6825 23.9813C27.6437 24.0593 29.5471 24.6832 31.188 25.786C32.8289 26.8888 34.1452 28.4287 34.9954 30.2401C35.1285 30.486 35.174 30.7716 35.1241 31.048C35.0742 31.3244 34.9321 31.5745 34.722 31.7554C32.2171 33.993 29.0065 35.2274 25.6825 35.2307ZM19.0074 30.5366C20.9621 31.9435 23.2932 32.6985 25.6825 32.6985C28.0718 32.6985 30.4028 31.9435 32.3576 30.5366C31.666 29.3396 30.693 28.3388 29.5271 27.6253C28.3612 26.9119 27.0396 26.5085 25.6825 26.4519C24.3242 26.503 23.0004 26.904 21.8336 27.618C20.6668 28.332 19.6948 29.3358 19.0074 30.5366Z" fill="white"/>
<path d="M25.6825 23.0752C24.7409 23.0752 23.8204 22.7893 23.0374 22.2536C22.2545 21.7179 21.6442 20.9565 21.2839 20.0656C20.9235 19.1748 20.8293 18.1945 21.013 17.2488C21.1967 16.3031 21.6501 15.4344 22.316 14.7526C22.9818 14.0708 23.8301 13.6064 24.7537 13.4183C25.6772 13.2302 26.6345 13.3267 27.5045 13.6957C28.3744 14.0647 29.118 14.6896 29.6412 15.4914C30.1643 16.2931 30.4435 17.2357 30.4435 18.1999C30.441 19.4921 29.9386 20.7307 29.0462 21.6444C28.1539 22.5581 26.9444 23.0726 25.6825 23.0752ZM25.6825 15.7788C25.218 15.7788 24.764 15.9198 24.3778 16.184C23.9917 16.4482 23.6907 16.8238 23.5129 17.2632C23.3352 17.7026 23.2887 18.1861 23.3793 18.6526C23.4699 19.1191 23.6936 19.5475 24.022 19.8838C24.3504 20.2201 24.7688 20.4492 25.2244 20.542C25.6799 20.6347 26.1521 20.5871 26.5812 20.4051C27.0103 20.2231 27.377 19.9149 27.6351 19.5194C27.8931 19.124 28.0309 18.6591 28.0309 18.1835C28.03 17.546 27.7823 16.9348 27.3421 16.484C26.9019 16.0333 26.3051 15.7796 25.6825 15.7788Z" fill="white"/>
<path d="M36.9416 49H14.4233C13.8423 49.0004 13.2669 48.8836 12.73 48.6561C12.1932 48.4286 11.7054 48.095 11.2946 47.6743C10.8838 47.2536 10.558 46.7542 10.3358 46.2044C10.1137 45.6547 9.99958 45.0655 10 44.4706V11.5294C9.99958 10.9345 10.1137 10.3453 10.3358 9.79557C10.558 9.24584 10.8838 8.74635 11.2946 8.32567C11.7054 7.90499 12.1932 7.57137 12.73 7.3439C13.2669 7.11643 13.8423 6.99957 14.4233 7H36.9416C37.5226 6.99957 38.098 7.11643 38.6348 7.3439C39.1717 7.57137 39.6595 7.90499 40.0703 8.32567C40.4811 8.74635 40.8069 9.24584 41.029 9.79557C41.2512 10.3453 41.3653 10.9345 41.3649 11.5294V44.4706C41.3628 45.6712 40.896 46.822 40.067 47.671C39.2379 48.5199 38.1141 48.9978 36.9416 49ZM14.4233 9.47059C14.1592 9.47059 13.8978 9.52384 13.6538 9.62731C13.4099 9.73077 13.1883 9.88243 13.0016 10.0736C12.8149 10.2648 12.6668 10.4917 12.5657 10.7415C12.4647 10.9913 12.4127 11.259 12.4127 11.5294V44.4706C12.4127 45.0166 12.6245 45.5403 13.0016 45.9264C13.3786 46.3125 13.89 46.5294 14.4233 46.5294H36.9416C37.4749 46.5294 37.9863 46.3125 38.3633 45.9264C38.7404 45.5403 38.9522 45.0166 38.9522 44.4706V11.5294C38.9522 10.9834 38.7404 10.4597 38.3633 10.0736C37.9863 9.6875 37.4749 9.47059 36.9416 9.47059H14.4233Z" fill="white"/>
</svg>
