<svg width="230" height="70" viewBox="0 0 230 70" fill="none" xmlns="http://www.w3.org/2000/svg">
<g id="Group">
<path id="Vector" d="M230 0H184.977V44.4942H230V0Z" fill="#FF0000"/>
<path id="Vector_2" d="M217.542 9.49022H217.384C217.302 9.57124 217.302 9.65113 217.384 9.65113C219.342 11.978 220.409 14.912 220.397 17.9385C220.39 21.2258 219.099 24.3835 216.793 26.7527C214.488 29.1218 211.345 30.5194 208.021 30.6537C209.028 30.0108 209.934 29.2244 210.708 28.32C212.36 26.2392 213.107 23.5957 212.787 20.9705C212.467 18.3452 211.105 15.9531 209.001 14.3197C207.802 13.4069 206.988 12.087 206.718 10.6155C206.447 9.14401 206.738 7.6256 207.535 6.35418V6.19552C207.535 6.1145 207.453 6.1145 207.372 6.1145C206.152 6.79126 205.074 7.69267 204.197 8.77007C202.546 10.8508 201.798 13.4943 202.118 16.1196C202.439 18.7448 203.8 21.137 205.905 22.7703C207.079 23.681 207.882 24.9794 208.166 26.4275C208.45 27.8756 208.197 29.3764 207.452 30.6548C204.038 30.6371 200.768 29.2941 198.346 26.9156C195.925 24.5371 194.546 21.3135 194.507 17.9396C194.509 14.9156 195.574 11.9861 197.52 9.65225C197.531 9.64177 197.539 9.62926 197.545 9.61544C197.551 9.60163 197.554 9.58679 197.554 9.5718C197.554 9.55681 197.551 9.54197 197.545 9.52816C197.539 9.51434 197.531 9.50182 197.52 9.49134H197.357C195.175 11.1836 193.465 13.3963 192.386 15.9215C191.307 18.4466 190.896 21.2013 191.191 23.9267C191.485 26.6522 192.476 29.2588 194.07 31.5018C195.664 33.7447 197.809 35.5503 200.304 36.7489C202.798 37.9475 205.56 38.4998 208.329 38.3537C211.099 38.2077 213.785 37.3682 216.136 35.9142C218.487 34.4601 220.426 32.4392 221.769 30.0414C223.113 27.6435 223.818 24.9475 223.817 22.2065C223.836 19.7527 223.28 17.3279 222.192 15.122C221.105 12.916 219.515 10.9888 217.548 9.49134" fill="white"/>
<path id="Vector_3" d="M184.977 0H0V70H184.977V0Z" fill="#FF0000"/>
<path id="Vector_4" d="M34.9267 62.1143L29.228 20.9992L28.4139 12.7928H27.9254L27.1921 20.9992L21.6562 62.1143H16.4448L7.97803 7.88452H11.9632L17.8248 49.2404L18.8017 57.3669H19.2902L20.2671 49.2404L25.6448 7.88452H30.7685L36.3045 49.2404L37.3634 57.3669H37.8518L38.7479 49.2404L44.6152 7.88452H48.5229L40.0562 62.1143H34.9267Z" fill="white"/>
<path id="Vector_5" d="M59.9215 62.5171C58.7076 62.5863 57.492 62.4155 56.3458 62.0148C55.1995 61.614 54.1456 60.9914 53.2458 60.1834C51.7804 58.8151 50.8035 57.0451 50.8035 53.5051V32.0231C50.8035 28.6474 51.6176 26.874 53.0021 25.5058C53.9302 24.6617 55.022 24.0126 56.2114 23.5977C57.4007 23.1828 58.6629 23.0108 59.9215 23.0921H61.9607C65.462 23.0921 67.6595 24.0576 69.2069 25.5058C69.9121 26.202 70.4698 27.0302 70.8473 27.942C71.2248 28.8537 71.4146 29.8307 71.4056 30.8158V44.3333H54.6292V53.9889C54.6292 57.2881 56.665 59.219 60.4908 59.219H61.5497C65.6202 59.219 67.6561 57.2881 67.6561 53.9889V51.5753H71.401V53.5062C71.401 56.9663 70.5049 58.7363 69.0395 60.1845C67.655 61.5528 65.5383 62.5182 61.9562 62.5182L59.9215 62.5171ZM67.6538 31.5404C67.6538 28.2412 65.6999 26.3103 61.5474 26.3103H60.4885C56.6616 26.3103 54.6269 28.2412 54.6269 31.5404V41.1961H67.6538V31.5404Z" fill="white"/>
<path id="Vector_6" d="M89.5532 7.88452H70.4245V14.8846H78.2399V62.1143H86.1374V14.8846H93.9528V7.88452H89.5532Z" fill="white"/>
<path id="Vector_7" d="M109.096 7.88452H100.467L90.7783 62.1143H98.9194L100.058 53.5861H109.421L110.643 62.1143H118.784L109.096 7.88452ZM101.118 46.6659L103.965 27.2746L104.616 19.7119H105.104L105.756 27.2746L108.524 46.6659H101.118Z" fill="white"/>
<path id="Vector_8" d="M154.527 8.04541H146.712V62.2752H154.527V8.04541Z" fill="white"/>
<path id="Vector_9" d="M176.998 8.04541H168.043L156.4 34.4356L167.961 62.2752H176.998L164.215 33.1484L176.998 8.04541Z" fill="white"/>
<path id="Vector_10" d="M130.509 55.1952V7.88452H122.693V62.1143H142.152L142.315 55.1952H130.509Z" fill="white"/>
</g>
</svg>
