<svg width="276" height="48" viewBox="0 0 276 48" fill="none" xmlns="http://www.w3.org/2000/svg">
<path d="M37.0844 17.796V7.85742H40.273V17.6038C40.273 18.5859 40.4868 18.8757 41.0507 18.8757C41.654 18.8757 41.8089 18.6055 41.8089 17.6038V7.85742H44.9989V17.796C44.9989 20.7048 43.5207 21.9377 41.0507 21.9377C38.4657 21.9377 37.0844 20.7048 37.0844 17.796Z" fill="black"/>
<path d="M49.7247 21.7259H46.5939V7.85742H50.5421C53.3817 7.85742 54.5098 8.97416 54.5098 11.3252V13.7712C54.5098 16.1026 53.3823 17.47 50.5421 17.47H49.7247V21.7259ZM49.7247 14.7144H50.3662C50.9879 14.7144 51.3 14.3674 51.3 13.6932V11.4586C51.3 10.8038 51.0089 10.4959 50.3858 10.4959H49.7247V14.7144Z" fill="black"/>
<path d="M55.8898 21.7259V7.85742H58.7479L61.2178 14.6378L61.4317 15.4081L61.3739 14.1558V7.85742H64.2515V21.7259H61.4512L58.9237 14.9456L58.6903 14.1556L58.7677 15.5237V21.7259H55.8898Z" fill="black"/>
<path d="M19.9571 7.85742V40.1324H15.1944V16.4851L15.0593 16.6085C12.9497 18.5748 10.625 20.3017 8.12854 21.757L8.12854 16.4202C9.43872 15.513 10.6826 14.5153 11.851 13.4346C13.6693 11.7547 15.2987 9.88478 16.7106 7.85742L19.9571 7.85742Z" fill="black"/>
<path d="M33.5524 16.4202V21.757C31.0565 20.3009 28.7319 18.5741 26.6217 16.6085L26.4866 16.4851V40.1324H21.7239V7.85742H24.9702C26.3825 9.88448 28.0118 11.7544 29.8298 13.4346C30.9977 14.516 32.2417 15.5137 33.5524 16.4202Z" fill="black"/>
<path d="M37.6473 28.1231V25.4883H38.3268V28.0816C38.3268 28.4415 38.42 28.5792 38.6631 28.5792C38.9062 28.5792 38.9994 28.4454 38.9994 28.0816V25.4883H39.6735V28.1231C39.6735 28.8935 39.3155 29.2274 38.6621 29.2274C37.9897 29.2274 37.6473 28.8935 37.6473 28.1231Z" fill="black"/>
<path d="M40.1828 29.1718V25.4897H40.7796L41.6349 27.5646L41.7653 27.9804L41.7285 27.4827V25.4897H42.3346V29.1718H41.7528L40.8767 27.0813L40.7468 26.6396L40.7887 27.1882V29.1718H40.1828Z" fill="black"/>
<path d="M42.7706 28.5448H43.2057V26.1041H42.7706V25.4883H44.2791V26.1041H43.854V28.5448H44.2791V29.1717H42.7706V28.5448Z" fill="black"/>
<path d="M44.5598 25.4883H45.2444L45.6851 27.6866L45.7219 28.2258L45.7587 27.6866L46.1889 25.4883H46.8684L46.0589 29.1704H45.3848L44.5598 25.4883Z" fill="black"/>
<path d="M47.2091 29.1718V25.4897H48.9459V26.0901H47.8716V27.0047H48.8147V27.612H47.8716V28.5513H48.9759V29.1724L47.2091 29.1718Z" fill="black"/>
<path d="M50.0452 29.1718H49.3972V25.4897H50.3981C51.0983 25.4897 51.3883 25.7574 51.3883 26.3681V26.8097C51.3883 27.1696 51.2532 27.3583 50.9949 27.4563C51.2651 27.5433 51.3529 27.7329 51.3529 28.0981V28.9297C51.3508 28.9746 51.3586 29.0195 51.3757 29.0612C51.3928 29.1028 51.4187 29.1404 51.4518 29.1712H50.7456C50.7184 29.1366 50.6985 29.0969 50.687 29.0545C50.6755 29.0121 50.6727 28.9678 50.6788 28.9244V28.1285C50.6788 27.8662 50.6066 27.7635 50.3259 27.7635H50.0464V29.1718H50.0452ZM50.0452 27.1788H50.3617C50.6265 27.1788 50.7302 27.0613 50.7302 26.8138V26.4024C50.7302 26.1608 50.6265 26.0528 50.3563 26.0528H50.0452V27.1786V27.1788Z" fill="black"/>
<path d="M51.7554 28.2675V27.7737H52.4505V28.2579C52.4505 28.4944 52.5332 28.6321 52.8034 28.6321C53.0473 28.6321 53.1299 28.4826 53.1299 28.2775V28.0878C53.1324 27.9937 53.1033 27.9015 53.0473 27.8255C52.9043 27.6767 52.7314 27.5594 52.5397 27.4812C52.4182 27.4202 52.3019 27.3495 52.1921 27.2696C52.0651 27.1869 51.962 27.0729 51.893 26.9387C51.824 26.8046 51.7915 26.6549 51.7987 26.5045V26.3511C51.7987 25.7808 52.1148 25.4365 52.784 25.4365C53.4532 25.4365 53.7532 25.76 53.7532 26.2986V26.6993H53.0945V26.3396C53.0945 26.098 53.0067 25.99 52.778 25.99C52.5551 25.99 52.4671 26.1342 52.4671 26.355V26.4577C52.4629 26.5441 52.4925 26.6288 52.5498 26.6942C52.6936 26.8336 52.8624 26.9453 53.0475 27.0235C53.1661 27.0847 53.2809 27.1574 53.4003 27.234C53.5289 27.318 53.6332 27.4337 53.7031 27.5697C53.773 27.7056 53.8061 27.8572 53.7991 28.0096V28.2916C53.7991 28.8776 53.4629 29.2258 52.7931 29.2258C52.0204 29.2277 51.7554 28.8937 51.7554 28.2675Z" fill="black"/>
<path d="M54.115 28.5448H54.5502V26.1041H54.115V25.4883H55.6235V26.1041H55.1984V28.5448H55.6235V29.1717H54.115V28.5448Z" fill="black"/>
<path d="M57.0179 25.4886C57.2159 25.4845 57.4123 25.5231 57.5937 25.6016C57.9257 25.7458 58.1328 26.0589 58.1328 26.5824V28.0766C58.144 28.2949 58.0936 28.512 57.9872 28.7036C57.8009 29.027 57.4482 29.1712 57.0126 29.1712H56.0591V25.4886H57.0179ZM56.7281 28.586H56.9879C57.2725 28.586 57.4391 28.4171 57.4391 28.0156V26.6293C57.4391 26.2239 57.2685 26.0589 56.9825 26.0589H56.7281V28.586Z" fill="black"/>
<path d="M59.1125 28.6273L59.0088 29.1716H58.3398L59.1635 25.4897H59.8325L60.6772 29.1718H60.0084L59.8996 28.6275L59.1125 28.6273ZM59.7866 28.0466L59.5427 26.8189L59.5008 26.3056L59.4587 26.8189L59.2252 28.0466H59.7866Z" fill="black"/>
<path d="M61.9642 25.4886C62.1621 25.4845 62.3586 25.5231 62.54 25.6016C62.8719 25.7458 63.079 26.0589 63.079 26.5824V28.0766C63.0903 28.2949 63.0399 28.512 62.9334 28.7035C62.7471 29.027 62.3944 29.1712 61.9588 29.1712H61.0054V25.4886H61.9642ZM61.6744 28.586H61.9341C62.2187 28.586 62.3853 28.4171 62.3853 28.0156V26.6293C62.3853 26.2239 62.2148 26.0589 61.9287 26.0589H61.6744V28.586Z" fill="black"/>
<path d="M38.327 34.6494H37.6685V30.9673H38.6483C39.3683 30.9673 39.6806 31.2453 39.6806 31.8962V32.5231C39.6806 33.1305 39.3802 33.4936 38.6587 33.4936H38.327V34.6496V34.6494ZM38.327 32.9136H38.6222C38.887 32.9136 39.0105 32.7745 39.0105 32.5083V31.9183C39.0105 31.6364 38.8918 31.5337 38.6222 31.5337H38.327V32.9136Z" fill="black"/>
<path d="M40.7481 34.6494H40.1V30.9673H41.101C41.8012 30.9673 42.0912 31.2349 42.0912 31.8456V32.2873C42.0912 32.6472 41.9561 32.8359 41.6977 32.9338C41.9679 33.0208 42.0558 33.2105 42.0558 33.5757V34.4072C42.0537 34.4521 42.0615 34.497 42.0786 34.5387C42.0956 34.5804 42.1216 34.6179 42.1547 34.6488H41.4485C41.4213 34.6141 41.4013 34.5744 41.3899 34.532C41.3784 34.4896 41.3756 34.4454 41.3816 34.4019V33.606C41.3816 33.3437 41.3094 33.241 41.0287 33.241H40.7492V34.6494H40.7481ZM40.7481 32.6576H41.0646C41.3294 32.6576 41.4331 32.54 41.4331 32.2925V31.8811C41.4331 31.6395 41.3294 31.5316 41.0592 31.5316H40.7481V32.6576Z" fill="black"/>
<path d="M42.4545 34.0238H42.8897V31.5831H42.4545V30.9673H43.963V31.5831H43.5379V34.0238H43.963V34.6507H42.4545V34.0238Z" fill="black"/>
<path d="M44.2422 30.9673H44.9269L45.3676 33.1656L45.4044 33.7048L45.4412 33.1656L45.8714 30.9673H46.5509L45.7414 34.6494H45.0673L44.2422 30.9673Z" fill="black"/>
<path d="M47.1569 34.1049L47.0533 34.6492H46.3843L47.208 30.9673H47.8769L48.7216 34.6494H48.0528L47.944 34.1051L47.1569 34.1049ZM47.831 33.5241L47.5872 32.2965L47.545 31.7831L47.5031 32.2965L47.2697 33.5241H47.831Z" fill="black"/>
<path d="M50.0085 30.9671C50.2064 30.9631 50.4029 31.0016 50.5843 31.0801C50.9162 31.2243 51.1233 31.5374 51.1233 32.0609V33.5551C51.1346 33.7734 51.0842 33.9906 50.9777 34.1821C50.7914 34.5055 50.4387 34.6497 50.0031 34.6497H49.0497V30.9671H50.0085ZM49.7187 34.0627H49.9784C50.263 34.0627 50.4296 33.8939 50.4296 33.4924V32.1066C50.4296 31.7012 50.2591 31.5363 49.9731 31.5363H49.7187V34.0627Z" fill="black"/>
<path d="M52.1031 34.1049L51.9995 34.6492H51.3305L52.1542 30.9673H52.8232L53.6678 34.6494H52.999L52.8902 34.1051L52.1031 34.1049ZM52.7773 33.5241L52.5334 32.2965L52.4914 31.7831L52.4493 32.2965L52.2159 33.5241H52.7773Z" fill="black"/>
<path d="M38.6285 36.4441C38.8264 36.4401 39.0229 36.4787 39.2043 36.5572C39.5362 36.7014 39.7433 37.0145 39.7433 37.538V39.0321C39.7546 39.2505 39.7042 39.4676 39.5977 39.6591C39.4114 39.9826 39.0587 40.1268 38.6231 40.1268H37.6697V36.4441H38.6285ZM38.3373 39.5416H38.597C38.8817 39.5416 39.0482 39.3727 39.0482 38.9712V37.5848C39.0482 37.1795 38.8777 37.0145 38.5917 37.0145H38.3373V39.5416Z" fill="black"/>
<path d="M40.2247 40.1264V36.4443H41.9615V37.0447H40.8884V37.9592H41.8315V38.5666H40.8884V39.5059H41.9929V40.127L40.2247 40.1264Z" fill="black"/>
<path d="M42.4126 36.4443H43.0972V39.4638H44.0928V40.1264H42.4126V36.4443Z" fill="black"/>
<path d="M45.6273 40.1264V36.4443H46.224L47.0794 38.5192L47.2097 38.935L47.1729 38.4373V36.4443H47.779V40.1264H47.1973L46.3212 38.0359L46.1912 37.5942L46.2331 38.1428V40.1264H45.6273Z" fill="black"/>
<path d="M48.2612 39.0635V37.5174C48.2612 36.7625 48.681 36.3975 49.3341 36.3975C49.9873 36.3975 50.4071 36.7625 50.4071 37.5174V39.0635C50.4071 39.8338 49.9873 40.1834 49.3341 40.1834C48.6652 40.1834 48.2612 39.8391 48.2612 39.0635ZM49.7133 39.0127V37.5499C49.7133 37.1653 49.6045 36.9899 49.3343 36.9899C49.055 36.9899 48.9565 37.1692 48.9565 37.5499V39.0129C48.9565 39.3936 49.0554 39.5676 49.3343 39.5676C49.6044 39.5676 49.7133 39.3922 49.7133 39.0127Z" fill="black"/>
<path d="M51.5376 40.1264H50.8896V36.4443H51.8905C52.5907 36.4443 52.8807 36.712 52.8807 37.3227V37.7643C52.8807 38.1242 52.7456 38.3129 52.4873 38.4109C52.7575 38.4979 52.8453 38.6875 52.8453 39.0527V39.8842C52.8433 39.9292 52.851 39.974 52.8681 40.0157C52.8852 40.0574 52.9111 40.095 52.9442 40.1258H52.2381C52.2108 40.0912 52.1909 40.0515 52.1794 40.0091C52.1679 39.9667 52.1651 39.9224 52.1712 39.879V39.0831C52.1712 38.8207 52.099 38.7181 51.8183 38.7181H51.5388V40.1264H51.5376ZM51.5376 38.1348H51.8541C52.119 38.1348 52.2226 38.0172 52.2226 37.7698V37.3583C52.2226 37.1168 52.119 37.0088 51.8488 37.0088H51.5376V38.1346V38.1348Z" fill="black"/>
<path d="M54.4406 40.1263H53.7716V37.0502H53.1604V36.4429H55.0594V37.0502H54.442V40.1263H54.4406Z" fill="black"/>
<path d="M55.4478 40.1264V36.4443H57.1845V37.0447H56.1114V37.9592H57.0546V38.5666H56.1114V39.5059H57.216V40.127L55.4478 40.1264Z" fill="black"/>
<path d="M37.0844 17.796V7.85742H40.273V17.6038C40.273 18.5859 40.4868 18.8757 41.0507 18.8757C41.654 18.8757 41.8089 18.6055 41.8089 17.6038V7.85742H44.9989V17.796C44.9989 20.7048 43.5207 21.9377 41.0507 21.9377C38.4657 21.9377 37.0844 20.7048 37.0844 17.796Z" fill="black"/>
<path d="M96.1383 0V48" stroke="#191919"/>
<g clip-path="url(#clip0_3530_7926)">
<path d="M276 0H245.49V30.5103H276V0Z" fill="#FF0000"/>
<path d="M267.558 6.50765H267.451C267.395 6.5632 267.395 6.61799 267.451 6.61799C268.778 8.21353 269.501 10.2255 269.492 12.3008C269.488 14.5549 268.613 16.7202 267.05 18.3447C265.488 19.9693 263.358 20.9277 261.106 21.0198C261.788 20.5789 262.402 20.0397 262.927 19.4195C264.046 17.9927 264.552 16.18 264.335 14.3798C264.118 12.5797 263.195 10.9393 261.77 9.81932C260.957 9.19337 260.406 8.28829 260.222 7.27927C260.039 6.27025 260.236 5.22906 260.776 4.35722V4.24843C260.776 4.19287 260.721 4.19287 260.666 4.19287C259.839 4.65693 259.109 5.27505 258.514 6.01383C257.395 7.44064 256.889 9.25331 257.106 11.0535C257.323 12.8536 258.246 14.494 259.672 15.614C260.467 16.2385 261.011 17.1288 261.204 18.1218C261.396 19.1147 261.225 20.1439 260.72 21.0205C258.407 21.0083 256.19 20.0875 254.549 18.4565C252.909 16.8255 251.974 14.615 251.948 12.3015C251.949 10.2279 252.671 8.21908 253.99 6.61876C253.997 6.61157 254.003 6.60299 254.007 6.59352C254.011 6.58404 254.013 6.57387 254.013 6.56359C254.013 6.55331 254.011 6.54314 254.007 6.53366C254.003 6.52419 253.997 6.51561 253.99 6.50842H253.879C252.401 7.66885 251.242 9.18611 250.511 10.9176C249.78 12.6492 249.501 14.5381 249.7 16.407C249.9 18.2758 250.572 20.0633 251.652 21.6013C252.732 23.1393 254.186 24.3775 255.876 25.1993C257.566 26.0212 259.438 26.3999 261.315 26.2998C263.191 26.1997 265.012 25.624 266.605 24.6269C268.198 23.6299 269.512 22.2441 270.423 20.5999C271.333 18.9556 271.811 17.1069 271.81 15.2274C271.823 13.5448 271.446 11.8821 270.709 10.3694C269.972 8.85676 268.895 7.53526 267.562 6.50842" fill="white"/>
<path d="M245.49 0H120.138V48H245.49V0Z" fill="#FF0000"/>
<path d="M143.807 42.5929L139.945 14.3996L139.393 8.77242H139.062L138.565 14.3996L134.814 42.5929H131.282L125.545 5.40674H128.245L132.217 33.7651L132.879 39.3375H133.211L133.873 33.7651L137.517 5.40674H140.989L144.74 33.7651L145.458 39.3375H145.789L146.396 33.7651L150.372 5.40674H153.02L147.283 42.5929H143.807Z" fill="white"/>
<path d="M160.745 42.869C159.922 42.9164 159.098 42.7993 158.322 42.5245C157.545 42.2498 156.831 41.8228 156.221 41.2687C155.228 40.3305 154.566 39.1168 154.566 36.6893V21.9589C154.566 19.6441 155.117 18.4281 156.056 17.4898C156.685 16.911 157.424 16.4659 158.23 16.1814C159.036 15.8969 159.892 15.779 160.745 15.8347H162.127C164.499 15.8347 165.988 16.4968 167.037 17.4898C167.515 17.9672 167.893 18.5351 168.149 19.1603C168.404 19.7855 168.533 20.4555 168.527 21.1309V30.4001H157.158V37.0211C157.158 39.2834 158.538 40.6075 161.13 40.6075H161.848C164.606 40.6075 165.986 39.2834 165.986 37.0211V35.3661H168.524V36.6901C168.524 39.0628 167.917 40.2765 166.924 41.2695C165.985 42.2078 164.551 42.8698 162.123 42.8698L160.745 42.869ZM165.985 21.6278C165.985 19.3655 164.66 18.0415 161.846 18.0415H161.129C158.536 18.0415 157.157 19.3655 157.157 21.6278V28.2489H165.985V21.6278Z" fill="white"/>
<path d="M180.825 5.40674H167.862V10.2068H173.158V42.5929H178.51V10.2068H183.806V5.40674H180.825Z" fill="white"/>
<path d="M194.068 5.40674H188.221L181.655 42.5929H187.172L187.944 36.745H194.288L195.116 42.5929H200.633L194.068 5.40674ZM188.662 31.9997L190.591 18.7028L191.032 13.5169H191.363L191.805 18.7028L193.68 31.9997H188.662Z" fill="white"/>
<path d="M224.855 5.51709H219.559V42.7032H224.855V5.51709Z" fill="white"/>
<path d="M240.083 5.51709H234.014L226.124 23.6132L233.959 42.7032H240.083L231.42 22.7305L240.083 5.51709Z" fill="white"/>
<path d="M208.579 37.8484V5.40674H203.283V42.5929H216.469L216.58 37.8484H208.579Z" fill="white"/>
</g>
<defs>
<clipPath id="clip0_3530_7926">
<rect width="155.862" height="48" fill="white" transform="translate(120.138)"/>
</clipPath>
</defs>
</svg>
