<svg width="33" height="33" viewBox="0 0 33 33" fill="none" xmlns="http://www.w3.org/2000/svg">
<g id="IconUPC/RRSS/WhatsApp-outline">
<path id="Vector" d="M21.4 18.5C21.6 18.6 21.8 18.8 21.9 19C22 19.2 22 19.5 21.9 19.7L21.5 20.9C21.1 21.9 19.7 22.3 18.5 21.6C14.8 19.6 13.3 18.2 11.3 14.5C10.6 13.3 11 11.9 12 11.5L13.1 11C13.3 10.9 13.6 10.9 13.8 11C14 11.1 14.2 11.3 14.3 11.5C14.6 12.1 14.9 12.7 15.3 13.3C15.4 13.5 15.5 13.8 15.4 14C15.4 14.2 15.2 14.5 15 14.6L14.2 15.2C15 16.5 16.2 17.6 17.5 18.4L18.1 17.6C18.2 17.4 18.5 17.3 18.7 17.2C18.9 17.2 19.2 17.2 19.4 17.3C20.2 17.9 20.8 18.2 21.4 18.5ZM16.5 6.9C14 6.9 11.5 7.9 9.8 9.7C8 11.5 7 14 7 16.5C7 18.8 7.8 21 9.3 22.7L9.9 23.5L9.7 24.5L9.4 26.5L12.1 25.6L12.8 25.4L13.5 25.5C14.5 25.8 15.5 26 16.5 26C19 26 21.5 25 23.2 23.2C25 21.4 26 19 26 16.5C26 14 25 11.5 23.2 9.8C21.5 8 19 6.9 16.5 6.9ZM16.5 5.5C17.9 5.5 19.4 5.8 20.7 6.3C22 6.9 23.2 7.7 24.3 8.7C25.3 9.7 26.1 10.9 26.7 12.3C27.3 13.7 27.5 15.1 27.5 16.5C27.5 19.4 26.3 22.2 24.3 24.3C22.2 26.3 19.4 27.5 16.5 27.5C15.3 27.5 14.1 27.3 13 26.9L8.4 28.5C8.3 28.5 8.3 28.5 8.2 28.5C8.1 28.5 8 28.5 7.9 28.4C7.8 28.4 7.7 28.3 7.7 28.2C7.6 28.2 7.5 28.1 7.5 28C7.5 27.9 7.5 27.8 7.5 27.7L8.2 23.7C6.4 21.7 5.5 19.1 5.5 16.5C5.5 13.6 6.7 10.8 8.7 8.7C10.8 6.7 13.6 5.5 16.5 5.5Z" fill="#026849"/>
</g>
</svg>
