<svg width="14" height="9" viewBox="0 0 14 9" fill="none" xmlns="http://www.w3.org/2000/svg">
<path d="M-3.05501e-05 1.5051C9.53413e-05 1.35794 0.0426893 1.21412 0.12237 1.09181C0.20205 0.969492 0.315245 0.874165 0.447656 0.817867C0.580067 0.76157 0.725756 0.746827 0.866323 0.7755C1.00689 0.804174 1.13603 0.874978 1.23743 0.97897L6.52563 6.40806L11.8138 0.978971C11.9513 0.847457 12.1331 0.77586 12.3209 0.779264C12.5088 0.782667 12.688 0.860804 12.8208 0.997215C12.9537 1.13363 13.0298 1.31766 13.0331 1.51054C13.0364 1.70342 12.9667 1.8901 12.8386 2.03124L7.03801 7.98746C6.97076 8.05661 6.89089 8.11147 6.80297 8.14891C6.71505 8.18634 6.62081 8.20561 6.52563 8.20561C6.43045 8.20561 6.33621 8.18634 6.24829 8.14891C6.16037 8.11147 6.0805 8.05661 6.01324 7.98746L0.212658 2.03124C0.145051 1.96236 0.0914363 1.88039 0.0549259 1.79007C0.0184154 1.69975 -0.000265158 1.60289 -3.05501e-05 1.5051Z" fill="#E50A17"/>
</svg>
