<svg width="8" height="8" viewBox="0 0 8 8" fill="none" xmlns="http://www.w3.org/2000/svg">
<path d="M7.73236 3.91253C7.72122 3.88471 7.70526 3.85934 7.6853 3.83775L4.95883 0.949377C4.93863 0.926418 4.91428 0.908003 4.88722 0.89523C4.86016 0.882458 4.83095 0.87559 4.80133 0.875036C4.77171 0.874483 4.74229 0.880255 4.71483 0.892008C4.68736 0.903761 4.66241 0.921255 4.64146 0.943445C4.62051 0.965636 4.604 0.992069 4.59291 1.02117C4.58181 1.05026 4.57636 1.08143 4.57689 1.11281C4.57741 1.14419 4.58389 1.17513 4.59595 1.2038C4.60801 1.23246 4.62539 1.25826 4.64706 1.27966L6.99706 3.7692H0.470588C0.412085 3.7692 0.355977 3.79382 0.314609 3.83765C0.27324 3.88147 0.25 3.94091 0.25 4.00289C0.25 4.06487 0.27324 4.12431 0.314609 4.16813C0.355977 4.21195 0.412085 4.23658 0.470588 4.23658H6.99706L4.64706 6.72612C4.60604 6.7701 4.58303 6.82943 4.58303 6.89126C4.58303 6.95309 4.60604 7.01242 4.64706 7.0564C4.6675 7.07814 4.69179 7.0954 4.71854 7.10717C4.7453 7.11894 4.77398 7.125 4.80294 7.125C4.83191 7.125 4.86059 7.11894 4.88734 7.10717C4.91409 7.0954 4.93839 7.07814 4.95883 7.0564L7.6853 4.16803C7.70526 4.14644 7.72122 4.12107 7.73236 4.09325C7.744 4.06472 7.75 4.03397 7.75 4.00289C7.75 3.97181 7.744 3.94106 7.73236 3.91253Z" fill="#E50A17"/>
</svg>
