<svg width="14" height="9" viewBox="0 0 14 9" fill="none" xmlns="http://www.w3.org/2000/svg">
<path d="M13.0332 7.46169C13.0331 7.60885 12.9905 7.75267 12.9108 7.87499C12.8312 7.9973 12.718 8.09263 12.5855 8.14893C12.4531 8.20523 12.3074 8.21997 12.1669 8.1913C12.0263 8.16262 11.8972 8.09182 11.7958 7.98783L6.50757 2.55873L1.21937 7.98783C1.08192 8.11934 0.900126 8.19094 0.712282 8.18753C0.524439 8.18413 0.345215 8.10599 0.212369 7.96958C0.0795232 7.83317 0.00342722 7.64914 0.000112931 7.45626C-0.00320136 7.26337 0.0665248 7.0767 0.194602 6.93556L5.99519 0.979341C6.06244 0.910185 6.14231 0.855322 6.23023 0.81789C6.31815 0.780458 6.4124 0.76119 6.50757 0.76119C6.60275 0.76119 6.69699 0.780458 6.78492 0.81789C6.87283 0.855322 6.95271 0.910185 7.01996 0.979341L12.8205 6.93556C12.8882 7.00443 12.9418 7.08641 12.9783 7.17672C13.0148 7.26704 13.0335 7.3639 13.0332 7.46169Z" fill="#E50A17"/>
</svg>
