<svg width="37" height="30" viewBox="0 0 37 30" fill="none" xmlns="http://www.w3.org/2000/svg">
<path d="M35.8534 2.1054C33.0262 0.821496 30.019 0.108721 26.9706 0C24.0704 0.0961027 21.206 0.74539 18.5 1.92005C15.794 0.745568 12.9296 0.096287 10.0294 0C6.981 0.108488 3.97372 0.821272 1.14659 2.1054C0.954747 2.19572 0.790997 2.34769 0.675944 2.5422C0.560891 2.7367 0.499676 2.96505 0.500001 3.1985V28.8119C0.500001 29.127 0.611556 29.4292 0.810124 29.652C1.00869 29.8748 1.27801 30 1.55882 30H35.4412C35.722 30 35.9913 29.8748 36.1899 29.652C36.3884 29.4292 36.5 29.127 36.5 28.8119V3.1985C36.5 2.96514 36.4386 2.73698 36.3236 2.54255C36.2086 2.34812 36.045 2.19607 35.8534 2.1054ZM34.3824 4.01595V25.4122C31.9949 24.4891 29.495 23.9841 26.9706 23.9151C24.4461 23.9838 21.9462 24.4888 19.5588 25.4122V4.01595C21.9339 3.02232 24.4371 2.46855 26.9706 2.3763C29.504 2.46892 32.0072 3.02268 34.3824 4.01595ZM33.5875 27.6205H20.3522C22.4867 26.8095 24.7178 26.3635 26.9706 26.2977C29.2233 26.3667 31.454 26.8159 33.5875 27.63M2.61765 4.01595C4.99274 3.02232 7.49597 2.46855 10.0294 2.3763C12.5628 2.46892 15.066 3.02268 17.4412 4.01595V25.4122C15.0534 24.4912 12.5535 23.9884 10.0294 23.9214C7.50495 23.9902 5.00502 24.4951 2.61765 25.4185V4.01595ZM16.6464 27.6205H3.41106C5.54554 26.8095 7.77665 26.3635 10.0294 26.2977C12.2821 26.3667 14.5128 26.8159 16.6464 27.63" fill="#191919"/>
</svg>
