<svg id="Component_60_4" data-name="Component 60 – 4" xmlns="http://www.w3.org/2000/svg" width="25.5" height="25.5" viewBox="0 0 25.5 25.5">
  <path id="Path_75634" data-name="Path 75634" d="M4.5,8.23H6.75v2.25a.75.75,0,0,0,1.5,0V8.23H10.5a.75.75,0,0,0,0-1.5H8.25V4.48a.75.75,0,1,0-1.5,0V6.73H4.5a.75.75,0,1,0,0,1.5Z" transform="translate(-0.75 -0.75)"/>
  <path id="Path_75635" data-name="Path 75635" d="M18.44,7.48,16.47,9.45a.754.754,0,0,0,0,1.06.748.748,0,0,0,1.06,0L19.5,8.54l1.97,1.97a.748.748,0,0,0,1.06,0,.754.754,0,0,0,0-1.06L20.56,7.48l1.97-1.97a.75.75,0,0,0-1.06-1.06L19.5,6.42,17.53,4.45a.75.75,0,0,0-1.06,1.06Z" transform="translate(-0.75 -0.75)"/>
  <path id="Path_75636" data-name="Path 75636" d="M22,17.1H17a.75.75,0,0,0,0,1.5h5a.75.75,0,0,0,0-1.5Z" transform="translate(-0.75 -0.75)"/>
  <path id="Path_75637" data-name="Path 75637" d="M22,20.36H17a.75.75,0,0,0,0,1.5h5a.75.75,0,0,0,0-1.5Z" transform="translate(-0.75 -0.75)"/>
  <path id="Path_75638" data-name="Path 75638" d="M10.5,18.73h-6a.75.75,0,0,0,0,1.5h6a.75.75,0,0,0,0-1.5Z" transform="translate(-0.75 -0.75)"/>
  <path id="Path_75639" data-name="Path 75639" d="M23.5.75H3.5A2.748,2.748,0,0,0,.75,3.5v20A2.748,2.748,0,0,0,3.5,26.25h20a2.748,2.748,0,0,0,2.75-2.75V3.5A2.748,2.748,0,0,0,23.5.75ZM24.75,3.5v9.25H14.25V2.25H23.5A1.25,1.25,0,0,1,24.75,3.5ZM3.5,2.25h9.25v10.5H2.25V3.5A1.25,1.25,0,0,1,3.5,2.25ZM2.25,23.5V14.25h10.5v10.5H3.5A1.25,1.25,0,0,1,2.25,23.5ZM23.5,24.75H14.25V14.25h10.5V23.5A1.25,1.25,0,0,1,23.5,24.75Z" transform="translate(-0.75 -0.75)"/>
</svg>
