<svg width="16" height="16" viewBox="0 0 16 16" fill="none" xmlns="http://www.w3.org/2000/svg">
<path d="M12.1871 3.15765H10.072V2.35294C10.072 2.25934 10.0343 2.16956 9.96717 2.10337C9.90002 2.03718 9.80894 2 9.71397 2C9.61901 2 9.52793 2.03718 9.46078 2.10337C9.39363 2.16956 9.3559 2.25934 9.3559 2.35294V3.15765H6.6441V2.35294C6.6441 2.25934 6.60637 2.16956 6.53922 2.10337C6.47207 2.03718 6.38099 2 6.28602 2C6.19106 2 6.09998 2.03718 6.03283 2.10337C5.96568 2.16956 5.92795 2.25934 5.92795 2.35294V3.15765H3.81293C3.64048 3.15752 3.4697 3.19091 3.31035 3.2559C3.151 3.3209 3.00621 3.41621 2.88427 3.53641C2.76233 3.6566 2.66562 3.79932 2.59969 3.95638C2.53375 4.11345 2.49987 4.28178 2.5 4.45176V8.26353V10.9553V12.7059C2.49987 12.8759 2.53375 13.0442 2.59969 13.2013C2.66562 13.3583 2.76233 13.501 2.88427 13.6212C3.00621 13.7414 3.151 13.8368 3.31035 13.9017C3.4697 13.9667 3.64048 14.0001 3.81293 14H12.1871C12.3595 14.0001 12.5303 13.9667 12.6897 13.9017C12.849 13.8368 12.9938 13.7414 13.1157 13.6212C13.2377 13.501 13.3344 13.3583 13.4003 13.2013C13.4663 13.0442 13.5001 12.8759 13.5 12.7059V4.45176C13.5001 4.28178 13.4663 4.11345 13.4003 3.95638C13.3344 3.79932 13.2377 3.6566 13.1157 3.53641C12.9938 3.41621 12.849 3.3209 12.6897 3.2559C12.5303 3.19091 12.3595 3.15752 12.1871 3.15765ZM6.6441 10.6024V8.61647H9.3559V10.6024H6.6441ZM9.3559 11.3082V13.2941H6.6441V11.3082H9.3559ZM9.3559 5.92471V7.91059H6.6441V5.92471H9.3559ZM12.7839 5.92471V7.91059H10.072V5.92471H12.7839ZM5.92795 7.91059H3.21615V5.92471H5.92795V7.91059ZM3.21615 8.61647H5.92795V10.6024H3.21615V8.61647ZM10.072 8.61647H12.7839V10.6024H10.072V8.61647ZM3.81293 3.86353H12.1871C12.3453 3.86353 12.4971 3.9255 12.6091 4.03582C12.721 4.14614 12.7839 4.29576 12.7839 4.45176V5.21882H3.21615V4.45176C3.21615 4.29576 3.27902 4.14614 3.39094 4.03582C3.50286 3.9255 3.65466 3.86353 3.81293 3.86353ZM3.21615 12.7059V11.3082H5.92795V13.2941H3.81293C3.65466 13.2941 3.50286 13.2321 3.39094 13.1218C3.27902 13.0115 3.21615 12.8619 3.21615 12.7059ZM12.1871 13.2941H10.072V11.3082H12.7839V12.7059C12.7839 12.8619 12.721 13.0115 12.6091 13.1218C12.4971 13.2321 12.3453 13.2941 12.1871 13.2941Z" fill="#E50A17"/>
</svg>
