<svg width="12" height="12" viewBox="0 0 12 12" fill="none" xmlns="http://www.w3.org/2000/svg">
<path d="M9.62861 12H9.62391C8.33915 11.9953 5.78846 11.6001 3.12954 8.98437C3.11633 8.97586 3.1051 8.96464 3.09659 8.95144L3.03541 8.89968C3.02775 8.89306 3.02137 8.88509 3.01659 8.87616C0.400016 6.21337 0.00470607 3.6682 0 2.37914C0.000491219 2.07882 0.0620714 1.78174 0.180997 1.50595C0.299923 1.23016 0.473709 0.981435 0.691792 0.774885C1.07868 0.390497 1.56932 0.127269 2.10361 0.0174483C2.8707 -0.123689 3.58132 0.591406 4.20722 2.16273C4.40456 2.66134 4.41459 3.21452 4.23546 3.71995L3.82603 4.87727C3.82603 4.88198 3.82133 4.88668 3.82133 4.89139C3.81662 4.95255 3.7978 5.51239 5.13903 6.86731C6.48967 8.20811 7.0544 8.18929 7.11087 8.18459C7.11557 8.18459 7.12028 8.17988 7.12499 8.17988L8.27797 7.77059C8.78356 7.59147 9.33693 7.6015 9.83568 7.79881C11.4028 8.42452 12.1275 9.13021 11.9816 9.90176C11.8698 10.4352 11.6068 10.9251 11.224 11.3131C11.0183 11.5295 10.7709 11.7019 10.4967 11.82C10.2225 11.938 9.92717 11.9993 9.62861 12ZM3.57191 8.43393C3.58192 8.43926 3.59011 8.44745 3.59544 8.45745C6.08495 10.9179 8.44269 11.2896 9.62391 11.2943H9.62861C9.83165 11.2942 10.0325 11.2524 10.2187 11.1715C10.4049 11.0905 10.5725 10.9722 10.711 10.8239C11.0023 10.5344 11.2034 10.1667 11.2899 9.76533C11.3557 9.40778 10.6828 8.89028 9.57685 8.44805C9.23806 8.31262 8.86138 8.30592 8.51798 8.42923L7.37911 8.83382C7.12969 8.94673 6.33907 9.05494 4.64018 7.36599C2.9507 5.66294 3.05894 4.87257 3.16718 4.62323L3.57191 3.48472C3.69375 3.14086 3.68538 2.7643 3.54838 2.42619C3.106 1.31591 2.58363 0.638452 2.23068 0.713725C1.82955 0.801217 1.46202 1.00207 1.17181 1.29239C1.02417 1.43249 0.906376 1.60098 0.825505 1.78773C0.744635 1.97448 0.702354 2.17565 0.701204 2.37914C0.70591 3.55999 1.07769 5.91228 3.53896 8.40571C3.55091 8.41392 3.56196 8.42338 3.57191 8.43393Z" fill="#191919"/>
</svg>
