<svg width="13" height="20" viewBox="0 0 13 20" fill="none" xmlns="http://www.w3.org/2000/svg">
<path fill-rule="evenodd" clip-rule="evenodd" d="M7.53155 1.12663C7.52654 1.20924 7.51264 1.29091 7.49012 1.36999C9.02176 1.63216 10.4175 2.47915 11.4272 3.75916C12.4368 5.03916 12.9944 6.66849 13 8.35511V15.7458C12.9989 15.9247 12.9331 16.096 12.8168 16.2225C12.7005 16.349 12.5431 16.4206 12.3786 16.4218H0.621415C0.456941 16.4206 0.299511 16.349 0.183208 16.2225C0.0669045 16.096 0.00108558 15.9247 0 15.7458V8.35511C0.00223392 6.66891 0.55758 5.03892 1.56612 3.75842C2.57466 2.47793 3.97018 1.63099 5.50159 1.36999C5.47982 1.29072 5.46593 1.20913 5.46017 1.12663C5.46017 0.827832 5.56928 0.541268 5.76351 0.329983C5.95774 0.118699 6.22117 0 6.49586 0C6.77054 0 7.03397 0.118699 7.2282 0.329983C7.42243 0.541268 7.53155 0.827832 7.53155 1.12663ZM6.34939 0.976316C6.31054 1.01857 6.28872 1.07589 6.28872 1.13565C6.28962 1.17025 6.30051 1.20367 6.31984 1.23117C6.33917 1.25867 6.36597 1.27886 6.39643 1.28887C6.413 1.28887 6.42957 1.28662 6.44614 1.28436C6.46272 1.28211 6.47929 1.27986 6.49586 1.27986C6.51243 1.27986 6.529 1.28211 6.54557 1.28436C6.56214 1.28662 6.57871 1.28887 6.59528 1.28887C6.62575 1.27886 6.65254 1.25867 6.67188 1.23117C6.69121 1.20367 6.70209 1.17025 6.70299 1.13565C6.70299 1.07589 6.68117 1.01857 6.64233 0.976316C6.60348 0.934059 6.55079 0.91032 6.49586 0.91032C6.44092 0.91032 6.38823 0.934059 6.34939 0.976316ZM1.24283 8.35511V15.0698H11.7489V8.35511C11.7489 6.83959 11.1954 5.38614 10.2103 4.3145C9.22517 3.24287 7.88905 2.64083 6.49586 2.64083C5.10267 2.64083 3.76654 3.24287 2.78141 4.3145C1.79627 5.38614 1.24283 6.83959 1.24283 8.35511ZM5.92045 17.9366C6.09077 17.8128 6.29101 17.7467 6.49585 17.7467C6.77054 17.7467 7.03397 17.8654 7.2282 18.0767C7.42243 18.288 7.53155 18.5746 7.53155 18.8734C7.53155 19.0962 7.4708 19.314 7.357 19.4993C7.2432 19.6846 7.08144 19.829 6.8922 19.9142C6.70295 19.9995 6.4947 20.0218 6.2938 19.9784C6.0929 19.9349 5.90835 19.8276 5.76351 19.67C5.61867 19.5125 5.52003 19.3117 5.48006 19.0932C5.4401 18.8746 5.46061 18.6481 5.539 18.4422C5.61739 18.2364 5.75014 18.0604 5.92045 17.9366ZM6.34938 18.714C6.31054 18.7563 6.28872 18.8136 6.28872 18.8734C6.28872 19.1257 6.70299 19.1257 6.70299 18.8734C6.70299 18.8136 6.68117 18.7563 6.64232 18.714C6.60348 18.6718 6.55079 18.648 6.49585 18.648C6.44092 18.648 6.38823 18.6718 6.34938 18.714Z" fill="#191919"/>
</svg>
