<svg width="24" height="24" viewBox="0 0 24 24" fill="none" xmlns="http://www.w3.org/2000/svg">
<path fill-rule="evenodd" clip-rule="evenodd" d="M23.8125 24H15.5625V24H15.375H8.43751V24H1.28625e-05V16.6875C-0.000854981 16.4656 0.042201 16.2458 0.126698 16.0407C0.211196 15.8356 0.335463 15.6492 0.492335 15.4923C0.649207 15.3354 0.83558 15.2112 1.04071 15.1267C1.24584 15.0422 1.46566 14.9991 1.68751 15H3.75001V4.125L12 0L20.25 4.125V15.0937H22.3125C22.5344 15.0929 22.7542 15.1359 22.9593 15.2204C23.1644 15.3049 23.3508 15.4292 23.5077 15.5861C23.6646 15.7429 23.7888 15.9293 23.8733 16.1344C23.9578 16.3396 24.0009 16.5594 24 16.7812V24H23.8125ZM22.4063 22.5937H15.5625V18.5625C15.5634 18.3407 15.5203 18.1208 15.4358 17.9157C15.3513 17.7106 15.2271 17.5242 15.0702 17.3673C14.9133 17.2105 14.7269 17.0862 14.5218 17.0017C14.3167 16.9172 14.0969 16.8741 13.875 16.875H10.125C9.90316 16.8741 9.68334 16.9172 9.47821 17.0017C9.27308 17.0862 9.08671 17.2105 8.92983 17.3673C8.77296 17.5242 8.64869 17.7106 8.5642 17.9157C8.4797 18.1208 8.43665 18.3407 8.43751 18.5625V22.5937H1.40626V16.6875C1.40955 16.6388 1.43036 16.593 1.46484 16.5586C1.49931 16.5241 1.54512 16.5033 1.59376 16.5H5.06251V4.96875L11.9063 1.59375L18.6563 4.96875V16.5937H22.2188C22.2674 16.597 22.3132 16.6178 22.3477 16.6523C22.3822 16.6868 22.403 16.7326 22.4063 16.7812V22.5937ZM13.9688 18.6563V22.5937H9.84376V18.6563C9.84705 18.6076 9.86786 18.5618 9.90234 18.5273C9.93681 18.4929 9.98262 18.4721 10.0313 18.4688H13.7813C13.8299 18.4721 13.8757 18.4929 13.9102 18.5273C13.9447 18.5618 13.9655 18.6076 13.9688 18.6563ZM10.9688 10.4063H12.8438C13.2869 10.3924 13.7081 10.2102 14.0217 9.89665C14.3352 9.58314 14.5174 9.16192 14.5313 8.71876V7.78126C14.5321 7.55941 14.4891 7.33959 14.4046 7.13446C14.3201 6.92933 14.1958 6.74296 14.0389 6.58609C13.8821 6.42921 13.6957 6.30495 13.4906 6.22045C13.2854 6.13595 13.0656 6.0929 12.8438 6.09376H10.9688C10.7469 6.0929 10.5271 6.13595 10.322 6.22045C10.1168 6.30495 9.93046 6.42921 9.77358 6.58609C9.61671 6.74296 9.49245 6.92933 9.40795 7.13446C9.32345 7.33959 9.2804 7.55941 9.28126 7.78126V8.71876C9.2804 8.94061 9.32345 9.16044 9.40795 9.36557C9.49245 9.57069 9.61671 9.75707 9.77358 9.91394C9.93046 10.0708 10.1168 10.1951 10.322 10.2796C10.5271 10.3641 10.7469 10.4071 10.9688 10.4063ZM10.8398 7.65234C10.8743 7.61786 10.9201 7.59705 10.9688 7.59376H12.8438C12.8924 7.59705 12.9382 7.61786 12.9727 7.65234C13.0072 7.68682 13.028 7.73262 13.0313 7.78126V8.71876C13.028 8.76741 13.0072 8.81321 12.9727 8.84768C12.9382 8.88216 12.8924 8.90297 12.8438 8.90626H10.9688C10.9201 8.90297 10.8743 8.88216 10.8398 8.84768C10.8054 8.81321 10.7846 8.76741 10.7813 8.71876V7.78126C10.7846 7.73262 10.8054 7.68682 10.8398 7.65234Z" fill="#35158C"/>
</svg>
