<svg width="32" height="32" viewBox="0 0 32 32" fill="none" xmlns="http://www.w3.org/2000/svg">
<g id="IconUPC/Interface/Cell_phone">
<path id="Union" fill-rule="evenodd" clip-rule="evenodd" d="M10.8205 28H21.1795C21.55 28.0002 21.9168 27.9335 22.2592 27.8035C22.6015 27.6735 22.9125 27.4829 23.1745 27.2425C23.4365 27.0021 23.6442 26.7167 23.7859 26.4025C23.9275 26.0884 24.0003 25.7517 24 25.4118V6.58824C24.0003 6.24827 23.9275 5.9116 23.7859 5.59747C23.6442 5.28334 23.4365 4.99791 23.1745 4.75753C22.9125 4.51714 22.6015 4.3265 22.2592 4.19651C21.9168 4.06653 21.55 3.99975 21.1795 4H10.8205C10.45 3.99975 10.0832 4.06653 9.74083 4.19651C9.39851 4.3265 9.08747 4.51714 8.82551 4.75753C8.56355 4.99791 8.3558 5.28334 8.21415 5.59747C8.0725 5.9116 7.99973 6.24827 8 6.58824V25.4118C7.99973 25.7517 8.0725 26.0884 8.21415 26.4025C8.3558 26.7167 8.56355 27.0021 8.82551 27.2425C9.08747 27.4829 9.39851 27.6735 9.74083 27.8035C10.0832 27.9335 10.45 28.0002 10.8205 28ZM9.91397 5.75635C10.1544 5.53571 10.4805 5.41177 10.8205 5.41177H21.1795C21.5195 5.41177 21.8456 5.53571 22.086 5.75635C22.3265 5.97698 22.4615 6.27622 22.4615 6.58824V25.4118C22.4615 25.5663 22.4284 25.7192 22.3639 25.862C22.2995 26.0047 22.2051 26.1344 22.086 26.2437C21.967 26.3529 21.8257 26.4396 21.6701 26.4987C21.5146 26.5578 21.3478 26.5882 21.1795 26.5882H10.8205C10.4805 26.5882 10.1544 26.4643 9.91397 26.2437C9.67354 26.023 9.53846 25.7238 9.53846 25.4118V6.58824C9.53846 6.27622 9.67354 5.97698 9.91397 5.75635ZM15.2991 24.8873C15.5066 25.0145 15.7505 25.0824 16 25.0824C16.1657 25.0825 16.3298 25.0526 16.4829 24.9945C16.636 24.9364 16.7752 24.8511 16.8923 24.7436C17.0095 24.636 17.1024 24.5084 17.1658 24.3679C17.2291 24.2274 17.2617 24.0768 17.2615 23.9247C17.2615 23.6957 17.1876 23.4719 17.0489 23.2816C16.9103 23.0912 16.7133 22.9428 16.4828 22.8552C16.2523 22.7676 15.9986 22.7446 15.7539 22.7893C15.5092 22.834 15.2844 22.9442 15.108 23.1061C14.9315 23.268 14.8114 23.4743 14.7627 23.6989C14.714 23.9234 14.739 24.1562 14.8345 24.3677C14.93 24.5793 15.0917 24.76 15.2991 24.8873ZM15.8939 23.6897C15.9275 23.677 15.9636 23.6705 16 23.6706C16.0364 23.6705 16.0725 23.677 16.1061 23.6897C16.1398 23.7024 16.1704 23.7211 16.1961 23.7447C16.2219 23.7684 16.2423 23.7964 16.2561 23.8273C16.27 23.8582 16.2771 23.8913 16.2769 23.9247C16.2769 24.2071 15.7231 24.2071 15.7231 23.9247C15.7229 23.8913 15.73 23.8582 15.7439 23.8273C15.7578 23.7964 15.7781 23.7684 15.8039 23.7447C15.8296 23.7211 15.8602 23.7024 15.8939 23.6897Z" fill="#FF5FFF"/>
</g>
</svg>
