<svg width="20" height="20" viewBox="0 0 20 20" fill="none" xmlns="http://www.w3.org/2000/svg">
<g clip-path="url(#clip0_1_6)">
<path d="M10 20C8.02219 20 6.08879 19.4135 4.4443 18.3147C2.79981 17.2159 1.51809 15.6541 0.761209 13.8268C0.00433296 11.9996 -0.193701 9.98891 0.192152 8.0491C0.578004 6.10929 1.53041 4.32746 2.92894 2.92894C4.32746 1.53041 6.10929 0.578004 8.0491 0.192152C9.98891 -0.193701 11.9996 0.00433296 13.8268 0.761209C15.6541 1.51809 17.2159 2.79981 18.3147 4.4443C19.4135 6.08879 20 8.02219 20 10C19.9968 12.6512 18.9422 15.1929 17.0676 17.0676C15.1929 18.9422 12.6512 19.9968 10 20ZM10 1.176C8.25478 1.176 6.54875 1.69352 5.09765 2.66312C3.64655 3.63271 2.51556 5.01083 1.84769 6.62321C1.17982 8.23558 1.00508 10.0098 1.34556 11.7215C1.68603 13.4332 2.52644 15.0055 3.76049 16.2395C4.99455 17.4736 6.56684 18.314 8.27853 18.6545C9.99022 18.9949 11.7644 18.8202 13.3768 18.1523C14.9892 17.4844 16.3673 16.3535 17.3369 14.9024C18.3065 13.4513 18.824 11.7452 18.824 10C18.8206 7.66079 17.8898 5.41837 16.2357 3.76429C14.5816 2.11022 12.3392 1.17944 10 1.176Z" fill="#35158C"/>
<path d="M7.48222 13.0356C7.39784 13.0355 7.31441 13.0177 7.23739 12.9833C7.16036 12.9488 7.09147 12.8985 7.03522 12.8356L5.14422 10.6566C5.04235 10.5386 4.991 10.3853 5.0013 10.2298C5.01159 10.0743 5.08269 9.92908 5.19922 9.82558C5.25779 9.77487 5.32582 9.73625 5.39938 9.71195C5.47295 9.68766 5.55059 9.67817 5.62784 9.68402C5.70509 9.68988 5.78042 9.71097 5.84948 9.74608C5.91854 9.78119 5.97997 9.82962 6.03022 9.88858L7.54422 11.6296L14.1722 6.13558C14.2929 6.03572 14.4483 5.98789 14.6042 6.00262C14.7602 6.01734 14.9039 6.0934 15.0038 6.21408C15.1036 6.33475 15.1515 6.49015 15.1367 6.64609C15.122 6.80202 15.0459 6.94573 14.9253 7.04558L7.85022 12.9046C7.74382 12.9848 7.61539 13.0305 7.48222 13.0356Z" fill="#35158C"/>
</g>
<defs>
<clipPath id="clip0_1_6">
<rect width="20" height="20" fill="white"/>
</clipPath>
</defs>
</svg>
