<svg width="20" height="21" viewBox="0 0 20 21" fill="none" xmlns="http://www.w3.org/2000/svg">
<g id="Group">
<path id="Vector" d="M5.83329 6.33268V2.99935C5.83329 2.77834 5.92109 2.56637 6.07737 2.41009C6.23365 2.25381 6.44561 2.16602 6.66663 2.16602H17.5C17.721 2.16602 17.9329 2.25381 18.0892 2.41009C18.2455 2.56637 18.3333 2.77834 18.3333 2.99935V13.8327C18.3333 14.0537 18.2455 14.2657 18.0892 14.4219C17.9329 14.5782 17.721 14.666 17.5 14.666H14.1666V17.9935C14.1666 18.4569 13.7925 18.8327 13.3275 18.8327H2.50579C2.39556 18.8328 2.28639 18.8112 2.18453 18.769C2.08267 18.7269 1.99011 18.6651 1.91217 18.5871C1.83422 18.5092 1.77241 18.4166 1.73028 18.3148C1.68815 18.2129 1.66652 18.1037 1.66663 17.9935L1.66913 7.17185C1.66913 6.70852 2.04329 6.33268 2.50829 6.33268H5.83329ZM7.49996 6.33268H13.3275C13.7908 6.33268 14.1666 6.70685 14.1666 7.17185V12.9993H16.6666V3.83268H7.49996V6.33268Z" fill="#1938A6"/>
</g>
</svg>
