<svg xmlns="http://www.w3.org/2000/svg" width="32" height="31.992" viewBox="0 0 32 31.992">
    <path class="a" d="M1654.935-122.178a16.039,16.039,0,0,0-2.76-2.76v0a.133.133,0,0,0-.183.044.134.134,0,0,0,0,.141,12.631,12.631,0,0,1-1.542,17.8,12.63,12.63,0,0,1-7.556,2.948,9.892,9.892,0,0,0,3.266-13.6,9.9,9.9,0,0,0-2.324-2.612,6.063,6.063,0,0,1-1.457-7.9.131.131,0,0,0,0-.133.133.133,0,0,0-.176-.05,9.894,9.894,0,0,0-3.977,13.415,9.892,9.892,0,0,0,2.583,3.061,6.065,6.065,0,0,1,1.495,7.839,12.631,12.631,0,0,1-12.616-12.647,12.625,12.625,0,0,1,2.965-8.116.133.133,0,0,0-.041-.183.131.131,0,0,0-.138,0,16,16,0,0,0-2.761,22.457,16,16,0,0,0,22.457,2.76A16,16,0,0,0,1654.935-122.178Z" transform="translate(-1626.326 128.321)" color="currentColor"/>
</svg>