<svg style="margin-bottom: 0;" width="24" height="24" viewBox="0 0 24 24" fill="none" xmlns="http://www.w3.org/2000/svg">
<path d="M11.8988 11.5427C11.8266 11.541 11.7546 11.5541 11.6872 11.5812C11.6198 11.6083 11.5586 11.6489 11.5072 11.7003L6.49372 16.7138L6.41776 13.3314C6.41809 13.2585 6.40378 13.1864 6.37568 13.1195C6.34758 13.0525 6.30627 12.9921 6.25418 12.9417C6.15375 12.85 6.02246 12.7993 5.88571 12.7994C5.80581 12.7905 5.72472 12.802 5.65 12.8329C5.58146 12.8591 5.51912 12.8996 5.46712 12.9516C5.41512 13.0036 5.37467 13.0659 5.34844 13.1345C5.32825 13.2042 5.32414 13.2774 5.33644 13.3486L5.44217 18.0101C5.44233 18.0789 5.45841 18.1466 5.48915 18.2078C5.50486 18.2853 5.5373 18.3581 5.58421 18.4214C5.63536 18.473 5.6972 18.5128 5.76549 18.538C5.83852 18.5659 5.91768 18.5747 5.9955 18.5634L10.6515 18.6745C10.7243 18.6778 10.7972 18.6664 10.8659 18.6411C10.9381 18.6159 11.0041 18.5753 11.0593 18.5222C11.1078 18.4747 11.1464 18.4181 11.1727 18.3556C11.2073 18.28 11.2208 18.1966 11.2116 18.1145C11.2095 18.039 11.1936 17.9647 11.1647 17.8953C11.1218 17.836 11.0697 17.7839 11.0104 17.741C10.9593 17.6894 10.8974 17.6496 10.8292 17.6243L10.8296 17.5494L10.6742 17.5878L10.4709 17.5676L7.32385 17.5224L12.3588 12.4874C12.4404 12.3758 12.4758 12.2374 12.4575 12.1014C12.449 11.9626 12.3903 11.8322 12.2925 11.7343C12.1947 11.6365 12.0643 11.5779 11.9255 11.5693L11.8988 11.5427Z" fill="#E50A17"/>
<path d="M12.1012 12.4573C12.1734 12.459 12.2454 12.4459 12.3128 12.4188C12.3802 12.3917 12.4414 12.3511 12.4928 12.2997L17.5063 7.28624L17.5822 10.6686C17.5819 10.7415 17.5962 10.8136 17.6243 10.8805C17.6524 10.9475 17.6937 11.0079 17.7458 11.0583C17.8463 11.15 17.9775 11.2007 18.1143 11.2006C18.1942 11.2095 18.2753 11.198 18.35 11.1671C18.4185 11.1409 18.4809 11.1004 18.5329 11.0484C18.5849 10.9964 18.6253 10.9341 18.6516 10.8655C18.6718 10.7958 18.6759 10.7226 18.6636 10.6514L18.5578 5.98993C18.5577 5.92109 18.5416 5.85341 18.5109 5.79217C18.4951 5.71475 18.4627 5.64188 18.4158 5.57864C18.3646 5.52704 18.3028 5.48725 18.2345 5.46198C18.1615 5.43408 18.0823 5.42535 18.0045 5.4366L13.3485 5.32549C13.2757 5.32221 13.2028 5.33357 13.1341 5.3589C13.0619 5.38406 12.9959 5.42465 12.9407 5.47782C12.8922 5.52526 12.8536 5.58194 12.8273 5.64443C12.7927 5.72002 12.7792 5.80339 12.7884 5.88553C12.7905 5.96099 12.8064 6.03527 12.8353 6.1047C12.8782 6.16399 12.9303 6.21605 12.9896 6.259C13.0407 6.3106 13.1026 6.3504 13.1708 6.37566L13.1704 6.4506L13.3258 6.4122L13.5291 6.43238L16.6761 6.47765L11.6412 11.5126C11.5596 11.6242 11.5242 11.7626 11.5425 11.8986C11.551 12.0374 11.6097 12.1678 11.7075 12.2657C11.8053 12.3635 11.9357 12.4221 12.0745 12.4307L12.1012 12.4573Z" fill="#E50A17"/>
</svg>
