<svg width="44" height="32" viewBox="0 0 44 32" fill="none" xmlns="http://www.w3.org/2000/svg">
<path d="M8.04642 32H36.0689C36.8313 31.9984 37.5728 31.7496 38.1834 31.2906C38.7941 30.8315 39.2412 30.1868 39.4585 29.4519L44.0001 13.8159H8.62234L4.65674 27.4664C4.50393 27.9949 4.47563 28.552 4.57409 29.0934C4.67255 29.6348 4.89506 30.1457 5.22399 30.5857C5.55292 31.0256 5.97923 31.3825 6.46913 31.628C6.95903 31.8734 7.49906 32.0008 8.04642 32Z" fill="#E50A17"/>
<path d="M41.7128 9.76215C41.5988 9.60697 41.45 9.4811 41.2784 9.39482C41.1068 9.30855 40.9173 9.26433 40.7255 9.26577H37.8459V8.33919C37.8416 7.07232 37.3392 5.85859 36.4483 4.96277C35.5574 4.06695 34.3504 3.56176 33.0905 3.55739H19.3672L15.27 0H4.75542C3.49434 0.000438554 2.28503 0.504375 1.39331 1.40104C0.501593 2.29771 0.000436134 3.51372 0 4.7818V24.1406C0.00443974 24.2645 0.0266071 24.3871 0.065819 24.5047C-0.0336772 25.1803 0.0134142 25.8696 0.20386 26.5253C0.394306 27.1809 0.723596 27.7873 1.16912 28.3029C1.61465 28.8185 2.16585 29.231 2.7849 29.5122C3.40395 29.7934 4.07617 29.9365 4.75542 29.9317H32.7943C33.8229 29.9269 34.8228 29.5898 35.6464 28.9702C36.4701 28.3505 37.0738 27.4811 37.3687 26.4902L41.9102 10.8542C41.9609 10.6689 41.9695 10.4746 41.9353 10.2855C41.9011 10.0965 41.8251 9.91762 41.7128 9.76215ZM4.75542 2.4819H14.365L18.4622 6.02275H33.0905C33.6967 6.02406 34.2777 6.26679 34.7064 6.69782C35.135 7.12885 35.3764 7.71308 35.3777 8.32265V9.24922H5.33134C5.06431 9.24922 4.80449 9.33631 4.59088 9.49741C4.37726 9.65852 4.22136 9.88494 4.1466 10.1427L2.45176 15.9669V4.7818C2.4561 4.17031 2.70072 3.58536 3.13228 3.15451C3.56383 2.72367 4.14729 2.48189 4.75542 2.4819ZM34.9828 25.7952C34.8412 26.2729 34.5502 26.6918 34.1529 26.9899C33.7557 27.288 33.2735 27.4493 32.7779 27.4498H4.75542C4.39814 27.4504 4.04566 27.3671 3.72605 27.2065C3.40644 27.0459 3.12851 26.8125 2.9144 26.5249C2.70029 26.2373 2.55589 25.9034 2.49271 25.5498C2.42954 25.1962 2.44932 24.8327 2.55049 24.4881L6.2528 11.7311H39.0636L34.9828 25.7952Z" fill="#191919"/>
</svg>
