<svg width="24" height="16" viewBox="0 0 24 16" fill="none" xmlns="http://www.w3.org/2000/svg">
<path d="M23.9906 2.57395V2.54567C23.9769 1.86831 23.6996 1.2231 23.2179 0.747572C22.7361 0.272042 22.0881 0.00379359 21.4118 0H2.57882C1.9015 0.000415311 1.25149 0.267568 0.769036 0.743815C0.286586 1.22006 0.0103754 1.86723 6.85552e-07 2.54567V13.4072C-0.000246829 13.7478 0.0665309 14.085 0.196514 14.3997C0.326498 14.7144 0.517136 15.0003 0.757525 15.2411C0.997914 15.482 1.28334 15.6729 1.59747 15.8031C1.9116 15.9334 2.24827 16.0002 2.58824 16H21.4118C21.7517 16.0002 22.0884 15.9334 22.4025 15.8031C22.7167 15.6729 23.0021 15.482 23.2425 15.2411C23.4829 15.0003 23.6735 14.7144 23.8035 14.3997C23.9335 14.085 24.0002 13.7478 24 13.4072V2.60224C23.9964 2.59851 23.9938 2.59405 23.9921 2.58915C23.9905 2.58426 23.99 2.57907 23.9906 2.57395ZM2.57882 1.42369H21.4024C21.642 1.42279 21.876 1.49678 22.0716 1.63536C22.2673 1.77393 22.415 1.9702 22.4941 2.19682L11.9906 7.22216L1.48706 2.19682C1.56616 1.9702 1.71384 1.77393 1.90953 1.63536C2.10522 1.49678 2.33918 1.42279 2.57882 1.42369ZM21.4024 14.5857H2.57882C2.2668 14.5857 1.96756 14.4616 1.74693 14.2406C1.5263 14.0195 1.40235 13.7198 1.40235 13.4072V3.72422L11.6894 8.64585C11.7839 8.68936 11.8866 8.71188 11.9906 8.71188C12.0946 8.71188 12.1973 8.68936 12.2918 8.64585L22.5788 3.72422V13.4166C22.5768 13.7277 22.4519 14.0253 22.2315 14.2444C22.011 14.4635 21.7129 14.5862 21.4024 14.5857Z" fill="#35158C"/>
</svg>
