<svg width="32" height="32" viewBox="0 0 32 32" fill="none" xmlns="http://www.w3.org/2000/svg">
<g id="IconUPC/RRSS/Facebook-solid">
<path id="Vector" d="M22.0009 4.99951H10.0145C9.3576 4.99951 8.70717 5.12896 8.10035 5.38045C7.49353 5.63194 6.94221 6.00055 6.47791 6.4652C6.01361 6.92986 5.64543 7.48146 5.39441 8.08847C5.14339 8.69549 5.01445 9.34602 5.01496 10.0029V21.9894C5.01496 23.3153 5.54169 24.587 6.47928 25.5245C7.41687 26.4621 8.68852 26.9889 10.0145 26.9889H22.0009C23.3232 26.9868 24.5907 26.4607 25.5257 25.5257C26.4606 24.5907 26.9868 23.3232 26.9889 22.001V10.0145C26.9909 9.35762 26.8635 8.70679 26.6138 8.09919C26.3642 7.49159 25.9973 6.93914 25.5341 6.47341C25.0709 6.00767 24.5204 5.63778 23.9142 5.38489C23.3079 5.13199 22.6578 5.00103 22.0009 4.99951ZM19.1512 11.4413C19.1577 11.5105 19.1365 11.5794 19.0924 11.633C19.0482 11.6866 18.9845 11.7205 18.9154 11.7274H17.8985C17.1948 11.7274 17.0672 12.0561 17.0672 12.7056V14.0512H18.8419C18.8749 14.0515 18.9073 14.0593 18.9368 14.0741C18.9663 14.0888 18.992 14.1101 19.0121 14.1363C19.0577 14.1933 19.0823 14.2643 19.0817 14.3374V16.638C19.087 16.7076 19.065 16.7765 19.0202 16.83C18.9753 16.8834 18.9114 16.9172 18.8419 16.9241H17.0672V22.724C17.0725 22.7936 17.0505 22.8625 17.0057 22.916C16.9608 22.9695 16.8969 23.0033 16.8274 23.0101H14.8477C14.7783 23.0033 14.7143 22.9695 14.6695 22.916C14.6247 22.8625 14.6026 22.7936 14.608 22.724V16.9241H13.0884C13.0197 16.9163 12.9567 16.8821 12.9127 16.8287C12.8687 16.7753 12.8471 16.707 12.8526 16.638V14.3374C12.8471 14.2684 12.8687 14.2 12.9127 14.1466C12.9567 14.0932 13.0197 14.059 13.0884 14.0512H14.6157V12.4621C14.6157 10.3702 15.7138 9.01692 17.4113 9.01692H18.9231C18.9923 9.02377 19.0559 9.0577 19.1001 9.11132C19.1443 9.16493 19.1655 9.23386 19.159 9.30304L19.1512 11.4413Z" fill="white"/>
</g>
</svg>
