<svg width="20" height="20" viewBox="0 0 20 20" fill="none" xmlns="http://www.w3.org/2000/svg">
<path fill-rule="evenodd" clip-rule="evenodd" d="M17.4755 6.10447C17.489 6.14234 17.4969 6.18194 17.4991 6.22207C17.4991 6.22458 17.4993 6.22683 17.4996 6.22892C17.5005 6.23661 17.5012 6.24222 17.4873 6.25147V11.5612C17.4875 11.7218 17.4559 11.8809 17.3944 12.0294C17.333 12.1778 17.2428 12.3127 17.1292 12.4263C17.0155 12.5399 16.8805 12.63 16.7319 12.6914C16.5834 12.7528 16.4241 12.7844 16.2634 12.7842H8.41961C8.25883 12.7844 8.09961 12.7528 7.95104 12.6914C7.80248 12.63 7.66749 12.5399 7.55381 12.4263C7.44013 12.3127 7.34998 12.1778 7.28852 12.0294C7.22707 11.8809 7.19552 11.7218 7.19567 11.5612V3.72305C7.19552 3.56239 7.22707 3.40328 7.28852 3.25483C7.34998 3.10637 7.44013 2.97148 7.55381 2.85788C7.66749 2.74428 7.80248 2.65419 7.95104 2.59278C8.09961 2.53138 8.25883 2.49985 8.41961 2.5H13.7449C13.7508 2.5 13.7552 2.50147 13.7596 2.50294C13.764 2.50441 13.7684 2.50588 13.7743 2.50588C13.8145 2.50745 13.8543 2.51539 13.892 2.5294C13.9064 2.53056 13.9204 2.53455 13.9332 2.54116C13.9807 2.56362 14.0244 2.59339 14.0626 2.62936L17.3696 5.93395C17.4062 5.97171 17.4361 6.01546 17.4579 6.06331C17.4654 6.07085 17.4681 6.08081 17.4707 6.09008C17.4721 6.09527 17.4734 6.10025 17.4755 6.10447ZM14.9512 5.81047H15.9986L14.198 4.01117V5.05782C14.1983 5.25734 14.2777 5.4486 14.4189 5.58968C14.5601 5.73076 14.7515 5.81016 14.9512 5.81047ZM16.5223 11.8141C16.5864 11.7501 16.6223 11.6634 16.6223 11.5729V6.69248H14.9512C14.5177 6.69139 14.1022 6.51882 13.7957 6.2125C13.4891 5.90617 13.3164 5.49102 13.3153 5.05782V3.38789H8.43138C8.34086 3.38789 8.25405 3.42382 8.19005 3.48778C8.12604 3.55173 8.09009 3.63848 8.09009 3.72893V11.5729C8.09009 11.6634 8.12604 11.7501 8.19005 11.8141C8.25405 11.878 8.34086 11.914 8.43138 11.914H16.281C16.3715 11.914 16.4583 11.878 16.5223 11.8141ZM4.11818 17.5H11.1793C11.3919 17.5002 11.6024 17.4585 11.7988 17.3772C11.9952 17.296 12.1736 17.1769 12.3239 17.0267C12.4742 16.8766 12.5934 16.6982 12.6746 16.502C12.7559 16.3057 12.7977 16.0954 12.7975 15.883V14.119C12.7975 14.002 12.751 13.8899 12.6682 13.8072C12.5855 13.7244 12.4732 13.678 12.3562 13.678C12.2391 13.678 12.1269 13.7244 12.0441 13.8072C11.9614 13.8899 11.9149 14.002 11.9149 14.119V15.883C11.9149 16.0779 11.8374 16.2649 11.6994 16.4027C11.5615 16.5406 11.3744 16.618 11.1793 16.618H4.11818C3.9231 16.618 3.73602 16.5406 3.59808 16.4027C3.46014 16.2649 3.38264 16.0779 3.38264 15.883V8.82694C3.38264 8.63201 3.46014 8.44506 3.59808 8.30722C3.73602 8.16938 3.9231 8.09194 4.11818 8.09194H5.88347C6.00051 8.09194 6.11277 8.04548 6.19553 7.96277C6.27829 7.88007 6.32479 7.7679 6.32479 7.65094C6.32479 7.53397 6.27829 7.4218 6.19553 7.3391C6.11277 7.25639 6.00051 7.20993 5.88347 7.20993H4.11818C3.90563 7.20978 3.69514 7.2515 3.49875 7.3327C3.30235 7.41391 3.1239 7.53301 2.97361 7.6832C2.82332 7.83338 2.70413 8.0117 2.62286 8.20796C2.5416 8.40421 2.49985 8.61455 2.5 8.82694V15.883C2.49985 16.0954 2.5416 16.3057 2.62286 16.502C2.70413 16.6982 2.82332 16.8766 2.97361 17.0267C3.1239 17.1769 3.30235 17.296 3.49875 17.3772C3.69514 17.4585 3.90563 17.5002 4.11818 17.5Z" fill="#FFFF78"/>
</svg>
