<svg width="24" height="24" viewBox="0 0 24 24" fill="none" xmlns="http://www.w3.org/2000/svg">
<path fill-rule="evenodd" clip-rule="evenodd" d="M15.1833 4.20722C16.1893 4.98965 16.9059 6.08508 17.2197 7.32034C17.4527 7.39344 17.6564 7.53894 17.8011 7.73569C17.9458 7.93244 18.024 8.17019 18.0244 8.41443V9.085C18.0244 9.38828 17.9039 9.67913 17.6895 9.89358C17.475 10.108 17.1842 10.2285 16.8809 10.2285C16.5776 10.2285 16.2868 10.108 16.0723 9.89358C15.8579 9.67913 15.7374 9.38828 15.7374 9.085V8.41443C15.7382 8.23997 15.7786 8.06797 15.8556 7.91144C15.9327 7.75491 16.0443 7.61795 16.1821 7.51092C15.9122 6.51958 15.3236 5.64455 14.5073 5.02074C13.6909 4.39692 12.692 4.05896 11.6645 4.05896C10.6371 4.05896 9.63821 4.39692 8.82183 5.02074C8.00545 5.64455 7.41694 6.51958 7.14701 7.51092C7.28478 7.61795 7.39641 7.75491 7.47346 7.91144C7.5505 8.06797 7.59093 8.23997 7.59171 8.41443V9.085C7.59171 9.38828 7.47123 9.67913 7.25678 9.89358C7.04233 10.108 6.75148 10.2285 6.4482 10.2285C6.14493 10.2285 5.85407 10.108 5.63963 9.89358C5.42518 9.67913 5.3047 9.38828 5.3047 9.085V8.41443C5.30506 8.17019 5.38328 7.93244 5.52798 7.73569C5.67269 7.53894 5.87635 7.39344 6.10939 7.32034C6.42321 6.08508 7.13979 4.98965 8.14584 4.20722C9.1519 3.42479 10.39 3 11.6645 3C12.939 3 14.1772 3.42479 15.1833 4.20722ZM11.6645 12.0708C11.0063 12.0701 10.363 11.8743 9.8161 11.508C9.26918 11.1417 8.84315 10.6215 8.5919 10.013C8.34064 9.40464 8.27544 8.73539 8.40455 8.08992C8.53365 7.44446 8.85125 6.85178 9.3172 6.38682C9.78314 5.92186 10.3765 5.60552 11.0222 5.47778C11.668 5.35005 12.3371 5.41667 12.9449 5.66921C13.5528 5.92176 14.0722 6.34889 14.4373 6.89659C14.8024 7.44429 14.9969 8.08796 14.9962 8.7462C14.9927 9.62808 14.6403 10.4727 14.016 11.0956C13.3918 11.7186 12.5464 12.0692 11.6645 12.0708ZM11.6645 6.47332C11.2157 6.47402 10.7771 6.60779 10.4043 6.85773C10.0315 7.10768 9.74122 7.46255 9.5701 7.87749C9.39898 8.29243 9.35475 8.74879 9.443 9.18886C9.53125 9.62894 9.74801 10.033 10.0659 10.3498C10.3837 10.6667 10.7884 10.8822 11.2288 10.9691C11.6691 11.056 12.1254 11.0103 12.5398 10.8379C12.9542 10.6655 13.3081 10.3741 13.5569 10.0005C13.8057 9.62694 13.9381 9.18798 13.9374 8.73915C13.9348 8.13779 13.6943 7.56192 13.2684 7.13736C12.8425 6.71279 12.2659 6.47406 11.6645 6.47332ZM11.6645 21C9.15015 20.9989 6.72092 20.0889 4.8247 18.4377L4.5 18.1554L4.7047 17.7812C6.27172 14.9084 8.87636 13.1861 11.6645 13.1861C14.4527 13.1861 17.0573 14.9013 18.6244 17.7812L18.8291 18.1554L18.5044 18.4377C16.6075 20.0879 14.1787 20.9977 11.6645 21ZM5.8482 17.9154C7.50304 19.2272 9.55277 19.9412 11.6645 19.9412C13.7763 19.9412 15.826 19.2272 17.4809 17.9154C16.0903 15.6142 13.9445 14.2519 11.6645 14.2519C9.38459 14.2519 7.23876 15.6142 5.8482 17.9154Z" fill="white"/>
</svg>
