<svg width="32" height="27" viewBox="0 0 32 27" fill="none" xmlns="http://www.w3.org/2000/svg">
<path fill-rule="evenodd" clip-rule="evenodd" d="M29.6083 3.29102H5.6917C5.05798 3.29291 4.45075 3.54549 4.00264 3.99361C3.55453 4.44172 3.30194 5.04895 3.30005 5.68267V20.9414C3.30194 21.5752 3.55453 22.1824 4.00264 22.6305C4.45075 23.0786 5.05798 23.3312 5.6917 23.3331H22.4333L30.3497 26.5499C30.5318 26.6247 30.7295 26.6534 30.9254 26.6334C31.1212 26.6134 31.3091 26.5454 31.4724 26.4354C31.6357 26.3254 31.7692 26.1768 31.8613 26.0027C31.9533 25.8287 32.0009 25.6346 31.9999 25.4377V5.68267C31.9999 5.04836 31.7479 4.44004 31.2994 3.99152C30.8509 3.54299 30.2426 3.29102 29.6083 3.29102ZM15.2464 4.65086C15.7417 4.65086 16.1433 5.05241 16.1433 5.54773V13.0217C16.1433 13.517 15.7417 13.9185 15.2464 13.9185C14.7511 13.9185 14.3495 13.517 14.3495 13.0217V5.54773C14.3495 5.05241 14.7511 4.65086 15.2464 4.65086ZM15.2467 17.5026C15.7421 17.5026 16.1436 17.1011 16.1436 16.6057C16.1436 16.1104 15.7421 15.7089 15.2467 15.7089C14.7514 15.7089 14.3499 16.1104 14.3499 16.6057C14.3499 17.1011 14.7514 17.5026 15.2467 17.5026Z" fill="white"/>
<path d="M28.4009 25.1243C28.1301 25.126 27.8617 25.0731 27.6117 24.9689L19.8507 21.8239H3.28853C2.85658 21.8242 2.42882 21.7393 2.02969 21.5742C1.63057 21.409 1.26792 21.1668 0.962487 20.8614C0.657056 20.5559 0.414837 20.1933 0.249685 19.7942C0.084532 19.395 -0.000313613 18.9673 8.7104e-07 18.5353V3.28853C-0.000313613 2.85658 0.084532 2.42882 0.249685 2.02969C0.414837 1.63057 0.657056 1.26792 0.962487 0.962487C1.26792 0.657056 1.63057 0.414837 2.02969 0.249685C2.42882 0.0845322 2.85658 -0.000313613 3.28853 8.71038e-07H27.2051C27.637 -0.000313613 28.0648 0.0845322 28.4639 0.249685C28.8631 0.414837 29.2257 0.657056 29.5311 0.962487C29.8366 1.26792 30.0788 1.63057 30.2439 2.02969C30.4091 2.42882 30.4939 2.85658 30.4936 3.28853V23.0436C30.4924 23.3857 30.4079 23.7223 30.2475 24.0244C30.0871 24.3265 29.8555 24.585 29.5728 24.7776C29.2243 25.0049 28.817 25.1254 28.4009 25.1243ZM3.28853 1.79374C2.89209 1.79374 2.51188 1.95123 2.23156 2.23156C1.95123 2.51188 1.79374 2.89209 1.79374 3.28853V18.5473C1.79374 18.9437 1.95123 19.3239 2.23156 19.6043C2.51188 19.8846 2.89209 20.0421 3.28853 20.0421H20.2095L28.2933 23.3186C28.3381 23.3352 28.3859 23.3416 28.4335 23.3374C28.481 23.3333 28.5271 23.3187 28.5683 23.2947C28.6094 23.2671 28.6429 23.2297 28.6659 23.1858C28.6889 23.142 28.7005 23.0931 28.6999 23.0436V3.28853C28.6999 2.89209 28.5424 2.51188 28.2621 2.23156C27.9817 1.95123 27.6015 1.79374 27.2051 1.79374H3.28853Z" fill="#78090F"/>
</svg>
