<svg width="32" height="32" viewBox="0 0 32 32" fill="none" xmlns="http://www.w3.org/2000/svg">
<path fill-rule="evenodd" clip-rule="evenodd" d="M7 6.20213C7 4.98593 7.97683 4 9.18182 4H20.8182C22.0232 4 23 4.98593 23 6.20213V8.64894C23 9.05434 22.6744 9.38298 22.2727 9.38298C21.8711 9.38298 21.5455 9.05434 21.5455 8.64894V6.20213C21.5455 5.79673 21.2198 5.46809 20.8182 5.46809H9.18182C8.78016 5.46809 8.45455 5.79673 8.45455 6.20213V24.7979C8.45455 25.2033 8.78016 25.5319 9.18182 25.5319H20.8182C21.2198 25.5319 21.5455 25.2033 21.5455 24.7979V22.3511C21.5455 21.9457 21.8711 21.617 22.2727 21.617C22.6744 21.617 23 21.9457 23 22.3511V24.7979C23 26.0141 22.0232 27 20.8182 27H9.18182C7.97683 27 7 26.0141 7 24.7979V6.20213Z" fill="#191919"/>
<path d="M17.181 15.9503C17.2442 16.0099 17.3205 16.0575 17.4051 16.0899C17.4897 16.1224 17.5809 16.1391 17.6731 16.139L26.6555 16.139L23.6935 18.9273C23.6279 18.9858 23.5762 19.0555 23.5414 19.1321C23.5066 19.2087 23.4894 19.2908 23.4909 19.3734C23.4988 19.5283 23.571 19.675 23.6935 19.7852C23.7572 19.8568 23.8401 19.9129 23.9347 19.9482C24.0196 19.9824 24.1117 20 24.2049 20C24.298 20 24.3901 19.9824 24.475 19.9482C24.5556 19.9083 24.6249 19.8525 24.6776 19.7852L28.7588 15.9417C28.8203 15.8861 28.8665 15.8185 28.8939 15.7444C28.9491 15.6693 28.9854 15.5844 29 15.4956C29.0004 15.4127 28.9806 15.3308 28.9421 15.2554C28.9017 15.174 28.8386 15.1031 28.7588 15.0495L24.6873 11.2059C24.625 11.1446 24.5496 11.095 24.4654 11.0601C24.3781 11.0222 24.2827 11.0017 24.1856 11C24.0996 10.9991 24.0142 11.0137 23.9347 11.0429C23.836 11.0759 23.7492 11.1323 23.6839 11.2059C23.6182 11.2685 23.5659 11.3412 23.5295 11.4204C23.5149 11.5028 23.5149 11.5868 23.5295 11.6692C23.5291 11.7521 23.5489 11.834 23.5874 11.9094L23.5199 11.9695L23.6935 12.0639L23.8575 12.244L26.6362 14.8178L17.6152 14.8178C17.4422 14.8421 17.2865 14.9251 17.181 15.0495C17.0643 15.1683 17 15.3207 17 15.4784C17 15.6362 17.0643 15.7886 17.181 15.9074L17.181 15.9503Z" fill="#191919"/>
</svg>
