<svg id="IconEye" xmlns="http://www.w3.org/2000/svg" width="25.51" height="17.86" viewBox="0 0 25.51 17.86">
  <path id="Path_75644" data-name="Path 75644" d="M13.5,22.43c-6.61,0-12.37-8.15-12.62-8.5a.752.752,0,0,1,0-.86c.24-.35,6-8.5,12.62-8.5s12.37,8.15,12.62,8.5a.752.752,0,0,1,0,.86C25.87,14.28,20.11,22.43,13.5,22.43ZM2.43,13.5c1.26,1.64,6.04,7.43,11.07,7.43s9.81-5.79,11.07-7.43c-1.26-1.64-6.05-7.43-11.07-7.43S3.69,11.86,2.43,13.5Z" transform="translate(-0.745 -4.57)" fill="#191919"/>
  <path id="Path_75645" data-name="Path 75645" d="M13.5,18.21a4.71,4.71,0,1,1,4.71-4.71A4.712,4.712,0,0,1,13.5,18.21Zm0-7.92a3.21,3.21,0,1,0,3.21,3.21A3.214,3.214,0,0,0,13.5,10.29Z" transform="translate(-0.745 -4.57)" fill="#191919"/>
</svg>
