<svg id="IconExclamationTriangle" xmlns="http://www.w3.org/2000/svg" width="16" height="14.327" viewBox="0 0 16 14.327">
  <path id="Path_74363" data-name="Path 74363" d="M15.215,16.607H2.735a1.76,1.76,0,0,1-1.52-2.638L7.455,3.161a1.752,1.752,0,0,1,3.04,0l6.24,10.807a1.76,1.76,0,0,1-1.52,2.638ZM8.285,3.647l-6.24,10.8a.778.778,0,0,0,0,.8.791.791,0,0,0,.69.4H15.209a.8.8,0,0,0,.69-1.194L9.665,3.647a.821.821,0,0,0-1.38,0Z" transform="translate(-0.975 -2.28)" fill="#e50a17"/>
  <path id="Path_74364" data-name="Path 74364" d="M13.219,13.774a.483.483,0,0,1-.479-.479V9.469a.479.479,0,0,1,.958,0v3.826A.478.478,0,0,1,13.219,13.774Z" transform="translate(-5.225 -4.704)" fill="#e50a17"/>
  <path id="Path_74365" data-name="Path 74365" d="M13.229,20.051a.483.483,0,0,1-.479-.479v-.083a.479.479,0,0,1,.958,0v.083A.478.478,0,0,1,13.229,20.051Z" transform="translate(-5.229 -8.324)" fill="#e50a17"/>
</svg>
