<svg width="23" height="15" viewBox="0 0 23 15" fill="none" xmlns="http://www.w3.org/2000/svg">
<path d="M22.3665 2.58265V2.55701C22.354 1.94315 22.1027 1.35844 21.6662 0.927487C21.2296 0.496538 20.6423 0.253438 20.0294 0.25H2.96206C2.34823 0.250376 1.75916 0.492483 1.32194 0.924083C0.884718 1.35568 0.634403 1.94217 0.625001 2.55701V12.4003C0.624776 12.7089 0.685294 13.0146 0.803091 13.2997C0.920888 13.5849 1.09365 13.844 1.31151 14.0623C1.52936 14.2805 1.78802 14.4536 2.07271 14.5716C2.35739 14.6896 2.6625 14.7502 2.97059 14.75H20.0294C20.3375 14.7502 20.6426 14.6896 20.9273 14.5716C21.212 14.4536 21.4706 14.2805 21.6885 14.0623C21.9063 13.844 22.0791 13.5849 22.1969 13.2997C22.3147 13.0146 22.3752 12.7089 22.375 12.4003V2.60828C22.3718 2.6049 22.3693 2.60085 22.3679 2.59642C22.3664 2.59199 22.3659 2.58728 22.3665 2.58265ZM2.96206 1.54022H20.0209C20.2381 1.5394 20.4501 1.60646 20.6274 1.73204C20.8048 1.85763 20.9386 2.03549 21.0103 2.24087L11.4915 6.79508L1.97265 2.24087C2.04433 2.03549 2.17816 1.85763 2.35551 1.73204C2.53285 1.60646 2.74488 1.5394 2.96206 1.54022ZM20.0209 13.4683H2.96206C2.67929 13.4683 2.40811 13.3558 2.20816 13.1555C2.00821 12.9552 1.89588 12.6835 1.89588 12.4003V3.62507L11.2185 8.0853C11.3041 8.12473 11.3972 8.14515 11.4915 8.14515C11.5857 8.14515 11.6788 8.12473 11.7644 8.0853L21.0871 3.62507V12.4088C21.0853 12.6907 20.9721 12.9605 20.7723 13.159C20.5725 13.3576 20.3023 13.4688 20.0209 13.4683Z" fill="#595959"/>
</svg>
