<svg id="IconCreditCard" xmlns="http://www.w3.org/2000/svg" width="28" height="19.468" viewBox="0 0 28 19.468">
  <path id="Trazado_75696" data-name="Trazado 75696" d="M25.73,4.64H3.77A3.018,3.018,0,0,0,.75,7.66V21.089a3.018,3.018,0,0,0,3.02,3.02H25.73a3.018,3.018,0,0,0,3.02-3.02V7.66A3.018,3.018,0,0,0,25.73,4.64ZM27.1,21.078A1.373,1.373,0,0,1,25.73,22.45H3.77A1.373,1.373,0,0,1,2.4,21.078v-8H27.1ZM2.4,9.779V7.66A1.373,1.373,0,0,1,3.77,6.287H25.73A1.373,1.373,0,0,1,27.1,7.66V9.79H2.4Z" transform="translate(-0.75 -4.64)" fill="#595959"/>
  <path id="Trazado_75697" data-name="Trazado 75697" d="M5.3,18.787h6.588a.824.824,0,1,0,0-1.647H5.3a.824.824,0,0,0,0,1.647Z" transform="translate(-0.384 -3.415)" fill="#595959"/>
  <path id="Trazado_75698" data-name="Trazado 75698" d="M14.334,18.787h3.294a.824.824,0,1,0,0-1.647H14.334a.824.824,0,0,0,0,1.647Z" transform="translate(0.501 -3.415)" fill="#595959"/>
</svg>
