<svg width="32" height="32" viewBox="0 0 32 32" fill="none" xmlns="http://www.w3.org/2000/svg">
<path d="M8.22645 30.5153C5.3159 30.5118 2.50459 29.457 0.30999 27.5452C0.155794 27.4094 0.0518365 27.2257 0.0148961 27.0236C-0.0220442 26.8215 0.0101876 26.6129 0.10639 26.4314C0.846245 24.8893 1.99166 23.5775 3.41995 22.6366C4.84823 21.6957 6.50558 21.161 8.21448 21.0898C9.92453 21.1625 11.5829 21.6976 13.0128 22.6382C14.4428 23.5789 15.5908 24.8898 16.3345 26.4314C16.4331 26.6123 16.4667 26.8216 16.4297 27.0243C16.3926 27.227 16.2872 27.4108 16.1309 27.5452C13.942 29.4585 11.1338 30.5137 8.22645 30.5153ZM2.07053 26.6589C3.84438 27.9958 6.00523 28.7189 8.22645 28.7189C10.4477 28.7189 12.6085 27.9958 14.3824 26.6589C13.758 25.5627 12.8657 24.6428 11.7892 23.9851C10.7126 23.3274 9.48681 22.9535 8.22645 22.8983C6.96575 22.952 5.73939 23.3254 4.66257 23.9832C3.58576 24.641 2.69382 25.5617 2.07053 26.6589Z" fill="white"/>
<path d="M8.22703 19.9755C7.42403 19.9755 6.63906 19.7374 5.97139 19.2913C5.30372 18.8452 4.78334 18.2111 4.47605 17.4692C4.16875 16.7273 4.08835 15.911 4.24501 15.1234C4.40166 14.3359 4.78834 13.6124 5.35615 13.0446C5.92395 12.4768 6.64738 12.0901 7.43495 11.9335C8.22252 11.7768 9.03886 11.8572 9.78073 12.1645C10.5226 12.4718 11.1567 12.9922 11.6028 13.6599C12.0489 14.3275 12.2871 15.1125 12.2871 15.9155C12.2861 16.992 11.858 18.0241 11.0969 18.7853C10.3357 19.5465 9.30352 19.9746 8.22703 19.9755ZM8.22703 13.6639C7.77934 13.6639 7.3417 13.7967 6.96946 14.0454C6.59722 14.2941 6.30709 14.6476 6.13577 15.0613C5.96445 15.4749 5.91962 15.93 6.00696 16.3691C6.0943 16.8082 6.30988 17.2115 6.62645 17.5281C6.94301 17.8446 7.34634 18.0602 7.78543 18.1475C8.22451 18.2349 8.67964 18.1901 9.09325 18.0187C9.50686 17.8474 9.86038 17.5573 10.1091 17.185C10.3578 16.8128 10.4906 16.3752 10.4906 15.9275C10.489 15.3276 10.25 14.7528 9.82586 14.3286C9.4017 13.9045 8.82687 13.6655 8.22703 13.6639Z" fill="white"/>
<path d="M19.1135 3.29297H30.8265C31.1376 3.29361 31.4358 3.41747 31.6557 3.63744C31.8757 3.85742 31.9996 4.15558 32.0002 4.46667V11.94C31.9996 12.2511 31.8757 12.5493 31.6557 12.7692C31.4358 12.9892 31.1376 13.1131 30.8265 13.1137H22.6346L18.7542 14.6826C18.6658 14.7182 18.57 14.7315 18.4752 14.7216C18.3804 14.7116 18.2895 14.6787 18.2103 14.6255C18.1312 14.5724 18.0663 14.5007 18.0212 14.4167C17.9762 14.3327 17.9523 14.239 17.9518 14.1437V4.46667C17.9497 4.31298 17.9782 4.16041 18.0357 4.01786C18.0932 3.87531 18.1785 3.74563 18.2867 3.63639C18.3948 3.52714 18.5236 3.44051 18.6656 3.38156C18.8075 3.3226 18.9598 3.29248 19.1135 3.29297Z" fill="#E50A17"/>
<path d="M16.1301 13.234C15.7363 13.2337 15.3588 13.0771 15.0803 12.7987C14.8019 12.5203 14.6453 12.1427 14.645 11.7489V2.07193C14.6472 1.5231 14.8662 0.997379 15.2543 0.609294C15.6424 0.221209 16.1681 0.00220733 16.717 0H28.43C28.9788 0.00220733 29.5045 0.221209 29.8926 0.609294C30.2807 0.997379 30.4997 1.5231 30.5019 2.07193V9.54527C30.4997 10.0941 30.2807 10.6198 29.8926 11.0079C29.5045 11.396 28.9788 11.615 28.43 11.6172H20.4057L16.693 13.1262C16.5139 13.1976 16.3229 13.2342 16.1301 13.234ZM16.717 1.79647C16.6442 1.79741 16.5747 1.82673 16.5232 1.87818C16.4717 1.92964 16.4424 1.99917 16.4415 2.07193V11.2819L20.0464 9.82072H28.418C28.4908 9.81979 28.5603 9.79047 28.6117 9.73901C28.6632 9.68756 28.6925 9.61803 28.6934 9.54527V2.07193C28.6941 2.03558 28.6874 1.99947 28.6738 1.96576C28.6602 1.93204 28.6399 1.90142 28.6142 1.87571C28.5885 1.85 28.5579 1.82973 28.5242 1.81612C28.4905 1.80251 28.4543 1.79582 28.418 1.79647H16.717Z" fill="white"/>
</svg>
