<svg xmlns="http://www.w3.org/2000/svg" width="21.443" height="21.46" viewBox="0 0 21.443 21.46">
  <g id="IconGlobe-Duo" transform="translate(0 0)">
    <circle id="Ellipse_7080" data-name="Ellipse 7080" cx="5.057" cy="5.057" r="5.057" transform="translate(10.722 0.649)" fill="#e50a17"/>
    <path id="Path_75890" data-name="Path 75890" d="M11.5.77A10.73,10.73,0,1,0,22.223,11.508,10.734,10.734,0,0,0,11.5.77ZM20.959,11.5a9.231,9.231,0,0,1-.565,3.178,18.481,18.481,0,0,1-4.661,1.728,28.2,28.2,0,0,0,.4-3.481,21.341,21.341,0,0,0,4.821-1.652C20.95,11.348,20.959,11.424,20.959,11.5Zm-18.914,0c0-.076.008-.152.008-.228a21.341,21.341,0,0,0,4.821,1.652,28.2,28.2,0,0,0,.4,3.481,18.142,18.142,0,0,1-4.661-1.728A9.231,9.231,0,0,1,2.044,11.5Zm12.863,0c0,.126-.008.244-.008.371a20.23,20.23,0,0,1-3.4.3,20.23,20.23,0,0,1-3.4-.3c0-.126-.008-.244-.008-.371a27.36,27.36,0,0,1,.287-3.9,16.929,16.929,0,0,0,3.119.287A17.694,17.694,0,0,0,14.62,7.6,27.36,27.36,0,0,1,14.907,11.5Zm.944-4.181a16.419,16.419,0,0,0,3.363-1.273,9.44,9.44,0,0,1,1.6,3.869,19.782,19.782,0,0,1-4.653,1.7v-.11A26.651,26.651,0,0,0,15.851,7.319Zm-9.019,4.3a19.938,19.938,0,0,1-4.653-1.7,9.374,9.374,0,0,1,1.6-3.869A16.624,16.624,0,0,0,7.144,7.319a27.594,27.594,0,0,0-.32,4.181A.556.556,0,0,1,6.832,11.618ZM8.155,13.16a21.825,21.825,0,0,0,3.346.261,21.74,21.74,0,0,0,3.346-.261,27,27,0,0,1-.447,3.5,18.473,18.473,0,0,1-2.9.228,19.453,19.453,0,0,1-2.9-.228A25.441,25.441,0,0,1,8.155,13.16ZM18.4,5.043a15.281,15.281,0,0,1-2.765,1.02,27.317,27.317,0,0,0-.91-3.447A9.476,9.476,0,0,1,18.4,5.043ZM13.238,2.2A26.769,26.769,0,0,1,14.4,6.342a15.39,15.39,0,0,1-2.9.278,15.39,15.39,0,0,1-2.9-.278A27.188,27.188,0,0,1,9.765,2.2,9.857,9.857,0,0,1,11.5,2.034,9.857,9.857,0,0,1,13.238,2.2Zm-4.965.413a28.827,28.827,0,0,0-.91,3.447,15.4,15.4,0,0,1-2.756-1.02A9.508,9.508,0,0,1,8.273,2.616ZM3.494,16.524A20.482,20.482,0,0,0,7.54,17.763c.2.885.447,1.753.733,2.613A9.464,9.464,0,0,1,3.494,16.524ZM9.765,20.8A25.815,25.815,0,0,1,8.9,17.982a19.56,19.56,0,0,0,2.6.177,19.56,19.56,0,0,0,2.6-.177,25.816,25.816,0,0,1-.868,2.815,9.857,9.857,0,0,1-1.736.169A9.857,9.857,0,0,1,9.765,20.8Zm4.965-.413c.287-.86.531-1.736.733-2.613a20.664,20.664,0,0,0,4.046-1.239A9.551,9.551,0,0,1,14.73,20.384Z" transform="translate(-0.78 -0.77)" fill="#191919"/>
  </g>
</svg>
