<svg width="32" height="42" viewBox="0 0 32 42" fill="none" xmlns="http://www.w3.org/2000/svg">
<path d="M17.6741 29.3252C23.0395 29.3252 27.389 24.9758 27.389 19.6104C27.389 14.245 23.0395 9.89551 17.6741 9.89551C12.3087 9.89551 7.95923 14.245 7.95923 19.6104C7.95923 24.9758 12.3087 29.3252 17.6741 29.3252Z" fill="#E50A17"/>
<path d="M27.4872 41.8462H4.51282C3.92007 41.8466 3.33304 41.7301 2.78533 41.5035C2.23761 41.2769 1.73995 40.9445 1.32081 40.5253C0.901673 40.1062 0.569278 39.6085 0.34264 39.0608C0.116002 38.5131 -0.000430369 37.9261 1.19532e-06 37.3333V4.51282C-0.000430369 3.92007 0.116002 3.33304 0.34264 2.78533C0.569278 2.23761 0.901673 1.73995 1.32081 1.32081C1.73995 0.901673 2.23761 0.569278 2.78533 0.34264C3.33304 0.116003 3.92007 -0.000430369 4.51282 1.19532e-06H27.4872C28.0799 -0.000430369 28.667 0.116003 29.2147 0.34264C29.7624 0.569278 30.26 0.901673 30.6792 1.32081C31.0983 1.73995 31.4307 2.23761 31.6574 2.78533C31.884 3.33304 32.0004 3.92007 32 4.51282V37.3333C32.0004 37.9261 31.884 38.5131 31.6574 39.0608C31.4307 39.6085 31.0983 40.1062 30.6792 40.5253C30.26 40.9445 29.7624 41.2769 29.2147 41.5035C28.667 41.7301 28.0799 41.8466 27.4872 41.8462ZM4.51282 2.46154C3.96879 2.46154 3.44704 2.67766 3.06235 3.06235C2.67766 3.44704 2.46154 3.96879 2.46154 4.51282V37.3333C2.46154 37.8774 2.67766 38.3991 3.06235 38.7838C3.44704 39.1685 3.96879 39.3846 4.51282 39.3846H27.4872C28.0312 39.3846 28.553 39.1685 28.9377 38.7838C29.3223 38.3991 29.5385 37.8774 29.5385 37.3333V4.51282C29.5385 3.96879 29.3223 3.44704 28.9377 3.06235C28.553 2.67766 28.0312 2.46154 27.4872 2.46154H4.51282Z" fill="#191919"/>
<path d="M16.0001 5.12012C13.8352 5.12012 11.719 5.76207 9.91902 6.96479C8.11902 8.16751 6.71609 9.87699 5.88764 11.877C5.05919 13.8771 4.84243 16.0779 5.26477 18.2011C5.68711 20.3244 6.72958 22.2747 8.26035 23.8055C9.79113 25.3363 11.7415 26.3787 13.8647 26.8011C15.9879 27.2234 18.1887 27.0067 20.1888 26.1782C22.1889 25.3498 23.8983 23.9468 25.1011 22.1468C26.3038 20.3468 26.9457 18.2306 26.9457 16.0658C26.9436 13.1635 25.7897 10.3807 23.7374 8.32842C21.6852 6.27619 18.9024 5.12229 16.0001 5.12012ZM7.51599 16.0822C7.5276 15.3444 7.63236 14.6111 7.82778 13.8996C8.94658 14.2552 10.0866 14.5402 11.2411 14.7529C11.2083 15.3437 11.1591 15.9345 11.1591 16.5252C11.1591 17.116 11.1919 17.6904 11.2247 18.2647C10.0042 18.0251 8.80304 17.696 7.63086 17.2801C7.56744 16.8836 7.52907 16.4835 7.51599 16.0822ZM13.6206 16.5252C13.6206 16.0329 13.6534 15.557 13.6862 15.0647C14.455 15.1439 15.2273 15.1823 16.0001 15.1796C16.8698 15.1796 17.7396 15.1304 18.6093 15.0483C18.6257 15.3929 18.6585 15.7376 18.6585 16.0822C18.6585 16.9191 18.6093 17.756 18.5273 18.5929C16.9239 18.7598 15.3081 18.7707 13.7027 18.6258C13.6534 17.9201 13.6206 17.2309 13.6206 16.5252ZM21.0544 14.6873C22.1071 14.4809 23.148 14.2179 24.1724 13.8996C24.3678 14.6111 24.4726 15.3444 24.4842 16.0822C24.4711 16.4835 24.4327 16.8836 24.3693 17.2801C23.2749 17.6643 22.1567 17.9768 21.0216 18.2155C21.0709 17.5099 21.1201 16.8042 21.1201 16.0822C21.1201 15.6063 21.0709 15.1468 21.0544 14.6873ZM23.2042 11.6186C22.4216 11.8559 21.6274 12.0531 20.8247 12.2093C20.6623 11.0199 20.4266 9.84157 20.1191 8.68114C21.3686 9.39814 22.4268 10.4057 23.2042 11.6186ZM17.198 7.71294C17.7534 9.29409 18.1492 10.9268 18.3796 12.5868C16.896 12.7372 15.4016 12.7482 13.916 12.6196C14.1611 10.9363 14.5734 9.28163 15.1468 7.68012C15.4238 7.63576 15.7033 7.60836 15.9837 7.59807C16.3914 7.59405 16.7983 7.63254 17.198 7.71294ZM12.3078 8.46781C11.9511 9.72306 11.677 11.0003 11.4873 12.2914C10.5775 12.1214 9.67875 11.8967 8.79599 11.6186C9.65333 10.2643 10.8688 9.17379 12.3078 8.46781ZM8.61547 20.1847C9.56154 20.4412 10.52 20.6493 11.4873 20.8083C11.6186 21.7273 11.7991 22.6299 12.0124 23.5324C10.5853 22.7615 9.4071 21.6004 8.61547 20.1847ZM14.8514 24.4514C14.5047 23.3547 14.2306 22.2364 14.0309 21.1037C14.6873 21.1529 15.3437 21.1858 16.0165 21.1858C16.7386 21.1858 17.4442 21.1365 18.1498 21.0873C17.9188 22.2242 17.6062 23.343 17.2144 24.435C16.8179 24.4984 16.4178 24.5368 16.0165 24.5499C15.626 24.5511 15.2361 24.5181 14.8514 24.4514ZM20.1191 23.4504C20.3645 22.5702 20.5617 21.6772 20.7098 20.7755C21.6115 20.6274 22.5045 20.4302 23.3847 20.1847C22.621 21.5557 21.4901 22.6866 20.1191 23.4504Z" fill="#191919"/>
<path d="M21.7436 34.4122H10.2564C9.92998 34.4122 9.61693 34.2826 9.38612 34.0517C9.15531 33.8209 9.02563 33.5079 9.02563 33.1815C9.02563 32.855 9.15531 32.542 9.38612 32.3112C9.61693 32.0804 9.92998 31.9507 10.2564 31.9507H21.7436C22.07 31.9507 22.3831 32.0804 22.6139 32.3112C22.8447 32.542 22.9744 32.855 22.9744 33.1815C22.9744 33.5079 22.8447 33.8209 22.6139 34.0517C22.3831 34.2826 22.07 34.4122 21.7436 34.4122Z" fill="#191919"/>
</svg>
