<svg xmlns="http://www.w3.org/2000/svg" width="26.76" height="22.275" viewBox="0 0 26.76 22.275">
  <g id="IconSpeechBubble-Duo" transform="translate(0)">
    <path id="Path_75751" data-name="Path 75751" d="M4.88,5.12h20a2.006,2.006,0,0,1,2,2V19.88a2.006,2.006,0,0,1-2,2h-14L4.26,24.57a1,1,0,0,1-1.38-.93V7.12A2,2,0,0,1,4.88,5.12Z" transform="translate(-2.88 -2.37)" fill="#e50a17"/>
    <path id="Path_75752" data-name="Path 75752" d="M1.87,23.38a1.688,1.688,0,0,0,.66-.13l6.49-2.63H22.87a2.748,2.748,0,0,0,2.75-2.75V5.12a2.748,2.748,0,0,0-2.75-2.75h-20A2.748,2.748,0,0,0,.12,5.12V21.64a1.762,1.762,0,0,0,.77,1.45A1.785,1.785,0,0,0,1.87,23.38Zm21-19.51a1.25,1.25,0,0,1,1.25,1.25V17.88a1.25,1.25,0,0,1-1.25,1.25H8.72L1.96,21.87a.271.271,0,0,1-.23-.02.249.249,0,0,1-.11-.21V5.12A1.25,1.25,0,0,1,2.87,3.87Z" transform="translate(1.14 -2.37)" fill="#191919"/>
  </g>
</svg>
