<svg xmlns="http://www.w3.org/2000/svg" width="26.76" height="18.46" viewBox="0 0 26.76 18.46">
  <g id="IconGraduationCap-Duo" transform="translate(0 0)">
    <path id="Path_75749" data-name="Path 75749" d="M14.88,4.27l12,4.71-12,4.7-12-4.7Z" transform="translate(-0.12 -4.27)" fill="#e50a17"/>
    <path id="Path_75750" data-name="Path 75750" d="M25.15,9.28l-12-4.71a.746.746,0,0,0-.55,0L.6,9.28a.75.75,0,0,0,0,1.4l3.81,1.49v7.8c0,2.68,7.6,2.76,8.47,2.76s8.47-.08,8.47-2.76v-7.8l1.45-.57v3.08a.75.75,0,1,0,1.5,0V11.01l.86-.34a.74.74,0,0,0-.01-1.39ZM12.87,6.08l9.95,3.9-9.95,3.9L2.92,9.98Zm6.99,13.81c-.26.48-2.82,1.33-6.98,1.33s-6.72-.86-6.97-1.26V12.75l6.69,2.62a.857.857,0,0,0,.27.05.808.808,0,0,0,.27-.05l6.69-2.63Z" transform="translate(-0.12 -4.27)" fill="#191919"/>
  </g>
</svg>
