<?xml version="1.0" encoding="utf-8"?>
<!-- Generator: Adobe Illustrator 27.3.1, SVG Export Plug-In . SVG Version: 6.00 Build 0)  -->
<svg version="1.1" id="Layer_1" xmlns="http://www.w3.org/2000/svg" xmlns:xlink="http://www.w3.org/1999/xlink" x="0px" y="0px"
	 viewBox="0 0 75 75" style="enable-background:new 0 0 75 75;" xml:space="preserve">
<style type="text/css">
	.st0{fill:#FFFFFF;stroke:#BEB6CB;}
	.st1{fill:#191919;}
	.st2{fill:none;stroke:#191919;stroke-width:1.5;stroke-linecap:round;stroke-linejoin:round;stroke-miterlimit:10;}
	.st3{fill:#E50A17;}
</style>
<circle class="st0" cx="37.5" cy="37.5" r="37"/>
<g>
	<g>
		<g>
			<path class="st1" d="M47.4,61.2h-21c-3.4,0-6.2-2.8-6.2-6.2V23.8c0-3.4,2.8-6.2,6.2-6.2h7c0.7,0,1.3,0.6,1.3,1.3
				s-0.6,1.3-1.3,1.3h-7c-2,0-3.6,1.6-3.6,3.6V55c0,2,1.6,3.6,3.6,3.6h20.9c2,0,3.6-1.6,3.6-3.6v-4.2c0-0.7,0.6-1.3,1.3-1.3
				s1.3,0.6,1.3,1.3V55C53.6,58.4,50.8,61.2,47.4,61.2z"/>
		</g>
		<g>
			<path class="st2" d="M33.4,18.9"/>
		</g>
		<g>
			<path class="st2" d="M40.4,18.9"/>
		</g>
		<g>
			<path class="st1" d="M52.2,31.4c-0.7,0-1.3-0.6-1.3-1.3v-6.2c0-2-1.6-3.6-3.6-3.6h-7c-0.7,0-1.3-0.6-1.3-1.3s0.6-1.3,1.3-1.3h7
				c3.4,0,6.2,2.8,6.2,6.2V30C53.6,30.8,53,31.4,52.2,31.4z"/>
		</g>
		<path class="st1" d="M41.7,18.6c0-2.7-2.2-4.8-4.8-4.8s-4.8,2.2-4.8,4.8c0,0.1,0,0.2,0,0.4l0,0l0,0c0.2,2.5,2.3,4.4,4.8,4.4
			s4.6-1.9,4.8-4.4l0,0l0,0C41.7,18.9,41.7,18.8,41.7,18.6z M36.9,20.8c-1.1,0-2.1-0.9-2.2-2l0,0v-0.2c0-1.2,1-2.2,2.2-2.2
			s2.2,1,2.2,2.2v0.2l0,0l0,0C39,20,38,20.8,36.9,20.8z"/>
	</g>
	<g>
		<path class="st1" d="M42.9,24.3H30.6c-0.7,0-1.3-0.6-1.3-1.3s0.6-1.3,1.3-1.3h12.3c0.7,0,1.3,0.6,1.3,1.3S43.6,24.3,42.9,24.3z"/>
	</g>
	<g>
		<path class="st1" d="M44.6,34.9h-8.8c-0.7,0-1.3-0.6-1.3-1.3s0.6-1.3,1.3-1.3h8.8c0.7,0,1.3,0.6,1.3,1.3S45.4,34.9,44.6,34.9z"/>
	</g>
	<g>
		<path class="st1" d="M41.1,45.4h-5.3c-0.7,0-1.3-0.6-1.3-1.3s0.6-1.3,1.3-1.3h5.3c0.7,0,1.3,0.6,1.3,1.3
			C42.5,44.8,41.9,45.4,41.1,45.4z"/>
	</g>
	<g>
		<path class="st1" d="M32.4,38.4h-5.3c-0.7,0-1.3-0.6-1.3-1.3v-5.3c0-0.7,0.6-1.3,1.3-1.3h5.3c0.7,0,1.3,0.6,1.3,1.3v5.3
			C33.7,37.8,33.1,38.4,32.4,38.4z M28.4,35.7H31v-2.6h-2.6V35.7z"/>
	</g>
	<g>
		<path class="st1" d="M32.4,48.9h-5.3c-0.7,0-1.3-0.6-1.3-1.3v-5.3c0-0.7,0.6-1.3,1.3-1.3h5.3c0.7,0,1.3,0.6,1.3,1.3v5.3
			C33.7,48.3,33.1,48.9,32.4,48.9z M28.4,46.3H31v-2.6h-2.6V46.3z"/>
	</g>
</g>
<g>
	<path class="st3" d="M59.5,32.9c-0.1,0-0.2,0-0.3,0.1l-9.8,9.8c-0.1,0.1-0.1,0.1-0.1,0.2l-0.6,4.3c0,0.1,0,0.2,0.1,0.3
		s0.2,0.1,0.3,0.1l4.4-0.6c0.1,0,0.2,0,0.2-0.1l9.8-9.8c0.1-0.1,0.1-0.2,0.1-0.3s0-0.2-0.1-0.3l-3.7-3.7
		C59.7,32.9,59.6,32.9,59.5,32.9z"/>
</g>
<path class="st1" d="M61.5,34.6l-3.7-3.7c-0.5-0.5-1.4-0.5-1.9,0L46,40.8c-0.2,0.2-0.3,0.5-0.4,0.7L45,45.9
	c-0.1,0.4,0.1,0.8,0.4,1.1c0.2,0.2,0.6,0.4,0.9,0.4c0.1,0,0.1,0,0.2,0l4.3-0.6c0.3,0,0.5-0.2,0.7-0.4l9.9-9.9
	c0.2-0.2,0.4-0.6,0.4-0.9C61.9,35.2,61.8,34.8,61.5,34.6z M50.1,44.2l-2.2,0.3l0.3-2.2l5-5l1.9,1.9L50.1,44.2z M56.9,37.4L55,35.5
	l1.9-1.9l1.9,1.9L56.9,37.4z"/>
</svg>
