<svg id="IconHandHoldingInfo" xmlns="http://www.w3.org/2000/svg" width="26.121" height="28" viewBox="0 0 26.121 28">
  <path id="Trazado_75630" data-name="Trazado 75630" d="M14.244,17.478a8.364,8.364,0,1,1,8.364-8.364A8.376,8.376,0,0,1,14.244,17.478Zm0-15.081a6.717,6.717,0,1,0,6.717,6.717A6.724,6.724,0,0,0,14.244,2.4Z" transform="translate(-1.182 -0.75)" fill="#595959"/>
  <path id="Trazado_75631" data-name="Trazado 75631" d="M27.1,15.374c-1.207-1.438-3.062-.7-3.9-.1L18.986,18.4a2.777,2.777,0,0,0-1.515-.955c-.044-.011-.088-.011-.132-.022-.713-.044-7-.373-9.011.22-2.042.593-6.2,3.512-6.377,3.633a.818.818,0,0,0,.472,1.493.759.759,0,0,0,.472-.154,32,32,0,0,1,5.894-3.4c1.46-.428,6.454-.263,8.375-.165a.884.884,0,0,1,.681,1.109.754.754,0,0,1-.7.713l-5.675-.3a.824.824,0,1,0-.088,1.646l5.7.3H17.1a2.394,2.394,0,0,0,2.349-2.074,2.256,2.256,0,0,0,.022-.384l4.676-3.468c.011-.011,1.142-.79,1.657-.176a1.091,1.091,0,0,1-.132,1.449c-1.866,1.69-7.1,6.212-8.9,6.783-1.306.417-3.7-.176-5.269-.571a8.442,8.442,0,0,0-2.129-.384c-1.142.066-3.765,1.69-4.533,2.184A.828.828,0,0,0,5.277,27.4a.792.792,0,0,0,.439-.132A16.488,16.488,0,0,1,9.459,25.34a10.536,10.536,0,0,1,1.635.34c1.866.461,4.4,1.1,6.169.549,2.459-.779,8.792-6.476,9.538-7.156A2.68,2.68,0,0,0,27.1,15.374Z" transform="translate(-1.599 0.596)" fill="#595959"/>
  <path id="Trazado_75632" data-name="Trazado 75632" d="M13.573,13.246a.829.829,0,0,1-.823-.823V7.593a.823.823,0,0,1,1.646,0v4.84A.813.813,0,0,1,13.573,13.246Z" transform="translate(-0.511 -0.162)" fill="#595959"/>
  <path id="Trazado_75633" data-name="Trazado 75633" d="M13.573,5.989a.829.829,0,0,1-.823-.823V5.023a.823.823,0,0,1,1.646,0v.143A.822.822,0,0,1,13.573,5.989Z" transform="translate(-0.511 -0.413)" fill="#595959"/>
</svg>
