<svg width="16" height="16" viewBox="0 0 16 16" fill="none" xmlns="http://www.w3.org/2000/svg">
<path fill-rule="evenodd" clip-rule="evenodd" d="M15.2088 4.10447C15.2221 4.14234 15.2299 4.18194 15.232 4.22207C15.232 4.22458 15.2323 4.22683 15.2325 4.22892C15.2334 4.23661 15.2341 4.24222 15.2204 4.25147V9.56116C15.2206 9.72181 15.1895 9.88092 15.129 10.0294C15.0684 10.1778 14.9797 10.3127 14.8677 10.4263C14.7558 10.5399 14.6229 10.63 14.4766 10.6914C14.3303 10.7528 14.1735 10.7844 14.0152 10.7842H6.29114C6.13283 10.7844 5.97603 10.7528 5.82974 10.6914C5.68344 10.63 5.55051 10.5399 5.43857 10.4263C5.32662 10.3127 5.23785 10.1778 5.17733 10.0294C5.11682 9.88092 5.08575 9.72181 5.0859 9.56116V1.72305C5.08575 1.56239 5.11682 1.40328 5.17733 1.25483C5.23785 1.10637 5.32662 0.97148 5.43857 0.857879C5.55051 0.744277 5.68344 0.654194 5.82974 0.592785C5.97603 0.531375 6.13283 0.499846 6.29114 0.500001H11.5351C11.5409 0.500001 11.5453 0.50147 11.5496 0.502941C11.554 0.504411 11.5583 0.505881 11.5641 0.505881C11.6037 0.507454 11.6428 0.515392 11.68 0.529401C11.6941 0.530556 11.7079 0.534553 11.7205 0.541161C11.7673 0.563625 11.8103 0.593386 11.848 0.629362L15.1045 3.93395C15.1406 3.97171 15.17 4.01546 15.1914 4.06331C15.1989 4.07085 15.2015 4.08081 15.204 4.09008C15.2054 4.09527 15.2067 4.10025 15.2088 4.10447ZM12.723 3.81047H13.7544L11.9813 2.01117V3.05782C11.9816 3.25734 12.0598 3.4486 12.1989 3.58968C12.3379 3.73076 12.5264 3.81016 12.723 3.81047ZM14.2702 9.81407C14.3332 9.75011 14.3686 9.66337 14.3686 9.57292V4.69248H12.723C12.2961 4.69139 11.887 4.51882 11.5851 4.2125C11.2833 3.90617 11.1132 3.49102 11.1121 3.05782V1.38789H6.30273C6.2136 1.38789 6.12812 1.42382 6.06509 1.48778C6.00206 1.55173 5.96666 1.63848 5.96666 1.72893V9.57292C5.96666 9.66337 6.00206 9.75011 6.06509 9.81407C6.12812 9.87803 6.2136 9.91396 6.30273 9.91396H14.0325C14.1217 9.91396 14.2072 9.87803 14.2702 9.81407ZM2.05539 15.5H9.00874C9.21804 15.5002 9.42531 15.4585 9.61871 15.3772C9.81211 15.296 9.98783 15.1769 10.1358 15.0267C10.2838 14.8766 10.4012 14.6982 10.4812 14.502C10.5612 14.3057 10.6024 14.0954 10.6022 13.883V12.119C10.6022 12.002 10.5564 11.8899 10.4749 11.8072C10.3934 11.7244 10.2829 11.678 10.1676 11.678C10.0524 11.678 9.94183 11.7244 9.86033 11.8072C9.77883 11.8899 9.73304 12.002 9.73304 12.119V13.883C9.73304 14.0779 9.65673 14.2649 9.5209 14.4027C9.38506 14.5406 9.20083 14.618 9.00874 14.618H2.05539C1.86329 14.618 1.67906 14.5406 1.54323 14.4027C1.40739 14.2649 1.33108 14.0779 1.33108 13.883V6.82694C1.33108 6.63201 1.40739 6.44506 1.54323 6.30722C1.67906 6.16938 1.86329 6.09194 2.05539 6.09194H3.79373C3.90899 6.09194 4.01952 6.04548 4.10102 5.96277C4.18252 5.88007 4.22831 5.7679 4.22831 5.65094C4.22831 5.53397 4.18252 5.4218 4.10102 5.3391C4.01952 5.25639 3.90899 5.20993 3.79373 5.20993H2.05539C1.84609 5.20978 1.63881 5.2515 1.44541 5.3327C1.25201 5.41391 1.07629 5.53301 0.928293 5.6832C0.780295 5.83338 0.662926 6.0117 0.5829 6.20796C0.502875 6.40421 0.461762 6.61455 0.461914 6.82694V13.883C0.461762 14.0954 0.502875 14.3057 0.5829 14.502C0.662926 14.6982 0.780295 14.8766 0.928293 15.0267C1.07629 15.1769 1.25201 15.296 1.44541 15.3772C1.63881 15.4585 1.84609 15.5002 2.05539 15.5Z" fill="#E50A17"/>
</svg>
