<svg id="IconCheckCircle" xmlns="http://www.w3.org/2000/svg" width="32" height="32" viewBox="0 0 32 32">
  <g id="Group_77391" data-name="Group 77391">
    <path id="Path_74391" data-name="Path 74391" d="M16.75,32.75a16,16,0,1,1,16-16A16.019,16.019,0,0,1,16.75,32.75Zm0-30.118A14.118,14.118,0,1,0,30.868,16.75,14.139,14.139,0,0,0,16.75,2.632Z" transform="translate(-0.75 -0.75)" fill="#35158c"/>
  </g>
  <g id="Group_77392" data-name="Group 77392" transform="translate(8.428 10.691)">
    <path id="Path_74392" data-name="Path 74392" d="M11.437,20.514a.956.956,0,0,1-.715-.326L7.7,16.712a.949.949,0,0,1,.088-1.33.938.938,0,0,1,1.33.1l2.422,2.786,10.6-8.784a.945.945,0,0,1,1.2,1.456L12.026,20.313A1.043,1.043,0,0,1,11.437,20.514Z" transform="translate(-7.466 -9.269)" fill="#35158c"/>
  </g>
</svg>
