<svg width="24" height="24" viewBox="0 0 24 24" fill="none" xmlns="http://www.w3.org/2000/svg">
<path fill-rule="evenodd" clip-rule="evenodd" d="M4.20791 16.7209C5.76493 17.7241 7.59549 18.2595 9.4681 18.2595C11.5394 18.2506 13.5385 17.5904 15.1708 16.3973L22.696 23.9477C22.7648 24.0168 22.8968 24.0174 23.0629 23.9496C23.229 23.8817 23.4156 23.7509 23.5816 23.5858C23.7477 23.4208 23.8797 23.2351 23.9484 23.0696C24.0172 22.9041 24.0172 22.7723 23.9484 22.7033L16.4943 15.2243C18.0527 13.555 18.9257 11.3869 18.9362 9.12977C18.9362 7.32407 18.3809 5.55893 17.3405 4.05754C16.3002 2.55616 14.8215 1.38598 13.0914 0.694967C11.3613 0.00395609 9.4576 -0.176844 7.62097 0.17543C5.78434 0.527704 4.09728 1.39723 2.77315 2.67405C1.44901 3.95087 0.547259 5.57764 0.181931 7.34864C-0.183398 9.11964 0.00410255 10.9553 0.72072 12.6236C1.43734 14.2918 2.65089 15.7177 4.20791 16.7209ZM5.17014 2.92727C6.44234 2.10759 7.93804 1.67008 9.4681 1.67008C11.5198 1.67008 13.4876 2.45601 14.9384 3.85498C16.3892 5.25394 17.2042 7.15134 17.2042 9.12977C17.2042 10.6052 16.7505 12.0474 15.9005 13.2742C15.0504 14.5009 13.8422 15.457 12.4286 16.0216C11.015 16.5862 9.45952 16.734 7.95886 16.4461C6.4582 16.1583 5.07975 15.4478 3.99783 14.4046C2.91592 13.3613 2.17912 12.0321 1.88062 10.5851C1.58212 9.13805 1.73532 7.63815 2.32085 6.27507C2.90638 4.91199 3.89794 3.74695 5.17014 2.92727Z" fill="#191919"/>
</svg>
