<svg width="48" height="32" viewBox="0 0 48 32" fill="none" xmlns="http://www.w3.org/2000/svg">
<path d="M42.8235 1.31464e-06H5.17647C4.49655 -0.000473333 3.8232 0.127584 3.19494 0.376847C2.56667 0.62611 1.99583 0.991688 1.51505 1.45267C1.03427 1.91365 0.652995 2.461 0.393028 3.06339C0.133062 3.66578 -0.000493659 4.31141 1.3711e-06 4.96334V27.0367C-0.000493659 27.6886 0.133062 28.3342 0.393028 28.9366C0.652995 29.539 1.03427 30.0863 1.51505 30.5473C1.99583 31.0083 2.56667 31.3739 3.19494 31.6232C3.8232 31.8724 4.49655 32.0005 5.17647 32H42.8235C43.5034 32.0005 44.1768 31.8724 44.8051 31.6232C45.4333 31.3739 46.0042 31.0083 46.4849 30.5473C46.9657 30.0863 47.347 29.539 47.607 28.9366C47.8669 28.3342 48.0005 27.6886 48 27.0367V4.96334C48.0005 4.31141 47.8669 3.66578 47.607 3.06339C47.347 2.461 46.9657 1.91365 46.4849 1.45267C46.0042 0.991688 45.4333 0.62611 44.8051 0.376847C44.1768 0.127584 43.5034 -0.000473333 42.8235 1.31464e-06ZM45.1765 27.0186C45.1765 27.617 44.9286 28.1908 44.4873 28.6139C44.046 29.037 43.4476 29.2747 42.8235 29.2747H5.17647C4.55243 29.2747 3.95395 29.037 3.51269 28.6139C3.07143 28.1908 2.82353 27.617 2.82353 27.0186V4.96334C2.82353 4.36499 3.07143 3.79116 3.51269 3.36806C3.95395 2.94497 4.55243 2.70728 5.17647 2.70728H42.8235C43.4476 2.70728 44.046 2.94497 44.4873 3.36806C44.9286 3.79116 45.1765 4.36499 45.1765 4.96334V27.0186Z" fill="#191919"/>
<path d="M19.7269 22.5605H8.43276C8.05834 22.5605 7.69925 22.7032 7.43449 22.957C7.16973 23.2109 7.021 23.5552 7.021 23.9142C7.021 24.2732 7.16973 24.6175 7.43449 24.8714C7.69925 25.1252 8.05834 25.2678 8.43276 25.2678H19.7269C20.1013 25.2678 20.4604 25.1252 20.7251 24.8714C20.9899 24.6175 21.1386 24.2732 21.1386 23.9142C21.1386 23.5552 20.9899 23.2109 20.7251 22.957C20.4604 22.7032 20.1013 22.5605 19.7269 22.5605Z" fill="#191919"/>
<path d="M31.0779 22.5605H25.4308C25.0564 22.5605 24.6973 22.7032 24.4325 22.957C24.1678 23.2109 24.019 23.5552 24.019 23.9142C24.019 24.2732 24.1678 24.6175 24.4325 24.8714C24.6973 25.1252 25.0564 25.2678 25.4308 25.2678H31.0779C31.4523 25.2678 31.8114 25.1252 32.0761 24.8714C32.3409 24.6175 32.4896 24.2732 32.4896 23.9142C32.4896 23.5552 32.3409 23.2109 32.0761 22.957C31.8114 22.7032 31.4523 22.5605 31.0779 22.5605Z" fill="#191919"/>
<path d="M48 13.2837H0V18.6982H48V13.2837Z" fill="#E50A17"/>
</svg>
