<svg id="IconCheckCircle" xmlns="http://www.w3.org/2000/svg" width="23" height="23" viewBox="0 0 23 23">
  <g id="Grupo_77391" data-name="Grupo 77391">
    <path id="Trazado_74391" data-name="Trazado 74391" d="M12.25,23.75a11.5,11.5,0,1,1,11.5-11.5A11.513,11.513,0,0,1,12.25,23.75Zm0-21.647A10.147,10.147,0,1,0,22.4,12.25,10.162,10.162,0,0,0,12.25,2.1Z" transform="translate(-0.75 -0.75)" fill="#359e29"/>
  </g>
  <g id="Grupo_77392" data-name="Grupo 77392" transform="translate(6.057 7.684)">
    <path id="Trazado_74392" data-name="Trazado 74392" d="M10.32,17.352a.687.687,0,0,1-.514-.235l-2.174-2.5a.682.682,0,0,1,.063-.956.675.675,0,0,1,.956.072l1.741,2,7.622-6.314a.679.679,0,0,1,.866,1.046l-8.136,6.738A.75.75,0,0,1,10.32,17.352Z" transform="translate(-7.466 -9.269)" fill="#359e29"/>
  </g>
</svg>
