<svg xmlns="http://www.w3.org/2000/svg" width="47.75" height="38.063" viewBox="0 0 47.75 38.063">
  <g id="Group_82454" data-name="Group 82454" transform="translate(-85.25 -72)">
    <path id="Path_108697" data-name="Path 108697" d="M118.706,81.938H89.294a3.787,3.787,0,0,0-1.548.331,4.035,4.035,0,0,0-1.312.946,4.4,4.4,0,0,0-.877,1.416,4.659,4.659,0,0,0-.307,1.67v19.4a4.657,4.657,0,0,0,.307,1.67,4.4,4.4,0,0,0,.877,1.416,4.035,4.035,0,0,0,1.312.945,3.8,3.8,0,0,0,1.548.332h29.412a3.8,3.8,0,0,0,1.548-.332,4.025,4.025,0,0,0,1.312-.945,4.394,4.394,0,0,0,.877-1.416,4.668,4.668,0,0,0,.307-1.67V86.3a4.669,4.669,0,0,0-.307-1.67,4.389,4.389,0,0,0-.877-1.416,4.025,4.025,0,0,0-1.312-.946A3.787,3.787,0,0,0,118.706,81.938Zm1.838,23.746a2.066,2.066,0,0,1-.538,1.4,1.774,1.774,0,0,1-1.3.581H89.294a1.773,1.773,0,0,1-1.3-.581,2.063,2.063,0,0,1-.538-1.4V94.12h33.088ZM87.456,89.361V86.3a2.065,2.065,0,0,1,.538-1.4,1.773,1.773,0,0,1,1.3-.581h29.412a1.775,1.775,0,0,1,1.3.581,2.068,2.068,0,0,1,.538,1.4v3.077H87.456Zm4.382,14.785h8.824a1.066,1.066,0,0,0,.78-.349,1.256,1.256,0,0,0,0-1.682,1.066,1.066,0,0,0-.78-.349H91.838a1.065,1.065,0,0,0-.78.349,1.256,1.256,0,0,0,0,1.682A1.065,1.065,0,0,0,91.838,104.146Zm17.691,0h-4.411a1.064,1.064,0,0,1-.78-.349,1.256,1.256,0,0,1,0-1.682,1.064,1.064,0,0,1,.78-.349h4.411a1.063,1.063,0,0,1,.78.349,1.256,1.256,0,0,1,0,1.682A1.063,1.063,0,0,1,109.529,104.146Z" fill="#35158c" fill-rule="evenodd"/>
    <path id="Path_108698" data-name="Path 108698" d="M123,92a10.011,10.011,0,1,1,7.068-2.932A10,10,0,0,1,123,92Z" fill="#f2f2f2"/>
    <path id="Path_108699" data-name="Path 108699" d="M123,92a10.011,10.011,0,1,1,7.068-2.932A10,10,0,0,1,123,92Zm0-18.824a8.837,8.837,0,1,0,6.236,2.588A8.823,8.823,0,0,0,123,73.176Z" fill="#35158c"/>
    <path id="Path_108700" data-name="Path 108700" d="M120.749,85.713a.6.6,0,0,1-.447-.2l-1.891-2.179a.593.593,0,0,1,.055-.831.577.577,0,0,1,.2-.114.588.588,0,0,1,.631.177l1.514,1.741,6.628-5.494a.591.591,0,0,1,.753.91l-7.075,5.859A.653.653,0,0,1,120.749,85.713Z" fill="#35158c"/>
  </g>
</svg>
