<svg width="22" height="21" viewBox="0 0 22 21" fill="none" xmlns="http://www.w3.org/2000/svg">
<path d="M20.3462 4.23105L17.2381 1.12297C16.8344 0.716423 16.3044 0.45916 15.7352 0.393372C15.4352 0.357031 15.1308 0.389379 14.8452 0.487969C14.5595 0.58656 14.3 0.748813 14.0863 0.962457L10.3508 4.69799L1.9604 13.0738C1.59355 13.4475 1.38904 13.9509 1.39131 14.4746L0.55957 18.4436L0.574163 18.5895C0.626612 19.1795 0.884825 19.7322 1.30363 20.151C1.72243 20.5698 2.27515 20.828 2.8651 20.8804L3.01102 20.895L6.98002 20.0633C7.24046 20.0631 7.4983 20.0115 7.73871 19.9113C7.97911 19.8111 8.19734 19.6644 8.38085 19.4796L20.5067 7.35372C20.8974 6.91736 21.0998 6.34426 21.0697 5.75932C21.0397 5.17439 20.7796 4.62505 20.3462 4.23105ZM6.95084 17.8891L6.80492 17.8745L2.93806 18.6917C2.87098 18.6537 2.81549 18.5982 2.77754 18.5311L3.55092 14.8102L3.50714 14.6205L11.0949 7.00352L14.4511 10.3597L6.95084 17.8891ZM15.9978 8.81292L12.6417 5.45677L15.5163 2.58216C15.5846 2.59536 15.6463 2.63138 15.6914 2.68431L18.7995 5.79239C18.8579 5.85075 18.8724 5.90912 18.9162 5.89453L15.9978 8.81292Z" fill="#FCFCFC"/>
</svg>
