<svg xmlns="http://www.w3.org/2000/svg" width="5.008" height="20" viewBox="0 0 5.008 20">
  <g id="IconEllipsisVertical" transform="translate(0 0)">
    <path id="Trazado_75674" data-name="Trazado 75674" d="M12.684,5.728a2.5,2.5,0,1,1,2.5-2.5A2.511,2.511,0,0,1,12.684,5.728Zm0-3.834a1.33,1.33,0,1,0,1.33,1.33A1.329,1.329,0,0,0,12.684,1.894Z" transform="translate(-10.18 -0.72)" fill="#191919"/>
    <path id="Trazado_75675" data-name="Trazado 75675" d="M12.684,15.308a2.5,2.5,0,1,1,2.5-2.5A2.511,2.511,0,0,1,12.684,15.308Zm0-3.834a1.33,1.33,0,1,0,1.33,1.33A1.329,1.329,0,0,0,12.684,11.474Z" transform="translate(-10.18 -2.804)" fill="#191919"/>
    <path id="Trazado_75676" data-name="Trazado 75676" d="M12.684,24.888a2.5,2.5,0,1,1,2.5-2.5A2.511,2.511,0,0,1,12.684,24.888Zm0-3.834a1.33,1.33,0,1,0,1.33,1.33A1.329,1.329,0,0,0,12.684,21.054Z" transform="translate(-10.18 -4.888)" fill="#191919"/>
  </g>
</svg>
