<svg width="32" height="32" viewBox="0 0 32 32" fill="none" xmlns="http://www.w3.org/2000/svg">
<path d="M15.9753 15.0225L31.0342 7.47477V7.43525C31.0322 6.73719 30.7671 6.06831 30.2969 5.5747C29.8266 5.08109 29.1894 4.80287 28.5243 4.80078H3.42631C2.76128 4.80287 2.12405 5.08109 1.6538 5.5747C1.18355 6.06831 0.91849 6.73719 0.916504 7.43525V7.47477L15.9753 15.0225Z" fill="#E50A17"/>
<path d="M31.9749 10.0433V10.0038C31.9566 9.05746 31.5869 8.15605 30.9446 7.49169C30.3023 6.82733 29.4382 6.45257 28.5365 6.44727H3.43843C2.53533 6.44785 1.66865 6.82108 1.02538 7.48644C0.382114 8.1518 0.0138338 9.05595 9.14069e-07 10.0038V25.1783C-0.000329106 25.6541 0.0887079 26.1253 0.262019 26.565C0.43533 27.0046 0.689515 27.4041 1.01003 27.7405C1.33055 28.077 1.71112 28.3438 2.12996 28.5257C2.5488 28.7076 2.9977 28.8011 3.45098 28.8007H28.549C29.0023 28.8011 29.4512 28.7076 29.87 28.5257C30.2889 28.3438 30.6695 28.077 30.99 27.7405C31.3105 27.4041 31.5647 27.0046 31.738 26.565C31.9113 26.1253 32.0003 25.6541 32 25.1783V10.0697C31.9749 10.0565 31.9749 10.0565 31.9749 10.0433ZM3.42588 8.42312H28.5239C28.8435 8.42186 29.1554 8.52523 29.4163 8.71884C29.6772 8.91244 29.8741 9.18664 29.9796 9.50325L15.9749 16.5241L1.9702 9.50325C2.07566 9.18664 2.27256 8.91244 2.53349 8.71884C2.79441 8.52523 3.10636 8.42186 3.42588 8.42312ZM28.5239 26.8249H3.42588C3.21989 26.8249 3.01591 26.7823 2.8256 26.6995C2.63528 26.6168 2.46236 26.4955 2.3167 26.3426C2.17104 26.1897 2.05549 26.0082 1.97666 25.8084C1.89783 25.6087 1.85726 25.3946 1.85726 25.1783V11.6372L15.5733 18.5131C15.6993 18.5739 15.8363 18.6054 15.9749 18.6054C16.1135 18.6054 16.2505 18.5739 16.3765 18.5131L30.0926 11.6372V25.1783C30.0926 25.3946 30.052 25.6087 29.9731 25.8084C29.8943 26.0082 29.7788 26.1897 29.6331 26.3426C29.4875 26.4955 29.3145 26.6168 29.1242 26.6995C28.9339 26.7823 28.7299 26.8249 28.5239 26.8249Z" fill="white"/>
</svg>
