<svg width="98" height="98" viewBox="0 0 98 98" fill="none" xmlns="http://www.w3.org/2000/svg">
<g clip-path="url(#clip0_1333_1648)">
<path d="M49 98C76.062 98 98 76.062 98 49C98 21.938 76.062 0 49 0C21.938 0 0 21.938 0 49C0 76.062 21.938 98 49 98Z" fill="#F2F2F2"/>
</g>
<path d="M66.683 25.9988H57.1182V22.1765C57.1182 21.7318 56.9476 21.3054 56.6439 20.991C56.3402 20.6766 55.9283 20.5 55.4989 20.5C55.0694 20.5 54.6575 20.6766 54.3538 20.991C54.0502 21.3054 53.8795 21.7318 53.8795 22.1765V25.9988H41.6159V22.1765C41.6159 21.7318 41.4453 21.3054 41.1416 20.991C40.8379 20.6766 40.4261 20.5 39.9966 20.5C39.5671 20.5 39.1552 20.6766 38.8516 20.991C38.5479 21.3054 38.3773 21.7318 38.3773 22.1765V25.9988H28.8125C28.0326 25.9982 27.2603 26.1568 26.5396 26.4655C25.819 26.7743 25.1642 27.227 24.6128 27.7979C24.0613 28.3689 23.624 29.0467 23.3258 29.7928C23.0276 30.5389 22.8744 31.3385 22.875 32.1459V71.3529C22.8744 72.1604 23.0276 72.96 23.3258 73.706C23.624 74.4521 24.0613 75.13 24.6128 75.7009C25.1642 76.2718 25.819 76.7246 26.5396 77.0333C27.2603 77.342 28.0326 77.5006 28.8125 77.5H66.683C67.4628 77.5006 68.2352 77.342 68.9558 77.0333C69.6764 76.7246 70.3312 76.2718 70.8827 75.7009C71.4341 75.13 71.8715 74.4521 72.1697 73.706C72.4678 72.96 72.621 72.1604 72.6205 71.3529V32.1459C72.621 31.3385 72.4678 30.5389 72.1697 29.7928C71.8715 29.0467 71.4341 28.3689 70.8827 27.7979C70.3312 27.227 69.6764 26.7743 68.9558 26.4655C68.2352 26.1568 67.4628 25.9982 66.683 25.9988ZM28.8125 29.3518H66.683C67.3987 29.3518 68.0852 29.6461 68.5913 30.1701C69.0975 30.6941 69.3818 31.4048 69.3818 32.1459V35.7894H26.1136V32.1459C26.1136 31.4048 26.398 30.6941 26.9041 30.1701C27.4103 29.6461 28.0967 29.3518 28.8125 29.3518ZM66.683 74.1471H28.8125C28.0967 74.1471 27.4103 73.8527 26.9041 73.3287C26.398 72.8047 26.1136 72.094 26.1136 71.3529V39.1424H69.3818V71.3529C69.3818 72.094 69.0975 72.8047 68.5913 73.3287C68.0852 73.8527 67.3987 74.1471 66.683 74.1471Z" fill="#35158C"/>
<path d="M55.1111 55H40.8889C40.6531 55 40.427 54.8946 40.2603 54.7071C40.0936 54.5196 40 54.2652 40 54C40 53.7348 40.0936 53.4804 40.2603 53.2929C40.427 53.1054 40.6531 53 40.8889 53H55.1111C55.3469 53 55.573 53.1054 55.7397 53.2929C55.9064 53.4804 56 53.7348 56 54C56 54.2652 55.9064 54.5196 55.7397 54.7071C55.573 54.8946 55.3469 55 55.1111 55Z" fill="#35158C"/>
<defs>
<clipPath id="clip0_1333_1648">
<rect width="98" height="98" fill="white"/>
</clipPath>
</defs>
</svg>
