<svg id="Icon_metro-file-pdf" data-name="Icon metro-file-pdf" xmlns="http://www.w3.org/2000/svg" width="24" height="28" viewBox="0 0 24 28">
  <path id="Icon_metro-file-pdf-2" data-name="Icon metro-file-pdf" d="M25.508,8.141a3.636,3.636,0,0,1,.75,1.188,3.606,3.606,0,0,1,.312,1.375v18a1.494,1.494,0,0,1-1.5,1.5h-21a1.494,1.494,0,0,1-1.5-1.5V3.7a1.494,1.494,0,0,1,1.5-1.5h14a3.607,3.607,0,0,1,1.375.313,3.636,3.636,0,0,1,1.188.75ZM18.571,4.328V10.2h5.875a1.707,1.707,0,0,0-.344-.641L19.211,4.672a1.707,1.707,0,0,0-.641-.344Zm6,23.875v-16h-6.5a1.494,1.494,0,0,1-1.5-1.5V4.2h-12v24h20Zm-8.031-9.266a11.889,11.889,0,0,0,1.313.875A15.5,15.5,0,0,1,19.68,19.7q2.3,0,2.766.766a.755.755,0,0,1,.031.812.045.045,0,0,1-.016.031l-.031.031v.016q-.094.594-1.109.594a6.445,6.445,0,0,1-1.8-.313,11.393,11.393,0,0,1-2.031-.828,28.135,28.135,0,0,0-6.125,1.3Q8.977,26.2,7.586,26.2a.909.909,0,0,1-.437-.109l-.375-.187q-.016-.016-.094-.078a.646.646,0,0,1-.094-.562,3.393,3.393,0,0,1,.875-1.43,7.551,7.551,0,0,1,2.063-1.508.228.228,0,0,1,.359.094.09.09,0,0,1,.031.063q.812-1.328,1.672-3.078a23.848,23.848,0,0,0,1.625-4.094,12.631,12.631,0,0,1-.477-2.492,6.075,6.075,0,0,1,.1-1.992q.172-.625.656-.625h.344a.659.659,0,0,1,.547.234,1.248,1.248,0,0,1,.141,1.062.339.339,0,0,1-.063.125.407.407,0,0,1,.016.125v.469a20.461,20.461,0,0,1-.219,3,7.905,7.905,0,0,0,2.281,3.719Zm-9,6.422A6.9,6.9,0,0,0,9.68,22.891,8.907,8.907,0,0,0,8.313,24.2,5.193,5.193,0,0,0,7.539,25.36Zm6.219-14.375a4.646,4.646,0,0,0-.031,2.063q.016-.109.109-.688,0-.047.109-.672a.351.351,0,0,1,.063-.125.045.045,0,0,1-.016-.031.032.032,0,0,0-.008-.023.032.032,0,0,1-.008-.023.9.9,0,0,0-.2-.562.045.045,0,0,1-.016.031v.031ZM11.821,21.313a22.919,22.919,0,0,1,4.438-1.266,2.356,2.356,0,0,1-.2-.148,2.8,2.8,0,0,1-.25-.211,8.277,8.277,0,0,1-1.984-2.75,20.88,20.88,0,0,1-1.3,3.078q-.469.875-.7,1.3Zm10.094-.25a3.739,3.739,0,0,0-2.188-.375,5.91,5.91,0,0,0,1.938.438,1.515,1.515,0,0,0,.281-.016q0-.016-.031-.047Z" transform="translate(-2.571 -2.204)" fill="#191919"/>
</svg>
