<svg width="42" height="41" viewBox="0 0 42 41" fill="none" xmlns="http://www.w3.org/2000/svg">
<path d="M29.0186 39.7274H37.7561C38.6348 39.7249 39.4767 39.3936 40.098 38.8058C40.7193 38.218 41.0695 37.4215 41.0721 36.5902V30.7549H29.0186V39.7274Z" fill="#E50A17"/>
<path d="M41.0723 12.8098H5.34277V9.07646C5.3454 8.24518 5.6956 7.44864 6.3169 6.86083C6.93819 6.27302 7.7801 5.94169 8.65874 5.93921H37.7398C38.6184 5.94169 39.4603 6.27302 40.0816 6.86083C40.7029 7.44864 41.0531 8.24518 41.0557 9.07646V12.8098H41.0723Z" fill="#E50A17"/>
<path d="M34.4403 4.76263H27.0954V2.08028C27.0954 1.76826 26.9644 1.46902 26.7312 1.24839C26.498 1.02776 26.1817 0.903809 25.8519 0.903809C25.5221 0.903809 25.2058 1.02776 24.9726 1.24839C24.7394 1.46902 24.6084 1.76826 24.6084 2.08028V4.76263H15.1911V2.08028C15.1911 1.76826 15.0601 1.46902 14.8269 1.24839C14.5937 1.02776 14.2774 0.903809 13.9476 0.903809C13.6178 0.903809 13.3015 1.02776 13.0683 1.24839C12.8351 1.46902 12.7041 1.76826 12.7041 2.08028V4.76263H5.34266C4.74378 4.76222 4.15069 4.87352 3.59731 5.09015C3.04394 5.30679 2.54114 5.62452 2.11766 6.02517C1.69419 6.42582 1.35836 6.90153 1.12938 7.42508C0.900404 7.94863 0.782768 8.50976 0.783204 9.07636V36.5901C0.782768 37.1567 0.900404 37.7178 1.12938 38.2414C1.35836 38.7649 1.69419 39.2406 2.11766 39.6413C2.54114 40.0419 3.04394 40.3596 3.59731 40.5763C4.15069 40.7929 4.74378 40.9042 5.34266 40.9038H34.4237C35.0226 40.9042 35.6157 40.7929 36.169 40.5763C36.7224 40.3596 37.2252 40.0419 37.6487 39.6413C38.0721 39.2406 38.408 38.7649 38.637 38.2414C38.8659 37.7178 38.9836 37.1567 38.9831 36.5901V9.07636C38.9853 8.51061 38.8694 7.95003 38.6421 7.42675C38.4148 6.90348 38.0805 6.42781 37.6584 6.02704C37.2364 5.62627 36.7348 5.30827 36.1826 5.09129C35.6303 4.87432 35.0382 4.76263 34.4403 4.76263ZM15.1911 29.5783V22.9587H24.6084V29.5783H15.1911ZM24.6084 31.9313V38.5509H15.1911V31.9313H24.6084ZM24.6084 13.9862V20.6058H15.1911V13.9862H24.6084ZM36.5127 13.9862V20.6058H27.0954V13.9862H36.5127ZM12.7041 20.6058H3.27018V13.9862H12.6875V20.6058H12.7041ZM3.27018 22.9587H12.6875V29.5783H3.27018V22.9587ZM27.0954 22.9587H36.5127V29.5783H27.0954V22.9587ZM5.34266 7.11557H34.4237C34.9733 7.11557 35.5005 7.32216 35.8891 7.68987C36.2778 8.05759 36.4962 8.55633 36.4962 9.07636V11.6332H3.27018V9.07636C3.27018 8.55633 3.48853 8.05759 3.87719 7.68987C4.26586 7.32216 4.793 7.11557 5.34266 7.11557ZM3.27018 36.5901V31.9313H12.6875V38.5509H5.34266C4.793 38.5509 4.26586 38.3443 3.87719 37.9766C3.48853 37.6089 3.27018 37.1101 3.27018 36.5901ZM34.4403 38.5509H27.0954V31.9313H36.5127V36.5901C36.5127 37.1101 36.2944 37.6089 35.9057 37.9766C35.5171 38.3443 34.9899 38.5509 34.4403 38.5509Z" fill="#191919"/>
</svg>
