<svg id="IconClock" xmlns="http://www.w3.org/2000/svg" width="32" height="32" viewBox="0 0 32 32">
  <path id="Path_75678" data-name="Path 75678" d="M16.75,32.75a16,16,0,1,1,16-16A16.019,16.019,0,0,1,16.75,32.75Zm0-30.118A14.118,14.118,0,1,0,30.868,16.75,14.139,14.139,0,0,0,16.75,2.632Z" transform="translate(-0.75 -0.75)" fill="#35158c"/>
  <path id="Path_75679" data-name="Path 75679" d="M18.259,21.408a.931.931,0,0,1-.665-.276L12.75,16.288V5.031a.941.941,0,0,1,1.882,0V15.51L18.924,19.8a.947.947,0,0,1,0,1.33A.986.986,0,0,1,18.259,21.408Z" transform="translate(2.309 0.101)" fill="#35158c"/>
</svg>
