<svg xmlns="http://www.w3.org/2000/svg" width="14" height="15.273" viewBox="0 0 14 15.273">
  <path id="Trazado_109428" data-name="Trazado 109428" d="M14.637,5.473h2.692a1.691,1.691,0,0,1,.64.125,1.672,1.672,0,0,1,.542.357,1.644,1.644,0,0,1,.362.535A1.626,1.626,0,0,1,19,7.12V17.626a1.625,1.625,0,0,1-.127.63,1.644,1.644,0,0,1-.362.535,1.672,1.672,0,0,1-.542.357,1.691,1.691,0,0,1-.64.125H6.671a1.691,1.691,0,0,1-.64-.125,1.672,1.672,0,0,1-.542-.357,1.644,1.644,0,0,1-.362-.535A1.625,1.625,0,0,1,5,17.626V7.12a1.625,1.625,0,0,1,.127-.63,1.645,1.645,0,0,1,.362-.535A1.672,1.672,0,0,1,6.031,5.6a1.691,1.691,0,0,1,.64-.125H9.363V4.449A.446.446,0,0,1,9.5,4.132a.46.46,0,0,1,.644,0,.446.446,0,0,1,.134.318V5.473h3.451V4.449a.446.446,0,0,1,.134-.318.46.46,0,0,1,.644,0,.446.446,0,0,1,.134.318Zm2.692.9H6.671a.765.765,0,0,0-.537.219.743.743,0,0,0-.222.529V8.1H18.089V7.12a.743.743,0,0,0-.222-.529A.765.765,0,0,0,17.329,6.372Zm-10.658,12H17.329a.765.765,0,0,0,.537-.219.743.743,0,0,0,.222-.529V9H5.911v8.631a.743.743,0,0,0,.222.529A.765.765,0,0,0,6.671,18.374Zm3.413-2.329a.469.469,0,0,0,.19.041.45.45,0,0,0,.286-.1l4.582-3.737a.446.446,0,0,0,.054-.629.462.462,0,0,0-.637-.065l-4.235,3.462-.93-1.06a.452.452,0,0,0-.14-.109.459.459,0,0,0-.5.061.448.448,0,0,0-.043.635l1.221,1.39A.463.463,0,0,0,10.084,16.045Z" transform="translate(-5 -4)" fill="#359e29" fill-rule="evenodd"/>
</svg>
