<svg id="IconCalendarDays" xmlns="http://www.w3.org/2000/svg" width="25.299" height="28" viewBox="0 0 25.299 28">
  <path id="Calendario_días" data-name="Calendario días" d="M24.259,3.451H19.395V1.574a.824.824,0,0,0-1.647,0V3.451H11.511V1.574a.824.824,0,0,0-1.647,0V3.451H5a3.018,3.018,0,0,0-3.02,3.02v8.894h0v6.281h0V25.73A3.018,3.018,0,0,0,5,28.75h19.26a3.018,3.018,0,0,0,3.02-3.02V6.471A3.018,3.018,0,0,0,24.259,3.451ZM11.511,20.822V16.188h6.237v4.634Zm6.237,1.647V27.1H11.511V22.469Zm0-12.562v4.634H11.511V9.908Zm7.884,0v4.634H19.395V9.908ZM9.864,14.541H3.627V9.908H9.864ZM3.627,16.188H9.864v4.634H3.627Zm15.768,0h6.237v4.634H19.395ZM5,5.1h19.26a1.373,1.373,0,0,1,1.373,1.373v1.79h-22V6.471A1.373,1.373,0,0,1,5,5.1ZM3.627,25.73V22.469H9.864V27.1H5A1.373,1.373,0,0,1,3.627,25.73ZM24.259,27.1H19.395V22.469h6.237V25.73A1.373,1.373,0,0,1,24.259,27.1Z" transform="translate(-1.98 -0.75)" fill="#595959"/>
</svg>
