<svg xmlns="http://www.w3.org/2000/svg" width="31.962" height="31" viewBox="0 0 31.962 31">
  <g id="Grupo_82727" data-name="Grupo 82727" transform="translate(-5.649)">
    <path id="Trazado_109424" data-name="Trazado 109424" d="M18.965,0a13.606,13.606,0,0,0-7.4,2.178,13.015,13.015,0,0,0-4.9,5.8A12.569,12.569,0,0,0,5.9,15.444a12.809,12.809,0,0,0,3.644,6.617A13.446,13.446,0,0,0,16.367,25.6a13.693,13.693,0,0,0,7.694-.735,13.237,13.237,0,0,0,5.976-4.76A12.6,12.6,0,0,0,31.268,7.977a12.9,12.9,0,0,0-2.886-4.193,13.349,13.349,0,0,0-4.32-2.8A13.667,13.667,0,0,0,18.965,0Zm2.4,10.252a1.39,1.39,0,0,1,.426-1,1.485,1.485,0,0,1,2.056,0,1.39,1.39,0,0,1,.426,1V10.5a1.39,1.39,0,0,1-.426,1,1.485,1.485,0,0,1-2.056,0,1.39,1.39,0,0,1-.426-1ZM24.3,23.363a1.39,1.39,0,0,1-.426,1,1.485,1.485,0,0,1-2.056,0,1.39,1.39,0,0,1-.426-1v-8.3a1.39,1.39,0,0,1,.426-1,1.485,1.485,0,0,1,2.056,0,1.39,1.39,0,0,1,.426,1Z" transform="translate(0 0)" fill="#e50a17"/>
    <path id="Trazado_109425" data-name="Trazado 109425" d="M22.441,30.614A15.092,15.092,0,0,1,14.235,28.2,14.436,14.436,0,0,1,8.8,21.766a13.941,13.941,0,0,1-.84-8.282A14.208,14.208,0,0,1,12,6.145a14.914,14.914,0,0,1,7.562-3.923,15.188,15.188,0,0,1,8.534.816,14.684,14.684,0,0,1,6.628,5.279A14,14,0,0,1,32.878,26.41,15.022,15.022,0,0,1,22.441,30.614Zm0-25.827a12.12,12.12,0,0,0-6.59,1.94,11.593,11.593,0,0,0-4.369,5.166,11.2,11.2,0,0,0-.675,6.651,11.411,11.411,0,0,0,3.246,5.894,11.977,11.977,0,0,0,6.074,3.151,12.2,12.2,0,0,0,6.854-.655A11.793,11.793,0,0,0,32.3,22.7,11.246,11.246,0,0,0,30.825,8.162,12.059,12.059,0,0,0,22.441,4.787Z" transform="translate(0.4 0.386)" fill="#191919"/>
  </g>
</svg>
