<svg id="IconBell-Duo" xmlns="http://www.w3.org/2000/svg" width="22.626" height="32" viewBox="0 0 22.626 32">
  <path id="Trazado_75775" data-name="Trazado 75775" d="M18.067,4.592a1.692,1.692,0,0,0,.072-.389,1.8,1.8,0,0,0-3.605,0,1.848,1.848,0,0,0,.072.389A11.329,11.329,0,0,0,5.03,15.768V27.593a1.089,1.089,0,0,0,1.082,1.082H26.575a1.089,1.089,0,0,0,1.082-1.082V15.768A11.328,11.328,0,0,0,18.067,4.592Zm-2.091-.375a.361.361,0,0,1,.721,0,.264.264,0,0,1-.187.245c-.058,0-.115-.014-.173-.014s-.115.014-.173.014A.264.264,0,0,1,15.975,4.217Zm9.518,22.295H7.193V15.768a9.143,9.143,0,0,1,18.286,0V26.512Z" transform="translate(-5.03 -2.4)" fill="#191919"/>
  <path id="Trazado_75776" data-name="Trazado 75776" d="M13.423,22.09a1.8,1.8,0,1,0,1.8,1.8A1.8,1.8,0,0,0,13.423,22.09Zm-.361,1.8a.361.361,0,1,1,.721,0C13.783,24.3,13.062,24.3,13.062,23.893Z" transform="translate(-2.117 6.305)" fill="#191919"/>
</svg>
