<svg width="12" height="8" viewBox="0 0 12 8" fill="none" xmlns="http://www.w3.org/2000/svg">
<path d="M11.9644 0.576825C11.9301 0.476569 11.8755 0.383579 11.8037 0.303022C11.7315 0.222862 11.6443 0.155851 11.5467 0.105276C11.4481 0.0590652 11.3423 0.0282451 11.2333 0.014009C11.1244 -0.00466966 11.0129 -0.00466966 10.904 0.014009C10.8054 0.0600768 10.7179 0.124791 10.6469 0.204149L3.10333 6.08329L1.49661 4.29597C1.42333 4.21905 1.33423 4.15711 1.23476 4.11395C1.1353 4.07079 1.02757 4.04733 0.918188 4.04499C0.80938 4.03625 0.699832 4.0486 0.596237 4.08129C0.492643 4.11399 0.397175 4.16633 0.315667 4.23513C0.144852 4.36947 0.0331288 4.55931 0.00235578 4.76752C-0.0142961 4.9801 0.057818 5.19038 0.203196 5.35315L2.37227 7.7261C2.4518 7.81171 2.55064 7.87929 2.66148 7.92385C2.76829 7.97566 2.88693 8.00178 3.00693 7.99991C3.20648 7.99675 3.39902 7.92973 3.55321 7.80977L11.6913 1.42865C11.7771 1.36436 11.8482 1.28412 11.9001 1.19288C11.9545 1.09902 11.9874 0.995356 11.9965 0.888655C12.0063 0.783725 11.9954 0.677993 11.9644 0.576825Z" fill="white"/>
</svg>
