<svg width="40" height="38" viewBox="0 0 40 38" fill="none" xmlns="http://www.w3.org/2000/svg">
<path d="M10.1038 37.4798C6.52901 37.4754 3.07615 36.1799 0.380731 33.8318C0.191347 33.6651 0.0636658 33.4394 0.0182955 33.1912C-0.0270748 32.943 0.0125125 32.6867 0.130668 32.4638C1.03936 30.5698 2.44616 28.9587 4.20039 27.803C5.95462 26.6474 7.99018 25.9907 10.0891 25.9033C12.1894 25.9925 14.2261 26.6498 15.9824 27.8051C17.7387 28.9604 19.1486 30.5704 20.0621 32.4638C20.1832 32.686 20.2245 32.943 20.179 33.192C20.1335 33.4409 20.004 33.6668 19.8121 33.8318C17.1236 36.1818 13.6745 37.4778 10.1038 37.4798ZM2.54304 32.7433C4.72169 34.3853 7.37565 35.2734 10.1038 35.2734C12.8319 35.2734 15.4858 34.3853 17.6645 32.7433C16.8976 31.3969 15.8018 30.267 14.4795 29.4593C13.1572 28.6515 11.6517 28.1923 10.1038 28.1245C8.55536 28.1905 7.04914 28.649 5.72659 29.4569C4.40404 30.2649 3.30856 31.3957 2.54304 32.7433Z" fill="white"/>
<path d="M10.1042 24.5356C9.11798 24.5356 8.15388 24.2431 7.33385 23.6952C6.51381 23.1473 5.87468 22.3685 5.49726 21.4573C5.11984 20.5461 5.02109 19.5435 5.21349 18.5762C5.4059 17.6089 5.88082 16.7204 6.5782 16.023C7.27558 15.3256 8.1641 14.8507 9.1314 14.6583C10.0987 14.4659 11.1013 14.5647 12.0125 14.9421C12.9237 15.3195 13.7025 15.9586 14.2504 16.7787C14.7983 17.5987 15.0908 18.5628 15.0908 19.549C15.0896 20.8712 14.5639 22.1389 13.629 23.0738C12.694 24.0087 11.4264 24.5344 10.1042 24.5356ZM10.1042 16.7836C9.55437 16.7836 9.01686 16.9467 8.55968 17.2522C8.10249 17.5577 7.74616 17.9919 7.53574 18.4999C7.32532 19.0079 7.27026 19.5668 7.37753 20.1061C7.4848 20.6454 7.74958 21.1408 8.13839 21.5296C8.52719 21.9184 9.02256 22.1832 9.56185 22.2904C10.1011 22.3977 10.6601 22.3427 11.1681 22.1322C11.6761 21.9218 12.1103 21.5655 12.4158 21.1083C12.7213 20.6511 12.8843 20.1136 12.8843 19.5638C12.8824 18.827 12.5889 18.121 12.0679 17.6001C11.547 17.0791 10.841 16.7856 10.1042 16.7836Z" fill="white"/>
<path d="M23.4748 4.04493H37.8608C38.2429 4.04571 38.6091 4.19783 38.8792 4.468C39.1494 4.73818 39.3015 5.10439 39.3023 5.48647V14.6652C39.3015 15.0473 39.1494 15.4135 38.8792 15.6837C38.6091 15.9539 38.2429 16.106 37.8608 16.1068H27.7994L23.0335 18.0337C22.9249 18.0774 22.8073 18.0938 22.6908 18.0816C22.5744 18.0694 22.4627 18.0289 22.3656 17.9636C22.2684 17.8983 22.1886 17.8103 22.1333 17.7071C22.0779 17.604 22.0486 17.4889 22.048 17.3718V5.48647C22.0454 5.2977 22.0805 5.11031 22.1511 4.93523C22.2217 4.76015 22.3265 4.60088 22.4593 4.46671C22.5921 4.33253 22.7503 4.22614 22.9247 4.15372C23.099 4.08131 23.286 4.04433 23.4748 4.04493Z" fill="#E50A17"/>
<path d="M19.8123 16.2541C19.3286 16.2537 18.8649 16.0614 18.5229 15.7194C18.181 15.3774 17.9887 14.9137 17.9883 14.4301V2.54476C17.991 1.87068 18.26 1.22499 18.7366 0.748337C19.2133 0.271689 19.859 0.00271106 20.533 0H34.919C35.5931 0.00271106 36.2388 0.271689 36.7154 0.748337C37.1921 1.22499 37.461 1.87068 37.4638 2.54476V11.7235C37.461 12.3976 37.1921 13.0433 36.7154 13.5199C36.2388 13.9966 35.5931 14.2656 34.919 14.2683H25.0636L20.5036 16.1217C20.2837 16.2093 20.049 16.2543 19.8123 16.2541ZM20.533 2.20644C20.4437 2.20758 20.3583 2.24359 20.2951 2.30679C20.2319 2.36999 20.1959 2.45538 20.1947 2.54476V13.8564L24.6223 12.0618H34.9043C34.9937 12.0607 35.0791 12.0247 35.1423 11.9615C35.2055 11.8983 35.2415 11.8129 35.2426 11.7235V2.54476C35.2434 2.50011 35.2352 2.45576 35.2185 2.41435C35.2018 2.37294 35.1769 2.33533 35.1453 2.30375C35.1137 2.27218 35.0761 2.24728 35.0347 2.23056C34.9933 2.21384 34.9489 2.20564 34.9043 2.20644H20.533Z" fill="white"/>
</svg>
