<svg id="IconTimesCircle" xmlns="http://www.w3.org/2000/svg" width="23" height="23" viewBox="0 0 23 23">
  <path id="Trazado_75726" data-name="Trazado 75726" d="M12.25,23.75a11.5,11.5,0,1,1,11.5-11.5A11.513,11.513,0,0,1,12.25,23.75Zm0-21.647A10.147,10.147,0,1,0,22.4,12.25,10.162,10.162,0,0,0,12.25,2.1Z" transform="translate(-0.75 -0.75)" fill="#bd2a24"/>
  <path id="Trazado_75727" data-name="Trazado 75727" d="M13.958,13l3.427-3.427a.676.676,0,0,0-.956-.956L13,12.046,9.575,8.619a.676.676,0,0,0-.956.956L12.046,13,8.619,16.43a.681.681,0,0,0,0,.956.669.669,0,0,0,.478.2.692.692,0,0,0,.478-.2L13,13.958l3.427,3.427a.675.675,0,0,0,.956,0,.681.681,0,0,0,0-.956Z" transform="translate(-1.502 -1.502)" fill="#bd2a24"/>
</svg>
