<svg id="IconClock" xmlns="http://www.w3.org/2000/svg" width="14.808" height="16" viewBox="0 0 14.808 16">
  <path id="Path_101951" data-name="Path 101951" d="M15.273,13.831a.479.479,0,0,1-.314-.125L12.7,11.447V6.3a.5.5,0,0,1,.5-.5.462.462,0,0,1,.5.5v4.769l1.945,1.945a.492.492,0,0,1,0,.69A.892.892,0,0,1,15.273,13.831Z" transform="translate(-5.735 -2.6)" fill="#3687b3"/>
  <path id="Path_101952" data-name="Path 101952" d="M12.078,2.645V1.829A1.125,1.125,0,0,0,10.949.7H7.184A1.125,1.125,0,0,0,6.055,1.829v.753A7.38,7.38,0,0,0,1.6,9.359,7.5,7.5,0,0,0,9.067,16.7,7.353,7.353,0,0,0,12.078,2.645Zm-5.02-.816A.135.135,0,0,1,7.184,1.7h3.765a.135.135,0,0,1,.125.125v.439A7.889,7.889,0,0,0,9,1.955,10.337,10.337,0,0,0,7,2.206V1.829ZM9.067,15.822a6.387,6.387,0,0,1-6.4-6.4A6.494,6.494,0,0,1,9.067,2.9a6.387,6.387,0,0,1,6.4,6.4A6.494,6.494,0,0,1,9.067,15.822Z" transform="translate(-1.6 -0.7)" fill="#3687b3"/>
</svg>
