<svg xmlns="http://www.w3.org/2000/svg" width="24" height="18" viewBox="0 0 24 18">
  <path id="Trazado_110077" data-name="Trazado 110077" d="M11.822,14.66a3.751,3.751,0,0,1-2.1-.646A3.82,3.82,0,0,1,8.326,12.3a3.864,3.864,0,0,1,.82-4.174,3.759,3.759,0,0,1,5.822.58,3.856,3.856,0,0,1-.474,4.832A3.772,3.772,0,0,1,11.822,14.66Zm0-6.223a2.345,2.345,0,0,0-1.314.4,2.388,2.388,0,0,0-.871,1.074,2.415,2.415,0,0,0,.513,2.609,2.349,2.349,0,0,0,3.638-.363,2.457,2.457,0,0,0,.225-2.249,2.373,2.373,0,0,0-.512-.78,2.342,2.342,0,0,0-.77-.518A2.317,2.317,0,0,0,11.822,8.436Zm9.052,4.852a2.956,2.956,0,0,0,1.164.222,3.009,3.009,0,0,0,2.141-.9,3.09,3.09,0,0,0,0-4.333,3.009,3.009,0,0,0-2.141-.9,2.97,2.97,0,0,0-2.152.886,3.119,3.119,0,0,0,0,4.356A2.986,2.986,0,0,0,20.874,13.288Zm.041-3.978a1.648,1.648,0,0,1,1.123-.491,1.584,1.584,0,0,1,1.141.472,1.624,1.624,0,0,1,.467,1.155,1.638,1.638,0,0,1-.471,1.151,1.595,1.595,0,0,1-2.274,0,1.638,1.638,0,0,1-.471-1.151A1.688,1.688,0,0,1,20.915,9.31ZM4.254,22.128A11.648,11.648,0,0,0,11.822,25a11.46,11.46,0,0,0,7.568-2.872.618.618,0,0,0,.174-.168.627.627,0,0,0,.1-.223.634.634,0,0,0,.005-.244.627.627,0,0,0-.087-.227c-1.8-3.255-4.635-5.17-7.757-5.17A8.854,8.854,0,0,0,7.227,17.58a9.006,9.006,0,0,0-3.162,3.686.738.738,0,0,0,.189.862Zm7.662,1.436a9.854,9.854,0,0,1-6.243-2.106,7.479,7.479,0,0,1,2.608-2.8,7.363,7.363,0,0,1,3.635-1.126,7.363,7.363,0,0,1,3.635,1.126,7.479,7.479,0,0,1,2.608,2.8A10.448,10.448,0,0,1,11.917,23.564ZM21,21.266a3.838,3.838,0,0,0,1.041.1,7.652,7.652,0,0,0,5.676-2.3.62.62,0,0,0,.174-.168A.629.629,0,0,0,27.9,18.2a7.055,7.055,0,0,0-2.433-2.841,6.937,6.937,0,0,0-3.527-1.18,6.186,6.186,0,0,0-2.476.53,6.25,6.25,0,0,0-2.065,1.48.751.751,0,0,0,.011,1.042.73.73,0,0,0,1.029.011,5.011,5.011,0,0,1,1.589-1.168,4.96,4.96,0,0,1,1.911-.46,5.472,5.472,0,0,1,2.568.822,5.555,5.555,0,0,1,1.878,1.955,7.594,7.594,0,0,1-5.3,1.436.706.706,0,0,0-.529.168.72.72,0,0,0-.175.225.727.727,0,0,0,.107.806.713.713,0,0,0,.227.17A.706.706,0,0,0,21,21.266Z" transform="translate(-4 -7)" fill="#311786" fill-rule="evenodd"/>
</svg>
