<svg width="38" height="40" viewBox="0 0 38 40" fill="none" xmlns="http://www.w3.org/2000/svg">
<path d="M38.0002 11.9059H4.27246V8.17253C4.27494 7.34125 4.60552 6.54471 5.19201 5.9569C5.77849 5.36909 6.57323 5.03776 7.40264 5.03528H34.8543C35.6837 5.03776 36.4785 5.36909 37.065 5.9569C37.6514 6.54471 37.982 7.34125 37.9845 8.17253V11.9059H38.0002Z" fill="#E50A17"/>
<path d="M25.1821 24.4078H19.5791V18.7921C19.5791 18.4801 19.4554 18.1809 19.2353 17.9602C19.0151 17.7396 18.7166 17.6157 18.4052 17.6157C18.0939 17.6157 17.7954 17.7396 17.5752 17.9602C17.3551 18.1809 17.2314 18.4801 17.2314 18.7921V24.4078H11.6284C11.3171 24.4078 11.0185 24.5318 10.7984 24.7524C10.5783 24.973 10.4546 25.2723 10.4546 25.5843C10.4546 25.8963 10.5783 26.1956 10.7984 26.4162C11.0185 26.6368 11.3171 26.7608 11.6284 26.7608H17.2314V32.3764C17.2314 32.6885 17.3551 32.9877 17.5752 33.2083C17.7954 33.429 18.0939 33.5529 18.4052 33.5529C18.7166 33.5529 19.0151 33.429 19.2353 33.2083C19.4554 32.9877 19.5791 32.6885 19.5791 32.3764V26.7608H25.1821C25.4934 26.7608 25.792 26.6368 26.0121 26.4162C26.2322 26.1956 26.3559 25.8963 26.3559 25.5843C26.3559 25.2723 26.2322 24.973 26.0121 24.7524C25.792 24.5318 25.4934 24.4078 25.1821 24.4078Z" fill="#191919"/>
<path d="M31.7713 3.85882H24.838V1.17647C24.838 0.864451 24.7143 0.565211 24.4942 0.34458C24.274 0.123949 23.9755 0 23.6642 0C23.3528 0 23.0543 0.123949 22.8341 0.34458C22.614 0.565211 22.4903 0.864451 22.4903 1.17647V3.85882H13.6006V1.17647C13.6006 0.864451 13.477 0.565211 13.2568 0.34458C13.0367 0.123949 12.7381 0 12.4268 0C12.1155 0 11.8169 0.123949 11.5968 0.34458C11.3767 0.565211 11.253 0.864451 11.253 1.17647V3.85882H4.304C3.73867 3.85841 3.17881 3.96971 2.65644 4.18635C2.13407 4.40299 1.65944 4.72072 1.25969 5.12136C0.85995 5.52201 0.542935 5.99772 0.326785 6.52127C0.110635 7.04482 -0.000410454 7.60595 1.14001e-06 8.17255V35.6863C-0.000410454 36.2529 0.110635 36.814 0.326785 37.3376C0.542935 37.8611 0.85995 38.3368 1.25969 38.7375C1.65944 39.1381 2.13407 39.4558 2.65644 39.6725C3.17881 39.8891 3.73867 40.0004 4.304 40H31.7557C32.321 40.0004 32.8809 39.8891 33.4032 39.6725C33.9256 39.4558 34.4002 39.1381 34.8 38.7375C35.1997 38.3368 35.5167 37.8611 35.7329 37.3376C35.949 36.814 36.0601 36.2529 36.0597 35.6863V8.17255C36.0617 7.6068 35.9523 7.04622 35.7378 6.52294C35.5232 5.99967 35.2076 5.524 34.8092 5.12323C34.4108 4.72246 33.9373 4.40446 33.416 4.18749C32.8947 3.97051 32.3358 3.85882 31.7713 3.85882ZM4.304 6.21176H31.7557C32.2745 6.21176 32.7721 6.41835 33.139 6.78607C33.5059 7.15378 33.712 7.65252 33.712 8.17255V10.7294H2.34764V8.17255C2.34764 7.65252 2.55375 7.15378 2.92064 6.78607C3.28753 6.41835 3.78514 6.21176 4.304 6.21176ZM31.7713 37.6471H4.304C3.78514 37.6471 3.28753 37.4405 2.92064 37.0728C2.55375 36.705 2.34764 36.2063 2.34764 35.6863V13.0824H33.712V35.6863C33.7149 35.9433 33.6669 36.1982 33.5705 36.4364C33.4742 36.6746 33.3316 36.8912 33.1511 37.0737C32.9705 37.2561 32.7555 37.4008 32.5186 37.4992C32.2818 37.5977 32.0277 37.6479 31.7713 37.6471Z" fill="#191919"/>
</svg>
