<svg class="mb-3" id="IconMenu" xmlns="http://www.w3.org/2000/svg" width="25.5" height="21.64" viewBox="0 0 25.5 21.64" fill="none">
    <path id="Path_75640" data-name="Path 75640" d="M25.5,4.18H1.5a.75.75,0,1,1,0-1.5h24a.75.75,0,1,1,0,1.5Z" transform="translate(-0.75 -2.68)" fill-rule="evenodd" clip-rule="evenodd" fill="currentColor"></path><path id="Path_75641" data-name="Path 75641" d="M25.5,10.89H1.5a.75.75,0,1,1,0-1.5h24a.75.75,0,0,1,0,1.5Z" transform="translate(-0.75 -2.68)" fill-rule="evenodd" clip-rule="evenodd" fill="currentColor"></path><path id="Path_75642" data-name="Path 75642" d="M12.66,24.32H1.5a.75.75,0,0,1,0-1.5H12.66a.75.75,0,0,1,0,1.5Z" transform="translate(-0.75 -2.68)" fill-rule="evenodd" clip-rule="evenodd" fill="currentColor"></path><path id="Path_75643" data-name="Path 75643" d="M25.5,17.61H1.5a.75.75,0,0,1,0-1.5h24a.75.75,0,0,1,0,1.5Z" transform="translate(-0.75 -2.68)" fill-rule="evenodd" clip-rule="evenodd" fill="currentColor"></path>
</svg>