<svg width="32" height="32" viewBox="0 0 32 32" fill="none" xmlns="http://www.w3.org/2000/svg">
<path fill-rule="evenodd" clip-rule="evenodd" d="M26.542 10.2575C27.5017 12.0195 28.003 13.9939 28 15.9997C27.9979 17.7101 27.629 19.4002 26.9179 20.9564C26.2068 22.5125 25.1701 23.8985 23.8776 25.0211C23.8729 25.0258 23.8682 25.0328 23.8635 25.0399C23.8588 25.0469 23.8541 25.0539 23.8494 25.0586C23.8289 25.0853 23.8033 25.1077 23.7741 25.1244C23.5953 25.2748 23.4165 25.4157 23.2282 25.5567C23.194 25.5823 23.1606 25.608 23.1276 25.6333C23.0517 25.6917 22.9775 25.7486 22.8988 25.801C22.7106 25.9326 22.5129 26.0642 22.3153 26.1863C22.2588 26.2192 22.2023 26.2545 22.1459 26.2897C22.0894 26.3249 22.0329 26.3602 21.9765 26.3931L21.9764 26.3931C21.7694 26.5058 21.5623 26.6186 21.3553 26.722C21.2423 26.7877 21.12 26.8441 20.9976 26.9005C20.7906 26.9945 20.5741 27.0885 20.3576 27.173L19.9623 27.314C19.7553 27.3892 19.5388 27.455 19.3223 27.5207C19.1718 27.5677 19.0212 27.6053 18.8612 27.6429C18.6635 27.6993 18.4659 27.7463 18.2588 27.7839C18.0518 27.8215 17.8541 27.8496 17.647 27.8778C17.5725 27.8866 17.4979 27.8974 17.4223 27.9083C17.3358 27.9209 17.2481 27.9336 17.1576 27.9436C16.7718 27.9812 16.3953 28 16.0094 28C15.6235 28 15.2376 27.9812 14.8612 27.9436C14.7707 27.9336 14.683 27.9209 14.5965 27.9083C14.5209 27.8974 14.4463 27.8866 14.3718 27.8778C14.3235 27.8713 14.2757 27.8652 14.2283 27.8592C14.0721 27.8393 13.9188 27.8199 13.76 27.7839C13.5533 27.737 13.356 27.69 13.1586 27.6431L13.1576 27.6429L13.1576 27.6429C12.9976 27.6053 12.8376 27.5677 12.687 27.5207C12.4706 27.455 12.2541 27.3892 12.047 27.314C11.9059 27.267 11.7741 27.22 11.6423 27.1636C11.4259 27.0791 11.2094 26.9851 11.0023 26.8911C10.9412 26.8629 10.88 26.8324 10.8188 26.8018C10.7576 26.7713 10.6965 26.7408 10.6353 26.7126C10.4282 26.6092 10.2212 26.4964 10.0235 26.3837C9.90117 26.3179 9.78822 26.2521 9.67528 26.1769C9.47764 26.0548 9.27999 25.9232 9.09175 25.7916C9.01304 25.7392 8.9389 25.6823 8.86295 25.6239C8.82993 25.5986 8.79657 25.5729 8.76234 25.5473C8.57411 25.4063 8.39528 25.2654 8.21646 25.115C8.19597 25.0883 8.17038 25.066 8.14116 25.0492C8.13646 25.0445 8.13175 25.0375 8.12705 25.0305C8.12234 25.0234 8.11764 25.0164 8.11293 25.0117C6.59895 23.6934 5.44064 22.0167 4.74422 20.1354C4.04779 18.254 3.83553 16.2282 4.1269 14.2437C4.41827 12.2592 5.20394 10.3794 6.41188 8.77684C7.61981 7.17424 9.21137 5.90006 11.0406 5.07112C12.8698 4.24219 14.8782 3.88503 16.8816 4.03238C18.885 4.17974 20.8193 4.8269 22.5071 5.91453C24.195 7.00216 25.5823 8.49545 26.542 10.2575ZM6.65398 11.0221C5.83692 12.5543 5.41028 14.2638 5.41175 15.9997C5.41279 18.7752 6.50826 21.4388 8.46116 23.4141C9.23434 22.0881 10.3311 20.979 11.6493 20.1903C12.9675 19.4016 14.4642 18.9589 16 18.9034C17.5357 18.9589 19.0325 19.4016 20.3507 20.1903C21.6688 20.979 22.7656 22.0881 23.5388 23.4141C24.7596 22.1782 25.6567 20.6612 26.1511 18.997C26.6455 17.3328 26.7218 15.5727 26.3734 13.8721C26.025 12.1714 25.2626 10.5826 24.1534 9.24594C23.0443 7.90926 21.6225 6.86584 20.0138 6.20781C18.405 5.54979 16.6587 5.29741 14.9291 5.47296C13.1995 5.64851 11.5399 6.2466 10.0966 7.2144C8.6534 8.1822 7.47104 9.48994 6.65398 11.0221ZM22.1082 24.6097C22.1616 24.571 22.2149 24.5324 22.2682 24.4948C22.3206 24.4621 22.3684 24.4249 22.418 24.3863C22.4397 24.3694 22.4618 24.3522 22.4847 24.3351C21.8421 23.1631 20.9077 22.1765 19.7718 21.4703C18.6359 20.7641 17.3368 20.3623 16 20.3036C14.6629 20.3611 13.3633 20.7624 12.2272 21.4688C11.0911 22.1751 10.157 23.1624 9.51528 24.3351C9.54822 24.3632 9.58351 24.3891 9.6188 24.4149C9.6541 24.4408 9.6894 24.4666 9.72234 24.4948C9.77568 24.5324 9.82902 24.571 9.88235 24.6097C9.98902 24.6869 10.0957 24.7642 10.2023 24.8331C10.24 24.8613 10.2776 24.8848 10.3153 24.9083C10.3529 24.9318 10.3906 24.9553 10.4282 24.9835C10.8282 25.2284 11.2431 25.4481 11.6706 25.6413C11.7067 25.653 11.7415 25.6688 11.7741 25.6883C11.9153 25.7476 12.0623 25.8011 12.2059 25.8533C12.2442 25.8673 12.2823 25.8811 12.32 25.895C12.3468 25.9053 12.3732 25.9156 12.3994 25.9258C12.4923 25.9622 12.5821 25.9972 12.6776 26.0266C12.8376 26.083 13.007 26.1299 13.1765 26.1769C13.2139 26.1869 13.2519 26.1975 13.2904 26.2082C13.3974 26.2381 13.5081 26.269 13.6188 26.2897C13.6941 26.3038 13.7718 26.3202 13.8494 26.3367C13.9271 26.3531 14.0047 26.3696 14.08 26.3837L14.6447 26.4682C14.767 26.487 14.8988 26.5058 15.0212 26.5152C15.3412 26.5434 15.6706 26.5622 16 26.5622C16.3294 26.5622 16.6588 26.5434 16.9788 26.5152C17.1012 26.5058 17.2329 26.487 17.3553 26.4682C17.5435 26.4494 17.7318 26.4213 17.92 26.3837C17.9404 26.3798 17.961 26.376 17.9817 26.3722C18.1138 26.3477 18.251 26.3222 18.3812 26.2897C18.5318 26.2521 18.6823 26.2145 18.8235 26.1769L18.8236 26.1769C18.993 26.1299 19.1624 26.0829 19.3318 26.0266C19.3792 26.0083 19.4253 25.9915 19.4705 25.975C19.5418 25.949 19.6109 25.9238 19.68 25.895C19.7694 25.8574 19.8612 25.8222 19.9529 25.7869C20.0447 25.7517 20.1365 25.7165 20.2259 25.6789C20.24 25.6742 20.2518 25.6671 20.2635 25.6601C20.2753 25.653 20.287 25.646 20.3012 25.6413C20.7399 25.4455 21.1645 25.2194 21.5718 24.9647C21.601 24.9464 21.6302 24.9296 21.6589 24.9131C21.7041 24.8871 21.7479 24.8619 21.7882 24.8331C21.8949 24.7642 22.0016 24.6869 22.1082 24.6097ZM18.1604 16.0476C17.5211 16.4749 16.7693 16.7035 16 16.7044C14.9672 16.7024 13.9773 16.2919 13.247 15.5627C12.5167 14.8336 12.1055 13.8452 12.1035 12.8139C12.1044 12.0458 12.3334 11.2952 12.7614 10.6569C13.1893 10.0186 13.7972 9.52127 14.5081 9.22775C15.2191 8.93423 16.0012 8.85767 16.7557 9.00776C17.5102 9.15784 18.2032 9.52783 18.7472 10.071C19.2912 10.6141 19.6617 11.3061 19.812 12.0594C19.9623 12.8127 19.8857 13.5937 19.5917 14.3035C19.2977 15.0133 18.7996 15.6203 18.1604 16.0476ZM17.3804 10.7606C16.9718 10.488 16.4914 10.3425 16 10.3425C15.3413 10.3434 14.7099 10.6051 14.2441 11.0702C13.7784 11.5352 13.5163 12.1657 13.5153 12.8233C13.5153 13.314 13.661 13.7937 13.934 14.2016C14.2071 14.6096 14.5951 14.9276 15.0491 15.1154C15.5032 15.3032 16.0027 15.3523 16.4847 15.2566C16.9667 15.1608 17.4094 14.9246 17.7569 14.5776C18.1044 14.2306 18.3411 13.7886 18.4369 13.3073C18.5328 12.8261 18.4836 12.3273 18.2956 11.8739C18.1075 11.4206 17.789 11.0332 17.3804 10.7606Z" fill="#191919"/>
</svg>
