<svg width="32" height="32" viewBox="0 0 32 32" fill="none" xmlns="http://www.w3.org/2000/svg">
<path fill-rule="evenodd" clip-rule="evenodd" d="M25.4351 6.65C24.8828 6.1 24.2385 5.73333 23.5941 5.36667C22.9498 5 22.0293 5 21.2929 5H10.7992C9.23431 5 7.76151 5.64167 6.6569 6.65C5.64435 7.75 5 9.21667 5 10.775V21.225C5 22.7833 5.64435 24.25 6.6569 25.2583C7.76151 26.3583 9.23431 27 10.7992 27H21.2929C22.8577 27 24.3305 26.3583 25.3431 25.35C26.4477 24.25 27 22.7833 27 21.3167V10.775C27 10.0417 26.8159 9.30833 26.5397 8.575C26.3556 7.84167 25.8954 7.2 25.4351 6.65ZM16 10.8667C15.2667 10.8667 14.5333 11.05 13.8 11.325C13.1583 11.6917 12.5167 12.15 12.0583 12.7C11.6 13.25 11.2333 13.9834 11.05 14.7167C10.8667 15.45 10.8667 16.1834 10.9583 16.9167C11.1417 17.925 11.6 18.8417 12.3333 19.4834C13.0667 20.2167 13.9833 20.675 14.9 20.8584C15.2667 20.95 15.5417 20.95 15.9083 20.95C16.55 20.95 17.2833 20.8584 17.8333 20.5834C18.9333 20.125 19.85 19.3 20.4 18.2917C20.95 17.2834 21.1333 16.0917 20.8583 14.9C20.5833 13.7084 20.0333 12.7 19.1167 11.9667C18.2917 11.325 17.1917 10.8667 16 10.8667ZM19.1167 16.6417C19.025 17.2834 18.6583 17.8334 18.2 18.2917C17.7417 18.75 17.1917 19.025 16.55 19.2084C15.9083 19.3 15.2667 19.3 14.7167 19.025C14.1667 18.75 13.6167 18.2917 13.3417 17.8334C12.975 17.2834 12.7917 16.6417 12.7917 16C12.7917 15.5417 12.8833 15.175 13.0667 14.8084C13.25 14.4417 13.4333 14.075 13.8 13.8C14.075 13.525 14.4417 13.25 14.8083 13.0667C15.175 12.8834 15.6333 12.7917 16.0917 12.7917C16.7333 12.7917 17.375 12.975 17.925 13.3417C18.475 13.7084 18.8417 14.1667 19.1167 14.8084C19.2083 15.3584 19.3 16 19.1167 16.6417ZM23.425 9.76667C23.425 10.4083 22.9667 10.8667 22.325 10.8667C21.6833 10.8667 21.1333 10.3167 21.225 9.76667C21.225 9.125 21.6833 8.66667 22.325 8.66667C22.9667 8.66667 23.425 9.125 23.425 9.76667Z" fill="white"/>
</svg>
