<svg width="27" height="21" viewBox="0 0 27 21" fill="none" xmlns="http://www.w3.org/2000/svg">
<path d="M0.980899 10.7904C1.01877 10.8796 1.07304 10.9611 1.1409 11.0304L10.4109 20.3004C10.4796 20.374 10.5624 20.4331 10.6544 20.4741C10.7464 20.5151 10.8457 20.5372 10.9464 20.5389C11.0471 20.5407 11.1471 20.5222 11.2405 20.4845C11.3339 20.4468 11.4187 20.3906 11.4899 20.3194C11.5612 20.2482 11.6173 20.1633 11.655 20.07C11.6927 19.9766 11.7113 19.8765 11.7095 19.7758C11.7077 19.6751 11.6857 19.5758 11.6447 19.4838C11.6037 19.3918 11.5446 19.309 11.4709 19.2404L3.4809 11.2504L25.6709 11.2504C25.8698 11.2504 26.0606 11.1713 26.2012 11.0307C26.3419 10.89 26.4209 10.6993 26.4209 10.5004C26.4209 10.3014 26.3419 10.1107 26.2012 9.97002C26.0606 9.82937 25.8698 9.75035 25.6709 9.75035L3.4809 9.75035L11.4709 1.76035C11.6104 1.61922 11.6886 1.42878 11.6886 1.23035C11.6886 1.03192 11.6104 0.841492 11.4709 0.700354C11.4014 0.63057 11.3188 0.575198 11.2279 0.537415C11.1369 0.499632 11.0394 0.480183 10.9409 0.480183C10.8424 0.480183 10.7449 0.499632 10.6539 0.537415C10.563 0.575198 10.4804 0.63057 10.4109 0.700354L1.1409 9.97035C1.07304 10.0396 1.01877 10.1211 0.980899 10.2104C0.941327 10.3019 0.920915 10.4006 0.920915 10.5004C0.920915 10.6001 0.941327 10.6988 0.980899 10.7904Z" fill="white"/>
</svg>
