<svg width="27" height="21" viewBox="0 0 27 21" fill="none" xmlns="http://www.w3.org/2000/svg">
<path d="M0.981875 10.7904C1.01974 10.8796 1.07401 10.9611 1.14188 11.0304L10.4119 20.3004C10.4805 20.374 10.5633 20.4331 10.6553 20.4741C10.7473 20.5151 10.8467 20.5372 10.9474 20.5389C11.0481 20.5407 11.1481 20.5222 11.2415 20.4845C11.3349 20.4468 11.4197 20.3906 11.4909 20.3194C11.5621 20.2482 11.6183 20.1633 11.656 20.07C11.6937 19.9766 11.7122 19.8765 11.7105 19.7758C11.7087 19.6751 11.6866 19.5758 11.6457 19.4838C11.6047 19.3918 11.5456 19.309 11.4719 19.2404L3.48188 11.2504L25.6719 11.2504C25.8708 11.2504 26.0616 11.1713 26.2022 11.0307C26.3429 10.89 26.4219 10.6993 26.4219 10.5004C26.4219 10.3014 26.3429 10.1107 26.2022 9.97002C26.0616 9.82937 25.8708 9.75035 25.6719 9.75035L3.48188 9.75035L11.4719 1.76035C11.6114 1.61922 11.6896 1.42878 11.6896 1.23035C11.6896 1.03192 11.6114 0.841492 11.4719 0.700354C11.4024 0.63057 11.3198 0.575198 11.2288 0.537415C11.1379 0.499632 11.0404 0.480183 10.9419 0.480183C10.8434 0.480183 10.7459 0.499632 10.6549 0.537415C10.564 0.575198 10.4814 0.63057 10.4119 0.700354L1.14188 9.97035C1.07401 10.0396 1.01974 10.1211 0.981875 10.2104C0.942304 10.3019 0.921891 10.4006 0.921891 10.5004C0.921891 10.6001 0.942304 10.6988 0.981875 10.7904Z" fill="#E50A17"/>
</svg>
