<svg width="32" height="32" viewBox="0 0 32 32" fill="none" xmlns="http://www.w3.org/2000/svg">
<g id="IconUPC/RRSS/Linkedin-solid">
<path id="Vector" d="M22.001 4.99951H10.0145C9.35799 4.99951 8.70787 5.12883 8.1013 5.38008C7.49473 5.63133 6.94359 5.99959 6.47934 6.46384C6.01509 6.92808 5.64683 7.47923 5.39558 8.0858C5.14433 8.69237 5.01501 9.34249 5.01501 9.99904V21.9855C5.01501 23.3115 5.54175 24.5831 6.47934 25.5207C7.41693 26.4583 8.68858 26.985 10.0145 26.985H22.001C23.3232 26.983 24.5907 26.4568 25.5257 25.5218C26.4607 24.5869 26.9869 23.3194 26.9889 21.9971V10.0106C26.9909 9.35395 26.8635 8.7033 26.6138 8.09592C26.3642 7.48854 25.9972 6.93633 25.5339 6.4709C25.0707 6.00548 24.5202 5.63596 23.914 5.38348C23.3077 5.13101 22.6577 5.00053 22.001 4.99951ZM12.7444 22.0126H10.2697V13.9739H12.7444V22.0126ZM11.5225 12.9995C11.1246 12.9995 10.743 12.8415 10.4617 12.5601C10.1803 12.2788 10.0223 11.8972 10.0223 11.4993C10.0223 11.1014 10.1803 10.7198 10.4617 10.4384C10.743 10.1571 11.1246 9.99904 11.5225 9.99904C11.9204 9.99904 12.302 10.1571 12.5833 10.4384C12.8647 10.7198 13.0227 11.1014 13.0227 11.4993C13.0227 11.8972 12.8647 12.2788 12.5833 12.5601C12.302 12.8415 11.9204 12.9995 11.5225 12.9995ZM22.0203 21.9971H19.5534V18.0918C19.5534 17.1561 19.5534 15.9575 18.2697 15.9575C16.986 15.9575 16.7927 16.9744 16.7927 18.0222V21.9971H14.3219V13.9584H16.6844V15.0604H16.7154C16.9513 14.6528 17.2935 14.3169 17.7056 14.0887C18.1176 13.8606 18.5839 13.7487 19.0546 13.7651C21.5563 13.7651 22.0203 15.4277 22.0203 17.593V21.9971Z" fill="white"/>
</g>
</svg>
