<svg width="16" height="16" viewBox="0 0 16 16" fill="none" xmlns="http://www.w3.org/2000/svg">
<path fill-rule="evenodd" clip-rule="evenodd" d="M7.8403 13.9636C7.89001 13.9873 7.94461 13.9997 8 14C8.05539 13.9997 8.10999 13.9873 8.1597 13.9636C8.20941 13.94 8.25294 13.9058 8.28703 13.8635C8.28902 13.8611 8.29154 13.8579 8.29458 13.8541C8.55136 13.5353 12.5 8.63184 12.5 6.35294C12.5 5.19847 12.0259 4.09128 11.182 3.27495C10.3381 2.45861 9.19347 2 8 2C6.80653 2 5.66193 2.45861 4.81802 3.27495C3.97411 4.09128 3.5 5.19847 3.5 6.35294C3.5 8.63185 7.44867 13.5353 7.70542 13.8541C7.70846 13.8579 7.71098 13.8611 7.71297 13.8635C7.74706 13.9058 7.79059 13.94 7.8403 13.9636ZM5.33586 3.77587C6.04256 3.09226 7.00058 2.7075 8 2.70588C8.99942 2.7075 9.95744 3.09226 10.6641 3.77587C11.3708 4.45947 11.7686 5.38618 11.7703 6.35294C11.7703 7.93412 9.26973 11.4494 8 13.0682C6.73027 11.4494 4.22973 7.93412 4.22973 6.35294C4.2314 5.38618 4.62916 4.45947 5.33586 3.77587ZM6.87294 7.98457C7.20655 8.2002 7.59876 8.31529 7.99999 8.31529C8.53787 8.31479 9.05356 8.10788 9.4339 7.73998C9.81423 7.37207 10.0281 6.87323 10.0286 6.35293C10.0286 5.96482 9.90966 5.58542 9.68675 5.26271C9.46384 4.94 9.14701 4.68848 8.77632 4.53996C8.40564 4.39143 7.99774 4.35257 7.60422 4.42829C7.2107 4.504 6.84923 4.6909 6.56552 4.96534C6.28181 5.23978 6.0886 5.58944 6.01032 5.9701C5.93205 6.35076 5.97222 6.74532 6.12577 7.10389C6.27931 7.46247 6.53933 7.76894 6.87294 7.98457ZM7.27835 5.30822C7.49196 5.17015 7.74309 5.09646 7.99999 5.09646C8.34425 5.09721 8.67419 5.22983 8.91762 5.4653C9.16104 5.70077 9.29814 6.01993 9.29891 6.35293C9.29891 6.60144 9.22273 6.84437 9.08001 7.05099C8.93728 7.25762 8.73442 7.41866 8.49707 7.51376C8.25972 7.60886 7.99855 7.63374 7.74659 7.58526C7.49462 7.53678 7.26318 7.41711 7.08152 7.24139C6.89986 7.06567 6.77615 6.84179 6.72603 6.59806C6.67591 6.35433 6.70164 6.10169 6.79995 5.8721C6.89826 5.64251 7.06475 5.44628 7.27835 5.30822Z" fill="#E50A17"/>
</svg>
