<svg width="10" height="12" viewBox="0 0 10 12" fill="none" xmlns="http://www.w3.org/2000/svg">
<path fill-rule="evenodd" clip-rule="evenodd" d="M4.8403 11.9636C4.89001 11.9873 4.94461 11.9997 5 12C5.05539 11.9997 5.10999 11.9873 5.1597 11.9636C5.20941 11.94 5.25294 11.9058 5.28703 11.8635C5.28902 11.8611 5.29154 11.8579 5.29458 11.8541C5.55136 11.5353 9.5 6.63184 9.5 4.35294C9.5 3.19847 9.02589 2.09128 8.18198 1.27495C7.33807 0.458612 6.19347 0 5 0C3.80653 0 2.66193 0.458612 1.81802 1.27495C0.974106 2.09128 0.5 3.19847 0.5 4.35294C0.5 6.63185 4.44867 11.5353 4.70542 11.8541C4.70846 11.8579 4.71098 11.8611 4.71297 11.8635C4.74706 11.9058 4.79059 11.94 4.8403 11.9636ZM2.33586 1.77587C3.04256 1.09226 4.00058 0.7075 5 0.705882C5.99942 0.7075 6.95744 1.09226 7.66414 1.77587C8.37084 2.45947 8.7686 3.38618 8.77027 4.35294C8.77027 5.93412 6.26973 9.44941 5 11.0682C3.73027 9.44941 1.22973 5.93412 1.22973 4.35294C1.2314 3.38618 1.62916 2.45947 2.33586 1.77587ZM3.87294 5.98457C4.20655 6.2002 4.59876 6.31529 4.99999 6.31529C5.53787 6.31479 6.05356 6.10788 6.4339 5.73998C6.81423 5.37207 7.02813 4.87323 7.02864 4.35293C7.02864 3.96482 6.90966 3.58542 6.68675 3.26271C6.46384 2.94 6.14701 2.68848 5.77632 2.53996C5.40564 2.39143 4.99774 2.35257 4.60422 2.42829C4.2107 2.504 3.84923 2.6909 3.56552 2.96534C3.28181 3.23978 3.0886 3.58944 3.01032 3.9701C2.93205 4.35076 2.97222 4.74532 3.12577 5.10389C3.27931 5.46247 3.53933 5.76894 3.87294 5.98457ZM4.27835 3.30822C4.49196 3.17015 4.74309 3.09646 4.99999 3.09646C5.34425 3.09721 5.67419 3.22983 5.91762 3.4653C6.16104 3.70077 6.29814 4.01993 6.29891 4.35293C6.29891 4.60144 6.22273 4.84437 6.08001 5.05099C5.93728 5.25762 5.73442 5.41866 5.49707 5.51376C5.25972 5.60886 4.99855 5.63374 4.74659 5.58526C4.49462 5.53678 4.26318 5.41711 4.08152 5.24139C3.89986 5.06567 3.77615 4.84179 3.72603 4.59806C3.67591 4.35433 3.70164 4.10169 3.79995 3.8721C3.89826 3.64251 4.06475 3.44628 4.27835 3.30822Z" fill="#191919"/>
</svg>
