<svg width="22" height="24" viewBox="0 0 22 24" fill="none" xmlns="http://www.w3.org/2000/svg">
<path fill-rule="evenodd" clip-rule="evenodd" d="M15.1441 2.31529H19.3741C19.719 2.31505 20.0606 2.38182 20.3793 2.51181C20.698 2.64179 20.9876 2.83243 21.2315 3.07282C21.4753 3.31321 21.6688 3.59863 21.8006 3.91276C21.9325 4.22689 22.0002 4.56357 22 4.90353V21.4118C22.0002 21.7517 21.9325 22.0884 21.8006 22.4025C21.6688 22.7167 21.4753 23.0021 21.2315 23.2425C20.9876 23.4829 20.698 23.6735 20.3793 23.8035C20.0606 23.9335 19.719 24.0002 19.3741 24H2.62587C2.28096 24.0002 1.93939 23.9335 1.6207 23.8035C1.302 23.6735 1.01242 23.4829 0.76854 23.2425C0.524656 23.0021 0.331245 22.7167 0.199372 22.4025C0.0674984 22.0884 -0.000250122 21.7517 6.93878e-07 21.4118V4.90353C-0.000250122 4.56357 0.0674984 4.22689 0.199372 3.91276C0.331245 3.59863 0.524656 3.31321 0.76854 3.07282C1.01242 2.83243 1.302 2.64179 1.6207 2.51181C1.93939 2.38182 2.28096 2.31505 2.62587 2.31529H6.8559V0.705883C6.8559 0.518671 6.93135 0.339127 7.06566 0.206748C7.19996 0.0743694 7.38211 0 7.57205 0C7.76198 0 7.94414 0.0743694 8.07844 0.206748C8.21274 0.339127 8.28819 0.518671 8.28819 0.705883V2.31529H13.7118V0.705883C13.7118 0.518671 13.7873 0.339127 13.9216 0.206748C14.0559 0.0743694 14.238 0 14.4279 0C14.6179 0 14.8 0.0743694 14.9343 0.206748C15.0686 0.339127 15.1441 0.518671 15.1441 0.705883V2.31529ZM19.3741 3.72706H2.62587C2.30931 3.72706 2.00572 3.85101 1.78188 4.07164C1.55804 4.29227 1.43229 4.59151 1.43229 4.90353V6.43765H20.5677V4.90353C20.5677 4.59151 20.442 4.29227 20.2181 4.07164C19.9943 3.85101 19.6907 3.72706 19.3741 3.72706ZM2.62587 22.5882H19.3741C19.6907 22.5882 19.9943 22.4643 20.2181 22.2437C20.442 22.023 20.5677 21.7238 20.5677 21.4118V7.84941H1.43229V21.4118C1.43229 21.7238 1.55804 22.023 1.78188 22.2437C2.00572 22.4643 2.30931 22.5882 2.62587 22.5882ZM11.9358 14.6446H15.3542C15.5441 14.6446 15.7263 14.719 15.8606 14.8514C15.9949 14.9838 16.0703 15.1633 16.0703 15.3505C16.0703 15.5377 15.9949 15.7173 15.8606 15.8496C15.7263 15.982 15.5441 16.0564 15.3542 16.0564H11.9358V19.4258C11.9358 19.613 11.8603 19.7926 11.726 19.9249C11.5917 20.0573 11.4096 20.1317 11.2197 20.1317C11.0297 20.1317 10.8476 20.0573 10.7133 19.9249C10.579 19.7926 10.5035 19.613 10.5035 19.4258V16.0564H7.0851C6.89517 16.0564 6.71302 15.982 6.57871 15.8496C6.44441 15.7173 6.36896 15.5377 6.36896 15.3505C6.36896 15.1633 6.44441 14.9838 6.57871 14.8514C6.71302 14.719 6.89517 14.6446 7.0851 14.6446H10.5035V11.2752C10.5035 11.088 10.579 10.9085 10.7133 10.7761C10.8476 10.6437 11.0297 10.5693 11.2197 10.5693C11.4096 10.5693 11.5917 10.6437 11.726 10.7761C11.8603 10.9085 11.9358 11.088 11.9358 11.2752V14.6446Z" fill="black"/>
</svg>
