<svg xmlns="http://www.w3.org/2000/svg" width="14" height="14" viewBox="0 0 14 14">
  <g id="Grupo_82479" data-name="Grupo 82479" transform="translate(-25.976 -26)">
    <circle id="Elipse_13369" data-name="Elipse 13369" cx="7" cy="7" r="7" transform="translate(25.976 26)" fill="#35158c"/>
    <path id="Trazado_109074" data-name="Trazado 109074" d="M11.193,2.745a1.013,1.013,0,1,1,1.013-1.013A1.016,1.016,0,0,1,11.193,2.745Z" transform="translate(21.796 27.915)" fill="#fff"/>
    <path id="Trazado_109075" data-name="Trazado 109075" d="M11.193,12.325a1.013,1.013,0,1,1,1.013-1.013A1.016,1.016,0,0,1,11.193,12.325Zm0-.475Z" transform="translate(21.796 21.366)" fill="#fff"/>
    <path id="Trazado_109076" data-name="Trazado 109076" d="M11.193,21.905a1.013,1.013,0,1,1,1.013-1.013A1.016,1.016,0,0,1,11.193,21.905Z" transform="translate(21.796 14.818)" fill="#fff"/>
  </g>
</svg>
