<svg width="24" height="20" viewBox="0 0 24 20" fill="none" xmlns="http://www.w3.org/2000/svg">
<path d="M23.5689 1.4036C21.6841 0.547664 19.6793 0.0724806 17.6471 0C15.7136 0.0640685 13.804 0.496927 12 1.28003C10.196 0.497046 8.28637 0.0641913 6.35294 0C4.32066 0.0723257 2.31581 0.547515 0.43106 1.4036C0.303165 1.46381 0.193998 1.56513 0.117296 1.6948C0.0405941 1.82447 -0.000216135 1.9767 8.60875e-07 2.13233V19.2079C8.60875e-07 19.418 0.0743704 19.6195 0.206749 19.768C0.339128 19.9165 0.518672 20 0.705883 20H23.2941C23.4813 20 23.6609 19.9165 23.7933 19.768C23.9256 19.6195 24 19.418 24 19.2079V2.13233C24 1.97676 23.9591 1.82465 23.8824 1.69503C23.8057 1.56542 23.6967 1.46404 23.5689 1.4036M22.5882 2.6773V16.9414C20.9966 16.3261 19.33 15.9894 17.6471 15.9434C15.9641 15.9892 14.2975 16.3259 12.7059 16.9414V2.6773C14.2893 2.01488 15.9581 1.6457 17.6471 1.5842C19.336 1.64594 21.0048 2.01512 22.5882 2.6773M22.0584 18.4137H13.2348C14.6578 17.873 16.1452 17.5757 17.6471 17.5318C19.1489 17.5778 20.636 17.8772 22.0584 18.42M1.41177 2.6773C2.99516 2.01488 4.66398 1.6457 6.35294 1.5842C8.04188 1.64594 9.71067 2.01512 11.2941 2.6773V16.9414C9.70229 16.3275 8.0357 15.9923 6.35294 15.9476C4.66997 15.9934 3.00335 16.3301 1.41177 16.9457V2.6773ZM10.7642 18.4137H1.94071C3.36369 17.873 4.8511 17.5757 6.35294 17.5318C7.85476 17.5778 9.34185 17.8772 10.7642 18.42" fill="black"/>
</svg>
