<svg width="24" height="24" viewBox="0 0 24 24" fill="none" xmlns="http://www.w3.org/2000/svg">
<path fill-rule="evenodd" clip-rule="evenodd" d="M13.5463 0.470278L23.703 7.66098C23.7791 7.71442 23.8439 7.78288 23.8934 7.86227C23.9428 7.94166 23.976 8.03036 23.991 8.12306C24.0059 8.21576 24.0023 8.31056 23.9803 8.4018C23.9583 8.49304 23.9184 8.57886 23.863 8.65411C23.8109 8.7318 23.7442 8.79821 23.6666 8.84947C23.589 8.90073 23.5021 8.93583 23.411 8.95271C23.3199 8.96959 23.2264 8.96793 23.1359 8.94782C23.0455 8.92771 22.9598 8.88954 22.8841 8.83555L22.6958 8.70186V21.3739C22.696 21.7188 22.6293 22.0604 22.4993 22.3792C22.3693 22.6979 22.1786 22.9875 21.9382 23.2314C21.6977 23.4753 21.4123 23.6687 21.0981 23.8006C20.7839 23.9325 20.4472 24.0003 20.1072 24H4.02019C3.68018 24.0003 3.34346 23.9325 3.02929 23.8006C2.71511 23.6687 2.42965 23.4753 2.18922 23.2314C1.9488 22.9875 1.75813 22.6979 1.62813 22.3792C1.49813 22.0604 1.43134 21.7188 1.43159 21.3739V8.61592L1.10213 8.8451C0.986386 8.9274 0.848118 8.97082 0.706781 8.96924C0.591765 8.96782 0.478757 8.93847 0.377219 8.88364C0.275681 8.82881 0.188567 8.75011 0.123169 8.65411C0.0181609 8.49801 -0.0219523 8.3062 0.0115281 8.12028C0.0450087 7.93437 0.149384 7.76933 0.302018 7.66098L10.6 0.460729C11.0341 0.158988 11.5483 -0.00169197 12.0746 1.3436e-05C12.6008 0.00171908 13.1141 0.16573 13.5463 0.470278ZM20.9486 22.2084C21.1693 21.9846 21.2932 21.6809 21.2932 21.3644H21.2838V7.69917L12.7273 1.64485C12.53 1.50954 12.2972 1.43723 12.059 1.43723C11.8208 1.43723 11.588 1.50954 11.3907 1.64485L2.84356 7.62278V21.3644C2.84356 21.6809 2.96752 21.9846 3.18819 22.2084C3.40885 22.4323 3.70813 22.558 4.02019 22.558H20.1166C20.4287 22.558 20.7279 22.4323 20.9486 22.2084ZM13.5274 19.2157H16.3514C16.7881 19.2152 17.2068 19.039 17.5156 18.7257C17.8244 18.4124 17.9981 17.9877 17.9986 17.5446V14.6798C17.9967 14.2372 17.8225 13.8133 17.514 13.5003C17.2055 13.1874 16.7876 13.0106 16.3514 13.0086H13.5274C13.0911 13.0106 12.6733 13.1874 12.3648 13.5003C12.0563 13.8133 11.8821 14.2372 11.8801 14.6798V17.5446C11.8821 17.9872 12.0563 18.4111 12.3648 18.7241C12.6733 19.037 13.0911 19.2137 13.5274 19.2157ZM13.4371 14.4587C13.4657 14.4468 13.4964 14.4408 13.5274 14.441H16.3514C16.3823 14.4408 16.413 14.4468 16.4417 14.4587C16.4704 14.4706 16.4964 14.4882 16.5183 14.5104C16.5402 14.5326 16.5575 14.559 16.5693 14.5881C16.581 14.6172 16.5869 14.6484 16.5867 14.6798V17.5446C16.5869 17.576 16.581 17.6072 16.5693 17.6363C16.5575 17.6653 16.5402 17.6918 16.5183 17.714C16.4964 17.7362 16.4704 17.7538 16.4417 17.7657C16.413 17.7776 16.3823 17.7836 16.3514 17.7833H13.5274C13.4964 17.7836 13.4657 17.7776 13.4371 17.7657C13.4084 17.7538 13.3824 17.7362 13.3605 17.714C13.3386 17.6918 13.3212 17.6653 13.3095 17.6363C13.2978 17.6072 13.2918 17.576 13.2921 17.5446V14.6798C13.2918 14.6484 13.2978 14.6172 13.3095 14.5881C13.3212 14.559 13.3386 14.5326 13.3605 14.5104C13.3824 14.4882 13.4084 14.4706 13.4371 14.4587Z" fill="black"/>
</svg>
