<?xml version="1.0" encoding="UTF-8"?>
<svg id="Layer_2" data-name="Layer 2" xmlns="http://www.w3.org/2000/svg" viewBox="0 0 28 31.81">
  <defs>
    <style>
      .cls-1 {
        fill: #191919;
      }
    </style>
  </defs>
  <g id="Group_82553" data-name="Group 82553">
    <g>
      <path class="cls-1" d="m18.22,31.81H4.17c-2.3,0-4.17-1.87-4.17-4.17V6.72C0,4.42,1.87,2.55,4.17,2.55h4.69c.49,0,.88.4.88.88s-.4.88-.88.88h-4.69c-1.32,0-2.4,1.08-2.4,2.4v20.92c0,1.32,1.08,2.4,2.4,2.4h14.05c1.32,0,2.4-1.08,2.4-2.4v-2.82c0-.49.4-.88.88-.88s.88.4.88.88v2.82c0,2.3-1.87,4.17-4.16,4.17Z"/>
      <path class="cls-1" d="m21.5,11.78c-.49,0-.88-.4-.88-.88v-4.18c0-1.32-1.08-2.4-2.4-2.4h-4.69c-.49,0-.88-.4-.88-.88s.4-.88.88-.88h4.69c2.3,0,4.16,1.87,4.16,4.16v4.18c0,.49-.4.88-.88.88Z"/>
      <path class="cls-1" d="m11.19,6.48c-1.69,0-3.08-1.28-3.22-2.97-.04-.49.32-.91.81-.95.48-.05.91.32.95.81.06.77.69,1.35,1.46,1.35s1.39-.58,1.46-1.35c.04-.49.47-.85.95-.81.49.04.85.47.81.95-.14,1.69-1.52,2.97-3.22,2.97Z"/>
      <path class="cls-1" d="m8.85,4.32c-.46,0-.85-.36-.88-.82-.01-.1-.02-.18-.02-.26,0-1.79,1.45-3.24,3.24-3.24s3.24,1.45,3.24,3.24c0,.08,0,.16-.02.24-.06.48-.51.85-.98.8-.48-.05-.83-.44-.79-.92,0-.01.01-.1.01-.12,0-.82-.66-1.48-1.47-1.48s-1.47.66-1.47,1.47l.02.14c.03.49-.33.91-.82.94-.02,0-.04,0-.06,0Z"/>
    </g>
    <path class="cls-1" d="m15.22,7.07H6.97c-.49,0-.88-.4-.88-.88s.4-.88.88-.88h8.25c.49,0,.88.4.88.88s-.4.88-.88.88Z"/>
    <path class="cls-1" d="m16.4,14.14h-5.89c-.49,0-.88-.4-.88-.88s.4-.88.88-.88h5.89c.49,0,.88.4.88.88s-.4.88-.88.88Z"/>
    <path class="cls-1" d="m14.04,21.21h-3.53c-.49,0-.88-.4-.88-.88s.4-.88.88-.88h3.53c.49,0,.88.4.88.88s-.4.88-.88.88Z"/>
    <g>
      <path class="cls-1" d="m17.53,23.01c-.23,0-.46-.09-.62-.26-.2-.2-.29-.47-.25-.75l.42-2.92c.03-.19.11-.36.25-.5l6.66-6.66c.33-.33.92-.33,1.25,0l2.5,2.5c.17.17.26.39.26.62s-.09.46-.26.62l-6.66,6.66c-.13.14-.31.22-.5.25l-2.92.42s-.08,0-.13,0Zm2.92-1.3h.01-.01Zm-1.67-2.08l-.21,1.46,1.46-.21,5.83-5.83-1.25-1.25-5.83,5.83Z"/>
      <path class="cls-1" d="m24.61,18.43c-.23,0-.45-.09-.62-.26l-2.5-2.5c-.35-.35-.35-.9,0-1.25s.9-.35,1.25,0l2.5,2.5c.35.35.35.9,0,1.25-.17.17-.4.26-.62.26Z"/>
    </g>
    <path class="cls-1" d="m8.15,16.49h-3.53c-.49,0-.88-.4-.88-.88v-3.53c0-.49.4-.88.88-.88h3.53c.49,0,.88.4.88.88v3.53c0,.49-.4.88-.88.88Zm-2.65-1.77h1.77v-1.77h-1.77v1.77Z"/>
    <path class="cls-1" d="m8.15,23.56h-3.53c-.49,0-.88-.4-.88-.88v-3.53c0-.49.4-.88.88-.88h3.53c.49,0,.88.4.88.88v3.53c0,.49-.4.88-.88.88Zm-2.65-1.77h1.77v-1.77h-1.77v1.77Z"/>
  </g>
</svg>