<svg xmlns="http://www.w3.org/2000/svg" xmlns:xlink="http://www.w3.org/1999/xlink" width="116.274" height="25.305" viewBox="0 0 116.274 25.305">
  <defs>
    <clipPath id="clip-path">
      <rect id="Rectángulo_160920" data-name="Rectángulo 160920" width="116.274" height="25.305" fill="#191919"/>
    </clipPath>
  </defs>
  <g id="Grupo_81359" data-name="Grupo 81359" clip-path="url(#clip-path)">
    <path id="Trazado_107058" data-name="Trazado 107058" d="M83.9,2.682a.1.1,0,0,0-.143.027.1.1,0,0,0,0,.116,9.989,9.989,0,0,1-7.2,16.409,7.827,7.827,0,0,0,.745-12.824A4.794,4.794,0,0,1,76.154.156a.1.1,0,0,0-.03-.14.1.1,0,0,0-.106,0,7.823,7.823,0,0,0-1.1,13.03,4.8,4.8,0,0,1,1.181,6.2A9.989,9.989,0,0,1,68.464,2.824a.1.1,0,0,0-.143-.143,12.651,12.651,0,1,0,15.575,0" transform="translate(27.515 0)" fill="#e50a17"/>
    <rect id="Rectángulo_160918" data-name="Rectángulo 160918" width="0.681" height="22.136" transform="translate(80.492 2.588)" fill="#191919"/>
    <path id="Trazado_107059" data-name="Trazado 107059" d="M4.1,12.814,2.922,7.233h-.2l.262,5.155V24.37H0V1.388h4.17L6.828,12.255l.493,3.382H7.65l.493-3.382L10.8,1.388h4.17V24.37H11.984V12.388l.262-5.155h-.2l-1.183,5.581L8.833,21.087H6.139Z" transform="translate(0 0.602)" fill="#191919"/>
    <rect id="Rectángulo_160919" data-name="Rectángulo 160919" width="3.284" height="22.982" transform="translate(19.447 1.991)" fill="#191919"/>
    <path id="Trazado_107060" data-name="Trazado 107060" d="M32.494,21.087a3.292,3.292,0,0,1-3.283,3.283H25.6a3.292,3.292,0,0,1-3.283-3.283V1.388H25.6V20.594a.856.856,0,0,0,.82.82h1.971a.856.856,0,0,0,.82-.82V1.388h3.283Z" transform="translate(9.677 0.602)" fill="#191919"/>
    <path id="Trazado_107061" data-name="Trazado 107061" d="M42.623,10.746a3.293,3.293,0,0,1-3.284,3.283h-3.61V24.37H32.444V1.389h6.894a3.294,3.294,0,0,1,3.284,3.283Zm-3.284-.493V5.165a.857.857,0,0,0-.82-.821h-2.79v6.729h2.79a.856.856,0,0,0,.82-.82" transform="translate(14.068 0.602)" fill="#191919"/>
    <path id="Trazado_107062" data-name="Trazado 107062" d="M51.765,21.087a3.293,3.293,0,0,1-3.283,3.283H44.869a3.293,3.293,0,0,1-3.283-3.283V4.671a3.294,3.294,0,0,1,3.283-3.283h3.613a3.294,3.294,0,0,1,3.283,3.283V7.955H48.482V5.164a.859.859,0,0,0-.821-.82H45.689a.858.858,0,0,0-.82.82v15.43a.857.857,0,0,0,.82.82H47.66a.858.858,0,0,0,.821-.82V17.8h3.283Z" transform="translate(18.032 0.602)" fill="#191919"/>
  </g>
</svg>
