<svg width="17" height="17" viewBox="0 0 17 17" fill="none" xmlns="http://www.w3.org/2000/svg">
<path d="M14.5197 12.8436C14.4675 12.729 14.3945 12.625 14.3044 12.537L9.95657 8.21107L14.3127 3.83539C14.4774 3.64731 14.5686 3.40594 14.5694 3.15584C14.5608 2.90757 14.4605 2.67132 14.2878 2.49285C14.1104 2.31869 13.8737 2.21805 13.6253 2.21109C13.5001 2.20758 13.3755 2.22924 13.2589 2.27479C13.1422 2.32035 13.0359 2.38886 12.9462 2.47628L8.59839 6.82709L4.25057 2.47628C4.07023 2.3025 3.83012 2.20461 3.57977 2.2028C3.45468 2.20162 3.33067 2.226 3.21532 2.27445C3.09998 2.3229 2.99573 2.3944 2.90896 2.48457C2.82 2.57226 2.7493 2.67675 2.70097 2.79197C2.65263 2.9072 2.62762 3.03087 2.62739 3.15584C2.6235 3.28186 2.64578 3.40732 2.69282 3.52429C2.73986 3.64126 2.81064 3.74719 2.90068 3.83539L7.23193 8.21107L2.88412 12.537C2.79402 12.625 2.72102 12.729 2.6688 12.8436C2.62419 12.9516 2.59896 13.0667 2.59426 13.1834C2.59335 13.3115 2.61872 13.4385 2.6688 13.5564C2.71491 13.6747 2.78546 13.782 2.87583 13.8713C2.96612 13.9624 3.07292 14.0356 3.19053 14.0867C3.30734 14.1294 3.43058 14.1518 3.55492 14.153C3.6859 14.1572 3.81613 14.1317 3.93587 14.0785C4.05206 14.0291 4.15649 13.9556 4.24229 13.863L8.59839 9.54532L12.9462 13.8961C13.0369 13.9889 13.1435 14.0647 13.2609 14.1199C13.3794 14.1688 13.5055 14.1969 13.6336 14.2028C13.7562 14.2028 13.8774 14.1774 13.9897 14.1282C14.1104 14.082 14.2203 14.0114 14.3127 13.921C14.4039 13.8276 14.4769 13.718 14.528 13.5978C14.5706 13.4752 14.593 13.3464 14.5942 13.2166C14.5932 13.0887 14.5679 12.9621 14.5197 12.8436Z" fill="#E50A17"/>
</svg>
