<svg width="98" height="98" viewBox="0 0 98 98" fill="none" xmlns="http://www.w3.org/2000/svg">
<g clip-path="url(#clip0_649_2418)">
<path d="M49 98C76.062 98 98 76.062 98 49C98 21.938 76.062 0 49 0C21.938 0 0 21.938 0 49C0 76.062 21.938 98 49 98Z" fill="#F2F2F2"/>
<path d="M73.162 24H25.5C23.2909 24 21.5 25.7909 21.5 28V62.905C21.5 65.1141 23.2909 66.905 25.5 66.905H73.162C75.3711 66.905 77.162 65.1141 77.162 62.905V28C77.162 25.7909 75.3711 24 73.162 24Z" stroke="#35158C" stroke-width="2"/>
<path d="M70.275 29.4434H29.5C28.3954 29.4434 27.5 30.3388 27.5 31.4434V59.4624C27.5 60.5669 28.3954 61.4624 29.5 61.4624H70.275C71.3796 61.4624 72.275 60.5669 72.275 59.4624V31.4434C72.275 30.3388 71.3796 29.4434 70.275 29.4434Z" stroke="#35158C" stroke-width="2"/>
<path d="M26.8016 67.1299L18.3016 72.7852C18.3016 72.7852 17.2387 74.6291 19.1297 74.9141C19.1297 75.0491 79.8927 74.9015 78.9071 74.9141C77.9214 74.9266 79.5749 74.9061 79.6639 74.9141C81.5 74.9141 80.1121 72.7852 80.1121 72.7852L72.9119 67.1299H26.8016Z" stroke="#35158C" stroke-width="2"/>
<path d="M59.8021 54.8413L56.9911 52.0303C58.7848 50.0507 59.7365 47.45 59.6442 44.7802C59.5518 42.1104 58.4227 39.5817 56.4965 37.7308C54.5703 35.8798 51.9987 34.8523 49.3273 34.8664C46.656 34.8804 44.0952 35.9349 42.1886 37.806C40.282 39.6771 39.1795 42.2176 39.1153 44.8882C39.051 47.5588 40.03 50.1493 41.8444 52.11C43.6588 54.0706 46.1659 55.2471 48.8334 55.3896C51.501 55.5321 54.1191 54.6295 56.1321 52.8733L58.9431 55.6843C58.9989 55.7404 59.0652 55.7849 59.1382 55.8153C59.2113 55.8457 59.2896 55.8613 59.3686 55.8613C59.4477 55.8613 59.526 55.8457 59.5991 55.8153C59.6721 55.7849 59.7384 55.7404 59.7941 55.6843C59.8509 55.63 59.8962 55.5649 59.9274 55.4928C59.9586 55.4207 59.975 55.3431 59.9757 55.2645C59.9765 55.186 59.9615 55.1081 59.9317 55.0354C59.9019 54.9627 59.8578 54.8967 59.8021 54.8413ZM40.7051 45.3963C40.7051 43.6559 41.2213 41.9545 42.1882 40.5073C43.1552 39.0602 44.5295 37.9322 46.1375 37.2662C47.7455 36.6001 49.5149 36.4259 51.2219 36.7654C52.929 37.105 54.497 37.9431 55.7277 39.1738C56.9584 40.4045 57.7965 41.9725 58.1361 43.6795C58.4756 45.3866 58.3013 47.156 57.6353 48.7639C56.9692 50.3719 55.8413 51.7463 54.3942 52.7133C52.947 53.6802 51.2456 54.1963 49.5051 54.1963C47.1721 54.1934 44.9355 53.2653 43.2858 51.6157C41.6361 49.966 40.7081 47.7293 40.7051 45.3963Z" fill="#35158C" stroke="#35158C"/>
</g>
<defs>
<clipPath id="clip0_649_2418">
<rect width="98" height="98" fill="white"/>
</clipPath>
</defs>
</svg>
