<svg width="94" height="98" viewBox="0 0 94 98" fill="none" xmlns="http://www.w3.org/2000/svg">
<path d="M47 98C72.4429 98 93.0684 76.062 93.0684 49C93.0684 21.938 72.4429 0 47 0C21.5572 0 0.931641 21.938 0.931641 49C0.931641 76.062 21.5572 98 47 98Z" fill="#F2F2F2"/>
<path d="M69.7164 24H24.9059C22.829 24 21.1453 25.7909 21.1453 28V62.905C21.1453 65.1141 22.829 66.905 24.9059 66.905H69.7164C71.7933 66.905 73.4771 65.1141 73.4771 62.905V28C73.4771 25.7909 71.7933 24 69.7164 24Z" stroke="#35158C" stroke-width="2"/>
<path d="M67.0022 29.4434H28.6667C27.6282 29.4434 26.7864 30.3388 26.7864 31.4434V59.4624C26.7864 60.5669 27.6282 61.4624 28.6667 61.4624H67.0022C68.0407 61.4624 68.8825 60.5669 68.8825 59.4624V31.4434C68.8825 30.3388 68.0407 29.4434 67.0022 29.4434Z" stroke="#35158C" stroke-width="2"/>
<path d="M26.1297 67.1299L18.1383 72.7852C18.1383 72.7852 17.139 74.6291 18.9169 74.9141C18.9169 75.0491 76.0444 74.9015 75.1178 74.9141C74.1911 74.9266 75.7457 74.9061 75.8293 74.9141C77.5556 74.9141 76.2508 72.7852 76.2508 72.7852L69.4813 67.1299H26.1297Z" stroke="#35158C" stroke-width="2"/>
<path d="M57.1558 54.8413L54.513 52.0303C56.1994 50.0507 57.0941 47.45 57.0073 44.7802C56.9205 42.1104 55.859 39.5817 54.048 37.7308C52.237 35.8798 49.8192 34.8523 47.3077 34.8664C44.7962 34.8804 42.3887 35.9349 40.5961 37.806C38.8036 39.6771 37.7671 42.2176 37.7067 44.8882C37.6462 47.5588 38.5666 50.1493 40.2725 52.11C41.9784 54.0706 44.3354 55.2471 46.8434 55.3896C49.3514 55.5321 51.8129 54.6295 53.7054 52.8733L56.3482 55.6843C56.4007 55.7404 56.463 55.7849 56.5316 55.8153C56.6003 55.8457 56.6739 55.8613 56.7483 55.8613C56.8226 55.8613 56.8963 55.8457 56.9649 55.8153C57.0336 55.7849 57.0959 55.7404 57.1483 55.6843C57.2017 55.63 57.2442 55.5649 57.2736 55.4928C57.3029 55.4207 57.3184 55.3431 57.3191 55.2645C57.3198 55.186 57.3057 55.1081 57.2777 55.0354C57.2496 54.9627 57.2082 54.8967 57.1558 54.8413ZM39.2014 45.3963C39.2014 43.6559 39.6866 41.9545 40.5957 40.5073C41.5048 39.0602 42.797 37.9322 44.3088 37.2662C45.8206 36.6001 47.4841 36.4259 49.089 36.7654C50.6939 37.105 52.1681 37.9431 53.3252 39.1738C54.4822 40.4045 55.2702 41.9725 55.5894 43.6795C55.9087 45.3866 55.7448 47.156 55.1186 48.7639C54.4924 50.3719 53.432 51.7463 52.0714 52.7133C50.7108 53.6802 49.1113 54.1963 47.4749 54.1963C45.2815 54.1934 43.1787 53.2653 41.6277 51.6157C40.0767 49.966 39.2041 47.7293 39.2014 45.3963Z" fill="#35158C" stroke="#35158C"/>
</svg>
