<svg xmlns="http://www.w3.org/2000/svg" width="54.213" height="47.2" viewBox="0 0 54.213 47.2">
  <g id="Group_82490" data-name="Group 82490" transform="translate(-16.857 -23)">
    <path id="Path_108707" data-name="Path 108707" d="M64.226,24H24.481a3.447,3.447,0,0,0-3.336,3.548v30.96a3.447,3.447,0,0,0,3.336,3.548H64.226a3.447,3.447,0,0,0,3.336-3.548V27.548A3.447,3.447,0,0,0,64.226,24Z" transform="translate(-0.372)" fill="none" stroke="#35158c" stroke-width="2"/>
    <path id="Path_108708" data-name="Path 108708" d="M62.456,29.443h-34a1.723,1.723,0,0,0-1.668,1.774V56.069a1.723,1.723,0,0,0,1.668,1.774h34a1.723,1.723,0,0,0,1.668-1.774V31.217A1.723,1.723,0,0,0,62.456,29.443Z" transform="translate(-1.009 -0.615)" fill="none" stroke="#35158c" stroke-width="2"/>
    <path id="Path_108709" data-name="Path 108709" d="M25.195,67.13l-7.088,5.016s-.886,1.635.691,1.888c0,.12,50.67-.011,49.848,0s.557-.007.631,0c1.531,0,.374-1.888.374-1.888l-6-5.016Z" transform="translate(0 -4.875)" fill="none" stroke="#35158c" stroke-width="2"/>
    <path id="Path_108710" data-name="Path 108710" d="M54.957,52.583,52.613,50.09A9.527,9.527,0,0,0,52.2,37.407a8.2,8.2,0,0,0-11.931.067,9.528,9.528,0,0,0-.287,12.687A8.363,8.363,0,0,0,45.81,53.07,8.25,8.25,0,0,0,51.9,50.838l2.344,2.493a.5.5,0,0,0,.163.116.473.473,0,0,0,.384,0,.5.5,0,0,0,.163-.116.524.524,0,0,0,.111-.17.553.553,0,0,0,0-.406A.526.526,0,0,0,54.957,52.583ZM39.032,44.206a8.163,8.163,0,0,1,1.237-4.336,7.456,7.456,0,0,1,3.293-2.875,6.931,6.931,0,0,1,4.24-.444,7.214,7.214,0,0,1,3.757,2.136,7.971,7.971,0,0,1,2.008,4,8.267,8.267,0,0,1-.418,4.51,7.722,7.722,0,0,1-2.7,3.5,7.03,7.03,0,0,1-4.077,1.315,7.132,7.132,0,0,1-5.186-2.289A8.074,8.074,0,0,1,39.032,44.206Z" transform="translate(-2.243 -1.228)" fill="#35158c" stroke="#35158c" stroke-width="1"/>
  </g>
</svg>
