<svg width="98" height="98" viewBox="0 0 98 98" fill="none" xmlns="http://www.w3.org/2000/svg">
<path d="M49 98C76.062 98 98 76.062 98 49C98 21.938 76.062 0 49 0C21.938 0 0 21.938 0 49C0 76.062 21.938 98 49 98Z" fill="#F2F2F2"/>
<path d="M73.162 24H25.5C23.2909 24 21.5 25.7909 21.5 28V62.905C21.5 65.1141 23.2909 66.905 25.5 66.905H73.162C75.3711 66.905 77.162 65.1141 77.162 62.905V28C77.162 25.7909 75.3711 24 73.162 24Z" stroke="#35158C" stroke-width="2"/>
<path d="M70.275 29.4434H29.5C28.3954 29.4434 27.5 30.3388 27.5 31.4434V59.4624C27.5 60.5669 28.3954 61.4624 29.5 61.4624H70.275C71.3796 61.4624 72.275 60.5669 72.275 59.4624V31.4434C72.275 30.3388 71.3796 29.4434 70.275 29.4434Z" stroke="#35158C" stroke-width="2"/>
<path d="M59.2973 35.4866C58.9926 35.1748 58.5814 35 58.153 35C57.7246 35 57.3134 35.1748 57.0087 35.4866L49.8837 42.8631L42.7587 35.4866C42.4517 35.1905 42.0457 35.0293 41.6262 35.0369C41.2067 35.0446 40.8064 35.2205 40.5097 35.5277C40.213 35.8349 40.0431 36.2493 40.0357 36.6836C40.0283 37.1179 40.184 37.5382 40.47 37.856L47.595 45.2325L40.47 52.609C40.1689 52.9245 40 53.3501 40 53.7937C40 54.2372 40.1689 54.6629 40.47 54.9784C40.6201 55.1344 40.7984 55.2582 40.9948 55.3426C41.1912 55.4271 41.4017 55.4705 41.6144 55.4705C41.827 55.4705 42.0375 55.4271 42.2339 55.3426C42.4303 55.2582 42.6086 55.1344 42.7587 54.9784L49.8837 47.6019L57.0087 54.9784C57.1587 55.1344 57.3371 55.2582 57.5334 55.3426C57.7298 55.4271 57.9403 55.4705 58.153 55.4705C58.3656 55.4705 58.5762 55.4271 58.7726 55.3426C58.9689 55.2582 59.1473 55.1344 59.2973 54.9784C59.5985 54.6629 59.7673 54.2372 59.7673 53.7937C59.7673 53.3501 59.5985 52.9245 59.2973 52.609L52.1723 45.2325L59.2973 37.856C59.5985 37.5406 59.7673 37.1149 59.7673 36.6713C59.7673 36.2278 59.5985 35.8021 59.2973 35.4866Z" fill="#35158C"/>
<path d="M26.8016 67.1299L18.3016 72.7852C18.3016 72.7852 17.2387 74.6291 19.1297 74.9141C19.1297 75.0491 79.8927 74.9015 78.9071 74.9141C77.9214 74.9266 79.5749 74.9061 79.6639 74.9141C81.5 74.9141 80.1121 72.7852 80.1121 72.7852L72.9119 67.1299H26.8016Z" stroke="#35158C" stroke-width="2"/>
</svg>
