<svg xmlns="http://www.w3.org/2000/svg" width="41.296" height="33.982" viewBox="0 0 41.296 33.982">
  <g id="Grupo_82446" data-name="Grupo 82446" transform="translate(-147.189 53.877)">
    <g id="Grupo_82447" data-name="Grupo 82447" transform="translate(11.186 -126.877)">
      <path id="Trazado_108702" data-name="Trazado 108702" d="M172.922,74H143.01a2.51,2.51,0,0,0-2.51,2.51V98.416a2.51,2.51,0,0,0,2.51,2.51h29.912a2.51,2.51,0,0,0,2.51-2.51V76.51A2.51,2.51,0,0,0,172.922,74Z" transform="translate(-1.302)" fill="none" stroke="#35158c" stroke-width="2"/>
      <path id="Trazado_108703" data-name="Trazado 108703" d="M173.345,79.443h-25.59A1.255,1.255,0,0,0,146.5,80.7V98.283a1.255,1.255,0,0,0,1.255,1.255h25.59a1.255,1.255,0,0,0,1.255-1.255V80.7A1.255,1.255,0,0,0,173.345,79.443Z" transform="translate(-3.536 -2.027)" fill="none" stroke="#35158c" stroke-width="2"/>
      <path id="Trazado_108704" data-name="Trazado 108704" d="M171.111,85.305a1,1,0,0,0-1.436,0L165.2,89.935l-4.472-4.629a.992.992,0,0,0-1.411.026,1.079,1.079,0,0,0-.025,1.461l4.472,4.629-4.472,4.629a1.084,1.084,0,0,0,0,1.487,1.015,1.015,0,0,0,.329.229.981.981,0,0,0,.778,0,1.022,1.022,0,0,0,.329-.229l4.472-4.629,4.472,4.629a1.019,1.019,0,0,0,.329.229.982.982,0,0,0,.778,0,1.019,1.019,0,0,0,.329-.229,1.084,1.084,0,0,0,0-1.487l-4.472-4.629,4.472-4.629a1.085,1.085,0,0,0,0-1.487Z" transform="translate(-8.192 -4.097)" fill="#35158c"/>
      <path id="Trazado_108705" data-name="Trazado 108705" d="M142.526,117.13l-5.334,3.549s-.667,1.157.52,1.336c0,.085,38.134-.008,37.515,0s.419-.005.475,0c1.152,0,.281-1.336.281-1.336l-4.519-3.549Z" transform="translate(0 -16.062)" fill="none" stroke="#35158c" stroke-width="2"/>
    </g>
  </g>
</svg>
