<svg width="13" height="10" viewBox="0 0 13 10" fill="none" xmlns="http://www.w3.org/2000/svg">
<path id="Subtract" fill-rule="evenodd" clip-rule="evenodd" d="M9.29146 0.138177C9.54674 0.0287141 9.79469 0.207965 9.79469 0.458366V8.5267C9.79469 8.77699 9.54691 8.95621 9.29149 8.84678L4.32021 6.86841H3.8202L4.04766 8.34711L4.04796 8.34892C4.18414 9.16569 3.54909 9.89403 2.72907 9.89403C2.04941 9.89403 1.50264 9.39716 1.41094 8.70915L1.04757 6.42535L0.996471 6.38998C0.37965 5.963 0.000154149 5.25105 0.000154149 4.4925C0.000154149 3.16279 1.09292 2.11661 2.37605 2.11661H4.32016L9.28794 0.139687L9.29146 0.138177ZM11.9305 0.683794C12.063 0.551245 12.2779 0.551245 12.4105 0.683794C12.543 0.816343 12.543 1.03125 12.4105 1.1638L11.4407 2.13355C11.3082 2.2661 11.0933 2.2661 10.9607 2.13355C10.8282 2.001 10.8282 1.78609 10.9607 1.65355L11.9305 0.683794ZM9.07705 7.98513V0.999827L4.75196 2.7299V6.25506L9.07705 7.98513ZM2.37605 2.83422C1.49203 2.83422 0.717771 3.55173 0.717771 4.4925C0.717771 5.43327 1.49203 6.15077 2.37605 6.15077H4.03432V2.83422H2.37605ZM10.8613 4.51884C10.8613 4.33139 11.0132 4.17943 11.2007 4.17943H12.5721C12.7596 4.17943 12.9115 4.33139 12.9115 4.51884C12.9115 4.7063 12.7596 4.85826 12.5721 4.85826H11.2007C11.0132 4.85826 10.8613 4.7063 10.8613 4.51884ZM10.9607 6.50231C11.0933 6.36976 11.3082 6.36976 11.4407 6.50231L12.4105 7.47206C12.543 7.60461 12.543 7.81951 12.4105 7.95206C12.2779 8.08461 12.063 8.08461 11.9305 7.95206L10.9607 6.98231C10.8282 6.84976 10.8282 6.63485 10.9607 6.50231ZM3.10799 6.86841H1.80271L2.08095 8.65005L2.08217 8.65611C2.14722 8.98126 2.41287 9.17642 2.72907 9.17642C3.12682 9.17642 3.38961 8.83871 3.32673 8.45445L3.10799 6.86841Z" fill="#35158C"/>
</svg>
