<svg width="11" height="12" viewBox="0 0 11 12" fill="none" xmlns="http://www.w3.org/2000/svg">
<path id="Union" fill-rule="evenodd" clip-rule="evenodd" d="M7.2886 1.15765H9.32445C9.49045 1.15752 9.65484 1.19091 9.80822 1.2559C9.96161 1.3209 10.101 1.41621 10.2184 1.53641C10.3357 1.6566 10.4288 1.79932 10.4923 1.95638C10.5558 2.11345 10.5884 2.28178 10.5882 2.45177V10.7059C10.5884 10.8759 10.5558 11.0442 10.4923 11.2013C10.4288 11.3583 10.3357 11.501 10.2184 11.6212C10.101 11.7414 9.96161 11.8368 9.80822 11.9017C9.65484 11.9667 9.49045 12.0001 9.32445 12H1.26379C1.09779 12.0001 0.933398 11.9667 0.780014 11.9017C0.62663 11.8368 0.487263 11.7414 0.369885 11.6212C0.252508 11.501 0.159423 11.3583 0.0959542 11.2013C0.0324859 11.0442 -0.00012038 10.8759 3.33952e-07 10.7059V2.45177C-0.00012038 2.28178 0.0324859 2.11345 0.0959542 1.95638C0.159423 1.79932 0.252508 1.6566 0.369885 1.53641C0.487263 1.41621 0.62663 1.3209 0.780014 1.2559C0.933398 1.19091 1.09779 1.15752 1.26379 1.15765H3.29963V0.352941C3.29963 0.259335 3.33595 0.169563 3.40058 0.103374C3.46522 0.0371847 3.55289 0 3.6443 0C3.73571 0 3.82338 0.0371847 3.88802 0.103374C3.95266 0.169563 3.98897 0.259335 3.98897 0.352941V1.15765H6.59926V0.352941C6.59926 0.259335 6.63558 0.169563 6.70022 0.103374C6.76485 0.0371847 6.85252 0 6.94393 0C7.03535 0 7.12301 0.0371847 7.18765 0.103374C7.25229 0.169563 7.2886 0.259335 7.2886 0.352941V1.15765ZM9.32445 1.86353H1.26379C1.11143 1.86353 0.965321 1.9255 0.857591 2.03582C0.749861 2.14614 0.689339 2.29576 0.689339 2.45177V3.21882H9.8989V2.45177C9.8989 2.29576 9.83838 2.14614 9.73065 2.03582C9.62292 1.9255 9.4768 1.86353 9.32445 1.86353ZM1.26379 11.2941H9.32445C9.4768 11.2941 9.62292 11.2321 9.73065 11.1218C9.83838 11.0115 9.8989 10.8619 9.8989 10.7059V3.92471H0.689339V10.7059C0.689339 10.8619 0.749861 11.0115 0.857591 11.1218C0.965321 11.2321 1.11143 11.2941 1.26379 11.2941ZM5.7445 7.32232H7.38972C7.48113 7.32232 7.5688 7.3595 7.63344 7.42569C7.69808 7.49188 7.73439 7.58165 7.73439 7.67526C7.73439 7.76886 7.69808 7.85863 7.63344 7.92482C7.5688 7.99101 7.48113 8.0282 7.38972 8.0282H5.7445V9.7129C5.7445 9.80651 5.70819 9.89628 5.64355 9.96247C5.57891 10.0287 5.49124 10.0658 5.39983 10.0658C5.30842 10.0658 5.22075 10.0287 5.15612 9.96247C5.09148 9.89628 5.05516 9.80651 5.05516 9.7129V8.0282H3.40994C3.31853 8.0282 3.23086 7.99101 3.16623 7.92482C3.10159 7.85863 3.06527 7.76886 3.06527 7.67526C3.06527 7.58165 3.10159 7.49188 3.16623 7.42569C3.23086 7.3595 3.31853 7.32232 3.40994 7.32232H5.05516V5.63761C5.05516 5.544 5.09148 5.45423 5.15612 5.38804C5.22075 5.32185 5.30842 5.28467 5.39983 5.28467C5.49124 5.28467 5.57891 5.32185 5.64355 5.38804C5.70819 5.45423 5.7445 5.544 5.7445 5.63761V7.32232Z" fill="#6B6600"/>
</svg>
