<svg width="14" height="10" viewBox="0 0 14 10" fill="none" xmlns="http://www.w3.org/2000/svg">
<path id="Union" fill-rule="evenodd" clip-rule="evenodd" d="M11.8954 4.10949e-07H1.43791C1.24904 -0.000147938 1.062 0.0398698 0.887483 0.117765C0.712966 0.195659 0.554397 0.309902 0.420848 0.45396C0.287298 0.598017 0.181388 0.769062 0.109175 0.957309C0.0369616 1.14556 -0.000136976 1.34732 3.8002e-07 1.55104V8.44896C-0.000136976 8.65269 0.0369616 8.85444 0.109175 9.04269C0.181388 9.23094 0.287298 9.40198 0.420848 9.54604C0.554397 9.6901 0.712966 9.80434 0.887483 9.88224C1.062 9.96013 1.24904 10.0001 1.43791 10H11.8954C12.0843 10.0001 12.2713 9.96013 12.4459 9.88224C12.6204 9.80434 12.7789 9.6901 12.9125 9.54604C13.046 9.40198 13.1519 9.23094 13.2242 9.04269C13.2964 8.85444 13.3335 8.65269 13.3333 8.44896V1.55104C13.3335 1.34732 13.2964 1.14556 13.2242 0.957309C13.1519 0.769062 13.046 0.598017 12.9125 0.45396C12.7789 0.309902 12.6204 0.195659 12.4459 0.117765C12.2713 0.0398698 12.0843 -0.000147938 11.8954 4.10949e-07ZM12.549 8.44332C12.549 8.6303 12.4802 8.80962 12.3576 8.94184C12.235 9.07406 12.0688 9.14834 11.8954 9.14834H1.43791C1.26457 9.14834 1.09832 9.07406 0.975748 8.94184C0.853175 8.80962 0.784314 8.6303 0.784314 8.44332V4.33164H12.549V8.44332ZM0.784314 2.63959V1.55104C0.784314 1.36406 0.853175 1.18474 0.975748 1.05252C1.09832 0.920303 1.26457 0.846024 1.43791 0.846024H11.8954C12.0688 0.846024 12.235 0.920303 12.3576 1.05252C12.4802 1.18474 12.549 1.36406 12.549 1.55104V2.64523H0.784314V2.63959ZM2.34248 7.89623H5.47974C5.58375 7.89623 5.68349 7.85166 5.75704 7.77233C5.83058 7.693 5.8719 7.58541 5.8719 7.47322C5.8719 7.36103 5.83058 7.25343 5.75704 7.1741C5.68349 7.09477 5.58375 7.05021 5.47974 7.05021H2.34248C2.23848 7.05021 2.13873 7.09477 2.06519 7.1741C1.99164 7.25343 1.95033 7.36103 1.95033 7.47322C1.95033 7.58541 1.99164 7.693 2.06519 7.77233C2.13873 7.85166 2.23848 7.89623 2.34248 7.89623ZM8.63268 7.89623H7.06406C6.96005 7.89623 6.8603 7.85166 6.78676 7.77233C6.71321 7.693 6.6719 7.58541 6.6719 7.47322C6.6719 7.36103 6.71321 7.25343 6.78676 7.1741C6.8603 7.09477 6.96005 7.05021 7.06406 7.05021H8.63268C8.73669 7.05021 8.83644 7.09477 8.90998 7.1741C8.98352 7.25343 9.02484 7.36103 9.02484 7.47322C9.02484 7.58541 8.98352 7.693 8.90998 7.77233C8.83644 7.85166 8.73669 7.89623 8.63268 7.89623Z" fill="#1E6015"/>
</svg>
