<svg width="12" height="12" viewBox="0 0 12 12" fill="none" xmlns="http://www.w3.org/2000/svg">
<path id="Vector (Stroke)" fill-rule="evenodd" clip-rule="evenodd" d="M3.59134 0.748311C3.45772 0.748264 3.3254 0.774543 3.20193 0.825647C3.07847 0.87675 2.96628 0.951676 2.87178 1.04615C2.77727 1.14062 2.70231 1.25278 2.65116 1.37622C2.60002 1.49967 2.57369 1.63199 2.57369 1.76561L2.57369 10.7112C2.57369 10.8997 2.53235 11.0839 2.45469 11.2517H9.24504C9.51497 11.2517 9.77385 11.1445 9.96472 10.9536C10.1556 10.7627 10.2628 10.5038 10.2628 10.2339L10.2628 1.76561C10.2628 1.63199 10.2365 1.49967 10.1854 1.37622C10.1342 1.25278 10.0592 1.14062 9.96474 1.04615C9.87023 0.951677 9.75805 0.87675 9.63458 0.825647C9.51112 0.774543 9.37879 0.748264 9.24517 0.748311H3.59134ZM1.29959 11.998C1.29535 11.998 1.2911 11.9981 1.28685 11.9981C0.945553 11.9981 0.618238 11.8625 0.376908 11.6212C0.135578 11.3798 0 11.0525 0 10.7112V3.3099C-5.94704e-08 2.9695 0.13518 2.64302 0.37582 2.40225C0.616461 2.16148 0.942865 2.02613 1.28327 2.02595H1.82538V1.76561C1.82538 1.5337 1.87107 1.30405 1.95984 1.0898C2.04861 0.875546 2.17871 0.680879 2.34273 0.516919C2.50675 0.352959 2.70146 0.222918 2.91574 0.134224C3.13 0.0455411 3.35963 -6.81065e-05 3.59151 7.63336e-08C3.59148 7.63336e-08 3.59154 7.63336e-08 3.59151 7.63336e-08L9.24491 1.06069e-07C9.24487 1.06069e-07 9.24495 1.06069e-07 9.24491 1.06069e-07C9.47678 -6.32596e-05 9.70652 0.0455458 9.92077 0.134224C10.1351 0.222918 10.3298 0.352958 10.4938 0.516919C10.6578 0.680879 10.7879 0.875546 10.8767 1.0898C10.9654 1.30405 11.0111 1.5337 11.0111 1.76561L11.0111 10.2339C11.0111 10.7023 10.8251 11.1515 10.4939 11.4827C10.1626 11.8139 9.71344 12 9.24504 12H1.33843C1.32532 12 1.31236 11.9993 1.29959 11.998ZM1.82538 2.77426H1.28367C1.14166 2.77434 1.00549 2.8308 0.905096 2.93125C0.804705 3.03169 0.748311 3.16789 0.748311 3.3099V10.7112C0.748311 10.8541 0.805049 10.991 0.906044 11.092C1.00704 11.193 1.14402 11.2498 1.28685 11.2498C1.42967 11.2498 1.56665 11.193 1.66765 11.092C1.76864 10.991 1.82538 10.8541 1.82538 10.7112V2.77426ZM3.85712 2.87791C3.85712 2.67127 4.02463 2.50375 4.23127 2.50375H8.57053C8.77717 2.50375 8.94468 2.67127 8.94468 2.87791V4.80646C8.94468 5.0131 8.77717 5.18062 8.57053 5.18062H4.23127C4.02463 5.18062 3.85712 5.0131 3.85712 4.80646V2.87791ZM4.60543 3.25206V4.43231H8.19637V3.25206H4.60543ZM3.85712 6.25288C3.85712 6.04624 4.02463 5.87873 4.23127 5.87873H5.67769C5.88433 5.87873 6.05184 6.04624 6.05184 6.25288V7.6993C6.05184 7.90594 5.88433 8.07345 5.67769 8.07345H4.23127C4.02463 8.07345 3.85712 7.90594 3.85712 7.6993V6.25288ZM4.60543 6.62704V7.32514H5.30353V6.62704H4.60543ZM6.26781 6.25288C6.26781 6.04624 6.43533 5.87873 6.64197 5.87873H8.57053C8.77717 5.87873 8.94468 6.04624 8.94468 6.25288C8.94468 6.45952 8.77717 6.62704 8.57053 6.62704H6.64197C6.43533 6.62704 6.26781 6.45952 6.26781 6.25288ZM6.26781 7.6993C6.26781 7.49266 6.43533 7.32515 6.64197 7.32515H7.60625C7.81289 7.32515 7.9804 7.49266 7.9804 7.6993C7.9804 7.90594 7.81289 8.07346 7.60625 8.07346H6.64197C6.43533 8.07346 6.26781 7.90594 6.26781 7.6993ZM3.85712 9.14572C3.85712 8.93908 4.02463 8.77156 4.23127 8.77156H8.57053C8.77717 8.77156 8.94468 8.93908 8.94468 9.14572C8.94468 9.35236 8.77717 9.51987 8.57053 9.51987H4.23127C4.02463 9.51987 3.85712 9.35236 3.85712 9.14572Z" fill="#8F4000"/>
</svg>
