<svg width="11" height="12" viewBox="0 0 11 12" fill="none" xmlns="http://www.w3.org/2000/svg">
<path id="Vector (Stroke)" fill-rule="evenodd" clip-rule="evenodd" d="M3.34694 0.367631C3.58233 0.132241 3.90159 0 4.23448 0C4.56738 0 4.88663 0.132241 5.12202 0.367631C5.28564 0.531251 5.39942 0.735393 5.4536 0.956469H6.86687C7.29147 0.956469 7.69871 1.12502 7.99911 1.4251C8.29951 1.72518 8.46851 2.13224 8.46896 2.55684L8.46897 4.12414C8.46897 4.32982 8.30223 4.49655 8.09655 4.49655C7.89087 4.49655 7.72414 4.32982 7.72414 4.12414V2.55764C7.72389 2.33044 7.63347 2.11263 7.47272 1.95206C7.31198 1.79149 7.09407 1.7013 6.86687 1.7013H5.40461C5.36659 1.8023 5.31559 1.89809 5.25282 1.98621H5.74268C5.94835 1.98621 6.11509 2.15294 6.11509 2.35862C6.11509 2.5643 5.94835 2.73103 5.74268 2.73103H2.65302C2.44734 2.73103 2.28061 2.5643 2.28061 2.35862C2.28061 2.15294 2.44734 1.98621 2.65302 1.98621H3.21615C3.15338 1.89809 3.10238 1.8023 3.06435 1.7013H1.6021C1.37489 1.7013 1.15698 1.79149 0.996242 1.95206C0.835541 2.11259 0.745119 2.33033 0.744828 2.55747V10.3983C0.744828 10.5109 0.767 10.6223 0.810079 10.7263C0.853158 10.8303 0.916299 10.9248 0.995895 11.0043C1.07549 11.0839 1.16998 11.147 1.27397 11.19C1.37796 11.2331 1.48942 11.2552 1.60196 11.2552H6.86731C7.09455 11.2552 7.31249 11.1649 7.47318 11.0042C7.63387 10.8435 7.72414 10.6256 7.72414 10.3983V9.34212C7.72414 9.13645 7.89087 8.96971 8.09655 8.96971C8.30223 8.96971 8.46897 9.13645 8.46897 9.34212V10.3983C8.46897 10.8231 8.30022 11.2305 7.99985 11.5309C7.69948 11.8313 7.2921 12 6.86731 12H1.60223C1.60219 12 1.60227 12 1.60223 12C1.3919 12.0001 1.18347 11.9587 0.989127 11.8782C0.794739 11.7978 0.618106 11.6798 0.469317 11.5311C0.320529 11.3824 0.2025 11.2058 0.121974 11.0114C0.0414471 10.817 0 10.6087 0 10.3983V2.55724C0.000457241 2.13264 0.169451 1.72518 0.469853 1.4251C0.770255 1.12502 1.17749 0.956469 1.6021 0.956469H3.01537C3.06954 0.735393 3.18332 0.531251 3.34694 0.367631ZM2.98828 1.36204L3.35923 1.32888L2.98828 1.36204ZM5.48069 1.36204L5.10974 1.32888L5.48103 1.35779C5.48092 1.3592 5.4808 1.36062 5.48069 1.36204ZM4.23448 0.744828C4.09913 0.744828 3.96932 0.798596 3.87361 0.894304C3.78004 0.987875 3.72656 1.11404 3.72422 1.24611L3.72633 1.26167C3.72743 1.27002 3.72894 1.28203 3.73017 1.29576L3.73054 1.29998C3.74042 1.42686 3.79778 1.54536 3.8912 1.63179C3.98462 1.71822 4.10721 1.76623 4.23448 1.76623C4.36176 1.76623 4.48434 1.71822 4.57777 1.63179C4.67119 1.54536 4.72857 1.42687 4.73845 1.29998L4.73878 1.29576C4.74 1.28203 4.74154 1.27002 4.74264 1.26167L4.74475 1.24611C4.7424 1.11404 4.68892 0.987876 4.59535 0.894304C4.49964 0.798596 4.36983 0.744828 4.23448 0.744828ZM1.39785 4.56552C1.39785 4.35984 1.56458 4.1931 1.77026 4.1931H3.0944C3.30008 4.1931 3.46681 4.35984 3.46681 4.56552V5.88965C3.46681 6.09533 3.30008 6.26207 3.0944 6.26207H1.77026C1.56458 6.26207 1.39785 6.09533 1.39785 5.88965V4.56552ZM2.14268 4.93793V5.51724H2.72199V4.93793H2.14268ZM8.99934 4.4805C9.14478 4.33506 9.38058 4.33506 9.52601 4.4805L10.4622 5.41666C10.6076 5.5621 10.6076 5.7979 10.4622 5.94334L7.96529 8.44022C7.90833 8.49718 7.83443 8.53414 7.75469 8.54554L6.66227 8.70179C6.54621 8.71839 6.42911 8.67937 6.34621 8.59647C6.26331 8.51356 6.22428 8.39646 6.24088 8.2804L6.39713 7.18799C6.40854 7.10824 6.44549 7.03434 6.50246 6.97738L8.05208 5.42776C8.05554 5.42401 8.05909 5.42031 8.06273 5.41666C8.06638 5.41302 8.07008 5.40947 8.07383 5.40601L8.99934 4.4805ZM8.32629 6.20689L7.11688 7.4163L7.04854 7.89414L7.52638 7.82579L8.73578 6.61639L8.32629 6.20689ZM9.26245 6.08971L8.85296 5.68022L9.26268 5.27051L9.67217 5.68L9.26245 6.08971ZM3.60474 5.0069C3.60474 4.80122 3.77148 4.63448 3.97716 4.63448H6.18405C6.38973 4.63448 6.55647 4.80122 6.55647 5.0069C6.55647 5.21257 6.38973 5.37931 6.18405 5.37931H3.97716C3.77148 5.37931 3.60474 5.21257 3.60474 5.0069ZM1.39785 7.21379C1.39785 7.00811 1.56458 6.84138 1.77026 6.84138H3.0944C3.30008 6.84138 3.46681 7.00811 3.46681 7.21379V8.53793C3.46681 8.74361 3.30008 8.91034 3.0944 8.91034H1.77026C1.56458 8.91034 1.39785 8.74361 1.39785 8.53793V7.21379ZM2.14268 7.58621V8.16552H2.72199V7.58621H2.14268ZM3.60474 7.65517C3.60474 7.44949 3.77148 7.28276 3.97716 7.28276H5.3013C5.50697 7.28276 5.67371 7.44949 5.67371 7.65517C5.67371 7.86085 5.50697 8.02759 5.3013 8.02759H3.97716C3.77148 8.02759 3.60474 7.86085 3.60474 7.65517Z" fill="#135D59"/>
</svg>
