<svg width="13" height="10" viewBox="0 0 13 10" fill="none" xmlns="http://www.w3.org/2000/svg">
<path id="vetor" d="M12.1311 0.701801C11.161 0.273832 10.1291 0.0362403 9.08305 0C8.08789 0.0320342 7.105 0.248463 6.17647 0.640017C5.24792 0.248523 4.26504 0.0320957 3.2699 0C2.22387 0.0361628 1.19196 0.273757 0.221869 0.701801C0.156041 0.731907 0.099852 0.782564 0.060373 0.847399C0.020894 0.912234 -0.000111246 0.988349 4.43097e-07 1.06617V9.60395C4.43097e-07 9.70899 0.0382789 9.80973 0.106415 9.884C0.174551 9.95827 0.266963 10 0.363322 10H11.9896C12.086 10 12.1784 9.95827 12.2465 9.884C12.3147 9.80973 12.3529 9.70899 12.3529 9.60395V1.06617C12.3529 0.98838 12.3319 0.912325 12.2924 0.847517C12.2529 0.782708 12.1968 0.732022 12.1311 0.701801ZM11.6263 1.33865V8.47072C10.8071 8.16302 9.94927 7.99471 9.08305 7.9717C8.21681 7.99461 7.35899 8.16293 6.53979 8.47072V1.33865C7.35477 1.00744 8.21373 0.822851 9.08305 0.7921C9.95235 0.822972 10.8113 1.00756 11.6263 1.33865ZM11.3536 9.20684H6.81204C7.54446 8.93649 8.31004 8.78784 9.08305 8.76591C9.85604 8.78891 10.6215 8.93862 11.3536 9.21001M0.726644 1.33865C1.54163 1.00744 2.40058 0.822851 3.2699 0.7921C4.1392 0.822972 4.99814 1.00756 5.81315 1.33865V8.47072C4.99383 8.16374 4.13602 7.99614 3.2699 7.97381C2.40366 7.99672 1.54584 8.16504 0.726644 8.47283V1.33865ZM5.54042 9.20684H0.998893C1.73131 8.93649 2.49689 8.78784 3.2699 8.76591C4.04289 8.78891 4.80831 8.93862 5.54042 9.21001" fill="#1E3CDC"/>
</svg>
