<svg width="14" height="14" viewBox="0 0 14 14" fill="none" xmlns="http://www.w3.org/2000/svg">
<g id="Outline/Ic-md-star2">
<path id="Vector" d="M12.2019 5.74437C12.0881 5.39875 11.795 5.14937 11.4363 5.09687L8.96 4.73812L7.85313 2.49813C7.69125 2.17 7.36313 1.96875 7 1.96875C6.63688 1.96875 6.30875 2.17 6.14688 2.49813L5.04 4.73812L2.56375 5.09687C2.20063 5.14937 1.9075 5.39875 1.79813 5.74437C1.68875 6.09 1.77625 6.46625 2.03875 6.72L3.82813 8.46125L3.40375 10.92C3.3425 11.2787 3.48688 11.6375 3.78 11.8519C3.94625 11.9744 4.14313 12.0356 4.34 12.0356C4.48875 12.0356 4.64188 12.0006 4.78188 11.9263L6.99563 10.7625L9.20938 11.9263C9.53313 12.0969 9.91375 12.0662 10.2113 11.8519C10.5044 11.6375 10.6488 11.2787 10.5875 10.92L10.1675 8.46125L11.9569 6.72C12.2194 6.46625 12.3113 6.09438 12.1975 5.74437H12.2019ZM11.3488 6.09L9.55938 7.83125C9.35375 8.0325 9.2575 8.32125 9.30563 8.60563L9.73 11.0644C9.73 11.0644 9.73875 11.1125 9.69938 11.1388C9.66 11.165 9.62938 11.1519 9.62063 11.1431L7.40688 9.97937C7.15313 9.84812 6.84688 9.84812 6.59313 9.97937L4.37938 11.1431C4.37938 11.1431 4.33563 11.165 4.30063 11.1388C4.26125 11.1125 4.27 11.0775 4.27 11.0644L4.69438 8.60563C4.7425 8.32125 4.65063 8.0325 4.44063 7.83125L2.65125 6.09C2.65125 6.09 2.61625 6.05937 2.63375 6.01125C2.65125 5.96312 2.68188 5.96312 2.695 5.95875L5.17125 5.6C5.45563 5.56063 5.70063 5.38125 5.83188 5.12313L6.93875 2.88313C6.93875 2.88313 6.96063 2.83937 7.00875 2.83937C7.05688 2.83937 7.07 2.87 7.07875 2.88313L8.18563 5.12313C8.3125 5.38125 8.5575 5.56063 8.84625 5.6L11.3225 5.95875C11.3225 5.95875 11.3706 5.9675 11.3838 6.01125C11.3969 6.055 11.375 6.08125 11.3663 6.09H11.3488Z" fill="#8F00A8"/>
<path id="Vector_2" d="M7.4375 12.25L7.4375 14L6.5625 14L6.5625 12.25L7.4375 12.25Z" fill="#8F00A8"/>
<g id="Vector_3">
<path d="M2.84374 1.75L4.11687 3.02311L3.49999 3.63998L2.22687 2.36686L2.84374 1.75Z" fill="#8F00A8"/>
<path d="M11.1562 1.75L11.7731 2.36686L10.5 3.63998L9.88312 3.02311L11.1562 1.75Z" fill="#8F00A8"/>
</g>
<g id="Vector_4">
<path d="M12.39 11.0776L11.1168 9.80452L11.7337 9.18765L13.0068 10.4608L12.39 11.0776Z" fill="#8F00A8"/>
<path d="M1.49187 11.0776L0.874996 10.4608L2.14812 9.18766L2.765 9.80452L1.49187 11.0776Z" fill="#8F00A8"/>
</g>
</g>
</svg>
