<svg id="Icon_metro-file-pdf" data-name="Icon metro-file-pdf" xmlns="http://www.w3.org/2000/svg" width="23.022" height="26.859" viewBox="0 0 23.022 26.859">
  <path id="Icon_metro-file-pdf-2" data-name="Icon metro-file-pdf" d="M24.574,7.9a3.488,3.488,0,0,1,.719,1.139,3.459,3.459,0,0,1,.3,1.319V27.624a1.433,1.433,0,0,1-1.439,1.439H4.01a1.433,1.433,0,0,1-1.439-1.439V3.642A1.433,1.433,0,0,1,4.01,2.2h13.43a3.46,3.46,0,0,1,1.319.3,3.488,3.488,0,0,1,1.139.719ZM17.919,4.242V9.878h5.636a1.638,1.638,0,0,0-.33-.615L18.533,4.572a1.637,1.637,0,0,0-.615-.33Zm5.756,22.9V11.8H17.439A1.433,1.433,0,0,1,16,10.357V4.122H4.489V27.144H23.675Zm-7.7-8.888a11.4,11.4,0,0,0,1.259.839,14.874,14.874,0,0,1,1.754-.1q2.2,0,2.653.734a.724.724,0,0,1,.03.779.043.043,0,0,1-.015.03l-.03.03v.015q-.09.57-1.064.57a6.183,6.183,0,0,1-1.724-.3,10.929,10.929,0,0,1-1.949-.794A26.989,26.989,0,0,0,11.009,21.3q-2.293,3.927-3.627,3.927a.872.872,0,0,1-.42-.1l-.36-.18q-.015-.015-.09-.075a.619.619,0,0,1-.09-.54,3.255,3.255,0,0,1,.839-1.371,7.244,7.244,0,0,1,1.979-1.446.219.219,0,0,1,.345.09.086.086,0,0,1,.03.06q.779-1.274,1.6-2.953a22.876,22.876,0,0,0,1.559-3.927,12.116,12.116,0,0,1-.457-2.391,5.828,5.828,0,0,1,.1-1.911q.165-.6.63-.6h.33a.632.632,0,0,1,.525.225,1.2,1.2,0,0,1,.135,1.019.325.325,0,0,1-.06.12.39.39,0,0,1,.015.12v.45a19.627,19.627,0,0,1-.21,2.878,7.583,7.583,0,0,0,2.188,3.567Zm-8.633,6.16A6.618,6.618,0,0,0,9.39,22.048a8.544,8.544,0,0,0-1.311,1.259A4.982,4.982,0,0,0,7.337,24.416ZM13.3,10.627a4.457,4.457,0,0,0-.03,1.978q.015-.1.1-.659,0-.045.1-.644a.337.337,0,0,1,.06-.12.043.043,0,0,1-.015-.03.03.03,0,0,0-.008-.022.03.03,0,0,1-.008-.022.863.863,0,0,0-.195-.54.043.043,0,0,1-.015.03v.03Zm-1.859,9.907A21.985,21.985,0,0,1,15.7,19.32a2.261,2.261,0,0,1-.195-.142,2.684,2.684,0,0,1-.24-.2,7.939,7.939,0,0,1-1.9-2.638,20.029,20.029,0,0,1-1.244,2.953q-.45.839-.674,1.244Zm9.683-.24a3.587,3.587,0,0,0-2.1-.36,5.669,5.669,0,0,0,1.859.42,1.454,1.454,0,0,0,.27-.015q0-.015-.03-.045Z" transform="translate(-2.571 -2.204)" fill="#191919"/>
</svg>
