<svg width="40" height="40" viewBox="0 0 40 40" fill="none" xmlns="http://www.w3.org/2000/svg">
<g clip-path="url(#clip0_5281_41423)">
<path d="M40 20C40 8.9543 31.0457 0 20 0C8.9543 0 0 8.9543 0 20C0 31.0457 8.9543 40 20 40C31.0457 40 40 31.0457 40 20Z" fill="white"/>
<circle cx="20" cy="14" r="3.25" stroke="#191919" stroke-width="1.5"/>
<circle cx="20" cy="20" r="19.5" stroke="#191919"/>
<mask id="path-4-inside-1_5281_41423" fill="white">
<path fill-rule="evenodd" clip-rule="evenodd" d="M10.9038 26.5996C11.9849 22.5647 15.6669 19.5938 20.0429 19.5938C24.4189 19.5938 28.101 22.5648 29.182 26.5997C26.7609 28.7789 23.5568 30.1052 20.043 30.1052C16.5291 30.1052 13.3249 28.7789 10.9038 26.5996Z"/>
</mask>
<path d="M10.9038 26.5996L9.45492 26.2114L9.21698 27.0994L9.90029 27.7145L10.9038 26.5996ZM29.182 26.5997L30.1855 27.7146L30.8688 27.0996L30.6309 26.2115L29.182 26.5997ZM12.3527 26.9878C13.2625 23.5921 16.3629 21.0938 20.0429 21.0938V18.0938C14.971 18.0938 10.7073 21.5373 9.45492 26.2114L12.3527 26.9878ZM20.0429 21.0938C23.723 21.0938 26.8233 23.5922 27.7331 26.9879L30.6309 26.2115C29.3786 21.5374 25.1148 18.0938 20.0429 18.0938V21.0938ZM28.1785 25.4848C26.0221 27.4258 23.1721 28.6052 20.043 28.6052V31.6052C23.9416 31.6052 27.4997 30.1321 30.1855 27.7146L28.1785 25.4848ZM20.043 28.6052C16.9138 28.6052 14.0637 27.4257 11.9073 25.4847L9.90029 27.7145C12.5861 30.132 16.1443 31.6052 20.043 31.6052V28.6052Z" fill="#191919" mask="url(#path-4-inside-1_5281_41423)"/>
</g>
<defs>
<clipPath id="clip0_5281_41423">
<rect width="40" height="40" fill="white"/>
</clipPath>
</defs>
</svg>
