<svg xmlns="http://www.w3.org/2000/svg" width="10.007" height="10" viewBox="0 0 10.007 10">
  <g id="Grupo_82583" data-name="Grupo 82583" transform="translate(-229 -135)">
    <path id="Trazado_109316" data-name="Trazado 109316" d="M239.007,135.926a.606.606,0,0,0-.586-.623.584.584,0,0,0-.237.041.6.6,0,0,0-.338.332.6.6,0,0,0-.047.24v.826a5.114,5.114,0,0,0-.734-.7,5.022,5.022,0,0,0-1.058-.628,4.856,4.856,0,0,0-1.088-.333,5.234,5.234,0,0,0-1.414-.057,4.776,4.776,0,0,0-.546.088l-.016,0a3.266,3.266,0,0,0-.432.112c-.207.072-.411.155-.6.234a4.081,4.081,0,0,0-.709.4,5.029,5.029,0,0,0-.693.569,5.093,5.093,0,0,0-.66.79,4.7,4.7,0,0,0-.506.975,5.241,5.241,0,0,0-.18.548,5.166,5.166,0,0,0-.1.536c-.026.169-.044.339-.053.509a4.062,4.062,0,0,0,.036.81l0,.034c.028.183.057.373.1.559a4.514,4.514,0,0,0,.283.83,5.018,5.018,0,0,0,1.537,1.952,5.221,5.221,0,0,0,.889.546,4.545,4.545,0,0,0,.815.306c.172.046.353.085.553.12a3.688,3.688,0,0,0,.433.043c.133.007.272.014.413.014l.132,0a3.985,3.985,0,0,0,.762-.091c.045-.011.09-.02.135-.03a2.932,2.932,0,0,0,.32-.079c.222-.07.438-.156.6-.222a4.48,4.48,0,0,0,1.048-.617,4.346,4.346,0,0,0,.67-.63c.111-.13.236-.278.347-.434a5.173,5.173,0,0,0,.521-.93.619.619,0,0,0,.01-.536.59.59,0,0,0-.511-.349.608.608,0,0,0-.558.306c-.031.062-.061.124-.091.187s-.065.135-.1.2a3.444,3.444,0,0,1-.443.666,3.814,3.814,0,0,1-1.306,1,3.9,3.9,0,0,1-.816.27,4.1,4.1,0,0,1-.742.083,3.565,3.565,0,0,1-.855-.089,3.71,3.71,0,0,1-.76-.254,3.778,3.778,0,0,1-1.762-1.64,3.433,3.433,0,0,1-.392-1.1c-.028-.173-.056-.356-.067-.535a3.574,3.574,0,0,1,.1-1.061,3.875,3.875,0,0,1,.237-.687,3.784,3.784,0,0,1,.537-.853,3.931,3.931,0,0,1,.674-.634,3.889,3.889,0,0,1,.773-.441,3.005,3.005,0,0,1,.761-.225l.088-.013c.148-.022.3-.045.45-.054a3.319,3.319,0,0,1,.889.069,4.429,4.429,0,0,1,.47.119,3.628,3.628,0,0,1,.765.351,3.388,3.388,0,0,1,.653.5c.141.142.275.3.4.453l.013.015.01.012h-1.059a.616.616,0,0,0-.607.53.6.6,0,0,0,.023.249.593.593,0,0,0,.123.217.606.606,0,0,0,.451.211h2.4a.6.6,0,0,0,.637-.631c0-.433,0-.873,0-1.3v-1.081" fill="#e50a17"/>
  </g>
</svg>
