<svg width="27" height="21" viewBox="0 0 27 21" fill="none" xmlns="http://www.w3.org/2000/svg">
<path d="M26.0191 10.2096C25.9812 10.1203 25.927 10.0389 25.8591 9.96965L16.5891 0.699646C16.5204 0.625959 16.4376 0.566857 16.3456 0.525865C16.2536 0.484873 16.1543 0.462831 16.0536 0.461054C15.9529 0.459277 15.8529 0.477802 15.7595 0.515523C15.6661 0.553244 15.5813 0.609389 15.5101 0.680607C15.4388 0.751826 15.3827 0.83666 15.345 0.930048C15.3073 1.02344 15.2887 1.12347 15.2905 1.22417C15.2923 1.32487 15.3143 1.42418 15.3553 1.51618C15.3963 1.60818 15.4554 1.69098 15.5291 1.75965L23.5191 9.74965H1.3291C1.13019 9.74965 0.939424 9.82866 0.798772 9.96932C0.658119 10.11 0.579102 10.3007 0.579102 10.4996C0.579102 10.6986 0.658119 10.8893 0.798772 11.03C0.939424 11.1706 1.13019 11.2496 1.3291 11.2496H23.5191L15.5291 19.2396C15.3896 19.3808 15.3114 19.5712 15.3114 19.7696C15.3114 19.9681 15.3896 20.1585 15.5291 20.2996C15.5986 20.3694 15.6812 20.4248 15.7721 20.4626C15.8631 20.5004 15.9606 20.5198 16.0591 20.5198C16.1576 20.5198 16.2551 20.5004 16.3461 20.4626C16.437 20.4248 16.5196 20.3694 16.5891 20.2996L25.8591 11.0296C25.927 10.9603 25.9812 10.8789 26.0191 10.7896C26.0587 10.6981 26.0791 10.5994 26.0791 10.4996C26.0791 10.3999 26.0587 10.3012 26.0191 10.2096Z" fill="white"/>
</svg>
