<svg width="32" height="32" viewBox="0 0 32 32" fill="none" xmlns="http://www.w3.org/2000/svg">
<g clip-path="url(#clip0_3574_10866)">
<mask id="mask0_3574_10866" style="mask-type:alpha" maskUnits="userSpaceOnUse" x="4" y="5" width="22" height="22">
<path d="M24.8905 5H5.0995C4.80789 5 4.52823 5.11584 4.32204 5.32204C4.11584 5.52823 4 5.80789 4 6.0995V25.8905C4 26.1821 4.11584 26.4618 4.32204 26.668C4.52823 26.8742 4.80789 26.99 5.0995 26.99H24.8905C25.1821 26.99 25.4618 26.8742 25.668 26.668C25.8742 26.4618 25.99 26.1821 25.99 25.8905V6.0995C25.99 5.80789 25.8742 5.52823 25.668 5.32204C25.4618 5.11584 25.1821 5 24.8905 5ZM21.283 14.5931C21.1632 14.6052 21.0423 14.6107 20.9224 14.6118C20.2701 14.6127 19.6278 14.451 19.0536 14.1413C18.4795 13.8317 17.9915 13.3839 17.6338 12.8383V18.8779C17.634 19.7611 17.3723 20.6245 16.8818 21.359C16.3912 22.0934 15.6939 22.6659 14.8779 23.004C14.062 23.3421 13.1641 23.4306 12.2979 23.2583C11.4317 23.0861 10.636 22.6608 10.0115 22.0363C9.38693 21.4118 8.96165 20.6161 8.7894 19.7498C8.61715 18.8836 8.70567 17.9857 9.04375 17.1698C9.38184 16.3538 9.95431 15.6565 10.6888 15.166C11.4232 14.6754 12.2866 14.4137 13.1698 14.4139C13.2633 14.4139 13.3534 14.4227 13.4458 14.4282V16.6272C13.1382 16.59 12.8262 16.616 12.529 16.7037C12.2318 16.7915 11.9557 16.9391 11.7177 17.1374C11.4796 17.3358 11.2846 17.5807 11.1447 17.8572C11.0048 18.1337 10.9229 18.4359 10.9041 18.7452C10.8852 19.0544 10.9298 19.3643 11.0351 19.6558C11.1404 19.9472 11.3042 20.214 11.5164 20.4398C11.7286 20.6656 11.9848 20.8456 12.2691 20.9688C12.5534 21.092 12.86 21.1557 13.1698 21.1561C13.7813 21.1671 14.3728 20.9377 14.8169 20.5173C15.261 20.0968 15.5224 19.5188 15.5448 18.9076L15.5667 8.64814H17.6712C17.7673 9.56232 18.1817 10.4136 18.8419 11.0532C19.5022 11.6927 20.3663 12.0798 21.283 12.1468V14.5931Z" fill="black"/>
</mask>
<g mask="url(#mask0_3574_10866)">
<path d="M20.986 5H8.99952C8.34265 5 7.69222 5.12945 7.08539 5.38094C6.47857 5.63243 5.92726 6.00104 5.46296 6.46569C4.99866 6.93035 4.63048 7.48195 4.37946 8.08896C4.12844 8.69598 3.99949 9.34651 4 10.0034V21.9898C4 23.3158 4.52673 24.5874 5.46433 25.525C6.40192 26.4626 7.67357 26.9894 8.99952 26.9894H20.986C22.3082 26.9873 23.5757 26.4612 24.5107 25.5262C25.4457 24.5912 25.9719 23.3237 25.9739 22.0014V10.015C25.9759 9.35811 25.8485 8.70728 25.5989 8.09968C25.3493 7.49208 24.9824 6.93963 24.5192 6.47389C24.0559 6.00816 23.5055 5.63827 22.8992 5.38537C22.293 5.13248 21.6429 5.00152 20.986 5Z" fill="white"/>
</g>
</g>
<defs>
<clipPath id="clip0_3574_10866">
<rect width="21.97" height="21.99" fill="white" transform="translate(4 5)"/>
</clipPath>
</defs>
</svg>
