<svg id="Layer_2" data-name="Layer 2" xmlns="http://www.w3.org/2000/svg" viewBox="0 0 24.73 27">
  <defs>
    <style>
      .cls-1 {
        fill: #e50a17;
      }

      .cls-2 {
        fill: #191919;
      }
    </style>
  </defs>
  <g id="Layer_1-2" data-name="Layer 1">
    <g>
      <path class="cls-1" d="m22.41,11.26c-.06,0-.11.02-.15.05l-5.61,5.61s-.05.07-.06.12l-.35,2.45c0,.07.01.13.06.18.04.04.09.06.15.06l2.48-.35s.09-.03.12-.06l5.61-5.61s.06-.09.06-.15-.02-.11-.06-.15l-2.1-2.1s-.09-.05-.15-.05Z"/>
      <g>
        <path class="cls-2" d="m15.46,27H3.54c-1.95,0-3.54-1.59-3.54-3.54V5.7c0-1.95,1.59-3.54,3.54-3.54h3.98c.41,0,.75.34.75.75s-.34.75-.75.75h-3.98c-1.12,0-2.04.91-2.04,2.04v17.76c0,1.12.91,2.04,2.04,2.04h11.93c1.12,0,2.04-.91,2.04-2.04v-2.39c0-.41.34-.75.75-.75s.75.34.75.75v2.39c0,1.95-1.59,3.54-3.54,3.54Z"/>
        <path class="cls-2" d="m18.25,10c-.41,0-.75-.34-.75-.75v-3.55c0-1.12-.91-2.04-2.04-2.04h-3.98c-.41,0-.75-.34-.75-.75s.34-.75.75-.75h3.98c1.95,0,3.54,1.59,3.54,3.54v3.55c0,.41-.34.75-.75.75Z"/>
        <path class="cls-2" d="m12.25,2.75c0-1.52-1.23-2.75-2.75-2.75s-2.75,1.23-2.75,2.75c0,.07,0,.13.02.22,0,0,0,0,0,0,0,0,0,0,0,0,.12,1.44,1.29,2.52,2.73,2.52s2.61-1.08,2.73-2.52c0,0,0,0,0-.01,0,0,0,0,0-.01,0-.07.02-.13.02-.2Zm-2.75,1.25c-.65,0-1.18-.49-1.24-1.15,0,0,0,0,0,0v-.1c-.01-.69.55-1.25,1.24-1.25s1.25.56,1.25,1.25c0,.01,0,.09-.01.1,0,0,0,0,0,0,0,0,0,0,0,0-.05.65-.59,1.15-1.24,1.15Z"/>
      </g>
      <path class="cls-2" d="m12.92,6h-7c-.41,0-.75-.34-.75-.75s.34-.75.75-.75h7c.41,0,.75.34.75.75s-.34.75-.75.75Z"/>
      <path class="cls-2" d="m13.92,12h-5c-.41,0-.75-.34-.75-.75s.34-.75.75-.75h5c.41,0,.75.34.75.75s-.34.75-.75.75Z"/>
      <path class="cls-2" d="m11.92,18h-3c-.41,0-.75-.34-.75-.75s.34-.75.75-.75h3c.41,0,.75.34.75.75s-.34.75-.75.75Z"/>
      <path class="cls-2" d="m23.54,12.25l-2.12-2.12c-.28-.28-.78-.28-1.06,0l-5.66,5.66c-.12.11-.19.26-.21.42l-.35,2.47c-.03.23.04.47.21.64.14.14.33.22.53.22.04,0,.07,0,.11,0l2.47-.35c.16-.02.31-.1.42-.21l5.66-5.66c.14-.14.22-.33.22-.53s-.08-.39-.22-.53Zm-6.54,5.48l-1.24.18.18-1.24,2.83-2.83,1.06,1.06-2.83,2.83Zm3.89-3.89l-1.06-1.06,1.06-1.06,1.06,1.06-1.06,1.06Z"/>
      <path class="cls-2" d="m6.92,14h-3c-.41,0-.75-.34-.75-.75v-3c0-.41.34-.75.75-.75h3c.41,0,.75.34.75.75v3c0,.41-.34.75-.75.75Zm-2.25-1.5h1.5v-1.5h-1.5v1.5Z"/>
      <path class="cls-2" d="m6.92,20h-3c-.41,0-.75-.34-.75-.75v-3c0-.41.34-.75.75-.75h3c.41,0,.75.34.75.75v3c0,.41-.34.75-.75.75Zm-2.25-1.5h1.5v-1.5h-1.5v1.5Z"/>
    </g>
  </g>
</svg>