<svg width="32" height="32" viewBox="0 0 32 32" fill="none" xmlns="http://www.w3.org/2000/svg">
<g id="IconUPC/RRSS/Twitter-solid">
<path id="Vector" d="M22.0009 4.99951H10.0145C8.68852 4.99951 7.41687 5.52624 6.47928 6.46384C5.54169 7.40143 5.01496 8.67308 5.01496 9.99903V21.9855C5.01445 22.6424 5.14339 23.2929 5.39441 23.8999C5.64543 24.5069 6.01361 25.0585 6.47791 25.5232C6.94221 25.9878 7.49353 26.3565 8.10035 26.6079C8.70717 26.8594 9.3576 26.9889 10.0145 26.9889H22.0009C23.3235 26.9858 24.591 26.4588 25.5259 25.5232C26.4608 24.5876 26.9868 23.3197 26.9889 21.9971V10.0106C26.9909 9.35394 26.8634 8.70329 26.6138 8.09591C26.3641 7.48853 25.9971 6.93633 25.5339 6.4709C25.0706 6.00548 24.5201 5.63595 23.9139 5.38348C23.3077 5.131 22.6576 5.00053 22.0009 4.99951ZM23.5089 11.3485C23.0924 11.9674 22.5686 12.5069 21.9623 12.9415C21.9623 13.073 21.9623 13.2044 21.9623 13.3282C21.9623 17.4036 18.869 22.1054 13.2199 22.1054C11.5475 22.108 9.90978 21.6288 8.50263 20.725C8.74653 20.7529 8.9918 20.7671 9.23728 20.7675C10.6277 20.7673 11.9776 20.2988 13.0691 19.4374C12.4276 19.423 11.8065 19.2094 11.2917 18.8263C10.777 18.4432 10.3942 17.9095 10.1962 17.2992C10.3875 17.3348 10.5816 17.3529 10.7762 17.3533C11.049 17.3543 11.3207 17.3192 11.5843 17.2489C10.889 17.1051 10.2643 16.7265 9.81511 16.1767C9.36592 15.6268 9.11957 14.9391 9.11742 14.2291V14.1904C9.54347 14.4296 10.021 14.5623 10.5094 14.5771C9.86113 14.1396 9.40261 13.4729 9.22613 12.711C9.04965 11.9491 9.1683 11.1487 9.55821 10.4708C10.3316 11.4211 11.2961 12.1982 12.3892 12.7517C13.4823 13.3053 14.6796 13.6229 15.9033 13.6839C15.8485 13.4547 15.8213 13.2197 15.8221 12.984C15.8344 12.3737 16.027 11.7806 16.3756 11.2795C16.7243 10.7784 17.2135 10.3917 17.7815 10.168C18.3495 9.94435 18.971 9.89378 19.5678 10.0226C20.1645 10.1515 20.7097 10.4541 21.1348 10.8922C21.8259 10.7505 22.4868 10.4888 23.0875 10.1189C22.8579 10.8325 22.377 11.4384 21.7341 11.8241C22.3465 11.7543 22.9448 11.5926 23.5089 11.3446V11.3485Z" fill="white"/>
</g>
</svg>
