<svg xmlns="http://www.w3.org/2000/svg" width="14" height="18.667" viewBox="0 0 14 18.667">
  <path id="Trazado_109427" data-name="Trazado 109427" d="M13.752,22.61a.573.573,0,0,0,.5,0,.568.568,0,0,0,.2-.156l.012-.015c.4-.5,6.542-8.124,6.542-11.669a6.661,6.661,0,0,0-2.05-4.788,7.168,7.168,0,0,0-9.9,0A6.661,6.661,0,0,0,7,10.771c0,3.545,6.142,11.173,6.542,11.669l.012.015A.568.568,0,0,0,13.752,22.61ZM9.856,6.762a5.992,5.992,0,0,1,8.288,0,5.59,5.59,0,0,1,1.721,4.009c0,2.46-3.89,7.928-5.865,10.446C12.025,18.7,8.135,13.231,8.135,10.771A5.591,5.591,0,0,1,9.856,6.762Zm2.391,6.547a3.234,3.234,0,0,0,3.984-.38,2.975,2.975,0,0,0,.393-3.854,3.135,3.135,0,0,0-1.416-1.124,3.255,3.255,0,0,0-1.823-.174,3.19,3.19,0,0,0-1.616.835,3.024,3.024,0,0,0-.864,1.563,2.96,2.96,0,0,0,.18,1.764A3.077,3.077,0,0,0,12.247,13.309Zm.631-4.163a2.069,2.069,0,0,1,2.55.244,1.9,1.9,0,0,1,.253,2.467,2.008,2.008,0,0,1-.907.72,2.084,2.084,0,0,1-1.167.111,2.043,2.043,0,0,1-1.035-.535,1.936,1.936,0,0,1-.553-1,1.9,1.9,0,0,1,.115-1.129A1.97,1.97,0,0,1,12.877,9.146Z" transform="translate(-7 -4)" fill="#359e29" fill-rule="evenodd"/>
</svg>
