<svg width="32" height="32" viewBox="0 0 32 32" fill="none" xmlns="http://www.w3.org/2000/svg">
<path d="M22.9955 8.00196H8.99941C8.47389 8.00138 7.95342 8.10438 7.46774 8.30508C6.98206 8.50578 6.5407 8.80025 6.1689 9.17163C5.7971 9.54302 5.50215 9.98406 5.30091 10.4695C5.09967 10.955 4.99609 11.4753 4.99609 12.0009V19.9986C4.99609 21.0604 5.41787 22.0786 6.16864 22.8294C6.9194 23.5802 7.93766 24.002 8.99941 24.002H22.9955C24.0573 24.002 25.0755 23.5802 25.8263 22.8294C26.5771 22.0786 26.9989 21.0604 26.9989 19.9986V12.0009C26.9989 11.4753 26.8953 10.955 26.694 10.4695C26.4928 9.98406 26.1978 9.54302 25.826 9.17163C25.4542 8.80025 25.0129 8.50578 24.5272 8.30508C24.0415 8.10438 23.5211 8.00138 22.9955 8.00196ZM18.4758 16.8825L14.5034 19.16C14.3502 19.247 14.1767 19.292 14.0005 19.2905C13.8243 19.289 13.6516 19.241 13.4999 19.1515C13.3481 19.062 13.2227 18.934 13.1362 18.7805C13.0496 18.627 13.0051 18.4534 13.0071 18.2773V13.7222C13.0051 13.546 13.0496 13.3725 13.1362 13.219C13.2227 13.0655 13.3481 12.9375 13.4999 12.848C13.6516 12.7585 13.8243 12.7105 14.0005 12.709C14.1767 12.7075 14.3502 12.7525 14.5034 12.8395L18.4758 15.117C18.6366 15.2016 18.7713 15.3286 18.8652 15.4841C18.9592 15.6397 19.0088 15.818 19.0088 15.9997C19.0088 16.1815 18.9592 16.3598 18.8652 16.5153C18.7713 16.6709 18.6366 16.7979 18.4758 16.8825Z" fill="white"/>
</svg>
